<?xml version="1.0" encoding="UTF-8"?>
<svg id="Layer_1" data-name="Layer 1" xmlns="http://www.w3.org/2000/svg" viewBox="0 0 90 90">
  <defs>
    <style>
      .cls-1 {
        fill: #fff;
      }

      .cls-2 {
        fill: none;
      }

      .cls-3 {
        fill: #ffdaa2;
      }
    </style>
  </defs>
  <rect class="cls-3" x="0" y="0" width="90" height="90"/>
  <rect class="cls-2" x="0" width="90" height="90"/>
  <circle class="cls-1" cx="8.2" cy="81.82" r="4.09"/>
  <circle class="cls-1" cx="16.38" cy="73.64" r="4.09"/>
  <circle class="cls-1" cx="8.2" cy="65.47" r="4.09"/>
  <circle class="cls-1" cx="8.2" cy="49.11" r="4.09"/>
  <circle class="cls-1" cx="16.38" cy="40.94" r="4.09"/>
  <circle class="cls-1" cx="8.2" cy="32.76" r="4.09"/>
  <circle class="cls-1" cx="8.2" cy="16.41" r="4.09"/>
  <circle class="cls-1" cx="16.38" cy="8.23" r="4.09"/>
  <circle class="cls-1" cx="16.38" cy="24.58" r="4.09"/>
  <circle class="cls-1" cx="16.38" cy="57.29" r="4.09"/>
  <circle class="cls-1" cx="24.55" cy="81.82" r="4.09"/>
  <circle class="cls-1" cx="32.73" cy="73.64" r="4.09"/>
  <circle class="cls-1" cx="24.55" cy="65.47" r="4.09"/>
  <circle class="cls-1" cx="24.55" cy="49.11" r="4.09"/>
  <circle class="cls-1" cx="32.73" cy="40.94" r="4.09"/>
  <circle class="cls-1" cx="24.55" cy="32.76" r="4.09"/>
  <circle class="cls-1" cx="24.55" cy="16.41" r="4.09"/>
  <circle class="cls-1" cx="32.73" cy="8.23" r="4.09"/>
  <circle class="cls-1" cx="32.73" cy="24.58" r="4.09"/>
  <circle class="cls-1" cx="32.73" cy="57.29" r="4.09"/>
  <circle class="cls-1" cx="40.91" cy="81.82" r="4.09"/>
  <circle class="cls-1" cx="49.08" cy="73.64" r="4.09"/>
  <circle class="cls-1" cx="40.91" cy="65.47" r="4.09"/>
  <circle class="cls-1" cx="40.91" cy="49.11" r="4.09"/>
  <circle class="cls-1" cx="49.08" cy="40.94" r="4.09"/>
  <circle class="cls-1" cx="40.91" cy="32.76" r="4.09"/>
  <circle class="cls-1" cx="40.91" cy="16.41" r="4.09"/>
  <circle class="cls-1" cx="49.08" cy="8.23" r="4.09"/>
  <circle class="cls-1" cx="49.08" cy="24.58" r="4.09"/>
  <circle class="cls-1" cx="49.08" cy="57.29" r="4.09"/>
  <circle class="cls-1" cx="57.26" cy="81.82" r="4.09"/>
  <circle class="cls-1" cx="65.44" cy="73.64" r="4.09"/>
  <circle class="cls-1" cx="57.26" cy="65.47" r="4.09"/>
  <circle class="cls-1" cx="57.26" cy="49.11" r="4.09"/>
  <circle class="cls-1" cx="65.44" cy="40.94" r="4.09"/>
  <circle class="cls-1" cx="57.26" cy="32.76" r="4.09"/>
  <circle class="cls-1" cx="57.26" cy="16.41" r="4.09"/>
  <circle class="cls-1" cx="65.44" cy="8.23" r="4.09"/>
  <circle class="cls-1" cx="65.44" cy="24.58" r="4.09"/>
  <circle class="cls-1" cx="65.44" cy="57.29" r="4.09"/>
  <circle class="cls-1" cx="73.61" cy="81.82" r="4.09"/>
  <circle class="cls-1" cx="81.79" cy="73.64" r="4.09"/>
  <circle class="cls-1" cx="73.61" cy="65.47" r="4.09"/>
  <circle class="cls-1" cx="73.61" cy="49.11" r="4.09"/>
  <circle class="cls-1" cx="81.79" cy="40.94" r="4.09"/>
  <circle class="cls-1" cx="73.61" cy="32.76" r="4.09"/>
  <circle class="cls-1" cx="73.61" cy="16.41" r="4.09"/>
  <circle class="cls-1" cx="81.79" cy="8.23" r="4.09"/>
  <circle class="cls-1" cx="81.79" cy="24.58" r="4.09"/>
  <circle class="cls-1" cx="81.79" cy="57.29" r="4.09"/>
  <path class="cls-1" d="M90,61.38s-.02,0-.03,0c-2.26,0-4.09,1.83-4.09,4.09s1.83,4.09,4.09,4.09c.01,0,.02,0,.03,0v-8.17Z"/>
  <path class="cls-1" d="M90,77.73s-.02,0-.03,0c-2.26,0-4.09,1.83-4.09,4.09s1.83,4.09,4.09,4.09c.01,0,.02,0,.03,0v-8.17Z"/>
  <path class="cls-1" d="M.02,4.14s-.01,0-.02,0v8.18s.01,0,.02,0c2.26,0,4.09-1.83,4.09-4.09S2.28,4.14.02,4.14Z"/>
  <path class="cls-1" d="M.02,20.49s-.01,0-.02,0v8.18s.01,0,.02,0c2.26,0,4.09-1.83,4.09-4.09S2.28,20.49.02,20.49Z"/>
  <path class="cls-1" d="M.02,36.85s-.01,0-.02,0v8.18s.01,0,.02,0c2.26,0,4.09-1.83,4.09-4.09S2.28,36.85.02,36.85Z"/>
  <path class="cls-1" d="M.02,53.2s-.01,0-.02,0v8.18s.01,0,.02,0c2.26,0,4.09-1.83,4.09-4.09S2.28,53.2.02,53.2Z"/>
  <path class="cls-1" d="M.02,69.55s-.01,0-.02,0v8.18s.01,0,.02,0c2.26,0,4.09-1.83,4.09-4.09s-1.83-4.09-4.09-4.09Z"/>
  <path class="cls-1" d="M90,12.32s-.02,0-.03,0c-2.26,0-4.09,1.83-4.09,4.09s1.83,4.09,4.09,4.09c.01,0,.02,0,.03,0v-8.17Z"/>
  <path class="cls-1" d="M90,28.67s-.02,0-.03,0c-2.26,0-4.09,1.83-4.09,4.09s1.83,4.09,4.09,4.09c.01,0,.02,0,.03,0v-8.17Z"/>
  <path class="cls-1" d="M90,45.02s-.02,0-.03,0c-2.26,0-4.09,1.83-4.09,4.09s1.83,4.09,4.09,4.09c.01,0,.02,0,.03,0v-8.17Z"/>
  <path class="cls-1" d="M4.12,0s0,.03,0,.05c0,2.26,1.83,4.09,4.09,4.09S12.29,2.31,12.29.05c0-.02,0-.03,0-.05H4.12Z"/>
  <path class="cls-1" d="M20.47,0s0,.03,0,.05c0,2.26,1.83,4.09,4.09,4.09S28.64,2.31,28.64.05c0-.02,0-.03,0-.05h-8.17Z"/>
  <path class="cls-1" d="M36.83,0s0,.03,0,.05c0,2.26,1.83,4.09,4.09,4.09s4.09-1.83,4.09-4.09c0-.02,0-.03,0-.05h-8.17Z"/>
  <path class="cls-1" d="M53.18,0s0,.03,0,.05c0,2.26,1.83,4.09,4.09,4.09s4.09-1.83,4.09-4.09c0-.02,0-.03,0-.05h-8.17Z"/>
  <path class="cls-1" d="M69.53,0s0,.03,0,.05c0,2.26,1.83,4.09,4.09,4.09s4.09-1.83,4.09-4.09c0-.02,0-.03,0-.05h-8.17Z"/>
  <path class="cls-1" d="M85.89,0s0,.03,0,.05c0,2.26,1.83,4.09,4.09,4.09.01,0,.02,0,.03,0V0h-4.11Z"/>
  <path class="cls-1" d="M4.11,90c0-2.26-1.83-4.09-4.09-4.09,0,0-.01,0-.02,0v4.09h4.11Z"/>
  <path class="cls-1" d="M20.47,90c0-2.26-1.83-4.09-4.09-4.09s-4.09,1.83-4.09,4.09h8.18Z"/>
  <path class="cls-1" d="M36.82,90c0-2.26-1.83-4.09-4.09-4.09s-4.09,1.83-4.09,4.09h8.18Z"/>
  <path class="cls-1" d="M53.17,90c0-2.26-1.83-4.09-4.09-4.09s-4.09,1.83-4.09,4.09h8.18Z"/>
  <path class="cls-1" d="M69.53,90c0-2.26-1.83-4.09-4.09-4.09s-4.09,1.83-4.09,4.09h8.18Z"/>
  <path class="cls-1" d="M85.88,90c0-2.26-1.83-4.09-4.09-4.09s-4.09,1.83-4.09,4.09h8.18Z"/>
</svg>