<?xml version="1.0" encoding="UTF-8"?>
<svg id="Layer_1" data-name="Layer 1" xmlns="http://www.w3.org/2000/svg" viewBox="0 0 90 90">
  <defs>
    <style>
      .cls-1 {
        fill: none;
        stroke: #af428f;
        stroke-miterlimit: 10;
        stroke-width: 2.32px;
      }

      .cls-2 {
        fill: #fff;
      }

      .cls-3 {
        fill: #af428f;
      }
    </style>
  </defs>
  <rect class="cls-2" width="90" height="90"/>
  <g>
    <line class="cls-1" x1="-31.68" y1="10.39" x2="52.88" y2="54.88"/>
    <g>
      <path class="cls-2" d="M52.88,81.65c-14.76,0-26.77-12.01-26.77-26.77s12.01-26.77,26.77-26.77,26.77,12.01,26.77,26.77-12.01,26.77-26.77,26.77Z"/>
      <path class="cls-3" d="M52.88,29.26c14.12,0,25.61,11.49,25.61,25.61s-11.49,25.61-25.61,25.61-25.61-11.49-25.61-25.61,11.49-25.61,25.61-25.61M52.88,26.95c-15.43,0-27.93,12.5-27.93,27.93s12.5,27.93,27.93,27.93,27.93-12.5,27.93-27.93-12.5-27.93-27.93-27.93h0Z"/>
    </g>
    <g>
      <path class="cls-2" d="M52.88,72.54c-9.74,0-17.66-7.92-17.66-17.66s7.92-17.66,17.66-17.66,17.66,7.92,17.66,17.66-7.92,17.66-17.66,17.66Z"/>
      <path class="cls-3" d="M52.88,38.37c9.1,0,16.51,7.4,16.51,16.51s-7.4,16.51-16.51,16.51-16.51-7.4-16.51-16.51,7.4-16.51,16.51-16.51M52.88,36.05c-10.4,0-18.82,8.43-18.82,18.82s8.43,18.82,18.82,18.82,18.82-8.43,18.82-18.82-8.43-18.82-18.82-18.82h0Z"/>
    </g>
  </g>
</svg>