<?xml version="1.0" encoding="UTF-8"?>
<svg id="Layer_1" data-name="Layer 1" xmlns="http://www.w3.org/2000/svg" viewBox="0 0 90 90">
  <defs>
    <style>
      .cls-1 {
        fill: none;
        stroke: #af428f;
        stroke-miterlimit: 10;
        stroke-width: 2.32px;
      }

      .cls-2 {
        fill: #fff;
      }

      .cls-3 {
        fill: #af428f;
      }
    </style>
  </defs>
  <rect class="cls-2" width="90" height="90"/>
  <g>
    <path class="cls-3" d="M74.16,47.44h-3.36v-21.42c-.81.77-1.87,1.54-3.18,2.32-1.31.77-2.49,1.35-3.54,1.74v-3.25c1.88-.88,3.52-1.95,4.93-3.21s2.4-2.48,2.99-3.66h2.17v27.48Z"/>
    <line class="cls-1" x1="-59.01" y1="96.6" x2="35.32" y2="46.57"/>
    <line class="cls-1" x1="112.21" y1="108.15" x2="36.11" y2="46.15"/>
    <g>
      <path class="cls-2" d="M36.11,67.51c-11.78,0-21.36-9.58-21.36-21.36s9.58-21.36,21.36-21.36,21.36,9.58,21.36,21.36-9.58,21.36-21.36,21.36Z"/>
      <path class="cls-3" d="M36.11,25.94c11.14,0,20.2,9.06,20.2,20.2s-9.06,20.2-20.2,20.2-20.2-9.06-20.2-20.2,9.06-20.2,20.2-20.2M36.11,23.63c-12.44,0-22.52,10.08-22.52,22.52s10.08,22.52,22.52,22.52,22.52-10.08,22.52-22.52-10.08-22.52-22.52-22.52h0Z"/>
    </g>
    <path class="cls-3" d="M112.21,87.95c11.14,0,20.2,9.06,20.2,20.2s-9.06,20.2-20.2,20.2-20.2-9.06-20.2-20.2,9.06-20.2,20.2-20.2M112.21,85.63c-12.44,0-22.52,10.08-22.52,22.52s10.08,22.52,22.52,22.52,22.52-10.08,22.52-22.52-10.08-22.52-22.52-22.52h0Z"/>
  </g>
</svg>