<?xml version="1.0" encoding="UTF-8"?>
<svg id="Layer_1" data-name="Layer 1" xmlns="http://www.w3.org/2000/svg" viewBox="0 0 720 300">
  <defs>
    <style>
      .cls-1 {
        fill: #fff;
      }

      .cls-2 {
        fill: none;
        stroke: #af428f;
        stroke-miterlimit: 10;
        stroke-width: 4.82px;
      }

      .cls-3 {
        fill: #af428f;
      }
    </style>
  </defs>
  <rect class="cls-1" x="536.88" y="90.45" width="183.12" height="183.12"/>
  <g>
    <path class="cls-3" d="M331.01,87.9h-6.99v-44.57c-1.68,1.61-3.89,3.21-6.63,4.82-2.73,1.61-5.19,2.81-7.36,3.61v-6.76c3.91-1.84,7.33-4.07,10.26-6.68s5-5.15,6.22-7.62h4.51v57.2Z"/>
    <path class="cls-3" d="M503.87,260.15v6.72h-37.65c-.05-1.68.22-3.3.81-4.86.96-2.56,2.49-5.09,4.61-7.58,2.11-2.49,5.16-5.36,9.15-8.63,6.19-5.08,10.38-9.1,12.55-12.06,2.18-2.97,3.26-5.77,3.26-8.41,0-2.77-.99-5.11-2.97-7.01-1.98-1.9-4.57-2.86-7.75-2.86-3.37,0-6.06,1.01-8.08,3.03-2.02,2.02-3.04,4.82-3.07,8.39l-7.19-.74c.49-5.36,2.34-9.45,5.56-12.26,3.21-2.81,7.53-4.22,12.94-4.22s9.79,1.51,12.98,4.55c3.19,3.03,4.78,6.79,4.78,11.27,0,2.28-.47,4.52-1.4,6.72-.93,2.2-2.48,4.52-4.64,6.95-2.16,2.44-5.76,5.78-10.78,10.02-4.2,3.52-6.89,5.91-8.08,7.17-1.19,1.26-2.18,2.52-2.95,3.79h27.94Z"/>
    <path class="cls-3" d="M517.89,75.77l6.99-.93c.8,3.96,2.17,6.82,4.1,8.57,1.93,1.75,4.28,2.62,7.05,2.62,3.29,0,6.07-1.14,8.34-3.42,2.27-2.28,3.4-5.1,3.4-8.47s-1.05-5.86-3.15-7.95c-2.1-2.08-4.77-3.13-8-3.13-1.32,0-2.97.26-4.94.78l.78-6.14c.47.05.84.08,1.13.08,2.98,0,5.66-.78,8.04-2.33,2.38-1.55,3.57-3.95,3.57-7.19,0-2.56-.87-4.69-2.6-6.37s-3.98-2.53-6.72-2.53-4.99.85-6.8,2.56-2.98,4.27-3.5,7.69l-6.99-1.24c.85-4.69,2.8-8.32,5.83-10.9,3.03-2.58,6.8-3.87,11.31-3.87,3.11,0,5.97.67,8.59,2s4.62,3.15,6,5.46c1.38,2.31,2.08,4.75,2.08,7.34s-.66,4.7-1.98,6.72-3.28,3.63-5.87,4.82c3.37.78,5.98,2.39,7.85,4.84,1.87,2.45,2.8,5.51,2.8,9.19,0,4.97-1.81,9.19-5.44,12.65-3.63,3.46-8.21,5.19-13.76,5.19-5,0-9.15-1.49-12.45-4.47-3.3-2.98-5.19-6.84-5.65-11.58Z"/>
    <line class="cls-2" x1="53.88" y1="190.19" x2="250.18" y2="86.08"/>
    <line class="cls-2" x1="410.19" y1="214.23" x2="251.82" y2="85.2"/>
    <line class="cls-2" x1="467.2" y1="113.44" x2="410.19" y2="214.23"/>
    <line class="cls-2" x1="467.2" y1="113.44" x2="643.18" y2="206.02"/>
    <g>
      <polygon class="cls-1" points="24.07 144.62 132.37 148.52 74.85 240.37 24.07 144.62"/>
      <path class="cls-3" d="M28.15,147.18l99.96,3.59-53.09,84.77-46.87-88.37M19.98,142.07l54.69,103.12,61.96-98.92-116.65-4.19h0Z"/>
    </g>
    <g>
      <path class="cls-1" d="M251.82,129.66c-24.51,0-44.45-19.94-44.45-44.45s19.94-44.45,44.45-44.45,44.45,19.94,44.45,44.45-19.94,44.45-44.45,44.45Z"/>
      <path class="cls-3" d="M251.82,43.16c23.18,0,42.04,18.86,42.04,42.04s-18.86,42.04-42.04,42.04-42.04-18.86-42.04-42.04,18.86-42.04,42.04-42.04M251.82,38.34c-25.88,0-46.86,20.98-46.86,46.86s20.98,46.86,46.86,46.86,46.86-20.98,46.86-46.86-20.98-46.86-46.86-46.86h0Z"/>
    </g>
    <g>
      <path class="cls-1" d="M410.2,258.68c-24.51,0-44.45-19.94-44.45-44.45s19.94-44.45,44.45-44.45,44.45,19.94,44.45,44.45-19.94,44.45-44.45,44.45Z"/>
      <path class="cls-3" d="M410.19,172.19c23.18,0,42.04,18.86,42.04,42.04s-18.86,42.04-42.04,42.04-42.04-18.86-42.04-42.04,18.86-42.04,42.04-42.04M410.19,167.37c-25.88,0-46.86,20.98-46.86,46.86s20.98,46.86,46.86,46.86,46.86-20.98,46.86-46.86-20.98-46.86-46.86-46.86h0Z"/>
    </g>
    <g>
      <path class="cls-1" d="M467.2,157.89c-24.51,0-44.45-19.94-44.45-44.45s19.94-44.45,44.45-44.45,44.45,19.94,44.45,44.45-19.94,44.45-44.45,44.45Z"/>
      <path class="cls-3" d="M467.2,71.4c23.18,0,42.04,18.86,42.04,42.04s-18.86,42.04-42.04,42.04-42.04-18.86-42.04-42.04,18.86-42.04,42.04-42.04M467.2,66.58c-25.88,0-46.86,20.98-46.86,46.86s20.98,46.86,46.86,46.86,46.86-20.98,46.86-46.86-20.98-46.86-46.86-46.86h0Z"/>
    </g>
    <g>
      <path class="cls-1" d="M643.18,261.73c-30.72,0-55.71-24.99-55.71-55.71s24.99-55.72,55.71-55.72,55.71,24.99,55.71,55.72-24.99,55.71-55.71,55.71Z"/>
      <path class="cls-3" d="M643.18,152.71c29.39,0,53.3,23.91,53.3,53.3s-23.91,53.3-53.3,53.3-53.3-23.91-53.3-53.3,23.91-53.3,53.3-53.3M643.18,147.89c-32.1,0-58.12,26.02-58.12,58.12s26.02,58.12,58.12,58.12,58.12-26.02,58.12-58.12-26.02-58.12-58.12-58.12h0Z"/>
    </g>
    <g>
      <path class="cls-1" d="M643.18,242.77c-20.27,0-36.76-16.49-36.76-36.76s16.49-36.76,36.76-36.76,36.76,16.49,36.76,36.76-16.49,36.76-36.76,36.76Z"/>
      <path class="cls-3" d="M643.18,171.67c18.94,0,34.35,15.41,34.35,34.35s-15.41,34.35-34.35,34.35-34.35-15.41-34.35-34.35,15.41-34.35,34.35-34.35M643.18,166.85c-21.63,0-39.17,17.54-39.17,39.17s17.54,39.17,39.17,39.17,39.17-17.54,39.17-39.17-17.54-39.17-39.17-39.17h0Z"/>
    </g>
  </g>
</svg>