<?xml version="1.0" encoding="UTF-8"?>
<svg id="Layer_1" data-name="Layer 1" xmlns="http://www.w3.org/2000/svg" xmlns:xlink="http://www.w3.org/1999/xlink" viewBox="0 0 90 90">
  <defs>
    <style>
      .cls-1 {
        fill: #9ec86c;
      }

      .cls-2 {
        fill: #6e3b22;
      }

      .cls-3 {
        fill: #bbe3f9;
      }

      .cls-4 {
        stroke: #c4d175;
      }

      .cls-4, .cls-5, .cls-6, .cls-7, .cls-8, .cls-9 {
        fill: none;
      }

      .cls-4, .cls-5, .cls-7, .cls-8, .cls-9 {
        stroke-linecap: round;
        stroke-linejoin: round;
      }

      .cls-5 {
        stroke: #6e3b22;
      }

      .cls-10 {
        fill: #83b860;
      }

      .cls-11 {
        fill: #5d784d;
      }

      .cls-7 {
        stroke: #679251;
      }

      .cls-8 {
        stroke: #abb05a;
      }

      .cls-12 {
        fill: #e6bc9b;
      }

      .cls-13 {
        fill: #b17e6d;
      }

      .cls-14 {
        fill: #679251;
      }

      .cls-15 {
        fill: #def1fc;
      }

      .cls-16 {
        fill: #c4d175;
      }

      .cls-9 {
        stroke: #83b860;
      }

      .cls-17 {
        fill: #abb05a;
      }

      .cls-18 {
        clip-path: url(#clippath);
      }
    </style>
    <clipPath id="clippath">
      <rect class="cls-6" width="90" height="90.17"/>
    </clipPath>
  </defs>
  <g class="cls-18">
    <path class="cls-17" d="M86.26,63.23c.27,1.82.58,3.63.86,5.42.59-.34,1.07-.6,1.61-.89q.41-1.21,1.14-1.44c.04,1.46.05,1.88.31,2.05v-7.12c-1.39.1-2.78.14-4.18.15.07.61.16,1.21.25,1.83"/>
    <path class="cls-2" d="M4.04,76.27c-.03-1.01-.17-1.21-1.06-1.47-1.05-.29-2.1-.56-3.17-.84v1.75c1.47-.14,2.79.89,4.24.57"/>
    <path class="cls-2" d="M90.02,50.51c0,.07-.46.14-1.11.23.46.01.95.02,1.29.04v-1.02c-.52.17-1.34.36-1.94.55.97.06,1.75.13,1.76.2"/>
    <path class="cls-2" d="M3.05,65.96c.21-.29.44-.59.66-.88-1-.29-1.11-.24-2.99,1.5-.28-.14-.59-.29-.91-.45v1.41c.54.32,1.01.59,1.4.82.66-.86,1.26-1.64,1.85-2.41"/>
    <path class="cls-2" d="M86.18,17.07c-.46.49-.97.79-1.76.75-.02-.42-.06-.84-.05-1.27.12-3.79.25-7.6.39-11.39,0-.43.08-.86.16-1.28.09-.52.11-.52.87-.81v2.62c.41-.04.76-.09,1.15-.13v1.57c0,.56-.04,1.21.61,1.4.66.18.95-.4,1.26-.86.23-.35.47-.7.71-1.07.24.4.46.76.67,1.13v-2.8c-.02-.06-.03-.13-.05-.19-.07-.22-.29-.49-.47-.5-.17-.01-.4.25-.51.44-.2.37-.3.8-.49,1.18-.14.28-.34.52-.52.78-.06-.02-.12-.05-.18-.09.08-.64.21-1.27.22-1.91,0-.34-.21-.67-.32-1.01-.24.19-.51.36-.72.58-.25.26-.46.55-.69.84-.09-.03-.18-.06-.27-.1.05-.43.04-.89.17-1.3.28-.86.64-1.67.94-2.52.07-.21.04-.49-.05-.68-.04-.08-.39-.08-.54,0-.35.22-.67.51-1,.76-.56.42-1.13.82-1.91,1.4.1-.99.79-1.65.27-2.43-1.14-.11-1.23,1.29-2.07,1.61-.6-.55-.59-1.15-.33-1.83h-1.34c-.06.57-.1,1.13-.83,1.18-.48.03-.69-.34-.72-1.18h-2.56c-.39.83-.76,1.6-1.23,2.59-.36-.99-.65-1.78-.94-2.59h-.88c-.21.81-.42,1.58-.67,2.48-.56-.56-1.03-1.02-1.48-1.5-.56-.6-1.16-.81-1.95-.27.04.9.08,1.86.14,2.88-.87.14-1.55-.03-2.09-.79-.48-.66-.71-.63-1.56-.1.2,1.01,1.46,1.57,1.11,3.02-.47-.44-.82-.77-1.18-1.1-.34-.33-.51-1.05-1.13-.79-.61.27-.23.92-.29,1.41-.06.41-.06.83-.09,1.34-.56-.28-.44-.79-.56-1.16-.1-.27-.06-.61-.17-.88-.09-.25-.27-.53-.49-.64-.1-.05-.41.19-.57.36-1.07,1.13-2.12,2.28-3.32,3.55-.25-1.09.1-1.81.55-2.46.43-.62.96-1.16,1.53-1.84-1.1-.44-1.92.03-2.88.31.44-.73.87-1.46,1.29-2.18-.31-.51-.66-.41-1.02-.26-.43.17-.83.46-1.27.51-1.16.16-1.92.72-2.07,2.04-.09,0-.19.01-.28.01-.14-.43-.27-.88-.45-1.3-.29-.65-.69-.74-1.14-.22-.29.35-.48.8-.74,1.19-.1.15-.27.27-.64.31.12-.87.25-1.72.38-2.64-.93-.35-1.61.4-2.42.63.3-1.01.7-1.62,1.33-1.93h-4.59c.29,1.68.73,1.65,2.56.49-.18.47-.31.79-.42,1.13-.17.53-.36,1.06-.43,1.61-.03.23.18.62.37.73.19.09.56-.03.76-.2.46-.4.86-.88,1.29-1.32.07.04.16.08.24.11,0,.46,0,.9,0,1.35.01.39-.03.8.09,1.15.09.28.36.6.61.68.18.07.54-.18.7-.39.43-.57.8-1.2,1.23-1.87.25.48.43.98.74,1.34.24.3.63.61.98.63.2.01.47-.51.63-.83.16-.29.14-.69.31-.98.17-.26.47-.43.72-.65.07.06.14.12.22.17-.09.4-.2.8-.26,1.2-.16,1.06-.01,1.29,1,1.66,0,.69-.04,1.38.01,2.06.03.5.25.92.78,1.04.47.11.74-.17,1.03-.53.8-.99,1.65-1.92,2.6-2.99.16.46.24.78.37,1.07.17.39.32.81.57,1.14.58.78,1.26.68,1.59-.23.17-.43.24-.92.37-1.47.39.22.77.44,1.16.63.99.44,1.31.24,1.48-.92.03-.21.04-.42.07-.7.6-.08,1,.11,1.36.63,2.02,2.85,4.09,5.67,6.08,8.55.47.67.73,1.53,1.02,2.33.28.8.5,1.64.72,2.46.08.33.14.68.13,1.01-.08,1.79-.17,3.58-.26,5.37-.04.77-.07,1.54-.11,2.31-.11,2.32-.21,4.65-.28,6.98-.05,1.71.26,3.45.37,5.17.22,3.1.41,6.21.6,9.32.02.38,0,.77,0,1.26-1,.13-1.93.25-2.87.36-5.91.7-11.8,1.41-17.71,2.09-.86.1-1.75.11-2.61.12-1.12.03-1.13,0-1.45-1.41.49-.15.99-.31,1.5-.47,1.26-.37,1.35-.53.98-1.8-.04-.16-.08-.34-.16-.61,1.09-.27,1.54-1,1.71-2.17.11-.8.72-1.54,1.14-2.37-.23-.25-.47-.52-.71-.78.2-1.28,1.29-1.57,2.19-2.05-.05-1.15-1.15-1.22-1.59-1.88,1.2-2.16,1.39-3.13,1.04-5.36-.86-.08-1.15.88-1.94,1.15-.32-.16-.73-.36-1.15-.57.07-.26.15-.46.2-.66.21-.93.03-1.4-.82-1.74-.7-.27-1.43-.42-2.15-.65-.19-.05-.36-.16-.59-.27.12-.41.24-.77.36-1.15-.74-.71-1.42.31-2.21-.03-.17-1.01,1.41-1.44.84-2.64-.53-.02-1.09-.07-1.66-.1-.02-.1-.08-.18-.06-.24.17-.37.55-.78.49-1.08-.12-.55-.72-.44-1.16-.47-.29-.01-.57,0-.87,0-.04-.17-.06-.33-.08-.49h0c-.02-.15-.04-.28-.07-.41,0-.04-.02-.09-.03-.13-.04-.14-.09-.26-.17-.35-.27-.28-.82-.27-1.33-.42.18-.3.36-.64.57-1-.67-.91-1.6-.3-2.43-.61.29-.57.58-1.15.86-1.71-.66-.81-1.41-.4-2.23-.25.35-.68.62-1.19.97-1.83-1.53.04-2.56.79-3.48,1.78-.79-.54-.61-1.79-1.66-2.12-.22.17-.47.37-.64.51-.42-.26-1.04-.74-1.1-.67-.4.44-.67,1.01-1.05,1.66h-1.28c.3-.54.53-.98.8-1.47-1.04-.73-2.11.13-3.19-.1.19-.56.38-1.08.5-1.63.07-.3-.02-.64-.04-.95-.33.07-.74.04-1.01.23-.39.29-.71.73-1.05,1.11-.17.19-.3.41-.54.75-.64-1.17-1.19-2.18-1.75-3.2-1.22.48-.9,1.67-1.23,2.61-.56-.03-1.12-.12-1.69-.11-.68,0-.96.51-.66,1.15.1.23.29.41.44.62.14.22.27.43.49.78-.72.27-1.37.53-2.16.83.06-.5.1-.83.15-1.22-1.29-.32-1.9.84-2.89,1.39-.1-.42-.16-.82-.29-1.2-.1-.25-.36-.66-.49-.63-.27.05-.6.28-.74.53-.19.37-.23.82-.31,1.25-.11.59-.22,1.17-.31,1.68-.22-.04-.44-.09-.66-.15-.27-.06-.55-.12-.81-.18h0c-.33-.07-.66-.13-1-.14-.51-.02-1.07.17-1.53.42-.71.39-.73.88-.14,1.43.36.35.78.63,1.18.94-.6.97-2.31.69-2.21,2.32-.8.27-1.74.28-2.32,1.32.43.45.88.92,1.37,1.44-.36.84-.73,1.66-1.11,2.55-.41-.1-.76-.19-1.11-.26-.9-.17-1.1-.04-1.57.79-.11.19-.3.37-.49.5-.24.16-.51.27-.76.42-.06.03-.09.14-.21.31.22.43.46.92.64,1.3-.71.47-1.46.88-2.1,1.41-.23.18-.35.7-.28,1.02.04.21.51.36.81.42.35.08.73.02,1.09.02.1.75-.49,1.45.18,2.09h1.53c.04.06.07.13.1.19-.19.12-.38.35-.56.34-.49-.03-.98-.19-1.47-.25-1.14-.11-1.56.47-1.12,1.57.14.36.35.68.57,1.08-.46.3-.91.57-1.35.89-.35.26-.66.65-.41,1.08.16.28.54.51.86.57.47.1.97.02,1.47.02.12.82-.38,1.61.45,2.3.61-.38,1.26-.79,2.01-1.26v1.45c-.78.83-2.27.76-2.61,2.32.64.1,1.15.17,1.75.26-.33.92-.73,1.85-.16,2.81-2.58.72-7.37.36-9.27-.59v1.69c3.47,1.07,6.91.55,10.32.39.68,1.11.73,1.13,1.9.81.4-.11.79-.22,1.19-.33.54,1.06-.41,2.49.96,3.46.35-.65.66-1.21,1.01-1.84.35.34.7.66,1.01.96.82-.26.92-.94,1.12-1.55.36-1.07.58-1.24,1.81-1.29-.15.34-.26.62-.38.91-.21.44-.43.92.08,1.27.44.29.87.11,1.24-.26.15-.15.28-.3.42-.46.55.36.43.82.31,1.29-.36,1.38-.36,1.39.97,1.36.08,0,.17.01.32.03.46.59.94,1.25,1.46,1.85.48.54.97,1.08,1.52,1.54.62.52,1.16,1.01,1.34,1.92.03.19.07.38.09.55.05.27.08.51.1.74.01.08.02.14.02.21.02.3.02.58-.01.86-.01.11-.02.21-.04.3-.02.11-.04.21-.07.31-.02.1-.05.2-.08.3-.04.11-.08.24-.14.36-.41-.15-.82-.29-1.23-.48-.68-.3-1.18-.23-1.78.35-.77.75-1.74,1.27-2.61,1.89-.06-.08-.12-.15-.19-.23.78-.75,1.57-1.49,2.4-2.29-.75-.73-1.24-.06-1.75.13-.54.21-1.04.52-1.67.84-.03-.34-.01-.6-.09-.79-.06-.13-.12-.29-.2-.43-.01-.02-.03-.05-.04-.08-.01-.02-.03-.04-.04-.06-.02-.03-.04-.05-.07-.09-.05-.06-.1-.09-.16-.11-.25-.08-.67.09-.87.29-.05.04-.09.11-.13.15-.28.29-.53.62-.79.94-.1.13-.21.26-.31.39-.61-.37-1.19-.71-1.76-1.06-.15-.09-.3-.17-.45-.26-.45-.26-.91-.46-1.36.02-.04.04-.07.08-.1.12-.07.11-.11.23-.14.35-.04.18-.03.39.05.62.05.13.14.28.25.43.52.67,1.04,1.38,1.63,2.01.19.2.39.4.6.6,1.07.96,2.5.68,3.35-.52,1.48.98,3.06,1.65,4.81,1.95.83.14,1.46.04,2.08-.47.23-.17.48-.32.78-.53.52.71,1.19.69,2.07.27-.17.53-.27.89-.37,1.23.06.05.11.11.18.16.71-.54,1.41-1.1,2.32-1.8-.12.77-.21,1.29-.35,2.13,1.25-1.01,2.27-1.83,3.44-2.77.04.63.07,1.07.12,1.71.57-.42,1.03-.78,1.5-1.11.72-.5.83-.44,1.46.22.75.79,1.55,1.53,2.41,2.38.3-.56.52-.97.76-1.41.55.21,1.08.4,1.76.65-.08-.59-.14-1.02-.24-1.59,1.37.02,1.8,1.66,3.09,1.84-.03-.62-.06-1.16-.09-1.73,1.42-.8,2.83-1.58,4.47-2.5-.7-.28-1.1-.44-1.61-.66.81-.64,1.6-1.25,2.38-1.85.12-.1.25-.2.37-.29-.03-.1-.07-.18-.1-.28-.38,0-.8-.1-1.15.02-.77.28-1.52.66-2.27,1.02-.02,0-.04.02-.06.03h-.01c-.36.18-.73.36-1.1.52-.2.1-.39.17-.6.25-.21.08-.42.15-.63.2.1-.28.25-.53.39-.77.01,0,.02-.03.03-.04.06-.11.15-.22.23-.31.08-.12.18-.23.28-.33.59-.63,1.32-1.12,2.04-1.66-.87-.2-1.49-.13-2.28.47-.06.04-.14.1-.2.16-.47.39-1.01.95-1.7,1.74-.02.03-.05.07-.08.1-.05.07-.09.12-.16.18-.09-.05-.19-.11-.29-.15h-.01c-.25-.13-.5-.26-.79-.41-.1.06-.2.14-.28.23-.02.02-.04.04-.06.06-.03.02-.06.05-.08.09-.02.02-.04.04-.06.07-.02.02-.04.04-.06.08-.19.24-.36.5-.55.75-.01.02-.02.04-.04.06-.08.11-.16.22-.25.31v.02c-.14.16-.3.31-.48.42h-.01c-.08.07-.17.11-.25.14-.02.01-.04.02-.06.03-.09.03-.2.06-.31.09-.08.01-.19-.13-.35-.25.17-.2.32-.42.5-.64.04-.05.09-.12.15-.18,0-.01.02-.02.03-.03.04-.05.08-.12.12-.17.16-.2.31-.4.48-.62.06-.08.12-.15.19-.24-.24.02-.47.03-.68.05-.08,0-.17,0-.25.02-.48.03-.91.07-1.38.1-.04,0-.07.01-.11.01h0s.01-.04.01-.07c0-.01.01-.01.01-.02.34-1.39.68-2.71,1.01-4.1.28-.09.55-.21.83-.26,3.05-.56,5.31-2.32,7.06-4.91.24-.36.43-.75.71-1.06.2-.22.51-.44.77-.44.43,0,.73-.09.91-.49.22-.48-.04-.83-.33-1.15-.23-.25-.48-.47-.62-.92.26.1.54.17.78.3.14.08.23.24.34.37,1.22,1.41,1.57,1.34,2.34-.49.31.19.61.38.91.57.89.61,1.37.38,1.48-.71,0-.16,0-.34,0-.62,7.78-.85,15.51-1.82,23.45-2.26.07,1.16.19,2.25.21,3.36.04,2.04.01,4.07.04,6.1,0,.24,0,.47-.02.69h0c0,.15-.03.29-.05.43,0,.02,0,.04-.01.06-.04.34-.12.66-.24.98-.05.16-.11.31-.19.48-.39.86-.77,1.72-1.07,2.62-.45,1.32-1.62,1.95-2.45,2.98.17-.84.36-1.61-.35-2.4-1.31,1.01-1.97,2.86-3.78,3.13-.02-.06-.08-.15-.07-.17.32-.4.76-.81.31-1.35-.46-.56-.89-.08-1.32.15-.84.45-1.68.92-2.54,1.39-.05-.16-.11-.25-.09-.3.14-.4.46-.84,0-1.17-.27-.2-.5-.1-.72.05-.12.1-.25.2-.37.3-.89.68-1.79,1.35-2.69,2.05.54.82,1.09.17,1.62.17.73,1.38,1.73.42,2.54.35.46.42.87.79,1.28,1.17.54.51,1.07.18,1.63.02.2-.05.46.04.68.11.31.08.61.18.93.29,0,.03.01.14-.02.18-.26.3-.8.5-.49,1.03.32.55.87.32,1.24.11,1.24-.7,2.44-1.46,3.65-2.23,1.34-.86,2.66-1.76,4.06-2.67.55.46,1.09.92,1.65,1.37,1.16.92,1.72.92,2.91.04.26-.19.53-.38.86-.63.23.75.37,1.42.64,2.04.25.59.54,1.18.93,1.66.24.27.74.44,1.09.4.5-.06.72-.54.71-1.07-.01-.25.02-.5.04-.86.7.77,1.36,1.5,2.03,2.23.05.06.1.12.16.17v-6.56c-.26-.17-.28-.59-.31-2.05q-.74.23-1.14,1.44c-.54.29-1.02.55-1.61.89-.28-1.79-.59-3.6-.86-5.42-.09-.62-.18-1.22-.25-1.83-.01-.04-.02-.07-.02-.12-.39-3.33-.8-6.66-1.15-9.99-.02-.16,2.55-.37,4.06-.55-.7-.01-1.34-.04-1.34-.13,0-.08.29-.18.7-.3-1.55-.1-3.55-.19-3.56-.3-.12-1.16-.24-2.34-.35-3.5,0-.1-.02-.18-.03-.28-.55-5.86-.76-11.74-.47-17.62.01-.31.04-.6.09-.89,0-.01,0-.02,0-.03.14-.84.43-1.6.81-2.36,1.43-2.94,3.41-5.46,5.44-7.95v-4.53c-.31.43-.76.91-1.44,1.61-.85.89-1.74,1.73-2.58,2.62M25.18,61.52c-.46-.51-.93-1.01-1.46-1.59.31-.18.53-.32.85-.5.29.7.55,1.33.81,1.97-.07.03-.14.08-.21.12M27.84,64.77c.39.77.77,1.55,1.25,2.51-1.29-.55-1.49-1.47-1.25-2.51M27.83,59.89c.8-.09,1.04.45,1.04,2.47-.34-.81-.69-1.63-1.04-2.47M30.31,57.47c1.07,1.07,2.31,1.72,1.74,3.35-.6-.5-1.28-1.76-1.74-3.35M31.07,67.67c-.09-1.26-.19-2.42-.28-3.59.07-.02.14-.03.22-.05.28.56.54,1.14.83,1.69q.57,1.12-.77,1.95M34.03,60.69c.06-.83.12-1.67.2-2.65.46.18.76.3,1.15.47-.39.81-.73,1.52-1.07,2.23-.09-.02-.19-.03-.28-.04M36.44,68.87c-.05-.04-.11-.1-.18-.14.11-.17.24-.34.35-.5.07.05.16.12.24.17-.14.16-.28.32-.42.47M36.09,67.57c.33-.68.56-1.16.79-1.64.17.68.25,1.31-.79,1.64M34.48,66.66c-.17-1.22.5-3.28,1.7-5.73.35.29.69.56,1.06.87-.84,1.64-1.77,3.12-2.77,4.87M39.5,55.35c-.2.26-.41.53-.69.88-.12-.39-.23-.7-.36-1.15-1.07.38-2.13.76-3.45,1.22,1.04-1.85,2.91-2.51,4.35-1.73.79.43,1.52.96,2.29,1.46-.05.09-.09.17-.14.27-.63-.3-1.27-.61-1.99-.95M39.81,62.41c.47-1.47,1.18-2.53,2.27-3.52.34.66.63,1.25.97,1.9-.85.9-1.88,1.33-3.23,1.63M44.43,59.85c-.19-.69-.33-1.21-.47-1.72.06-.05.14-.12.21-.17.35.26.72.53,1.19.87-.31.35-.56.63-.93,1.03M46.36,57.28c-.32-.35-.55-.6-.78-.85.05-.06.11-.13.17-.19.3.06.6.13.96.21-.11.29-.21.5-.34.83M51.67,50.66c-.12-1-.62-1.41-1.56-1.66-.93-.24-1.73-.98-2.79-1.63.69-.37,1.18-.63,1.66-.88q-.17-1.1-1.8-1.41c.26-.16.43-.27.59-.37.19-.1.36-.18.58-.3-.91-.37-1.75-.18-2.48.6-.29.31-.57.71-.83,1.22.95-.05,1.81-.12,2.92-.18-.69.57-1.22.98-1.7,1.43-.71.67-.63,1.14.21,1.56.23.12.47.18.7.28.19.08.37.16.58.42-.29.03-.57.09-.85.1-.99.04-.99.03-1.56.94-.58-.1-1.16-.18-1.79-.29-.15,1.01.58,1.96-.36,2.73-1.11-.28-1.57-1.57-2.62-2.08-.3.23-.6.46-.97.74-.2-.4-.4-.79-.64-1.28-.95.47-1.86.92-3.02,1.5.27-.75.45-1.23.63-1.74-.87-.53-1.51.48-2.35.28.21-1.61,1.78-1.66,2.61-2.58-.29-.63-.7-.82-1.32-.62-1.19.4-2,1.21-2.44,2.41-.11.28-.11.69,0,.98.3.79.07,1.43-.34,2.12-.81-.6-1.49-1.44-2.69-1.37.11.33.2.6.3.85.14.31.38.62.41.93.02.29-.11.67-.32.87-.11.1-.53-.04-.75-.19-.26-.18-.44-.51-.69-.74-.45-.39-.95-.5-1.56-.2-.02.37-.05.76-.06,1.14-.02.49-.2.86-.68.94-.47.09-.66-.29-.8-.66-.4-1-.77-1.99-1.15-2.99-.82,0-.93,1.46-2.01.82.34-1.2,1.41-1.69,2.25-2.61.22.72.39,1.26.6,1.94.74-.74,1.38-1.37,2.13-2.13.17.55.27.99.43,1.4.14.36.3.83.76.65.23-.09.45-.52.46-.8.02-.95-.11-1.9-.85-2.78-.69.59-1.34,1.14-2.14,1.82-.12-.64-.24-1.15-.37-1.82-.76.44-1.49.87-2.36,1.38v-2.03c-.79.38-1.43.68-2.07,1-.04-.06-.08-.12-.13-.18.3-.34.63-.64.88-1.01.15-.22.29-.68.2-.76-.22-.19-.56-.24-.86-.33-.06-.02-.16.05-.22.1-1.04.69-1.66,1.69-1.79,2.97-.03.28.14.74.36.87.21.11.64-.01.88-.18.39-.28.7-.68,1.2-1.19.1,1.53-.42,2.51-1.41,3.6-.11-.65-.19-1.06-.29-1.64-.36.43-.63.8-.96,1.12-.36.35-.73.73-1.18.93-.8.37-1.42-.19-1.25-1.09.07-.38.25-.74.39-1.08.14-.35.33-.67.53-1.07-1.24-.7-2.04.59-3.21.61.27-.7.51-1.33.75-1.95.04-.11.07-.19.1-.29.06-.18.1-.34.12-.49.01-.12.02-.23,0-.33-.01-.04-.01-.08-.03-.12-.01-.03-.02-.06-.04-.1-.02-.03-.04-.06-.07-.09-.02-.03-.05-.05-.08-.08-.04-.02-.07-.04-.11-.06-.08-.04-.18-.08-.29-.11-.02,0-.04-.01-.06-.01-.06-.02-.15-.04-.23-.05-.09-.02-.2-.03-.31-.04-.28-.03-.57-.04-1.03-.09.52-.54.93-.98,1.34-1.4-1.49,0-2.25,1.28-3.43,2.02-.11-.53-.21-.98-.32-1.53-.52.05-1,.11-1.57.18.04-.31.08-.59.12-.94-.46-.08-.93-.15-1.55-.25.64-.54,1.15-1.06.82-1.96,1.69-.28,1.56-1.95,2.35-2.93-.46-.46-.96-.46-1.46-.44-.32,0-.64.01-.96-.11.11-.88-.05-1.78.71-2.5.25-.24.21-.78.3-1.19,1.27-.17,1.28.28,1.26-1.82.53.24,1.05.47,1.55.68.65-.44.51-1.02.39-1.56-.14-.64-.02-1.17.44-1.67.73-.78.73-.98.12-1.84-.14-.21-.3-.39-.52-.67.64-.47,1.24-.44,1.9-.27.78.19.79.16,1.57-.28-.38-.56-.77-1.1-1.15-1.65.44-.84,1.33-.37,1.89-.76.17-.95-.64-1.34-1.12-1.98.8-.31,1.4-.17,2.02.14.31.16.75.47.96.36.42-.22.74-.65,1.03-1.05.17-.23.2-.55.31-.91.3.27.58.51.91.79.57-.62.49-1.69,1.44-2.11.06.56.12,1.05.22,1.79,1.38-1.22,2.78-2,4.6-1.85-.06-.76-.1-1.34-.16-1.97.55-.53,1.74.25,1.86-1.31.57.73.94,1.19,1.39,1.78.23-.4.34-.64.49-.87.14-.21.28-.39.52-.73.16.88-.44,1.71.36,2.34.58-.28,1.19-.56,2.08-.99-.33.89-.54,1.46-.83,2.24.84-.1,1.55-.19,2.26-.23.71-.04,1.49.36,2.01-.5.49.39.9.73,1.38,1.11.15-.46.26-.81.43-1.32.26.39.46.68.64.99.2.32.39.66.7,1.17.57-.86.91-1.35,1.41-2.1-.07.84-.11,1.39-.18,2.05.57-.21,1.02-.37,1.52-.55-.09.34-.18.6-.21.79,0,.03-.01.04-.01.06-.04.27,0,.46.16.62.04.03.08.08.15.12.17.12.42.24.76.4.11.04.24.1.37.16-.19.36-.36.72-.54,1.05.66.82,1.55.31,2.34.65v2.14c.73-.35,1.33-.64,1.93-.93.05.06.1.12.17.18-.31.67-.62,1.34-.95,2.03.85.88,1.53-.31,2.41-.17-.26.38-.45.66-.62.94-.57.94-.37,1.39.72,1.57.24.04.49.05.5.05.2.22.36.42.52.61.16.18.31.36.46.51.06.06.14.13.2.17.07.07.13.11.21.15.51.31,1.15.37,1.8.55-.41.56-.73,1.01-1.07,1.48.17.22.26.46.42.52,1.12.47,2.24.93,3.38,1.32.25.09.61-.12.89-.26.24-.12.41-.36.66-.58.23,1.82.16,1.94-2.37,3.84.04.82.89.75,1.32,1.19-.82,1.34-1.64,2.64-2.43,3.98-.19.31-.29.69-.46,1.09.42.24.76.43,1.2.67-.62,1.45-2.38.48-3.04,1.63q.22.8,1.39,1.72c-.71.28-1.33.53-2.07.82M77.12,11.25c-.35-.35-.67-.6-.93-.89-1.65-1.94-3.29-3.91-4.97-5.83-.55-.63-.59-1.28-.43-2.21.53.49.9.89,1.33,1.22.88.68,1.26.51,1.46-.63.02-.12.08-.23.17-.48.28.46.48.87.75,1.2.51.64.98.61,1.36-.11.49-.91.9-1.85,1.35-2.78.07-.15.18-.28.28-.44.44,1.43.22,8.13-.37,10.94M87.02,19.18c-1.51,1.92-2.77,4-3.83,6.21-.52,1.07-.7,2.17-.58,3.38.09.96,0,1.98-.17,2.94-.09.51-.18,1.01-.28,1.52,0,0,0,0,0,.01-.44,2.46-.92,4.92-1.35,7.37-.04.22-.04.44-.04.67,0,.2.01.42.02.64,0,.16.01.33.01.5.8-.63.86-1.57,1.36-2.5.05.41.11.66.1.92,0,1.65-.04,3.29-.04,4.93,0,.15-.04.34-.02.5.01.19.12.36.47.41.12.02.2.7.23,1.08.46,4.52.87,9.03,1.34,13.54.23,2.14.56,4.27.83,6.33-.96.69-1.9,1.37-2.91,2.1-.64-.5-1.24-1.01-1.86-1.51-.87-.68-1.1-.68-1.99-.04-.46.34-.91.68-1.49.87.52-1.16,1.07-2.3,1.55-3.48.4-.98.78-1.92.62-3.09-.14-1.08.17-2.23.19-3.35.07-3.09.03-6.16-.11-9.23-.05-1.13-.13-2.26-.21-3.39-.07-1.06-.15-2.11-.24-3.17-.11-1.3-.22-2.6-.36-3.9-.2-1.84-.31-3.68-.39-5.52h0c-.12-2.83-.13-5.66-.12-8.49v-.14c0-.9,0-1.8.01-2.69v-.11c0-.69,0-1.39-.03-2.08-.05-1.26-.02-2.46.55-3.64.35-.75.38-1.66.56-2.49.09.17.22.38.34.61.7-.3.69-.9.6-1.43-.18-1.11-.44-2.19-.68-3.28-.15-.61-.16-.61.32-1.32.3,1.21.59,2.35.93,3.72.62-1.58.68-2.97.43-4.4-.15-.85-.33-1.72.54-2.46.14.88.28,1.69.47,2.76.29-.91.51-1.57.72-2.23.09.01.19.03.28.04.02.18.08.37.08.54-.05,3.24-.13,6.48-.16,9.72,0,.64.12,1.3.29,1.92.31,1.15.93,1.54,2.08,1.26.54-.14,1.06-.46,1.55-.77.34-.22.62-.56,1.05-.76-.23.34-.44.67-.68.99"/>
    <path class="cls-2" d="M2.5,89.86c.46.1.94.19,1.42.3.16-.18.25-.39.31-.61.04-.13.07-.27.09-.41,0-.12.03-.25.04-.37,0-.04.01-.08.01-.12.01-.14.03-.28.05-.42.02-.13.04-.26.08-.38.01-.04.02-.09.04-.13.02-.08.05-.14.09-.22,0-.01.01-.02.02-.03.03-.08.08-.14.15-.21,0,0-.01,0,0,0,.02-.03.05-.06.08-.09.1-.11.23-.19.38-.28.04.13.08.27.12.4.01,0,.02.03.02.05.05.14.09.28.14.42,0,.01,0,.03.02.04.1.31.21.65.32,1,.07.23.14.47.23.72.2-.24.37-.46.56-.68.18-.22.34-.42.51-.63.14-.17.29-.35.43-.52.19-.23.37-.46.56-.68.05.03.11.06.17.1-.03.14-.06.28-.09.42-.03.14-.06.28-.09.43-.06.29-.12.61-.2.93-.04.2-.09.39-.13.6.37-.11.7-.32.99-.55.58-.47,1.06-1.08,1.71-1.33.06-.03.12-.05.19-.07.01-.01.02-.01.03-.01.04-.01.08-.02.11-.02.21-.04.43-.04.67,0,.02.7-.5.97-.84,1.36-.05.05-.09.11-.14.16-.1.13-.2.26-.27.41-.03.05-.05.12-.06.18-.02.06-.03.14-.03.22,0,.15.03.31.12.5.83-.4,1.64-.79,2.45-1.17.77-.37,1.54-.74,2.33-1.12-.43-1.34-1.51-.47-2.29-.86q-1.02-1.18-3.44-.55c.06-.25.1-.44.17-.63.12-.38.28-.84-.19-1-.27-.08-.71.13-.96.35-.47.41-.86.92-1.28,1.4-.23.26-.43.52-.82,1-.07-.63-.07-1.03-.17-1.41-.08-.3-.23-.74-.45-.8-.23-.08-.65.11-.85.33-.27.3-.55.6-.78.93,0,.01,0,.02-.02.02-.07.11-.14.22-.21.33h-.01c-.18.32-.32.67-.41,1.05-.03.14-.05.28-.06.43-.01.03-.01.08-.01.12-.01.01-.01.03-.01.05-.07-.01-.14-.03-.22-.07-.44-.17-.85-.61-1.27-.72-.07-.02-.14-.03-.21-.03-.18,0-.35.08-.53.27-.05.06-.09.13-.16.2-.05.09-.1.18-.17.3-.36-.15-.67-.27-.96-.4v1.34c.68.37,1.33.73,2.02,1.13.24-.36.45-.66.68-1"/>
    <path class="cls-16" d="M85.99,61.28s.01.08.02.12c1.4,0,2.8-.05,4.18-.15v-4.19h-4.69c.16,1.41.32,2.81.49,4.22"/>
    <path class="cls-16" d="M3.4,88.21c.08-.38.23-.73.41-1.04-.19.31-.33.66-.41,1.04"/>
    <path class="cls-16" d="M11.54,87.51c-.24-.04-.46-.04-.67,0-.03,0-.07.01-.11.02,0,0-.02,0-.03.01-.06.01-.12.03-.19.07-.64.25-1.12.87-1.71,1.33.57.03,1.14.07,1.72.1.05-.05.09-.11.14-.16.34-.39.86-.66.84-1.36"/>
    <path class="cls-2" d="M72.78,81.29c-1.66-1.77-1.9-1.83-2.94-.9.08.1.14.25.24.28.85.33,1.33.92,1.49,1.89.07.44.48.83.89,1.5.74-1.63,1.78-2.44,3.12-3-1.12-.89-1.97-.09-2.8.24"/>
    <path class="cls-2" d="M34.11,79.94c-1.49.02-2.09.43-2.6,1.93,1.22-.37,2.16-.73,2.6-1.93"/>
    <path class="cls-2" d="M42.04,35.74c.06.14.12.28.22.48-.57-.04-1.06-.12-1.55-.09-.19.01-.44.23-.52.42-.06.12.09.48.22.54,1.14.5,2.29,1.02,3.46,1.4.58.18.95-.23.94-.89-.01-.46-.11-.91-.2-1.48.69,0,1.31.02,1.92-.01.57-.02.85-.45,1.06-.95.21-.5-.03-.84-.36-1.13-.66-.53-1.32-1.05-2.01-1.54-.53-.38-1.07-.38-1.65.26.85.63,1.61,1.19,2.37,1.76-.42.21-.72.18-1.03.16-.74-.04-1.49-.13-2.23-.1-.83.04-.99.37-.63,1.17"/>
    <path class="cls-2" d="M30.83,44.09s.06-.08.07-.11h-.01s-.04.08-.06.11"/>
    <path class="cls-16" d="M23.72,59.92c.53.59,1,1.08,1.46,1.59.07-.04.13-.09.21-.12-.26-.64-.52-1.27-.81-1.97-.32.18-.54.31-.85.5"/>
    <path class="cls-2" d="M17.77,30.6c.68-.03,1.35-.13,2.16-.21-.23.64-.45,1.06-.52,1.52-.05.39-.06.98.16,1.17.21.2.77.08,1.12-.05.53-.22,1-.57,1.53-.89.25.65.09,1.46.95,1.58.61-.79.7-1.44.27-2.93-.89.32-1.7.62-2.75,1,.51-.83.86-1.41,1.19-1.94-.43-.77-.91-.33-1.35-.19-.8.26-1.59.66-2.46.14.8-1.05,2.12-.69,3.05-1.32-.61-.99-1.1-1.19-2.01-.76-.68.31-1.3.75-1.93,1.16-.48.33-.83.79-.6,1.41.23.58.79.34,1.22.31"/>
    <path class="cls-2" d="M9.05,71.99c-.19-.69-.39-1.15-.72-1.42-.31-.28-.74-.38-1.37-.38.53,1.13.97,1.51,2.09,1.8"/>
    <path class="cls-16" d="M36.09,67.57c1.04-.33.96-.95.79-1.64-.23.48-.46.95-.79,1.64"/>
    <path class="cls-15" d="M9.07,53.4c-.57-.95-.18-1.89.16-2.81-.59-.09-1.1-.16-1.75-.26.34-1.56,1.83-1.48,2.61-2.32v-1.45c-.75.47-1.39.88-2.01,1.26-.83-.68-.32-1.47-.45-2.3-.5,0-1,.08-1.47-.02-.32-.07-.71-.29-.86-.57-.26-.43.05-.82.4-1.08.44-.31.89-.58,1.35-.89-.22-.4-.44-.73-.57-1.08-.44-1.11-.02-1.68,1.12-1.57.49.05.98.22,1.47.25.18,0,.37-.22.56-.34-.03-.07-.06-.13-.1-.2h-1.53c-.66-.64-.07-1.34-.18-2.09-.36,0-.74.05-1.09-.02-.3-.06-.77-.22-.81-.42-.07-.31.05-.83.28-1.02.64-.53,1.39-.94,2.1-1.41-.19-.38-.43-.87-.64-1.3.11-.17.14-.28.21-.31.25-.15.52-.26.76-.42.19-.13.37-.3.49-.5.47-.84.67-.96,1.57-.79.35.07.71.16,1.11.26.38-.89.75-1.7,1.11-2.55-.49-.52-.95-.99-1.37-1.44.58-1.04,1.52-1.05,2.32-1.32-.09-1.63,1.61-1.35,2.21-2.32-.41-.31-.82-.6-1.19-.94-.58-.55-.56-1.04.15-1.43.46-.25,1.02-.44,1.53-.42.33.02.66.07,1,.14h0c-3.91-2.71-7.62-5.97-12.13-7.99,12.48-8.67,27.03-5.42,40.55-4.33-3.12-1.08-7.28-1.08-9.36-3.25C34.73,3.9,32.69,1.86,30.54,0H-.19v52.81c1.9.95,6.69,1.32,9.27.59"/>
    <path class="cls-3" d="M36.63,6.13c2.08,2.17,6.24,2.17,9.36,3.25-13.52-1.08-28.07-4.33-40.55,4.33,4.51,2.02,8.23,5.28,12.13,7.99h0c.26.05.54.12.81.18.22.05.43.1.66.15.09-.51.2-1.09.31-1.68.08-.42.12-.88.31-1.25.14-.25.47-.48.74-.53.12-.03.39.38.49.63.13.38.19.78.29,1.2.99-.54,1.6-1.7,2.89-1.39-.04.39-.08.73-.15,1.22.79-.3,1.45-.56,2.16-.83-.22-.35-.34-.56-.49-.78-.14-.21-.33-.39-.44-.62-.3-.64-.02-1.15.65-1.15.57-.01,1.13.08,1.7.11.32-.94.01-2.14,1.23-2.61.56,1.02,1.1,2.03,1.75,3.2.24-.34.37-.55.54-.75.34-.38.66-.81,1.05-1.11.27-.18.68-.16,1.01-.23.02.32.11.65.04.95-.11.54-.31,1.06-.5,1.63,1.08.23,2.15-.63,3.19.1-.27.5-.5.93-.8,1.47h1.28c.39-.65.66-1.21,1.05-1.66.06-.07.69.41,1.1.67.18-.14.43-.33.64-.51,1.05.34.87,1.58,1.66,2.12.93-.99,1.95-1.73,3.48-1.78-.34.64-.61,1.15-.97,1.83.82-.15,1.58-.56,2.24.25-.28.56-.57,1.14-.86,1.71.83.3,1.77-.3,2.43.61-.21.36-.39.69-.57,1,.51.15,1.06.14,1.33.42.08.09.13.22.17.35.01.04.02.08.03.13.03.13.05.27.07.41,3.16-.07,6.28.27,9.31,1.53,0-2.59,0-6.56-2.12-8.61-.68-.37-1.36-.74-2.04-1.14.84.22,1.5.62,2.04,1.14,7.14,3.87,14.29,5.81,21.57,7.33.09-1.79.18-3.58.26-5.37.01-.33-.05-.68-.14-1.01-.22-.82-.44-1.66-.72-2.46-.29-.8-.55-1.66-1.02-2.33-2-2.88-4.07-5.7-6.08-8.55-.36-.52-.76-.7-1.36-.63-.03.28-.04.5-.07.7-.17,1.16-.49,1.36-1.48.92-.39-.18-.77-.41-1.16-.63-.13.55-.21,1.04-.37,1.47-.33.91-1.01,1.01-1.59.23-.25-.33-.41-.75-.57-1.14-.14-.29-.22-.62-.37-1.07-.95,1.07-1.8,2-2.6,2.99-.29.36-.56.64-1.03.53-.53-.12-.75-.54-.78-1.04-.05-.68-.01-1.37-.01-2.06-1.01-.37-1.15-.6-1-1.66.06-.4.17-.8.26-1.2-.07-.05-.15-.11-.22-.17-.25.22-.55.39-.72.65-.18.28-.16.68-.31.98-.17.33-.44.84-.63.83-.34-.02-.74-.33-.98-.63-.31-.37-.49-.87-.74-1.34-.43.67-.8,1.3-1.23,1.87-.16.21-.52.46-.7.39-.25-.09-.52-.4-.61-.68-.12-.35-.08-.76-.09-1.15-.01-.46,0-.9,0-1.35-.08-.03-.17-.06-.24-.11-.43.44-.83.92-1.29,1.32-.2.16-.57.28-.76.2-.2-.11-.41-.5-.37-.73.06-.55.26-1.08.43-1.62.1-.34.24-.66.42-1.13-1.84,1.16-2.27,1.19-2.56-.49h-15.88c2.15,1.86,4.19,3.9,6.08,6.14"/>
    <path class="cls-3" d="M55.3,18.11c-.54-.52-1.2-.92-2.04-1.14.68.4,1.36.77,2.04,1.14"/>
    <path class="cls-15" d="M55.3,18.11c2.11,2.05,2.12,6.02,2.12,8.61-3.03-1.26-6.16-1.6-9.31-1.53,0,0,0,0,0,0,.02.16.04.33.08.49.3,0,.58-.01.87,0,.45.02,1.04-.09,1.16.47.06.3-.32.72-.49,1.08-.02.05.04.14.06.24.57.03,1.13.08,1.66.1.57,1.2-1.01,1.64-.84,2.64.79.35,1.48-.68,2.21.03-.12.38-.24.74-.36,1.15.23.11.41.22.59.27.72.23,1.46.38,2.15.65.85.35,1.03.81.82,1.74-.05.21-.12.4-.2.66.43.22.83.41,1.15.57.79-.27,1.08-1.22,1.94-1.15.35,2.23.16,3.21-1.04,5.36.44.66,1.54.74,1.59,1.88-.9.48-2,.77-2.19,2.05.24.26.48.53.71.78-.43.84-1.03,1.57-1.14,2.37-.17,1.17-.61,1.9-1.71,2.17.07.27.11.44.16.61.37,1.27.28,1.43-.98,1.8-.51.15-1.01.31-1.5.47.31,1.42.32,1.44,1.45,1.41.86-.01,1.75-.02,2.61-.12,5.91-.68,11.8-1.39,17.71-2.09.94-.11,1.87-.23,2.87-.36,0-.49.02-.88,0-1.26-.2-3.11-.38-6.22-.6-9.32-.12-1.72-.43-3.46-.37-5.17.06-2.33.17-4.65.28-6.98.04-.77.07-1.54.11-2.31-7.28-1.52-14.43-3.47-21.57-7.33"/>
    <path class="cls-2" d="M31.17,43.46c.04-.09.07-.17.11-.26.41.3.79.64,1.22.88.18.1.5.04.68-.08.11-.08.18-.42.11-.57-.28-.67-.55-1.35-.94-1.96-.39-.65-.83-.6-1.24.08-.23.36-.41.76-.6,1.15-.31-.44-.38-.81-.48-1.18-.29-1.11-.68-1.27-1.59-.65-.32.22-.64.44-.91.63-.06-.47.01-.95-.19-1.22-.35-.51-.82-.11-1.23.06-.22.09-.44.15-.67.23.22-.37.54-.55.77-.82.17-.19.33-.56.26-.76-.01-.04-.03-.08-.06-.11-.01-.02-.03-.03-.05-.05-.02-.03-.05-.05-.08-.08-.03-.02-.06-.04-.09-.07-.02-.01-.04-.03-.07-.04-.07-.04-.17-.09-.25-.11h-.01s-.03-.02-.04-.02c-.17-.07-.41.02-.59.1-.14.05-.3.12-.44.19-.12.05-.24.12-.34.18-.12.07-.25.14-.36.23-.59.4-1.09.92-1.53,1.52-.06.09-.14.16-.2.25-.3.46-.48.99-.11,1.44.38.49.89.27,1.35.02.56-.3,1.11-.61,1.79-.96.07-.04.14-.09.23-.13v.25c0,.15-.01.28-.01.41,0,.29-.01.54.01.79.08,1.04.7,1.34,1.51.74.29-.22.56-.44.85-.7.15-.12.29-.25.45-.38.07.25.12.48.18.67.09.33.17.61.24.88.13.5.46.91.96.86.35-.04.74-.35.98-.65.03-.03.05-.08.06-.11.02-.03.04-.08.06-.11.09-.17.19-.35.27-.52"/>
    <path class="cls-16" d="M5.57,87.77c-.04-.14-.08-.28-.14-.42,0-.02-.01-.04-.02-.05-.04-.13-.08-.27-.12-.4-.16.09-.28.17-.39.28-.03.02-.06.05-.08.09-.01.01,0,.01,0,.01-.06.07-.11.13-.15.21,0,.01-.02.02-.02.03-.04.08-.07.14-.09.22-.02.04-.03.09-.04.13-.04.12-.06.25-.08.38-.02.14-.04.28-.05.42,0,.04-.01.08-.01.12.51.01,1.03.02,1.54.03-.11-.35-.22-.68-.32-1-.01-.01-.01-.03-.02-.04"/>
    <path class="cls-2" d="M76.12,74.77c1.24-.54,2.18-1.44,2.93-2.73-.3-.12-.41-.19-.45-.16-1.02.64-2.04,1.27-3.04,1.96-.14.1-.24.55-.16.64.17.17.53.37.71.29"/>
    <path class="cls-2" d="M75.15,83.44c-.42.35-.8.74-.46,1.52.76-.57,1.47-1.12,2.33-1.78-.89-.51-1.4-.14-1.87.26"/>
    <path class="cls-2" d="M24.09,39.2c-.6.4-1.12.92-1.56,1.54.01-.01.02-.01.03-.02.44-.6.93-1.12,1.53-1.52"/>
    <path class="cls-16" d="M27.83,59.89c.35.84.7,1.66,1.04,2.47,0-2.02-.24-2.56-1.04-2.47"/>
    <path class="cls-16" d="M12.91,67.8c.03-.12.07-.24.14-.35-.08.11-.13.23-.16.35h.01Z"/>
    <path class="cls-2" d="M17.81,89.46h-.01s-.05.09-.08.13c.03-.04.06-.09.09-.13"/>
    <path class="cls-2" d="M81.14,46.49c-.04-.29-.09-.57-.18-.87-.37,1.35-.55,2.72-.45,4.11.02.25.05.5.09.75.49-1.3.73-2.62.53-3.99"/>
    <path class="cls-16" d="M17.04,68.24c.26-.33.51-.65.79-.94h-.01c-.28.29-.52.62-.78.94"/>
    <path class="cls-17" d="M39.47,68.76s-.02.02-.03.03c.27.13.55.25.82.37.09-.1.17-.2.25-.31-.3-.09-.6-.18-.91-.26-.04.05-.08.12-.12.17"/>
    <path class="cls-12" d="M81.33,18.05c-1.13,1.77-2.27,3.21-3.57,4.51v.04c0,.9,0,1.8-.01,2.69v.14c0,2.83,0,5.66.12,8.49,2.97-4.85,4.34-10.37,3.46-15.88"/>
    <path class="cls-12" d="M81.08,34.2h0c-.07.44-.17.89-.31,1.32,0,.01,0,.03-.01.04-.06.18-.12.36-.19.54-.01.03-.02.07-.04.1-.08.2-.17.39-.27.56,0-.37.01-.73.04-1.08.02-.35.06-.68.1-1.02h0c-.75.45-1.57.82-2.43,1.15.07,1.22.17,2.43.3,3.65.14,1.3.26,2.6.37,3.9.09,1.05.17,2.11.24,3.17h0c.61-1.75,1.28-3.5,1.91-5.24,0-.23,0-.46.04-.67.44-2.46.91-4.91,1.35-7.38,0,0,0,0,0-.01-.32.37-.69.68-1.09.97"/>
    <path class="cls-13" d="M85.1,19.72c-1.14.28-1.77-.11-2.08-1.26-.17-.62-.3-1.28-.29-1.92.02-3.24.1-6.48.16-9.72,0-.17-.06-.36-.08-.54-.09-.01-.19-.03-.28-.04-.21.66-.43,1.32-.72,2.23-.19-1.07-.32-1.88-.47-2.76-.87.74-.69,1.61-.54,2.46.25,1.43.2,2.82-.43,4.4-.33-1.36-.62-2.5-.93-3.72-.48.72-.47.72-.32,1.32.24,1.09.5,2.18.67,3.28.08.53.09,1.13-.6,1.43-.12-.23-.25-.43-.34-.61-.18.83-.21,1.74-.56,2.49-.57,1.18-.6,2.38-.55,3.64.03.69.03,1.39.03,2.08v.07c1.3-1.3,2.44-2.74,3.57-4.51.88,5.51-.49,11.03-3.46,15.88h0c.03.63.06,1.25.1,1.87.86-.33,1.69-.7,2.43-1.15h0c.06-.42.13-.83.23-1.24,0-.02,0-.05.02-.07.11-.42.23-.85.39-1.29.04.12.08.27.1.43.02.11.02.24.03.37,0,.05,0,.09,0,.14,0,.18,0,.37-.02.57h0c-.02.2-.04.41-.08.62h0c.4-.29.77-.61,1.09-.97.09-.51.19-1.01.28-1.52.17-.95.26-1.97.17-2.94-.11-1.21.06-2.31.58-3.38,1.06-2.21,2.32-4.29,3.83-6.21.24-.31.45-.65.68-.99-.43.19-.71.54-1.05.76-.49.31-1.01.63-1.55.77"/>
    <path class="cls-2" d="M46.51,30.71c-.51-.1-.97.02-1.22.75.96.26,1.85.51,2.91.79-.22-1.21-.96-1.4-1.7-1.54"/>
    <path class="cls-10" d="M39.36,25.43c.32,0,.64.1.98.23,1,.4,1.5,1.17,1.6,2.34h-1.68c-.04.61-.08,1.15-.12,1.69-.04.6-.34.86-.9.77-.69-.1-1.38-.2-2.16-.31.08.55.19.96.22,1.38.02.39-.18.79-.55.69-.58-.14-1.14-.44-1.68-.74-.43-.24-.73-.6-.57-1.27.36-.03.76-.08,1.26-.12.47-1.48,1.8-.83,2.96-1.07-.41-.42-.75-.78-1.24-1.3.49-.37.85-.64,1.29-.96-.07-.17-.16-.39-.25-.63h-.01c-.03-.09-.06-.16-.09-.25-.58.29-1.18.57-1.77.85v-4.33c-6.24-1.08-8.32,7.58-7.28,13-.53-.55-1.07-1.41-1.46-2.38-.06.11-.14.22-.23.33-.19-.34-.33-.58-.43-.81-.12-.29-.16-.52-.11-.79.02-.14.05-.29.12-.47.02-.09.06-.18.1-.28h0c-.05-.35-.08-.67-.08-1.01-2.08,4.33-5.2,6.5-9.36,6.5-1.04,0,1.04-4.33-1.04-3.25-1.21.94-2.41,1.8-3.57,2.67l.48.7c1.05-.99,2.98-.64,3.77.87-.53-.06-.96-.13-1.39-.18-.39-.04-.78-.07-1.18-.1-.03.1-.06.18-.09.28.5.3,1,.61,1.59.98-.5.41-.91.75-1.52,1.26,1.06.14,2.06-.12,2.97.69-.29.19-.52.36-.96.65.98-.22,1.7-.39,2.53-.58.04.24.07.48.08.7.04.38.04.74,0,1.08-.01.13-.02.27-.05.41.01.04.01.09-.01.13.98-.69,1.98-1.38,3-2.05.44-.62.96-1.14,1.56-1.54.11-.09.24-.16.36-.23.1-.06.22-.13.34-.18.13-.08.29-.14.44-.19.19-.08.43-.16.59-.1.01,0,.03.01.04.01.47-.31.94-.63,1.4-.95-.35.37-.72.75-1.07,1.12.03.02.06.04.09.07.03.02.06.04.08.08.02.02.04.03.05.05.03.03.05.06.06.11.07.19-.09.56-.26.76-.23.27-.55.46-.77.82.23-.08.45-.14.66-.23.41-.17.87-.57,1.23-.06.2.27.12.76.19,1.22.27-.18.58-.41.91-.63.91-.62,1.3-.46,1.59.65.09.37.17.74.48,1.18.2-.39.37-.79.6-1.15.41-.67.84-.73,1.24-.08.38.61.66,1.29.94,1.96.06.15,0,.5-.11.57-.18.12-.5.17-.68.08-.43-.24-.81-.57-1.22-.88-.04.09-.07.17-.12.26-.08.17-.16.36-.26.52,1.49.41,2.99.52,4.68.08,1.04,0,3.12-3.25,2.08-6.5,3.12,2.17,3.12,5.42,3.12,8.67,1.6-.55,3.05-1.33,4.32-2.29,3.74-2.78,6.05-7.05,6.53-11.58-.14-.15-.3-.32-.46-.51-.16-.18-.32-.39-.52-.61-.01,0-.26-.01-.5-.05-1.09-.18-1.29-.63-.72-1.57.18-.28.36-.56.62-.94-.88-.14-1.56,1.05-2.41.17.32-.68.63-1.35.95-2.03-.06-.07-.11-.12-.17-.18-.6.29-1.2.59-1.93.93v-2.14c-.79-.33-1.68.17-2.34-.65.18-.34.35-.69.54-1.05-.13-.07-.26-.12-.37-.16-.34-.16-.59-.28-.76-.4-1.41.74-2.84,1.52-4.28,2.26h.07ZM35.94,43.69c-.28-.08-.7-.05-.84-.25-.49-.66-.87-1.4-1.34-2.18,1.33.07,2.17.61,2.38,1.52.05.27-.12.61-.2.91M46.51,30.71c.74.14,1.48.33,1.7,1.54-1.06-.28-1.96-.53-2.91-.79.25-.73.71-.84,1.22-.75M42.68,34.57c.75-.03,1.5.05,2.23.1.31.02.61.04,1.03-.16-.76-.56-1.52-1.13-2.37-1.75.58-.64,1.12-.64,1.65-.26.69.49,1.35,1.01,2.01,1.54.33.28.57.63.36,1.13-.21.5-.49.93-1.06.95-.61.03-1.24.01-1.92.01.08.57.19,1.03.2,1.48.01.66-.35,1.07-.94.89-1.17-.38-2.32-.9-3.46-1.4-.12-.07-.28-.42-.22-.54.08-.2.33-.41.52-.42.49-.03.98.04,1.55.09-.09-.2-.16-.34-.22-.48-.35-.8-.2-1.13.63-1.17"/>
    <path class="cls-4" d="M10.76,87.53s.08-.02.11-.02"/>
    <path class="cls-7" d="M15.55,46.64s-.05-.05-.08-.08"/>
    <path class="cls-15" d="M83.95,27.68s0,.02,0,.03c-.05.28-.08.58-.09.89-.29,5.88-.08,11.76.47,17.62.01.1.02.18.03.28.06.63.14,1.27.2,1.9h5.65v-20.29c-2.03-.43-4.06-.83-6.06-1.22-.08.26-.14.52-.18.8"/>
    <path class="cls-3" d="M84.13,26.88c2.01.39,4.03.79,6.06,1.22v-10.74c-2.03,2.49-4.01,5.01-5.44,7.95-.25.52-.47,1.03-.62,1.57"/>
    <path class="cls-11" d="M49.69,1.93c.81-.23,1.49-.98,2.42-.63-.14.92-.26,1.78-.39,2.64.37-.04.54-.16.64-.31.26-.39.45-.85.74-1.19.46-.52.85-.43,1.14.22.18.42.3.87.45,1.3.09,0,.19,0,.28,0,.14-1.32.9-1.87,2.07-2.04.44-.05.84-.34,1.27-.51.35-.15.71-.25,1.02.26-.42.72-.85,1.45-1.29,2.18.96-.28,1.78-.76,2.88-.31-.57.68-1.1,1.22-1.53,1.84-.45.65-.8,1.37-.55,2.46,1.2-1.28,2.25-2.43,3.32-3.55.17-.16.47-.41.57-.36.22.11.39.39.49.64.1.27.06.61.17.88.12.37,0,.88.56,1.16.03-.51.03-.93.09-1.34.06-.49-.32-1.14.29-1.41.62-.26.79.47,1.13.79.36.34.72.66,1.18,1.11.34-1.45-.91-2.02-1.11-3.02.85-.53,1.08-.56,1.56.1.54.76,1.22.93,2.09.79-.05-1.02-.09-1.98-.13-2.88.79-.54,1.39-.33,1.95.27.45.48.91.93,1.48,1.5.24-.91.45-1.68.67-2.48h-22.14c-.62.31-1.02.92-1.33,1.93"/>
    <path class="cls-2" d="M65.26,67.04c-.59,0-.91.41-1.27,1.38.3-.13.57-.26.85-.38.5-.23.99-.46,1.55-.71-.47-.18-.83-.28-1.13-.28"/>
    <path class="cls-2" d="M11.15,69.82c-.19-.17-.56-.12-.85-.16-.05.12-.1.25-.16.37.07.14.15.27.22.4.55.91,1.32,1.65,2.12,2.34.15.13.51-.01.77-.02-.03-.27.05-.64-.09-.8-.62-.75-1.3-1.46-2.01-2.12"/>
    <path class="cls-2" d="M80.61,75.1c.51-.47.95-1.02,1.4-1.54-.07-.09-.16-.17-.24-.26-.77,0-1.43.32-1.88.98-.13.18-.13.62,0,.78.11.14.59.17.73.04"/>
    <path class="cls-2" d="M27.51,24.75c.11-.16.11-.6.01-.69-.19-.15-.53-.23-.77-.17-.61.14-1.34,1.14-1.27,1.74.03.27.28.51.56.99.6-.75,1.07-1.28,1.47-1.86"/>
    <path class="cls-7" d="M15.7,46.94c.02.1.01.21,0,.33"/>
    <path class="cls-2" d="M44.57,89.37c-.82.61-1.48,1.33-1.32,2.73,1.25-.65,1.94-1.64,2.79-2.49-.49-.55-.97-.61-1.47-.24"/>
    <path class="cls-2" d="M49.84,79.34c-1.25.03-3.18,1.82-3.52,3.39,1.61-.82,2.88-1.93,4.32-2.73,0-.11-.01-.22-.01-.31-.26-.12-.53-.35-.79-.35"/>
    <path class="cls-16" d="M8.27,87.53c.03-.14.06-.28.09-.42-.05-.03-.11-.07-.17-.1-.19.23-.37.46-.56.68-.13.17-.28.35-.43.52-.17.21-.33.41-.51.63.43.02.85.03,1.28.05.07-.33.14-.64.2-.93.03-.15.06-.29.09-.43"/>
    <path class="cls-13" d="M84.25,61.31c-.47-4.52-.88-9.03-1.34-13.54-.03-.38-.1-1.06-.23-1.08-.34-.05-.46-.22-.47-.41-.02-.16.02-.35.02-.5,0-1.64.03-3.28.04-4.93.01-.26-.05-.51-.1-.92-.5.93-.56,1.87-1.36,2.5,0-.18,0-.34-.01-.5,0-.22-.02-.44-.02-.64-.63,1.74-1.29,3.48-1.91,5.24.08,1.13.16,2.26.21,3.39.14,3.07.19,6.14.11,9.23-.02,1.12-.33,2.27-.19,3.35.16,1.17-.22,2.11-.62,3.09-.48,1.18-1.03,2.32-1.55,3.48.58-.18,1.03-.53,1.49-.87.88-.64,1.11-.64,1.99.04.62.5,1.23,1.01,1.86,1.51,1.01-.73,1.95-1.41,2.91-2.1-.27-2.06-.6-4.19-.83-6.33M80.61,50.47c-.04-.25-.07-.5-.09-.75-.1-1.39.07-2.75.45-4.11.08.29.14.57.18.87.2,1.36-.04,2.69-.53,3.99"/>
    <path class="cls-16" d="M43.97,58.12c.14.51.28,1.03.47,1.72.36-.4.61-.68.93-1.03-.47-.34-.83-.61-1.19-.87-.07.05-.14.12-.21.17"/>
    <path class="cls-16" d="M3.31,88.77c-.08,0-.15-.01-.22-.01.07.03.14.05.22.07v-.05Z"/>
    <path class="cls-16" d="M6.83,68.08c.21-.7.39-1.12.69-1.36l-1.81-.25c-.82.8-1.55,1.46-2.64,1.69.12-.69.37-1.24.74-1.58l-.75-.62c-.59.77-1.2,1.55-1.85,2.41-.39-.22-.86-.5-1.4-.82v1.88c2.33-.27,4.69-.57,7.05-.88l-.03-.47Z"/>
    <path class="cls-2" d="M22.53,40.74c-.06.08-.11.15-.17.23.06-.09.14-.16.2-.25-.01.01-.02.01-.03.02"/>
    <path class="cls-2" d="M19.6,41.17c.03.37.03.73,0,1.08.04-.35.04-.7,0-1.08"/>
    <path class="cls-11" d="M76.22,0h-2.17c.29.82.58,1.6.94,2.59.48-.99.84-1.76,1.23-2.59"/>
    <path class="cls-2" d="M30.9,43.98h.01c.1-.16.18-.35.26-.52-.08.17-.18.35-.27.52"/>
    <path class="cls-16" d="M34.22,58.04c-.07.99-.14,1.82-.2,2.66.09,0,.19.02.28.04.34-.71.69-1.42,1.07-2.23-.39-.16-.7-.28-1.15-.47"/>
    <path class="cls-2" d="M27.12,31.73c-.04.27-.01.5.11.79-.11-.29-.16-.52-.11-.79"/>
    <path class="cls-17" d="M44.18,68.54c.22-.05.43-.13.63-.21.21-.08.41-.15.6-.25.37-.16.74-.34,1.1-.52-.64.08-1.29.15-1.94.2-.15.24-.29.49-.4.77"/>
    <path class="cls-2" d="M55.27,65.9c-.04.09-.09.18-.12.28.04-.1.08-.19.14-.28h-.01Z"/>
    <path class="cls-17" d="M19.35,67.63c.08.2.06.46.09.79.63-.32,1.13-.64,1.67-.84.51-.19,1-.86,1.75-.13-.83.8-1.62,1.54-2.4,2.29.06.08.12.15.19.23.87-.62,1.84-1.14,2.61-1.89.6-.57,1.1-.65,1.78-.35.41.18.82.33,1.23.48.05-.12.09-.25.14-.36.03-.11.06-.2.08-.3.03-.11.05-.21.07-.31.02-.1.03-.19.04-.3-2.46-.02-4.95.09-7.44.27.07.14.14.3.2.43"/>
    <path class="cls-2" d="M80.3,35.68c-.02.35-.04.7-.04,1.08.1-.17.18-.36.27-.56.01-.03.02-.07.04-.1.07-.17.14-.35.19-.54,0-.01,0-.03.01-.04.13-.43.24-.88.31-1.32h0c.03-.21.06-.42.07-.62h0c.02-.2.02-.39.02-.57,0-.05,0-.09,0-.14,0-.13,0-.26-.03-.37-.02-.16-.06-.3-.1-.43-.16.44-.29.86-.39,1.29,0,.02,0,.05-.02.07-.1.41-.18.82-.23,1.24h0c-.05.33-.08.67-.1,1.02"/>
    <path class="cls-14" d="M25.39,41.47c.07.03.16.08.23.12v-.25c-.08.04-.16.09-.23.13"/>
    <path class="cls-16" d="M14.97,67.57c.57.35,1.14.69,1.76,1.06.1-.13.21-.26.31-.39.26-.33.5-.65.78-.94-.96.09-1.89.17-2.85.27"/>
    <path class="cls-16" d="M84.84,51.29c.35,3.33.76,6.66,1.15,9.99-.17-1.41-.33-2.81-.49-4.22h4.69v-6.28c-.35-.02-.83-.03-1.29-.04-1.52.18-4.09.39-4.06.55"/>
    <path class="cls-8" d="M44.82,68.33c.21-.08.41-.15.6-.25"/>
    <path class="cls-9" d="M43.57,23.17c.17.12.42.24.76.4"/>
    <path class="cls-14" d="M15.57,47.75c.06-.19.1-.35.12-.49-.02.15-.06.3-.12.49"/>
    <path class="cls-16" d="M32.05,60.82c.57-1.63-.66-2.28-1.74-3.35.46,1.59,1.13,2.85,1.74,3.35"/>
    <path class="cls-11" d="M79.5,1.18c.74-.06.77-.61.83-1.18h-1.55c.03.84.25,1.21.72,1.18"/>
    <path class="cls-5" d="M26.29,38.74s-.06-.04-.09-.06"/>
    <path class="cls-16" d="M3.32,88.77h-.01v.05s0-.04.01-.05"/>
    <path class="cls-7" d="M15.67,46.82s-.02-.06-.04-.1"/>
    <path class="cls-2" d="M28.13,78.66c.16-.07.29-.48.23-.64-.08-.24-.34-.5-.57-.55-.25-.06-.56.05-.83.16-.55.21-1.09.46-1.68.72.17-.57.3-1.04.5-1.68-1.63-.03-2.53,1.14-3.75,1.7-.08-.54-.17-.99-.28-1.66-.46.36-.84.57-1.13.89-.3.34-.5.77-.76,1.18-1.7-.83-3.13-1.95-4.82-2.7-.24.52-.44.92-.64,1.37-1.13-.1-2.25-.2-3.37-.29-.11.44-.2.8-.33,1.33-.51-.17-.97-.3-1.4-.49-.35-.13-.7-.41-.97.09-.24.44.05.74.34,1,.86.79,2.36.93,3.21.14.54-.49,1.05-.63,1.69-.5.93.18,1.82.17,2.49-.66,1.38.73,2.66,1.4,3.94,2.07.38-.44.69-.79,1.03-1.19.27.38.51.7.75,1.05.96-.5,1.54-1.48,2.69-1.81-.23.78-.41,1.4-.63,2.16,1.7-.2,2.97-1.06,4.31-1.68"/>
    <path class="cls-17" d="M71.57,91.19c-.48.22-.96.37-1.45.49-.25.08-.5.13-.76.17-.25.05-.51.1-.78.14.03-.13.06-.25.11-.36-.63.07-1.27.1-1.91.1,2.08-2.17,5.2-3.25,7.28-5.42-7.14-.93-13.71.35-20.04,2.7.33.22.68.44,1.07.7.45-.6.66-1.61,1.57-1.39.69.17,1.3.68,2.08,1.12.26-.31.59-.73.95-1.13.19-.23.37-.46.6-.65.41-.35.86-.53,1.37-.24.47.27.35.74.32,1.16-.02.16-.06.32-.14.68.59-.42,1.06-.76,1.53-1.06.28-.18.56-.37.87-.5.86-.36,1.16-.15,1.3.85.02.13.03.26.05.38.01.03.05.07.05.08.75-.15,1.47-.35,2.2-.41.25-.03.54.26.8.4-.18.26-.33.71-.55.76-1.35.24-2.47.96-3.62,1.67-.22.14-.54.12-.8.16-.5-.89.33-1.4.46-2.31-1.05.9-1.98,1.69-3.08,2.62-.28-.72-.5-1.25-.76-1.91-.36.56-.73,1.12-1.17,1.8-.85-.88-1.61-1.64-2.53-2.57-.14.65-.21,1-.29,1.32-.24.99-.54,1.11-1.39.54-.41-.28-.81-.6-1.26-.92-.08.14-.17.23-.19.34-.08.43.06,1.12-.53,1.15-.36.01-.8-.37-1.11-.68-.07-.08-.13-.15-.2-.24,0,0-.01-.02-.01-.03-.03-.04-.05-.09-.08-.13-.03-.04-.05-.1-.08-.15-.06-.11-.11-.22-.18-.33-2.87,1.21-5.69,2.61-8.51,4.1h47.42v-9.83c-6.33,1.41-12.04,5.35-18.59,6.82-.01.01-.02.01-.03.01"/>
    <path class="cls-16" d="M55.28,65.9c.05-.11.12-.22.21-.31,0,0,0,0,0-.01.08-.1.16-.18.24-.27.05-.05.11-.11.18-.15.06-.05.13-.11.22-.16.06-.04.12-.09.2-.12.11-.06.23-.12.35-.16.07-.03.15-.05.23-.08.05-.02.1-.03.16-.04.07-.02.17-.04.25-.05.18-.04.37-.05.57-.07v.81c6.57-1.6,13.08-3.35,19.84-3.47.02-.23.02-.46.02-.69-.03-2.03,0-4.06-.04-6.1-.02-1.1-.14-2.2-.21-3.36-7.93.44-15.67,1.42-23.45,2.26,0,.28,0,.45,0,.62-.1,1.09-.58,1.32-1.48.71-.29-.19-.59-.38-.91-.57-.77,1.83-1.12,1.9-2.34.49-.11-.13-.2-.29-.34-.37-.24-.13-.52-.2-.78-.3.14.45.39.67.62.92.29.31.55.67.33,1.15-.19.4-.49.49-.91.49-.26,0-.57.23-.77.44-.28.32-.47.7-.71,1.06-1.75,2.59-4.01,4.35-7.06,4.91-.28.05-.55.17-.83.26-.33,1.39-.67,2.71-1.01,4.1,0,.01-.01.01-.01.02,0,.02-.01.03-.01.05h.11c.48-.03.9-.07,1.38-.1.08-.01.17-.01.25-.02.21-.02.44-.03.68-.05-.06.09-.12.16-.19.24.36,0,.73,0,1.09-.01.02-.02.04-.04.06-.07.02-.03.05-.06.08-.09.02-.02.04-.04.06-.06.08-.09.18-.16.28-.23.29.15.54.28.79.41h.01c.16,0,.3-.02.45-.03.03-.03.06-.06.08-.1.69-.79,1.23-1.35,1.7-1.74.06-.06.14-.12.2-.16.79-.6,1.4-.66,2.28-.47-.72.54-1.45,1.03-2.04,1.66-.1.1-.2.21-.28.33-.08.1-.17.21-.23.31-.01.01-.02.03-.03.04.66-.05,1.3-.13,1.94-.2h.01s.04-.02.06-.03c.75-.36,1.5-.74,2.27-1.02.35-.12.77-.02,1.15-.02.03.1.07.18.1.28-.12.1-.25.2-.37.29,1.86-.34,3.69-.73,5.52-1.16h.01Z"/>
    <path class="cls-1" d="M16.87,33.22c2.08-1.08,0,3.25,1.04,3.25,4.16,0,7.28-2.17,9.36-6.5,0,.34.03.66.08,1,.02-.07.05-.14.08-.22.14.05.25.12.35.19.05.04.09.09.14.13.12.13.21.28.26.46.08.26.07.56-.03.89,0,.01,0,.03,0,.04-.02.09-.05.16-.1.25-.03.1-.08.19-.15.29.38.98.93,1.83,1.46,2.38-1.04-5.42,1.04-14.09,7.28-13v4.33c.59-.27,1.18-.55,1.77-.84,0-.01-.01-.01-.01-.02.26-.25.52-.38.79-.4.04,0,.07-.02.11-.02,1.45-.75,2.87-1.53,4.28-2.26-.06-.04-.1-.09-.15-.12-.17-.16-.2-.34-.16-.62,0-.02.01-.03.01-.06.03-.21.1-.46.21-.79-.5.18-.95.35-1.52.55.06-.66.1-1.2.18-2.05-.5.75-.84,1.25-1.41,2.1-.3-.51-.5-.84-.7-1.17-.19-.3-.38-.6-.64-.99-.17.51-.28.87-.43,1.32-.48-.38-.89-.71-1.38-1.11-.52.86-1.3.46-2.01.5-.71.03-1.41.13-2.26.23.29-.78.5-1.35.83-2.24-.89.42-1.5.7-2.08.99-.8-.63-.21-1.46-.36-2.34-.24.34-.38.52-.52.73-.14.23-.26.47-.49.87-.46-.59-.82-1.05-1.39-1.78-.12,1.56-1.31.78-1.86,1.31.05.63.09,1.21.16,1.97-1.82-.15-3.21.63-4.6,1.85-.09-.74-.16-1.22-.22-1.79-.95.42-.86,1.5-1.43,2.11-.33-.28-.61-.52-.91-.79-.11.36-.15.68-.31.91-.29.4-.61.83-1.03,1.05-.21.11-.64-.2-.96-.36-.61-.31-1.22-.46-2.02-.14.48.64,1.29,1.03,1.12,1.98-.56.39-1.45-.09-1.89.76.39.54.77,1.08,1.16,1.65-.78.44-.79.48-1.57.28-.66-.17-1.27-.19-1.9.27.22.28.37.47.52.67.6.87.6,1.06-.12,1.84-.46.5-.57,1.03-.44,1.67.11.54.26,1.12-.39,1.56-.5-.22-1.02-.44-1.55-.68.02,2.1.01,1.65-1.26,1.82-.09.41-.05.95-.3,1.19-.76.73-.59,1.63-.71,2.5.31.12.63.11.96.11,1.08-1.13,2.3-2.1,3.57-3.05,1.15-.87,2.36-1.72,3.57-2.67M26.75,23.88c.24-.05.58.02.77.17.1.1.1.53-.01.69-.39.59-.86,1.12-1.47,1.86-.28-.48-.53-.71-.56-.99-.07-.61.66-1.6,1.27-1.74M17.15,28.88c.63-.41,1.26-.84,1.93-1.16.9-.43,1.39-.23,2.01.76-.93.63-2.25.27-3.05,1.32.87.52,1.66.12,2.46-.14.45-.13.93-.57,1.35.19-.32.53-.68,1.11-1.19,1.94,1.05-.38,1.86-.68,2.76-1,.43,1.49.34,2.14-.27,2.93-.85-.12-.7-.93-.95-1.58-.53.31-1,.67-1.53.89-.35.13-.91.25-1.12.05-.22-.19-.21-.78-.16-1.17.07-.46.29-.88.52-1.52-.81.08-1.49.17-2.16.21-.43.02-.99.27-1.22-.31-.23-.62.12-1.08.6-1.41"/>
    <path class="cls-14" d="M27.98,42.82c.22.11.43.21.62.29-.05-.19-.1-.42-.18-.67-.16.13-.3.26-.45.38"/>
    <path class="cls-2" d="M17.5,89.95c-.04.1-.08.19-.12.3-.04.11-.08.23-.11.35.97-.35,1.88-.67,2.94-1.06.01,0,.02-.01.03-.01-.27-.19-.52-.35-.76-.43-.11-.05-.23-.09-.34-.12-.1-.02-.22-.03-.32-.03-.09,0-.18.01-.27.03-.08.02-.18.05-.26.1-.08.04-.17.1-.25.16-.01,0-.01.01-.01.01-.07.07-.14.14-.21.22-.03.04-.06.09-.09.13-.08.11-.15.22-.22.36"/>
    <path class="cls-16" d="M34.48,66.66c1-1.74,1.92-3.23,2.77-4.87-.37-.3-.71-.57-1.06-.87-1.21,2.45-1.87,4.51-1.7,5.73"/>
    <path class="cls-2" d="M27.12,31.73c.02-.13.06-.28.12-.47-.07.17-.1.33-.12.47"/>
    <path class="cls-2" d="M69.36,91.86c.26-.04.51-.1.76-.17.5-.13.98-.28,1.46-.49.01,0,.02,0,.03-.01.22-.09.44-.19.65-.33.08-.04.18-.1.26-.14.13-.09.27-.16.41-.26-.85-.8-1.58-.67-2.27-.42-.38.14-.79.29-1.13.54-.09.05-.18.12-.25.19-.14.12-.25.26-.36.42-.04.05-.07.11-.1.17-.04.09-.07.17-.11.27-.05.11-.08.23-.12.36.27-.04.53-.09.78-.14"/>
    <path class="cls-2" d="M88.26,50.3c-.41.12-.7.23-.7.3,0,.09.64.12,1.34.13.66-.09,1.11-.16,1.11-.23-.01-.08-.79-.14-1.76-.2"/>
    <path class="cls-2" d="M50.87,83.44c1.06-.99,2.33-1.22,3.09-2.32-1.53-.59-2.93.37-3.09,2.32"/>
    <path class="cls-8" d="M39.44,68.8s.02-.02.03-.03"/>
    <path class="cls-16" d="M3.71,65.08c-.22.29-.45.59-.66.88l.75.62c.51-.5,1.26-.66,2.26-.47-.12.12-.24.24-.35.36l1.81.25c.29-.25.71-.34,1.36-.38-.35.95-1.07,1.35-2.05,1.74l.03.47c2.01-.26,4.02-.51,6.04-.75.02-.12.07-.24.16-.35.03-.04.06-.08.1-.12.45-.48.91-.28,1.36-.02.15.09.3.17.45.26.96-.1,1.89-.18,2.85-.27h.01s.08-.11.14-.15c.21-.21.62-.37.87-.29.05.02.1.05.16.11.03.03.05.05.07.09.01.02.03.04.04.06s.03.05.04.08c2.5-.18,4.98-.29,7.44-.27.03-.27.03-.55.01-.86,0-.07-.01-.13-.02-.21-.02-.23-.05-.47-.1-.74-.02-.17-.06-.36-.09-.55-.18-.91-.72-1.4-1.34-1.92-.55-.46-1.04-1-1.52-1.54-.52-.61-1-1.27-1.46-1.85-.16-.02-.24-.03-.32-.03-1.33.02-1.33.01-.97-1.36.11-.47.24-.93-.31-1.29-.14.15-.27.3-.42.46-.36.37-.8.55-1.24.26-.51-.35-.29-.82-.08-1.27.12-.29.24-.57.39-.91-1.23.05-1.45.22-1.81,1.29-.21.61-.3,1.29-1.12,1.55-.31-.3-.66-.63-1.01-.96-.34.63-.65,1.19-1.01,1.84-1.36-.96-.42-2.39-.96-3.46-.39.11-.79.22-1.18.32-1.18.32-1.23.29-1.9-.81-3.4.16-6.84.68-10.32-.39v11.64c.32.15.63.31.91.44,1.88-1.73,2-1.79,2.99-1.5"/>
    <path class="cls-16" d="M36.26,68.73c.06.04.12.1.18.14.14-.15.28-.3.42-.47-.08-.05-.17-.12-.24-.17-.11.16-.24.32-.35.5"/>
    <path class="cls-2" d="M33.76,41.26c.47.78.85,1.52,1.34,2.18.15.19.56.17.84.25.07-.3.25-.64.2-.91-.21-.91-1.05-1.45-2.38-1.52"/>
    <path class="cls-2" d="M49.52,69.7c-.14.07-.26.14-.37.21-.81.52-1.25,1.17-1.43,2.07,1.62-.84,3.34-1.28,5.01-2.48-1.31-.65-2.28-.26-3.2.21"/>
    <path class="cls-16" d="M37.84,67.92s.07-.01.11-.01h-.11Z"/>
    <path class="cls-14" d="M58.13,35.72c-.25.23-.43.47-.66.59-.28.14-.64.35-.89.26-1.14-.39-2.26-.86-3.38-1.32-.16-.06-.25-.3-.42-.52.34-.48.67-.92,1.07-1.48-.64-.18-1.29-.24-1.8-.55-.07-.04-.14-.09-.21-.15-.06-.04-.14-.11-.2-.17-.48,4.53-2.79,8.8-6.53,11.58-1.28.95-2.72,1.73-4.32,2.29,0-3.25,0-6.5-3.12-8.67,1.04,3.25-1.04,6.5-2.08,6.5-1.68.44-3.19.34-4.68-.08-.01.03-.04.08-.07.11,0,.03-.03.08-.06.11-.24.3-.62.61-.98.65-.5.05-.82-.36-.96-.86-.07-.27-.15-.55-.24-.88-.2-.09-.41-.18-.62-.29-.29.26-.56.49-.85.7-.81.61-1.42.3-1.51-.74-.02-.25-.02-.5-.01-.79,0-.13.01-.26.01-.41-.07-.04-.16-.09-.23-.12-.68.36-1.23.66-1.79.96-.46.25-.97.47-1.35-.02-.36-.46-.19-.99.11-1.44.05-.08.1-.15.17-.23-1.02.67-2.02,1.35-3,2.05,0,.04,0,.08-.02.11,0,.11-.03.21-.06.3-.04.22-.09.43-.18.64-.05.19-.12.39-.21.59-.43-.22-.59-.5-.66-.81-1.16.87-2.29,1.78-3.35,2.77.11.03.21.06.29.11.04.02.07.04.12.07.03.02.06.04.08.08.03.02.05.05.07.09.02.03.03.06.04.1.02.04.02.08.03.12.02.1.01.21,0,.33-.02.14-.06.29-.12.49-.03.1-.06.18-.1.29-.24.62-.48,1.25-.75,1.95,1.18-.02,1.98-1.31,3.21-.61-.2.4-.38.73-.53,1.07s-.32.7-.39,1.08c-.18.9.45,1.46,1.25,1.09.45-.2.81-.58,1.18-.93.32-.32.59-.68.96-1.12.1.57.18.99.29,1.64,1-1.08,1.52-2.07,1.41-3.6-.5.51-.8.91-1.2,1.19-.24.17-.68.29-.88.18-.22-.13-.39-.59-.36-.87.12-1.28.75-2.28,1.79-2.97.06-.04.16-.12.22-.1.3.09.64.13.86.32.09.08-.05.54-.2.76-.25.37-.58.67-.88,1.01.05.06.09.12.13.18.64-.31,1.28-.62,2.07-1v2.03c.87-.51,1.6-.93,2.36-1.38.14.67.25,1.18.37,1.82.8-.68,1.46-1.23,2.14-1.82.74.89.87,1.83.85,2.79,0,.28-.23.71-.46.8-.46.18-.62-.29-.76-.65-.16-.41-.26-.85-.43-1.4-.75.76-1.39,1.4-2.13,2.13-.22-.68-.39-1.22-.6-1.94-.83.92-1.9,1.41-2.25,2.61,1.08.64,1.18-.82,2.01-.82.38,1,.76,1.99,1.15,2.99.14.37.33.75.8.66.48-.09.65-.46.68-.94.01-.38.04-.77.06-1.14.61-.3,1.11-.19,1.56.2.25.23.43.55.69.74.22.15.64.29.75.19.21-.19.34-.57.32-.87-.02-.31-.27-.62-.41-.93-.1-.25-.19-.52-.3-.84,1.21-.08,1.88.77,2.69,1.36.42-.69.64-1.33.34-2.12-.11-.28-.11-.69,0-.98.45-1.19,1.26-2,2.44-2.4.62-.21,1.03-.01,1.32.62-.83.92-2.4.96-2.61,2.58.84.19,1.48-.81,2.35-.28-.19.51-.36,1-.63,1.74,1.15-.57,2.07-1.03,3.02-1.5.25.49.45.88.64,1.28.36-.28.66-.51.97-.74,1.05.51,1.51,1.8,2.62,2.08.95-.77.22-1.72.36-2.73.62.11,1.21.19,1.79.29.57-.91.57-.9,1.56-.94.28-.01.56-.06.85-.1-.21-.26-.39-.35-.58-.42-.23-.1-.47-.16-.7-.28-.84-.42-.92-.89-.21-1.56.48-.45,1.01-.86,1.7-1.43-1.11.06-1.98.13-2.92.18.26-.51.54-.91.83-1.22.73-.78,1.56-.96,2.47-.6-.22.12-.39.21-.58.3-.17.1-.33.21-.59.37q1.63.3,1.8,1.41c-.48.25-.98.51-1.66.88,1.06.65,1.86,1.39,2.79,1.63.94.25,1.43.66,1.56,1.66.74-.29,1.36-.54,2.07-.82q-1.18-.92-1.39-1.72c.66-1.15,2.41-.17,3.04-1.63-.44-.24-.78-.43-1.2-.67.17-.4.27-.78.46-1.09.79-1.33,1.61-2.63,2.43-3.98-.43-.44-1.28-.37-1.32-1.19,2.53-1.9,2.6-2.02,2.37-3.84"/>
    <path class="cls-17" d="M90.04,74.76c-.67-.74-1.33-1.46-2.03-2.23-.02.36-.05.61-.04.86.01.53-.21,1.01-.71,1.07-.35.04-.85-.13-1.09-.4-.39-.48-.69-1.07-.94-1.66-.26-.62-.41-1.29-.63-2.04-.33.25-.6.43-.86.63-1.2.88-1.75.88-2.91-.04-.56-.44-1.1-.91-1.65-1.37-1.39.91-2.71,1.81-4.06,2.67-1.21.77-2.41,1.53-3.65,2.23-.36.21-.92.44-1.24-.11-.31-.53.23-.73.49-1.03.03-.04.01-.15.02-.18-.32-.11-.62-.22-.93-.29-.22-.06-.48-.16-.68-.11-.56.16-1.09.49-1.63-.02-.4-.38-.82-.75-1.28-1.17-.81.08-1.81,1.03-2.54-.35-.53,0-1.08.65-1.62-.17.91-.69,1.8-1.36,2.69-2.05.12-.1.25-.21.37-.3.22-.15.45-.25.72-.05.47.34.15.77,0,1.17-.02.05.04.14.09.3.85-.47,1.7-.93,2.54-1.39.43-.23.86-.72,1.32-.15.45.54.01.95-.31,1.35,0,.02.05.11.07.17,1.81-.27,2.47-2.12,3.78-3.13.72.79.52,1.57.35,2.4.83-1.03,2.01-1.66,2.45-2.98.3-.9.68-1.77,1.07-2.62.07-.16.14-.31.19-.48.11-.31.2-.64.24-.97.01-.02.01-.04.01-.07.02-.14.04-.28.05-.42h0c-6.76.11-13.27,1.85-19.84,3.46v.17c.17.01.29.05.41.03.48-.12.96-.27,1.44-.39q1-.24,1.49.76c.83.07,1.75-.66,2.67.43-.39.15-.79.3-1.18.43-1.17.41-2.33.74-3.58.91.33-.49.66-.99.99-1.47-.03-.04-.07-.1-.1-.14-.92.42-1.84.84-2.92,1.35-.06-.68-.1-1.17-.17-1.86,0,0,0,.01-.02.01-.39.33-.77.63-1.16.94-.27.22-.55.44-.85.68.03-.25.08-.49.16-.7.03-.09.06-.17.1-.26.03-.1.08-.19.12-.28-1.83.43-3.66.82-5.52,1.16-.78.61-1.57,1.21-2.38,1.85.51.22.91.38,1.61.66-1.64.92-3.05,1.7-4.47,2.5.03.57.06,1.12.09,1.73-1.29-.18-1.72-1.82-3.09-1.84.09.57.16,1.01.24,1.59-.68-.25-1.21-.44-1.76-.65-.24.44-.46.85-.76,1.41-.86-.86-1.66-1.59-2.41-2.38-.62-.66-.74-.72-1.46-.22-.47.32-.92.68-1.5,1.1-.05-.64-.08-1.08-.12-1.71-1.17.94-2.19,1.77-3.44,2.77.14-.85.23-1.37.35-2.13-.9.7-1.61,1.26-2.32,1.8-.06-.05-.11-.11-.18-.16.1-.35.21-.7.37-1.23-.88.42-1.55.44-2.07-.27-.3.21-.55.36-.78.53-.62.51-1.25.61-2.08.47-1.76-.3-3.34-.98-4.81-1.95-.84,1.2-2.28,1.49-3.35.52-.21-.19-.42-.39-.6-.6l-1.68,1.08c.15.16.06.53.09.8-.26.01-.62.15-.77.02-.8-.69-1.57-1.43-2.12-2.34l-2.03.15c.32.27.53.73.72,1.42-1.12-.29-1.56-.67-2.09-1.8l-.1-1.65c-2.37.31-4.72.61-7.05.88v1.44c12.8,2.01,25.21,6.41,39.01,5.73-.64.08-1.15.3-1.15,1.05,8.32,1.08,15.6-2.17,22.87-4.33,0,1.08-2.08,2.17-2.08,3.25,10.64-.74,21.27.03,31.58-1.81M79.89,74.28c.46-.66,1.11-.98,1.88-.98.08.09.17.17.24.26-.46.52-.89,1.07-1.4,1.54-.14.13-.61.1-.73-.04-.12-.16-.12-.6,0-.78M75.57,73.84c1-.69,2.02-1.32,3.04-1.96.04-.03.14.04.45.16-.75,1.29-1.69,2.19-2.93,2.73-.18.08-.54-.12-.71-.29-.08-.09.02-.54.16-.64M68.36,64.72c.08-.17.17-.37.28-.55.36-.61.82-.63,1.36-.25.34.24.71.46,1.08.63.26.11.61.25.82.15,1.39-.66,2.28.37,3.37.88-.3.72-.73.74-1.17.52-.74-.36-1.49-.34-2.29-.33-.74.02-1.49-.4-2.41-.68-1.56,1.01-2.37.5-3.25-1.57q.5-.36,2.21,1.2M66.39,67.32c-.56.26-1.05.49-1.55.71-.28.12-.55.25-.85.38.35-.96.68-1.38,1.27-1.38.3,0,.66.1,1.13.28M47.71,71.97c.19-.9.62-1.55,1.44-2.07.11-.07.24-.14.37-.21.93-.47,1.89-.86,3.2-.21-1.67,1.2-3.39,1.65-5.01,2.48M54.02,71.39c.09-.73.37-1.22.82-1.55.27-.19.59-.34.98-.41.07.93-.38,1.44-1.8,1.96"/>
    <path class="cls-2" d="M66.25,80.98c1.6-.02,1.28,1.74,2.37,2.45.13-.37.39-.7.32-.92-.2-.64-.43-1.31-.82-1.82-.52-.66-.98-.57-1.87.29"/>
    <path class="cls-2" d="M46.79,79.77c.35-.31,1.01-.46.72-1.16-.19-.47-.61-.43-1.39.12-.67.48-1.31,1-1.94,1.48-.55-.51-.64-1.36-1.62-1.44-.38.53-.82,1.13-1.23,1.68-.54-.39-1.01-.83-1.55-1.08-.77-.35-.98.64-1.49.84-.49-.08-.94-.53-1.46.08.8.86,1.46,1.83,2.72,2.48.12-.75.22-1.32.33-1.97.27.34.49.64.75.91.62.65,1.09.62,1.63-.1.2-.26.38-.53.59-.82.32.56.6,1.05.92,1.59,1.12-.97,2.08-1.79,3.01-2.61"/>
    <path class="cls-11" d="M82,1.83c.84-.33.93-1.72,2.07-1.61.52.78-.17,1.44-.27,2.43.78-.57,1.35-.97,1.91-1.4.33-.25.64-.54,1-.76.14-.09.5-.09.54-.01.09.2.12.48.05.68-.29.85-.66,1.66-.94,2.51-.12.41-.11.87-.17,1.3.09.03.18.06.27.1.23-.29.44-.58.69-.84.21-.23.48-.39.72-.59.11.34.33.67.32,1.01,0,.64-.13,1.27-.22,1.91.05.03.12.07.18.09.18-.26.38-.5.52-.78.19-.38.29-.81.49-1.18.1-.19.34-.46.51-.44.18.01.39.28.47.5.02.06.03.13.05.19V0h-8.52c-.26.68-.27,1.28.33,1.83"/>
    <path class="cls-2" d="M8.88,66.34c-.66.04-1.07.13-1.36.38-.29.25-.48.66-.69,1.36.98-.39,1.7-.79,2.05-1.74"/>
    <path class="cls-16" d="M29.09,67.28c-.48-.97-.86-1.74-1.25-2.51-.24,1.04-.04,1.96,1.25,2.51"/>
    <path class="cls-2" d="M38.5,26.13c.09.24.18.46.25.63-.44.33-.8.6-1.29.97.49.52.83.88,1.24,1.3-1.16.24-2.5-.41-2.96,1.07-.5.04-.89.09-1.26.12-.16.67.14,1.03.57,1.27.54.29,1.1.6,1.68.74.37.1.57-.3.55-.69-.03-.41-.14-.82-.22-1.38.78.12,1.48.22,2.16.31.56.09.86-.17.9-.77.04-.54.08-1.08.12-1.69h1.68c-.1-1.17-.6-1.94-1.6-2.34-.33-.13-.65-.23-.98-.23-.06,0-.12,0-.19.02-.27.02-.53.15-.79.4,0,.01.01.01.01.02.03.09.06.16.09.24h.01Z"/>
    <path class="cls-3" d="M89.53,6.6c-.24.37-.48.73-.71,1.07-.31.46-.6,1.04-1.26.86-.65-.18-.61-.84-.61-1.4v-1.57c-.39.04-.74.09-1.15.13v-2.62c-.76.29-.78.29-.87.81-.07.42-.15.84-.16,1.28-.14,3.79-.27,7.6-.39,11.39-.01.42.03.84.05,1.27.79.04,1.3-.26,1.76-.75.84-.89,1.72-1.73,2.58-2.62.67-.71,1.13-1.19,1.44-1.61v-5.11c-.21-.36-.43-.73-.67-1.13"/>
    <path class="cls-3" d="M77.5.3c-.1.16-.21.29-.28.44-.45.93-.86,1.87-1.35,2.78-.38.72-.85.75-1.36.11-.27-.34-.47-.75-.75-1.2-.08.25-.15.36-.17.48-.2,1.14-.57,1.31-1.46.63-.43-.34-.8-.74-1.33-1.22-.17.93-.12,1.58.43,2.21,1.68,1.92,3.32,3.89,4.97,5.83.26.29.57.54.93.89.59-2.82.81-9.51.37-10.94"/>
    <path class="cls-7" d="M15.7,46.94s-.01-.08-.03-.12"/>
    <path class="cls-2" d="M18.39,42.38c0-.17-.04-.36-.12-.52.08.16.11.34.12.52"/>
    <path class="cls-7" d="M15.47,46.56s-.07-.04-.11-.06"/>
    <path class="cls-16" d="M39.81,62.41c1.35-.29,2.38-.73,3.23-1.63-.33-.65-.62-1.24-.97-1.9-1.09.99-1.8,2.05-2.27,3.52"/>
    <path class="cls-16" d="M31.01,64.03c-.07.02-.14.03-.22.05.09,1.17.19,2.33.28,3.59q1.34-.83.77-1.95c-.29-.55-.55-1.13-.83-1.69"/>
    <path class="cls-14" d="M26.13,38.63s.05.03.07.04c.35-.37.72-.75,1.07-1.12-.47.33-.94.64-1.4.95h.01c.08.03.18.08.25.12"/>
    <path class="cls-2" d="M61.22,65.86q-.49-1-1.49-.76c-.49.12-.97.27-1.45.39-.11.02-.24-.02-.41-.03v-.99c-.2.01-.39.02-.57.07-.08,0-.18.03-.25.05-.05,0-.1.02-.16.04-.08.02-.16.04-.23.08-.12.04-.24.1-.35.16-.07.03-.13.08-.2.12-.08.05-.16.11-.22.16-.06.04-.12.1-.18.15-.08.09-.16.17-.24.27,0,.01,0,.01,0,.01-.08.1-.16.21-.21.31-.05.09-.09.18-.14.28-.04.09-.07.17-.1.26-.07.22-.12.45-.16.7.3-.24.58-.47.85-.68.39-.31.77-.62,1.16-.94t.02-.02h0c.06.7.1,1.19.17,1.87,1.08-.51,2.01-.93,2.92-1.35.03.04.07.1.1.14-.33.49-.66.99-.99,1.47,1.25-.17,2.4-.5,3.58-.91.39-.13.79-.28,1.19-.43-.93-1.09-1.84-.37-2.67-.43"/>
    <path class="cls-2" d="M27.25,31.26c-.06.18-.1.34-.12.47-.04.27,0,.5.11.79.09.23.24.48.43.81.08-.11.17-.22.23-.33.06-.1.11-.2.15-.29.05-.09.08-.16.1-.25.01-.01.01-.03.01-.04.1-.33.11-.63.03-.89-.05-.17-.14-.33-.26-.46-.04-.04-.08-.09-.14-.13-.1-.08-.22-.14-.35-.19-.03.08-.06.15-.08.22h0c-.04.11-.08.21-.1.29"/>
    <path class="cls-2" d="M54.02,71.39c1.41-.52,1.87-1.03,1.8-1.96-.38.08-.71.22-.98.41-.45.32-.73.82-.82,1.55"/>
    <path class="cls-4" d="M5.57,87.77s.01.03.02.04"/>
    <path class="cls-1" d="M43.49,21.58c-.1.34-.18.58-.21.79.03-.2.11-.46.21-.79"/>
    <path class="cls-7" d="M51.84,32.53c.07.06.13.11.21.15M51.64,32.36c.06.06.14.13.2.17"/>
    <path class="cls-5" d="M56.67,64.71c.07-.03.15-.05.23-.08"/>
    <path class="cls-4" d="M44.68,66.06c.06-.06.14-.12.2-.16"/>
    <path class="cls-2" d="M69.4,65.09c.93.28,1.67.7,2.41.68.8-.01,1.55-.03,2.29.32.45.22.87.2,1.18-.52-1.09-.51-1.98-1.54-3.37-.88-.21.1-.56-.04-.82-.15-.37-.17-.74-.39-1.08-.63-.54-.38-1-.36-1.36.25-.11.18-.2.38-.28.55q-1.72-1.56-2.21-1.2c.88,2.07,1.7,2.58,3.25,1.57"/>
    <path class="cls-16" d="M42.75,68.08c.06-.06.1-.12.16-.18-.14.01-.29.02-.45.03.1.04.2.1.29.15"/>
    <path class="cls-2" d="M3.8,66.58c-.36.35-.61.89-.74,1.58,1.09-.23,1.82-.89,2.64-1.69.11-.12.23-.24.35-.36-1-.2-1.75-.03-2.26.47"/>
    <path class="cls-17" d="M39.3,68.98c-.18.22-.33.43-.5.64.17.12.27.26.35.25.11-.02.22-.05.31-.09.02-.01.04-.02.06-.03.08-.03.17-.08.25-.13h.01c.18-.13.33-.28.47-.43v-.02c-.26-.12-.54-.24-.81-.37-.05.07-.1.13-.15.18"/>
    <path class="cls-5" d="M24.09,39.2c.11-.09.24-.16.36-.23"/>
    <path class="cls-2" d="M37.98,89.29c.37-.49.68-.79.86-1.16.14-.31.3-.75.21-1.03-.18-.52-.69-.42-1.08-.28-.58.22-1.13.51-1.67.76-1.2-1.05-1.52-1.05-2.68-.02-.46.41-.89.83-1.34,1.25-1.68-1.93-3.72-2.32-4.94-.91.37.5.77,1.02,1.25,1.65-.36.02-.59.01-.82.06-.87.22-1.76.42-2.62.68-.44.13-.81.47-.52.94.12.21.72.34.95.21,1.41-.77,2.82-.51,4.25-.19.46.1.94.11,1.38.15.43-1.13-.5-1.54-.97-2.45,1.18.55,1.35,1.69,2.14,2.32.62-1.2.94-2.54,2.26-3.19.06.93-.74,1.69-.11,2.7.49-.4.95-.75,1.37-1.13.46-.38.82-.91,1.6-1.07-.32.86-.59,1.56-.95,2.51,1.55-.29,2.89-.54,4.23-.79-.37-1.16-.41-1.17-2.8-1.02"/>
    <path class="cls-2" d="M19.6,42.25c.03-.36.03-.71,0-1.08-.01-.23-.04-.47-.08-.7-.82.18-1.55.36-2.53.57.44-.29.67-.46.96-.65-.91-.81-1.91-.55-2.97-.69.61-.51,1.02-.84,1.52-1.26-.59-.37-1.09-.67-1.59-.98.03-.1.06-.18.09-.28.39.03.78.05,1.17.1.44.05.86.12,1.39.18-.79-1.51-2.72-1.85-3.77-.87-.05.05-.1.11-.16.17-.45.53-.4,1.07.17,1.54.14.12.29.19.49.31-.35.42-.69.71-.88,1.08-.17.3-.34.8-.21,1.02.14.24.64.34.98.32.47-.02.92-.2,1.51-.35-.08.52-.19.86-.19,1.18,0,.37,0,.96.17,1.04.32.14.8.08,1.14-.08.51-.24.96-.63,1.47-.98.08.16.12.35.12.52.02.21,0,.44,0,.66-.01.02-.01.04-.01.06,0,.1,0,.19.01.29,0,.08.01.15.02.22.06.31.23.6.66.81.08-.19.16-.39.21-.58.08-.21.14-.42.18-.64.03-.1.05-.2.06-.3.01-.03.02-.06.02-.11.02-.04.02-.09.01-.13.03-.14.04-.28.05-.41"/>
    <path class="cls-8" d="M39.3,68.98c-.18.22-.33.43-.5.64"/>
    <path class="cls-17" d="M12.9,67.8c-2.02.24-4.03.49-6.04.75l.1,1.65c.63,0,1.06.1,1.37.38l2.03-.15c-.07-.13-.14-.26-.22-.4.05-.12.1-.25.16-.37.29.04.67-.01.85.16.71.66,1.38,1.38,2.01,2.12l1.68-1.08c-.59-.63-1.11-1.33-1.63-2.01-.11-.15-.2-.3-.25-.43-.1-.23-.11-.42-.06-.62"/>
    <path class="cls-17" d="M39.6,68.59c.31.08.61.17.91.26.02-.02.03-.04.04-.06.19-.25.36-.51.55-.75.02-.03.04-.05.06-.07-.36,0-.73,0-1.09,0-.17.22-.32.42-.48.62"/>
    <path class="cls-16" d="M45.58,56.43c.23.25.46.5.78.85.13-.34.23-.54.34-.83-.35-.08-.66-.14-.96-.21-.05.06-.11.13-.17.19"/>
    <path class="cls-17" d="M12.96,68.42c-.08-.23-.09-.43-.05-.62h-.01c-.05.19-.04.39.06.62"/>
    <path class="cls-15" d="M84.35,46.5c.11,1.16.23,2.34.35,3.5.01.12,2.01.2,3.56.3.59-.18,1.42-.38,1.94-.55v-1.36h-5.65c-.06-.63-.14-1.27-.2-1.9"/>
    <path class="cls-17" d="M22.07,89.57c-.62,0-1.25-.01-1.87-.03-1.06.39-1.98.71-2.94,1.06.03-.12.07-.24.11-.35.04-.11.08-.21.12-.3.07-.14.14-.25.22-.36.03-.04.05-.09.08-.13-1.66-.08-3.34-.17-5.03-.28-.81.38-1.62.77-2.45,1.17-.09-.19-.12-.35-.12-.5,0-.08,0-.15.03-.22.01-.07.03-.13.06-.18.07-.15.17-.28.27-.41-.57-.03-1.14-.07-1.72-.1-.29.24-.61.44-.99.55.04-.21.09-.4.14-.6-.43-.02-.85-.03-1.28-.05-.19.23-.36.44-.56.68-.08-.25-.16-.49-.23-.71-.51-.01-1.03-.02-1.54-.03,0,.12-.03.25-.04.37-.02.14-.05.28-.09.41-.06.22-.16.42-.31.61-.49-.11-.97-.2-1.43-.3-.23.34-.44.64-.68,1-.69-.4-1.34-.76-2.02-1.13v4.47h16.38c1.62-1.81,3.4-3.59,5.89-4.63"/>
    <path class="cls-16" d="M58.46,76.57c0-1.08,2.08-2.17,2.08-3.25-7.28,2.17-14.56,5.42-22.87,4.33,0-.75.51-.97,1.16-1.05-13.81.68-26.21-3.73-39.01-5.73v3.09c1.08.28,2.13.55,3.18.84.89.26,1.03.47,1.06,1.47-1.44.33-2.76-.71-4.24-.57v12.68c.3.12.6.25.96.4.06-.12.11-.22.17-.3.06-.07.1-.14.16-.2.18-.2.35-.27.53-.27.07,0,.14.01.21.03.42.11.83.54,1.27.72.07,0,.14.01.22.01h.01s0-.09,0-.12c.01-.15.03-.29.06-.43.07-.38.22-.73.41-1.04h.01c.06-.12.14-.23.21-.34.01,0,.01-.01.02-.02.23-.34.51-.63.78-.93.2-.22.62-.4.85-.33.22.07.36.5.45.8.09.38.09.78.17,1.41.39-.48.59-.74.82-1,.41-.48.81-.99,1.28-1.4.25-.22.69-.42.96-.35.47.15.31.62.19,1-.06.18-.1.38-.17.63q2.42-.63,3.44.55c.78.39,1.86-.49,2.29.86-.79.38-1.56.75-2.33,1.12,1.7.11,3.37.21,5.03.28h.01c.06-.08.13-.15.21-.22,0,0,0,0,.01,0,.08-.07.17-.12.25-.16.08-.04.18-.08.26-.1.09-.02.18-.03.27-.03.1,0,.22.01.32.03.11.03.23.07.34.12.24.09.49.24.76.43-.01,0-.02.01-.03.01.62.02,1.25.03,1.87.03-2.49,1.04-4.26,2.82-5.89,4.63h26.59c2.81-1.49,5.64-2.89,8.51-4.1-.05-.12-.12-.24-.2-.37.74-.12,1.3-.16,1.65-.77.21-.36.64-.34,1.01-.12.09.05.18.12.27.17,6.32-2.35,12.89-3.63,20.04-2.7-2.08,2.17-5.2,3.25-7.28,5.42.64,0,1.28-.03,1.91-.1.04-.1.07-.18.12-.27.03-.06.06-.12.1-.17.11-.16.23-.3.36-.42.07-.08.16-.14.25-.19.34-.25.75-.4,1.13-.54.69-.25,1.41-.38,2.27.42-.14.1-.27.17-.41.26-.08.04-.18.1-.26.14-.22.13-.44.24-.66.32,6.55-1.47,12.27-5.4,18.59-6.82v-9.44c-.05-.06-.1-.11-.16-.17-10.3,1.84-20.94,1.07-31.58,1.81M34.11,79.94c-.44,1.2-1.38,1.56-2.6,1.93.51-1.5,1.11-1.91,2.6-1.93M21.76,79.99c-.24-.35-.48-.67-.75-1.05-.34.4-.64.75-1.03,1.19-1.28-.67-2.56-1.34-3.94-2.07-.67.84-1.56.85-2.49.66-.64-.13-1.15,0-1.69.5-.85.79-2.35.65-3.21-.14-.29-.26-.58-.55-.34-1,.27-.5.61-.22.97-.09.44.18.89.31,1.4.49.14-.53.22-.89.33-1.33,1.12.1,2.23.2,3.37.29.21-.45.41-.85.64-1.37,1.7.75,3.13,1.86,4.82,2.7.26-.41.46-.84.76-1.18.29-.31.68-.53,1.13-.89.11.67.2,1.12.28,1.66,1.23-.56,2.12-1.73,3.75-1.7-.2.64-.33,1.11-.5,1.68.59-.26,1.13-.51,1.68-.71.27-.11.58-.23.83-.16.23.05.49.31.57.55.06.16-.07.57-.23.64-1.34.62-2.61,1.48-4.31,1.68.22-.76.41-1.38.63-2.16-1.15.32-1.74,1.31-2.69,1.81M36.54,91.1c.35-.95.62-1.66.95-2.51-.78.16-1.14.69-1.6,1.07-.43.38-.88.73-1.37,1.13-.62-1.01.18-1.77.11-2.7-1.32.65-1.63,1.98-2.26,3.19-.79-.63-.97-1.77-2.14-2.32.47.91,1.39,1.32.97,2.45-.45-.04-.93-.05-1.38-.15-1.43-.32-2.84-.58-4.25.19-.23.13-.82,0-.95-.21-.29-.48.08-.81.52-.94.86-.26,1.75-.47,2.62-.68.23-.05.46-.04.82-.06-.48-.63-.87-1.15-1.25-1.65,1.22-1.41,3.25-1.02,4.94.91.45-.41.88-.83,1.34-1.25,1.16-1.03,1.49-1.03,2.68.02.54-.25,1.09-.54,1.67-.76.4-.14.91-.24,1.08.28.09.28-.06.71-.21,1.03-.19.37-.49.67-.86,1.16,2.39-.15,2.42-.14,2.8,1.02-1.34.25-2.68.5-4.23.79M42.27,81.62c-.54.71-1.01.75-1.63.1-.26-.27-.48-.57-.75-.91-.11.65-.21,1.22-.33,1.97-1.27-.65-1.92-1.63-2.72-2.48.52-.61.97-.15,1.45-.08.51-.21.72-1.19,1.49-.85.54.25,1.01.69,1.55,1.08.41-.55.84-1.15,1.23-1.68.98.08,1.07.93,1.62,1.44.63-.49,1.28-1.01,1.94-1.49.78-.55,1.21-.59,1.39-.12.29.7-.36.84-.72,1.16-.93.83-1.89,1.64-3.01,2.61-.31-.54-.59-1.03-.92-1.59-.21.29-.39.56-.59.82M43.25,92.1c-.16-1.4.5-2.12,1.32-2.73.5-.37.98-.31,1.47.24-.84.86-1.54,1.84-2.79,2.49M46.32,82.73c.34-1.57,2.28-3.36,3.53-3.39.26,0,.53.23.79.35,0,.1,0,.21,0,.31-1.44.8-2.71,1.91-4.32,2.73M50.87,83.44c.16-1.95,1.56-2.9,3.09-2.32-.76,1.09-2.03,1.33-3.09,2.32M68.62,83.43c-1.09-.7-.77-2.47-2.37-2.45.89-.87,1.35-.95,1.87-.29.39.51.62,1.18.82,1.82.07.22-.19.55-.32.92M72.45,84.05c-.42-.66-.82-1.05-.89-1.5-.15-.96-.63-1.56-1.49-1.89-.1-.03-.16-.18-.24-.28,1.04-.93,1.28-.87,2.94.9.83-.33,1.67-1.13,2.8-.24-1.34.56-2.38,1.38-3.12,3M74.69,84.95c-.34-.78.04-1.17.46-1.52.47-.4.98-.77,1.87-.26-.86.66-1.57,1.2-2.33,1.78"/>
    <path class="cls-2" d="M51.55,90.58s.05.09.08.13c0,.01.01.02.01.03.06.09.12.16.2.24.31.32.75.69,1.11.68.59-.03.45-.72.53-1.15.02-.11.1-.19.19-.34.45.32.84.64,1.26.92.85.56,1.16.44,1.39-.54.08-.33.15-.67.29-1.32.91.93,1.67,1.69,2.53,2.57.45-.68.81-1.24,1.17-1.8.26.66.48,1.19.76,1.91,1.1-.93,2.03-1.72,3.08-2.62-.12.91-.96,1.42-.46,2.31.26-.04.58-.02.8-.16,1.14-.7,2.27-1.43,3.62-1.67.22-.04.37-.5.55-.76-.26-.14-.55-.43-.8-.4-.74.06-1.46.26-2.2.41,0-.01-.04-.04-.05-.08-.02-.12-.03-.25-.05-.38-.14-1-.44-1.2-1.3-.84-.31.13-.59.31-.87.5-.47.3-.93.64-1.53,1.06.07-.36.11-.52.14-.68.03-.42.14-.89-.32-1.16-.51-.29-.97-.11-1.37.24-.23.2-.42.42-.6.65-.35.4-.69.81-.95,1.13-.78-.43-1.39-.94-2.08-1.12-.91-.23-1.12.79-1.57,1.39-.39-.26-.74-.49-1.07-.7-.09-.05-.18-.12-.27-.17-.36-.22-.8-.24-1.01.12-.35.61-.91.65-1.65.77.07.13.14.25.2.37.06.11.12.22.18.33.03.05.05.11.08.15"/>
    <path class="cls-16" d="M41.63,56.03c-.77-.5-1.5-1.03-2.29-1.46-1.43-.78-3.31-.12-4.35,1.73,1.32-.47,2.38-.84,3.45-1.22.14.44.24.76.36,1.15.28-.35.49-.62.69-.88.72.35,1.35.65,1.99.95.05-.1.09-.18.14-.27"/>
    <path class="cls-1" d="M43.27,22.43c-.04.28-.01.46.16.62-.16-.16-.2-.35-.16-.62"/>
    <path class="cls-10" d="M18.39,43.4c-.01-.1-.01-.19-.01-.29,0-.02,0-.04.01-.07,0-.22.02-.46,0-.66-.01-.18-.04-.36-.12-.52-.51.35-.96.74-1.47.98-.34.15-.82.22-1.14.08-.17-.08-.17-.67-.17-1.04,0-.33.1-.66.19-1.18-.58.15-1.04.33-1.51.35-.33.02-.83-.08-.98-.31-.14-.22.04-.72.21-1.02.2-.37.53-.66.88-1.08-.2-.12-.35-.19-.49-.31-.56-.47-.61-1.01-.17-1.54.05-.06.1-.12.16-.17l-.48-.7c-1.27.95-2.49,1.93-3.57,3.05.5-.01,1-.01,1.46.44-.79.98-.66,2.64-2.35,2.93.33.9-.18,1.42-.82,1.96.62.1,1.09.17,1.55.25-.04.36-.08.63-.12.94.57-.08,1.05-.13,1.57-.18.11.55.21,1,.32,1.53,1.19-.74,1.94-2.02,3.43-2.02-.42.42-.82.86-1.34,1.4.46.04.75.05,1.03.09.11,0,.22.02.31.04.08.01.17.03.23.05.02,0,.04.01.06.01,1.06-1,2.18-1.91,3.35-2.77,0-.06-.02-.14-.02-.22"/>
  </g>
</svg>