<?xml version="1.0" encoding="UTF-8"?>
<svg id="Layer_1" data-name="Layer 1" xmlns="http://www.w3.org/2000/svg" xmlns:xlink="http://www.w3.org/1999/xlink" viewBox="0 0 90 90">
  <defs>
    <style>
      .cls-1 {
        clip-path: url(#clippath-6);
      }

      .cls-2 {
        clip-path: url(#clippath-7);
      }

      .cls-3 {
        fill: #c1ca71;
      }

      .cls-4 {
        fill: #bfbebe;
      }

      .cls-5 {
        clip-path: url(#clippath-4);
      }

      .cls-6 {
        fill: #b7c470;
      }

      .cls-7 {
        fill: #f2f2ef;
      }

      .cls-8 {
        fill: #98a951;
      }

      .cls-9 {
        fill: none;
      }

      .cls-10 {
        clip-path: url(#clippath-1);
      }

      .cls-11 {
        clip-path: url(#clippath-5);
      }

      .cls-12 {
        fill: #908881;
      }

      .cls-13 {
        clip-path: url(#clippath-3);
      }

      .cls-14 {
        fill: #849a52;
      }

      .cls-15 {
        fill: #663925;
      }

      .cls-16 {
        fill: #c28966;
      }

      .cls-17 {
        fill: #986749;
      }

      .cls-18 {
        clip-path: url(#clippath-2);
      }

      .cls-19 {
        fill: #ef7a49;
      }

      .cls-20 {
        fill: #a69b91;
      }

      .cls-21 {
        clip-path: url(#clippath);
      }
    </style>
    <clipPath id="clippath">
      <rect class="cls-9" x="0" y="0" width="90" height="90"/>
    </clipPath>
    <clipPath id="clippath-1">
      <rect class="cls-9" x="-2.85" y="-.35" width="94.35" height="90.71"/>
    </clipPath>
    <clipPath id="clippath-2">
      <rect class="cls-9" x="-2.85" y="-.35" width="94.35" height="90.71"/>
    </clipPath>
    <clipPath id="clippath-3">
      <rect class="cls-9" x="-2.85" y="-.35" width="94.35" height="90.71"/>
    </clipPath>
    <clipPath id="clippath-4">
      <rect class="cls-9" x="-2.85" y="-.35" width="94.35" height="90.71"/>
    </clipPath>
    <clipPath id="clippath-5">
      <rect class="cls-9" x="-2.85" y="-.35" width="94.35" height="90.71"/>
    </clipPath>
    <clipPath id="clippath-6">
      <rect class="cls-9" x="-2.85" y="-.35" width="94.35" height="90.71"/>
    </clipPath>
    <clipPath id="clippath-7">
      <rect class="cls-9" x="-2.85" y="-.35" width="94.35" height="90.71"/>
    </clipPath>
  </defs>
  <g class="cls-21">
    <g>
      <g class="cls-10">
        <g>
          <path class="cls-6" d="M64.38,80.28c1.09,1.09,3.26,2.18,4.35,4.35-3.7.41-7.59,1.02-11.56,1.62.58.2,1.23.78,1.5,1.11.54.66.73,1.38,1.16,2.08.58-.54,2.13-2.04,2.87-2.09.16-.01.32-.01.46.08.77.46-.59,2.27-.82,2.84-.09.23-.08.49-.23.67.2.03.4-.12.62-.16.76-.13,1.55-.25,2.3-.02,1.95.6-.8,2.07-.97,3.06,0,.11,1.47.22,1.57.59h26.06v-11.91c-8.94,2.54-18.56-.26-27.32-2.2"/>
          <path class="cls-6" d="M79.39,66.11l1.75,1.31,1.11-2.09c.77-.79,1.15,1.58,1.44,1.96.25-.2.36-.5.59-.72.2-.2.71-.64,1.2-1.03-1.81-.68-3.78-1.13-5.86-1.37-.2.74-.42,1.52-.22,1.94"/>
        </g>
      </g>
      <g class="cls-18">
        <g>
          <path class="cls-6" d="M32.11,88.37c.21.53.17,1.53.1,1.87-.12.58-1.07,2.1-1.7,2.08-.2,0-.46-.23-.43-.43.02-.27.88-1.04,1.09-1.52.15-.36.37-.88,0-1.16-.74.23-1.14.71-1.52,1.34-.26.43-.46,1.44-1.08,1.25l-1.38-2.65c-.62-.78-1.59-1.26-2.6-1.24.18,1.16.67,2.19,1.73,2.76.6.32,1.66.43,1.65,1.27l-2.04.63-1.73,1.46v.39h38.32l1.96-2.74c-.94-.03-1.6-.07-2.45.37-.24.12-.73.74-1.01.29-.29-.45.47-1.3.55-1.79l.49-1.73c-.5.42-1.25.97-1.63,1.49-.34.47-.29,1.17-.85,1.35-.52-.03-1.28-3.59-2.14-3.88-.08.88-.68,2.35-.52,3.19.04.21.25.34.25.52.03.94-.77.23-1.13.1-.41-.14-1.09-.2-1.52-.15-.52.07-.97.43-1.49.11-.11-.57.02-.75.53-.93.92-.35,1.78-.26,2.71.03.1-.93.35-1.99.26-2.94-.04-.47-.42-.97-.14-1.3-8.08,1.23-16.47,2.42-24.27,1.99"/>
          <path class="cls-6" d="M82.87,73.76c3.07,2.31,6.14,3.53,8.83,5.2v-31.22c-.46.23-.97.09-1.47.16-.58.08-1.84.73-2.23.6-.21-.08-.23-.23-.21-.42.02-.29.62-1.93.52-2.03-.32.02-.66.28-.9.47-.55.43-.91,1.51-1.58.87l-.33-2.25c-.52.34-.98,2.2-1.46,2.33-.61.17-1.07-.65-1.48-.95-.15-.11-.46-.28-.64-.27.15.5,1.49,2.36.91,2.74-.21.1-.46.1-.66,0-.32-.16-1.25-2.38-1.63-2.81-.09-.24-.1-.5-.02-.73l-1.47-.38-.53.54c.23,1.08.5,2.15.65,3.25.5,3.83.09,7.62.01,11.46-.01.6-.26.66.08,1.35.27.55.58.49.59,1.25,0,.32-.12.77-.24,1.24,2.08.24,4.05.69,5.86,1.37.44-.35.86-.67,1.05-.75.52-.22,1.23,0,.95.55-.07.13-.41.4-.79.69,1.39.62,2.67,1.38,3.81,2.29,2.17,2.18-4.35,3.26-7.61,5.44"/>
          <path class="cls-14" d="M64.38,80.28c8.76,1.95,18.38,4.75,27.32,2.2v-3.53c-2.69-1.67-5.76-2.9-8.83-5.2,3.26-2.18,9.79-3.26,7.61-5.44-1.14-.91-2.42-1.67-3.81-2.29-.47.35-1.01.73-1.23.93-.64.58-1.16,1.26-1.78,1.87l-.43-.2-.65-2.25c-.17-.22-.7.74-.74.87-.18.45-.17.78-.2,1.25-.03.12-.21.3-.32.34-.13.02-1.02-.59-1.21-.72-.4-.27-1.54-1.53-1.44-.26.08.91.07,1.67-.02,2.61-.03.35-.13.85-.25,1.18.25.02.5-.25.74-.3.2-.03.51-.09.63.1l.07.34c-.04.42-1.37,1.27-1.6,1.79-.3.67-.17,1.67-.49,2.37l2.47-1.58.3-.02c.61.16.66.66.23,1.09-.92.9-2.71,1.68-3.45,2.8-.47.7-.39,1.87-1.62,1.48-.65-.22-1.1-1.54-1.4-2.14-.28-.04-1.3.22-1.61.34-.51.2-1.3,1.03-1.84.65-.27-.18-.22-1.54-.77-1.84-.48,0-1.59.14-1.88-.32-.51-.79.1-1.66.18-2.47l-2.34,1.24-.45.04c-.68-.22.11-2.08-.92-2.59-.33-.05-.16.14-.2.33-.04.24-.12.56-.14.78-.02.46.36,1.98.02,2.22-.64.29-.8-.25-1.2-.52-.56-.39-1.03-.37-1.69-.34.94.73,1.72,1.63,1.23,2.88-.7.2-1.47.16-2.17.28-.73.13-3.07.88-3.54.73-.04-.01-.64-.66-.67-.75-.13-.37,0-.58.08-.92-.12-.13-1.17.9-1.42.99-1.22.41-.94-1.43-1.05-2.22-.03-.16-.09-.32-.26-.34-.11.51-.43.92-.62,1.4-.16.42-.39,2.23-1.14,1.47-.47-.49-.32-1.9-1.49-1.7-.04.71,1.15,2.01.85,2.61-.21.4-.85.35-1.21.49-.7.28-1.98,1.49-2.59,1.59-1.13.2-.95-1.22-1.23-1.95l-1.7,1.63c-.49.21-.59-.03-.75-.42-.25-.62-.28-1.38-.62-1.99l-.13-.12c-.42.17-.73.13-.85-.34-.12-.72.84-1.25.78-2.02-.73-.01-2.21,1.45-2.71.57-.28-.49-.02-.65-.02-.89v-1.89l-.62,1.01c-.3.42-.22,2.1-.63,2.24-.85.28-1.04-1.01-1.38-1.59-.12-.21-.21-.57-.5-.49-.1.6.92,2.86.4,3.21-.48.25-.86-.14-1.25-.21-.22-.03-.42-.03-.64-.01l.22,3.01s.1,0,.14.01c.71.23.23,2.98-.03,3.57l.84-.2c.59-.09,2.73.01,2.61.92-.17.73-.47,1.22-1.04,1.69-.6.48-2.45,1.34-3.11.89l-.25-.28.25-.6c.76-.2,1.39-.2,2.09-.64.15-.09,1.01-.77.83-.93-.51.04-1.11-.08-1.6.03-.78.16-1.23,1.16-2.03,1-.28-.47.08-.71.22-1.13.33-.98.59-1.99.54-3.03-.77.48-1.3,1.1-1.41,2.03-.05.48.21,1.88-.47,1.88-.32,0-1.08-1.41-1.37-1.76-.65-.74-1.56-1.53-2.61-1.37.5,1.75,2.17,2.48,3.38,3.59.04.2-.23.36-.37.39-.11.02-.25.01-.4-.04l-.22.65c.14.02.24.15.32.33,7.8.43,16.19-.76,24.27-1.99.02-.02.03-.05.06-.07.2-.16.46-.14.73-.05,3.97-.61,7.86-1.21,11.56-1.62-1.09-2.17-3.26-3.26-4.35-4.35"/>
        </g>
      </g>
      <g class="cls-13">
        <g>
          <path class="cls-15" d="M91.7,46.96v.78c-.46.23-.97.09-1.47.16-.58.08-1.84.73-2.23.6-.21-.08-.23-.23-.21-.42.02-.29.62-1.93.52-2.03-.32.02-.66.28-.9.47-.55.43-.91,1.51-1.58.87l-.33-2.25c-.52.34-.98,2.2-1.46,2.33-.61.17-1.07-.65-1.48-.95-.15-.11-.46-.28-.64-.27.15.5,1.49,2.36.91,2.74-.21.1-.46.1-.66,0-.32-.16-1.25-2.38-1.63-2.81-.09-.24-.1-.5-.02-.73.03-.11.09-.22.16-.3.96-.73,2.4.4,3.19,1.03.13-.64,1.21-2.4,1.78-2.59.35-.1.83.1.83.43v1.89c.65-.14,2.16-1.71,2.75-.99.32.4-.23,1.88-.27,2.43.91-.32,1.76-.48,2.73-.39"/>
          <path class="cls-14" d="M91.7,37.93v9.03c-.97-.09-1.82.08-2.73.39.04-.54.59-2.02.27-2.43-.59-.72-2.1.85-2.75.99v-1.89c0-.34-.48-.53-.83-.43-.58.18-1.65,1.95-1.78,2.59-.78-.63-2.23-1.76-3.19-1.03-.08.09-.13.19-.16.3l-1.47-.38-.39-3.45c2,.05.37-1.4-.26-2.09.71-.09,1.41-.34,2.14-.25.77.09,1.11.6,1.51-.47.26-.68.24-1.46.52-2.15l1.64,1.67.5-.24.85-1.31c.05.44-.23,1.84.46,1.84.21,0,1.12-.92,1.43-1.05.43-.17-.03.52-.04.61-.12.96,1.63.37,2.12.31.59-.09,1.64.16,1.64-.56h.52Z"/>
          <path class="cls-8" d="M83.78,33.18c.08.37.77,2.22,1.01,2.38.41.29,1.29-1.07,1.89-.47.41.41-.23,1.43-.2,1.96.09.09,1.18-.66,1.38-.76.38-.18,1.13-.57,1.46-.25.4.63-.41,1.11-.62,1.66.09.09,2-.82,2.41-.13.04.14.07.26.07.36h.51v-14.39c-2.73.26-5.46.5-8.19.71-.13,3.02-.25,6.31.28,8.94"/>
          <path class="cls-8" d="M91.7,12.44h-.15c0,.51-.58,1.72-.89,1.87-.16.08-.33.1-.51.05-.14-.17-.14-.5-.04-.85l-1.3-.07c-.12.53-.36.92-.79.78-.18-.07-.29-.34-.34-.7l-.78.03c.07.51-.01.95-.35,1.04-.47.14-.77-.15-.97-.6l-1.03.07c.12.24.15.5-.01.74l-.2.2-.58-.25c.12.67-.1,1.39-.13,2.02-.04.88-.01,1.77,0,2.66,2.69-.24,5.38-.55,8.08-.93v-6.08.02Z"/>
          <path class="cls-14" d="M83.62,19.45c.01.55.02,1.1,0,1.65-.02.98-.07,2.05-.12,3.15,2.74-.21,5.47-.44,8.19-.7v-5.02c-2.69.38-5.38.69-8.08.93"/>
          <path class="cls-8" d="M91.7-.22v12.66h-.15c0-.07-.01-.11-.03-.15l-.28-.24c-.41-.09-.96.75-1.13,1.47l-1.3-.07c.16-.77.07-1.86-.12-2.05-.1-.09-.36-.18-.49-.1-.38.18-.61,1.42-.52,2.23l-.78.03c-.09-.72-.46-1.6-.77-1.87-.18-.16-.3-.25-.58-.17-.17.05-.42.4-.45.59.1.41.2,1.29.48,1.9l-1.03.07c-.2-.38-.61-.74-.89-.96.32-3.06.16-6.16.24-9.24,0-.32.13-.59.14-.9.03-1.07-.03-2.13-.01-3.2h7.69-.02Z"/>
          <polygon class="cls-7" points="91.7 -.35 91.7 -.22 84.01 -.22 82.97 -.22 75.41 -.22 74.49 -.22 63.03 -.22 62.25 -.22 59.25 -.22 58.2 -.22 30.45 -.22 29.53 -.22 27.84 -.22 26.66 -.22 12.98 -.22 11.94 -.22 6.33 -.22 5.29 -.22 -2.92 -.22 -2.92 49.61 -2.92 94.4 -3.05 94.4 -3.05 -.35 91.7 -.35"/>
          <path class="cls-15" d="M91.12,37.57c.04.14.07.26.07.36,0,.72-1.06.47-1.64.55-.49.07-2.24.65-2.12-.3.01-.09.48-.78.04-.61-.32.13-1.23,1.04-1.44,1.05-.68,0-.4-1.4-.46-1.84l-.85,1.31-.5.24-1.64-1.67c-.28.7-.26,1.47-.52,2.15-.4,1.07-.74.55-1.51.47-.73-.09-1.44.16-2.14.25.63.68,2.26,2.14.26,2.09l.39,3.45-.53.54c.23,1.08.5,2.15.65,3.25.5,3.83.09,7.62.01,11.46-.01.6-.26.66.08,1.35.27.55.58.49.59,1.25,0,.84-.78,2.5-.47,3.19l1.75,1.3,1.11-2.09c.77-.79,1.15,1.58,1.44,1.96.25-.2.36-.5.59-.72.38-.37,1.85-1.61,2.25-1.78.52-.22,1.23,0,.95.55-.15.29-1.63,1.26-2.02,1.62-.64.58-1.16,1.26-1.78,1.87l-.43-.2-.65-2.25c-.17-.22-.7.74-.74.87-.18.45-.17.78-.2,1.25-.03.12-.21.3-.32.34-.13.02-1.02-.59-1.21-.72-.4-.27-1.54-1.53-1.44-.26.08.91.07,1.67-.02,2.61-.03.35-.13.85-.25,1.19.25.02.5-.25.74-.3.19-.03.51-.09.63.1l.07.34c-.04.42-1.37,1.27-1.6,1.79-.3.67-.17,1.68-.49,2.37l2.47-1.58.3-.02c.61.16.66.66.23,1.09-.92.9-2.71,1.68-3.45,2.8-.47.7-.39,1.87-1.62,1.48-.65-.22-1.1-1.54-1.4-2.14-.28-.04-1.31.22-1.61.34-.51.2-1.31,1.03-1.84.65-.27-.18-.22-1.55-.77-1.84-.48,0-1.59.14-1.88-.32-.51-.79.1-1.66.18-2.47l-2.34,1.24-.45.04c-.68-.22.11-2.08-.92-2.59-.33-.05-.16.14-.2.33-.04.24-.12.57-.14.78-.02.46.36,1.98.02,2.22-.64.29-.81-.25-1.2-.52-.55-.39-1.03-.37-1.69-.34.94.73,1.72,1.63,1.23,2.88-.7.2-1.47.16-2.17.28-.73.13-3.07.88-3.53.73-.04-.01-.64-.66-.67-.75-.13-.37,0-.58.08-.92-.12-.13-1.17.9-1.42.99-1.22.41-.94-1.44-1.05-2.22-.03-.16-.09-.32-.26-.34-.11.51-.43.92-.62,1.4-.16.42-.39,2.23-1.14,1.47-.47-.49-.32-1.9-1.49-1.7-.04.71,1.15,2.01.85,2.61-.21.4-.85.35-1.21.49-.7.28-1.98,1.49-2.59,1.59-1.13.2-.95-1.22-1.23-1.95l-1.7,1.63c-.49.21-.59-.03-.75-.42-.25-.62-.28-1.38-.62-1.99l-.13-.12c-.42.17-.73.13-.85-.34-.12-.72.84-1.25.78-2.02-.73-.01-2.21,1.45-2.71.57-.28-.49-.02-.65-.02-.89v-1.89l-.62,1.01c-.3.42-.22,2.1-.63,2.24-.85.28-1.04-1.01-1.38-1.59-.12-.21-.21-.57-.5-.49-.1.6.92,2.86.4,3.21-.48.25-.86-.14-1.25-.21-.22-.03-.42-.03-.64-.01-1.46.12-2.93,1.22-4.34.63-.24-.37-.6-2.17-.88-2.32-.23-.11-.21.16-.26.26-.32.59-.6,1.45-.91,1.95-.17.27-.42.36-.72.21-.66-.35-.42-2.92-1.47-2.65-.12.03-1.48.78-1.7.91-.42.26-1.04,1-1.45.88-.53-.37.04-.91.07-1.36.01-.29-.13-.67-.21-.97l-2.22,2.21-.14-.27c-.51-.04-.8.1-1.05.53-.67.21-.62-.86-.56-1.36.02-.16.46-1.02.06-.86-.18.08-1.09.74-1.16.91-.2.45.03,1.04-.1,1.48-.08.27-1.16,1.21-1.47,1.13-.26-.21-.21-.58-.29-.89-.03-.12.01-.39-.23-.28-.41.2-1.08,1.98-1.64,1.21-.25-.34-1.02-3.04-1.23-3.04-.65.62-1.4,1.27-2.32,1.42-.87-.6-.2-1.82-.67-2.6-.55.59-.58,1.48-.84,2.16-.38.95-.97-.77-1.25-1.12-.39-.48-.83-.66-1.38-.86l-.12-.38c.36-.89,1.33-.39,1.83.13.3.3.42.74.78.98.17-.48.27-1.63.51-2,.08-.12.3-.2.45-.18,1.14.3,1.26,1.58,1.25,2.58.66-.47,1.55-1.83,2.41-1.04l.59.91.38-4.69c-1.36-.12-2.56-.23-3.82-.8-.71-.33-.99-.64-1.52-1.08-.27-.22-.63-.13-.75-.7-.26-1.21,1.92-2.11,2.81-2.48,1.05-.43,1.45-.69,2.43-1.23,1.22-.68,2.31-1.03,3.74-.88-.75-2.03-1.34-4.12-1.79-6.23-.25-1.16-.79-2.11-.95-3.35-.57-4.65.24-9.69.65-14.35-.35-.99-1.23-1.51-1.5-2.67-.23-.96.41-3.85.67-4.93.46-1.87,1.29-3.2,2.36-4.26,1.77-1.79,4.19-2.88,6.55-4.58.4-1.15.78-2.33,1.2-3.47.11-.28.47-.58.03-.61-1.58-.15-.64-1.51-.11-2.34.41-.65,1.13-1.57,1.75-2.02.41-.31.8-.35,1.21-.62.77-.52,1.46-1.33,2.32-1.86.32-.2.66-.36,1.01-.48,0-.76.08-1.48.37-1.78.26-.27.71-.24,1.43.35l1.7-2.19c.59-.2.83.57.83,1.03.12.16,1.27-.65,1.53-.76.69-.28,1.66-.59,2.36-.27l.02.77c1.36-.8,2.79-.04,4.22,0,.22-.03,0-1.19.79-1.19.86.18,1.51.76,2.15,1.32l.2-1.05c1.23-1.11,2.36,1.03,3.27,1.69.37.08.73-1.22,1.52-1.13.58.12.51.52.48,1.01.95-.03,1.99-.88,2.73.08l-.77,1.48c.7.35,1.62.39,2.26.8.64.42,1.03,1.25,1.77,1.54.11-.6-.11-1.2-.13-1.75-.04-1.08.23-2.14-.13-3.13V-.22h1.04l.25,15.85c.77.6,1.73,1.34,2.12,2.25l1.67.02L62.25-.22h.78l.91,12.9,1.39-.88.17.02c.9.27.3,1.95.39,2.03.87-.25,2.9-.99,2.34.65.87-.23,1.74-.64,2.65-.5l.34.57-.51,1.11c.16.14,2.23-.8,2.35.2,0,.74-2.51.98-3.04.83-.19-.05-.42-.4-.45-.59-.03-.27.35-.87.29-1.22-.51.15-2.14.79-2.54.59-.08-.04-.22-.18-.24-.28l.37-.96c-.58-.15-1.82.89-2.2.64l-.21-1.95c-1.48,1.02-.87,2.4-.85,3.92.32.03.42-.32.68-.42.29-.13.65-.2.88.09l.11.38-2.13,1.9h-2.28l2.55,2.22c.24,1.1,1.09.84,1.91,1.21.83.36,1.82,1.38.36,1.66.15.32,1.21,1.22,1.49,1.15,1.75-2.14,2.34.9,2.29,2.36.39.02,1.53-.12,1.69.35.11.72-.46.82-.9,1.15,0,.17,2.4,1.29,2.58,2.11.08.37-.04.74.09,1.1l.59.25.2-16.48.2-16.11h.91c.2,1.57.16,3.18.14,4.76-.14,8.66.02,17.44-.27,26.06-.01.53-.09,2.14.13,2.48.22.36.9.73,1.08,1.14.17.4.01.82.16,1.13.11.22.64.61.85.85.23.29.64,1.04.82,1.21.14.12.39.11.55.29.13.15.16.52.27.52l2.14-.13c-.11-.71.54-2.86,1.36-2.86.25,0,.39.24.59.18-.15-.54-.48-1.04-.62-1.59-.71-2.83-.22-7.55-.15-10.53.13-6.61.35-13.21.52-19.8.03-1.24-.03-2.48-.01-3.72h1.04c-.02,1.07.04,2.13.01,3.2-.01.32-.14.59-.14.9-.08,3.09.08,6.19-.24,9.24.28.22.7.58.89.96.12.24.15.5-.01.74l-.19.2-.58-.25c.12.67-.1,1.39-.13,2.02-.07,1.42.04,2.87.01,4.31-.09,3.68-.57,8.51.15,12.08.08.37.77,2.22,1.01,2.38.41.29,1.29-1.07,1.89-.47.41.41-.23,1.42-.2,1.96.09.09,1.17-.66,1.38-.76.38-.18,1.13-.57,1.46-.25.4.63-.41,1.11-.62,1.66.09.09,2-.82,2.41-.13M84.27,37.05l-.67-1.09-.37-.35c-.15.33.83,1.65,1.04,1.44M78.18,64.13c.07-.33.36-1,.35-1.21,0-.17-.34-.6-.45-.85-.49-1.24.16-2.16.18-3.34.03-1.75-.03-3.73-.12-5.46-.13-2.55-.32-5.1-.72-7.62l-.72-.39c-.11.14.21,2.36-.39,2.67-1.27.64-2.52-2.34-3.45-2.94-.42-.28-.73,0-1.17,0-.37,0-.69-.13-1.04-.14-.71-.03-2.31.03-2.99.14-.52.08-1.05.75-1.57.78-.49.05-.87-.33-.86-.79-.08-.11-2.21.7-2.48.84-.88.5-1.23,1.61-2.01-.05-2.06,1.49-4.1,3.02-6.36,4.2-.33.16-1.6.84-1.98.84-.02,0-.04,0-.07,0-.25-.13-.32-.46-.17-.7,1.21-.89,2.65-1.51,3.95-2.32,1.24-.77,2.4-1.67,3.61-2.51.85-.58,1.01-.51,1.68-1.32.59-.7,1.47-1.17,2.09-1.83-.36-.9-.36-1.83-.16-2.77.11-.58.41-.73.59-1.11.27-.62.4-1.59.68-2.25h-2.02c-.39,0-1.2.88-1.71.4-.67-.53-.02-1.76-.2-1.96-.23,0-.46-.13-.7-.13-.14,0-1.1.12-1.16.14-.23.08-.09.59-.9.35-.66-.2-.4-1.08-.39-1.49,0-.21-.11-.39-.09-.62.07-.97.84-2.34,1.16-3.27l-1.08.3c-.72-.21-.15-1.58-.23-2.12-.13-.93-1.66-2.5-2.42-3.04-.26-.19-.73-.5-1.02-.54-.24-.04-.18,0-.2.2-.02.49.08,1.01-.07,1.5l-.85.51c1.51.27,2.72,2.89,2.45,4.21-.35,1.72-2.21.25-3.17.35-.36.04-.75.38-1.21.5-.62.15-1.34.17-1.98.16l-.16,1.53-1.27.29v1.82c-1.72,0-2.91-1.65-4.39-2.33l-.3.04c-1.15,1.97-1.65.03-2.69-.55-1.07-.61-2.49-.55-3.39-1.57-.57.1-.93.29-1.54.24-.48-.04-.73-.3-1.16-.4-.4.03-.68.87-1.3.87-.83,0-.97-1.17-1.33-1.24-.76.35-2.11,1.85-2.69.48-.37-.89.16-1.72.29-2.58-.26-.25-2.67,1.12-2.42-.26.2-1.03,2.93-2.47,3.83-3.02l1.21-3.82-2.14.33c-1.37-.21-.33-2.07-.47-2.21l-1.58.6c-.18.7-.38,1.39-.63,2.07-.39,1.05-.73,1.75-.92,2.86-.05.37-.75.78-1.08,1.01-1.9,1.36-4.1,2.48-5.95,3.88h-.01s-.09.1-.12.13c-.3.24-.53.69-1.01.82-.47,1.12-.87,2.16-1.14,3.35-.31,1.35-.92,3.75-.26,4.96.11.18.47.33.65.51.46.47.62.87.71,1.52-.63,4.99-1.34,10.33-.33,15.3.34,1.63.85,3.35,1.3,4.95.36,1.21,1.13,2.92,1.35,4,.05.26-.09.63-.04.7.07.1.71.53.91.77.42.47.76,1.1,1.17,1.57.75.87,2.63,2.13,1.99,3.42-.44.88-1.45.96-2.32.88l1.05,2.52.3.21c.41-.46,1.4-1.38,1.9-.59l.13.27-.26,1.62,2.25-1.15c.27.27.84.33,1.08.5.23.16.65,1.17.77,1.17,1.71-3.48,2.74-1.23,3.52,1.18,1.31-.52,2.68-1.03,4.1-.91-.37-1.05-.72-2.62.49-3.23.97-.21,1.41,1.01,1.53,1.01.32-.54,1.09-2.21,1.8-2.17l.54.23c.62.98.42,2.05.33,3.12.62-.13,2.4-1.7,2.87-.96.33.86-.11,1.83-.5,2.59.61.57.89,1.35,1.01,2.15.22-.12.43-.34.59-.52.38-.42.54-1.1,1.16-1.04.8.08.85,1.24,1.09,1.8.07.13-.02.21.22.15l2.28-1.5c-.37-.89-.97-1.99-.46-2.93.32-.3,1.79,0,2.15.21.27.16.42.6.78.58l1.02-2.17c-.11-3.02-2.22-5.64-2.68-8.48-.37-2.24-.13-4.62-.45-6.85-.21-1.48-.84-2.91-.89-4.38.54.45.93,1.46,1.17,2.14.2.55.34,1.12.45,1.67.56,2.76.26,5.49.89,8.2.22.97.68,1.86.97,2.81.42,1.44.62,2.93.97,4.37l.73.38c.36.84.42,1.81.42,2.71.22.05.26-.09.39-.2.42-.36,1.4-1.62,1.89-1.62,1.17,0,.21,2.16.25,2.86,1.23-.8,2.82-.93,4.24-1.04-.16-.95-1.33-1.05-1.53-2.04-.34-1.52,2.29-1,3.1-.82.11-.49.08-1.03.14-1.49.08-.48.22-1.63.64-1.84l.32-.08c.18.02.28.14.4.26.7.71,1.57,1.99,1.5,3,.12.14,1.29-.75,1.52-.88.54-.32,1.39-.9,1.96-.51.39.38-.31,1.52-.46,2.02-.09.3-.17.62-.16.93,1.54-.6,1.87.94,2.41,1.96.53-.49,1.29-.65,1.88-.99.32-.18.46-.61.98-.58.71.05,1,.98,1.23,1.51.08.15-.07.24.27.18.01-1.01.39-1.99.62-2.97.79-3.58.96-7.03,1.63-10.62M77.62,41.28c.24-.23.57-.08.53-.38-.32-.66-1.69-.75-1.24-1.63l.71-.83c-.49-.83-1.14-1.7-1.88-2.31-.54-.45-1.25-.36-.47-1.26-.2-.91-2.4-1.43-2.65-1.99-.2-.42.09-1.04-.18-1.38-.43-.46-2.34-1.47-2.56-1.88-.11-.19-.11-.46,0-.65l.72-.52c-.45-.15-1.35.3-1.63,0-.37-.37-.08-1.01-.05-1.49.01-.49-.1-.9-.14-1.37-.65.02-.64,1.25-1.36,1.03-.2-.07-.2-.41-.33-.59-.16-.21-.66-.42-.92-.64-.29-.26-1.32-1.21-1.27-1.55.03-.28.4-.43.37-.74l-3.08-.77-.12-.66.85-.52c-.43-.08-.65-.51-.98-.77-.46-.37-1.78-1.14-2.02-1.5-.36-.52.16-.7.12-.9-.87-1.2-2.16-2.01-3.25-3-.21-.2-.3-.48-.51-.68-.5-.47-2.71-.97-2.59-1.66l.5-1.12-1.76.52c-.53,0-.58-.53-.65-.53-.41.47-.66,1.08-1.4.89-1.05-.6-1.52-1.85-2.57-2.45-.1.42,0,1.54-.59,1.55-.74-.1-1.52-1.39-2.09-1.55-.4-.11-.18.83-.3.98-1.15.92-2.56.04-3.87.18-.47.05-1.74.9-1.99.04-.09-.3.15-1.01-.22-.96-.55.09-1.73.84-2.22,1.19-.26.18-.38.57-.77.52-.47-.04-.48-.86-.66-1.17l-.86,2.2c-.25.04-.52.03-.77-.04-.32-.1-.43-.48-.77-.47l.26.86-.12.39c-.87.41-1.62.83-2.4,1.38-.99.7-2.03,1.89-2.89,2.47-.22.15-.36-.04-.59.16-.2.17-.58.74-.73.98-.08.14-.23.19-.17.4.17.17,2.88-1.29,3.45-1.04.85.14.11,1.81.07,2.35l2.81-.78c.23.01.44.25.46.47.03.26-.25,1.51-.33,1.89-.14.71-.68,3.04-1,3.56-.07.11-.13.21-.24.28l-.78-.14-1.96,1.43c.34.13,1.55-.02,1.69.41-.07,1-1.02,1.67-.77,2.78.16.18,2.06-1.66,2.58-1.01.15.18.14.98.62,1.02.39-.01,1.07-1.35,1.75-.99.18.1.35.43.52.52.93.42,1.66-.68,2.13-.57.3.08.63.86,1.01,1.08,1.09.64,3.19.53,3.77,2.03.23-.05.18-.34.41-.43,1.3-.54,3.1,1.21,4.21,1.74l.36-1.27.88-.16c-.26-2.39.57-1.82,2.28-1.96.85-.07.73-.58,1.42-.65.83-.09,1.66.03,2.41.39.02-.57-.2-1.28-.54-1.74-.5-.65-1.51-.75-1.76-1.71,0-.28.88-1.18,1.25-1.13.09-1.87-.55-3.22,1.87-2.16.87.37,2.19,1.58,2.76,2.33.54.71,1.09,1.83.99,2.72.7-.13,1.37-.6,1.8.23l-1.67,5.06c.45,0,.92-.17,1.36-.2.55-.04,2.21-.22,2.28.46l-.26,1.1c1.2-.34,2.4-.26,3.59.13.13.05.26.04.3.22.17.49-.64,2.41-.84,3.04-.08.24-.02.5-.09.71-.05.18-.27.25-.34.43-.15.47-.14,1.45,0,1.9.11.36.76.52.58,1.14-.15.48-.54.39-.85.59-.28.2-1.5,1.08-1.66,1.27-.09.09-.24.41-.17.48.75-.27,1.48-.61,2.24-.82.43-.12,1.5-.5,1.65.13.04.17-.13.3-.05.42.85-.72,2.16-1.05,3.25-.9.32.04.58.22.93.26.74.08,1.6-.1,2.34,0,1.27.16,2.08,1.82,2.94,2.6l-.1-2.58c.85-.51,1.53.45,2.19.88l-.39-3.05c.01-.17.14-.42.25-.54M22.5,70.94c.23-.21-1.33-1.63-1.5-1.83-.67-.76-2.19-2.85-3.13-2.99-2.25-.34-3.03.98-4.8,1.71-.89.38-1.57.27-2.24,1.15-.48.62.41.88.98,1.11,3.52,1.41,5.97.01,9.29.62.41.08.85.39,1.4.23M20.8,76.93c.46.03,1.33-.64,1.28-1.09l-1.47-3.48-2.94-.51.39,4.17c.85-.67,1.86-1.47,3.03-1.28.96.86-.2,1.36-.3,2.2M17.79,78.28l-.76-4.86c-.14.14-.75.51-.78.62-.22.58-.2,1.64-.27,2.29-.09.63-.36,1.23-.25,1.9l.59-.26c.72-.08.74.74.91.78l.57-.48h0Z"/>
          <path class="cls-15" d="M88.68,11.41c.18.19.28,1.27.12,2.05-.12.53-.36.92-.79.78-.18-.07-.29-.34-.34-.7-.09-.8.14-2.05.52-2.23.13-.09.39.01.49.1"/>
          <path class="cls-15" d="M86.88,13.57c.06.51-.01.95-.35,1.04-.47.14-.77-.15-.97-.6-.28-.61-.38-1.49-.48-1.9.02-.19.27-.53.45-.59.27-.08.39.01.58.17.32.27.68,1.15.77,1.87"/>
          <path class="cls-4" d="M83.6,35.96l.67,1.09c-.22.22-1.2-1.11-1.04-1.44l.37.35Z"/>
          <path class="cls-17" d="M82.61,33.83c-.71-2.83-.22-7.55-.15-10.53.13-6.61.35-13.21.52-19.81.03-1.24-.03-2.48-.01-3.72h-3.97c.88,5.01,1.7,9.92,1.7,15.25,0-2.18-1.09,0-2.17-1.09-.67,1.68-.93,3.47-1.12,5.26.01.36.02.71-.03.97-.02.11-.05.18-.1.24-.07.66-.14,1.31-.23,1.96.04-.02.08-.04.13-.04.79,0,.34,1.49.33,1.89-.05,1.61.02,3.5-.13,5.08-.05.57-.34,1.08-.39,1.63h-.39c.01-.35-.2-.65-.25-.99-.15-.9-.12-2.77-.02-4.29-.24.71-.56,1.39-.97,2.05-.02.96-.03,1.93-.07,2.9-.01.53-.09,2.14.13,2.48.22.36.9.73,1.08,1.14.17.4.01.82.16,1.13.11.22.64.61.85.85.23.29.64,1.04.82,1.21.14.12.39.11.55.29.13.15.16.52.27.52l2.14-.13c-.11-.71.54-2.86,1.36-2.86.25,0,.39.24.59.18-.15-.54-.48-1.04-.62-1.59M78.73,29.36c.09-.53.73-1.58.96-2.17.18-.48.11-1.24.68-1.09.18.99-.16,3.05-.91,3.73-.39.36-.82.02-.73-.47M80.23,35.17c-.49-.33.36-1.04.6-1.24.14-.13.21-.32.46-.26.16.52-.39,1.94-1.05,1.5M80.72,31.74c-.31.62-1.08,2.18-1.76,1.18-.17-.57.86-1.86,1.17-2.43.34-.62.67-1.54,1.03-2.09.11-.16.16-.26.37-.22.13,1.25-.27,2.46-.82,3.56"/>
          <path class="cls-16" d="M76.46,23.97c.06-.36.19-1.4.58-1.6.09-.65.16-1.3.23-1.96-.17.22-.49.06-.65-.26-.33-.64-.07-.97-.03-1.53.02-.29,0-2.79.78-2.28.32.62.02,1.2,0,1.75-.01.32.01.73.03,1.12.2-1.79.45-3.58,1.12-5.26,1.09,1.09,2.17-1.09,2.17,1.09,0-5.32-.82-10.24-1.7-15.25h-3.59c.2,1.57.16,3.18.14,4.76-.13,7.69-.03,15.48-.21,23.16.4-.66.72-1.35.96-2.05.04-.66.1-1.27.16-1.69M77.17,11.9c.42.1.22,2.48-.33,2.09-.21-.36-.26-2.21.33-2.09"/>
          <path class="cls-15" d="M81.53,28.19c.13,1.25-.27,2.46-.82,3.56-.3.62-1.08,2.18-1.76,1.17-.17-.57.86-1.86,1.17-2.42.34-.62.67-1.55,1.03-2.09.11-.16.16-.26.37-.22"/>
          <path class="cls-15" d="M81.28,33.67c.16.52-.39,1.94-1.06,1.5-.49-.33.36-1.04.6-1.24.14-.13.21-.32.46-.26"/>
          <path class="cls-15" d="M80.37,26.1c.18.99-.16,3.05-.91,3.73-.39.36-.82.02-.73-.47.09-.53.73-1.58.96-2.17.19-.48.11-1.24.69-1.09"/>
          <path class="cls-12" d="M78.53,62.93c.01.21-.28.88-.35,1.21-.67,3.59-.84,7.04-1.63,10.62-.23.98-.61,1.96-.62,2.97-.34.05-.2-.03-.27-.18-.23-.53-.52-1.46-1.23-1.51-.52-.03-.66.39-.98.58-.59.34-1.35.5-1.88.99-.54-1.02-.87-2.56-2.41-1.96-.01-.32.08-.63.16-.93.15-.5.85-1.64.46-2.02-.57-.39-1.41.19-1.96.51-.23.13-1.4,1.02-1.52.88.07-1.01-.8-2.3-1.5-3-.12-.12-.22-.24-.4-.26l-.32.08c-.42.21-.57,1.36-.64,1.84-.07.46-.03,1-.14,1.49-.8-.18-3.44-.71-3.1.82.21.99,1.37,1.1,1.53,2.04-1.43.11-3.01.24-4.24,1.04-.04-.7.92-2.86-.25-2.86-.49,0-1.47,1.26-1.89,1.62-.13.11-.17.25-.39.2,0-.9-.07-1.87-.42-2.71l-.73-.38c-.35-1.45-.54-2.94-.97-4.37-.28-.95-.75-1.84-.97-2.81-.63-2.71-.34-5.44-.89-8.2l1.88-.39c0,.06,0,.14,0,.22.24.05.32-.13.46-.25.67-.6,1.64-1.54,2.22-2.22.33-.39,1.26-1.53,1.48-1.92.11-.18.18-.34.15-.57-.14-.13-1.3.5-1.5.65l-.68-1.07c1.01-.7,2.14-1.23,3.13-1.96.53-.39,1.28-.84,1.39-1.53-.29-.03-.54.05-.81.16-.92.37-3.81,1.93-4.89,2.87l-1.4-1.78c.38,0,1.65-.67,1.98-.84,2.26-1.17,4.31-2.71,6.36-4.2.78,1.66,1.13.55,2.01.05.27-.14,2.4-.95,2.48-.84-.01.47.37.85.86.79.51-.03,1.04-.71,1.57-.78.68-.11,2.28-.17,2.99-.14.36,0,.67.15,1.04.14.45,0,.75-.29,1.17,0,.92.6,2.18,3.58,3.45,2.94.6-.32.28-2.53.39-2.68l.72.39c.4,2.52.59,5.07.72,7.62.09,1.73.15,3.71.12,5.46-.02,1.17-.67,2.1-.18,3.34.11.25.45.67.45.85M75.41,55.36c.02-.14.01-.3-.12-.39-.74-.49-2.05,1.48-1.57,2.15.48.34,1.57-1.36,1.69-1.76M74.04,64.81c.18-.24.25-.52.18-.82l-.67-.33c-.34.04-1.46.91-1.64,1.23-.41.76.07,1.35.87.99.08-.03,1.21-.99,1.26-1.08M71.9,70.09c.24-.28,1.78-2.39.97-2.55-.3-.05-.61.5-.77.65-.41.42-1.98,1.83-2.02,2.28l.16.55c.49.49,1.33-.55,1.66-.95M68.95,69.1c.77-1.03,1.84-4.14,1.49-5.37-.1-.34-.41-.4-.64-.13-.38,1.26-.67,2.48-1.24,3.68-.32.68-.99,1.27-.82,2.09.55.23.85.24,1.21-.26M67.53,65.99c.11-.53.43-2.21.25-2.61-.14-.3-.55-.5-.82-.23-.11.23-.2.47-.26.72-.2.84-.63,2.71-.67,3.5-.01.26.05.46.13.68.72.49,1.27-1.68,1.37-2.07M65.1,66.69c.17-.49.67-2.99-.42-2.64-.15.05-.28.32-.32.47-.05.29-.2,1.52-.16,1.8.05.56.61.84.9.37M60.67,51.7c.09-.2.18-.35.14-.58-.86,0-1.32.8-1.57,1.51l.21.45c.26.04.36-.09.51-.26.15-.2.6-.89.71-1.12"/>
          <path class="cls-8" d="M60.64,23.48h.06s-.02-.02-.03-.03l-.03.02h0Z"/>
          <path class="cls-8" d="M76.91,39.27l.71-.83c-6.02-3.71-11.56-8.27-16.37-14.26-.16.19-.48.33-.62.49-.2.23-.22.64-.55.76h-.48s-.1-.08-.14-.12l-2.1.28c.54.71,1.09,1.83.99,2.72.7-.13,1.37-.6,1.81.23l-1.67,5.06c.45,0,.92-.17,1.36-.2.55-.04,2.21-.22,2.28.46l-.26,1.1c1.2-.34,2.4-.26,3.59.13.13.06.26.04.3.22.17.49-.64,2.41-.84,3.03-.08.24-.02.5-.09.71-.05.18-.27.25-.34.43-.15.47-.14,1.45,0,1.9.11.36.76.52.58,1.14-.15.48-.54.39-.85.59-.28.2-1.5,1.08-1.66,1.27-.09.09-.24.41-.17.48.75-.27,1.48-.61,2.24-.82.43-.12,1.5-.5,1.65.13.04.17-.13.3-.06.42.85-.72,2.17-1.05,3.25-.9.32.04.58.22.92.26.74.08,1.6-.1,2.34,0,1.27.16,2.08,1.82,2.94,2.6l-.1-2.58c.85-.51,1.53.45,2.19.88l-.39-3.05c.01-.17.14-.42.25-.54.24-.23.57-.08.53-.38-.32-.66-1.68-.75-1.24-1.63M68.69,42.26c-.75.22-.64-.74-.76-1.17-.08-.27-.57-1.19-.14-1.29.92-.11,1.5,2.3.9,2.47M70.88,41.84c-.29.65-.76.26-.96-.28-.16-.48-.52-1.79-.59-2.28-.03-.22-.08-.24.14-.39.89.09,1.65,2.42,1.4,2.96M73.18,41.78c-.12.37-.5.42-.76.15-.23-.23-.63-1.74-.18-1.87.65-.27,1.04,1.37.95,1.72"/>
          <path class="cls-3" d="M77.62,38.44h0c-.49-.83-1.14-1.7-1.88-2.31-.54-.45-1.25-.36-.47-1.26-.2-.91-2.4-1.43-2.65-1.99-.2-.42.09-1.04-.18-1.38-.43-.46-2.34-1.47-2.56-1.88-.11-.2-.11-.46,0-.65l.72-.52c-.45-.15-1.35.3-1.63,0-.37-.37-.08-1.01-.05-1.49.01-.49-.1-.9-.14-1.37-.65.02-.64,1.25-1.36,1.03-.2-.06-.2-.41-.33-.59-.16-.21-.66-.42-.92-.64-.29-.26-1.32-1.21-1.27-1.54.03-.28.4-.43.37-.74l-3.08-.77-1.5,1.12s.02.02.03.03c.21,0,.4.06.52.2.17.21.14.36.03.5,4.81,6,10.34,10.56,16.37,14.26"/>
          <path class="cls-15" d="M77.17,22.33c.79,0,.34,1.49.33,1.89-.05,1.61.02,3.5-.13,5.08-.05.57-.34,1.08-.39,1.63h-.39c.01-.35-.2-.65-.25-.99-.22-1.29-.07-4.6.13-5.97.07-.4.22-1.64.71-1.64"/>
          <path class="cls-15" d="M77.37,16.33c.31.62.02,1.2,0,1.75-.02.62.1,1.54,0,2.09-.09.53-.54.38-.75-.02-.33-.64-.07-.97-.03-1.53.02-.29,0-2.8.78-2.28"/>
          <path class="cls-15" d="M77.17,11.9c.42.1.22,2.48-.33,2.09-.21-.36-.26-2.21.33-2.09"/>
          <path class="cls-15" d="M75.29,54.96c.13.09.14.25.12.39-.12.4-1.21,2.1-1.69,1.76-.49-.67.83-2.64,1.57-2.15"/>
          <path class="cls-8" d="M74.49-.22l-.2,16.11h-1.23c-.12-1.01-2.19-.07-2.35-.21l.51-1.11-.34-.57c-.91-.14-1.78.27-2.65.5.57-1.64-1.47-.9-2.34-.65-.09-.09.51-1.76-.39-2.03l-.17-.02-1.39.88-.91-12.9s11.46,0,11.46,0ZM73.13,7.87c.47-.45.79-2.64-.24-2.34-.49.14-.72,1.81-.46,2.24.11.3.49.28.7.1M71.6,7.51l-.48-1.94c-.15-.11-.41-.09-.58-.04-.99.29.15,3.95,1.05,1.98M69.47,8.62c.51-.16-.04-2.44-.89-2.19-.5.15-.13,2.64.89,2.19"/>
          <path class="cls-8" d="M70.07,27.41c.39.02,1.53-.12,1.69.35.11.72-.46.82-.9,1.15,0,.17,2.4,1.29,2.58,2.11.08.37-.04.74.09,1.1l.59.25.09-7.52c-1.51.08-3.01.14-4.52.2.3.68.42,1.69.4,2.36"/>
          <path class="cls-14" d="M63.03,20.17l.98.85c.24,1.1,1.09.84,1.91,1.21.83.36,1.82,1.38.36,1.66.15.32,1.21,1.22,1.49,1.15.94-1.15,1.55-.8,1.9,0,1.51-.06,3.02-.13,4.52-.2l.06-4.8c-3.74.14-7.48.18-11.22.13"/>
          <path class="cls-8" d="M73.07,15.88c0,.74-2.51.98-3.05.83-.18-.06-.42-.4-.45-.59-.03-.27.35-.87.29-1.22-.51.15-2.14.79-2.54.59-.08-.04-.22-.18-.24-.28l.37-.96c-.58-.15-1.82.89-2.2.64l-.21-1.95c-1.48,1.02-.87,2.4-.85,3.91.32.03.42-.32.68-.42.29-.13.65-.2.88.09l.11.38-2.13,1.9h-2.28l1.57,1.37c3.74.05,7.48,0,11.22-.13l.05-4.15h-1.23,0Z"/>
          <path class="cls-15" d="M74.22,63.99c.06.29,0,.58-.19.82-.05.09-1.18,1.04-1.26,1.08-.8.36-1.28-.23-.87-.99.18-.32,1.31-1.19,1.64-1.23l.67.33h.01Z"/>
          <path class="cls-15" d="M72.9,5.53c1.03-.3.71,1.89.24,2.34-.21.18-.59.21-.7-.1-.26-.43-.03-2.1.46-2.24"/>
          <path class="cls-15" d="M72.23,40.06c.65-.27,1.04,1.37.95,1.72-.12.37-.5.42-.76.15-.23-.23-.63-1.74-.18-1.87"/>
          <path class="cls-15" d="M72.86,67.55c.82.15-.73,2.26-.97,2.55-.34.39-1.17,1.44-1.66.95l-.16-.56c.04-.46,1.61-1.86,2.02-2.28.16-.15.47-.71.77-.65"/>
          <path class="cls-15" d="M71.12,5.58l.48,1.94c-.9,1.97-2.04-1.69-1.05-1.98.16-.04.42-.07.58.04"/>
          <path class="cls-15" d="M69.48,38.88c.89.09,1.65,2.41,1.4,2.96-.29.65-.76.26-.96-.28-.16-.48-.52-1.79-.59-2.28-.03-.22-.08-.24.14-.39"/>
          <path class="cls-15" d="M70.44,63.73c.35,1.23-.72,4.34-1.49,5.37-.36.5-.65.49-1.21.26-.17-.82.5-1.41.82-2.09.57-1.2.86-2.42,1.24-3.68.23-.27.54-.21.64.13"/>
          <path class="cls-15" d="M68.58,6.44c.85-.25,1.4,2.02.89,2.19-1.02.46-1.39-2.03-.89-2.19"/>
          <path class="cls-15" d="M67.78,39.79c.92-.11,1.5,2.3.9,2.47-.75.22-.64-.74-.76-1.18-.08-.27-.57-1.18-.14-1.29"/>
          <path class="cls-15" d="M67.78,63.38c.18.4-.14,2.08-.25,2.61-.1.39-.65,2.56-1.37,2.07-.08-.23-.14-.42-.13-.69.04-.79.48-2.66.67-3.5.07-.25.15-.49.26-.72.26-.27.67-.08.82.23"/>
          <path class="cls-15" d="M65.64,94.4h-3.13l1.96-2.74c-.93-.03-1.6-.07-2.45.37-.24.12-.73.74-1.01.29-.29-.45.47-1.3.56-1.79l.49-1.73c-.5.42-1.25.97-1.63,1.49-.34.47-.29,1.18-.85,1.35-.52-.03-1.28-3.59-2.14-3.88-.08.88-.68,2.35-.52,3.19.04.21.25.34.25.52.03.93-.77.23-1.13.1-.41-.14-1.09-.2-1.52-.15-.52.07-.97.42-1.49.11-.11-.57.02-.75.53-.93.93-.35,1.78-.26,2.71.03.1-.93.35-1.99.26-2.94-.04-.5-.49-1.04-.08-1.37.61-.49,1.84.58,2.23,1.05.54.66.73,1.38,1.16,2.08.58-.54,2.13-2.05,2.87-2.09.16-.01.32-.01.46.08.77.46-.59,2.27-.82,2.84-.09.23-.08.49-.23.67.2.03.4-.12.62-.16.76-.13,1.55-.25,2.31-.02,1.95.6-.8,2.07-.97,3.06,0,.11,1.47.22,1.57.59"/>
          <path class="cls-15" d="M64.67,64.05c1.1-.35.6,2.15.42,2.64-.29.47-.85.18-.9-.37-.03-.28.11-1.51.16-1.8.03-.15.16-.41.32-.47"/>
          <path class="cls-4" d="M62.57,36.01h2.02c-.28.66-.41,1.63-.69,2.25-.17.38-.48.53-.59,1.11-.2.95-.2,1.87.16,2.77-.62.65-1.5,1.13-2.09,1.83-.66.8-.83.74-1.67,1.32-1.21.84-2.37,1.74-3.61,2.51-1.29.8-2.74,1.42-3.95,2.32-.14.24-.08.57.17.7.02,0,.04,0,.07,0l1.4,1.78c-.16.13-.28.25-.35.36-.25.35-.39.73-.34,1.16.78.09,1.24-.64,1.78-1.02.02-.02.05-.03.08-.04l.68,1.07c-.67.5-2.45,2.55-2.67,3.32-.09.26-.14.5-.14.76l-1.88.39c-.11-.55-.25-1.12-.45-1.67-.24-.68-.63-1.7-1.17-2.14l-1.27-1.43c.22,0,.42-.04.49-.27-2.51-.33-4.84-1.33-7.3-1.89-1.03-.23-2.46-.58-3.47-.7-.27-.04-.55,0-.84,0l-1.7-1.57c.02-.32,0-.61-.05-.92-.5-2.41-3.18-7.21-4.58-9.36-.09-.14-.87-1.44-1.1-1.19l-.26-.26c.05-.27-.05-.35-.18-.52-1.31-1.7-3.76-2.21-5.54-3.33-1.41-.89-2.6-2.1-3.86-3.19l-.97-.65c1.85-1.4,4.05-2.52,5.95-3.88.33-.23,1.02-.64,1.08-1.01.2-1.11.53-1.81.92-2.86.25-.67.45-1.37.63-2.07l1.58-.6c.14.14-.9,2,.47,2.21l2.14-.33-1.21,3.82c-.9.56-3.63,1.99-3.83,3.02-.25,1.38,2.16,0,2.43.26-.13.86-.66,1.68-.29,2.58.58,1.37,1.92-.13,2.69-.48.36.07.5,1.24,1.33,1.24.62,0,.9-.84,1.31-.87.43.1.68.36,1.16.4.61.05.98-.14,1.54-.24.9,1.01,2.33.96,3.39,1.57,1.03.59,1.53,2.52,2.69.55l.3-.04c1.48.67,2.68,2.34,4.39,2.33v-1.82l1.27-.29.16-1.53c.64.01,1.36-.01,1.98-.16.46-.12.85-.46,1.21-.5.96-.1,2.82,1.37,3.16-.35.27-1.32-.94-3.94-2.45-4.21l.85-.51c.14-.49.04-1.01.07-1.5,0-.2-.04-.24.2-.2.29.04.76.36,1.02.54.76.54,2.29,2.11,2.43,3.05.08.54-.49,1.91.23,2.12l1.08-.3c-.33.93-1.1,2.31-1.16,3.27-.02.23.09.41.09.62,0,.41-.27,1.3.39,1.49.82.24.67-.27.9-.35.07-.02,1.02-.13,1.16-.14.24,0,.47.12.7.13.17.19-.48,1.42.2,1.96.51.48,1.32-.4,1.71-.4M56.13,35.94c.09-.09.48-.64.39-.72-.35-.29-1.63.2-2.04.37-1.75.72-3.55,1.74-5.3,2.52-1.6.72-3.44,1.29-4.96,2.08-.9.47-.78,1.09.22.87,1.37-.29,3.68-1.28,5.08-1.83,1.69-.65,5.44-2.06,6.61-3.29M40.88,42.91c.13-.76-.7-1.26-1.1-1.83-.59-.8-1.02-1.83-1.61-2.57-.13-.15-.15-.35-.42-.29-.04.24.04.4.11.61.28.97,1.48,3.58,2.37,4.01.21.11.42.08.65.07M38.07,43.18c.17-.14.29-.33.29-.55-.03-1.33-1.95-3.67-2.84-4.72-.22-.26-1.11-1.36-1.37-1.37-.39.28,0,.93.17,1.26.65,1.25,2.12,3.42,2.97,4.6.22.29.43.62.77.78M35.97,43.44c.41-.27.14-.8,0-1.16-.47-1.28-1.71-2.88-2.67-3.85-.2-.21-.48-.47-.78-.46-.07.25.08.36.17.54.51.89,1.17,1.72,1.67,2.63.28.51.68,1.81,1.05,2.13.11.1.39.2.53.16"/>
          <path class="cls-16" d="M61.43-.22h-2.18l.15,9.43c2.55-2.86,2.79-6.09,2.03-9.43"/>
          <path class="cls-17" d="M62.25-.22h-.82c.75,3.35.51,6.58-2.03,9.43l.1,6.41c.77.6,1.73,1.34,2.12,2.25l1.67.02L62.25-.22ZM61.33,12.74l-.51.05c-.46-.96-.15-2.02-.02-3.03.61-.34.73.29.78.78.04.45.14,2.01-.25,2.2"/>
          <path class="cls-3" d="M62.05,21.67l.85-.52c-.43-.08-.65-.51-.98-.77-.46-.37-1.78-1.14-2.02-1.5-.36-.52.16-.7.12-.9-.87-1.2-2.16-2.01-3.25-3-.21-.2-.3-.48-.51-.67-.5-.47-2.71-.97-2.59-1.66l.5-1.12-1.76.52c-.53,0-.58-.53-.65-.53-.41.47-.66,1.08-1.4.89-1.05-.6-1.52-1.85-2.57-2.45-.1.42,0,1.54-.59,1.55-.74-.1-1.52-1.39-2.09-1.55-.4-.11-.18.83-.3.98-1.15.93-2.55.04-3.87.18-.47.06-1.74.9-1.99.04-.09-.3.15-1.01-.22-.96-.55.09-1.73.84-2.22,1.18-.26.18-.38.57-.77.52-.47-.04-.48-.86-.66-1.17l-.86,2.2c-.25.04-.52.03-.77-.04-.32-.1-.43-.48-.77-.47l.26.86-.12.39c-.87.41-1.62.83-2.4,1.38-.99.7-2.03,1.89-2.89,2.47-.22.15-.36-.04-.59.16-.2.17-.58.74-.73.98-.08.14-.23.2-.17.4.17.17,2.88-1.3,3.45-1.04.85.14.11,1.8.07,2.35l2.81-.78s.05.01.07.02c3.47-2,7.05-3.97,11.31-4.58-2.17,3.26-6.53,4.35-6.53,8.7,7.61-3.26,17.4-7.61,22.84-1.09.21.28.43.54.64.81l1.5-1.12-.12-.66h-.03ZM32.92,16.66c-.28.26-1,1.22-1.16,1.31-.52.25-.95-.11-.91-.65.04-.74,1.83-2.31,2.58-2.39.18-.02.52.08.62.24.4.64-.75,1.16-1.12,1.5"/>
          <path class="cls-8" d="M37.19,23.73c0-4.35,4.35-5.44,6.52-8.7-4.26.61-7.84,2.58-11.31,4.58.2.05.37.25.39.45.03.26-.25,1.51-.33,1.89-.14.71-.68,3.05-1,3.56-.07.11-.13.21-.24.28l-.78-.14-1.96,1.44c.34.13,1.55-.02,1.69.41-.07,1-1.02,1.67-.77,2.78.16.18,2.05-1.66,2.58-1.01.15.18.14.98.62,1.02.39-.01,1.07-1.35,1.75-.99.18.1.35.43.52.52.94.42,1.66-.68,2.13-.57.3.08.63.86,1.01,1.08,1.09.64,3.19.53,3.77,2.03.23-.05.18-.34.41-.43,1.29-.54,3.1,1.21,4.21,1.74l.36-1.27.88-.16c-.26-2.39.57-1.82,2.28-1.96.85-.07.73-.58,1.42-.65.83-.09,1.66.03,2.42.39.02-.57-.2-1.28-.54-1.74-.5-.65-1.51-.75-1.76-1.71,0-.28.88-1.19,1.25-1.13.09-1.87-.55-3.22,1.87-2.16.87.37,2.19,1.58,2.76,2.33l2.1-.28c-.48-.54.17-1.64.8-1.79.12-.02.25-.04.38-.04l.03-.03c-.21-.27-.43-.53-.64-.81-5.44-6.52-15.23-2.17-22.84,1.09M34.85,23.28c-.21.36-.43.84-.6,1.22-.22.54-.34,2.21-1.13,1.47-.58-.77.32-2.63.78-3.37.24-.37,1.08-1.47,1.46-1.55.17-.03.4-.07.57.04.16.13.15.3.1.5-.09.29-.92,1.27-1.17,1.7M36.39,25.73c-.28.56-.32,1.44-1.04,1.68-1.14-.79.03-3.38,1.07-3.62.23-.04.48-.07.7.03.56.37-.52,1.53-.72,1.91M39.02,29.07c-.61.62-1.39-.73-.4-1.12l.54.2c.08.21,0,.77-.14.92M43.85,27.97l-.33.34-.5-.11c-.39-.31-.88-2.38-.38-2.48.64-.13,1.36,1.76,1.21,2.25M49.45,27.58c-.11.28-.36.42-.66.34-.48-.26-.47-.85-.69-1.27-.16-.32-1.3-1.37-.63-1.57,1.07-.14,2.25,1.6,1.98,2.5"/>
          <path class="cls-15" d="M61.58,10.55c.04.45.14,2.01-.25,2.2l-.51.05c-.46-.96-.15-2.02-.02-3.03.61-.34.73.29.78.78"/>
          <path class="cls-15" d="M61.22,23.69c.42.51-.36.72-.59.99-.2.23-.22.64-.55.76h-.48s-.1-.08-.14-.12c-.48-.54.17-1.64.8-1.79.12-.02.25-.04.38-.04.23,0,.45.05.58.21"/>
          <path class="cls-15" d="M60.81,51.13c.04.23-.05.38-.14.58-.11.23-.55.92-.71,1.12-.15.17-.25.3-.51.26l-.21-.45c.25-.71.71-1.51,1.57-1.51"/>
          <path class="cls-15" d="M58.7,49.73c.26-.11.51-.2.8-.16-.11.7-.86,1.14-1.39,1.53-.99.73-2.12,1.26-3.13,1.96-.02,0-.05.02-.08.04-.54.38-1,1.11-1.78,1.02-.05-.43.09-.82.34-1.16.07-.11.18-.23.35-.36,1.09-.95,3.97-2.5,4.89-2.87"/>
          <path class="cls-8" d="M30.45-.22l-.02.95c1.17-.31,2.34-.62,3.51-.95h-3.49Z"/>
          <path class="cls-8" d="M58.2,9.88V1.35c-8.89,3.22-18.33,4.6-27.93,5.45l-.08,3.28c.48-.28,2.89-1.41,2.74-.21-.38.32-.82.57-1.28.78l.33.62c.26-.27.71-.24,1.42.35l1.7-2.19c.59-.2.83.57.83,1.03.12.16,1.27-.65,1.53-.76.68-.28,1.66-.59,2.36-.27l.02.77c1.36-.8,2.79-.04,4.22,0,.22-.03,0-1.18.79-1.18.86.17,1.51.76,2.15,1.32l.2-1.04c1.23-1.11,2.36,1.03,3.27,1.68.37.08.73-1.22,1.52-1.13.58.12.51.52.48,1.01.95-.03,1.99-.88,2.73.08l-.77,1.48c.7.35,1.62.39,2.26.8.64.42,1.03,1.25,1.77,1.54.11-.6-.11-1.2-.13-1.75-.04-1.08.23-2.14-.13-3.13"/>
          <path class="cls-14" d="M58.2-.22h-24.27c-1.17.32-2.34.64-3.51.95l-.15,6.07c9.6-.84,19.04-2.22,27.93-5.45V-.22Z"/>
          <path class="cls-15" d="M57.17,53.47c.03.23-.04.38-.15.57-.22.38-1.15,1.52-1.48,1.91-.58.67-1.54,1.62-2.22,2.22-.14.12-.22.3-.46.25,0-.08,0-.15,0-.22,0-.26.06-.5.14-.76.23-.77,2-2.82,2.67-3.32.2-.15,1.36-.78,1.5-.65"/>
          <path class="cls-15" d="M56.52,35.22c.09.08-.31.63-.39.72-1.17,1.24-4.93,2.64-6.61,3.29-1.4.54-3.71,1.53-5.08,1.83-1,.22-1.12-.4-.22-.87,1.52-.78,3.36-1.36,4.96-2.08,1.75-.78,3.54-1.8,5.3-2.52.41-.17,1.7-.66,2.05-.37"/>
          <path class="cls-20" d="M53.36,74.5l-1.02,2.18c-.36.02-.51-.41-.78-.58-.36-.21-1.84-.51-2.15-.21-.51.93.09,2.03.46,2.93l-2.28,1.5c-.24.05-.15-.02-.22-.15-.24-.55-.28-1.72-1.09-1.79-.62-.05-.78.62-1.16,1.04-.15.18-.37.4-.59.52-.12-.81-.4-1.59-1.01-2.15.39-.76.83-1.73.5-2.59-.47-.74-2.25.83-2.87.96.1-1.08.29-2.14-.33-3.12l-.54-.23c-.72-.03-1.49,1.63-1.8,2.17-.12,0-.57-1.22-1.53-1.01-1.21.61-.86,2.17-.49,3.23-1.42-.12-2.79.39-4.1.91-.78-2.4-1.82-4.66-3.52-1.18-.12,0-.54-1.01-.77-1.17-.24-.17-.8-.23-1.08-.5l-2.25,1.15.26-1.62-.13-.27c-.5-.79-1.49.13-1.9.59l-.3-.21-1.05-2.52c.87.08,1.88,0,2.32-.88.64-1.29-1.24-2.56-1.99-3.43-.41-.47-.75-1.1-1.17-1.57-.21-.24-.85-.67-.91-.77-.04-.07.1-.43.04-.7-.22-1.09-.99-2.79-1.35-4-.46-1.6-.97-3.32-1.3-4.95-1.01-4.97-.3-10.31.33-15.3-.09-.65-.25-1.05-.71-1.52-.18-.19-.54-.33-.65-.51-.66-1.21-.05-3.61.26-4.96.27-1.19.67-2.23,1.14-3.35.48-.13.71-.58,1.01-.82-.04.35.26.65.47.9,1.26,1.57,2.81,3.01,4.52,4.08l5.69,2.58.26.26c-.04.57.27,1.13.5,1.65.97,2.25,2.3,4.79,3.43,6.99.5.98.98,2.09,1.8,2.83l1.7,1.57c-.28.24.84.64.95.68,2.41.86,7.4,1.99,9.94,2.17.08,0,.15,0,.23,0l1.27,1.43c.05,1.47.68,2.9.89,4.38.32,2.23.08,4.61.45,6.85.46,2.84,2.57,5.46,2.67,8.48M34.74,53.54c.02-.42.38-.99-.07-1.37-.21,0-.39,1.38-.43,1.65-.39,2.29-.93,5.25-1.05,7.54-.03.54.05,1.01.15,1.53l.36.23c.11-.42.27-.84.36-1.27.59-2.75.59-5.52.68-8.31M32.14,70.55c.25-.27-1.15-3.87-1.16-4.5-.11-.32-.32-.51-.66-.45-.3.95.02,2.08.29,3.02.23.79.47,2.12,1.53,1.92M29.66,71.59c.55-.62-.63-3.69-.85-4.56-.28-1.14-.49-2.32-.7-3.47-.1-.5.08-1.3-.59-1.47-.5.16-.58.47-.61.95-.14,1.86.6,5.18,1.3,6.92.27.68.62,1.5,1.44,1.63M26.23,46.95c.7.3,1.45-1.78,1.34-2.12l-.45-.31c-.61,0-1.76,1.96-.89,2.43M26.39,69.76c.15-1.04-.33-2-.58-2.98-.15-.6-.09-1.98-.92-2.07-.85-.09-.75,1.3-.68,1.85.1.86.76,3.2,1.77,3.31,0,0,.41-.11.41-.11ZM25.17,43.71c.18-.53.03-1.16-.63-1.03-.58.12-1.16,1.55-1.41,2.11-.47,1.05-1.47,2.97-.43,3.87.29-.29.58-.53.78-.91.66-1.17,1.02-2.82,1.7-4.03M21.25,43.32c1.07.87,1.52-2.57.29-2.21-.59.17-.65,1.91-.29,2.21M21.66,53.88c.15-.49-.03-1.12.2-1.64-.01-.4-.22-.68-.6-.83-.51.03-.79,2.23-.45,2.64.26.39.71.25.85-.17M19.63,44.28c.11-1.27.42-2.59.34-3.85l-.42-.23c-.67-.07-.86,1.25-.94,1.75-.18,1.15-.38,2.89-.28,4.04.03.38.13.73.29,1.07.43.29.65.06.82-.36.33-.79.13-1.6.2-2.41M19.22,39.13c.05-.66.58-1.69.54-2.27,0-.21-.02-.33-.21-.46-.36-.02-.92,1.29-.97,1.64-.07.54-.07,1.32.63,1.09M19.3,57.26c.2-.17.28-.45.29-.7,0-1.37-.41-3.14-.49-4.59-.04-.89.08-1.86.01-2.74-.02-.23.04-.41-.21-.58-.21.16-.33.36-.42.61-.5,1.32-.43,6.52.36,7.67.09.12.32.36.46.33M18.45,34.1c.01-.22,0-.3-.2-.43-.77.16-1.04,1.12-1.2,1.79-.15.71-.38,2.88.13,3.38.94.59.57-1.1.62-1.73.02-.33.09-.84.14-1.15.1-.59.48-1.4.5-1.86"/>
          <path class="cls-15" d="M47.47,25.08c1.07-.14,2.25,1.6,1.98,2.5-.11.28-.36.43-.66.34-.48-.26-.47-.85-.68-1.27-.16-.32-1.3-1.37-.63-1.57"/>
          <path class="cls-15" d="M48.57,53.08c-.07.23-.27.27-.49.27-.08,0-.15,0-.23,0-2.54-.18-7.53-1.32-9.94-2.17-.11-.04-1.23-.45-.95-.69.28,0,.57-.03.84,0,1.01.12,2.44.47,3.47.7,2.46.57,4.79,1.57,7.3,1.89"/>
          <path class="cls-15" d="M42.64,25.72c.64-.13,1.36,1.76,1.21,2.25l-.33.34-.5-.11c-.39-.3-.88-2.38-.38-2.48"/>
          <path class="cls-15" d="M39.78,41.09c.4.57,1.23,1.07,1.1,1.83-.23,0-.45.04-.65-.07-.89-.43-2.09-3.05-2.37-4.01-.07-.21-.15-.37-.11-.61.27-.05.29.14.42.29.59.74,1.02,1.76,1.61,2.57"/>
          <path class="cls-15" d="M36.77,84.75c.59-.09,2.73.01,2.61.92-.17.73-.47,1.22-1.04,1.69-.6.48-2.45,1.34-3.11.89l-.25-.28.25-.6c.76-.2,1.39-.2,2.09-.64.15-.09,1.01-.77.83-.93-.51.04-1.11-.08-1.6.03-.78.16-1.23,1.16-2.03,1-.28-.47.08-.71.22-1.13.33-.98.59-1.99.54-3.03-.77.48-1.3,1.1-1.41,2.03-.05.48.21,1.88-.47,1.88-.32,0-1.08-1.41-1.37-1.76-.65-.74-1.55-1.53-2.61-1.37.5,1.75,2.16,2.48,3.38,3.59.04.2-.23.36-.37.39-.11.02-.25.01-.4-.04-.76-.23-1.91-1.18-2.28-1.59-.33-.35-1.27-1.69-1.43-2.09-.47-1.18,1.57-1.31,2.32-1.14.87.18,1.65,1.14,2.32,1.66.13-.81.7-1.5,1.29-2.02.4-.34,1.05-.84,1.6-.84.05,0,.1,0,.14.01.71.23.23,2.98-.03,3.57l.84-.2h-.03Z"/>
          <path class="cls-15" d="M39.16,28.14c.08.21,0,.77-.14.92-.61.62-1.39-.73-.4-1.12l.54.2Z"/>
          <path class="cls-15" d="M38.36,42.62c0,.23-.12.41-.29.56-.34-.16-.55-.49-.77-.78-.85-1.19-2.32-3.35-2.97-4.6-.17-.33-.57-.98-.17-1.26.26,0,1.15,1.11,1.37,1.37.89,1.05,2.81,3.39,2.84,4.72"/>
          <path class="cls-15" d="M37.1,23.82c.55.37-.52,1.53-.72,1.91-.28.56-.32,1.44-1.04,1.68-1.14-.79.03-3.38,1.07-3.62.23-.04.48-.07.7.03"/>
          <path class="cls-15" d="M35.98,42.27c.13.36.4.89,0,1.16-.14.03-.42-.07-.53-.16-.37-.33-.77-1.62-1.06-2.13-.5-.91-1.16-1.74-1.67-2.63-.1-.19-.24-.29-.17-.54.31,0,.59.25.78.46.96.97,2.2,2.57,2.67,3.85"/>
          <path class="cls-15" d="M35.93,21.09c.16.13.15.3.1.5-.09.29-.92,1.27-1.17,1.7-.21.36-.43.84-.6,1.22-.22.54-.34,2.21-1.13,1.47-.58-.77.32-2.63.78-3.37.24-.37,1.08-1.47,1.46-1.56.17-.03.4-.07.57.04"/>
          <path class="cls-6" d="M14.35,75.76l.59.91.09-1.08c-.25.04-.5.08-.74.12.02.02.04.02.06.04"/>
          <path class="cls-6" d="M28.88,89.7c.21.14.77-.62.98-.77.33-.26.73-.47,1.14-.63-1.11-.08-2.2-.2-3.28-.36.51.51.91,1.12,1.16,1.76"/>
          <path class="cls-6" d="M11.94,76.8c.26-.18.56-.5.88-.78-.31.08-.61.16-.89.25,0,.18.01.36.01.53"/>
        </g>
      </g>
      <g class="cls-5">
        <g>
          <path class="cls-6" d="M10.71,75.5c-.55.59-.58,1.48-.84,2.16.18-.38.53-.7,1.03-.96,0-.42.02-.85-.19-1.2"/>
          <path class="cls-6" d="M10,79.2c-.3-.6-.32-1.1-.14-1.51-.38.89-.96-.8-1.24-1.14-.39-.48-.83-.66-1.38-.86l-.12-.38c.36-.89,1.33-.39,1.83.13.3.3.42.74.78.98.17-.48.27-1.63.51-2,.08-.12.3-.2.45-.18.95.25,1.19,1.17,1.24,2.05.28-.09.58-.17.89-.25.47-.41.98-.7,1.48-.3.24-.04.49-.08.74-.12l.29-3.61c-1.36-.12-2.55-.23-3.82-.8-.71-.33-.99-.64-1.52-1.08-.27-.22-.63-.13-.75-.7-.26-1.21,1.92-2.11,2.81-2.48,1.05-.44,1.45-.69,2.43-1.23,1.22-.68,2.31-1.03,3.74-.88-.75-2.03-1.34-4.12-1.79-6.23-.25-1.16-.79-2.11-.95-3.35l-2.75.15c.04.15.04.34,0,.54-.17.07-.35.16-.54.13-.18-.03-.89-.26-1.1-.34-.35-.13-.77-.39-.68-.82.26-.1.59-.16.91-.17l-.08-2.17c-.18,0-.37-.02-.52,0-.53.07-2.16.38-2.53.19-.56-.38-.08-.76-.01-1.17.08-.46-.03-1.02.01-1.49-.67.45-1.13,1.15-1.32,1.94-.07.04-.55.04-.62,0-.13-.09-.38-2.51-.87-2.85-.49.7-1.41,2.21-1.37,3.06.01.35.35.8-.13,1.04-.7.36-1.01-.6-1.36-.98-.59-.64-1.89-1.65-2.3-2.27-.1-.15-.14-.26-.14-.41h-3v44.79h27.11v-.39c-.43-.99.18-1.47.85-2.09l.85-.52c-1.35-.36-2.57-2.84-2.35-4.1.01-.08.05-.13.08-.19-5.12-1.33-9.78-3.77-13.62-7.91M-.83,85.08c-.32-.4-1.28-.96-.72-1.5.97.35,2.37,1.42,2.29,2.54-.11,1.42-1.35-.74-1.58-1.04M4.98,75.11c.51-.01,1.49,1.39,1.65,1.86.12.37.24.87-.1,1.14-.12.02-.7-.33-.8-.43-.16-.15-1.02-1.48-1.11-1.69-.22-.51-.23-.82.36-.88M6.87,90.82c-.66,1.03-1.02-.96-1.24-1.38-.33-.62-1.07-1.15-.99-1.95,1.27-.04,2.94,2.21,2.23,3.33M13.77,89.51c1.49.47-.96,2.31-.92,3.2,1.22-.28,2.49-.51,3.62.16l.14.79c-.38.59-.85-.11-1.22-.17-.63-.1-1.78-.01-2.37.24-.34.13-1.7,1.17-1.45-.01.07-.36.59-1.46.77-1.84.1-.21.85-1.3.76-1.39-.71.08-1.46.49-2.01.91-.28.22-.51.6-.8.76-1.19.67-.47-1.38-.43-1.99.02-.38.1-.97-.2-1.24-.37.43-.86,2.76-1.32,2.86-1.01-.4,0-2.56.37-3.29.38-.75,1.18-2.04,1.98-1.01.23,1.09-.03,2.18-.18,3.25l1.42-.84c.52-.13,1.33-.57,1.84-.4"/>
        </g>
      </g>
      <g class="cls-11">
        <g>
          <path class="cls-14" d="M32.01,87.39c-.76-.23-1.91-1.17-2.28-1.59-.33-.35-1.27-1.69-1.44-2.09-.47-1.17,1.57-1.3,2.32-1.14.87.18,1.65,1.14,2.32,1.66.13-.8.7-1.5,1.29-2.02.4-.34,1.05-.84,1.6-.84l-.22-3.01c-1.46.12-2.93,1.22-4.34.63-.24-.37-.6-2.17-.88-2.32-.23-.11-.21.16-.26.26-.32.59-.6,1.45-.91,1.95-.17.27-.42.36-.72.21-.66-.35-.42-2.92-1.47-2.65-.12.03-1.48.78-1.7.91-.42.26-1.04,1-1.45.88-.53-.37.04-.91.07-1.36.01-.29-.13-.67-.21-.97l-2.22,2.21-.14-.27c-.51-.04-.8.1-1.05.53-.67.21-.62-.86-.55-1.36.02-.16.46-1.02.05-.86-.18.08-1.09.74-1.16.91-.2.45.03,1.04-.1,1.48-.08.27-1.16,1.21-1.47,1.13-.26-.21-.21-.58-.29-.89-.03-.12.01-.39-.23-.28-.41.2-1.08,1.98-1.64,1.21-.25-.34-1.02-3.04-1.23-3.04-.65.62-1.4,1.27-2.32,1.42-.49-.33-.49-.86-.48-1.4-.49.26-.85.58-1.03.96h0s0,.01-.01.02c-.18.42-.16.91.14,1.51,3.84,4.14,8.5,6.58,13.62,7.91.37-.76,1.89-.43,2.52-.2.59.22,1.12.58,1.58,1.03,1.08.16,2.17.27,3.28.36.27-.11.54-.2.8-.26l.22-.65v.02Z"/>
          <path class="cls-15" d="M35.21,47.99c.06.32.08.61.05.92-.83-.74-1.3-1.85-1.8-2.83-1.12-2.21-2.46-4.74-3.43-6.99-.23-.52-.54-1.09-.5-1.65.23-.25,1.01,1.04,1.1,1.19,1.4,2.15,4.08,6.95,4.58,9.36"/>
          <path class="cls-15" d="M34.68,52.17c.45.38.09.95.06,1.37-.1,2.79-.1,5.56-.68,8.31-.09.43-.25.85-.36,1.27l-.36-.23c-.1-.52-.18-.99-.15-1.53.13-2.28.66-5.24,1.05-7.54.04-.27.23-1.64.44-1.65"/>
          <path class="cls-15" d="M34.04,15.16c.4.64-.75,1.16-1.12,1.5-.28.26-1,1.22-1.16,1.31-.52.25-.95-.11-.91-.65.04-.74,1.83-2.3,2.58-2.39.18-.02.52.08.62.24"/>
          <path class="cls-15" d="M30.19,10.08c.48-.28,2.89-1.41,2.74-.21-.38.32-.82.57-1.28.78-.77.36-1.62.61-2.44.86-.6-.22-2.19-.1-2.6-.53-.38-.38-.13-1.55-.21-2.08-.78.07-1.79.45-2.33-.35-.25-.87,1.99-.79,2.46-.57l.13-8.21h1.17l-.26,10.3c.58-.01,1.12.21,1.7.13l.26-10.43h.91l-.26,10.3h0Z"/>
          <path class="cls-15" d="M31.8,88.04c.55.1.51,1.74.41,2.2-.12.58-1.07,2.1-1.7,2.08-.2,0-.46-.23-.43-.43.02-.27.88-1.04,1.09-1.52.15-.36.37-.88,0-1.16-.74.23-1.14.71-1.52,1.34-.26.43-.46,1.43-1.08,1.25l-1.38-2.65c-.62-.78-1.59-1.26-2.6-1.24.19,1.16.68,2.19,1.73,2.76.6.32,1.66.43,1.65,1.27l-2.05.63-1.73,1.46c-.43-.99.18-1.47.85-2.09l.85-.52c-1.35-.36-2.57-2.84-2.35-4.1.18-1.02,1.92-.64,2.6-.39,1.25.46,2.26,1.58,2.74,2.79.21.14.77-.62.98-.77.54-.42,1.27-.74,1.94-.89"/>
          <path class="cls-15" d="M30.98,66.05c0,.63,1.41,4.23,1.16,4.5-1.07.2-1.3-1.13-1.53-1.93-.27-.95-.6-2.08-.29-3.02.35-.07.55.13.66.45"/>
          <path class="cls-8" d="M18.2,23.5c.48-.24.99-.51,1.52-.62.18-.04.49-.15.42.16-.37.71-1.03.74-1.61,1.13-.25.17-.66.75-.9.74l-.36-.2.14-2-1.78,1.79-.45-.18-.64-1.61c-.48.9-.76,1.29-.46,2.35.08.28.97,1.91,1.17,1.93.51-.38,1.18-.36.91.42l1.47,1.62c1.77-1.79,4.19-2.88,6.55-4.58.12-.35.24-.71.36-1.06-2.04-.25-4.09-.53-6.12-.84-.13.45-.3.86-.23.94"/>
          <path class="cls-8" d="M15.79,23.11c.2-.17.5-.5.83-.83-.42-.07-.85-.14-1.27-.21.1.37.17.8.45,1.04"/>
          <path class="cls-14" d="M25.42,20.38c-1.58-.15-.64-1.51-.11-2.34.06-.1.14-.21.21-.31-4.05-.38-8.1-.78-12.15-1.15-.02,1.73,0,3.46.18,5.19.18.03.37.07.55.1l.31-.39c.64-.23.8.13.92.59.42.07.85.14,1.28.21.51-.51,1.09-1.03,1.51-.99.59.05.48.69.31,1.27,2.04.31,4.08.59,6.13.84.27-.81.54-1.62.83-2.41.11-.28.47-.58.03-.61"/>
          <path class="cls-8" d="M26.66-.22h-13.68c.02.76-.03,1.52,0,2.28.04.91.08,1.84.12,2.75,4.53-.94,9.03-1.98,13.53-3.11l.03-1.93h0Z"/>
          <path class="cls-14" d="M15.49,7.5c.24-.25.63-.07.97.28.29-.02.58-.04.88-.06-.05-.37-.04-.72.09-.89l.64.05c.14.18.32.46.47.76.51-.03,1.03-.07,1.54-.1.06-.32.16-.61.28-.73.28-.26.54-.37.77,0,.06.12.07.37.05.66,1.79-.12,3.58-.24,5.37-.37l.09-5.39c-4.5,1.13-9.01,2.17-13.53,3.11.05,1.06.09,2.11.13,3.17.72-.05,1.43-.1,2.15-.15,0-.11.02-.22.11-.35"/>
          <path class="cls-8" d="M29.21,11.52c-.6-.22-2.19-.1-2.6-.53-.38-.38-.13-1.55-.21-2.08-.78.07-1.79.45-2.33-.35-.25-.87,1.99-.79,2.46-.57v-.89c-1.77.14-3.56.26-5.36.37-.04.54-.21,1.2-.46,1.28-.14.01-.45.08-.54,0-.18-.12-.19-.7-.09-1.21-.51.03-1.03.07-1.54.1.36.75.53,1.65-.51,1.5-.31-.1-.6-.8-.69-1.42-.29.02-.58.04-.88.06.56.56.99,1.56.43,1.85-.51.21-1.01-.74-1.23-1.12-.13-.23-.28-.43-.28-.65-.72.05-1.44.1-2.15.14.06,1.59.12,3.17.15,4.75.03,1.28,0,2.56-.01,3.83,4.05.37,8.1.77,12.15,1.15.42-.61,1.01-1.32,1.54-1.71.41-.3.8-.35,1.21-.62.77-.52,1.46-1.33,2.32-1.86.32-.2.66-.36,1.01-.48,0-.76.08-1.48.37-1.78l-.33-.62c-.77.36-1.62.61-2.44.86M24.75,10.43c-.25.51-2.4,1.8-2.98,1.86-.67.09-.99-.64-.49-1.02.37-.29,3.37-1.51,3.57-1.32.02.17-.02.33-.1.48"/>
          <path class="cls-8" d="M13.63,22.46l.47-.59c-.18-.03-.37-.07-.55-.1.03.23.05.46.08.69"/>
          <path class="cls-15" d="M28.82,67.04c.22.87,1.4,3.94.85,4.56-.82-.13-1.16-.95-1.43-1.63-.71-1.74-1.45-5.06-1.3-6.92.03-.48.11-.78.61-.95.66.16.49.97.59,1.47.21,1.15.41,2.33.7,3.47"/>
          <path class="cls-17" d="M29.53-.22l-.26,10.43c-.58.08-1.12-.14-1.7-.13l.26-10.3s1.7,0,1.7,0Z"/>
          <path class="cls-15" d="M29.09,36.66c.13.17.24.25.18.52l-5.69-2.58c-1.72-1.06-3.26-2.51-4.52-4.08-.21-.25-.51-.56-.47-.9.03-.03.07-.09.12-.13h.01l.97.65c1.26,1.09,2.45,2.3,3.86,3.19,1.77,1.12,4.23,1.63,5.54,3.33"/>
          <path class="cls-15" d="M27.57,44.83c.11.34-.64,2.43-1.34,2.12-.87-.47.28-2.43.89-2.43l.45.3h0Z"/>
          <path class="cls-15" d="M25.81,66.78c.25.98.73,1.94.58,2.98l-.41.11c-1.01-.11-1.67-2.45-1.77-3.31-.07-.54-.16-1.93.69-1.85.84.09.77,1.47.92,2.07"/>
          <path class="cls-15" d="M24.54,42.67c.66-.13.82.5.63,1.03-.67,1.22-1.03,2.86-1.7,4.04-.21.38-.49.62-.78.91-1.03-.9-.03-2.82.44-3.87.25-.55.84-1.99,1.41-2.11"/>
          <path class="cls-15" d="M24.85,9.95c.02.17-.02.33-.1.48-.25.51-2.4,1.79-2.98,1.86-.67.09-.99-.64-.49-1.02.37-.29,3.37-1.51,3.57-1.32"/>
          <path class="cls-19" d="M21,69.11c.17.19,1.73,1.62,1.5,1.83-.55.16-.99-.15-1.4-.23-3.32-.61-5.76.79-9.29-.62-.57-.23-1.46-.49-.98-1.11.67-.88,1.35-.77,2.24-1.15,1.76-.73,2.55-2.04,4.8-1.71.95.14,2.46,2.23,3.13,2.99M21.13,69.92c0-.2-.16-.36-.37-.36s-.36.16-.36.36c0,.21.16.37.36.37.21,0,.37-.16.37-.37M19.2,69.76c.79.01.85-.66.53-1.26l-.5-.11c-.67.3-.64.99-.03,1.37M18.76,67.44c0-.22-.18-.39-.4-.39s-.4.17-.4.39.18.4.4.4.4-.17.4-.4M18.14,68.98c.25-.49-.6-.98-.95-.62-.63.62.6,1.3.95.62M16.69,68.07c.65-.08.8-.7.41-1.19l-.51-.1-.46.82.55.47h.01ZM15.6,69.64c.32,0,.57-.26.57-.57s-.25-.57-.57-.57-.57.25-.57.57.25.57.57.57M15.55,67.61c-.09-.4-.37-.55-.78-.43-.21.07-.48.47-.46.67.28.89,1.01.42,1.24-.24M13.01,68.29c-.9.9,1.08,1.29.87.05l-.87-.05Z"/>
          <path class="cls-6" d="M22.08,75.85c.04.45-.83,1.12-1.28,1.09.11-.84,1.26-1.34.3-2.2-1.17-.18-2.19.61-3.03,1.28l-.39-4.17,2.94.51,1.47,3.48h0Z"/>
          <path class="cls-15" d="M21.54,41.11c1.23-.36.77,3.08-.29,2.21-.36-.29-.29-2.03.29-2.21"/>
          <path class="cls-15" d="M21.86,52.23c-.23.52-.04,1.15-.2,1.64-.14.42-.59.57-.85.17-.35-.41-.07-2.61.45-2.64.38.14.59.43.6.83"/>
          <path class="cls-15" d="M21.13,6.82c.17.34-.03,1.82-.41,1.94-.14.01-.45.08-.54,0-.29-.2-.13-1.62.18-1.94.28-.26.54-.37.77,0"/>
          <path class="cls-7" d="M20.76,69.56c.21,0,.37.16.37.36,0,.21-.16.37-.37.37s-.36-.16-.36-.37.16-.36.36-.36"/>
          <path class="cls-15" d="M19.72,22.88c.18-.04.49-.15.42.16-.37.71-1.03.74-1.61,1.13-.25.17-.66.75-.9.74l-.36-.2.14-2-1.78,1.79-.45-.18-.64-1.61c-.48.9-.76,1.29-.46,2.35.08.28.97,1.91,1.17,1.93.51-.38,1.18-.36.91.42l-3.81,2.19-.54-.33-.02-.96c-.67.01-1.22,1.23-1.82.59v-2.27c-.34.07-.68.35-.96.54-.22.15-.48.33-.68.49-.28.24-.47.83-1.09.64l-.47-1.15c-.47.61-1.33,1.21-1.5,1.95h-.39c.01-.22.01-.43-.05-.65-.26-.8-1.26-2.36-1.37-3.07-.09-.55,0-1.03.65-.78l1.03,1.64c.09-1.16.38-2.32.51-3.47.75-6.54-.21-13.03-.38-19.53-.03-1.15.03-2.31,0-3.46h1.04c.03,1.24-.04,2.48-.01,3.72.2,6.82,1.22,13.58.26,20.45-.13.89-.35,1.78-.51,2.68l.78-.59.43-.04c.41.12.41.84.54,1.15.72-.68,1.6-1.33,2.59-1.53.49.09.49,1.64.48,2.05.37-.03.62-.41,1-.49.85-.18.88.48.82,1.14l1.29-.66c.27-.38-1-2.25-1.11-2.72-.05-.23.1-.4.07-.58-.88-6.29-.63-12.43-.76-18.78l-.27-5.8h1.04c.02.76-.03,1.52,0,2.28.15,3.53.33,7.12.4,10.68.07,3.24-.2,6.49.25,9.71l.78-.98c1.15-.42.76,1.1,1.37,1.63.52-.45,1.64-1.89,2.34-1.83,1.04.09-.09,2.03.08,2.22.48-.24.99-.51,1.52-.62"/>
          <path class="cls-15" d="M19.96,40.43c.09,1.26-.23,2.58-.34,3.85-.07.82.13,1.62-.2,2.42-.16.41-.38.65-.82.36-.16-.34-.26-.68-.29-1.07-.1-1.14.1-2.88.28-4.04.08-.5.26-1.82.93-1.75l.42.23h.02Z"/>
          <path class="cls-7" d="M19.73,68.49c.31.6.26,1.27-.53,1.26-.61-.38-.64-1.07.03-1.37l.5.11Z"/>
          <path class="cls-15" d="M19.77,36.86c.03.59-.49,1.61-.54,2.27-.7.23-.7-.54-.63-1.09.04-.35.61-1.66.97-1.64.18.13.21.25.21.46"/>
          <path class="cls-15" d="M19.59,56.56c-.01.25-.1.52-.29.7-.14.03-.37-.21-.46-.33-.79-1.14-.86-6.35-.36-7.67.1-.25.22-.45.42-.61.25.16.19.35.21.58.07.88-.05,1.85-.01,2.74.08,1.45.49,3.22.49,4.59"/>
          <path class="cls-15" d="M18.07,6.88c.5.61,1.42,2.47-.04,2.26-.49-.15-.93-1.85-.6-2.32l.64.05h0Z"/>
          <path class="cls-7" d="M18.35,67.05c.22,0,.4.17.4.39s-.18.4-.4.4-.4-.17-.4-.4.18-.39.4-.39"/>
          <path class="cls-15" d="M18.26,33.67c.2.13.21.22.2.44-.02.46-.4,1.27-.5,1.86-.05.32-.12.83-.14,1.15-.05.63.32,2.32-.62,1.73-.51-.5-.28-2.68-.13-3.38.15-.67.42-1.63,1.2-1.79"/>
          <path class="cls-7" d="M17.19,68.36c.35-.36,1.2.13.95.62-.35.68-1.58,0-.95-.62"/>
          <path class="cls-7" d="M17.03,73.42l.76,4.86-.57.48c-.17-.04-.2-.86-.91-.78l-.59.26c-.11-.67.16-1.27.25-1.9.08-.65.05-1.72.27-2.29.03-.11.64-.48.78-.62"/>
          <path class="cls-8" d="M-2.92,49.61H.06s0-.07,0-.11c.04-.44.6-.4.92-.26l2.34,2.14c.29-1.22.95-2.44,1.83-3.32,1.11-.51,1.24,1.59,1.3,2.28.59-.47,1.52-1.84,2.39-1.55.76.26-.35,2.24-.17,2.85,1.04-.04,2.42-.72,3.2.26.13.59-.25.65-.66.65l.08,2.17c.64-.04,1.28.11,1.41.65l2.75-.15c-.57-4.65.24-9.69.65-14.35-.35-.99-1.23-1.51-1.5-2.67-.23-.96.41-3.85.67-4.93.46-1.87,1.29-3.2,2.36-4.26l-1.47-1.62-3.81,2.19-.54-.33-.02-.96c-.67,0-1.22,1.23-1.82.59v-2.27c-.34.07-.68.35-.96.54-.22.15-.48.33-.68.49-.28.24-.47.83-1.09.64l-.47-1.15c-.47.61-1.33,1.21-1.5,1.95h-.39c.01-.22.01-.43-.05-.65-.26-.81-1.26-2.36-1.37-3.07-.09-.55,0-1.03.65-.78l1.03,1.64c.09-1.16.38-2.32.51-3.47.09-.83.16-1.66.21-2.48-2.94-.62-5.88-1.31-8.8-2.07v31.41ZM1.21,25.21c.88-.22,1.95,1.83,1.13,2.07-.39.11-.95-1.03-1.41-1.16l-.04-.57c.03-.13.2-.3.33-.34"/>
          <path class="cls-14" d="M5.93,15.92c-2.95-.25-5.9-.48-8.85-.68v2.98C0,18.98,2.94,19.66,5.88,20.29c.08-1.46.08-2.91.05-4.37"/>
          <path class="cls-8" d="M5.29,3.24c-.03-1.15.03-2.31,0-3.46H-2.92V7.8c2.8-.46,5.57-.95,8.34-1.47-.06-1.03-.1-2.06-.13-3.09"/>
          <path class="cls-14" d="M5.42,6.33c-2.77.52-5.55,1.01-8.34,1.47v1.76c2.8-.39,5.63-.71,8.48-.97-.05-.75-.1-1.51-.14-2.26"/>
          <path class="cls-8" d="M-2.92,9.56v5.68c2.95.2,5.9.43,8.85.68-.05-2.45-.22-4.89-.37-7.33-2.85.26-5.67.57-8.48.97"/>
          <path class="cls-7" d="M17.1,66.88c.39.49.24,1.11-.41,1.19l-.55-.47.46-.82.51.1h-.01Z"/>
        </g>
      </g>
      <g class="cls-1">
        <g>
          <path class="cls-15" d="M15.49,7.5c.64-.65,2.29,1.66,1.4,2.12-.51.21-1.01-.74-1.23-1.12-.2-.35-.46-.62-.17-1"/>
          <path class="cls-15" d="M16.47,92.87l.14.79c-.38.59-.85-.11-1.22-.17-.63-.1-1.78-.01-2.37.24-.34.13-1.7,1.18-1.45-.01.07-.36.59-1.46.77-1.84.1-.21.85-1.3.76-1.39-.71.08-1.46.49-2.01.91-.28.22-.51.6-.8.76-1.19.67-.47-1.38-.44-1.99.02-.38.1-.97-.2-1.24-.37.43-.86,2.76-1.32,2.86-1.01-.4,0-2.56.37-3.28.38-.75,1.18-2.04,1.98-1.01.23,1.09-.03,2.17-.18,3.25l1.42-.84c.52-.13,1.33-.57,1.84-.4,1.49.47-.96,2.31-.92,3.2,1.22-.28,2.49-.51,3.62.16"/>
        </g>
      </g>
      <g class="cls-2">
        <g>
          <path class="cls-7" d="M16.17,69.07c0,.31-.25.57-.57.57s-.57-.26-.57-.57.25-.57.57-.57.57.25.57.57"/>
          <path class="cls-7" d="M14.76,67.18c.41-.12.7.03.78.44-.23.66-.96,1.13-1.24.24-.02-.21.25-.61.46-.67"/>
          <path class="cls-17" d="M12.9,24.94c-.05-.23.1-.4.07-.58-.88-6.29-.63-12.43-.76-18.78l-.27-5.8h-1.38c-.43,4.55-.92,9.21-2.17,13.66l.16,2.37-.64-.22.03-.67c-.28.88-.61,1.74-.97,2.6,0,2.13-.09,4.27-.39,6.42-.13.89-.35,1.78-.51,2.68l.78-.59.43-.04c.41.12.41.84.54,1.15.72-.68,1.6-1.33,2.59-1.53.49.09.49,1.64.48,2.06.37-.03.62-.41,1-.49.85-.18.88.48.82,1.14l1.29-.66c.27-.38-1-2.25-1.11-2.72M8.53,22.12c-.08.61-.2,2.27-.94,2.26-.18-.04-.32-.08-.39-.26-.29-.72.25-2.13.39-2.94.14-.76.17-1.66.36-2.38.07-.24.14-.57.47-.51.39,1.24.28,2.54.11,3.83"/>
          <path class="cls-16" d="M8.03,13.2l.36.23h0c1.25-4.44,1.74-9.1,2.17-13.65h-4.22c.03,1.24-.04,2.48-.01,3.72.13,4.68.65,9.34.65,14.03.36-.86.68-1.72.97-2.6l.09-1.73h0Z"/>
          <path class="cls-7" d="M13.88,68.34c.21,1.24-1.77.85-.87-.05l.87.05Z"/>
          <path class="cls-15" d="M12.71,55.39c.04.15.04.34,0,.54-.17.07-.35.16-.54.13-.18-.03-.89-.26-1.1-.34-.35-.13-.77-.39-.68-.82.26-.1.59-.16.91-.17.64-.04,1.28.11,1.41.65"/>
          <path class="cls-15" d="M11.88,51.91c.13.59-.25.65-.66.65-.18,0-.37-.02-.52,0-.53.07-2.16.38-2.53.2-.57-.38-.08-.76-.01-1.17.08-.46-.03-1.02.01-1.49-.67.45-1.13,1.15-1.32,1.94-.07.04-.55.04-.62,0-.13-.09-.38-2.51-.87-2.85-.49.7-1.41,2.21-1.37,3.06.01.35.35.8-.13,1.04-.7.36-1.01-.6-1.36-.98-.59-.64-1.89-1.65-2.29-2.27-.1-.15-.14-.26-.14-.41,0-.03,0-.07,0-.11.04-.43.6-.4.92-.26l2.34,2.14c.29-1.22.95-2.44,1.83-3.32,1.11-.51,1.24,1.59,1.3,2.28.59-.47,1.52-1.84,2.39-1.56.76.26-.35,2.24-.18,2.85,1.05-.04,2.43-.72,3.2.26"/>
          <path class="cls-15" d="M8.42,18.29c.39,1.24.28,2.55.11,3.83-.08.61-.2,2.27-.94,2.26-.18-.04-.32-.08-.39-.26-.29-.72.25-2.13.39-2.94.14-.76.17-1.66.36-2.38.07-.24.14-.57.47-.51"/>
          <polygon class="cls-15" points="8.39 13.43 8.55 15.81 7.91 15.59 8.03 13.2 8.39 13.43"/>
          <path class="cls-15" d="M4.64,87.49c1.27-.04,2.94,2.21,2.23,3.33-.66,1.03-1.02-.96-1.24-1.38-.33-.62-1.07-1.15-.99-1.95"/>
          <path class="cls-15" d="M6.63,76.97c.12.37.24.87-.1,1.14-.12.02-.7-.33-.8-.44-.16-.15-1.02-1.48-1.11-1.69-.22-.51-.23-.82.36-.88.51-.01,1.49,1.39,1.65,1.86"/>
          <path class="cls-15" d="M1.21,25.21c.88-.22,1.95,1.83,1.13,2.07-.39.11-.95-1.03-1.41-1.16l-.04-.57c.03-.13.2-.3.33-.34"/>
          <path class="cls-15" d="M-1.55,83.58c.97.35,2.37,1.43,2.29,2.55-.11,1.42-1.35-.74-1.58-1.04-.32-.4-1.28-.96-.72-1.5"/>
        </g>
      </g>
    </g>
  </g>
</svg>