<?xml version="1.0" encoding="UTF-8"?>
<svg id="Layer_1" data-name="Layer 1" xmlns="http://www.w3.org/2000/svg" xmlns:xlink="http://www.w3.org/1999/xlink" viewBox="0 0 90 90">
  <defs>
    <style>
      .cls-1 {
        fill: #c0bbbb;
      }

      .cls-2 {
        clip-path: url(#clippath-6);
      }

      .cls-3 {
        clip-path: url(#clippath-7);
      }

      .cls-4 {
        fill: #abe0f9;
      }

      .cls-5 {
        clip-path: url(#clippath-4);
      }

      .cls-6 {
        fill: #a3af65;
      }

      .cls-7 {
        clip-path: url(#clippath-9);
      }

      .cls-8 {
        clip-path: url(#clippath-10);
      }

      .cls-9 {
        fill: none;
      }

      .cls-10 {
        clip-path: url(#clippath-1);
      }

      .cls-11 {
        fill: #919d5f;
      }

      .cls-12 {
        clip-path: url(#clippath-5);
      }

      .cls-13 {
        fill: #828d53;
      }

      .cls-14 {
        clip-path: url(#clippath-8);
      }

      .cls-15 {
        fill: #a8dcf3;
      }

      .cls-16 {
        clip-path: url(#clippath-3);
      }

      .cls-17 {
        fill: #727849;
      }

      .cls-18 {
        fill: #663925;
      }

      .cls-19 {
        fill: #efecea;
      }

      .cls-20 {
        fill: #b7c471;
      }

      .cls-21 {
        fill: #986749;
      }

      .cls-22 {
        fill: #dab399;
      }

      .cls-23 {
        clip-path: url(#clippath-2);
      }

      .cls-24 {
        clip-path: url(#clippath);
      }
    </style>
    <clipPath id="clippath">
      <rect class="cls-9" x="0" width="90" height="90"/>
    </clipPath>
    <clipPath id="clippath-1">
      <rect class="cls-9" x="-2.18" y="-.35" width="94.35" height="90.71"/>
    </clipPath>
    <clipPath id="clippath-2">
      <rect class="cls-9" x="-2.18" y="-.35" width="94.35" height="90.71"/>
    </clipPath>
    <clipPath id="clippath-3">
      <rect class="cls-9" x="-2.18" y="-.35" width="94.35" height="90.71"/>
    </clipPath>
    <clipPath id="clippath-4">
      <rect class="cls-9" x="-2.18" y="-.35" width="94.35" height="90.71"/>
    </clipPath>
    <clipPath id="clippath-5">
      <rect class="cls-9" x="-2.18" y="-.35" width="94.35" height="90.71"/>
    </clipPath>
    <clipPath id="clippath-6">
      <rect class="cls-9" x="-2.18" y="-.35" width="94.35" height="90.71"/>
    </clipPath>
    <clipPath id="clippath-7">
      <rect class="cls-9" x="-2.18" y="-.35" width="94.35" height="90.71"/>
    </clipPath>
    <clipPath id="clippath-8">
      <rect class="cls-9" x="-2.18" y="-.35" width="94.35" height="90.71"/>
    </clipPath>
    <clipPath id="clippath-9">
      <rect class="cls-9" x="-2.18" y="-.35" width="94.35" height="90.71"/>
    </clipPath>
    <clipPath id="clippath-10">
      <rect class="cls-9" x="-2.18" y="-.35" width="94.35" height="90.71"/>
    </clipPath>
  </defs>
  <g class="cls-24">
    <g>
      <g class="cls-10">
        <g>
          <path class="cls-21" d="M69.47,26v53.17s-.9.17-.91.08c0,0,.03-42.66.01-42.84-.34-2.12.1-5.57.12-7.8.01-.47-.54-3.12.43-2.9.1.02.35.26.35.29"/>
          <path class="cls-6" d="M92.35,93.96c.02.13-.1.45-.21.45h-21.43c2.02-2.13,4.33-3.92,6.87-5.32.03,0,.07,0,.1-.02,0,.01.02,0,.03,0,.03-.01.07-.03.1-.07.03-.02.06-.05.09-.1.56-.32,1.15-.61,1.73-.88v.07c-.01.55.13,1.04.44,1.37.03.01.07.01.09.01.03,0,.08-.01.11-.02.16-.07.29-.29.39-.59.02-.09.04-.17.07-.27.01-.04.02-.09.03-.13.02-.08.03-.16.05-.24.04-.28.09-.54.12-.75.81-.34,1.64-.64,2.49-.9-.04.05-.09.1-.13.15-.13.14-.25.28-.35.43-.08.09-.13.16-.18.25-.02.02-.03.04-.03.05-.15.21-.27.41-.36.62-.1.2-.16.39-.19.57-.01.02-.01.03-.01.05-.07.36.02.66.3.84.57.36,1.05-1.3,1.38-1.75.01-.02.04-.05.09-.1l.12-.12c.34-.36,1-1.03,1.26-1.52,1.42-.35,2.87-.6,4.34-.75-2.17-4.34-8.66-2.17-9.75-7.6,4.01-.8,8-2.19,12.44-2.87,0,6.38,0,12.75.01,19.14"/>
        </g>
      </g>
      <g class="cls-23">
        <g>
          <path class="cls-4" d="M92.35,33.94v16.03c0,.23-.14.41-.14.43-1.55-1.44-3.37-3.24-4.22-5.2-.16-.39-.2-.99-.39-1.29-.16-.25-1.1-.95-1.43-1.3-4.78-5.3-6.68-13.21-7.44-20.15-.86-.87-1.69-1.76-2.49-2.68-1.32-1.55-2.53-3.18-3.57-4.94,4.62,1.97,9.73,2.6,14.82,2.03-3.89,6.83.1,12.78,4.87,17.07"/>
          <path class="cls-19" d="M92.34-.35c-.01,11.43,0,22.86.01,34.29-4.78-4.29-8.76-10.24-4.87-17.07-5.09.57-10.19-.07-14.82-2.03-.17-.29-.37-.57-.53-.87-2.39-4.41-4.09-9.47-5.39-14.32,0,0,25.6,0,25.6,0Z"/>
        </g>
      </g>
      <g class="cls-16">
        <g>
          <path class="cls-20" d="M92.34,62.91v11.91c-4.44.67-8.44,2.06-12.44,2.87,1.08,5.43,7.58,3.26,9.75,7.6-1.47.15-2.92.4-4.34.75.04-.07.07-.13.08-.18.02-.05.03-.11.03-.15,0-.16-.11-.26-.39-.26-.14,0-.31.07-.51.2-.06.03-.13.08-.2.13-.1.06-.2.14-.29.23-.12.1-.25.21-.37.34-.08.07-.15.15-.22.23h-.01c-.85.26-1.68.57-2.49.9.01-.09.03-.16.04-.22.14-.47.3-.88.52-1.3.27-.53,1.58-2.02,1.61-2.3.03-.33-.31-.3-.54-.27-.09.01-.17.03-.25.07-.24.08-.5.25-.74.47,0,0-.01,0-.02.02-.09.07-.17.15-.25.25-.17.17-.34.38-.48.6-.25.35-.48.74-.65,1.15-.1.2-.18.4-.25.61-.04.11-.08.21-.1.32-.02.05-.03.11-.04.15-.03.13-.06.25-.09.38-.03.17-.05.35-.06.5-.01.04-.01.1-.01.14-.59.27-1.17.57-1.73.88.51-.86-.42-4.66-1.47-4.39-.18.05-.17.23-.14.39.11.6.4,1.33.54,1.94.01.03.01.09.02.14.01.07.02.14.03.22.01.16.03.35.07.53.01.13.03.25.07.38.01.07.02.13.04.2.03.16.09.32.15.43.03.09.08.15.14.21.07.08.14.13.24.13-2.53,1.4-4.84,3.19-6.87,5.32h-11.62c4.07-2.43,8.83-3.96,13.22-5.85-4.33,1.09-7.58-3.26-11.91,0,.13-.34.28-.66.42-1,.1-.13.22-.26.35-.38.1-.11.21-.21.31-.3.27-.25.55-.48.84-.72.27-.22,1.48-.77,1.16-1.24-.09-.12-.25-.15-.46-.13-.03,0-.08,0-.12.01-.24.05-.51.15-.71.24-.05.02-.11.04-.15.07.88-1.51,1.92-2.9,3.11-4.19.01.12.08.21.18.26.05.03.11.05.17.07.07.02.15.03.25.03,1.72-.02,3.54-.89,5.59-.78.67.03,2.99.62,3.36.5.15-.04.23-.15.23-.3-.01-.88-3.79-1.74-4.56-1.5v-2.52c3.47-2.09,7.47-3.31,11.69-3.31-3.56-.89-7.86-1.08-11.69-2.31v-2.64c1.79-.91,3.86-1.37,5.92-1.75.01.01.01.02.02.02.08.12.26.18.49.2.53.05,1.32-.09,1.61-.05h.01c.01-.1.01-.18-.01-.26,0-.02,0-.04-.02-.07,0-.07-.03-.13-.08-.18.91-.16,1.81-.34,2.65-.55h.3v3.06c-.12.35-.83.18-1.19.25-.73.14-1.55.51-1.79,1.27.46-.01.91.02,1.37,0,.4-.02,1.69-.32,1.95-.26.39.08-.12.53-.04.82.17.71,1.55,0,2.12-.04.74-.04,2.15.38,2.58.28.31-.09.13-.77-.03-.96-.66-.79-2.77-.15-2.97-.84l-.16-7.72c.85-.03,1.69.02,2.52.15.56.08,3.11.6,3.5.79.77.38-.14,1.87.83,2.02.93.15.65-1.21.68-1.79l1.69.13v-.05ZM88.65,68.26c.51-.73-.93-1.62-1.8-1.41-.5.11-1.33,1.09-.75,1.35.36.15.8-.25,1.23-.22.38.02.96.76,1.31.28M79.28,86.08c.62-.14.48-3.62-.77-3.25-.39.12-.02.61.02.87.08.46.12,2.52.75,2.38M75.46,89.66c.86-.62-.61-4.33-2.22-3.71-.03.78.75.99,1.06,1.74.21.46.35,2.56,1.16,1.98"/>
          <path class="cls-18" d="M92.34,61.61v1.3l-1.69-.13c-.03.59.25,1.94-.68,1.79-.98-.15-.07-1.64-.83-2.02-.39-.2-2.93-.72-3.5-.79-.83-.13-1.68-.18-2.52-.15l.16,7.72c.2.68,2.31.04,2.97.84.16.18.35.87.03.96-.43.1-1.84-.33-2.58-.28-.57.04-1.95.75-2.12.04-.07-.28.43-.74.04-.81-.26-.05-1.55.24-1.95.26-.46.02-.91-.01-1.37,0,.24-.76,1.06-1.13,1.79-1.27.36-.07,1.07.1,1.18-.25v-3.06l.03-4.33c-2.49-.13-4.99-.04-7.48-.05-.58,0-1.15-.17-1.82-.14-.51.02-1.12.17-1.62.26v17.7c.77-.24,4.55.62,4.56,1.5,0,.15-.08.26-.23.3-.37.12-2.69-.47-3.36-.5-2.05-.11-3.87.76-5.59.78-.1,0-.17-.01-.25-.03-.07-.01-.13-.04-.17-.07-.1-.06-.15-.16-.17-.27-.01-.09,0-.17.04-.27.02-.08.08-.16.14-.24.12-.15.31-.27.54-.37.07-.02.13-.06.21-.08.25-.1.53-.17.8-.25.18-.05.36-.11.52-.16.13-.03.24-.08.35-.13.11-.04.2-.1.27-.15v-17.77c-1.17-.43-2.39,0-3.56,0-1.26,0-2.44-.14-3.77-.13-.54,0-3.07-.12-3.26.12-.21.27.04.58-.65.53-.67-.04-.5-.63-.66-.67-.96,0-1.89-.12-2.85-.13-.53,0-1.04,0-1.56,0-.4,0-.78.37-1.17.37-.45,0-.73-.4-1.06-.47-.64-.14-1.52,0-2.19-.29-.09,0,.04,1.35-.76,1.27-.83-.08-.54-1.22-.61-1.27-.2-.21-3.32.62-3.9.26v2.09h2.27c.38,0,1.91.61,1.88,1.17h-4.16v2.6c0,.07,1.03.26.91.78-1.3.28-2.57-.04-3.87.36-.54.16-2.25,1.29-1.98-.15.18-.96,1.82-1,1.82-1.12v-5.46l-4.68.26c.15.54-.21,1.29-.13,1.75.03.21.72,1.15.88,1.6.28.78.49,1.41,0,2.16-.11.16-.37.38-.51.55-.03.02-.05.04-.07.08-.02.02-.03.04-.03.07,0,.07.02.17.08.32.04.12.09.26.12.38.02.08.04.14.04.19.1.91-.24,1.62-.91,2.22.54.38,1.32.7,1.3,1.5-1.73-.24-3.46-.72-5.25-.51-.91.11-1.81.71-2.81.51-.09-.54.55-.82.5-1.34-.01-.11-.24-1.25-.26-1.31-.07-.18-.35-.25-.48-.43-.43-.62-.6-1.23-.54-2-.92.05-1.87.07-2.79.13-.52.04-3.64.79-2.81-.59.34-.54,1.19-.35,1.3-.66.05-.16.1-2.79,0-2.9-.69-.08-1.22-.53-1.91-.63-2.56-.38-5.49,1.53-8.09,1.01v8.97c.67-.01,2.63.67,2.82,1.3.31,1.11-2.35.07-2.76.02-.51-.05-1.3-.05-1.81-.01-.91.08-3.64,1.23-4.16.78-.87-.76,1.61-1.7,2.14-1.7v-9.89c-.41-.04-.78.1-1.17.2-.35.09-2.2.69-2.38.83-.18.13-.02.89-.54.93-.62-.2-3.14-.91-3.58-.6-.13.1-.37,2.65-1.08,3.2-.31.24-.74.01-.7-.32.02-.21.49-.69.57-1.12.31-1.48-.38-2.09-.35-2.8,0-.07.42,0,.25-.5-.1-.27-.4-.27-.5-.43-.35-.54.14-.83.23-1.32.09-.46,0-2.11-.37-2.37-.12-.09-.57.15-.77.12v-2.47c.31.09.32.6.52.72.17.1.44.03.65.13.73.33,1.3,2.08,1.31,2.86,0,.62-.31,1.33-.27,1.81,0,.13.31.88.39.92.2.13.87.04,1.2.1.4.07,2.11.61,2.23.59.07-.01.95-.83,1.2-.99.89-.55,2.12-.97,3.16-.93v-21.81l-.26-1.49c-.76.64-2.07,1.96-3.16,1.68-.09-.02-.08-.22-.17-.25-.18-.04-.41.03-.6-.03-1.59-.54-1.95-2.93-2.05-4.4-.75.68-1.22,1-2.24.63-1.13-.41-1.4-1.38-1.92-2.32v-3.25c1.53-.48,1.06.87,1.17,1.75.12.85.48,2.48,1.36,2.82,1.16.45,1.35-3.06,2.32-2.99.78.08.43,1.98.48,2.64.09,1.08.24,2.68.86,3.57.11.16.79.86.93.9.7.2,1.92-1.17,2.18-1.8.31-.76.19-1.8,1.08-1.98v-8.16c-3.49-.47-6.97-1.07-10.38-1.97v-1.17c3.4.97,6.91,1.46,10.4,1.94v-3.12c-4.05-1.79-7.41-4.81-10.37-8.07,0-.41-.11-1,.13-1.3.1.21.7.88.91,1.11,2.53,2.89,5.89,5.45,9.36,7.09V5.97s.18-.19.13-.33l-10.53-.13v-1.04l9.88-.07c-.11-.3-1.12-1.18-1.36-1.23H-2.27c0-.47.13-.98.13-1.32h7.02c.07-.22-.1-.26-.19-.39-.46-.59-1.22-1.12-1.62-1.81h1.04c.62.56,1.71,2.19,2.54,2.34h11.69c1.09.11,1.21,1.27,1.1,2.16-.07.61-.56,1.14-.64,1.55-.14.72-.15,3.44-.14,4.3,0,.62,1.85,3.51,2.32,4.19,1.96,2.89,4.45,5.51,7.36,7.45h17.48c-.03.24-.13.46-.13.71-.07,1.9-.41,4.2-.21,6.06.08.67.77,2.41,1.05,3.12,1.33,3.3,3.42,6.69,6.4,8.7,1.97.2,4.15-.15,6.09.02,1.68.15.9,2.19,1.16,3.39.56,2.63,3.78,5.13,6.39,5.45.26.03,1.47.22,1.47-.04v-11.59c-.92-1.52-2.1-2.86-3.04-4.37-1.49-2.42-2.54-4.95-3.39-7.67-.31-.39-.86-.16-1.24-.34-.8-.35-.49-2.09-.44-2.79-.44-.16-.88-.35-1.31-.54-.09-.03-.18-.07-.27-.12-.38-.16-.76-.35-1.13-.53-.54-.27-1.07-.55-1.6-.87-.35-.2-.69-.4-1.04-.62-.29-.18-.59-.38-.88-.58-.3-.21-.61-.41-.9-.63-.22-.15-.43-.32-.64-.48-.4-.29-.79-.6-1.17-.91-.25-.21-.5-.42-.75-.64-.57-.5-1.14-1.01-1.69-1.54-.36-.36-.73-.72-1.07-1.09-.71-.73-1.4-1.49-2.05-2.26-.34-.39-.65-.78-.98-1.18-.22-.27-.43-.54-.65-.83-.17-.23-.35-.46-.51-.68-.53-.71-1.04-1.42-1.54-2.15-1.46-2.15-2.91-4.46-3.88-6.86.23,0,.76-.13,1.17-.13.18.37.37.75.56,1.12.16.3.32.62.5.92,1.28,2.37,2.75,4.68,4.42,6.85.23.32.46.62.71.92,1.45,1.82,3.04,3.55,4.74,5.12h0c.42.41.86.79,1.3,1.16.87.75,1.78,1.46,2.71,2.12h0c.47.34.94.66,1.42.97,1.84,1.18,3.8,2.2,5.71,3.27.81.73.05,1.65,1.36,1.76,1.34.12,2.73-.14,4.05-.12.34,0,1.32.33,1.55,0,.04-.07.23-1.5.17-1.56-.02-.04-.74-.31-.93-.42-2.93-1.74-5.82-4.53-7.89-7.21-.41-.53-.81-1.06-1.19-1.62-.23-.32-.44-.63-.65-.96-.21-.29-.4-.59-.59-.88-.35-.53-.67-1.08-.99-1.62-.27-.46-.54-.91-.79-1.38-.18-.35-.38-.71-.56-1.07-.51-.96-.99-1.93-1.43-2.92-.22-.46-.42-.91-.61-1.37-.19-.4-.37-.81-.52-1.23-.27-.62-.51-1.24-.75-1.86.39,0,.81.13,1.04.13.22.57.43,1.13.67,1.68.17.43.36.86.55,1.28.14.33.28.65.44.98.79,1.73,1.68,3.42,2.64,5.05.17.28.34.55.51.84.02.05.07.11.1.16.17.28.35.57.54.85.27.43.56.87.87,1.29.29.42.6.85.9,1.26,1.83,2.43,3.87,4.47,6.23,6.39.9.72,3.03,1.96,3.65,2.73.32.39.23,1.36.43,1.52.43.3,6.35-.12,7.34.05-.04-.3.35-1.59.28-1.69-.09-.13-.78-.52-.99-.72-.25-.24-.51-.48-.75-.74-1.26-1.3-2.37-2.87-3.38-4.54-.35-.58-.67-1.15-.99-1.75-.02-.04-.04-.09-.07-.13-1.05-1.98-1.94-4.05-2.69-6.02-.14-.36-.27-.71-.4-1.05-.11-.29-.22-.59-.31-.87-.77-2.18-1.5-4.42-1.95-6.7h.65c1.3,4.84,3,9.91,5.39,14.32,1.14,2.11,2.54,4.02,4.1,5.81.8.92,1.63,1.81,2.49,2.68.76,6.94,2.66,14.85,7.44,20.15.32.36,1.27,1.05,1.43,1.3.19.3.23.9.39,1.29.86,1.97,2.67,3.76,4.22,5.2,0,.46.13,1.12.13,1.69-.37.08-1.54-.18-1.67.22.16,1.19-.3,8.55.03,9.04.21.29,1.27-.04,1.64.25M89.94,51.06c.62.09,1.39-.05,2.01,0-1.61-1.71-3.37-3.36-4.31-5.57-1.25.29-2.57-.18-3.81-.02-.15.02-.26-.05-.19.2.14.44,1.88,2.2,2.34,2.61.7.63,3.18,2.68,3.96,2.79M89.35,61.22v-9.11c-.46-.07-1.41.17-1.7-.18-.11-.14-.06-.43-.19-.47-.3-.09-1.06.03-1.52-.03-1.08-.14-1.91-.89-2.69-1.08-.13-.03-.25.05-.27.13v4.69c0,.27,1.25.85,1.57,1.16.52.52,1.06,1.49,1.15,2.24.08.67-.09,1.24-.07,1.88l3.71.77h0ZM88.31,50.67c.07-.3-.03-.21-.16-.29-2.37-1.52-3.12-2.08-4.86-4.35-.09-.11,0-.24-.3-.16v3.45c0,.26,2.59,1.36,2.93,1.36h2.4,0ZM86.41,44.31c.62-.64-.55-1.18-1.02-1.69-4.06-4.51-5.77-11.75-6.82-17.59-.1-.01-.15.13-.2.14h-7.99c.75,4,2.43,7.9,4.62,11.31,1.1,1.72,2.36,3.34,3.9,4.69.95.85,2.49,1.66,3.3,2.42.24.23.2.55.33.71.32.4,3.22-.07,3.88,0M84.77,60.08c.6-1.34-.44-3.06-1.66-3.67v3.9c.56-.16,1.38.4,1.66-.23M81.43,59.98v-3.44c-1.14.41-.47-1.09-1.39-1.8-.76-.61-1.36-.25-2.02-.45-.85-.24-1.09-2.61-2.96-.68-.42.43-1.01,1.84-1.09,1.9-.18.15-.5.09-.71.18-.59.27-.8,1.64-.64,2.18.11.35.77.42.77.8s-.51.41-.73.59c-.23.18-.7.91-.26.91h8.84s.2-.18.2-.19M81.43,54.97v-5.66c-.75-.74-1.57-1.37-2.28-2.15-.28-.31-.97-1.44-1.16-1.57-.26-.18-.66-.05-.87-.3-.27-.33-.09-1.11.01-1.51-2.57-.75-4.66-2.47-6.76-4.03v11.9c0,.92,1.81,3.99,2.96,3.03.07-.05.44-.88.63-1.13.85-1.11,2.01-2.18,3.42-1.24.33.21.88,1.03,1.01,1.08.75.25,1.3-.1,2.22.63.32.25.5.72.81.96M81.43,48.33v-2.87h-2.86c.74,1.1,1.77,2.11,2.86,2.87M81.09,44.41c.16-.07.37-.73.34-.76-.04-.05-.93-.45-1.16-.61-3.72-2.53-6.1-6.31-8.05-10.28l-1.84-4.74v10.61c1.62,1.61,3.55,2.81,5.5,3.98.52.32,1.64.77,2.04,1.09.27.21.25.62.48.71.15.05,2.53.05,2.7,0M71.92,58.64c.07-.27-.19-.48-.23-.75-.12-.9.17-1.63.38-2.47-.61-.03-1.12-.26-1.69-.46v5.33c1.07.08.74-.18,1.02-.74.11-.23.5-.79.52-.92M71.16,54.58l-.78-1.17c-.1.63.1,1.1.78,1.17M69.47,79.17V26s-.25-.27-.35-.29c-.98-.22-.42,2.43-.43,2.9-.02,2.23-.46,5.68-.12,7.8.02.17-.01,42.84-.01,42.84.01.1.88-.04.91-.08M68.04,60.3v-5.33l-1.3-.39v5.59c0,.07,1.12.03,1.3.13M68.04,53.99v-3.84c-.31.05-1.2-.12-1.38.13-.1.14-.1,3.29.01,3.52.14.28.92.43,1.24.52-.03-.13.13-.28.13-.33M68.04,35.7v-10.54h-5.59c-.03.6.24,1.16.42,1.72.88,2.55,2.5,5.69,4.15,7.82.26.34.63.93,1.02,1M65.71,54.38c.05-.63-.64-.79-1.05-1.17-.61-.57-1.42-1.33-1.95-1.94-.23-.27-.62-1.05-.67-1.1-.21-.13-1.32.05-1.67-.02v2.54c0,.1.96.72,1.13.83.97.6,2.93,1.52,4.03,1.09.16-.07.16.03.18-.22M65.7,60.17v-4.94c-1.2.22-2.37-.12-3.47-.63-.63-.29-1.2-.81-1.86-1.06v6.31s-.19.15-.13.2c.69,0,1.3-.17,2.01-.13.64.05,1.33.38,1.95.4.52.02.98-.18,1.5-.14M65.7,53.28v-3.13h-3.38c.88,1.28,2.18,2.19,3.38,3.13M60.44,49.11c1.19,0,2.39.07,3.57-.05-1.9-.78-2.69-2.17-3.77-3.75-.09-.14-.29-.2-.42-.38-.16-.25-.46-1.09-.51-1.13-.07-.05-1.53-.16-1.8-.28v5.15c0,.22,1.86.58,2.14.58.25,0,.5-.13.78-.13M57.51,60.04h1.95c-.31-2.36,0-4.81-.16-7.2-.08-.43-1.44-1.2-1.79-1.65v8.85ZM59.33,51.65c.07-.46-.04-1.02,0-1.5l-1.82-.12c-.24.21,1.33,1.73,1.62,1.81.25.08.17-.04.2-.2M59.33,42.6v-1.04c-.61,0-1.22.07-1.82-.12.04.2-.05.96,0,1.03.07.07,1.74.21,1.81.13M56.21,60.04v-10.02c-3.22-.17-6.39-1.18-8.97-3.12v12.62l2.08.26c-.05-1.02.04-3.23,1.49-3.14.47.03,1.1.86,1.1,1.25v1.95c0,.42,1.62.09,1.88.1.76,0,1.61.21,2.4.1M56.21,48.07v-4.89c-1.52-.6-2.82-1.91-4.55-1.63-.07.57.1,1.09.14,1.63.02.27-.13.58-.1.76.08.5,1.9,2.42,2.37,2.82.22.18,1.98,1.47,2.13,1.3M55.04,41.49c.49.36,1.17.79,1.17-.05l-1.17.05ZM56.01,49.49c.29-.07.27-.62.08-.84-.12-.13-.9-.48-1.16-.65-1.6-1.14-2.74-2.49-3.78-4.16l-3.9-.33v2.67c0,.16,1.56,1.15,1.82,1.3,1.47.83,3.25,1.42,4.92,1.72.3.05,1.9.32,2.03.28M43.54,40.27h7.86c-2.5-2.43-4.22-5.56-5.43-8.82-.23-.61-.85-3.11-1.06-3.37-.32-.39-2.37-.18-2.93-.45l-.19,12.67c0,.07,1.13.61,1.23.61.06,0,.15-.65.52-.65M50.88,42.73c-.03-.29.13-1.2-.2-1.29-.42-.13-2.54,0-3.18,0-.05,0-.16.87,0,.98.23.15,3.26.45,3.38.32M44.51,41.49c.47.32,1.66.87,1.56-.05l-1.56.05ZM45.94,59.2v-13.39c-.03-.17-1.44-2.28-1.56-2.36-.3-.2-.47.07-.59.07-.67.03-1.34-.02-2.01,0l.26,16.4c.13.13,3.31-.28,3.68-.41.16-.05.22-.14.22-.3M45.94,44.82c-.08-1.19.48-2.23-1.17-1.56-.1.14.9,1.47,1.17,1.56M44.77,25.72c.08-.3-.04-.75,0-1.08h-2.86l.05,1.83c.13.17,2.29.25,2.68.25.03-.25-.13-.49-.14-.72,0-.24.25-.16.27-.28M44.64,23.34v-1.04h-15.08c-.07.32.05.21.17.29.16.11,1.25.75,1.32.75h13.59ZM43.34,42.47c.3-.26-1.41-.92-1.56-1.03v1.03h1.56ZM41.01,57.63c.25-9.92.38-19.76.13-29.66-.03-1.11.03-2.23,0-3.32l-1.04.08v41.64c-.02.33.69.42.86.2.25-.37.02-7.75.05-8.93M39.06,24.65h-4.68l.94.42c1.04.17,2.39.83,3.41.88.27.01.17,0,.2-.2.05-.36-.1-.75.13-1.11M38.93,57.83v-14.38c0-.15-2.12-.52-2.49-.62-4.56-1.22-8.61-3.36-11.67-6.99v13.92c.3.09.22-.07.3-.16.42-.49,1.07-1.65,1.22-2.27.16-.62-.12-1.8,1.01-1.6.83.14.16,2.96,1.06,3.12.6.11.77-2.35,1.15-2.73.3-.32.89-.14.98.33.25,1.31-.59,3.57.91,4.35.06-1,1.18-1.5,1.4-.29.07.4,0,.79.1,1.22.06.33.66,1.99.93,2.06.74.22,1.32-1.78,2.25-1.23.57.34-.22,2.88,1.1,3.98.35.28,1.01.45,1.31.77.23.25.06.6.44.52M38.93,42.08v-2.4c-3.73-3.03-6.12-7.22-7.66-11.73l-6.38-.32c.03.38-.11.73-.13,1.11-.09,1.41-.15,3.97-.01,5.34.08.67,1.01,1.66,1.51,2.15,2.37,2.34,5.65,4.11,8.84,5.07.53.16,3.58,1.02,3.83.77M38.93,38.44v-11.33c-2.54-.46-5.03-1.33-7.34-2.47-.26-.03-.17.01-.2.18-.24,1.93.32,3.05,1.08,4.79,1.45,3.35,3.55,6.57,6.46,8.82M37.76,60.04c-.17-.29-.19-1.88-.26-1.94-.03-.03-.57-.08-.87-.24-.65-.36-1.14-1.18-1.41-1.85-.11-.28-.22-1.14-.39-1.17-.22-.04-.76.52-1.66.1-1.01-.48-1.29-2.75-1.55-2.93-.1-.07-.49-.07-.69-.15-1.24-.5-1.2-1.1-1.69-2.23-.89.63-1.8.42-2.34-.51-.61.7-1.05,1.66-1.99,1.96l.11,11.05.13-1.04c.66-.03,1.29.43,1.8-.22.47-.58.1-.87.14-1.41.09-1.08.58-3.45,1.51-4.09.32-.23.53-.17.76-.29.27-.14.15-.41.68-.48,1.54-.21,2.05,1.18,2.64,2.28.13.26.13.55.25.79.4.82,1.18,1.52,1.2,2.64,1.19-.13,2.44-.51,3.63-.26M34.08,66.08c.03-.41-.49-1.65-.79-1.95-.06-.08-.29-.07-.4-.17-.48-.47,0-.86.05-1.25.03-.43.04-.93,0-1.45,0-.22-.03-.42-.07-.64-.02-.15-.04-.29-.08-.43,0-.02,0-.04-.02-.07-.02-.12-.05-.23-.09-.33-.03-.13-.08-.25-.12-.36-.19-.48-.71-.91-.85-1.25-.27-.67-.11-1.27-.69-2.03-.21-.28-1.08-.8-1.22-.66-.02.02-.02.41-.12.57-.1.15-.38.15-.52.28-.46.42-.94,2.61-.93,3.25.01.38.27.8.24,1.02-.02.22-.35.53-.46.84-.15.46-.6,2.04-.36,2.38.15.23.83.09.73.84-.05.33-.42.47-.59.74-.6.99-.55,2.4-.34,3.5.15.13.9-.74,1.04-.18.09.36-.47.65-.28,1.38h0c.03.11.07.22.13.34.23.47.73.05,1.26.02.51-.02,1.05,0,1.56.01.85.02.85.32,1.62-.46,1.36-1.33-.16-1.39.15-2.44.12-.38,1.05-.84,1.12-1.48M30.35,26.72l.13-2.08h-5.59v1.81l5.46.26h0ZM18.78,23.47l10.27-.13c-.42-.42-1.15-.98-1.76-1.04-1.59-.2-6.48-.21-8.06-.01-.7.09-.4.61-.45,1.18M26.81,64.91c.01-.28-.29-.57-.35-.9-.09-.5,0-1.01.12-1.49-.61.28-1.07-.22-1.69-.26v3.7c.18.17.43.22.68.26.13.02.26.03.39.07.07.01.12.03.18.05.05.02.12.05.17.09h0c.03-.47.48-1.13.49-1.52M18.85,21.65h7.73c-2.42-2.09-4.58-4.46-6.29-7.17-.44-.7-1.66-3.33-1.96-3.63-.26-.25-3.17-1.41-3.83-1.76l-2.6-1.5v15.81c1.82.82,3.89,1.42,5.85,1.76v-2.28s-.13-.16-.11-.36c.02-.22.66-.95.85-1,.2-.04.31.12.36.12M24.25,27.37h-1.19v38.8h1.19V27.37ZM24.11,26.33c-.12-.6.36-1.78-.46-1.83-.46-.03-.53.03-.58.46-.13,1-.12,1.58,1.04,1.37M21.91,26.02c.2-.25.22-1.41-.08-1.5-.41-.13-2.49,0-3.12,0-.19,0-.31.78-.12.92.16.11,3.17.68,3.32.58M21.9,62v-15.16c0-.11-.79-.45-.97-.59-.2-.16-.6-.77-.65-.78-.18-.04-.41.34-.62.42-.52.22-1.2.12-1.65-.24-.75-.59-.95-2.43-1.05-2.53-.03-.02-.49.15-.7.13-.49-.04-.93-.5-1.2-.89-.15-.23-.17-.8-.44-.46-.15.2-.35.74-.53,1-.41.59-1.11,1.41-1.67,1.85-.18.13-.5.17-.52.2v17.44h2.01c1.07,0,3.23-.95,4.55-1.04,1.3-.11,2.3.07,3.44.65M21.9,45.21v-13.6c0-.16-1.18-2.49-1.36-2.93-.12-.32-.23-.65-.33-.98l.28.24,1.41,2.04v-2.74c-1.19-.39-2.39.16-3.57.26-2.15.18-4.29.14-6.43,0v16.14c.77-.6,1.44-1.63,1.84-2.51.31-.68.83-3.07,1.28-3.28.37-.17.7,0,.78.39.23,1.21-.41,2.9.46,3.96.21.25.31-.08.4-.25.26-.52.36-2.31,1.27-1.7.43.28-.07,4.26,1.08,4.55.89.23.73-1.79,1.67-1.68.68.08.56,1,.71,1.51.05.17.26.68.52.58M18.33,4.47c.57-.11.25-1.01.32-1.43-.18-.08-.36.12-.46.13H7.73c.42.53,1.19,1.24,1.87,1.31h8.73ZM17.48,9.29v-3.65h-5.72c.17.24.05.61.22.79.18.21,1.87,1.15,2.25,1.36,1.03.56,2.13,1.1,3.25,1.5M17.35,26.21l-5.46-1.56c.05.27-.07,1.61.01,1.68.17.17,4.45.2,5,.14.19-.02.4-.03.44-.26M10.7,66.92c0-19.9.18-39.77.03-59.66.05-.77-.8-1.15-1.38-1.49l.06,66.83c.02.17,1.06.07,1.28-.08h.01c-.01-1.87-.01-3.74-.01-5.6"/>
        </g>
      </g>
      <g class="cls-5">
        <g>
          <path class="cls-15" d="M91.95,51.06c-.63-.05-1.4.09-2.01,0-.78-.11-3.26-2.16-3.96-2.79-.46-.4-2.2-2.16-2.34-2.61-.07-.25.04-.17.2-.2,1.25-.16,2.57.31,3.81.02.94,2.22,2.7,3.87,4.31,5.57"/>
          <path class="cls-15" d="M89.35,52.1v9.11l-3.72-.77c-.02-.64.14-1.2.07-1.88-.09-.75-.63-1.72-1.15-2.24-.32-.32-1.57-.89-1.57-1.16v-4.69c.02-.08.14-.16.27-.13.78.18,1.6.93,2.69,1.08.46.07,1.21-.05,1.52.03.13.03.09.33.19.47.29.36,1.25.12,1.7.18"/>
          <path class="cls-18" d="M86.85,66.84c.87-.21,2.31.68,1.8,1.41-.35.48-.93-.26-1.31-.28-.43-.03-.88.37-1.23.22-.58-.26.25-1.24.75-1.35"/>
          <path class="cls-15" d="M88.15,50.38c.13.09.23,0,.16.29h-2.4c-.34,0-2.92-1.1-2.92-1.36v-3.45c.3-.08.22.05.3.16,1.74,2.27,2.49,2.83,4.86,4.35"/>
          <path class="cls-4" d="M85.39,42.61c.47.51,1.63,1.05,1.02,1.69-.66-.08-3.55.39-3.88,0-.13-.15-.09-.48-.32-.71-.81-.76-2.35-1.58-3.3-2.42-1.54-1.36-2.79-2.98-3.9-4.69-2.2-3.41-3.88-7.31-4.62-11.31h7.99s.1-.15.19-.14c1.05,5.83,2.76,13.08,6.82,17.58"/>
          <path class="cls-18" d="M85.41,85.71s-.01.1-.03.15c-.01.05-.03.12-.07.18-.26.49-.92,1.16-1.26,1.52-.05.04-.09.09-.12.12-.04.04-.08.08-.09.1-.32.45-.8,2.11-1.38,1.75-.28-.17-.37-.48-.3-.84,0-.01,0-.03.01-.05.03-.17.1-.37.19-.57.1-.21.22-.41.36-.62,0-.01.01-.03.03-.05.05-.09.12-.16.18-.25.1-.15.22-.29.35-.43.05-.05.1-.1.14-.15.08-.08.15-.15.22-.23.13-.12.25-.24.37-.34.1-.09.19-.16.29-.23.07-.04.14-.1.21-.13.19-.13.37-.2.51-.2.28,0,.39.1.39.26"/>
          <path class="cls-18" d="M85.38,85.86c.02-.05.03-.11.03-.15,0,.04-.01.1-.03.15"/>
          <path class="cls-11" d="M83.11,56.41c1.21.61,2.25,2.34,1.66,3.67-.28.63-1.09.07-1.66.23v-3.9Z"/>
          <path class="cls-18" d="M84.51,85.64c-.07.03-.14.09-.21.13.08-.05.14-.1.21-.13"/>
          <path class="cls-18" d="M84.01,86c-.12.1-.24.22-.37.34.12-.13.25-.24.37-.34"/>
          <path class="cls-18" d="M83.65,86.34c-.07.08-.14.15-.22.23.07-.08.14-.16.22-.23"/>
          <path class="cls-18" d="M83.43,86.57c-.04.05-.09.1-.14.15.04-.05.09-.1.13-.15h.01Z"/>
          <path class="cls-18" d="M82.56,83.37c.23-.03.57-.05.54.27-.03.28-1.34,1.77-1.61,2.3-.22.42-.38.84-.52,1.3-.01.05-.03.13-.04.22-.03.21-.08.47-.12.75-.02.08-.03.16-.05.24-.01.04-.02.09-.03.13-.02.1-.04.18-.07.27-.1.29-.23.52-.39.59-.03.01-.08.02-.11.02-.02,0-.05,0-.09-.01-.31-.33-.46-.81-.44-1.37,0-.07,0-.14.01-.21.01-.15.03-.33.07-.5.02-.12.05-.25.09-.38.01-.04.02-.1.04-.15.03-.11.07-.22.1-.32.08-.21.15-.41.25-.61.17-.41.4-.8.65-1.15.15-.23.3-.42.48-.6.07-.1.16-.17.25-.25,0-.01.01-.02.02-.02.24-.22.5-.39.74-.47.09-.03.16-.05.25-.07"/>
          <path class="cls-18" d="M82.94,87.15c-.07.09-.13.16-.18.25.05-.09.11-.16.18-.25"/>
          <path class="cls-18" d="M82.72,87.46c-.14.21-.26.41-.36.62.09-.21.21-.41.36-.62"/>
          <path class="cls-18" d="M82.37,88.08c-.1.2-.16.39-.2.57.03-.17.1-.37.2-.57"/>
          <path class="cls-18" d="M82.17,88.64s-.01.04-.01.05c0-.02,0-.03.01-.05"/>
          <path class="cls-11" d="M81.43,56.54v3.44s-.18.19-.2.19h-8.84c-.44,0,.03-.73.26-.91.22-.17.73-.2.73-.59s-.66-.46-.77-.8c-.16-.54.05-1.91.64-2.18.22-.1.53-.03.71-.18.09-.07.67-1.47,1.09-1.9,1.86-1.92,2.11.44,2.96.68.66.2,1.27-.16,2.03.45.92.72.25,2.22,1.39,1.8"/>
          <path class="cls-15" d="M81.43,49.31v5.66c-.31-.24-.49-.71-.81-.96-.92-.73-1.47-.38-2.22-.63-.13-.04-.68-.87-1.01-1.08-1.41-.95-2.58.13-3.42,1.24-.18.25-.56,1.08-.63,1.13-1.15.96-2.96-2.11-2.96-3.03v-11.9c2.1,1.56,4.19,3.28,6.76,4.03-.1.4-.28,1.18-.01,1.51.21.25.61.12.87.3.18.13.88,1.26,1.16,1.57.7.78,1.53,1.41,2.27,2.15"/>
          <path class="cls-15" d="M81.43,45.47v2.87c-1.09-.76-2.12-1.77-2.86-2.87h2.86Z"/>
          <path class="cls-4" d="M81.43,43.65s-.17.7-.34.76c-.16.05-2.54.05-2.7,0-.23-.09-.21-.5-.48-.71-.4-.32-1.52-.77-2.04-1.09-1.95-1.17-3.88-2.38-5.5-3.99v-10.61l1.84,4.73c1.95,3.98,4.33,7.76,8.05,10.29.23.16,1.12.55,1.16.61"/>
          <path class="cls-20" d="M81.31,61.41l-.02,4.33h-.3c-3.54-.66-7.08-.87-10.6-.74v-3.53c.51-.09,1.12-.24,1.62-.26.67-.03,1.23.13,1.82.14,2.49,0,4.99-.08,7.48.05"/>
          <path class="cls-18" d="M80.18,85.93c-.1.2-.17.4-.25.61.07-.21.15-.41.25-.61"/>
          <path class="cls-18" d="M79.93,86.53c-.03.1-.07.21-.1.32.02-.11.05-.21.1-.32"/>
          <path class="cls-22" d="M80.98,65.75c-.85.22-1.74.39-2.65.55-.08-.13-.19-.24-.34-.3-.31-.2-.73-.25-1.07-.16-.21.05-.38.15-.49.3-.03.03-.07.08-.09.12-.02.05-.04.1-.05.15-.02.09-.02.16.01.22-.01.01,0,.01,0,.02-2.07.38-4.14.84-5.92,1.75v-3.39c3.52-.13,7.06.08,10.6.74"/>
          <path class="cls-18" d="M78.51,82.83c1.25-.37,1.39,3.11.77,3.25-.63.14-.67-1.92-.75-2.38-.04-.26-.41-.75-.02-.87"/>
          <path class="cls-18" d="M78.43,66.55c.02.08.02.16.01.26h-.01c-.29-.03-1.07.11-1.61.05-.23-.01-.41-.08-.49-.2-.01-.01-.02-.02-.02-.04-.03-.05-.03-.13-.01-.22.01-.05.03-.1.05-.15.02-.04.05-.09.09-.12.11-.15.28-.25.49-.3.35-.09.76-.02,1.07.16.13.08.24.18.31.3.03.05.08.12.1.19.01.02.01.04.02.06"/>
          <path class="cls-18" d="M78.43,66.55s-.01-.04-.02-.06c.02.02.02.04.02.06"/>
          <path class="cls-18" d="M78.43,66.81c-.29-.03-1.08.11-1.61.05.54.05,1.32-.09,1.61-.05"/>
          <path class="cls-18" d="M78.4,66.48c-.02-.06-.07-.13-.1-.18h.02c.04.06.08.12.08.18"/>
          <path class="cls-18" d="M78.33,66.3h-.02c-.07-.12-.18-.23-.31-.3.14.07.26.17.34.3"/>
          <path class="cls-18" d="M76.42,84.51c1.05-.27,1.98,3.53,1.47,4.39-.03.04-.05.08-.09.1-.03.03-.06.05-.1.07-.01,0-.02.01-.03,0h-.07c-.1,0-.19-.04-.26-.11-.07-.05-.11-.12-.14-.21-.05-.13-.11-.27-.15-.43-.02-.07-.03-.13-.04-.2-.02-.13-.04-.26-.07-.38-.02-.2-.04-.37-.07-.53-.01-.08-.02-.15-.03-.22-.01-.05-.01-.11-.02-.14-.14-.62-.43-1.35-.54-1.94-.03-.16-.04-.34.14-.39"/>
          <path class="cls-18" d="M77.81,89s.05-.05.09-.1c-.02.04-.05.08-.09.1"/>
          <path class="cls-22" d="M70.38,71.04c3.82,1.24,8.12,1.42,11.69,2.31-4.21,0-8.22,1.23-11.69,3.31v-5.63h0Z"/>
          <path class="cls-18" d="M77.68,89.06s-.07.02-.1.02c-.02,0-.01,0,.02-.02h.08Z"/>
          <path class="cls-4" d="M77.6,22.17c.06.11-.33,1.39-.28,1.69-1-.17-6.91.25-7.34-.05-.21-.16-.11-1.13-.43-1.52-.62-.77-2.75-2.01-3.65-2.73-2.36-1.91-4.4-3.95-6.23-6.39-.3-.41-.61-.84-.9-1.26s-.57-.85-.87-1.29c1.35-1.25,2.57-2.78,3.58-4.61,2.81,3.75,6.21,6.47,9.95,8.29.02.04.04.09.07.13.31.6.64,1.18.99,1.75,1.01,1.67,2.12,3.24,3.38,4.54.24.25.49.5.75.74.21.2.9.59.99.72"/>
          <path class="cls-18" d="M77.6,89.06l-.02.02c-.1,0-.17-.05-.24-.13.08.07.16.11.26.11"/>
          <path class="cls-18" d="M76.92,65.83c.35-.09.76-.03,1.07.16-.31-.18-.73-.25-1.07-.16"/>
          <path class="cls-18" d="M77.05,88.32c.04.16.1.3.15.43-.07-.12-.12-.27-.15-.43"/>
          <path class="cls-18" d="M76.94,87.74c.02.12.04.25.06.38-.03-.13-.05-.25-.06-.38"/>
          <path class="cls-18" d="M76.88,87.21c.02.16.04.34.06.53-.03-.18-.05-.37-.06-.53"/>
          <path class="cls-18" d="M76.82,86.85s.01.09.02.14c-.01-.05-.01-.11-.02-.14"/>
          <path class="cls-18" d="M75.87,20.72c.24.26.5.5.75.74-.26-.24-.51-.49-.75-.74"/>
          <path class="cls-18" d="M73.24,85.95c1.61-.62,3.08,3.1,2.22,3.72-.81.59-.95-1.52-1.16-1.98-.31-.75-1.09-.96-1.06-1.74"/>
          <path class="cls-18" d="M72.49,16.18c-.35-.56-.67-1.15-.99-1.75.32.6.64,1.17.99,1.75"/>
          <path class="cls-15" d="M71.69,57.89c.03.27.29.48.23.75-.02.13-.41.7-.52.92-.28.55.05.81-1.02.74v-5.33c.57.2,1.08.42,1.69.46-.21.84-.5,1.56-.38,2.46"/>
          <path class="cls-19" d="M68.75,8.28c.75,1.97,1.63,4.04,2.69,6.02-3.75-1.81-7.15-4.54-9.95-8.29-1.02,1.84-2.23,3.37-3.58,4.62-.18-.28-.36-.57-.54-.85-.03-.05-.08-.11-.1-.16-.17-.27-.35-.55-.51-.84-.96-1.63-1.85-3.32-2.64-5.05-.16-.33-.31-.65-.44-.98-.2-.42-.38-.85-.55-1.28-.24-.55-.46-1.12-.67-1.68,4.48,0,9.09-.14,13.63-.14.44,2.28,1.18,4.52,1.95,6.7.1.28.21.58.31.87.13.35.26.7.4,1.05"/>
          <path class="cls-22" d="M60.4,88.55c4.33-3.26,7.58,1.09,11.91,0-4.4,1.89-9.15,3.42-13.23,5.85H-2.08c-.11,0-.23-.32-.2-.45v-9.72c.6-.12,1.17-.23,1.77-.34-.04.11-.09.23-.13.34h0c-.04.13-.09.25-.11.37-.08.29-.11.59-.09.86.02.32.22,1.14.64.87.12-.09,1-2.23,1.38-2.73h0c8.1-1.37,16.48-2.19,24.63-3.81.02.04.04.08.08.11.02.03.04.07.07.08.06.08.11.11.15.1.07-.03.12-.08.16-.12.05-.04.09-.1.12-.16.02-.04.04-.09.05-.13.34-.07.66-.14,1.01-.22h.01c.07.29.13.56.18.75.02.05.03.1.04.13.01.04.03.08.03.1.01.02.02.03.03.04.1.07.52-.05.61-.15.23-.23.29-.65.23-1.11.5-.12.99-.23,1.48-.35-.05.35-.03.68.1.97.07.15.16.28.3.39.1-.18.18-.38.28-.58.17-.37.35-.75.54-1.1.8-.21,1.61-.42,2.42-.66-.48.32-.99.73-1.14.99-.38.62-.16,1.77.44,1.35.43-.3.89-1,1.37-1.36.25-.18,1.17-.63,1.22-.73.46-.73-.63-.72-1.09-.63-.26-.18-.94-.5-1.65-.87,0-.01,0-.02,0-.02,0-.02,0-.04-.03-.07s-.04-.07-.09-.09c-.07-.04-.14-.08-.21-.1,0-.01-.03-.01-.07-.01-.06-.02-.12-.03-.18-.03-.44-.26-.86-.53-1.13-.8,4.2-1.51,8.58-3.18,13.06-4.74-.32.46-.61.99-.79,1.55-.04.12-.07.25-.11.37,0,.02-.02.05-.02.1-.03.12-.06.24-.07.37-.07.41-.05.81.04,1.19.11.42.67.84.69.99.04.2-.45.78-.56,1.09-.47,1.36.08,1.89.48,3.11.82.39,1.29-1.16,1.73-1.24.49-.09.25.71.49.97.4.45,1.27-.73,1.61-.99.71-.53,1.49-.98,2.32-1.33.31.64-1.09,2.29-.1,2.59.04.01.1.02.14.02l1.01,1.62c-.07.07,0,.17.03.28.26.64.99,1.28,1.31,1.95.39.83.41,1.82.78,2.6.46.93.67-.51.67-1.02l1.2-.1c.05.9.02,2,.44,2.57.06.1.1.34.29.16.15-.14.25-.48.3-.88l.63.12c0,.11,0,.21,0,.29,0,.27.18.89.48.89l1.62.39c-.24.58-.36,1.16-.29,1.73,0,.14.03.41.2.45.61.13,1.31-1.95,1.6-2.43.14-.23.3-.45.48-.64-.14.34-.29.66-.42,1M62.9,90.12c.14-.17.63-.66.34-.86-.81-.52-2.34,1.45-1.96,2.28.25.26,1.44-1.2,1.62-1.42M51.56,90.28c.88.43.6-1.49.42-1.99-.29-.81-2.36-3.02-3.23-2.83-.1.01-.3.21-.31.29.62,1.08,1.94,1.67,2.41,2.89.2.51.15,1.36.7,1.64M36.26,80.34c.24-.23,1.29-.83.96-1.28-.51-.74-3.18,1.58-2.32,2.18.45.33,1.08-.63,1.35-.9M25.41,89c.22-.26,2.17-1.59,1.95-1.88-1.38-.91-4.43,1.98-3.31,3.13.61.63,1.12-.94,1.36-1.25M23.72,86.66c.42-.38,1.95-.92,1.81-1.41-.27-.39-.76-.39-1.19-.32-.99.16-2.26,1.25-2.43,2.26-.04.23-.09,1.29.18,1.36.37.08,1.25-1.55,1.62-1.89M20.47,86.93c.12-1.2-.14-3.4-1.69-3.45.01.88.37,1.66.51,2.55.03.24-.01,2.78.78,2.26.1-.06.38-1.15.4-1.36M17.2,89.3c.82-.48-.14-3.53-.63-4.2-.34-.46-1.79-1.32-1.68-.53.01.08.71.99.87,1.35.14.3.27.75.36,1.08.14.5.25,2.79,1.08,2.31M13.79,89.85c.47.58.77.22.69-.43-.09-.9-.84-2.25-1.94-2.03l1.24,2.47h.01ZM3.82,84.34c-.14-.92-1.84-.04-1.94,1.15-.02.17.06.92.13.98.11.07.35-.03.47-.12.1-.08,1.34-1.86,1.34-2.01"/>
          <path class="cls-15" d="M70.38,53.41l.78,1.17c-.68-.08-.88-.54-.78-1.17"/>
          <path class="cls-18" d="M68.35,7.23c.13.35.26.7.4,1.05-.14-.36-.27-.71-.4-1.05"/>
          <path class="cls-4" d="M68.29,22.18c.05.07-.13,1.5-.17,1.56-.23.33-1.21,0-1.55,0-1.32-.02-2.71.24-4.05.12-1.31-.11-.55-1.03-1.36-1.76-1.91-1.06-3.87-2.08-5.71-3.27-.48-.32-.95-.63-1.42-.97h0c-.93-.67-1.83-1.38-2.71-2.12-.43-.38-.87-.76-1.29-1.15,2.57-.51,5-1.61,7.13-3.34.15.24.31.48.49.72.21.33.42.64.65.96.38.55.78,1.09,1.19,1.62,2.07,2.68,4.96,5.47,7.88,7.21.2.11.91.38.93.42"/>
          <path class="cls-20" d="M68.04,78.28v.97c-.08.05-.17.11-.27.15-.11.05-.22.09-.35.13-.16.05-.34.11-.52.16-.26.07-.53.14-.78.23.61-.59,1.26-1.13,1.92-1.64"/>
          <path class="cls-22" d="M68.04,70.11v8.17c-.66.51-1.31,1.05-1.92,1.64-.08.03-.16.07-.23.1-.23.1-.42.22-.54.37-.07.08-.12.16-.14.24-.07.1-.08.2-.05.28-1.19,1.29-2.23,2.68-3.11,4.19-.02.01-.05.03-.08.04-1.17.55-2.52,1.89-3.13,3.31l-1.62-.39s.1-.02.15-.05c.14-.09.92-2.75,1.13-3.23.25-.61,1.08-1.87,1.17-2.35.13-.65-.44-.29-.7-.05-.77.68-2.05,3.24-2.21,4.5l-.63-.12c.1-.57.11-1.23.09-1.53-.09-1.21-.61-3.29-1.88-3.7-.18.13-.21.2-.17.42.09.57.7,1.47.86,2.27.04.21.07.43.08.68l-1.2.1v-.03c-.02-1.03-1.48-4.08-2.68-3.83-.05.01-.1.03-.12.05l-1.01-1.62c.53,0,1.22-.71,1.75-.95.29-.13.66-.08.92-.24.29-.18.29-.63.52-.91.69-.84,2.32-1,3.29-.67.18.07,1.39.83,1.52.96.69.71.28,1.61.49,2.25.25.78,1.64-.88,1.96-1.12.62-.43,1.91-1.06,2.63-1.14.4-.04,2.07.14,2.16.08.56-.41-.41-1.1-.38-1.29.02-.17.68-.91.8-1.41.13-.51.19-1.24-.05-1.72-.11-.21-.41-.34-.48-.57-.27-.87.04-1.58-1.01-2.25-1.07-.7-2.61.02-3.18-.33-.16-.1-.55-.79-.92-1.03-.34-.23-.97-.32-1.01-.35,0-.01-.03-.05-.04-.11,0-.06-.03-.17-.06-.29,0-.02,0-.04,0-.07-.11-.49-.29-1.24-.76-1.75,3.25-.74,6.52-1.27,9.82-1.53v4.9l-.05.05s.04.01.05.02"/>
          <path class="cls-20" d="M68.04,70.04v.08s-.03-.01-.05-.02c.02-.02.04-.03.05-.05"/>
          <path class="cls-20" d="M68.04,61.48v3.66c-3.3.26-6.57.79-9.82,1.53,0-.02,0-.02,0,0-.08-.11-.15-.18-.24-.25-.24-.18-.68-.29-.81-.42-.46-.47-.33-1.23-1.38-1.68-1.21-.52-1.74.21-2.23.13-.19-.03-.73-1.41-2.21-1.41-1.95,0-2.38,1.79-3.48,2.25-.4.17-.78.05-1.17.13-.07.01-.14.03-.21.05l-.28-1.12c.02-.56-1.51-1.17-1.89-1.17h-2.27v-2.09c.57.36,3.7-.47,3.9-.26.07.05-.23,1.2.61,1.27.8.08.67-1.27.76-1.27.67.3,1.55.15,2.19.29.34.07.62.47,1.06.47.39,0,.77-.37,1.17-.37.52,0,1.03,0,1.56,0,.95,0,1.88.13,2.85.13.16.04,0,.63.66.67.69.04.44-.26.65-.53.2-.24,2.72-.12,3.26-.12,1.33,0,2.51.14,3.77.13,1.17,0,2.39-.45,3.56,0"/>
          <path class="cls-15" d="M68.04,54.97v5.33c-.18-.1-1.3-.07-1.3-.13v-5.59l1.3.39Z"/>
        </g>
      </g>
      <g class="cls-12">
        <g>
          <path class="cls-15" d="M68.04,50.15v3.85s-.16.2-.13.33c-.31-.09-1.09-.24-1.24-.52-.11-.23-.11-3.38,0-3.52.17-.25,1.06-.08,1.38-.13"/>
          <path class="cls-4" d="M68.04,37.46v11.59c0,.26-1.21.08-1.47.04-2.61-.33-5.83-2.82-6.39-5.45-.26-1.2.52-3.24-1.16-3.39-1.94-.17-4.12.17-6.09-.02-2.98-2.01-5.07-5.4-6.4-8.7-.28-.71-.97-2.44-1.05-3.12-.21-1.86.14-4.16.21-6.06,0-.25.1-.47.13-.71h-17.48c-2.91-1.94-5.4-4.56-7.37-7.45-.46-.68-2.31-3.57-2.32-4.19-.01-.86,0-3.58.14-4.3.08-.41.57-.94.64-1.55.11-.89-.01-2.05-1.1-2.16H6.64c-.83-.14-1.93-1.77-2.54-2.34,8.31-.02,16.62.05,24.93.1-.21.98-.23,1.99-.03,3,1.08,4.34,4.33,7.6,7.58,9.78,3.79,1.9,7.99,2.76,11.98,2.31.55.53,1.12,1.04,1.69,1.54.25.22.5.43.75.64.38.32.77.62,1.17.91.21.16.42.33.64.48.29.22.6.42.9.63.29.2.59.39.88.58.35.22.69.42,1.04.62.53.32,1.06.6,1.6.87.37.18.75.37,1.13.53.09.05.18.09.27.12.43.2.87.38,1.31.54-.04.71-.36,2.44.44,2.79.38.17.92-.05,1.24.34.86,2.72,1.9,5.25,3.39,7.67.94,1.51,2.12,2.84,3.04,4.37"/>
        </g>
      </g>
      <g class="cls-2">
        <g>
          <path class="cls-4" d="M68.04,25.17v10.54c-.39-.07-.76-.66-1.02-1-1.65-2.13-3.27-5.27-4.15-7.82-.18-.55-.46-1.12-.42-1.72,0,0,5.59,0,5.59,0Z"/>
          <path class="cls-18" d="M67.77,79.4c.1-.04.19-.1.27-.15-.08.05-.16.11-.27.15"/>
          <path class="cls-18" d="M67.42,79.53c.13-.04.24-.08.35-.13-.11.05-.22.1-.35.13"/>
          <path class="cls-18" d="M66.12,79.92c.25-.09.52-.16.78-.23-.27.08-.55.15-.8.25-.17.07-.16.06.02-.02"/>
          <path class="cls-18" d="M66.12,79.92l-.02.02c-.08.02-.14.05-.21.08.07-.03.15-.07.23-.1"/>
          <path class="cls-18" d="M65.69,73.4c.25.48.18,1.21.06,1.72-.12.5-.78,1.24-.8,1.41-.03.2.94.88.38,1.29-.09.07-1.75-.12-2.15-.08-.73.08-2.01.71-2.63,1.14-.32.24-1.71,1.9-1.96,1.12-.21-.64.21-1.54-.49-2.25-.13-.13-1.33-.89-1.52-.96-.97-.33-2.6-.16-3.29.67-.23.28-.23.73-.52.91-.26.16-.63.11-.92.24-.53.24-1.22.95-1.75.95-.04,0-.1-.01-.14-.02-1-.29.41-1.94.1-2.58-.82.35-1.6.79-2.32,1.32-.35.26-1.21,1.43-1.61.99-.24-.26,0-1.05-.49-.97-.44.08-.91,1.63-1.73,1.24-.4-1.22-.94-1.75-.48-3.11.11-.31.61-.89.56-1.09-.02-.15-.59-.56-.69-.99-.1-.38-.11-.78-.04-1.2,0-.13.03-.25.07-.37,0-.04,0-.08.02-.1.03-.13.07-.25.11-.37.18-.57.46-1.1.79-1.55.13-.2.28-.37.42-.53.17-.2.66-.43.73-.58.04-.1-.28-.72-.33-.99-.14-1.03.35-2.8,1.44-3.23.07-.02.14-.04.21-.05.39-.08.77.04,1.17-.13,1.09-.46,1.53-2.25,3.48-2.25,1.48,0,2.01,1.38,2.21,1.41.49.08,1.02-.65,2.23-.13,1.04.46.91,1.22,1.38,1.68.13.13.57.24.81.42.09.07.16.14.24.25.47.53.66,1.27.77,1.75,0,.02,0,.04,0,.07.02.12.04.23.07.29,0,.05.03.1.04.11.03.03.67.12,1.01.35.37.24.76.93.92,1.03.57.35,2.11-.37,3.18.33,1.05.67.74,1.38,1.01,2.25.07.23.37.36.48.56M64.56,75.24c.63-1.57-.41-1.12-.63-1.78-.17-.55.36-1.21-.3-1.77-.79-.68-2.04.05-2.95-.3-.66-.26-1.04-1.64-1.87-1.25-.23.11-1.37,1.21-1.56.13-.15-.84.91-.75.37-2.18-.03-.09-.07-.16-.11-.23-.02-.05-.05-.11-.1-.15-.08-.11-.17-.18-.26-.25-.04-.03-.09-.05-.13-.07h0s-.09-.04-.12-.05c-.1-.03-.18-.05-.27-.08-.04-.01-.08-.03-.12-.04-.05-.02-.11-.04-.15-.08-.02-.01-.03-.02-.04-.03-.04-.02-.08-.05-.11-.09-.18-.23-.22-.73-.4-1.03-.82-1.42-2.23.17-3.05-.51-.22-.17-.44-.9-.82-1.07-1.67-.71-2.63,1.87-4.1,2.14-.46.09-.78-.18-1.15.27-.36.42-.55,1.31-.43,1.86.02.12.08.22.14.3.04.05.09.11.14.16.17.15.4.27.61.39.08.04.14.09.21.13,0,.01.02.02.03.02.18.14.34.3.39.53.02.09.03.18.02.29-.02.17-.07.29-.14.36-.17.17-.44.08-.7-.03-.02,0-.04-.01-.07-.02-.09-.03-.17-.08-.24-.09-.03-.01-.06-.02-.1-.02-1.26-.1-2.23,2.36-1.98,3.43.13.57,1.06.97,1.01,1.2-1.03.61-1.56,1.62-1.17,2.8,0,.01.03.01.05.01.03,0,.06-.01.11-.04.04,0,.1-.05.15-.1.11-.09.23-.21.37-.35.12-.13.26-.26.4-.4.05-.05.11-.11.16-.16.5-.49,1.03-.9,1.4-.66.47.32-.12.91-.11,1.31.86-.64,3.01-2.22,4.06-1.73.75.35-.31,1.14-.23,1.73.39-.42,1.01-.38,1.42-.6s.76-.87,1.31-1.16c1.8-.98,3.99-.37,5.39.98.31.29.61.58.58,1.04,1.38-.78,2.74-1.65,4.4-1.59.11-.48.53-.75.7-1.18"/>
          <path class="cls-15" d="M64.66,53.21c.41.38,1.1.54,1.05,1.17-.02.25-.02.15-.18.22-1.1.43-3.05-.49-4.03-1.09-.16-.11-1.13-.73-1.13-.83v-2.54c.35.08,1.46-.11,1.67.02.05.04.44.83.67,1.1.53.62,1.34,1.38,1.95,1.94"/>
          <path class="cls-15" d="M65.7,55.23v4.94c-.52-.04-.98.16-1.5.14-.62-.02-1.31-.35-1.95-.4-.72-.04-1.32.12-2.02.13-.06-.04.13-.16.13-.2v-6.31c.66.25,1.24.77,1.86,1.06,1.09.51,2.26.85,3.47.63"/>
          <path class="cls-15" d="M65.7,50.15v3.13c-1.2-.93-2.5-1.85-3.38-3.13h3.38Z"/>
          <path class="cls-18" d="M65.34,81.17s.11.05.17.07c-.07-.01-.12-.03-.17-.07"/>
          <path class="cls-18" d="M65.17,80.9c.02.11.08.21.17.27-.11-.05-.17-.14-.18-.26h.01Z"/>
          <path class="cls-18" d="M65.21,80.63c-.04.1-.05.19-.04.27h-.01c-.02-.08-.01-.17.05-.27"/>
          <path class="cls-13" d="M63.93,73.46c.22.66,1.26.21.63,1.78-.17.43-.6.71-.7,1.18-1.66-.07-3.02.8-4.4,1.59.02-.47-.27-.75-.59-1.04-1.41-1.35-3.6-1.96-5.39-.98-.55.29-.9.95-1.31,1.16-.41.22-1.03.17-1.42.6-.09-.59.97-1.38.23-1.73-1.05-.49-3.21,1.09-4.06,1.73,0-.4.57-1,.11-1.31-.37-.24-.9.17-1.4.66-.05.04-.11.11-.16.16-.14.14-.28.27-.4.4-.91-2.07,3.99-4.66,1.26-6.48.18-.13.36-.24.54-.36.02.01.04.02.06.02.25.11.53.21.7.03.08-.07.12-.18.14-.36,0-.11,0-.21,0-.3,2.98-1.87,5.96-2.87,8.85-2.96.09.02.17.04.27.08.03.01.08.03.12.04h0s.09.05.13.08c.09.07.18.14.26.25.03.04.08.1.1.15.04.07.08.14.11.23.54,1.43-.52,1.35-.37,2.18.2,1.08,1.33-.02,1.56-.13.83-.39,1.21.99,1.87,1.25.91.36,2.15-.38,2.95.3.66.56.13,1.22.3,1.77"/>
          <path class="cls-18" d="M63.49,84.92c.32.47-.89,1.02-1.16,1.24-.29.24-.57.47-.85.72-.11.1-.22.2-.31.3-.13.12-.25.25-.35.38-.17.2-.34.41-.48.64-.29.48-1,2.56-1.6,2.43-.16-.03-.18-.3-.2-.45-.07-.57.05-1.15.29-1.73.61-1.42,1.96-2.76,3.13-3.31.05-.02.13-.07.23-.11.21-.09.48-.18.71-.24.04-.01.09-.01.12-.01.21-.02.37.01.46.13"/>
          <path class="cls-18" d="M63.24,89.26c.29.2-.2.68-.34.86-.18.23-1.38,1.68-1.62,1.42-.38-.84,1.15-2.8,1.96-2.28"/>
          <path class="cls-15" d="M64.01,49.05c-1.18.12-2.38.07-3.57.05-.28,0-.53.14-.78.13-.28,0-2.14-.36-2.14-.58v-5.15c.27.12,1.73.23,1.8.28.05.04.35.88.51,1.13.13.18.34.24.42.38,1.08,1.57,1.87,2.96,3.77,3.75"/>
          <path class="cls-18" d="M63.03,84.79s-.08,0-.12.01c.04-.01.09-.01.12-.01"/>
          <path class="cls-18" d="M58.96,82.39c.26-.24.83-.6.7.05-.09.48-.92,1.74-1.17,2.35-.21.48-.99,3.14-1.13,3.23-.05.03-.1.05-.15.05-.29,0-.47-.62-.48-.89,0-.09,0-.18,0-.29.16-1.26,1.44-3.81,2.21-4.5"/>
          <path class="cls-15" d="M59.46,60.04h-1.95v-8.85c.35.46,1.71,1.22,1.79,1.65.15,2.39-.15,4.84.16,7.2"/>
          <path class="cls-15" d="M59.33,50.15c-.04.48.06,1.04,0,1.5-.02.15.05.27-.2.2-.29-.09-1.86-1.61-1.62-1.81l1.82.12h0Z"/>
          <path class="cls-15" d="M59.33,41.56v1.04c-.07.08-1.74-.07-1.81-.13-.07-.08.03-.84,0-1.03.6.18,1.21.12,1.82.12"/>
          <path class="cls-18" d="M58.98,68.48c.03.12.05.23.06.29-.02-.07-.04-.17-.06-.29"/>
          <path class="cls-18" d="M58.97,68.42c-.11-.48-.3-1.22-.77-1.75,0-.02,0-.02,0,0,.47.51.65,1.26.76,1.75"/>
          <path class="cls-18" d="M57.63,11.97c.21.33.42.64.65.96-.23-.32-.44-.63-.65-.96"/>
          <path class="cls-18" d="M56.75,8.78c.16.28.34.57.51.84-.17-.28-.34-.55-.51-.84"/>
          <path class="cls-19" d="M57.05,11.09c.03.05.06.11.1.16-2.12,1.74-4.56,2.84-7.13,3.35h-.02c-1.71-1.6-3.28-3.31-4.74-5.13-.24-.3-.48-.62-.71-.92-1.67-2.17-3.14-4.48-4.42-6.85-.17-.3-.34-.62-.5-.92-.19-.37-.38-.75-.56-1.12h12.35c.24.62.49,1.24.75,1.86.15.41.32.83.52,1.23.18.46.39.91.61,1.37.44.99.92,1.97,1.43,2.92.18.36.37.72.56,1.06.25.47.52.92.79,1.38.32.55.64,1.09.99,1.62"/>
          <path class="cls-6" d="M56.5,67.21s.08.03.12.04c-2.89.09-5.87,1.09-8.85,2.96-.06-.23-.22-.39-.41-.52,0,0-.02-.01-.03-.02-.07-.05-.13-.1-.21-.13-.21-.12-.43-.24-.61-.39-.05-.05-.11-.11-.14-.16-.06-.09-.12-.18-.14-.3-.12-.54.08-1.43.43-1.86.37-.46.69-.18,1.15-.27,1.47-.27,2.44-2.85,4.1-2.14.38.16.61.89.82,1.06.82.68,2.23-.91,3.05.51.18.3.22.8.4,1.03.03.03.07.07.11.09,0,.01.02.02.04.03.04.03.1.05.15.08"/>
          <path class="cls-18" d="M56.21,85.23c.02.3,0,.97-.09,1.53-.05.4-.15.74-.3.88-.19.17-.23-.07-.29-.16-.42-.58-.39-1.67-.44-2.57,0-.25-.03-.48-.08-.68-.15-.8-.77-1.69-.86-2.27-.03-.23,0-.29.17-.42,1.28.41,1.8,2.5,1.89,3.7"/>
          <path class="cls-15" d="M56.21,50.02v10.03c-.79.11-1.65-.09-2.4-.1-.26,0-1.88.33-1.88-.1v-1.96c0-.39-.64-1.22-1.11-1.25-1.45-.09-1.55,2.12-1.49,3.14l-2.08-.26v-12.62c2.58,1.93,5.75,2.94,8.97,3.12"/>
          <path class="cls-15" d="M56.21,43.19v4.89c-.15.16-1.92-1.12-2.13-1.3-.48-.4-2.3-2.32-2.37-2.82-.03-.18.12-.49.1-.76-.04-.54-.21-1.06-.14-1.63,1.73-.28,3.03,1.03,4.55,1.63"/>
          <path class="cls-4" d="M56.21,41.44c0,.85-.68.41-1.17.05l1.17-.05Z"/>
          <path class="cls-15" d="M56.08,48.65c.19.22.22.77-.08.84-.13.03-1.72-.23-2.03-.28-1.67-.29-3.44-.89-4.92-1.72-.26-.15-1.82-1.14-1.82-1.3v-2.67l3.9.33c1.04,1.67,2.18,3.02,3.78,4.16.26.17,1.04.52,1.16.65"/>
          <path class="cls-18" d="M54.71,7.03c.18.36.38.72.56,1.06-.19-.35-.38-.71-.56-1.06"/>
          <path class="cls-18" d="M53.88,84.97v.03c0,.51-.22,1.96-.67,1.02-.37-.77-.39-1.77-.78-2.6-.32-.67-1.05-1.31-1.31-1.95-.04-.11-.1-.22-.03-.28.02-.02.07-.04.12-.05,1.19-.25,2.65,2.8,2.68,3.83"/>
          <path class="cls-18" d="M52.8,18.41c.29.22.6.42.9.63-.3-.21-.61-.41-.9-.63"/>
          <path class="cls-18" d="M52.67,2.74c.18.46.39.91.61,1.37-.22-.46-.42-.91-.61-1.37"/>
          <path class="cls-18" d="M52.44-.21c.22.57.43,1.13.67,1.68-.24-.55-.45-1.12-.67-1.68"/>
          <path class="cls-18" d="M51.99,88.29c.17.5.45,2.42-.42,1.99-.55-.28-.51-1.13-.7-1.64-.48-1.22-1.8-1.81-2.42-2.89,0-.09.22-.28.31-.29.87-.18,2.94,2.02,3.23,2.83"/>
          <path class="cls-15" d="M51.4,40.27h-7.86c-.37,0-.47.65-.52.65-.11,0-1.22-.54-1.24-.61l.2-12.68c.56.26,2.61.05,2.94.45.22.26.83,2.76,1.06,3.37,1.2,3.26,2.92,6.39,5.43,8.82"/>
          <path class="cls-18" d="M50.24,16.38c.25.22.5.43.75.64-.25-.21-.5-.42-.75-.64"/>
          <path class="cls-15" d="M50.69,41.44c.32.1.16,1,.19,1.29-.12.13-3.15-.16-3.38-.31-.16-.11-.05-.98,0-.98.64,0,2.76-.13,3.18,0"/>
          <path class="cls-19" d="M47.48,13.75c.35.37.71.73,1.07,1.09-3.99.44-8.19-.41-11.98-2.31-3.25-2.17-6.5-5.43-7.58-9.77-.2-1.01-.17-2.02.03-3,2.96.02,5.91.03,8.86.03.96,2.4,2.41,4.71,3.88,6.86.5.73,1.01,1.44,1.54,2.15.16.23.34.46.51.68.22.28.43.55.65.82.31.4.64.79.97,1.18.65.77,1.33,1.53,2.05,2.26"/>
          <path class="cls-13" d="M47.77,70.21c0,.1,0,.2,0,.3,0-.11,0-.21-.02-.29,0,0,0-.01.02-.01"/>
          <path class="cls-6" d="M47.77,70.21s0,.01-.02.01c-.05-.23-.21-.39-.39-.53.19.13.36.29.41.52"/>
          <path class="cls-6" d="M47.33,69.67c-.07-.04-.13-.09-.21-.13.08.03.14.08.21.13"/>
          <path class="cls-13" d="M46.63,70.73c.06.01.15.05.24.09-.18.12-.36.23-.54.36,2.73,1.83-2.17,4.41-1.26,6.49-.14.14-.26.26-.37.35-.05.04-.11.08-.15.1-.04.03-.08.04-.11.04-.02,0-.04,0-.05-.01-.39-1.18.14-2.19,1.17-2.8.05-.23-.88-.63-1.01-1.19-.25-1.08.73-3.53,1.98-3.43.03,0,.05.01.1.02"/>
          <path class="cls-20" d="M46.2,64.34l.28,1.12c-1.09.42-1.58,2.19-1.44,3.23.04.27.37.89.32.99-.07.14-.55.38-.73.58-.14.16-.29.34-.42.53-4.48,1.55-8.86,3.23-13.06,4.74.27.27.68.54,1.13.8h-.03c-.11,0-.23.02-.35.07,0,0-.02,0-.04.02-.05.01-.11.03-.17.08-.13.07-.26.15-.39.26-.02.02-.05.04-.09.09-.05.03-.11.09-.15.14-.12.12-.22.24-.3.37-.05.07-.1.13-.14.2-.1.13-.17.28-.24.42-.08.15-.14.3-.18.46-.02.04-.03.09-.04.13,0,.02-.02.05-.02.09-.02.08-.04.15-.05.23-.5.12-.99.23-1.48.35-.01-.08-.02-.16-.04-.24-.01-.09-.03-.17-.07-.25-.01-.05-.03-.11-.05-.16,0-.01,0-.02-.01-.03-.01-.04-.03-.09-.05-.13-.11-.27-.26-.51-.44-.68-.01-.02-.03-.03-.04-.04-.02-.03-.04-.04-.06-.05-.02-.03-.04-.04-.07-.05-.2-.15-.41-.23-.65-.21-.07.08.13,1.12.33,1.98.01.04.02.09.02.12-.35.08-.67.15-1.01.22.02-.04.03-.11.04-.16s.02-.11.02-.17c.02-.62-.32-1.4-.63-1.67-.21-.18-1.08-.5-1.12-.11,0,.05.15.47.38.95.04.11.1.23.15.34.17.36.36.72.52.96-8.15,1.62-16.53,2.44-24.63,3.81.09-.11.18-.21.28-.32.21-.21.46-.41.7-.62.65-.5,1.35-.99,1.67-1.48.1-.16.16-.26.12-.46-.52-.51-3.03,1.28-3.67,1.92-.04.03-.08.07-.1.1-.07.08-.13.16-.19.25-.05.09-.12.18-.17.28-.07.09-.12.2-.17.29-.04.08-.08.15-.11.22-.02.03-.03.07-.05.1-.6.11-1.17.22-1.76.34v-11.44c.19.07.34.38.56.37,1.08-.08.09-2.22-.56-2.46v-11.72c.19.03.65-.21.77-.12.36.26.46,1.91.37,2.37-.09.49-.57.77-.23,1.31.1.16.4.16.5.43.17.49-.24.43-.25.5-.03.72.66,1.32.35,2.8-.09.42-.55.91-.57,1.12-.03.33.39.55.7.32.71-.55.95-3.11,1.08-3.2.44-.32,2.97.4,3.58.6.52-.04.36-.8.54-.93s2.04-.74,2.38-.82c.39-.1.76-.24,1.17-.2v9.9c-.53,0-3.01.93-2.14,1.69.52.45,3.25-.71,4.16-.78.51-.04,1.3-.04,1.81.01.41.04,3.08,1.09,2.76-.02-.18-.63-2.14-1.31-2.8-1.3v-8.97c2.59.52,5.52-1.39,8.08-1.01.68.1,1.21.55,1.91.63.1.11.05,2.74,0,2.9-.11.32-.96.12-1.3.66-.83,1.38,2.29.63,2.81.59.92-.07,1.87-.08,2.79-.13-.05.77.11,1.38.54,2,.13.18.41.25.48.43.02.07.25,1.21.26,1.31.05.52-.59.79-.5,1.34,1,.2,1.9-.4,2.81-.51,1.79-.21,3.52.27,5.25.51.02-.8-.76-1.12-1.3-1.5.67-.6,1.01-1.3.91-2.21,0-.06-.02-.13-.04-.2-.03-.12-.08-.26-.12-.38-.04-.14-.08-.25-.07-.32,0-.02,0-.04.02-.07.02-.02.03-.05.07-.08.14-.17.4-.39.51-.55.48-.75.27-1.38,0-2.16-.15-.45-.85-1.39-.88-1.6-.08-.46.28-1.21.13-1.75l4.68-.26v5.46c0,.12-1.64.16-1.82,1.12-.27,1.44,1.44.32,1.98.15,1.3-.4,2.57-.08,3.87-.36.12-.52-.91-.72-.91-.78v-2.6h4.16l-.04-.04ZM37.36,63.94c.54-.78-2.09-1.38-1.66-.08.17.53,1.52.27,1.66.08M17.71,69.32c.47-.08,1.73.16,1.73-.49,0-.55-1.16-.73-1.59-.68-.5.05-2.54.59-2.05,1.31.47.68,1.3-.04,1.91-.14M18.24,65.89c.66-1.03-1.67-1.54-1.76-.42-.09.91,1.57.73,1.76.42M3.55,70.75c.03-.16-.02-.61-.12-.66-1.07-.68-2.86,3.51-.99,2.95.27-.09,1.05-1.97,1.1-2.29M.4,72.28c.15-.47-.05-2.13-.35-2.53-.22-.29-.68-.29-.77-.01-.11.37,0,2.05,0,2.61,0,.23.88.65,1.12-.07M-.87,81.43c.25-.43,1.5-1.41.48-1.48-.71-.05-1.76,1.15-1.76,1.77v2.01c.24.05.26-.07.36-.23.38-.6.57-1.48.92-2.07"/>
          <path class="cls-6" d="M46.38,68.98c.03.05.09.11.14.16-.05-.05-.1-.11-.14-.16"/>
          <path class="cls-4" d="M46.07,41.44c.1.92-1.09.37-1.56.05l1.56-.05Z"/>
          <path class="cls-15" d="M45.94,45.8v13.39c0,.16-.05.25-.22.3-.37.13-3.55.54-3.68.41l-.26-16.4c.67-.02,1.34.03,2.01,0,.12,0,.28-.26.58-.07.12.08,1.53,2.18,1.56,2.36"/>
          <path class="cls-15" d="M44.77,43.25c1.65-.66,1.09.37,1.17,1.56-.27-.1-1.27-1.42-1.17-1.56"/>
          <path class="cls-15" d="M44.77,24.65c-.04.33.08.77,0,1.08-.02.12-.27.04-.27.28,0,.23.17.47.14.72-.39,0-2.54-.08-2.68-.25l-.05-1.83h2.86Z"/>
          <path class="cls-1" d="M44.64,22.3v1.04h-13.58c-.08,0-1.16-.64-1.32-.75-.12-.09-.24.02-.17-.29h15.08,0Z"/>
          <path class="cls-18" d="M43.3,8.8c.16.23.34.46.51.68-.17-.23-.35-.46-.51-.68"/>
          <path class="cls-15" d="M41.79,41.44c.15.11,1.86.77,1.56,1.03h-1.56v-1.03Z"/>
          <path class="cls-1" d="M41.14,27.97c.25,9.91.12,19.75-.13,29.66-.03,1.17.19,8.56-.05,8.93-.16.23-.88.13-.87-.2V24.72l1.05-.08c.03,1.1-.03,2.22,0,3.32"/>
          <path class="cls-15" d="M34.38,24.65h4.68c-.23.36-.08.75-.13,1.11-.02.2.08.21-.2.2-1.02-.05-2.37-.71-3.41-.88l-.94-.42h0Z"/>
          <path class="cls-15" d="M38.93,43.45v14.38c-.38.08-.22-.27-.44-.52-.3-.33-.96-.49-1.31-.77-1.32-1.1-.53-3.64-1.1-3.97-.93-.55-1.52,1.44-2.25,1.23-.27-.08-.87-1.74-.93-2.06-.09-.42-.02-.81-.1-1.22-.22-1.21-1.34-.71-1.4.29-1.49-.78-.66-3.04-.91-4.35-.09-.47-.67-.64-.97-.33-.38.38-.55,2.83-1.15,2.73-.9-.15-.23-2.98-1.06-3.12-1.13-.21-.85.98-1.01,1.6-.15.62-.8,1.78-1.22,2.27-.09.1,0,.25-.3.16v-13.92c3.06,3.64,7.11,5.78,11.67,6.99.37.1,2.49.47,2.49.62"/>
          <path class="cls-15" d="M38.93,39.68v2.4c-.25.25-3.3-.61-3.83-.77-3.18-.97-6.47-2.74-8.84-5.07-.5-.49-1.43-1.48-1.5-2.15-.14-1.37-.08-3.93.01-5.34.02-.38.16-.73.13-1.11l6.38.32c1.54,4.51,3.93,8.7,7.66,11.73"/>
          <path class="cls-15" d="M38.93,27.11v11.33c-2.9-2.25-5-5.47-6.46-8.82-.76-1.74-1.32-2.86-1.08-4.79.02-.17-.07-.22.2-.18,2.32,1.14,4.8,2.01,7.34,2.47"/>
          <path class="cls-17" d="M37.5,58.1c.06.07.09,1.65.26,1.94-1.19-.25-2.44.13-3.63.26-.02-1.12-.8-1.83-1.2-2.64-.12-.24-.12-.53-.25-.79-.6-1.1-1.1-2.49-2.64-2.28-.53.07-.41.34-.68.48-.23.12-.43.07-.76.29-.92.64-1.42,3.02-1.51,4.1-.04.54.32.84-.14,1.41-.51.65-1.14.18-1.8.22l-.13,1.04-.11-11.05c.94-.3,1.39-1.27,1.99-1.97.54.93,1.45,1.14,2.34.51.49,1.13.46,1.73,1.69,2.23.21.09.6.09.69.15.26.18.54,2.46,1.55,2.93.9.42,1.44-.14,1.66-.1.17.03.28.89.39,1.17.27.66.76,1.49,1.41,1.85.29.16.83.21.87.24"/>
          <path class="cls-18" d="M35.7,63.87c-.43-1.3,2.2-.71,1.66.08-.14.2-1.48.46-1.66-.08"/>
          <path class="cls-18" d="M37.23,79.06c.32.46-.73,1.05-.96,1.28-.27.27-.9,1.23-1.35.9-.87-.61,1.81-2.92,2.32-2.18"/>
          <path class="cls-18" d="M34.52,77.51c.47-.09,1.55-.1,1.09.63-.05.1-.98.54-1.22.73-.48.36-.93,1.05-1.37,1.36-.61.42-.82-.73-.44-1.35.15-.26.66-.67,1.14-.99.29-.18.57-.34.76-.37,0,0,.02-.01.04-.01"/>
          <path class="cls-20" d="M34.52,77.51s-.03.01-.04.01c-.18.03-.47.18-.76.37-.8.24-1.61.46-2.42.66.13-.24.27-.47.42-.66.07-.08.16-.17.28-.27s.26-.2.39-.32h0c.28-.23.52-.47.47-.65,0-.01,0-.01,0-.01.7.37,1.39.68,1.65.87"/>
          <path class="cls-13" d="M33.29,64.13c.3.3.82,1.54.79,1.96-.06.64-1,1.1-1.12,1.48-.31,1.05,1.21,1.12-.15,2.44-.78.77-.78.48-1.62.46-.51-.01-1.05-.03-1.56-.01-.53.03-1.03.45-1.26-.02-.07-.12-.1-.23-.13-.32h0c1.81-4.32-.6-9.79,4-9.79.21-.07.39-.11.57-.13.03.14.05.28.08.43.03.21.05.42.06.64.03.51.02,1.01,0,1.44-.04.39-.53.78-.05,1.25.11.11.34.1.4.17"/>
          <path class="cls-13" d="M32.89,60.62c.03.22.05.42.06.64,0-.22-.03-.43-.06-.64"/>
          <path class="cls-18" d="M32.87,76.65c.05.19-.18.42-.47.65.27-.23.5-.46.47-.65"/>
          <path class="cls-18" d="M32.87,76.65c.03.2-.2.42-.47.65h0c-.13.11-.27.22-.39.32s-.22.2-.28.27c-.37.47-.68,1.14-.96,1.76-.1.2-.18.39-.28.58-.14-.11-.24-.24-.3-.39-.13-.28-.14-.62-.09-.97,0-.08.03-.15.04-.23,0-.03,0-.07.02-.09.02-.04.03-.09.04-.13.05-.15.12-.3.18-.46.08-.14.15-.28.24-.42.04-.07.09-.13.14-.2.1-.13.2-.26.3-.37.05-.05.1-.1.15-.14.03-.04.07-.07.09-.09.13-.11.26-.2.39-.26.06-.03.12-.07.17-.08.02-.02.03-.02.04-.02.12-.04.24-.07.35-.07h.03c.07,0,.13.01.18.03.03,0,.05,0,.06.01.08.02.14.05.21.1.04.02.07.06.09.09.02.02.03.04.03.07,0,0,0,.01,0,.02,0,0,0,0,0,.01"/>
          <path class="cls-18" d="M32.86,76.62s0-.04-.03-.06c.02.02.03.04.03.06"/>
          <path class="cls-6" d="M32.8,60.12s0,.04.02.07c-.18.02-.37.07-.57.13-4.59,0-2.19,5.46-4,9.78-.18-.73.37-1.02.28-1.38-.14-.55-.89.32-1.04.18-.22-1.1-.26-2.51.34-3.5.16-.27.53-.41.59-.74.11-.75-.57-.61-.73-.84-.24-.34.21-1.92.36-2.38.11-.3.43-.62.46-.84.03-.22-.23-.64-.24-1.02-.01-.64.48-2.82.93-3.25.14-.13.42-.13.52-.28.1-.15.1-.54.12-.57.14-.14,1.02.38,1.22.66.58.76.42,1.36.69,2.03.13.34.65.77.85,1.25.04.12.09.23.12.36.03.11.07.22.09.33"/>
          <path class="cls-18" d="M32.01,77.62c.12-.1.26-.21.39-.31-.13.12-.27.22-.39.31"/>
          <path class="cls-18" d="M31.21,76.84s-.1.09-.15.14c.04-.05.1-.11.15-.14"/>
          <path class="cls-18" d="M31.06,76.98c-.11.11-.21.24-.3.37.09-.13.18-.25.3-.37"/>
          <path class="cls-18" d="M30.62,77.54c-.09.14-.16.28-.24.42.07-.14.14-.29.24-.42"/>
          <polygon class="cls-15" points="30.48 24.65 30.35 26.72 24.89 26.46 24.89 24.65 30.48 24.65"/>
          <path class="cls-18" d="M30.38,77.96c-.07.15-.13.3-.18.46.04-.15.11-.3.18-.46"/>
          <path class="cls-18" d="M30.2,78.42s-.02.09-.04.13c0-.04.02-.09.04-.13"/>
          <path class="cls-18" d="M30.13,78.64c0,.08-.03.15-.04.23h0c0-.08.03-.15.05-.23"/>
          <path class="cls-18" d="M30.09,78.87c-.05.35-.04.68.09.97-.13-.28-.15-.62-.1-.97h0Z"/>
          <path class="cls-1" d="M29.05,23.34l-10.27.13c.05-.57-.25-1.1.45-1.18,1.58-.2,6.47-.18,8.06.01.61.07,1.33.62,1.76,1.04"/>
          <path class="cls-18" d="M28.59,79.21c.06.46,0,.88-.23,1.11-.09.1-.51.22-.61.15-.01-.01-.02-.02-.03-.04,0-.02-.01-.05-.03-.1-.01-.03-.02-.08-.04-.13-.05-.18-.12-.46-.18-.75l-.03-.12c-.21-.86-.4-1.9-.34-1.98.24-.02.46.05.65.21.02.01.04.03.06.05.02.01.04.02.07.05.02.01.03.03.04.04.18.17.34.41.45.68.02.04.03.09.05.13.01.01.01.02.01.03.02.04.03.1.05.16.03.08.05.16.06.25.02.08.03.16.04.24"/>
          <path class="cls-18" d="M28.55,78.97c.02.08.03.16.04.24-.01-.08-.02-.16-.04-.24"/>
          <path class="cls-18" d="M28.49,78.72c-.02-.06-.03-.12-.05-.16.02.05.04.11.05.16"/>
          <path class="cls-18" d="M28.42,78.53s-.03-.09-.05-.13c.02.04.04.09.05.13"/>
          <path class="cls-18" d="M27.92,77.71s-.02-.03-.04-.04c.01.01.03.02.04.04"/>
          <path class="cls-18" d="M27.81,77.62s-.04-.04-.07-.05c.02.01.04.02.07.05"/>
          <path class="cls-18" d="M27.73,80.43s-.02-.05-.03-.1c.02.04.03.08.03.1"/>
          <path class="cls-18" d="M27.69,80.33s-.02-.08-.04-.13c.02.05.03.1.04.13"/>
          <path class="cls-18" d="M27.43,79.33l.03.12h-.01s-.01-.08-.02-.12"/>
          <path class="cls-18" d="M27.36,87.12c.22.29-1.73,1.62-1.95,1.88-.25.3-.76,1.88-1.37,1.25-1.12-1.15,1.94-4.04,3.31-3.13"/>
          <path class="cls-20" d="M26.46,64.01c.05.34.36.62.35.9-.01.39-.45,1.05-.49,1.51-.05-.03-.12-.05-.17-.08-.07-.02-.12-.04-.18-.05-.13-.03-.26-.05-.39-.07-.25-.04-.5-.09-.68-.26v-3.7c.62.04,1.08.54,1.69.26-.12.48-.21.99-.12,1.49"/>
          <path class="cls-15" d="M26.58,21.65h-7.73s-.16-.16-.36-.12c-.19.06-.83.78-.86,1-.02.2.11.32.11.36v2.28c-1.96-.34-4.03-.93-5.85-1.76V7.6l2.6,1.5c.66.35,3.57,1.51,3.83,1.76.3.29,1.52,2.93,1.96,3.63,1.71,2.7,3.88,5.08,6.29,7.17"/>
          <path class="cls-18" d="M25.89,77.66c.3.27.65,1.05.63,1.67,0,.07-.01.12-.02.17-.01.05-.02.12-.04.16-.01.04-.03.09-.05.13-.03.07-.07.12-.12.16-.04.04-.1.09-.16.12-.04.01-.09-.02-.15-.1-.02-.02-.04-.04-.07-.08-.03-.03-.05-.07-.08-.11-.16-.24-.35-.6-.52-.96-.05-.11-.11-.23-.15-.34-.23-.49-.38-.9-.38-.96.03-.39.91-.08,1.12.11"/>
          <path class="cls-18" d="M26.39,79.8s.04-.09.05-.13c-.01.04-.03.09-.05.13"/>
          <path class="cls-20" d="M26.32,66.42h0s-.12-.05-.17-.08c.05.02.12.04.17.08"/>
          <path class="cls-18" d="M25.9,79.91s.04.05.06.08c-.02-.01-.04-.04-.06-.08"/>
          <path class="cls-20" d="M25.57,66.22c.13.01.26.03.39.07-.13-.03-.26-.04-.39-.07"/>
          <path class="cls-18" d="M25.53,85.25c.14.49-1.39,1.03-1.81,1.41-.38.34-1.26,1.97-1.62,1.89-.27-.06-.23-1.13-.18-1.36.16-1.01,1.44-2.1,2.43-2.26.43-.08.92-.08,1.19.31"/>
          <rect class="cls-1" x="23.06" y="27.37" width="1.19" height="38.8"/>
          <path class="cls-1" d="M23.65,24.51c.81.04.34,1.23.45,1.83-1.16.21-1.17-.37-1.04-1.37.05-.42.13-.49.59-.46"/>
          <path class="cls-15" d="M21.84,24.52c.29.09.27,1.25.08,1.5-.14.11-3.15-.47-3.31-.58-.2-.14-.07-.92.12-.92.63,0,2.71-.13,3.12,0"/>
          <path class="cls-13" d="M21.9,46.84v15.16c-1.15-.59-2.14-.76-3.44-.65-1.32.1-3.48,1.04-4.55,1.04h-2.01v-17.44s.34-.07.52-.2c.56-.43,1.26-1.26,1.67-1.85.18-.26.38-.8.53-1,.27-.35.29.23.44.46.27.39.71.85,1.2.89.22.02.67-.15.7-.13.1.1.3,1.95,1.05,2.53.44.36,1.13.46,1.65.24.21-.09.43-.47.62-.42.05,0,.45.62.65.78.19.14.98.48.98.59M20.22,54.27c.72-.5-1.32-1.9-1.62-2.3-.21-.27-.67-1.04-.73-1.36-.09-.5,0-1.38,0-1.94,0-.33-.3-.43-.59-.21-.73.55-.64,2.55-.34,3.35.35.89,2.27,3.15,3.28,2.46M18.31,58.22c.24-.02.7-.21.54-.52-.2-.36-1.45-1.02-1.9-1.62-.56-.77-.51-1.97-1.43-2.28-.76,1.42,1.31,4.56,2.78,4.42M14.82,60.84c.45.27.81.11.69-.43-.1-.48-1.48-2.06-1.97-1.91-.78.25.93,2.14,1.28,2.35"/>
          <path class="cls-15" d="M21.9,31.61v13.6c-.26.11-.47-.4-.52-.58-.15-.51-.03-1.43-.71-1.51-.94-.11-.78,1.91-1.67,1.68-1.15-.29-.65-4.27-1.08-4.55-.91-.61-1.01,1.18-1.27,1.7-.09.17-.2.5-.4.25-.87-1.07-.23-2.76-.45-3.96-.08-.4-.41-.57-.78-.39-.44.21-.96,2.6-1.28,3.28-.4.88-1.07,1.91-1.84,2.51v-16.14c2.14.14,4.29.18,6.43,0,1.18-.1,2.38-.65,3.57-.26v2.74l-1.41-2.04-.28-.24c.1.33.21.66.32.98.18.45,1.37,2.77,1.37,2.93"/>
          <path class="cls-18" d="M18.78,83.47c1.55.05,1.81,2.26,1.69,3.45-.02.21-.3,1.3-.4,1.36-.79.52-.75-2.02-.78-2.26-.14-.89-.5-1.67-.51-2.55"/>
          <path class="cls-18" d="M18.6,51.96c.3.4,2.35,1.8,1.62,2.3-1.01.68-2.94-1.58-3.28-2.47-.3-.79-.39-2.79.34-3.35.29-.23.6-.12.6.21,0,.56-.09,1.44,0,1.94.06.32.52,1.09.73,1.36"/>
          <path class="cls-18" d="M18.86,57.7c.16.32-.3.5-.54.52-1.47.14-3.54-3-2.78-4.42.92.32.87,1.51,1.43,2.28.44.6,1.7,1.26,1.9,1.62"/>
          <path class="cls-18" d="M19.44,68.83c0,.65-1.27.41-1.73.49-.61.1-1.44.83-1.91.14-.5-.73,1.55-1.26,2.05-1.31.43-.04,1.59.13,1.59.68"/>
          <path class="cls-1" d="M18.65,3.03c-.08.42.25,1.33-.33,1.43h-8.72c-.68-.07-1.45-.77-1.87-1.3h10.46c.1,0,.27-.21.46-.13"/>
          <path class="cls-18" d="M16.47,65.46c.1-1.12,2.43-.61,1.76.42-.2.3-1.85.49-1.76-.42"/>
          <path class="cls-15" d="M17.48,5.64v3.65c-1.12-.4-2.22-.93-3.25-1.5-.38-.21-2.07-1.15-2.25-1.36-.16-.18-.04-.55-.22-.79,0,0,5.72,0,5.72,0Z"/>
          <path class="cls-15" d="M11.89,24.65l5.46,1.56c-.04.23-.25.24-.44.26-.55.05-4.83.03-5-.14-.08-.08.04-1.41-.01-1.68"/>
          <path class="cls-18" d="M16.57,85.1c.49.67,1.45,3.73.63,4.2-.83.48-.94-1.81-1.08-2.31-.09-.33-.22-.77-.36-1.08-.15-.36-.86-1.27-.87-1.35-.11-.79,1.34.08,1.68.53"/>
          <path class="cls-18" d="M15.51,60.4c.12.54-.24.71-.69.43-.35-.21-2.06-2.1-1.28-2.35.49-.15,1.87,1.43,1.97,1.91"/>
          <path class="cls-18" d="M14.48,89.41c.08.65-.23,1.01-.69.43l-1.25-2.46c1.09-.22,1.85,1.13,1.94,2.03"/>
          <path class="cls-1" d="M10.73,7.26c.15,19.89-.03,39.76-.03,59.66v5.6c-.22.14-1.26.25-1.28.08l-.07-66.83c.57.34,1.43.72,1.38,1.49"/>
        </g>
      </g>
      <g class="cls-3">
        <g>
          <path class="cls-1" d="M10.7,66.92c0,1.87,0,3.74.01,5.6h-.01v-5.6Z"/>
          <path class="cls-15" d="M8.25,5.64c.05.14-.13.28-.13.33v15.81c-3.47-1.64-6.82-4.2-9.36-7.09-.21-.23-.81-.9-.91-1.11-.11-.23-.11-.34-.13-.58-.19-2.29.01-5.14.01-7.49l10.53.13h-.01Z"/>
        </g>
      </g>
      <g class="cls-14">
        <g>
          <path class="cls-13" d="M7.86,38.44l.27,1.49v21.81c-1.05-.03-2.29.38-3.17.93-.25.16-1.13.98-1.2.99-.12.02-1.83-.52-2.23-.59-.34-.05-1.01.03-1.2-.1-.08-.04-.38-.79-.39-.92-.04-.49.28-1.19.27-1.81,0-.77-.59-2.53-1.31-2.86-.21-.1-.48-.03-.65-.13-.19-.12-.21-.63-.52-.72v-3.39c.78-.15.62-.87,0-1.17v-18.23c.52.95.79,1.91,1.92,2.32,1.02.37,1.49.05,2.24-.63.1,1.47.46,3.86,2.05,4.4.18.07.41,0,.6.03.1.03.09.23.17.25,1.09.27,2.4-1.04,3.16-1.68M7.18,51.62c1.13-.52-.91-1.35-1.27-1.65-.22-.18-1.4-1.67-1.4-1.83.5-.81,2.44-.37,2.03-1.67-.1-.29-1.17-.87-1.47-1.13-.69-.61-1.34-1.51-1.62-2.4-.09-.24-.31-2.36-.78-2.02-.09.07-.37.9-.39,1.1-.21,1.91.88,3.37,2.2,4.58-1.24,1.47-1.33,2.11-.12,3.62.6.73,1.82,1.88,2.83,1.4M4.2,54.54c.36.74,2.49,2.56,2.86,1.03-.3-.29-2.68-2.16-2.9-2.16-.35.08-.07.93.04,1.13M4.56,59.27c.29-.03.92-.3.69-.64-.07-.1-1.8-.71-2.15-.91-.73-.41-1.1-1.1-1.86-1.31-.19,1.58,1.89,3.03,3.33,2.87"/>
          <path class="cls-15" d="M8.12,22.95v3.12c-3.49-.49-7-.98-10.4-1.94,0-3.08,0-6.17,0-9.24,2.97,3.26,6.32,6.28,10.4,8.07"/>
          <path class="cls-15" d="M8.1,27.26v8.16c-.89.17-.77,1.22-1.08,1.98-.26.63-1.47,2-2.18,1.8-.14-.04-.82-.74-.93-.9-.62-.89-.77-2.5-.86-3.57-.04-.66.3-2.56-.48-2.64-.96-.08-1.16,3.43-2.32,2.99-.89-.35-1.25-1.98-1.37-2.82-.11-.88.36-2.23-1.17-1.75v-5.2c3.4.9,6.89,1.5,10.38,1.97"/>
          <path class="cls-1" d="M7.6,4.4l-9.87.07v-1.3H6.24c.25.05,1.26.93,1.37,1.24"/>
          <path class="cls-18" d="M5.91,49.96c.36.3,2.39,1.13,1.27,1.65-1.01.48-2.23-.67-2.83-1.4-1.21-1.51-1.13-2.15.12-3.62-1.32-1.22-2.4-2.67-2.2-4.58.02-.2.3-1.03.39-1.1.47-.34.69,1.78.78,2.02.28.89.93,1.79,1.62,2.4.3.26,1.38.84,1.47,1.13.41,1.3-1.53.86-2.02,1.67,0,.15,1.18,1.64,1.4,1.82"/>
          <path class="cls-18" d="M7.06,55.57c-.37,1.53-2.5-.29-2.86-1.03-.11-.2-.39-1.05-.04-1.13.23,0,2.6,1.87,2.9,2.16"/>
        </g>
      </g>
      <g class="cls-7">
        <g>
          <path class="cls-18" d="M5.25,58.63c.23.34-.4.61-.69.64-1.44.16-3.52-1.28-3.32-2.87.76.22,1.14.9,1.86,1.32.36.21,2.09.81,2.16.91"/>
          <path class="cls-15" d="M4.68,1.47c.1.13.26.17.19.39H-2.14s-.13-.14-.13-.32V-.35H3.05c.4.7,1.17,1.23,1.62,1.81"/>
        </g>
      </g>
      <g class="cls-8">
        <g>
          <path class="cls-18" d="M3.96,80.74c.04.2-.02.29-.12.46-.31.49-1.02.98-1.67,1.48-.25.21-.5.4-.7.62-.11.1-.21.21-.29.32-.38.5-1.26,2.64-1.38,2.73-.42.27-.62-.55-.64-.87-.02-.27.02-.57.09-.86.03-.12.07-.24.11-.36h0c.04-.12.09-.24.14-.35,0-.03.03-.07.04-.1.03-.07.07-.14.11-.22.05-.1.11-.2.17-.29.05-.1.12-.19.17-.28.08-.09.14-.17.21-.25.02-.03.05-.07.09-.1.64-.64,3.15-2.43,3.67-1.92"/>
          <path class="cls-18" d="M3.43,70.09c.1.05.15.5.12.66-.05.33-.83,2.2-1.1,2.29-1.87.55-.09-3.64.99-2.95"/>
          <path class="cls-18" d="M1.89,85.49c.1-1.19,1.8-2.07,1.94-1.15,0,.15-1.25,1.93-1.34,2.01-.12.09-.36.18-.47.12-.08-.05-.15-.8-.13-.98"/>
          <path class="cls-18" d="M.05,69.75c.29.4.5,2.06.35,2.53-.24.72-1.12.29-1.12.07,0-.55-.11-2.24,0-2.61.09-.28.55-.28.77.01"/>
          <path class="cls-18" d="M-.39,79.95c1.03.07-.23,1.04-.48,1.48-.35.6-.54,1.48-.92,2.07-.1.16-.12.28-.36.23v-2.01c0-.62,1.04-1.82,1.76-1.77"/>
        </g>
      </g>
    </g>
  </g>
</svg>