<?xml version="1.0" encoding="UTF-8"?>
<svg id="Layer_1" data-name="Layer 1" xmlns="http://www.w3.org/2000/svg" xmlns:xlink="http://www.w3.org/1999/xlink" viewBox="0 0 90 90">
  <defs>
    <style>
      .cls-1 {
        fill: #bb9889;
      }

      .cls-2 {
        fill: #abe0f9;
      }

      .cls-3 {
        fill: #b4a129;
      }

      .cls-4 {
        fill: #bfbebe;
      }

      .cls-5 {
        fill: #a3af65;
      }

      .cls-6 {
        fill: #b6c370;
      }

      .cls-7 {
        fill: #5f845f;
      }

      .cls-8 {
        fill: none;
      }

      .cls-9 {
        fill: #d5d781;
      }

      .cls-10 {
        fill: #b7aca2;
      }

      .cls-11 {
        clip-path: url(#clippath-1);
      }

      .cls-12 {
        fill: #908881;
      }

      .cls-13 {
        fill: #727849;
      }

      .cls-14 {
        fill: #849a52;
      }

      .cls-15 {
        fill: #ffdd2e;
      }

      .cls-16 {
        fill: #663925;
      }

      .cls-17 {
        fill: #a69b91;
      }

      .cls-18 {
        clip-path: url(#clippath);
      }
    </style>
    <clipPath id="clippath">
      <rect class="cls-8" x="0" width="90" height="90"/>
    </clipPath>
    <clipPath id="clippath-1">
      <rect class="cls-8" x="-3.33" y="-.35" width="94.35" height="90.71"/>
    </clipPath>
  </defs>
  <g class="cls-18">
    <g class="cls-11">
      <g>
        <path class="cls-12" d="M91.22,90.22v4.18h-14.2c-.26-2.5-3.12-2.48-4.86-1.41-.46.27-1.08.79-1,1.41h-3.39c-.4-1.32-2.59-1.43-2.86,0h-2.74c.08-.33-.16-.27-.35-.37-1.96-1.05-3.93-2.13-5.9-3.15-.32-.48,1.29-1.09,1.65-1.14,1.03-.16,1.69.18,2.64.36.09.07-.63,1.46.22,1.69.41.11.63-.58.97-.83,1.21-.91,2.2.59,2.86.25.55-.38.08-1.16-.35-1.48-.99-.73-2.35-.47-3.35.09l-1.13-.63c-.27-.38,1.63-.87,1.9-.9,1.27-.16,1.96.08,2.99.77,1.16-.52,1.95-1.11,3.24-.5.57.26,1.22,1.3,1.76.68l-.23-.88c1.2-1.04,2.69-1.58,4.29-1.12-.47.51-.92,1.07-.32,1.69.72-.22,1.34-.76,2.1-.88.84-.13,1.69-.08,2.37.43.34.24.71.97.99.98.66-.34.52-1.27.2-1.84.65-.12,1.03-.58,1.76-.65.51-.05,1.44-.04,1.88.21.16.1,1.02,1.12,1.04.26.03-1.09-1.34-1.66-2.27-1.64-1.02.02-2.78.51-2.42,1.83-.7-1.17-2.69-1.39-3.89-1.04l-.4-.77c.27-.02.57.03.84,0,3.56-.41,7.14-.98,10.69-1.3,1.12-.11,2.25-.28,3.33.13l-.9.6c-.54.58-.84,1.33-.07,1.86l.33-.07c.3-1.01,1.63-1.47,2.59-1.09v3.25c-.61.11-1.03.53-.9,1.17l.9-.13v-.02ZM87.19,90.09c-.27-1.09-2-1.42-2.74-.72-.24.22-.52.66.03.55,1.08-.2,1.67.04,2.71.16M82.76,93.04c.49-.6-.79-1.63-1.4-1.74-1.23-.23-3.09.49-3.43,1.79.97-.1,2.47-.91,3.38-.59.45.16.95,1.15,1.45.53M74.03,91.79c.08-.88-1.14-1.45-1.89-1.45-.7,0-2.25.57-2.27,1.38l.2.47c.46.05,1.1-.46,1.56-.52.81-.13,1.6.22,2.41.12"/>
        <path class="cls-16" d="M91.22,83.32v2.61c-.96-.38-2.28.08-2.59,1.09l-.33.07c-.77-.53-.48-1.28.07-1.86l.9-.6c-1.08-.41-2.21-.24-3.33-.13-3.56.33-7.13.89-10.69,1.3-.27.03-.57-.02-.84,0l.4.77c1.21-.35,3.2-.13,3.89,1.04.33.57.47,1.5-.2,1.84-.28-.01-.65-.74-.99-.98-.68-.51-1.53-.57-2.37-.43-.76.12-1.38.66-2.1.88-.61-.62-.15-1.17.32-1.69-1.6-.46-3.09.08-4.29,1.12l.23.88c-.54.62-1.2-.42-1.76-.68-1.29-.61-2.08-.02-3.24.5-1.03-.7-1.72-.93-2.99-.77-.27.03-2.17.52-1.9.9l1.13.63c1-.55,2.36-.82,3.35-.09.42.32.9,1.1.35,1.48-.66.34-1.65-1.16-2.86-.25-.34.25-.56.93-.97.83-.85-.23-.13-1.62-.22-1.69-.96-.17-1.61-.52-2.64-.36-.36.05-1.97.66-1.65,1.14,1.98,1.02,3.95,2.1,5.91,3.15.18.1.42.04.35.37h-2.48c-8.21-4.49-16.24-9.39-23.64-15.13-8.85-6.85-18.91-17.15-20.66-28.67-.05-.35-.11-.71-.2-1.04-.11,0-.08.88-.07,1.04,1.02,13.79,12.13,24.87,22.43,32.9,5.1,3.97,10.51,7.53,16.02,10.9h-2.74c-1.16-.96-2.54-1.67-3.82-2.5-13.61-8.94-31.51-23.13-33.19-40.58-.38-3.92.25-7.43,1.62-10.52,3.52-7.97,11.95-13.21,20.66-15.81l.13-.2c-.5-.21-1.04-.35-1.55-.52-4.44-1.48-9.74-1.4-14.41-1.69-.32-.02-.63-.2-.98-.13v4.3c1.1.26,2.52.49,3.39,1.24.16.14.67.7.51.83-.04.04-.13.04-.29,0-1.16-.33-2.3-.95-3.61-.89l-.07,1.31c.22.36,1.82.12.98,1.23l-.58.21c-.57-.16-1.04-.59-1.63-.73-.33-.08-1.5-.11-1.64-.3-.25-.34.1-.74.43-.82v-1.26c-1.33-.21-2.72-.41-4.08-.54-3.11-.29-6.52-.55-9.64-.65-2.14-.08-4.31.05-6.46,0v-1.3c5.97-.13,11.86.45,17.79.91.31-.05.93-.46,1.09-.73.24-.37.72-2.41.39-2.64l-1.26-.03c-.3-.21.1-2.05-.6-2.6-.46-.36-2.01.12-2.59-.24-.18-.12-.93-1.3-1.2-1.58-.16-.18-.43-.26-.58-.47-.6-.87.92-.97,1.22-1.49.41-.72.12-2.09-.51-2.6-.2-.17-.48-.22-.65-.4-.21-.22-.25-.63-.4-.89-.42-.71-1.08-1.17-1.94-1.04-.81.12-.66.89-1.08,1.01-.57.16-.96-.31-1.54-.25-.51.04-.84.64-1.37.48-.75-.23-.46-1.35-.53-1.96-.07-.59-.47-2.24-.96-2.55-.6-.39-1.12.41-1.99.03-.99-1.01-1.62-2.62-3.3-1.46.02-1.38-.24-1.88,1.5-1.7,1.12.11,1.76,1.11,2.41,1.89l.29.04c2.35-1.04,3.3,2.31,3.22,4.06.3.05.58-.13.85-.13s.51.17.78.14c.29-.04.82-.66,1.14-.82,1.11-.52,1.9-.03,2.89.42.88-1.27,1.99-2.11,3.62-1.92.61.07,1.27.46,1.73.49.51.03,1.08-.26,1.63-.14.03-.88-.04-1.78-.01-2.67.01-.28.12-.51.14-.77.11-1.48-.34-2.01,1.63-1.89,3.32.2,6.8-.02,10.17,0,5.18.03,10.48.08,15.63.14.52,0,.97-.14,1.5,0v8.6l8.15-.14.33.21v5.53c1.14.19,2.3.39,3.42.69,1.16.32,2.82.48,2.45,2.05h.39l.4-1.49c-1.47-.82-1.22-2.42-1.05-3.85-1.44.24-2.46-.93-1.7-2.27-.03-.16-.53-.33-.71-.47-1.21-.95-.91-2.86.58-3.26.07-.33-.21-.55-.25-.85-.23-1.49,1.2-1.96,2.21-2.6l-1.07-1.01c-.54-1.66,1.71-2.19,2.96-2.06.84.09,1.38.58,1.89,1.17V-.23c.39,0,.78,0,1.18,0v54.48c.67,0,1.35-.07,2.01.13l.07-54.61c.43,0,.87,0,1.3,0V.94c.07.08,1.11-1.04,1.52-1.14.58-.13,1.62-.02,2.26-.02-.16.77-1.08.72-1.65,1.01-1.17.6-2.01,1.8-1.62,3.14l-.51.14v34.41c3.4-1.12,6.83-3.21,8.86-6.2.03-.18.01-.23-.18-.18-1.11.27-2.84,1.25-3.4-.4-1.52.83-3.57.95-4.2-.99l.37-.63c2.37-.98,4.83-1.92,6.77-3.65.22-.43-.75.03-.85.05-.87.21-1.7.18-2.34-.51l-.09-.33.66-1.24c-1.2-.02-2.98.4-4.02-.33-.34-.24-.58-.61-.58-.96,0-.25.12-.48.39-.65.6-.37,2.15-.53,3-.9,1.53-.67,4.22-2.95,4.93-4.46.04-.11.16-.34,0-.39-1.15,1.16-2.87,1.41-4.44,1.44-.24,0-.45-.34-.42-.57.04-.4.63-.59.63-1h-1.89s-.65-.36-.73-.45c-.16-.21-.22-.6-.49-.8l.14-.41c1.59-.38,3.06-.96,4.38-1.92.99-.72,2.57-2.28,2.96-3.44.07-.21.18-.43-.14-.4-.52.08-3.12,1.47-2.64-.03l1.01-1.65c-.58.12-3.33.48-3.11-.58.4-.53,1.04-.79,1.54-1.2,1.9-1.54,3.46-3.55,4.18-5.92.39,0,.78,0,1.17,0-.49,2.16-1.7,4.24-3.2,5.86-.25.28-.62.63-.98.78-.03.24.25.08.37.03.33-.11.65-.35,1-.3l.4.39-.79,2.09c.69-.21,1.24-.49,1.69-1.04.22-.27.17-.71.66-.65.77.08.18,1.88.03,2.38-.61,1.9-1.92,3.52-3.5,4.72l-1.94,1.24c.46.02,1.36-.37,1.7.05.41.68-.2,1.26-.65,1.71.88.17,1.86-.43,2.48-1.03.36-.35,1.03-1.42,1.35-1.64.17-.12.32-.17.52-.11.66.51-.13,1.4-.16,1.77-.02.18.53.75.11,1.14l.96-.48.83-.74c.5-.14.67.25.54.67-.15.5-1.9,1.64-2.42,1.76-.26.05-.6-.04-.82.09-.14.09-1.09,1.48-1.37,1.76-1.27,1.35-2.74,2.22-4.47,2.84-.21.08-.35-.08-.28.28.55-.04,1.2-.07,1.74-.14.5-.07,1.33-.33,1.74-.34.16-.01.29.05.42.16l.22.72c-.4.64-.89,1.2-1.49,1.65-.22.17-.32.18.03.16,1.02-.07,2.64-1.12,3.5-1.72.48-.33,1.94-1.64,2.29-1.74.93-.27.46.8.44,1.07-.02.33.2.84.1,1.22.14.15.61-.41.71-.53.27-.34.76-1.57.85-1.62.9-.55.64.88.37,1.41-.05.11-.11.22-.17.33-.82,1.3-2.48,2.47-2.67.02-.05-.05-1.34.89-1.39.96-.28.32-.65,1.24-.98,1.7-1.47,2.04-3.88,3.15-6.1,4.2-.15.07-.36.12-.39.32.97.14,1.75-.33,2.57-.75.6-.32,1.4-1.16,1.71.02-.05.47-.86.71-.75,1.25,1.13.14,2.15-.28,3.11-.85.32-.18,1.32-1.23,1.55-.49.23.7.01,1.41.02,2.12,1.16-.03,1.77-1.41,2.34-2.28.29-.1.75-.16.89.16.24.59.3,1.24.51,1.84.24.71,1.02,2.75,1.99,2.31l1.65-1.48c.73-.11-.11,1.41-.29,1.66-1.44,2.03-3.11.79-3.99-.95-.13-.25-.59-1.77-.69-1.77-.89,1.1-2.76,2.44-3.39.38-1,1.96-2.49,3.35-4.25,4.62-1.05.76-3.97,2.72-5.19,2.48-.18-.04-.3-.17-.27.13.12.19.26.19.46.21,1.83.2,4.28-1.2,6.1-1.56l.49.58c-.36,1.38.16,1.87,1.57,1.57.65-.14,1.82-1.25,2.34-.92l.21.33c-.24,1.52-1.46,2.67-2.43,3.78,1.63-.34,3.63-1.23,4.75-2.49.26-.3.27-.75.78-.75.46,0,.58.36.68.74.3,1.01.21,2.94,1.6,3.02.12-.54.55-3.11.91-3.33.63-.38,1.39.8,1.83,1.18,1.01.88,2.1,1.71,3.38,2.15v1.05c-1.86-.26-3.37-1.71-4.62-3-.32-.05-.15.14-.2.33-.15.71-.16,1.64-.35,2.26-.48,1.59-2.63.02-3.11-1.02-.12-.28-.38-1.57-.52-1.57-1.3,1.12-3.06,2.07-4.74,2.41-.65.14-2.83.45-2.47-.76.1-.31,1.21-.89,1.54-1.2.13-.11.93-.84.78-.98-1.39.43-3.34-.08-3.26-1.83-.1-.13-2.81.78-3.23.88-.99.24-1.74.35-2.76.16v9.52c.42-.12.76-.41,1.17-.59.33-.12,1.03-.36,1.34-.3l.42.24c.83.78-1.58,1.11-2.11,1.41-.95.52-.87,1.11-.83,2.11,1.05-.71,2.38-1.2,3.64-.77.12,1.1-1.12.87-1.91,1.12-1.09.35-1.8,1.09-2.62,1.81-.85.11-1.66-.16-2.56-.08-.75.08-1.17.53-1.85.53-.05,0-.11,0-.17,0-.38-1.01.95-1.1,1.04-1.62.12-.63.02-2.14,0-2.88-.02-1.39-.03-2.77-.04-4.19l-.09-10.07c-.95.15-1.32-.48-1.77-1.15-1.65.65-3.33-.11-3.45-1.97-2.34.32-3.2-2.37-1.69-3.92-.99-.2-1.29-.89-1.19-1.76.02-.11.04-.22.07-.34.26-1.09,1.88-2.12,2.93-2.35l.09-1.28c-2.97.93-6.04,2.28-9.19,2.21-.22-.2.47-.48.58-.52,1.02-.45,2.26-.59,3.33-.91-.37-.39-.25-.8-.26-1.3,0-.29,0-.61,0-.9l-7.55,1.3c0,.91-.02,1.83,0,2.73v1.04h.52c.12.66-.46.86-.97,1.04-.57.22-2.02.74-2.54.78l-.38-.58.89-.66v-3.85c-2.19.42-4.33,1.25-6.34,2.2-2.45,1.15-5.18,2.63-6.54,5.06-1.65,2.96-2.88,5.12-1.88,8.62,1.25,4.36,5.07,8.65,9.17,12.2,2.47,2.15,5.05,4.03,7.24,5.53,9.45,6.4,19.99,11.09,30.48,15.53.37-.15.53-.46.93-.63.92-.44,2.15-.36,3.1-.01l.97-.8c.3-.46-1.15-.97-1.49-1.02-.96-.12-1.39.36-2.27.51-.34-.87.57-1.57,1.38-1.68,1.4-.2,2.75.41,3.4,1.69,1.2-.12,2.6.22,3.25,1.3,1.66-.65,3.22,1.15,3.04,2.73l2.91-.02.73-.89v1.17c-.22.11-.32.34-.59.39-.34.05-3.38.05-3.62-.02-.48-.27-.26-.85-.41-1.28-.14-.37-.71-.8-.98-1.11-.68-.31-1.01.26-1.47.17-.42-.08-.58-.61-.97-.87-.91-.61-2.26-.53-3.17.04.53.32,1.13.91.58,1.5-.73-.45-1.33-.92-2.22-1.03-.58-.07-1.64-.13-2.01.38l14.86,5.6v.91c-.25.03-.48-.04-.72-.12-6.06-2.03-12.39-4.63-18.26-7.16-14.79-6.33-30.46-13.95-41.32-26.07l-.43-.34c.65,1.29,1.72,2.6,2.67,3.71,7.54,8.76,20.58,15.96,30.91,20.97,8.84,4.29,17.96,8.05,27.16,11.49M85.36,83.45c.04-.23-.05-.26-.23-.36-.47-.28-4.25-1.75-4.66-1.73-11.28,1.18-22.57,2.64-33.89,3.39-.2.01-.38-.1-.33.2l4,2.51c9.7-.76,19.38-2.17,29.05-3.35,2.01-.24,4.03-.39,6.05-.66M53.89,83.32l24.69-2.74c-.03-.2-.24-.25-.39-.33-.79-.37-2.63-1.24-3.38-1.45-.29-.08-.47.09-.7.05-.24-.03-.6-.34-.87-.43-1.48-.48-2.64.07-4.04.46-.03-.89.78-1.27,1.3-1.82-1.15-.11-2.24.29-3.32.64-.47-.4-.11-.95.25-1.31.22-.22.62-.3.59-.64l-3.77-1.77-8.99.99.39,1.04c-.14.14-1.35-.35-1.64-.38-1.34-.17-2.68.37-3.96.64l.13-.65-9.39.91c.86,1.8-.57.98-1.5.91-1.01-.08-1.63.26-2.41.85l7.96,5.73c.4.16.9-.15,1.36-.2.54-.05,1.13.05,1.67-.02.38-.39.51-.9.93-1.28,1.44-1.29,4.23-1.02,5.09.78M63.86,6.22l-.15-1.35c-.53-.05-.83-.6-1.33-.82-.74-.34-1.55-.3-2.24.14l-.04.39c.34.11.86.59.97.91.51,1.53-1.96,1.61-2.24,2.48-.23.73,1.01,1.05.67,1.83-.21.41-1.51.23-1.74.87-.21.79.41,1.43,1.21,1.35.33-.03.69-.4,1.11-.26.09.49-.42.58-.72.91-.38.42-.52.9-.46,1.48.09.35,1.57.15,1.89.22.73.13.09,1.02,0,1.42-.26,1.05-.26,1.89.65,2.62.26.23.96-.27,1.1.2.14.48-.3.61-.51.9-.6.84-.97,2.87.3,3.2.39.97-.84.67-1.36.84-.39.12-1.29,1.01-1.31,1.43,0,.54.85.51.48,1.25-1.36.28-2.99.79-3.46,2.27,0,.75,1.86.57,1.95.91,0,.55-.63.73-.98,1.1-.55.61-.87,1.43-.33,2.17.65.72,1.53,0,1.97.25l.35,1.6c.4.54.93.63,1.58.47.71-.18,1.12-.9,1.85-.57-.28.75-.13,1.49.72,1.7l.07-29.92h0ZM62.03,73.15c.04-.23-.07-.26-.22-.37-.79-.58-2.39-1.25-3.37-1.2-6.07.3-12.37,1.75-18.5,1.83l-8.41.46,2.31,2c4.35.05,8.67-.58,13.01-.89l15.18-1.83ZM60.55,22.52l-.28-1.5c-1.64,1.36-3.85,1.16-5.84,1.59l-.22.17v2.01c1.42-.36,2.83-.8,4.26-1.14.24-.05.51.01.73-.05.09-.02,1.34-.99,1.35-1.08M58.78,20.76l-.15-.77-3.68.14-.2.2-.02.96,4.04-.52h.01ZM57.28,70.8l.2-.25-7.24-3.91-19.74,1.83c.05.24.25.24.46.26.97.11,2.27.12,2.94.98.22.29.45.6-.08.72-1.16-.1-2.11-.73-3.33-.47-.41.09-.75.41-1.16.47,0-.23-.03-.48.02-.7.08-.24.44-.3.37-.61h-2.99c.89.95,1.73,1.96,2.66,2.87.18.17.4.28.59.45.3.27,1.07,1.21,1.37,1.25,1.65-.28,3.27-.75,4.95-.92.91-.09,1.96-.04,2.87-.13,6.02-.53,12.08-1.2,18.12-1.83M56.95,89.18l-.22-.37c-1.03-.16-1.87.1-2.74.6-.14.09-.23-.01-.17.29l1.36.66c.35-.66,1.04-1.09,1.77-1.18M53.17,21.54l.14-2.52c-.08-.3-3.26-.38-3.78-.48l.21.63,3.06.08.12.86h-2.53s-.46.16-.47.21v1.62l3.26-.39h0ZM53.3,17.63v-4.69h-7.56v2.09c.95.14,1.23,1.39,1.3,2.21l6.25.39h.01ZM52.33,83.45c.21-.01.33-.09.18-.26-1.26-.66-2.65-.55-3.64.52,1.15-.03,2.29-.22,3.46-.26M49.13,22.2c.03-.91,0-1.73-.2-2.61-.1-.4-.17-1.08-.65-1.17-.7-.14-1.79.11-2.54,0v.78h2.35v.91h-2.35l-.13,2.61s3.52-.52,3.52-.52ZM48.53,65.85c.16-.02.32-.09.34-.26-.6-.15-1.03-.74-1.6-.93-.72-.25-2.1.1-2.9.15-5.42.43-10.85.91-16.29,1.18-1.14.05-2.36.04-3.51.13-.2.01-.38-.1-.33.2l1.13,1.22c1.38,0,2.77.09,4.15.02,5.69-.23,12.02-.95,17.72-1.57.4-.04.93-.08,1.29-.13M46.13,17.24l-.26-1.17c-.22.01-.28-.08-.23.17.07.34.16.63.1,1h.39ZM45.61,63.76c.05-.24-.08-.25-.22-.37-1.4-1.2-3.34-2.22-4.81-3.4-5.97.64-11.97,1.44-17.98,1.57-.17,0-.35.11-.52.11-.32,0-.74-.22-1.11-.11.1.22.22.43.34.64.3.51,1.71,2.64,2.1,2.86.47.26,2.56.16,3.24.15,5.83-.15,12.01-.92,17.85-1.45.37-.03.74.02,1.11,0M43.91,28.19l1.15-.33c0-.07-.11-.1-.11-.13V4.47h-1.04v23.72ZM43.14,17.29l-.07-2.01-1.37-.51v2.73c.22.03,1.4-.01,1.44-.21M43.13,23.37v-5.09h-3.45s-.18-.18-.33-.13l-.39.91c.54.1,2.78-.45,2.99.22.12.38-.58,1.53-.97,1.61-.52.09-1.82,0-2.34-.14-.34-.09-.37-.33-.66-.38-.62.95-1.52,1.76-.96,2.98,1.05.16,2.11.12,3.18.14.28,0,.57.14.91.15.65,0,1.35-.3,2.01-.27M43.13,12.16v-7.69h-23.72v7.62c.35.43.74.97,1.11,1.37.16.17.34.42.59.39l.2-.78c.25-.28.84-.21.96-.61.16-.54-.38-1.49-.38-2.2.01-1.74,1.65-1.65,2.98-1.65,1.21-1.82,3.05-2.83,4.64-.75.33.42.46.91.81,1.28.94-.32,1.57-.45,2.39.21.71.57.89,1.37,1.37,1.89.17.18.46.22.65.39.66.59.11,1.73.2,1.83.51-.33,1.17-.24,1.72-.43.52-.17.89-.61,1.6-.61.98,0,1.79.76,2.67,1.04,0-.49-.14-1,.33-1.3,0,0,1.88,0,1.88,0ZM43,14.51l.13-1.7-1.3.05c-.22.14-.15.98-.07,1.25l1.24.39h0ZM40.92,17.63l-.13-2.91c-.99-.36-1.96-1.52-3.1-1.02-.24.1-.37.36-.71.47-.37.11-.71.04-1.05.11-.58.12-1.03.51-1.49.86-.34.08-.71.1-.85-.26-.33-.67.6-1.65.41-2.44-.91-.02-1-1.05-1.5-1.7-.32-.39-.74-.85-1.28-.79-.47.05-.78.6-1.38.33-.79-.37-1.22-2.95-2.86-2.34-.16.05-1.04.71-1.11.84-.23.5.12.72.19,1.12.09.55.05,1.69-.72,1.23-.25-1.16-1.05-1.54-2.14-1.11-.59.49.84,2.46-.33,3.46-.18.16-.54.23-.65.39-.22.35-.07,1.17-.78,1.29-.96.17-1.34-.54-2.01-1.03l-.14,7.17,6.85.39c3.21.39,6.53.51,9.57,1.69-.24-.59,0-1.11.2-1.69l2.05-3.61,2.97-.44h-.01ZM39.16,59.08c.18-.02.37-.04.2-.26-.66-.37-.8-.57-1.63-.52-3.75.18-7.68.82-11.46,1.04-1.39.09-3.25.31-4.57.27-.65-.02-1.36-.25-2.02-.21l.78,1.3c.38.23,2.36-.15,2.94-.2,5.27-.39,10.52-.8,15.77-1.44M24.17,58.42l13.22-1.04-2.27-2.09-.39-.13-16.49.91,1.38,3.14s4.55-.79,4.55-.79ZM37.27,25.71c-.29.04-.57-.12-.85-.13-.89-.04-4.99,1.93-6.02,2.46-1.01.52-2.16,1.14-3.04,1.85l2.64-.16c1.61-1.26,3.32-2.21,5.19-3.03.66-.29,1.59-.4,2.08-.98M33.63,54.16l-.03-.72-16.01.91.03.71s16.01-.9,16.01-.9ZM17.32,53.42l15-.86c-.66-.68-1.24-1.7-1.88-2.35-.36-.37-.83-.28-1.32-.26-3.39.2-6.78.63-10.16.79-.72.03-1.45-.04-2.15,0,0,0,.51,2.69.51,2.69ZM27.81,31.96l1.24-1.42h-2.8c-.22,0-1.7,1.14-1.89,1.42,0,0,3.45,0,3.45,0ZM16.42,48.52l12.25-.65c-.2-.36-.84-1.67-1.23-1.68-.92.25-1.92.09-2.88.12-1.95.07-3.92.29-5.85.4-.35,0-2.24-.09-2.29.21v1.61h0ZM28.04,49.14c.22-.03.6-.04.49-.36l-11.98.65v.39c.77.11,1.55-.09,2.27-.13,3-.15,6.25-.16,9.22-.55M26.5,34.03l.86-1.41h-3.84c-.33.48-.96.79-1.3,1.17-.12.13-.24.18-.2.39,0,0,4.48-.15,4.48-.15ZM26.39,45.52l.84-.26c-1.05.02-2.13-.04-3.2,0-1.89.05-3.83.28-5.72.4-.16,0-2.44-.11-1.89.39,0,0,9.97-.52,9.97-.52ZM26.85,44.48l-.46-1.17-.26-.13-9.24.12-.34,1.71,10.3-.52h0ZM25.72,36.25l.35-1.28-5.12.26-.88,1.3,5.66-.28h-.01ZM25.8,41.48l-.14-1.42-7.59.41-.41.24-.33,1.16s8.47-.39,8.47-.39ZM25.67,38.75v-1.3c-2.11-.02-4.21-.03-6.3.15l-1,1.66s7.3-.51,7.3-.51ZM18.53,42.62c.13-.02.52-.04.49-.23h-1.82c.2.42.96.27,1.33.23M18.82,29.1l-.2-24.63c-.04-.05-1.25.09-1.16.46v23.84l1.36.34h0ZM16.81,26.23l-.02-.83-.24-.74c-.01.15-.08.32-.15.43-.64,1.01-1.48,1.23.41,1.13M16.68,21.09l-.12-10.96c-.57-.25-1.08.25-1.63.21-.43-.03-.9-.41-1.35-.49-1.41-.25-2.53.49-3.15,1.73.12.78.87.98,1.27,1.59.61.89.83,2.5.22,3.42-.2.28-.79.59-.7.96.02.08.9,1.22.98,1.25.86-.04,1.63-.36,2.4.21.79.59,1,1.46.9,2.41h.96s.22-.33.22-.33Z"/>
        <path class="cls-4" d="M91.22,80.84v2.48c-9.2-3.44-18.32-7.2-27.16-11.48-10.33-5.01-23.37-12.21-30.91-20.97-.95-1.11-2.01-2.41-2.66-3.71l.43.34c10.85,12.11,26.53,19.74,41.32,26.07,5.87,2.52,12.2,5.12,18.26,7.16.24.08.47.15.72.12"/>
        <path class="cls-10" d="M91.22,76.15v3.77l-14.86-5.6c.37-.51,1.43-.45,2.01-.38.89.11,1.49.59,2.22,1.03.55-.59-.04-1.18-.58-1.5.9-.58,2.25-.65,3.16-.04.39.26.54.79.97.87.46.09.78-.48,1.47-.17.27.3.84.74.98,1.11.15.44-.07,1.01.41,1.28.24.08,3.29.08,3.62.02.27-.05.37-.28.59-.39"/>
        <path class="cls-12" d="M91.22,68.2v6.78l-.73.89-2.91.02c.17-1.58-1.38-3.38-3.05-2.73-.65-1.09-2.06-1.42-3.25-1.3-.65-1.27-2-1.88-3.4-1.69-.82.11-1.72.8-1.38,1.67.88-.15,1.32-.63,2.27-.51.34.05,1.79.56,1.49,1.02l-.97.8c-.95-.35-2.18-.42-3.1.01-.39.17-.55.48-.93.63-10.49-4.44-21.03-9.12-30.48-15.53-2.2-1.49-4.77-3.37-7.24-5.53l.45-.5c.28.34,1.47.27,1.79.35,1.02.21,1.88.86,2.53,1.64.86-.07,1.54-.27,2.38.09.25.1.52.4.74.42.21.02.51-.2.77-.23.46-.04,1.27-.08,1.66.14.34.18.46.65,1,.5-.15-.91-.88-1.35-1.76-1.42-.05,0-.12,0-.17,0l1.79-.26c0,.32.64.02.86,0,1.17-.07,1.84.39,2.93.52.04-1.04-1.35-1.56-2.47-1.46l.02-1.17c.39,0,.93-.58,1.32-.78.32-.17.57-.24.87-.37-.07.28.16.27.32.39,3.1,2.39,6.5,4.31,10.01,6.06,3.46,1.74,7,3.32,10.44,5.05,4.77,1.67,9.46,3.65,14.24,5.32,1.29.46,2.61.92,3.97,1.17M83,69.03l.12-.35c-.53-1.47-3.52-1.42-3.49.3.76-.14,1.51-.41,2.28-.14.37.13.77.7,1.09.18M76.3,67.42c.47,0,1.02.49,1.37.07-.41-1.23-1.7-1.17-2.65-.57-.12.08-.76.61-.6.76.15.14,1.55-.26,1.88-.26M72.81,66.34c.39.18.71.74,1.21.68-.07-.45-.11-1.07-.42-1.39-.89-.88-3.61-.59-4.24.57-.2.35-.12.72.29.83.77-.78,2.14-1.16,3.17-.68M72.8,69.75c.5.13.5-.41.38-.77-.2-.64-1.34-1.05-1.96-1.04-.74.02-1.53.58-2.19.5-.21-.02-.84-.2-1-.3-.3-.18-.54-.82-1-1.08-1.21-.71-3.22-.4-3.04,1.28.79-.12,1.08-.53,2.01-.38.77.11.91.79,1.21.88.38.11,1.04.09,1.5.18.29.07.67.32.84.34.2.01.36-.25.57-.32,1.12-.35,1.88-.14,2.69.71M66.38,61.02c.48-.14.34-1.1.04-1.39-.37-.37-1.55-.36-2.06-.24-.78.18-1.76,1.38-.71,1.39.54,0,1.02-.41,1.82-.27.39.07.53.62.9.51M56.23,58.96c.7-.07.1-1.02-.36-1.22-.34-.14-.96-.15-1.32-.07-.43.1-.86.7-.4,1,.79-.37,1.33.15,2.08.28M53.87,54.78c.46.02,1,.48,1.51.38-.34-1.62-1.77-1.61-2.74-.45.1.61.77.04,1.23.07M51.52,56.85c.3-.09.21-.41.04-.6-.4-.46-1.91-.64-2.5-.55-.24.03-.42.24-.63.23-.42-.02-.97-.39-1.59-.37-.41,0-1.36.21-1.37.72.68.17,1.4.23,2.09.39.45.11.84.49,1.32.27l.2-.47c.8-.16,1.96.53,2.45.38"/>
        <path class="cls-6" d="M79.22,53.25c-2.33-1.67-6.61-3.43-10.94-5.46v2.56c.42-.12.76-.41,1.17-.59.33-.12,1.03-.36,1.34-.3l.42.24c.83.78-1.58,1.11-2.11,1.41-.95.52-.87,1.11-.83,2.11,1.05-.71,2.38-1.2,3.64-.77.12,1.1-1.12.87-1.91,1.12-1.09.35-1.8,1.09-2.62,1.81-.85.11-1.66-.16-2.56-.08-.75.08-1.17.53-1.85.53l-.41.84c3.46,1.74,7,3.32,10.44,5.05,4.77,1.67,9.46,3.65,14.24,5.32,1.3.46,2.61.92,3.97,1.17v-12.03c-4.99.24-9.82,1.43-14.17,3.6,0-2.18,3.26-5.44,2.18-6.53"/>
        <path class="cls-1" d="M86.6,42.13c-.32-.05-.15.14-.2.33-.15.71-.16,1.64-.35,2.26-.48,1.59-2.63.02-3.11-1.02-.12-.28-.38-1.57-.52-1.57-1.29,1.12-3.06,2.07-4.74,2.41-.65.14-2.83.45-2.47-.76.1-.3,1.21-.89,1.54-1.2.13-.11.92-.84.78-.98-1.39.43-3.34-.08-3.26-1.83-.1-.13-2.81.78-3.23.88-.99.24-1.74.35-2.76.16v6.96c4.34,2.03,8.61,3.8,10.94,5.46,1.09,1.09-2.17,4.35-2.17,6.53,4.35-2.17,9.18-3.36,14.17-3.6v-11.04c-1.86-.26-3.37-1.71-4.62-3"/>
        <path class="cls-13" d="M91.22,42.91v1.18c-1.28-.45-2.37-1.27-3.38-2.15-.43-.37-1.2-1.56-1.83-1.17-.36.22-.79,2.78-.91,3.33-1.39-.09-1.29-2.01-1.6-3.02-.11-.38-.23-.74-.68-.74-.51,0-.52.45-.78.75-1.12,1.26-3.12,2.15-4.75,2.49.97-1.11,2.19-2.26,2.43-3.78l-.21-.33c-.52-.33-1.69.78-2.34.92-1.4.31-1.92-.18-1.57-1.57l-.49-.58c-1.82.36-4.27,1.75-6.1,1.56-.2-.02-.34-.02-.46-.21-.03-.3.09-.17.27-.13,1.22.24,4.13-1.72,5.19-2.48,1.76-1.27,3.25-2.66,4.25-4.62.63,2.06,2.5.72,3.39-.38.1,0,.55,1.52.68,1.77.88,1.74,2.56,2.98,3.99.95.18-.25,1.02-1.77.29-1.66l-1.65,1.48c-.97.45-1.75-1.6-1.99-2.31-.21-.6-.27-1.25-.51-1.84-.14-.33-.6-.26-.89-.16-.57.87-1.17,2.25-2.34,2.28-.01-.71.21-1.42-.02-2.12-.24-.74-1.24.3-1.55.49-.96.57-1.98.99-3.11.85-.11-.54.7-.78.75-1.25-.3-1.18-1.11-.34-1.71-.02-.82.42-1.6.89-2.57.75.03-.2.24-.25.39-.32,2.22-1.04,4.63-2.15,6.1-4.2.33-.46.7-1.38.98-1.7.05-.07,1.34-1.01,1.39-.96.18,2.45,1.85,1.28,2.66-.02l3.1.55c-.36,1.25-.09,2.87,1.22,3.38,1.24.2,1.51-1.71,2.08-2.48.78.49,1.29,1.38,2.27,1.57v4.82c-.66-.33-.71-1.39-1.61-.92l-.09.21c-.14.77.55,1.45,1.11,1.9.2.15.29.3.59.25v7.43c-.88.15-.45,1.22-.29,1.81.07.23-.09.49.29.41"/>
        <path class="cls-16" d="M91.22,31.83v1.44c-.29.05-.39-.1-.59-.25-.55-.46-1.25-1.13-1.11-1.9l.09-.21c.9-.47.95.6,1.61.92"/>
        <path class="cls-16" d="M91.22,25.71v1.31c-.98-.18-1.49-1.08-2.27-1.57-.57.77-.84,2.67-2.08,2.48-1.3-.51-1.58-2.13-1.22-3.38.03-.11.07-.21.11-.32l.38-.29c1.1-.3.37,2.07.85,2.56.54-.45,1.14-2.85,1.82-2.86.71-.02,1.46,2.08,2.41,2.08"/>
        <path class="cls-13" d="M91.22,18.54v7.17c-.96,0-1.71-2.1-2.41-2.08-.68.01-1.27,2.41-1.82,2.86-.48-.49.25-2.86-.85-2.56l-.38.29c-.04.11-.08.21-.11.32l-3.1-.55c.07-.11.12-.22.17-.33.27-.53.53-1.97-.37-1.41-.09.05-.58,1.28-.85,1.62-.1.12-.57.68-.71.53.1-.38-.12-.89-.1-1.22.02-.26.49-1.34-.43-1.07-.36.1-1.82,1.41-2.29,1.74-.86.6-2.48,1.65-3.5,1.72-.35.02-.25.01-.03-.16.6-.46,1.09-1.01,1.49-1.65l-.22-.72c-.13-.11-.26-.17-.42-.16-.41.01-1.24.27-1.74.34-.54.08-1.19.1-1.74.14-.07-.36.08-.21.28-.28,1.73-.62,3.2-1.49,4.47-2.84.28-.28,1.23-1.67,1.37-1.76.22-.13.55-.03.82-.09.52-.12,2.27-1.26,2.43-1.76.13-.42-.04-.82-.54-.67l-.83.74-.96.48c.42-.39-.13-.96-.11-1.14.03-.37.83-1.26.16-1.77-.21-.07-.35-.01-.52.11-.32.22-.99,1.29-1.35,1.64-.62.6-1.6,1.21-2.48,1.03.46-.45,1.07-1.02.65-1.71-.34-.42-1.24-.03-1.7-.05l1.94-1.24c1.58-1.2,2.89-2.82,3.5-4.72.15-.5.74-2.3-.03-2.38-.49-.06-.45.38-.66.65-.45.55-1,.84-1.69,1.04l.79-2.09-.4-.39c-.35-.04-.67.2-1,.3-.12.04-.4.21-.37-.03.36-.15.73-.5.98-.78,1.5-1.62,2.71-3.7,3.2-5.86,3.21-.01,6.44-.08,9.65,0,.43.75.99,1.84,1.82,2.21v5.48c-.75.01-1.66-1.57-2.25-1.42-.55.14-.28,1.77-.48,2.4-.03.11.07.26-.2.18-.51-.15-1.53-1.24-1.78-1.73-.24-.48-.28-1.51-1.15-1.07-.78.39.44,2.23.85,2.68.5.53,1.99,1.67,2.73,1.55.76-.27.73-1.4.73-2.08l1.56.64v8.73c-.78-.17-1.65-2.45-2.48-1.89-.36,1.13-.04,2.42-.71,3.46l-.39.14c-.79-.09-1.22-.67-1.52-1.35-.34-.75-.32-2.27-1.35-1.13-.24,1.71,1.5,4,3.36,3.61.99-.21,1.53-1.79,1.4-2.71.52.38.97,1.03,1.69,1.04"/>
        <path class="cls-16" d="M91.22,17.37v1.18c-.72-.01-1.16-.66-1.69-1.05.13.91-.41,2.5-1.4,2.71-1.86.39-3.6-1.9-3.36-3.61,1.03-1.14,1.01.38,1.35,1.13.3.67.73,1.26,1.52,1.35l.39-.14c.66-1.03.35-2.33.71-3.46.83-.55,1.7,1.72,2.48,1.89"/>
        <path class="cls-16" d="M91.22,7.47v1.16l-1.56-.64c0,.67.03,1.8-.73,2.08-.74.12-2.23-1.02-2.73-1.56-.41-.45-1.63-2.28-.85-2.67.87-.45.91.59,1.15,1.07.25.49,1.27,1.58,1.78,1.73.26.08.16-.08.2-.18.2-.63-.08-2.26.48-2.4.59-.14,1.5,1.44,2.25,1.42"/>
        <path class="cls-16" d="M91.22.16v1.83c-.83-.37-1.38-1.46-1.82-2.21.68.01,1.3-.18,1.82.38"/>
        <path class="cls-2" d="M91.22-.35V.16c-.51-.57-1.13-.37-1.82-.38-3.21-.08-6.44,0-9.65,0h-1.17c-2.18,0-4.35-.03-6.51,0-.64,0-1.69-.11-2.26.02-.41.1-1.46,1.22-1.52,1.14V-.23h-4.55V3.95c-.51-.6-1.05-1.09-1.89-1.17-1.25-.13-3.5.39-2.96,2.06l1.07,1.01c-1.01.64-2.44,1.11-2.21,2.6.04.29.32.52.25.85-1.49.4-1.78,2.32-.58,3.26.17.14.67.3.71.47-.76,1.34.26,2.51,1.7,2.27-.16,1.42-.41,3.03,1.05,3.85l-.4,1.49h-.39c.37-1.58-1.28-1.74-2.45-2.06-1.11-.29-2.27-.5-3.42-.68v-5.54l-.33-.21-8.15.14V3.69c-.53-.14-.98.01-1.5,0-5.14-.07-10.45-.11-15.63-.14-3.37,0-6.85.21-10.17,0-1.97-.12-1.52.41-1.63,1.89-.02.26-.13.49-.14.77-.03.89.04,1.79.01,2.68-.56-.12-1.12.17-1.63.14-.46-.03-1.12-.42-1.73-.49-1.63-.18-2.74.65-3.62,1.93-.99-.46-1.78-.95-2.89-.42-.33.15-.85.77-1.14.82-.27.03-.52-.14-.78-.14s-.54.18-.85.13c.08-1.75-.87-5.1-3.22-4.06l-.29-.04c-.65-.78-1.29-1.78-2.41-1.89-1.74-.18-1.48.32-1.5,1.7-.1,6.16.01,12.34,0,18.5v39.88c.01,9.82,0,19.64,0,29.46h-.13V-.35h94.75-.02Z"/>
        <path class="cls-16" d="M84.45,89.38c.74-.71,2.47-.37,2.74.72-1.03-.12-1.63-.36-2.71-.16-.55.11-.27-.34-.03-.56"/>
        <path class="cls-4" d="M85.13,83.09c.17.1.27.13.23.36-2.01.27-4.03.42-6.05.66-9.67,1.17-19.35,2.59-29.05,3.35l-4-2.51c-.05-.29.13-.18.33-.2,11.32-.75,22.61-2.21,33.89-3.39.4-.02,4.19,1.45,4.66,1.73"/>
        <path class="cls-16" d="M81.13,85.79c.93-.02,2.31.56,2.27,1.64-.02.86-.88-.16-1.04-.26-.45-.25-1.37-.26-1.88-.21-.73.08-1.11.53-1.76.65-.37-1.32,1.39-1.8,2.41-1.83"/>
        <path class="cls-16" d="M83.12,68.68l-.12.35c-.32.51-.72-.05-1.09-.18-.77-.27-1.52,0-2.28.14-.03-1.73,2.96-1.77,3.49-.31"/>
        <path class="cls-14" d="M72.07-.22c2.16-.03,4.34,0,6.51,0-.72,2.37-2.27,4.37-4.18,5.92-.5.4-1.14.66-1.54,1.2-.22,1.05,2.53.7,3.11.58l-1.01,1.65c-.48,1.5,2.12.11,2.64.03.33-.03.21.2.14.4-.39,1.15-1.97,2.72-2.96,3.44-1.33.97-2.8,1.54-4.38,1.92l-.14.41c.27.21.33.6.49.8.08.09.68.45.73.45h1.89c0,.41-.59.6-.63,1-.02.23.18.57.42.57,1.57-.02,3.29-.27,4.44-1.43.16.05.04.28,0,.39-.71,1.51-3.39,3.79-4.93,4.46-.85.37-2.4.53-3,.9-.27.17-.39.4-.39.65h-1V4.08l.51-.14c-.39-1.34.45-2.54,1.62-3.14.58-.29,1.49-.24,1.65-1.01"/>
        <path class="cls-12" d="M78.58,80.58l-24.69,2.74c-.86-1.81-3.65-2.08-5.09-.78-.42.38-.55.89-.93,1.28-.54.08-1.13-.03-1.67.02-.46.04-.96.36-1.36.2l-7.96-5.73c.78-.59,1.4-.92,2.41-.85.93.07,2.36.89,1.5-.91l9.39-.91-.13.65c1.28-.27,2.62-.82,3.96-.64.29.03,1.5.52,1.64.38l-.39-1.04,8.99-.99,3.77,1.77c.03.34-.37.42-.59.64-.36.36-.72.9-.25,1.3,1.08-.35,2.16-.75,3.32-.64-.52.54-1.34.92-1.3,1.82,1.4-.39,2.57-.93,4.05-.46.27.1.63.4.87.43.23.03.4-.13.7-.05.75.21,2.59,1.08,3.38,1.45.15.08.36.13.39.33M65.55,79.01c-.1-2.86-4.44-1.71-4.83.39.92-.25,1.69-.93,2.67-1.04,1.08-.11,1.23.43,2.15.65M59.22,80.97c.39-.76-1.05-1.6-1.7-1.68-1.12-.14-2.96.61-2.8,1.95.54-.18,1.24-.64,1.78-.75.35-.08.88-.08,1.21.04.45.15,1.16,1.13,1.5.45M51.96,79.51c.39.02.6-.47.16-.82-.92-.74-2.52-1.37-3.71-1.24-.5.04-1.03.45-1.43.39-.24-.03-.55-.42-.88-.56-1.4-.53-3.21.21-3.09,1.85.13.14,1.37-.76,1.69-.85.38-.11.91.15,1.3.21l-.26,1.16c1.59-.34,2.13-1.26,3.91-.98.72.12,1.86.8,2.31.83"/>
        <path class="cls-16" d="M77.67,67.48c-.35.42-.9-.06-1.37-.06-.33,0-1.73.4-1.88.26-.16-.15.48-.68.6-.76.96-.61,2.24-.66,2.65.57"/>
        <path class="cls-14" d="M76.96,32.1c.2-.04.22,0,.18.19-2.03,2.99-5.46,5.08-8.86,6.2v-15.37h1c0,.35.24.72.58.96,1.04.73,2.83.3,4.02.33l-.66,1.24.09.33c.64.7,1.47.72,2.34.51.1-.02,1.07-.49.85-.05-1.94,1.73-4.39,2.67-6.76,3.65l-.37.63c.63,1.94,2.68,1.82,4.2.99.57,1.65,2.3.67,3.4.4"/>
        <path class="cls-16" d="M74.02,67.03c-.5.05-.82-.5-1.21-.68-1.02-.48-2.39-.1-3.16.68-.41-.11-.49-.48-.29-.83.63-1.15,3.35-1.45,4.24-.57.32.33.36.95.42,1.39"/>
        <path class="cls-16" d="M73.18,68.97c.12.36.12.9-.38.77-.8-.85-1.57-1.05-2.69-.71-.21.07-.37.33-.57.32-.16-.02-.54-.27-.84-.34-.46-.1-1.12-.08-1.5-.18-.29-.09-.43-.77-1.21-.88-.93-.15-1.22.26-2.01.38-.17-1.68,1.84-1.99,3.04-1.28.46.26.7.89,1,1.08.16.11.79.28,1,.3.65.08,1.45-.48,2.19-.5.62-.01,1.76.4,1.96,1.04"/>
        <path class="cls-4" d="M66.98-.22l-.07,54.61c-.66-.2-1.34-.13-2.01-.13V-.22c.68,0,1.39,0,2.08,0"/>
        <path class="cls-16" d="M66.42,59.63c.29.29.43,1.25-.04,1.39-.37.11-.51-.45-.9-.51-.79-.14-1.27.27-1.82.27-1.05,0-.08-1.21.71-1.39.5-.12,1.69-.13,2.06.24"/>
        <path class="cls-16" d="M60.73,79.4c.39-2.1,4.73-3.25,4.83-.39-.92-.22-1.08-.76-2.15-.65-.99.11-1.75.79-2.67,1.04"/>
        <path class="cls-1" d="M61.95,35.9c-1.65.65-3.33-.11-3.45-1.97-1.51.2-2.4-.85-2.43-2.03-1.64,2.38-1.75,4.51-.84,6.45.62-.2,1.23-.33,1.89-.24l.22.77c-.51,0-1.07.13-1.63.32.88,1.38,2.27,2.65,3.95,3.84.33,0,.62.09.87.39.08.06.03.12-.03.18,1.03.68,2.14,1.32,3.31,1.95l-.07-8.51c-.95.15-1.32-.48-1.77-1.15"/>
        <path class="cls-6" d="M60.39,43.69c-.34.18-.96.17-1.38.3-1.24.38-3.03,1.4-4.23,2.03-.4.21-1.71,1.13-2.03,1.04-.88-.57.18-1.24.73-1.57,1.22-.74,4.32-2.24,5.66-2.42.19-.03.37-.04.54-.03-1.68-1.19-3.07-2.46-3.95-3.84-1.02.35-2.04.92-2.8,1.44-.66.47-1.66,1.79-1.78.18.22-.78,3.07-2.13,3.86-2.4.08-.03.16-.05.24-.08-.91-1.94-.81-4.07.84-6.45-.02-.65.21-1.34.75-1.88-.99-.2-1.29-.89-1.18-1.76h-.91c-.03.07-.1.12-.18.2-.51.47-3.85,1.21-4.83,1.55-.51.18-2.67,1.29-3.31,1.23l-.05.57s.12.03.17.04l-.22.36c-1.33.22-3.25,1.49-4.47,1.59-.57.27-.09.93-.13,1.43,1.5-.64,3.45-1.27,5.08-1.3.05.3-.02.21-.16.29-1.13.65-2.94,1.28-4.2,1.8-.14.07-.26.22-.33.25-.18.22-.1.39-.05.63.28,1.33,1.61,3.49,2.41,4.62.26.35.52.77.89,1,.6-.28,2.59-.92,3.23-1.01.45-.06.89-.02,1.34-.03l-.17.29c-1.2.47-2.33,1.11-3.48,1.66-.27.3.21.73.39.98.23.28.51.78.91.72.71-.36,3.46-1.51,3.98-.66.39.64-1.08.67-1.45.78-.65.2-1.16.61-1.75.92.15.71.89,1.17,1.37,1.69.43.48.89,1.38,1.62,1.44.93-.49,1.95-.53,2.83-.88,1.5-.6,2.96-1.83,4.67-2.38.75-.24,1.37-.41,2.15-.12.02.18.01.32-.12.47-.21.24-1.99.86-2.45,1.07-1.23.59-2.49,1.49-3.59,2.01-.66.3-1.72.4-2.58.75-.07.28.16.27.32.39,3.1,2.39,6.5,4.31,10.01,6.06l.41-.84c-.05,0-.11,0-.17,0-.38-1.01.95-1.1,1.04-1.62.12-.63.02-2.14,0-2.88-.02-1.39-.03-2.77-.04-4.19v-1.56c-1.18-.62-2.29-1.27-3.32-1.95-.04.03-.08.06-.11.07M44.05,37.77c-.32.08-.6.08-.92.07-.11-.63.57-.99,1.04-1.25,1.45-.77,4-1.83,5.58-2.37,1.38-.48,3.15-1.01,4.59-.68-.04.65-.93.58-1.43.72-.92.26-1.87.54-2.77.88-1.85.7-4.26,2.21-6.08,2.64M49.56,38.06c-.49.26-1.7,1.31-2.07,1.34l-.39-.13c-.11-.13-.03-.26,0-.4.25-1.06,2.54-2.18,3.56-2.31.52-.07,1.51-.11,1.28.62-.78.32-1.63.49-2.38.88"/>
        <path class="cls-14" d="M63.71,4.87l.15,1.35-.07,29.92c-.85-.21-1-.95-.72-1.7-.73-.34-1.14.38-1.85.57-.64.16-1.17.08-1.58-.47l-.35-1.6c-.43-.26-1.32.47-1.97-.25-.54-.74-.23-1.55.33-2.16.35-.37.98-.54.98-1.1-.09-.35-1.94-.16-1.95-.91.47-1.48,2.1-1.99,3.46-2.27.37-.74-.49-.71-.48-1.25,0-.42.91-1.32,1.3-1.43.52-.16,1.75.13,1.36-.84-1.27-.33-.9-2.36-.3-3.2.21-.29.65-.42.51-.9-.14-.47-.84.03-1.1-.2-.91-.73-.91-1.57-.65-2.62.09-.4.73-1.29,0-1.43-.33-.07-1.8.13-1.89-.22-.07-.58.08-1.05.46-1.48.29-.34.8-.42.72-.91-.42-.14-.78.23-1.11.26-.79.09-1.41-.55-1.21-1.35.23-.64,1.53-.46,1.74-.87.34-.77-.9-1.1-.67-1.83.28-.87,2.75-.95,2.24-2.48-.11-.33-.63-.8-.97-.91l.04-.39c.68-.45,1.5-.48,2.24-.14.5.22.79.76,1.33.82"/>
        <path class="cls-4" d="M61.81,72.78c.15.11.26.14.22.37l-15.18,1.83c-4.34.32-8.66.95-13.01.89l-2.3-2,8.41-.46c6.13-.08,12.43-1.52,18.5-1.83.98-.05,2.58.62,3.37,1.2"/>
        <path class="cls-16" d="M60.99,45.92c.02.19.01.32-.12.47-.21.24-1.99.86-2.45,1.07-1.23.59-2.49,1.49-3.59,2.01-.66.3-1.72.4-2.58.75-.3.13-.55.2-.87.37-.38.21-.92.78-1.32.78-.18,0-.34-.14-.4-.53.09-.46,1.26-1.3,1.67-1.53.93-.49,1.95-.53,2.83-.88,1.5-.6,2.96-1.83,4.67-2.38.75-.24,1.37-.41,2.15-.12"/>
        <path class="cls-16" d="M60.53,43.44c.13.09-.07.21-.14.25-.34.19-.96.17-1.38.31-1.24.38-3.03,1.4-4.23,2.03-.4.21-1.71,1.13-2.03,1.05-.88-.57.18-1.24.73-1.57,1.22-.74,4.32-2.24,5.66-2.42.55-.08,1.03-.1,1.4.36"/>
        <path class="cls-6" d="M60.27,21.02l.28,1.5c-.01.09-1.26,1.05-1.35,1.08-.22.07-.49,0-.73.05-1.44.34-2.84.78-4.26,1.14v-2.01l.22-.17c1.99-.42,4.2-.23,5.84-1.59"/>
        <path class="cls-4" d="M59.68,94.4h-6.12c-5.51-3.37-10.92-6.93-16.02-10.9-10.3-8.03-21.4-19.11-22.43-32.9h.26c1.75,11.52,11.81,21.82,20.66,28.67,7.41,5.74,15.43,10.64,23.64,15.13"/>
        <path class="cls-16" d="M57.53,79.28c.64.09,2.09.92,1.7,1.69-.34.68-1.05-.29-1.5-.45-.33-.12-.86-.12-1.21-.04-.54.11-1.24.57-1.78.75-.16-1.34,1.67-2.09,2.8-1.95"/>
        <polygon class="cls-3" points="54.95 20.13 54.75 20.33 54.73 21.28 58.78 20.76 58.63 19.99 54.95 20.13"/>
        <path class="cls-6" d="M54.72,28.24h.91c.02-.1.04-.21.07-.33.26-1.09,1.88-2.12,2.93-2.35l.09-1.28c-2.97.94-6.04,2.28-9.19,2.21-.22-.2.47-.48.58-.52,1.02-.45,2.26-.59,3.33-.91-.37-.39-.25-.8-.26-1.3-.2-.14-.36-.03-.54.03-2.12.74-4.69,1.69-6.63,2.76-.16.1-.28.15-.38.34v1.04h.52c.12.66-.46.86-.97,1.04-.56.22-2.02.74-2.54.78h-.13c0,.28-.27.42-.39.65-.27.48-.45,1.09-.51,1.64-.03.3-.11.85.12,1.09.57-.4,3.43-1.45,4.1-1.45.2,0,.37.05.54.11l.05-.57c-.07-.01-.11-.02-.14-.05-.03-.2.02-.29.12-.46.9-1.38,4.89-2.37,6.5-2.62.64-.11,1.22-.29,1.85-.04,0,.08,0,.13,0,.18"/>
        <path class="cls-12" d="M57.47,70.55l-.2.25c-6.04.63-12.11,1.29-18.12,1.83-.91.09-1.96.04-2.87.13-1.68.17-3.3.64-4.95.92-.3-.04-1.07-.98-1.37-1.25-.18-.16-.4-.27-.59-.45-.93-.91-1.77-1.92-2.66-2.87h2.99c.07.3-.29.37-.37.61-.05.22,0,.47-.02.7.41-.05.75-.38,1.16-.47,1.22-.26,2.16.37,3.33.47.52-.12.29-.42.08-.72-.66-.86-1.97-.87-2.94-.98-.21-.02-.4-.02-.46-.26l19.74-1.83,7.24,3.92h0ZM42.03,70.42c.35-1.3-1.06-1.57-2.08-1.42-.53.07-1.63.55-1.99.95-.19.21-.42.6-.24.87l.26.13c.92-.38,1.77-1.01,2.84-.76.35.08.47.43.93.37l.27-.13h.01Z"/>
        <path class="cls-16" d="M57.13,38.11l.22.77c-1.42,0-3.25.96-4.43,1.76-.66.47-1.66,1.79-1.78.18.22-.78,3.07-2.13,3.86-2.4.71-.25,1.38-.42,2.13-.32"/>
        <path class="cls-12" d="M56.73,88.81l.22.37c-.73.1-1.42.52-1.77,1.18l-1.36-.66c-.05-.3.03-.21.17-.29.87-.5,1.71-.76,2.74-.6"/>
        <path class="cls-16" d="M55.87,57.74c.46.2,1.05,1.15.36,1.22-.75-.13-1.28-.65-2.08-.28-.46-.3-.03-.9.4-1,.36-.09.98-.08,1.32.06"/>
        <path class="cls-16" d="M55.39,55.16c-.51.1-1.06-.36-1.51-.38-.46-.02-1.13.54-1.23-.07.97-1.16,2.4-1.17,2.74.45"/>
        <path class="cls-16" d="M54.73,28.06c0,.08,0,.13,0,.19-.03.08-.1.13-.18.21-.51.47-3.85,1.21-4.83,1.55-.51.18-2.67,1.29-3.31,1.23-.07-.01-.11-.02-.14-.05-.03-.2.02-.29.12-.46.9-1.38,4.89-2.37,6.5-2.62.64-.11,1.22-.29,1.85-.04"/>
        <path class="cls-16" d="M49.75,34.21c1.38-.48,3.15-1.01,4.59-.68-.04.65-.94.58-1.44.72-.93.26-1.87.54-2.77.88-1.85.7-4.26,2.21-6.08,2.64-.32.08-.6.08-.92.07-.11-.63.57-.99,1.04-1.25,1.45-.77,4-1.83,5.58-2.37"/>
        <path class="cls-3" d="M52.79,19.25l.12.86h-2.53s-.46.16-.47.21v1.62l3.26-.39.14-2.52h0c-.87.03-1.73.08-2.58.18l2.07.05h0Z"/>
        <path class="cls-15" d="M49.52,18.54l.21.63.99.02c.85-.1,1.71-.15,2.58-.18-.12-.3-3.26-.38-3.78-.47"/>
        <path class="cls-2" d="M53.3,12.94v4.69l-6.25-.39c-.08-.82-.36-2.07-1.3-2.21v-2.09h7.56-.01Z"/>
        <path class="cls-10" d="M53.17,22.85c0,.29,0,.61,0,.9-.2-.14-.36-.03-.54.03-2.12.74-4.69,1.69-6.63,2.76-.16.1-.28.15-.38.34,0-.9,0-1.82,0-2.73l7.55-1.31h0Z"/>
        <path class="cls-12" d="M52.51,83.19c.14.17.02.25-.19.26-1.16.04-2.31.23-3.46.26.99-1.08,2.38-1.18,3.64-.52"/>
        <path class="cls-16" d="M50.04,52.54c1.12-.1,2.51.41,2.47,1.46-1.09-.13-1.75-.59-2.93-.52-.22,0-.86.3-.86,0,0,0,0-.03,0-.05.09-.52.65-.81,1.31-.87"/>
        <path class="cls-16" d="M52.12,78.7c.43.35.23.84-.16.82-.45-.02-1.59-.71-2.31-.83-1.78-.28-2.33.64-3.91.98l.26-1.16c-.39-.05-.92-.32-1.3-.21-.32.09-1.55.99-1.69.85-.12-1.64,1.69-2.38,3.09-1.85.33.13.64.52.88.55.4.05.93-.35,1.43-.39,1.19-.13,2.79.5,3.71,1.24"/>
        <path class="cls-16" d="M50.65,36.56c.52-.06,1.51-.11,1.28.62-.78.32-1.63.49-2.38.88-.49.26-1.7,1.3-2.07,1.34l-.39-.13c-.11-.13-.03-.26,0-.4.25-1.05,2.54-2.18,3.56-2.31"/>
        <path class="cls-16" d="M51.57,56.25c.16.19.26.51-.04.6-.49.15-1.64-.54-2.45-.38l-.2.47c-.48.22-.87-.16-1.32-.27-.69-.16-1.4-.22-2.09-.39,0-.51.96-.72,1.37-.72.62-.02,1.16.35,1.59.37.21,0,.39-.2.63-.23.59-.09,2.1.1,2.5.55"/>
        <path class="cls-16" d="M51.55,44.47c.39.64-1.08.67-1.45.78-.65.2-1.16.61-1.75.92-.08.03-.23.03-.35.1-.43.24-.91.79-1.39.77-.46-.02-.59-.59-.34-.92l1.29-.99c.71-.36,3.46-1.51,3.98-.66"/>
        <path class="cls-10" d="M50.82,94.4H3.05v-.38l.72-.15c-.1-.48-.1-.53.2-.91.89-1.12,2.76-1.74,4.17-1.55.32.04.97.46,1.18.12.25-1.81-2.36-1.85-3.59-1.57.79-1.64,1.3-2.56,3.21-2.85.35-.05,1.71.11,1.29-.67-.15-.29-.66-.41-1.26-.41l1.35-.46c.08.27.36.4.62.36.21-1.39,1.88-2.15,3.2-1.96.41.07.64.51,1.1.38.49-1.02-.7-1.53-1.6-1.53l1.48-1.33.46-.13c.71-1.8,1.68-1.51,3.13-1.95.18-.07.23.08.18-.26-1.1-.43-2.22-.22-2.96.47l-1.13-1.37s.08,0,.12-.01l.27-.13c.39-.55-.68-1.03-1.11-1.12-.07-.01-.12-.02-.18-.02l.13-1.49c.18,0,.34-.09.43-.43-.73-.6-1.71-.7-2.6-.85-.43-.33,1.16-1.58,1.44-1.75s.93-.54,1.24-.59c.65-.1,2.51.59,1.95-.65-.23-.5-1.01-.6-1.71-.54l-.91-2.46s.09,0,.13-.01c.33-.1.22-.61.07-.83-.9-.97-2.51-.51-2.9.64l-1.82-.02c0-.33-.61-.92-.83-1.07-.74-.48-1.7-.63-2.52-.35-.48.16-.64.28-.78.36l-.1-.21c.08-.02.15-.07.22-.11-.07-.58.25-.87.66-1.22.58-.49,1.65-.96,2.42-.98.33-.01.9.17,1.1.08.86-.87-.57-1.24-1.29-1.25-.1-.08.3-.62.39-.71.54-.61,2.56-1.57,3.22-.95.18.17.17.55.7.29l.12-.78c-.14-.83-1.62-.79-2.25-.68-.34.05-.76.2-1.19.41l-2.99-.18c.6,0,.86-.54.4-.82-1-.62-1.71-.49-2.74-.07-1.14.47-1.89,1.46-2.7,1.86-.28.13-.64.02-.95.09-1.26.29-2.59,1.17-3.62,1.92v-4.95c.72-.28,1.49-1.22,2.28-1.17.22,0,.43.13.65.14.76,0,1.02-.85,1.49-1.25.62-.51,1.05-.35,1.71-.51.79-.2,1.29-.77,2.08-.73-.02-.16-.18-.23-.33-.25-.64-.1-2.47-.09-3.07.05-1.11.26-1.4,1.55-1.64,1.62-.43,0-.63-.27-1.09-.2-.77.14-1.41.76-2.09,1.12v-6.38l5.35-6.12c.38.02.78-.02,1.16,0v-.2s-.34-.3-.38-.33c.15-.53.76-.95,1.16-1.3.51.09,1.04.16,1.57.13,0-.41-.47-.63-.78-.78l1.57-1.7c.78.19,1.59.34,2.35.65l-1.48.67-.54.5.07.33.46.08,7.89-2.36s.03-.04.04-.07l.4.17c-1.37,3.09-2,6.6-1.62,10.52,1.69,17.45,19.59,31.64,33.19,40.58,1.27.83,2.65,1.54,3.82,2.5M35.16,91.04c.36-.02,1.85.47,1.72-.1-.94-1.56-3.52-1.22-4.13.41l.1.42c.81-.09,1.41-.71,2.32-.74M32.61,87.73c.83-.21.34-1.65-.03-2.13-.82-1.04-2.26-.98-3.33-.36-.95-.99-2.31-.87-3.46-.3-.73.36-1.61,1.16-1.29,2.02.59.02.97-.53,1.47-.8.66-.35,1.68-.61,2.31-.16-.49.32-.84,1.84-.17,2,.39.1,1.18-1.02,1.57-1.27.48-.29,1.53-.54,1.97-.12.16.16.28.82.46.98.11.12.36.17.52.15M25.97,82.05c.54.11,1.03.8,1.65.75-.23-2.54-3.44-2.13-4.85-.78-.6.58-1.01,1.65.03,1.96.05-1.39,1.96-2.19,3.16-1.92M25.48,93.36c.25-2.2-2.31-2.57-3.95-1.99-1.01.34-2.31,1.47-1.93,2.64l.7.23c.76-1.32,2.48-2.02,3.85-1.12.25.15.55.63.78.61l.54-.37h0ZM21.69,89.57c.47-.37.4-1.25.03-1.65-1.16-1.27-4.11-.3-5.05.93-.37.49-.73,1.38.07,1.63.64-1.33,2.36-2.36,3.85-1.89.48.14.82,1.04,1.1.98M15.44,88.53c1.05-1.77-.75-2.62-2.35-2.47-1.49.13-4.1,1.44-3.58,3.25.84-.22,1.36-1.04,2.12-1.46.89-.48,1.94-.66,2.92-.4l.88,1.08h.01ZM11.75,43.8c.13-.04,2.11-.39,1.66-.75-.39-.07-.67-.15-1.09-.12-1.78.14-7.26,1.98-8.78,2.96-.25.16-.78.53-.69.87l.39.15c2.81-1.1,5.62-2.19,8.49-3.11M11.86,46.5c.18-.09.43-.18.38-.46-.23-.21-3.12.49-3.62.61-1.18.28-3.46,1.22-4.42,1.32-.91.09-1.3-.47-2.72.02-.78.27-3.34,1.52-3.17,2.51.24,1.4,1.68,0,2.24-.32,1.61-.91,1.97-.48,3.45-.85,1.57-.39,3.58-1.42,5.17-2,.83-.29,1.94-.51,2.69-.84M11.32,56.06c.1-.37-.05-.54-.3-.77-1.02-.88-2.52-.1-3.26.78-.11.13-.25.17-.2.39.64-.1,1.38-.35,2.02-.39.64-.03,1.15.27,1.74,0M11.08,50.08c.13-1.24-2.33-1.23-3.1-.95-.4.14-.73.48-.9.53-.41.12-.76.04-1.3.26-.56.22-1.33.93-1.7,1.03-.39.11-.87-.02-1.27.04-.84.12-2.41,1.55-2.68,2.4.15.16.15.24.39.13.67-.3,1.58-1.2,2.31-1.35.43-.09.66.11,1,.1,1-.02,1.64-1.02,2.43-1.23.39-.11.77,0,1.14-.16.38-.16.39-.6.8-.75.93-.35,1.93-.12,2.88-.07"/>
        <path class="cls-12" d="M39.09,46.22c-.55-.51-1.22-.85-2.01-.69-.33.07-.67.52-1.05.13-.25-1.35-1.75-1.11-2.8-.91-.13-1.85,3.07-1.35,3.54,0,.52-.14,1.03-.17,1.51-.08-.15-.3-.29-.61-.43-.92-.33-.05-.67-.1-.97-.17-.04-.29,0-.21.17-.29s.34-.13.52-.17c-.6-1.41-1.09-2.86-1.45-4.32-.38-.16-.76-.31-1.12-.43-.93-.32-2.35-.52-3.14-.9-.18-.09-.37-.12-.32-.39,1.47.08,2.95.35,4.37.78-.21-.99-.35-1.99-.42-2.97-.88-.04-1.61-.59-2.48-.78-.28-.07-1.75-.13-1.86-.29,0-.03,0-.35,0-.38,1.04-.47,1.64-.49,2.74-.21.51.14,1.13.37,1.56.75,0-.41,0-.81,0-1.22h-.2l-.21-.63c.16-.05.31-.1.46-.14.17-1.82.64-3.57,1.47-5.2-.07.03-.13.06-.2.09-2.45,1.15-5.18,2.63-6.54,5.06-1.65,2.96-2.88,5.12-1.88,8.62,1.25,4.36,5.07,8.65,9.17,12.2l.45-.5c-.07-.07-.09-.15-.05-.26.2-.64,2.04-.4,2.57-.25.89.28,1.92,1.33,2.34,1.45.39.13,1.02,0,1.48.04-1.89-1.87-3.72-4.3-5.22-7M35.83,40.96c-.87.37-1.64-.32-2.52-.39l-.08-.31c.29-.71,2.71-.26,2.6.71M38.09,48.03c-.39-.12-1.57-.12-2.07-.16-.2,0-.38.11-.33-.18.64-.77,1.96-.91,2.84-.49.36.17.52.61.93.7-.27,1.29-.99.25-1.38.14"/>
        <path class="cls-10" d="M51.34,49.3c-.73-.05-1.18-.96-1.62-1.43-.48-.51-1.22-.98-1.37-1.69-.08.03-.23.03-.35.1-.43.24-.91.79-1.39.77-.46-.02-.59-.59-.34-.92l1.29-.99c-.4.07-.68-.43-.91-.72-.18-.25-.66-.67-.39-.98-.45.22-1.33.75-1.68.85-.97.28-.8-.69-.13-1.16.12-.09.85-.58.9-.6-.37-.23-.63-.65-.89-1-.8-1.13-2.13-3.29-2.41-4.62-.04-.24-.13-.41.05-.63-.08.03-.25,0-.39.07-.61.25-1.47.95-2.09.39.04-.26.2-.49.39-.65.23-.17,1.36-.71,1.7-.85.04-.5-.43-1.16.13-1.44-.17,0-.36,0-.52,0-.08-.35.13-.47.39-.65-.23-.24-.15-.78-.12-1.09.07-.56.24-1.16.51-1.64-.25.02-1.81-.46-1.57-.78.75-.4,1.33.1,1.96.13h.13l-.38-.58.89-.66v-3.85c-2.11.41-4.19,1.2-6.14,2.11-.83,1.63-1.3,3.38-1.47,5.19.46-.12.91-.17,1.41-.11.68.08,2.17.57,1.89,1.47-.18.55-.8-.15-1.11-.29-.73-.35-1.47-.27-2.25-.29-.02.4-.02.81,0,1.22.27.24.46.53.51.88-.16.03-.32.03-.48.03.07.99.21,1.98.42,2.97.43.13.85.27,1.27.43,1.09.4,1.8.71,2.58,1.59.13.15.32.22.26.46-1.02.04-1.88-.67-2.78-1.07-.35-.15-.73-.31-1.11-.46.36,1.46.86,2.91,1.45,4.32.34-.07.7-.08,1.04-.02.41.07,1.6.5,1.39,1.07-.18.57-1.19-.17-1.52-.28-.19-.06-.41-.09-.63-.12.14.31.28.61.43.92.53.11,1.02.38,1.43.85,1.41-.33,2.88-.14,3.3,1.45-.13.14-1.2-.62-1.42-.71-.82-.33-1.5-.13-2.26.17-.07-.07-.14-.13-.22-.2,1.5,2.71,3.33,5.13,5.22,7h.04c.57.07,1.19.62,1.45.64.28.02.7-.14,1.13-.14l1.79-.26s0-.03,0-.05c.09-.52.65-.8,1.3-.87l.02-1.17c-.18,0-.34-.14-.4-.53.09-.46,1.26-1.3,1.67-1.53M39.08,30.66c-.62.17-.64-.37-.99-.63-.41-.3-1.33-.38-1.6-.61-.18-.14-.15-.24-.14-.45,1.14-.4,3.35.15,2.73,1.69M46.73,51.78c-.28.88-.74.04-1.11-.08-.77-.25-1.47.32-2.23.34-.35-1.95,3.96-2.16,3.34-.26"/>
        <path class="cls-16" d="M49.91,41.48l-.17.29c-1.2.47-2.33,1.11-3.48,1.66-.45.22-1.33.75-1.69.85-.97.28-.8-.68-.13-1.16.12-.09.85-.58.9-.6.6-.28,2.59-.92,3.23-1.01.45-.05.89-.02,1.34-.03"/>
        <path class="cls-15" d="M45.74,20.11l-.02.38c.31-.14.62-.27.93-.38h-.91Z"/>
        <path class="cls-15" d="M48.28,18.41c-.7-.14-1.79.11-2.55,0v.78h2.35v.48c.27-.07.55-.13.83-.19-.09-.41-.19-.98-.63-1.07"/>
        <path class="cls-3" d="M48.09,20.11h-1.44c-.31.11-.62.24-.93.38l-.11,2.23,3.52-.52c.03-.91,0-1.73-.2-2.61,0-.03-.02-.07-.02-.1-.28.06-.55.12-.82.19v.43Z"/>
        <path class="cls-16" d="M48.87,55.16c-.54.15-.66-.31-1-.5-.39-.22-1.21-.18-1.66-.14-.26.03-.57.25-.77.23-.22-.02-.49-.33-.74-.42-.84-.36-1.52-.15-2.38-.09-.65-.78-1.51-1.44-2.53-1.64-.33-.08-1.51,0-1.79-.35-.07-.07-.09-.15-.05-.26.2-.64,2.04-.4,2.57-.25.89.28,1.92,1.33,2.34,1.45.4.13,1.05-.02,1.52.04.56.07,1.18.62,1.45.64.28.02.7-.14,1.13-.14.05,0,.12,0,.17,0,.88.08,1.61.51,1.76,1.42"/>
        <path class="cls-4" d="M48.87,65.59c-.02.17-.17.24-.34.26-.36.05-.89.09-1.29.13-5.7.62-12.03,1.34-17.72,1.57-1.38.07-2.77-.02-4.15-.02l-1.13-1.22c-.05-.29.13-.18.33-.2,1.15-.09,2.37-.08,3.51-.13,5.44-.26,10.88-.74,16.29-1.17.8-.05,2.19-.4,2.9-.15.57.2,1,.78,1.6.93"/>
        <path class="cls-16" d="M46.78,33.92c.05.31-.02.21-.16.29-1.13.65-2.94,1.28-4.2,1.81-.14.06-.26.22-.33.25-.08.03-.25,0-.39.06-.61.25-1.47.95-2.09.39.04-.26.2-.49.39-.65.23-.17,1.36-.71,1.7-.85,1.5-.64,3.45-1.27,5.08-1.31"/>
        <path class="cls-16" d="M43.39,52.04c-.35-1.95,3.96-2.16,3.34-.26-.28.88-.74.04-1.11-.08-.77-.25-1.47.32-2.23.34"/>
        <path class="cls-16" d="M46.52,31.84l-.22.36c-1.33.22-3.25,1.49-4.47,1.59-.18,0-.36,0-.52,0-.08-.35.13-.47.39-.65.57-.4,3.43-1.45,4.1-1.45.2,0,.37.05.54.11.05,0,.12.03.17.04"/>
        <path class="cls-5" d="M45.87,16.06l.26,1.18h-.39c.07-.37-.03-.66-.1-1-.05-.25,0-.16.23-.17"/>
        <path class="cls-12" d="M45.39,63.39c.14.12.27.13.22.37-.37.02-.74-.03-1.11,0-5.84.52-12.02,1.29-17.85,1.45-.68.01-2.77.11-3.24-.15-.39-.22-1.8-2.35-2.1-2.86-.12-.21-.24-.42-.34-.64.37-.11.79.11,1.11.11.17,0,.35-.11.52-.11,6-.13,12.01-.92,17.98-1.57,1.47,1.18,3.4,2.21,4.81,3.4M40.79,61.75c.02-1.21-3.18-1.13-2.87.46.9-.23,1.62-.29,2.55-.13l.33-.33h-.01ZM35.58,63.05l-.02-.24c-1.15-1.14-3.45-.91-3.76.83.9-.22,1.38-.65,2.4-.51.36.05,1.33.61,1.38-.08"/>
        <path class="cls-4" d="M45.06,27.86l-1.15.33V4.47h1.04v23.26s.11.07.11.13"/>
        <path class="cls-5" d="M43.07,15.28l.06,2.01c-.03.2-1.22.24-1.43.21v-2.73s1.37.51,1.37.51Z"/>
        <path class="cls-3" d="M41.41,23.61c.56-.06,1.15-.27,1.72-.24v-1.33c-.59.45-1.17.98-1.72,1.58"/>
        <path class="cls-15" d="M39.68,18.28s-.19-.18-.33-.13l-.39.91c.54.1,2.78-.45,2.99.22.12.38-.58,1.53-.97,1.61-.52.09-1.82,0-2.34-.14-.34-.09-.37-.33-.66-.38-.62.95-1.52,1.76-.96,2.98,1.05.16,2.11.12,3.18.14.28.01.57.14.91.15.1,0,.2-.02.29-.03.55-.6,1.12-1.12,1.72-1.58v-3.76h-3.45,0Z"/>
        <path class="cls-2" d="M43.13,4.47v7.69h-1.88c-.47.3-.32.82-.33,1.3-.88-.28-1.7-1.04-2.68-1.04-.71,0-1.08.43-1.6.61-.54.2-1.21.11-1.72.43-.09-.1.47-1.24-.2-1.83-.2-.17-.48-.21-.65-.39-.48-.52-.66-1.33-1.37-1.89-.83-.65-1.46-.52-2.39-.21-.36-.37-.49-.86-.82-1.28-1.6-2.08-3.44-1.07-4.64.75-1.33,0-2.97-.09-2.98,1.65,0,.71.54,1.65.38,2.2-.12.4-.71.33-.96.61l-.2.78c-.25.03-.42-.22-.59-.39-.37-.4-.76-.93-1.11-1.37v-7.62h23.74Z"/>
        <path class="cls-2" d="M43.13,12.81l-.13,1.7-1.24-.39c-.09-.27-.15-1.11.07-1.25l1.31-.05h0Z"/>
        <path class="cls-16" d="M43,46.95c-.13.14-1.2-.62-1.43-.71-.82-.33-1.5-.13-2.26.17-.59-.63-1.34-1.07-2.23-.89-.33.07-.67.52-1.05.13-.25-1.35-1.75-1.11-2.8-.91-.13-1.85,3.07-1.35,3.53,0,1.11-.3,2.18-.12,2.94.77,1.41-.33,2.88-.14,3.3,1.45"/>
        <path class="cls-16" d="M42.49,29.75c0,.28-.27.42-.39.65-.25.02-1.81-.46-1.57-.78.75-.4,1.33.1,1.96.13"/>
        <path class="cls-16" d="M39.95,68.99c1.02-.14,2.42.12,2.08,1.43l-.27.13c-.47.07-.59-.29-.93-.37-1.07-.25-1.91.38-2.84.76l-.26-.13c-.18-.27.04-.66.24-.87.36-.39,1.46-.88,1.99-.95"/>
        <path class="cls-5" d="M40.79,14.71l.13,2.92-2.97.43-2.05,3.61c-.18.58-.43,1.1-.2,1.68-3.04-1.17-6.36-1.29-9.57-1.68l-6.85-.39.14-7.17c.67.49,1.05,1.21,2.01,1.03.72-.12.57-.95.78-1.29.11-.16.47-.23.65-.39,1.16-1-.26-2.97.33-3.46,1.09-.43,1.89-.05,2.14,1.11.77.46.8-.67.72-1.23-.06-.4-.41-.62-.18-1.12.07-.13.95-.78,1.11-.84,1.64-.61,2.07,1.97,2.86,2.34.6.27.91-.27,1.38-.33.54-.05.97.4,1.28.79.5.64.59,1.67,1.5,1.7.18.78-.74,1.76-.41,2.44.14.36.51.34.85.26.46-.35.91-.74,1.49-.86.35-.07.69,0,1.06-.11.34-.11.47-.37.71-.47,1.14-.5,2.11.66,3.1,1.02"/>
        <path class="cls-16" d="M37.92,62.21c-.31-1.59,2.89-1.66,2.87-.46l-.33.33c-.92-.16-1.64-.1-2.54.13"/>
        <path class="cls-16" d="M39.75,39.85c.13.15.31.22.26.46-1.02.04-1.88-.67-2.78-1.07-.71-.29-1.51-.64-2.23-.89-.93-.32-2.35-.52-3.14-.9-.18-.09-.37-.12-.32-.39,1.91.11,3.84.52,5.63,1.21,1.09.4,1.79.71,2.58,1.59"/>
        <path class="cls-16" d="M38.6,43.08c.41.07,1.6.5,1.39,1.07-.18.57-1.18-.17-1.52-.28-.48-.14-1.1-.17-1.6-.29-.04-.29,0-.21.17-.29.47-.24,1.03-.28,1.56-.2"/>
        <path class="cls-4" d="M39.35,58.81c.17.22,0,.24-.2.26-5.25.63-10.49,1.04-15.77,1.44-.58.04-2.56.42-2.94.2l-.78-1.3c.66-.04,1.37.18,2.02.21,1.32.03,3.17-.18,4.57-.27,3.78-.23,7.71-.86,11.46-1.04.83-.04.97.15,1.63.52"/>
        <path class="cls-16" d="M36.35,28.97c1.14-.4,3.35.15,2.73,1.69-.62.17-.64-.37-.99-.63-.41-.31-1.33-.38-1.6-.61-.18-.14-.15-.24-.14-.45"/>
        <path class="cls-16" d="M39.47,47.88c-.27,1.29-.99.25-1.38.14-.39-.12-1.57-.12-2.07-.16-.19,0-.38.11-.33-.18.64-.77,1.96-.91,2.84-.49.36.17.52.61.94.7"/>
        <path class="cls-16" d="M36.93,31.85c.68.08,2.17.57,1.89,1.47-.18.55-.8-.15-1.11-.29-.79-.38-1.6-.25-2.45-.29l-.21-.63c.63-.21,1.21-.33,1.87-.25"/>
        <path class="cls-12" d="M37.4,57.38l-13.23,1.04-4.55.79-1.38-3.14,16.49-.91.39.13,2.27,2.09h0ZM24.68,57c.4.34,1.96-.2,1.2-.93l-.9-.09-.47.46.17.57h0Z"/>
        <path class="cls-10" d="M36.42,25.58c.28.01.55.17.85.13-.49.58-1.41.69-2.08.98-1.87.83-3.58,1.77-5.19,3.04l-2.64.16c.88-.71,2.03-1.33,3.05-1.85,1.02-.53,5.12-2.5,6.01-2.46"/>
        <path class="cls-16" d="M36.87,90.94c.13.57-1.36.08-1.72.1-.9.03-1.5.65-2.32.74l-.1-.42c.61-1.63,3.2-1.97,4.13-.41"/>
        <path class="cls-10" d="M36.22,24.8l-.13.2c-8.71,2.6-17.14,7.84-20.67,15.81l-.4-.17c.05-.12-.07-.17-.21-.23-1.29-.45-3.97.78-5.38.95-.59-.39-1.33-1.03-2.01-1.3.02-.3.3-.52.52-.72.59-.53,1.3-1.03,1.96-1.49.13.03.33,0,.52.05.86.23,1.7.63,2.6.6.08-.35-.1-.23-.24-.34-.48-.36-1.17-.75-1.71-.97-.01-.28.16-.36.34-.5.67-.54,1.53-1.14,2.45-1.73,1.53-1,3.24-2,4.52-2.78,1.59-.97,3.32-2.01,5.01-2.97h0c.7-.41,1.38-.79,2.06-1.16,2.85-1.58,6.21-2.44,9.21-3.76.51.17,1.06.32,1.56.52"/>
        <path class="cls-16" d="M35.96,34.83c-1.1.2-1.94-.53-2.96-.75-.28-.07-1.75-.13-1.86-.29,0-.03,0-.35,0-.38,1.04-.47,1.64-.49,2.74-.21.83.22,1.95.71,2.08,1.63"/>
        <path class="cls-16" d="M33.23,40.25c.29-.71,2.71-.26,2.6.71-.87.37-1.64-.32-2.52-.39,0,0-.08-.32-.08-.32Z"/>
        <path class="cls-16" d="M35.56,62.81l.02.24c-.05.68-1.02.13-1.38.08-1.02-.14-1.5.29-2.4.51.31-1.74,2.61-1.97,3.76-.83"/>
        <polygon class="cls-4" points="33.6 53.44 33.63 54.16 17.62 55.06 17.59 54.36 33.6 53.44"/>
        <path class="cls-16" d="M32.58,85.6c.37.48.86,1.93.03,2.13-.16.02-.41-.03-.52-.15-.17-.16-.29-.82-.46-.98-.43-.42-1.49-.17-1.97.12-.38.25-1.17,1.37-1.57,1.27-.66-.16-.32-1.69.17-2-.63-.45-1.64-.18-2.31.16-.5.27-.88.83-1.47.8-.32-.86.57-1.66,1.29-2.02,1.15-.57,2.51-.69,3.46.3,1.07-.62,2.51-.68,3.33.36"/>
        <path class="cls-12" d="M32.32,52.56l-15,.86-.51-2.69c.71-.03,1.44.04,2.15,0,3.38-.16,6.77-.6,10.16-.79.49-.02.96-.11,1.32.26.64.65,1.22,1.66,1.88,2.35"/>
        <path class="cls-10" d="M29.05,30.54l-1.24,1.43h-3.45c.2-.28,1.67-1.43,1.89-1.43h2.8Z"/>
        <path class="cls-12" d="M28.66,47.86l-12.25.65v-1.61c.04-.29,1.94-.2,2.28-.21,1.94-.11,3.9-.34,5.85-.4.96-.03,1.96.13,2.88-.12.39,0,1.03,1.33,1.23,1.69"/>
        <path class="cls-4" d="M28.53,48.78c.11.32-.27.33-.49.36-2.97.39-6.22.4-9.22.55-.72.04-1.5.24-2.27.13v-.39l11.99-.65h0Z"/>
        <path class="cls-9" d="M20.26,22.59c4.67.28,9.97.21,14.41,1.69-3,1.33-6.36,2.19-9.21,3.76-.67.37-1.36.75-2.06,1.15l-.22-.37c.16-.13-.35-.68-.51-.83-.87-.75-2.29-.98-3.39-1.24v-4.29c.35-.07.66.11.98.13"/>
        <path class="cls-16" d="M27.62,82.8c-.62.05-1.11-.64-1.65-.75-1.21-.26-3.11.53-3.17,1.93-1.04-.3-.63-1.38-.03-1.96,1.41-1.35,4.62-1.76,4.85.78"/>
        <path class="cls-10" d="M27.36,32.61l-.86,1.41-4.48.15c-.04-.21.08-.26.2-.39.35-.38.98-.7,1.3-1.18h3.84Z"/>
        <path class="cls-4" d="M27.23,45.26l-.84.26-9.97.52c-.54-.5,1.73-.38,1.89-.39,1.89-.12,3.83-.35,5.72-.4,1.07-.03,2.14.03,3.2,0"/>
        <polygon class="cls-12" points="26.39 43.31 26.85 44.48 16.55 45 16.88 43.29 26.13 43.17 26.39 43.31"/>
        <polygon class="cls-12" points="26.06 34.96 25.72 36.25 20.06 36.53 20.94 35.23 26.06 34.96"/>
        <path class="cls-16" d="M25.88,56.06c.76.74-.79,1.27-1.2.94l-.17-.57.47-.46s.9.09.9.09Z"/>
        <polygon class="cls-12" points="25.66 40.05 25.8 41.48 17.33 41.87 17.66 40.71 18.07 40.47 25.66 40.05"/>
        <path class="cls-12" d="M25.67,37.44v1.31l-7.3.51,1-1.66c2.09-.18,4.19-.17,6.3-.15"/>
        <path class="cls-6" d="M23.4,29.19h0c-1.7.97-3.43,2.01-5.01,2.98-1.28.78-2.99,1.78-4.52,2.79l-.32-.51c.36-.35-.99-.83-1.23-.91-3.34-1.21-9.92-1.89-13.43-1.57-.42.04-1.58.33-1.76.72-.02.04-.02.07-.02.1h-.51v-6.42c2.15.05,4.32-.08,6.46,0,3.11.1,6.53.36,9.64.65,1.36.13,2.75.34,4.09.54v1.26c-.35.08-.7.48-.45.82.14.2,1.32.23,1.64.3.59.14,1.07.57,1.63.73l.58-.21c.84-1.11-.76-.87-.98-1.23l.07-1.3c1.32-.05,2.45.57,3.61.89.16.04.25.04.29,0,0,0,.22.37.22.37ZM17.13,32.36l.03-1.02c-2.17-1.22-4.73-1.74-7.2-1.98-.78-.08-1.97-.2-2.73-.12-.93.1-2.69.74-.88,1.25,1.3.38,3.22.28,4.63.45,2.09.24,4.2.62,6.15,1.42"/>
        <path class="cls-16" d="M21.72,87.92c.37.4.43,1.28-.03,1.65-.28.07-.62-.84-1.1-.98-1.49-.47-3.21.57-3.85,1.89-.79-.25-.43-1.14-.07-1.63.93-1.24,3.88-2.21,5.05-.94"/>
        <path class="cls-4" d="M19.02,42.39c.03.19-.36.21-.49.23-.37.04-1.13.2-1.33-.23h1.82Z"/>
        <path class="cls-16" d="M18.89,79.15c.04.34,0,.2-.19.26-1.46.43-2.42.14-3.13,1.95l-.46.13c.04-.78.35-1.42.82-1.87.74-.68,1.86-.9,2.96-.47"/>
        <path class="cls-4" d="M18.62,4.47l.2,24.63-1.37-.34V4.93c-.08-.37,1.13-.51,1.18-.46"/>
        <path class="cls-16" d="M17.17,31.34l-.03,1.02c-1.95-.8-4.06-1.18-6.14-1.42-1.41-.16-3.33-.07-4.63-.45-1.81-.51-.05-1.15.88-1.25.76-.08,1.95.04,2.73.12,2.47.24,5.04.76,7.2,1.98"/>
        <path class="cls-6" d="M16.79,25.4l.02.83c-1.89.1-1.05-.12-.41-1.13.08-.12.14-.28.15-.43l.24.74h0Z"/>
        <path class="cls-5" d="M16.56,10.12l.12,10.96-.22.32h-.96c.1-.95-.11-1.82-.9-2.4-.77-.57-1.54-.25-2.4-.21-.08-.03-.96-1.17-.98-1.25-.1-.37.5-.67.7-.96.61-.92.39-2.53-.22-3.43-.4-.61-1.15-.8-1.27-1.59.62-1.24,1.74-1.98,3.15-1.73.45.08.91.46,1.35.49.55.04,1.07-.46,1.63-.21"/>
        <path class="cls-16" d="M16.48,71.2c.57,1.24-1.29.56-1.95.65-.3.04-.96.41-1.24.59-.27.17-1.87,1.42-1.43,1.75.89.15,1.87.25,2.6.85-.1.35-.25.43-.43.43-.21,0-.45-.1-.67-.11-1.16-.04-2.11-.05-3.19.46-1.09.52-1.88,1.44-2.55,2.42l-.39-.26c-.7-1.5,2.49-3.71,3.85-3.65-.71-.82.09-1.39.51-2.09-1.27,0-2.58.47-2.99,1.76-.24.15-.67.03-.97.08-1.02.14-2.1,1.88-3.12,1.81-.52-.03-1.2-.4-1.78-.33-.83.13-1.4,1.54-2.03,2.02-.21.04-.51-.42-.54-.61-.1-.63,1.22-2.05,1.75-2.36,1.05-.6,1.53-.04,2.47-.01.72.02,1.82-1.23,2.58-1.6.58-.28.64-.13,1.14-.54,1.06-.88,2.15-1.41,3.58-1.26.35.04.73.28,1.01.24.29-.04.86-.47,1.23-.6.22-.08.53-.14.87-.17.7-.05,1.48.04,1.71.54"/>
        <path class="cls-14" d="M15.87,22.6c.33.23-.15,2.27-.39,2.64-.16.27-.78.67-1.09.73-5.94-.47-11.82-1.04-17.79-.91.01-6.16-.1-12.34,0-18.5,1.67-1.16,2.31.45,3.29,1.46.87.38,1.39-.42,1.99-.03.49.32.89,1.97.96,2.56.08.61-.22,1.73.53,1.96.53.16.86-.43,1.37-.48.59-.05.98.41,1.54.25.41-.12.26-.89,1.08-1.01.86-.13,1.51.34,1.94,1.05.15.26.2.67.4.89.17.18.46.23.65.4.63.51.92,1.88.51,2.6-.29.52-1.82.62-1.22,1.49.14.21.41.28.58.47.26.28,1.01,1.46,1.2,1.58.58.36,2.13-.12,2.59.24.7.54.29,2.39.6,2.6l1.26.03v-.02Z"/>
        <path class="cls-17" d="M14.8,78.25l1.13,1.37c-.47.45-.77,1.09-.82,1.87l-1.48,1.33c-.09,0-.17,0-.25.01-1.13.13-3.48,1.36-3.07,2.74l-1.35.46c-.91,0-2.02.29-2.33.74l-.32.08c-.32-.03-.51-.49-.85-.6-1.63-.51-4.23,1.26-4.81,2.77-.13.37-.32,1.47.3,1.47.41.01.28-.53.38-.78.67-1.7,2.65-3.07,4.5-2.47,0,.42-.33.72-.49,1.13-.26.66-.3,1.14-.17,1.85-1.11.38-3.03,1.74-2.85,3.07.05.37.3.75.71.74v.38H-3.4c0-9.82.01-19.64,0-29.46.88-.73,2.64-2,3.75-2.19,1.49-.25,1.01-.21,2.21-.91,1.44-.86,1.93-1.21,3.62-1.2h.02l2.99.18c-1.08.54-2.15,1.53-1.83,2.56-1.03.28-3.04,1.39-3.19,2.57-.05.56.43.94.92.77l.1.21c-.17.09-.33.12-1.11.1-1.32-.04-3.84.66-4.39,1.99-.16.4-.14.74.16,1.08l.52.07c-.07-.76.82-1.34,1.42-1.64.72-.35,1.51-.51,2.28-.71.22-.01-.16.84-.18.99-.07.53.05.87.27,1.34.11.02.27.05.36,0,.03-.03.32-.59.47-.76.77-.89,1.48-1.47,2.73-1.45.39.01,1.12.35,1.43.26.12-.03.17-.11.17-.21l1.82.02c-.03.11-.07.22-.08.33.13.13,1.36-.47,1.64-.49.37-.02.74.36,1.14.36l.91,2.46c-.34.03-.65.1-.87.17-.37.13-.93.55-1.23.6-.28.04-.66-.2-1.01-.24-1.43-.15-2.52.38-3.58,1.26-.5.41-.57.26-1.14.54-.76.37-1.86,1.62-2.58,1.6-.93-.03-1.41-.59-2.47.01-.53.3-1.85,1.73-1.75,2.36.03.18.34.65.54.61.63-.48,1.21-1.89,2.03-2.02.59-.08,1.26.29,1.78.33,1.02.08,2.1-1.66,3.12-1.81.29-.04.73.08.97-.08.41-1.29,1.72-1.76,2.99-1.76-.42.7-1.22,1.27-.51,2.09-1.36-.05-4.55,2.15-3.85,3.65l.39.26c.66-.98,1.46-1.89,2.55-2.41,1.08-.51,2.02-.5,3.19-.46.23.01.47.11.67.11l-.13,1.49c-1.27-.13-2.95,1.07-2.82,2.44l2.08-1.37c.6-.27,1.09.22,1.64.22M9.57,82.28c.51.07.79.37,1.24.51-.05-2.3-3.59-1.99-4.76-.66-.2.04-.52-.48-.83-.58-1.61-.53-4.32.75-4.77,2.41-.16.61.27,1.37.99,1.17-.26-.52.08-1.05.45-1.45.62-.63,2.55-1.52,3.27-.78.36.37.05,1.47.77,1.58.32.04.16-.14.19-.33.29-1.72,1.89-2.09,3.45-1.88"/>
        <path class="cls-16" d="M13.09,86.06c1.6-.15,3.4.7,2.35,2.47l-.88-1.08c-.99-.26-2.03-.08-2.92.4-.76.41-1.28,1.24-2.12,1.46-.52-1.82,2.09-3.12,3.58-3.25"/>
        <path class="cls-7" d="M15.37,50.6h-.26c-.01-.16-.04-1.04.07-1.04.09.34.14.7.2,1.04"/>
        <path class="cls-16" d="M13.63,82.82c.9,0,2.09.51,1.6,1.53-.46.13-.69-.32-1.1-.38-1.32-.2-2.99.57-3.2,1.96-.26.04-.54-.09-.62-.36-.41-1.38,1.94-2.61,3.07-2.74.08-.01.16-.01.25-.01"/>
        <path class="cls-16" d="M14.08,76.99c.42.09,1.5.57,1.11,1.12l-.27.13s-.09.01-.12.01c-.55,0-1.04-.49-1.64-.22l-2.08,1.37c-.13-1.37,1.55-2.57,2.82-2.44.07,0,.12.01.19.02"/>
        <path class="cls-16" d="M14.82,40.4c.14.05.26.11.21.23-.01.02-.03.04-.04.07l-7.89,2.36-.46-.08-.07-.33.54-.5,1.48-.67c-.76-.32-1.57-.46-2.35-.65-3.14-.76-6.41-1.28-9.65-1.3v-1.03c1.22-.09,2.49,0,3.71.14,1.89.21,5.39.75,7.11,1.41.69.27,1.43.91,2.01,1.3,1.41-.16,4.09-1.39,5.38-.95"/>
        <path class="cls-16" d="M14.06,67.36c.15.22.26.73-.07.83-.04.01-.09.01-.13.01-.4,0-.77-.38-1.14-.36-.28.02-1.51.62-1.64.49.01-.11.04-.22.08-.33.39-1.15,2-1.61,2.9-.64"/>
        <path class="cls-6" d="M13.55,34.44l.31.51c-.91.59-1.77,1.19-2.45,1.73-.17.14-.35.22-.34.5-3.26-1.35-7.63-1.96-11.15-2.1-1.1-.03-2.22.04-3.33,0v-2.32h.5c0,.13.22.1.31.13,1.74.66,4.99.27,6.95.36,1.75.07,3.83.29,5.58.54,1.21.16,2.39.47,3.6.63"/>
        <path class="cls-16" d="M12.32,33.53c.24.09,1.59.57,1.23.91-1.21-.16-2.39-.47-3.6-.63-1.75-.25-3.83-.48-5.58-.54-1.96-.09-5.21.3-6.95-.36-.1-.03-.32,0-.32-.13,0-.03,0-.05.02-.1.18-.39,1.34-.67,1.76-.72,3.51-.33,10.09.36,13.43,1.57"/>
        <path class="cls-16" d="M13.42,43.04c.45.36-1.53.71-1.66.75-2.87.93-5.69,2.01-8.49,3.11l-.39-.15c-.1-.34.43-.71.69-.87,1.51-.98,6.99-2.82,8.78-2.96.41-.03.7.06,1.09.12"/>
        <path class="cls-16" d="M12.78,38.15c.14.11.31,0,.24.34-.9.03-1.74-.37-2.6-.6-.2-.04-.39-.02-.52-.05-2.16-.54-4.32-1.18-6.58-1.31-2.2-.13-4.51.1-6.72,0v-1.44c1.11.03,2.23-.04,3.33,0,3.51.14,7.89.75,11.15,2.1.53.22,1.23.61,1.71.97"/>
        <path class="cls-16" d="M12.63,61.1l-.12.78c-.52.26-.51-.12-.7-.29-.66-.62-2.68.34-3.22.95-.09.09-.49.63-.39.71.73,0,2.15.38,1.29,1.25-.2.1-.77-.09-1.1-.08-.76.02-1.84.49-2.41.98-.41.35-.73.64-.66,1.22-.07.04-.14.09-.22.11-.49.16-.98-.22-.93-.77.14-1.17,2.15-2.28,3.19-2.57-.33-1.02.75-2.01,1.83-2.56.42-.22.85-.36,1.19-.41.63-.11,2.11-.14,2.25.68"/>
        <path class="cls-16" d="M12.24,46.05c.05.27-.2.37-.38.46-.75.33-1.86.54-2.69.84-1.59.58-3.6,1.61-5.17,2-1.48.37-1.84-.07-3.45.85C0,50.52-1.45,51.92-1.69,50.52c-.17-.99,2.38-2.24,3.17-2.51,1.41-.49,1.8.07,2.72-.02.96-.1,3.23-1.03,4.42-1.32.5-.12,3.39-.82,3.62-.61"/>
        <path class="cls-16" d="M11.01,55.29c.25.23.4.4.3.77-.59.28-1.1-.02-1.74,0-.64.04-1.38.29-2.02.39-.05-.22.09-.26.2-.39.74-.88,2.24-1.66,3.26-.78"/>
        <path class="cls-16" d="M7.98,49.14c.77-.28,3.23-.29,3.1.95-.96-.05-1.95-.28-2.88.07-.41.15-.42.59-.8.75-.37.16-.75.05-1.14.16-.78.21-1.43,1.21-2.43,1.23-.34,0-.56-.18-1-.1-.73.15-1.63,1.04-2.31,1.35-.24.11-.24.03-.39-.13.26-.86,1.84-2.28,2.68-2.4.4-.07.88.07,1.27-.04.37-.1,1.14-.82,1.7-1.03.54-.22.89-.14,1.3-.26.17-.05.5-.39.9-.53"/>
        <path class="cls-16" d="M10.23,86.44c.41.78-.95.62-1.29.67-1.9.29-2.42,1.21-3.21,2.85,1.23-.28,3.84-.24,3.59,1.57-.22.34-.87-.08-1.19-.12-1.4-.2-3.27.42-4.17,1.54-.29.38-.29.43-.2.91l-.72.15c-.4.01-.65-.37-.71-.74-.18-1.33,1.74-2.69,2.85-3.07-.13-.71-.09-1.19.17-1.85.16-.41.49-.71.49-1.13-1.85-.6-3.83.77-4.5,2.47-.1.25.03.79-.38.78-.62,0-.43-1.1-.31-1.47.58-1.51,3.18-3.28,4.81-2.77.34.11.53.57.85.6l.32-.08c.3-.45,1.41-.74,2.33-.74.6,0,1.11.12,1.26.41"/>
        <path class="cls-16" d="M10.8,82.8c-.45-.14-.73-.45-1.24-.51-1.55-.21-3.15.16-3.45,1.88-.03.18.12.37-.2.33-.72-.11-.41-1.21-.77-1.58-.73-.74-2.65.15-3.27.78-.37.39-.71.92-.45,1.45-.72.2-1.15-.57-.99-1.17.46-1.66,3.17-2.95,4.77-2.42.3.1.63.62.83.58,1.17-1.33,4.71-1.64,4.76.66"/>
        <path class="cls-16" d="M9.34,67.98c0,.1-.05.17-.17.21-.3.09-1.03-.25-1.43-.26-1.25-.02-1.96.55-2.73,1.45-.15.17-.43.73-.47.76-.09.05-.25.02-.36,0-.22-.47-.34-.8-.27-1.34.02-.15.4-1,.18-.99-.77.2-1.57.36-2.28.71-.61.3-1.49.88-1.43,1.64l-.52-.07c-.3-.34-.33-.67-.16-1.08.55-1.33,3.08-2.03,4.39-1.99.78.02.93-.01,1.11-.1.14-.08.31-.2.78-.36.83-.28,1.78-.13,2.52.35.22.14.83.74.83,1.07"/>
        <path class="cls-6" d="M9.9,37.84c-.65.46-1.37.96-1.96,1.49-.22.2-.5.41-.52.72-1.72-.66-5.22-1.21-7.11-1.41-1.22-.14-2.49-.23-3.71-.14v-1.96c2.21.1,4.52-.13,6.72,0,2.26.13,4.42.76,6.58,1.3"/>
        <path class="cls-16" d="M6.61,59.83c.46.27.2.82-.4.82h-.02c-1.7,0-2.19.34-3.62,1.2-1.2.71-.72.66-2.21.91-1.11.18-2.87,1.46-3.75,2.19v-1.31c1.03-.75,2.36-1.63,3.62-1.92.3-.07.66.04.95-.09.8-.4,1.55-1.39,2.7-1.86,1.03-.42,1.74-.56,2.74.06"/>
        <path class="cls-6" d="M6.25,40.83l-1.57,1.7c-1.48-.73-3.36-.63-4.95-.39l.22.37c1.11.13,2.23.26,3.33.45.25.04.5.21.62.23-.4.36-1.01.77-1.16,1.3-.48-.23-4.06-.73-4.31-.52-.05.33.04.24.26.32.9.34,2.31.66,3.26.73l-5.35,6.11v-11.6c3.24.02,6.5.54,9.65,1.3"/>
        <path class="cls-16" d="M5.46,43.31c-.52.03-1.06-.04-1.57-.13-.12-.02-.37-.18-.62-.23-1.1-.18-2.22-.32-3.33-.45l-.22-.37c1.59-.24,3.47-.34,4.95.39.32.15.78.37.78.78"/>
        <path class="cls-16" d="M4.81,55.16c-.78-.04-1.28.53-2.08.73-.65.16-1.09,0-1.71.51-.47.4-.73,1.26-1.49,1.25-.22,0-.43-.14-.65-.14-.79-.04-1.57.89-2.28,1.17v-1.17c.67-.36,1.32-.98,2.09-1.12.46-.08.65.2,1.09.2.24-.07.53-1.36,1.64-1.62.6-.14,2.42-.15,3.07-.05.15.02.3.09.33.25"/>
        <path class="cls-16" d="M3.12,44.81v.2c-.38-.02-.78.02-1.16,0-.96-.07-2.36-.39-3.26-.73-.22-.08-.32,0-.26-.32.25-.21,3.83.29,4.31.52.04.02.37.29.38.33"/>
      </g>
    </g>
  </g>
</svg>