<?xml version="1.0" encoding="UTF-8"?>
<svg id="Layer_1" data-name="Layer 1" xmlns="http://www.w3.org/2000/svg" xmlns:xlink="http://www.w3.org/1999/xlink" viewBox="0 0 90 90">
  <defs>
    <style>
      .cls-1 {
        fill: #a8796b;
      }

      .cls-2 {
        fill: #e2b596;
      }

      .cls-3 {
        fill: #abe0f9;
      }

      .cls-4 {
        fill: #bfbebe;
      }

      .cls-5 {
        fill: #a3af65;
      }

      .cls-6 {
        fill: #b6c370;
      }

      .cls-7 {
        fill: #f9f9f8;
      }

      .cls-8 {
        fill: #b7c470;
      }

      .cls-9 {
        fill: #fab056;
      }

      .cls-10 {
        fill: #98a951;
      }

      .cls-11 {
        fill: #5f845f;
      }

      .cls-12 {
        fill: none;
      }

      .cls-13 {
        clip-path: url(#clippath-1);
      }

      .cls-14 {
        fill: #919d5f;
      }

      .cls-15 {
        fill: #908881;
      }

      .cls-16 {
        fill: #727849;
      }

      .cls-17 {
        fill: #849a52;
      }

      .cls-18 {
        fill: #663925;
      }

      .cls-19 {
        fill: #b55d48;
      }

      .cls-20 {
        fill: #929497;
      }

      .cls-21 {
        fill: #ef7a49;
      }

      .cls-22 {
        fill: #6cafc4;
      }

      .cls-23 {
        fill: #808184;
      }

      .cls-24 {
        clip-path: url(#clippath);
      }
    </style>
    <clipPath id="clippath">
      <rect class="cls-12" x="0" width="90" height="90"/>
    </clipPath>
    <clipPath id="clippath-1">
      <rect class="cls-12" x="-2.18" y="-.35" width="94.35" height="90.71"/>
    </clipPath>
  </defs>
  <g class="cls-24">
    <g class="cls-13">
      <g>
        <path class="cls-7" d="M92.37-.35v94.75h-.13V-.22c-.56,0-1.13.01-1.69,0h-1.17c-4.43-.02-8.85-.03-13.28-.03-20.38-.03-40.76.03-61.14.03h-5.47C5.54-.21,1.58-.22-2.38-.22v-.13h94.75Z"/>
        <path class="cls-17" d="M90.92,80.03c.01.05.02.1.02.14h1.29v-4.22c-1.24-.08-2.47-.19-3.71-.31.88,1.43,1.34,3.06,2.39,4.39"/>
        <path class="cls-8" d="M87.22,61.71c-.46-.07-.95.04-1.39-.04-.64-.13-1.37-.89-1.96-1.17-2.1-1.01-5-.07-6.96.91-.32.16-.61.34-.89.54l-.07.33c.18,1.94-.17,4.19-.01,6.12,5.1,1.13,10.21,3.04,15.31,3.04-2.02.41-3.9.81-5.74,1.22.86.5,1.68,1.22,2.48,2.22.2.25.37.51.54.78,1.23.12,2.46.23,3.7.31v-13.49c-1.71.09-3.35-.54-5.02-.76M86.95,66.78c-.57.08-1.06-.8-1.65-1.07-.65-.29-1.34-.34-1.97.04-.48.28-1.01,1.39-1.59.9-.96-1.48.75-2.66,2.12-2.85,1.07-.13,2.59.39,3.22,1.28.32.43.66,1.58-.13,1.69"/>
        <path class="cls-17" d="M75.94,68.39c0,.09,0,.19.01.28.04.4.33.52.37.89-.63.8-.28,1.86-.36,2.82.79-.24,1.72-.4,2.55-.51,2.8-.36,5.02-.38,7.01.78,1.84-.41,3.71-.81,5.74-1.22-5.1,0-10.21-1.91-15.31-3.04"/>
        <path class="cls-18" d="M92.24,61.31v1.16c-1.71.09-3.35-.54-5.03-.76-.46-.07-.95.04-1.39-.04-.64-.13-1.37-.89-1.96-1.17-2.1-1.01-5-.07-6.96.91-.32.16-.61.34-.89.54l-.07.33c.18,2.03-.22,4.41,0,6.4.04.4.33.52.37.89-.63.8-.28,1.86-.36,2.82.79-.24,1.72-.4,2.54-.51,4.01-.52,6.82-.34,9.49,3,1.27,1.59,1.67,3.59,2.93,5.17.01.05.02.1.02.14,0,.36-.42.46-.49.58-.09.13-.01.38-.15.57-.28.37-1,.25-1.37.33-1.6.33-2.62.66-4.19-.23-.41,0-2.1,1.32-2.73,1.53-.24.08-.42.02-.59.07s-.29.26-.6.3c-.74.12-1.8-.04-2.57-.16-1.81-.27-3.58-.87-5.41-1.1-.71-.32-.37-1.02-.16-1.6-.15-.13-2.37,1.14-2.73,1.24-1.49.43-.79-1.79-.53-2.54l-2.35.72-.2.59c-.93-.24-1.73-.78-2.63-1.14-.92-.37-3.81-1.45-4.63-1.3-1.1.2-2.23.33-3.37.53-1.64.29-3.25.71-4.86,1.13-.17.04-.36.1-.53.14-.74.03-.63-.46-1.17-.52-2.22-.27-4.85-.04-6.99-.57-.52-.13-1.22-.5-1.76-.59-.46-.08-.86.16-1.39.1-.25-.03-1.07-.3-1.28-.41-.8-.42-.76-1.66-.75-2.45l-1.87.88c-.74-.08-.86-1.66-1.05-1.66-.67.42-.6,1.24-1.46,1.26-1.1.02-2.74-.89-3.62-1.52-1.77.33-3.63-.16-5.33.61-1.98-.79-4.45-1.08-6.25-2.2-.2-.12-.42-.45-.57-.47-.13-.03-.32.11-.49.09-.96-.1-2.04-.48-3.02-.62-2.07-.32-4.26-.16-6.18-1.13-.25-.22-.35-.7-.1-.95.46-.45,1.91.43,2.57.22-.01-.22.17-.5.15-.68-.01-.1-.36-.05-.28-.27.49-1.88.24-3.88.22-5.82-.24-.31-2.89-.29-3.4-.25-.73.08-1.7.63-2.32.61-.58,0-1.38-.75-1.96-1.02-1.49-.71-3.26-1.1-4.92-1.14v-1.57c2.4.05,4.83.8,6.87,2.07,1.86-.71,3.84-.86,5.77-.38v-16.41c-1.15-.2-1.92.9-2.61,1.63-.39.21-1.51-.76-1.7-1.19l-.5-.08-.09-.63c1.92-1.85,3.74-3.83,5.67-5.68,2.9-2.77,5.79-5.2,8.54-8.15.33-.35,1.73-1.58,1.77-1.89l-2.21-2.1c-.23-.32-.24-.93.21-1.07.22-.07.67.1.68-.15-.6-.33-1.3-1.03-1.75-1.57-.74-.86-2.1-2.94-.14-3.13.13-.01.29.04.21-.18-.1-.23-.52-.73-.67-1.02-.58-1.07-1.09-2.32-1.51-3.45-.15-.41-.79-2-.78-2.28.02-.36.28-.73.66-.71l2.44,1.08-3.21-4.9c-.04-.54.35-.88.9-.76.29.07.57.52.87.3-.6-.63-2.75-3.36-2.55-4.11.09-.32.55-.69.9-.63.21.04.64.51.61.05-1.12-1.33-2.07-2.94-2.48-4.63h1.43c.33,1.44,1.2,2.71,2.09,3.85.5.63,1.46,1.23,1.42,2.14-.59.04-.84.46-1.48.39-.16-.02-.85-.41-.73-.07.12.35,1.67,2.32,2.02,2.67.43.48,2.2,1.69,2.28,2.15.03.23-.02.17-.17.23-.17.07-1.08.1-1.29.08-.41-.05-1.85-.97-1.92-.89l2.19,3.35c.27.55.67,1.07.53,1.72-1.04.39-1.88-.08-2.85-.38l1.57,3.91c.34-.24.65-.53,1.03-.73.39-.18.98-.26,1.25-.43.23-.16.36-.53.58-.73.34-.32.83-.6,1.17-.91-1.42-.66-2.24-2.79,0-2.79-.17-1.03-.32-2.25.28-3.18.18-.28.6-.51.63-.8.08-.52-.4-.88-.21-1.5.3-.92,2.53-.95,3.34-.78-.02-1.1.09-2.31.52-3.32,1.07-.65,2.09.53,2.79,1.23l1.21-1.27c.9-.22.74,1.62.82,2.2.55-.5,3.05-1.77,3.37-.7.14.49-.8,2.11-1.04,2.69-.07.14-.3.68-.24.74,1.04-.03,3.02-.91,3.36.62.23,1.04-.49,1.01-.89,1.79l1.76,1.24s.15-.29.25-.4c.84-.88,5.91-1.79,7.17-1.67.5.05,1.63.18,2.08.27.37.09.96.7,1.26.96v3.06c1.29-1.18,2.32-1.75,3.58-.13.76-.68,2.11-1.51,3.13-1.57.61-.03,1.55.48,2.25.62.32.07,1.53.28,1.71.15.17-1.08.96-2.92,2.17-3.1.6-.1,1.32.18,1.75.07,1.17-.32,1.94-2.03,3.33-1.9.97.09,1.47,1.05,1.77,1.87.37.96.27,1.64-.05,2.59-.09.27-.87,1.59-.75,1.66,1.04.3,2.36.54,2.54,1.83l.85-2.22-1.7.08c-.36-.14-.59-.47-.47-.86.22-.68,2.61-2.26,3.27-2.86.8-.71,1.96-1.76,2.02-2.87l-.91.85c-.77.36-1.22-.48-.72-1.1.11-.12.3-.18.43-.35.88-1.17,1.5-2.65,1.78-4.09.12-.59.11-1.49.25-1.97.09-.3.42-.6.74-.6.12,0,.24.03.34.13.62.98.53,2.22.91,3.32.26.78.79,1.7,1.28,2.37.27.37,1.2,1.25,1.31,1.57.3.95-.33,1.51-1.25,1.44.47,1.09,1.09,2.01,2.12,2.63.71.41,1.59.5,2.03,1.24.09,1.36-2.21.21-2.53.68-.1.14-.07.28-.03.43.32,1.52,3.22,3.52,4.58,4.16.15.07.29.14.47.09.66-1.55,1.6-3.09,1.71-4.81h-2.28l-.3-.36c-.05-.18.04-.33.13-.48.32-.54,1.75-1.44,2.33-2.1,1.04-1.23,1.78-2.73,1.83-4.37l-2.02.91c-1.48-.38.3-1.9.77-2.61,1.04-1.58,1.51-3.25,1.9-5.08h1.17c-.17,1.89-.92,3.76-1.83,5.4-.03.22-.01.22.2.21.37-.03.68-.26.96.21.25,2.69-.95,5.32-2.85,7.16.49.03.89-.18,1.24.32.42.84-.65,3.67-1.04,4.57-.68,1.55-1.65,3.13-2.63,4.53-.09.13-.12.18-.3.17-.03.22.15.11.27.07.42-.15,1.41-.7,1.83-.4.39.27.04,1.72-.08,2.15-.6,2.25-2.2,4.01-4.36,4.83-.03.23.29.13.42.1.47-.11.85-.47,1.25.11.2.59-.58,1.3-.63,1.87.17.17,2.44-.84,2.82-1.01.76-.35,2.54-1.8,2.77-.22.13.85-.86,2.14-1.07,3.02-1.16.51-1.32-.1-1.34-1.14-1.22,2.04-2.59,4.62-4.67,5.89-.11.07-.23.1-.35.11-.05.2.04.21.13.33.37.5,1.53,1.33,1.76,1.75.05.11.09.18.04.3l-3.89,5.76c.75.11,2.48-1.76,2.94-.86.48.99-1.27,3.24-1.11,3.39,1.93-.27,3.73-1.22,5.29-2.35.82.08,1.18.2,1.07,1.08-.18,1.35-1.41,3.07-2.32,4.08-.32.35-.78.97-1.3.65-.09-.09-.17-.21-.21-.33-.2-.78,1.82-2.55,2.16-3.33l-2.39,1c-.73,1.05-1.47,2.14-2.36,3.11l-4.89,3.97v3.98l4.01-1.53c1.41-.02,2.82-.22,4.17.34.53.22,1.35.96,1.7,1.03.37.09.77-.02,1.14.03,1.71.21,3.52.61,5.14,1.17M89.38,80.33l-2.35-4.69c-.92.36-1.75,1.13-2.71,1.39-1.28.36-3.13-.02-3.83-1.24-.25-.17-1.35.21-1.74.24-1.36.11-2.63-.24-3.51-1.3-.8.74-1.77,1.4-2.54,2.14-.41.39-1.72,1.74-1.89,2.15-.2.46-.23,1.1-.46,1.57,1.4-.36,3.61-2.59,3.26.39.43.01.89.09,1.33.17,2.14.42,4.3,1.1,6.49.94.97-.59,2.66-2.04,3.81-1.86.5.08,1.25.49,1.73.49.69.01,1.64-.55,2.42-.39M88.53,5.52c.09-.04.09-.09,0-.13v.13ZM86.38,31.32h-.13v.26h.13v-.26ZM85.2,23.31l-2.15.73c-.57.11-1-.45-.97-.98.02-.41,1.39-1.85,1.74-2.29.12-.16.84-1.07.73-1.16-1.02-.14-2.03-.77-2.85-1.38-1.53-1.13-3.57-3.34-2.37-5.32-.82-.78-1.57-1.64-1.97-2.73-.22-.59-.34-1,.11-1.53l1.09-.25-1.49-1.97-.98-1.94c-.03.64-.87,1.85-.77,2.38.04.16.21.33.24.56.35,2.13-2.17,4.26-3.58,5.54-.09.08-.21.12-.33.13l.07.26c.45.04.94-.42,1.22.22.14.48-.27.8-.43,1.22-.32.78-.5,1.61-.87,2.38-.21.46-1.12,1.72-1.15,1.99-.07.45.7,1.27.88,1.85.62,1.98-.27,3.72-1.39,5.29l10.33,10.62c1.62-.98,2.9-2.43,3.97-3.98.1-.14.64-.87.54-.96-1.01.34-2.21.79-2.97-.22l.11-1.48c-.66.26-1.16.04-1.76,0-.82-.05-1.71.05-2.43-.43l-.1-.51c.12-.22.33-.39.54-.51,1.86-.98,3.69-.92,5.49-2.58.84-.77,1.28-1.85,1.5-2.94M86.12,74.79c0-.32-2.16-1.65-2.57-1.73-.63-.13-1.99-.05-2.67,0-.79.07-1.82.24-2.62.38-.82.13-1.89.15-2.43.83.48.6,1.65,1,2.4.98.76-.01,1.66-.51,2.45-.5.45.08.67.78,1.17,1.04,1.67.87,2.96,0,4.26-1M81.43,49.83c-.57-.05-1.74.16-2.15-.26-.07-.11-.15-.23-.17-.36-.07-.45.98-1.62,1.26-2.08.1-.16.09-.34.15-.47.08-.16.3,0,.26-.23-1.14.46-2.44,1.22-3.65.58l.02-.68c.88-.27,1.82-1.08,2.19-1.93.18-.41-.01-1.01-.05-1.48l-.91-.65c-.79.48-1.62.03-2.41.52v11.72c.28-.02.54-.29.77-.47,1.66-1.24,3.43-2.6,4.71-4.22M81.23,40.45c.21-.53-.41-.68-.72-.98-2.99-2.83-5.7-5.96-8.54-8.93-2.99-3.13-6.13-6.13-8.99-9.38l-2.09-2.36-2.53,2.42c-6.23,5.94-12.37,12.08-18.18,18.43-.45.5-1.07.92-1.37,1.5,0,.09.73.99.85,1.11.4.41,1.03.52,1.31,1.17,2.97-3.71,6.34-7.04,9.65-10.43,2.9-2.98,6.23-5.98,8.97-9.01.33-.36.59-.82.76-1.26.33-.18.63-.25.96-.03.58.37,1.32,1.45,1.82,1.96,2.07,2.14,4.22,4.22,6.25,6.38,3.01,3.2,5.82,6.6,8.93,9.71.47.47,1.19.86,1.3,1.63.2.04.21-.03.32-.14.12-.11,1.27-1.72,1.32-1.82M74.52,49.52c-.2-2.2.24-4.78,0-6.93-.05-.53-.91-1.12-1.3-1.49.1,5.56-.2,11.07-.14,16.63.03,3.21.08,6.56.27,9.77.03.49-.02,1,0,1.5h1.04c.04-6.2-.08-12.39-.01-18.59,0-.3.14-.59.14-.89M74.49,73.46l-.11-3.29c-.52.1-1.26.04-1.73.15-.33.07-.75.52-1.21.48l-2.8.14,3.2,4.95c.25-.29.61-.54.85-.84.14-.17.15-.47.32-.6.16-.13.42-.1.59-.2.13-.08.87-.7.89-.79M72.42,51.85c-.05-3.93.12-7.89-.05-11.8l-3.46-3.76v4.35s-.15.89-.18.99c-.04.14-.16.27-.26.39-.18.2-.47-.05-.57-.23-.26-.47-.31-2.14-.29-2.72.01-.25.14-.49.14-.77.01-.82.12-2.53-.03-3.24-.13-.57-1.36-1.4-1.73-1.91-.17,1.23,0,2.49-.06,3.72-.02.4-.09,1.32-.16,1.66-.04.23-.23.47-.42.59-.65.03-.83-1.52-.86-1.99-.1-1.47-.01-3.21,0-4.7,0-.23.09-.42.11-.63l-2.71-2.69v5.01s-.15.2-.14.32l-.51-.05c-.23-.12-.35-.66-.37-.92-.2-1.66.05-3.71.05-5.41l-1.7-1.95-4.57,4.56c-.34,1.11-.07,2.36-.21,3.45-.03.23-.24,1.01-.58.73-.76-.62-.49-1.76-.65-2.61-.42.5-1.03.93-1.44,1.43-.62.76-.28.59-.3,1.37,0,.4-.1,1.13-.15,1.55-.03.22-.11.48-.25.66-.39.29-.61-.84-.64-1.05-.04-.33.05-.7-.08-.97-.46.65-2.05,1.74-2.32,2.38-.13.29.16.6.16.93,0,.22-.11.44-.13.65-.04.54.05.97-.27,1.49-.99.17-.8-1.18-.97-1.82l-2.47,2.74.08,29.11c.15.46,1.22.09,1.61.08,7.89-.33,15.74-.47,23.59-1.04.28-.01.56-.15.85-.13l-.26-.22c-.22-.58,0-.9.01-1.4.02-1.87-.17-4.06-.01-5.87.02-.17.16-.98.33-.97.12.11.3.43.33.58v7.56c0,.07-.27.2-.26.33l1.57-.45.12-7.05c.07-3.44.18-6.86.13-10.29M71.46,13.47c.09-.04.09-.09,0-.13v.13ZM70.86,76.64l-3.58-5.44c-.21-.21-.73-.14-1.03-.13-.47.03-1.14.15-1.58.25-.46.3-1.69,3.27-2.02,3.97-.18.37-1.12,1.7-.89,2.03,1.64.43,3.32.89,4.74,1.83.63-.53,3.01-.85,3.43-1.21l.93-1.3ZM70.22,22.52c.11-1.59-1.02-1.91-1.16-2.87-.15-.99.33-2.04.07-3.06-.1-.15-1.16-.57-1.37-.6-.37-.04-.63.18-1.09-.08-.89-.51.2-1.78.46-2.36.53-1.21.85-2.57-.22-3.59-1.16.68-2.05,1.87-3.52,1.94-.43.02-.88-.25-1.24-.07-.37.29-.63.71-.8,1.14-.24.6-.24,1.76-.98,1.9-1.27-.11-2.47-.21-3.69-.58-.36-.1-.49-.36-.97-.32-.4.03-1.71.7-2.02.98-.41.39-.3.78-1.12.72-.7-.05-.84-.96-1.45-1.15-.53-.05-1.86,1.48-1.98,2.02-.09.43-.07,3.46.11,3.68l10.16-2.14c.54-.63.88-.91,1.76-.85l7.71,7.94c.51.12,1.33-2.18,1.35-2.67M60.91,75.9l2.14-4.57-5.12.29-1.91,1.34c1.3.88,2.6,2.07,2.88,3.71h1.47s.54-.77.54-.77ZM56.34,21.03c.13-.12.86-.78.72-.91-3.7.7-7.36,1.58-11.05,2.31-6.53,1.3-13.1,2.36-19.62,3.72-2.7,2.58-5.15,5.45-7.91,7.98-3.33,3.09-7.1,5.77-10.36,8.93-.13.12-.24.17-.2.39,1.32-.21,2.65-.17,3.98-.26,6.81-.46,13.65-1.15,20.46-1.83,1.41-.14,2.89-.11,4.27-.42,6.43-6.79,12.88-13.54,19.71-19.9M51.06,75.38l5.08-3.65-4.76.13c-.53.02-.88.48-1.2.85,0,0,.88,2.67.88,2.67ZM57.58,76.93c-.3-1.48-1.52-2.3-2.7-3.1l-3.68,2.53.12,1.87c2.04-.57,4.13-1.11,6.25-1.31M41.43,77.18l8.46.92c-.18-1.41-.38-2.93-.88-4.27-.26-.7-.69-1.15-.97-1.83l-6.36.11s-.25,5.07-.25,5.07ZM44.54,21.29l3.65-.78c-.15-.36-.24-.72-.27-1.11-.14-1.9,0-4.22.14-6.12.02-.37,0-.75,0-1.11-.62.26-3.35-.53-3.63-.12l.11,9.24ZM43.24,21.47v-9.82l-3.18.8-.22.17v9.38c0,.09.18.18.29.17.24-.01,3.08-.54,3.1-.71M43.11,70.94l.12-28.02-1.82,1.88c-.03,1.13.04,2.27,0,3.4,0,.3-.13.59-.14.89-.16,7.28.14,14.57,0,21.84h1.83ZM40.5,70.81v-22.09c-.36-.84.13-3.5-.28-4.08-.05-.08-.3-.08-.42-.17-.3-.24-.58-.76-1.12-.76v26.97l1.83.13h-.01ZM40.11,76.81l.26-4.7-7.04-.26-.39,2.87c1.01-1.38,2.5-1.88,2.87.26.33.23,2.13-1.44,2.61-.21.21.52.12,1.22.41,1.74l1.27.29h.01ZM38.81,22.46v-7.94l-.6-.13c-.37-1.28-2.14-1.74-2.79-2.54-.67-.84.68-1.68,1.04-2.41l-3.04.37c-.33-.15-.36-.33-.33-.65.05-.51,1.17-3.06,1.02-3.23l-2.41,1.3c-.6-.01-.4-1.66-.59-2.09l-.46.77-.07.65c-.26.03-.55-.13-.74-.3-.49-.45-.78-1.43-1.73-1.38,0,.5-.22,1-.26,1.49-.07.65.28,2.02-.6,2.15h-2.48c-.23.33.28.67.34.99.14.8-.45.7-.85,1.1-.62.61-.35,1.6-.62,2.38-.2.55-.59,1.33-1.27,1.27.02,1.1,1.16.88,1.9,1.29.57.82-1.23,1.66-1.71,2.09-.74.67-.43.65-.68,1.26-.35.86-1.18.18-1.85.77-.85.73-.13,1.3.6,1.73.57.33,1.09.32,1.61.61-.07.39-.36.72-.75.8l-2.24.1c.86,1.38,2.49,2.08,3.25,3.52l-2.08.2c-.14.12.28.49.38.59.2.18,1.09.92,1.27.96.18.03.23-.01.37-.11.58-.38,1.41-1.49,2.01-2.02.42-.39.9-.76,1.36-1.12.7-.29,1.5-.27,2.2-.41,3.57-.75,7.15-1.65,10.78-2.06M37.63,70.68v-28.28l-2.46.53c-.02,2.18,0,4.36-.27,6.5-.74.09-.8-.96-.9-1.51-.26-1.61-.1-3.25-.14-4.87l-2.74.13c0,.87.24,2.37-1.05,1.61l-.12-1.35-2.35.18-.1.13c.27.67.09,1.66-.8,1.32-.42-.22-.23-.98-.26-1.37l-2.36.18-.1.15c-.02.47.02.89-.34,1.23-.18.22-.73.13-.87-.09l-.12-1.22-2.35.26c.24,1.11-.1,1.7-.5,1.7-.37,0-.77-.5-.81-1.55l-2.98.26-.27,3.66-.33.23s-.26-.52-.29-.62c-.1-.35-.26-1.05-.29-1.4-.05-.6.04-1.27,0-1.88l-.91.13.13,23.33h3.46s.1.16.2.13v-20.4c.47-.58,1.25-.65,2.07-.63.57,0,1.14.07,1.64.04,2.12-.11,4.26-.42,6.38-.52.34-.02,1.25-.05,1.48.16l.17,23.22.11.15,4.57.32c-.02-1.1-.04-2.19.26-3.25.18.03.52.26.52.46v2.79l2.73.13h0ZM31.9,74.47l.52-2.74-2.79-.25c-.37.08-.15,1.58-.2,1.94,0,0,2.47,1.05,2.47,1.05ZM28,73.16l.13-25.15c-3.06.08-6.07.53-9.12.39-.05,5.4.07,10.82,0,16.24,0,.3-.13.59-.14.89-.01.74-.08,5.44.08,5.69.04.08.24.1.33.22.25.33.23.76.9.68l.08-20.98c-.34-.18-.83-.5-.43-.88.34-.32,2.41-.11,3.03-.16,1.25-.11,3.49-1,3.72.97.38,3.32-.29,7.32,0,10.7l-.13,11.07.21.3,1.36.02h-.02ZM25.39,50.99h-3.39v20.73h3.39v-20.73ZM17.7,71.33v-2.21c-1.08.28-2.23.03-3.33.12-.49.04-1.07.26-1.57.27-.42.01-.8-.18-1.23-.14v.72l4.49.72,1.63.52h.01ZM16.26,4.61h-.13v.26h.13v-.26ZM13.14,44.75h-1.7v23.46h1.7v-23.46Z"/>
        <path class="cls-16" d="M92.24-.22v61.52c-1.62-.57-3.44-.97-5.14-1.17-.37-.05-.77.05-1.14-.03-.35-.08-1.16-.82-1.7-1.03-1.35-.55-2.75-.36-4.17-.34l-4.01,1.53v-3.98l4.89-3.97c.89-.97,1.63-2.05,2.36-3.11l2.39-1c-.35.78-2.36,2.54-2.16,3.33.03.12.12.24.21.33.52.32.99-.3,1.31-.65.9-1.01,2.13-2.73,2.32-4.08.12-.88-.25-1-1.07-1.08-1.56,1.13-3.36,2.08-5.29,2.35-.16-.15,1.59-2.4,1.11-3.39-.46-.9-2.19.97-2.94.86l3.89-5.76c.04-.12.01-.2-.04-.3-.23-.42-1.39-1.25-1.76-1.75-.09-.12-.18-.13-.13-.33.12,0,.24-.04.35-.11,2.08-1.27,3.45-3.85,4.67-5.9.02,1.04.17,1.65,1.34,1.14.21-.88,1.2-2.18,1.07-3.02-.23-1.58-2.01-.13-2.77.22-.38.17-2.64,1.19-2.82,1.01.05-.58.83-1.28.63-1.87-.4-.58-.78-.22-1.25-.11-.13.03-.46.13-.42-.1,2.16-.82,3.76-2.58,4.36-4.83.12-.43.47-1.88.08-2.15-.41-.29-1.4.25-1.83.4-.12.04-.3.15-.27-.07.18.01.22-.04.3-.17.98-1.39,1.95-2.97,2.63-4.52.39-.9,1.47-3.73,1.04-4.57-.35-.5-.75-.28-1.24-.32,1.9-1.84,3.1-4.47,2.85-7.16-.27-.47-.59-.24-.96-.21-.21.01-.23.01-.2-.21.9-1.64,1.65-3.51,1.83-5.4.55.01,1.13,0,1.69,0M90.18,40.66c.7-1.28,1.33-3.07,1.01-4.51-.23-.05-.25.07-.37.21-.34.47-.62,1.53-.9,2.1-.28.56-.68,1.18-1.01,1.72-.46.75-1.26,1.4-1.09,2.34,1.07.49,1.91-1.04,2.36-1.85M88.13,54.77c.74-.96,1.29-2.58.99-3.76-.4-.29-1.02,1.55-1.15,1.78-.2.35-.54.83-.81,1.14-.47.54-2.1,1.75-2.28,2.15-.12.27-.08.61-.04.89.39.18.68.22,1.08,0,.33-.17,1.94-1.84,2.22-2.21M86.62,38.14c1.18-1.63,2.28-3.71,1.98-5.77l-.46.14c-.54,1.49-1.21,2.96-2.1,4.28-.43.64-1.75,1.97-1.76,2.68,0,.47.28.54.71.43.42-.12,1.33-1.35,1.63-1.76"/>
        <path class="cls-18" d="M91.2,36.15c.31,1.45-.32,3.23-1.01,4.51-.45.81-1.29,2.34-2.36,1.85-.17-.94.63-1.59,1.09-2.34.33-.54.73-1.16,1.01-1.72.28-.57.57-1.63.9-2.1.12-.14.14-.26.37-.21"/>
        <path class="cls-4" d="M82.27,77.02c-.74-.19-1.42-.6-1.78-1.23-.25-.17-1.35.21-1.74.24-1.36.11-2.63-.24-3.51-1.3-.8.74-1.77,1.4-2.54,2.14-.41.39-1.72,1.74-1.89,2.15-.2.46-.23,1.1-.46,1.57,1.4-.36,3.61-2.59,3.26.39.43.01.89.09,1.33.17.93.18,1.87.41,2.81.6,1.85-1.35,3.32-2.93,4.52-4.74"/>
        <path class="cls-15" d="M87.03,75.64c-.92.36-1.75,1.13-2.71,1.39-.62.17-1.36.17-2.05-.01-1.2,1.81-2.67,3.39-4.52,4.74,1.22.25,2.44.42,3.68.33.97-.59,2.66-2.04,3.81-1.86.5.08,1.25.49,1.73.49.68.01,1.64-.55,2.41-.39,0,0-2.35-4.69-2.35-4.69Z"/>
        <path class="cls-3" d="M76.1-.25c4.43,0,8.85,0,13.28.03-.39,1.83-.86,3.5-1.9,5.08-.47.71-2.25,2.23-.77,2.61l2.02-.91c-.04,1.64-.78,3.14-1.83,4.37-.58.66-2.01,1.56-2.33,2.1-.09.15-.18.29-.13.48l.3.36h2.28c-.11,1.72-1.04,3.25-1.71,4.81-.17.05-.32-.02-.47-.09-1.36-.64-4.26-2.64-4.58-4.16-.03-.15-.07-.29.03-.43.33-.48,2.62.67,2.53-.69-.45-.74-1.33-.83-2.03-1.24-1.03-.62-1.65-1.54-2.12-2.63.92.08,1.56-.49,1.25-1.44-.11-.32-1.03-1.2-1.3-1.57-.49-.67-1.02-1.59-1.28-2.37-.38-1.1-.29-2.34-.91-3.32-.1-.1-.22-.13-.34-.13V-.25h.01Z"/>
        <path class="cls-18" d="M89.12,51.01c.3,1.19-.25,2.81-.99,3.76-.28.37-1.89,2.03-2.22,2.21-.39.22-.69.18-1.08,0-.03-.28-.08-.62.04-.89.18-.4,1.82-1.61,2.28-2.15.26-.32.61-.79.8-1.14.13-.23.75-2.08,1.15-1.78"/>
        <path class="cls-18" d="M88.6,32.37c.3,2.07-.79,4.14-1.98,5.78-.31.41-1.21,1.64-1.63,1.76-.42.11-.71.03-.71-.43.01-.71,1.33-2.03,1.76-2.68.89-1.33,1.55-2.79,2.1-4.28l.46-.14h0Z"/>
        <path class="cls-11" d="M88.53,5.39c.09.04.09.09,0,.13v-.13Z"/>
        <path class="cls-18" d="M87.09,65.09c.31.44.66,1.58-.13,1.69-.57.08-1.05-.8-1.65-1.07-.65-.29-1.34-.34-1.97.04-.48.28-1.01,1.39-1.59.9-.96-1.48.75-2.66,2.12-2.85,1.07-.13,2.59.39,3.22,1.28"/>
        <rect class="cls-11" x="86.25" y="31.32" width=".13" height=".26"/>
        <path class="cls-14" d="M83.05,24.03l2.15-.73c-.22,1.09-.66,2.16-1.5,2.94-1.8,1.65-3.63,1.6-5.49,2.58-.22.12-.42.29-.54.51l.1.51c.72.49,1.61.38,2.42.43.6.04,1.1.26,1.76,0l-.11,1.48c.76,1.01,1.96.55,2.97.22.1.09-.45.82-.54.96-1.07,1.55-2.35,3-3.97,3.98l-10.33-10.63c1.12-1.57,2.01-3.31,1.39-5.29-.18-.58-.95-1.4-.88-1.85.03-.27.95-1.53,1.15-1.99.37-.77.55-1.6.87-2.38.16-.41.58-.74.43-1.22-.28-.64-.77-.17-1.22-.22l-.07-.26c.12-.01.24-.05.33-.13,1.41-1.27,3.93-3.4,3.58-5.54-.03-.23-.2-.39-.24-.55-.1-.53.74-1.74.77-2.38l.98,1.94,1.49,1.97-1.09.25c-.45.53-.33.95-.11,1.53.4,1.09,1.15,1.95,1.97,2.73-1.2,1.98.84,4.19,2.37,5.32.82.61,1.83,1.24,2.85,1.38.11.1-.61,1-.73,1.16-.35.45-1.72,1.88-1.74,2.29-.03.53.4,1.09.97.98M80.2,25.47c.76-.6-1.18-1.7-1.58-2.09-.6-.61-1.12-1.48-1.62-2.16l-.46-.18c-.66.87.12,2.3.71,3.06.54.68,2.04,2.09,2.95,1.38M79.72,21.53c.36-.5-1.07-1.82-1.4-2.28-.34-.48-.78-1.52-1.05-1.8-.17-.18-.28-.23-.53-.2-.13,1.25.23,2.28.99,3.25.46.57,1.23,1.38,2,1.03M75.4,16.37c.29-.75.49-1.55.41-2.38l-.63.02c-.21.73-.51,1.4-.86,2.08-.3.58-1.42,1.92-1.23,2.51.08.22.42.36.64.29.5-.13,1.46-1.98,1.66-2.52"/>
        <path class="cls-8" d="M83.55,73.06c.4.08,2.57,1.41,2.57,1.73-1.3,1-2.59,1.87-4.26,1-.5-.26-.73-.97-1.17-1.04-.78-.01-1.69.49-2.45.5-.75.02-1.92-.38-2.4-.98.53-.67,1.61-.7,2.42-.83.81-.14,1.83-.32,2.62-.38.68-.05,2.04-.13,2.68,0"/>
        <path class="cls-18" d="M83.88,88.18v.72c-.27.11-.59.09-.82.29-.32.29-.89,1.11-1.12,1.49-.29.51-.47,1.12-.78,1.62-.39.25-.78-.62-.77-.95.05-1.19,2.05-3.98,3.49-3.18"/>
        <path class="cls-14" d="M79.28,49.57c.41.42,1.59.21,2.15.26-1.28,1.62-3.04,2.98-4.71,4.22-.23.17-.49.45-.77.47v-11.72c.79-.49,1.62-.04,2.41-.52l.91.65c.04.47.24,1.07.05,1.48-.37.85-1.3,1.65-2.19,1.92l-.02.68c1.22.64,2.51-.12,3.65-.58.04.22-.18.07-.26.23-.07.13-.05.3-.15.47-.28.46-1.33,1.63-1.26,2.08.02.13.11.25.17.36"/>
        <path class="cls-18" d="M81.21,86.86c1.02.21-.83,1.61-.9,2.07l-.98,2.47h-.38c-.12-.88-.21-1.43.11-2.29.23-.63,1.42-2.38,2.15-2.24"/>
        <path class="cls-4" d="M80.52,39.47c.3.29.92.45.72.98-.04.1-1.2,1.71-1.32,1.82-.11.11-.12.18-.32.14-.12-.77-.84-1.16-1.31-1.63-3.11-3.11-5.92-6.52-8.93-9.71-2.03-2.16-4.19-4.24-6.25-6.38-.5-.51-1.24-1.59-1.82-1.96-.33-.22-.63-.15-.96.03-.17.45-.43.9-.76,1.26-2.74,3.02-6.07,6.03-8.97,9.01-3.31,3.39-6.68,6.72-9.65,10.43-.27-.65-.9-.76-1.3-1.17-.12-.12-.85-1.02-.85-1.11.3-.58.92-1,1.37-1.5,5.82-6.35,11.95-12.5,18.18-18.43l2.53-2.42,2.09,2.36c2.86,3.24,6,6.24,8.99,9.38,2.84,2.97,5.55,6.1,8.54,8.93"/>
        <path class="cls-18" d="M78.62,23.38c.39.39,2.34,1.49,1.58,2.09-.9.71-2.4-.7-2.95-1.38-.59-.75-1.37-2.19-.71-3.06l.46.19c.5.68,1.02,1.55,1.62,2.16"/>
        <path class="cls-18" d="M78.32,19.25c.34.47,1.76,1.78,1.4,2.28-.77.35-1.54-.47-2-1.03-.76-.97-1.12-2-.99-3.25.25-.03.36.01.53.2.27.28.72,1.33,1.06,1.8"/>
        <path class="cls-18" d="M75.31,87.36c1.85.14,3.03,3.47,1.91,4.79-.04.04-.43.3-.49.3-.4-.9-.18-1.78-.45-2.74-.24-.84-.89-1.48-.98-2.35"/>
        <path class="cls-3" d="M76.1-.25v.86c-.32,0-.65.29-.74.6-.14.48-.13,1.38-.25,1.97-.28,1.44-.9,2.91-1.78,4.09-.13.16-.33.23-.43.35-.5.62-.05,1.46.72,1.1l.91-.85c-.07,1.11-1.22,2.16-2.02,2.87-.66.6-3.06,2.17-3.27,2.86-.12.39.11.72.47.86l1.7-.08-.85,2.22c-.18-1.28-1.5-1.52-2.54-1.83-.12-.08.66-1.39.75-1.66.33-.95.42-1.63.05-2.59-.3-.82-.8-1.78-1.77-1.87-1.39-.13-2.15,1.59-3.33,1.9-.44.12-1.15-.16-1.75-.07-1.22.18-2,2.02-2.17,3.1-.17.13-1.39-.09-1.71-.15-.7-.14-1.64-.65-2.25-.62-1.02.05-2.37.88-3.13,1.57-1.26-1.62-2.28-1.04-3.58.13v-3.06c-.3-.26-.89-.87-1.26-.96-.45-.09-1.58-.22-2.08-.27-1.26-.12-6.33.79-7.17,1.67-.1.11-.2.43-.25.4l-1.76-1.24c.4-.78,1.12-.75.89-1.79-.34-1.53-2.32-.65-3.36-.62-.07-.05.17-.6.24-.74.24-.58,1.19-2.2,1.04-2.69-.33-1.08-2.82.2-3.37.7-.08-.58.09-2.42-.82-2.2l-1.21,1.27c-.71-.7-1.73-1.88-2.79-1.23-.43,1.01-.54,2.22-.52,3.32-.8-.16-3.03-.14-3.34.78-.2.62.28.98.21,1.5-.03.29-.45.52-.63.8-.6.93-.46,2.14-.28,3.18-2.24,0-1.42,2.13,0,2.79-.35.32-.84.6-1.17.91-.22.2-.35.57-.58.73-.27.17-.86.25-1.25.43-.38.2-.7.49-1.03.73l-1.57-3.92c.97.3,1.8.77,2.85.38.14-.65-.26-1.16-.53-1.72l-2.19-3.35c.08-.08,1.51.84,1.93.89.22.02,1.12-.01,1.29-.08.15-.06.21,0,.17-.23-.09-.47-1.85-1.68-2.28-2.15-.35-.36-1.9-2.33-2.02-2.67-.12-.35.57.04.73.07.64.07.89-.35,1.48-.39.03-.91-.92-1.51-1.42-2.14-.89-1.14-1.76-2.42-2.09-3.85,20.38,0,40.76-.07,61.14-.03"/>
        <path class="cls-18" d="M75.82,13.98c.08.83-.12,1.63-.41,2.38-.21.54-1.16,2.39-1.66,2.52-.22.07-.57-.08-.64-.29-.2-.59.92-1.94,1.23-2.51.35-.67.65-1.35.86-2.08l.63-.02h0Z"/>
        <path class="cls-18" d="M74.81,90.02c.33.69,1.03,2.88.11,3.29-.84-.1-.7-1.33-.88-2-.32-1.18-.97-2.27-1.99-2.97l.35-.42c.98-.29,2.05,1.35,2.41,2.11"/>
        <path class="cls-4" d="M74.52,42.59c.24,2.14-.2,4.73,0,6.93,0,.3-.14.59-.14.89-.07,6.2.05,12.39.01,18.59h-1.05c-.02-.5.03-1.01,0-1.5-.2-3.21-.24-6.56-.27-9.77-.05-5.56.24-11.07.14-16.63.39.37,1.25.96,1.31,1.49"/>
        <path class="cls-15" d="M74.38,70.17l.11,3.3c-.02.1-.76.72-.89.79-.16.1-.42.07-.59.2-.16.13-.17.42-.32.6-.24.29-.6.54-.85.84l-3.2-4.95,2.8-.14c.46.04.88-.41,1.21-.48.47-.11,1.21-.05,1.73-.15"/>
        <path class="cls-19" d="M72.37,40.05c.17,3.91,0,7.87.06,11.8.05,3.43-.07,6.85-.13,10.29l-.12,7.05-1.57.45c-.01-.13.26-.26.26-.33v-7.56c-.02-.14-.21-.47-.33-.58-.16,0-.3.79-.33.97-.16,1.82.03,4,.01,5.87-.01.5-.23.83-.01,1.4l.26.22c-.29-.02-.57.12-.85.13-7.85.58-15.7.72-23.59,1.04-.39.01-1.46.38-1.61-.08l-.08-29.11,2.47-2.74c.16.63-.02,1.99.97,1.82.33-.52.23-.95.27-1.49.02-.22.13-.43.13-.65,0-.34-.29-.64-.16-.93.26-.64,1.86-1.73,2.32-2.38.13.27.03.64.08.97.03.22.25,1.35.64,1.05.14-.18.22-.45.25-.66.05-.42.14-1.15.15-1.55.02-.78-.32-.61.3-1.37.4-.5,1.01-.94,1.43-1.44.16.85-.11,1.99.65,2.61.34.28.54-.5.58-.73.14-1.09-.13-2.34.21-3.45l4.57-4.56,1.7,1.95c0,1.7-.25,3.74-.05,5.41.02.26.14.8.37.92l.51.05c-.01-.12.14-.27.14-.32v-5.01l2.71,2.69c-.02.21-.11.4-.11.63-.01,1.49-.1,3.23,0,4.7.03.47.21,2.02.86,1.99.2-.12.38-.36.42-.59.08-.35.14-1.26.16-1.66.07-1.23-.11-2.49.07-3.72.37.51,1.6,1.35,1.73,1.91.15.71.04,2.42.03,3.24,0,.28-.13.52-.14.77-.02.58.03,2.25.29,2.72.1.17.38.42.57.23.1-.12.22-.25.26-.39.03-.1.18-.94.18-.99v-4.35l3.46,3.76h0ZM68.92,57.47c.16-2.14.16-5.83,0-7.96-.03-.43-.17-.83-.27-1.24-.28-.22-.49.58-.51.73-.23,1.75-.53,7.14-.08,8.66.04.13.29.63.39.65.41-.05.45-.52.47-.84M66.57,45.07c.03-.32-.21-.68-.52-.78h-14.86c-.39.23-.58.84-.28,1.2.2.22.66.13.67.5-.13,5.82.15,11.66,0,17.48,0,.54-.35.95.07,1.49.33.45.95.22,1.42.26,2.77.25,5.58.11,8.34,0,1.44-.06,2.87-.11,4.3-.13.13-.02.48-.21.55-.29.42-.48-.04-.77-.1-1.2v-17.74c-.05-.36.37-.48.4-.78M58.1,35.76c.18-.14.15-3.22.13-3.72,0-.22-.11-.42-.13-.65-.04-.39.17-1.03-.26-1.24-.07.38-.23.73-.26,1.11-.09.93-.1,2.86,0,3.78.03.3.14.75.53.72M47.88,59.48c.38-1.85.34-6.44.18-8.41-.03-.36-.23-1.88-.72-1.89-.32.43-.15,1-.2,1.5-.14,1.83-.23,3.76-.26,5.6-.03,1.37-.15,2.83.39,4.11.33-.14.52-.58.6-.91"/>
        <path class="cls-11" d="M71.46,13.34c.09.04.09.09,0,.13v-.13Z"/>
        <path class="cls-23" d="M67.28,71.2l3.58,5.44-.93,1.3c-.41.36-2.79.67-3.43,1.21-1.42-.93-3.1-1.39-4.74-1.83-.23-.34.71-1.66.89-2.03.34-.7,1.57-3.67,2.02-3.97.43-.1,1.11-.22,1.58-.25.3-.01.83-.08,1.03.13"/>
        <path class="cls-10" d="M68.87,25.19c.51.12,1.33-2.17,1.35-2.66.11-1.59-1.02-1.91-1.16-2.87-.15-.99.33-2.05.07-3.06-.05-.08-.37-.23-.69-.36-2.18.38-4.29,1.08-6.28,2.04l6.72,6.92h0Z"/>
        <path class="cls-6" d="M66.66,15.92c-.89-.51.2-1.78.46-2.36.53-1.21.85-2.57-.22-3.59-1.16.68-2.05,1.87-3.52,1.94-.43.02-.88-.25-1.24-.07-.37.29-.63.71-.8,1.14-.24.6-.24,1.76-.98,1.9-1.27-.11-2.47-.21-3.69-.58-.36-.1-.49-.36-.97-.32-.4.03-1.71.7-2.02.98-.41.39-.3.78-1.12.72-.7-.05-.84-.96-1.45-1.15-.53-.05-1.86,1.48-1.98,2.02-.09.43-.07,3.46.11,3.68l10.16-2.14c.54-.63.88-.91,1.76-.85l.99,1.02c1.99-.96,4.09-1.66,6.28-2.04-.29-.12-.58-.22-.68-.23-.37-.04-.63.18-1.09-.08"/>
        <path class="cls-18" d="M68.92,49.51c.16,2.13.16,5.82,0,7.96-.02.32-.05.78-.47.84-.1-.02-.35-.52-.39-.65-.46-1.51-.15-6.91.08-8.66.02-.15.23-.95.51-.73.1.41.24.8.27,1.24"/>
        <path class="cls-18" d="M66.05,44.28c.32.1.55.47.52.78-.03.3-.46.42-.4.78v17.74c.05.42.52.72.1,1.2-.08.09-.42.27-.55.29-1.42.02-2.86.08-4.3.13-2.76.11-5.57.25-8.34,0-.48-.04-1.1.18-1.42-.26-.41-.54-.08-.95-.07-1.49.15-5.82-.13-11.66,0-17.48,0-.37-.48-.28-.67-.5-.29-.36-.11-.97.28-1.18h14.86,0ZM65.08,63.65l-.08-17.87h-12.26v18.12c.25.07.46.12.72.14,2.59.2,5.49-.02,8.08-.14,1.1-.05,2.18-.03,3.26-.13l.27-.12h.01Z"/>
        <path class="cls-18" d="M63.96,84.05c.66.83,2.61,4.77,2.59,5.73-.01.28-.25.64-.27.95-1.09.45-2.29.3-3.43.42-1.91.18-3.83.41-5.73.65-1.24-.03-4.07-1.91-5.37-2.2-1.66-.36-4.4.21-6.22-.03-.49-.07-1.08-.25-.99-.84.07-.43.59-.36.86-.58.15-.13.27-.41.45-.6,1.39-1.42,3.44-3.48,5.03-4.62.38-.27.8-.45,1.25-.55,1.61-.38,3.59.09,5.13.16,1.44.07,4.53-.29,5.67.46.24.16.84.79,1.04,1.04M65.14,89.78l-.65-1.5c-1.18.38-2.33-.52-3.52-.85-2.7-.72-6.47-.12-7.44-3.57-.16-.12-1.33.04-1.6.13-.51.15-1.96,1.44-2.43,1.87-.87.79-1.67,1.69-2.48,2.55h4.37s.15-.12.27-.13c1.05-.1,4.3,1.92,5.6,2.08l5.59-.64,2.28.07h.01ZM60.58,86.12l3.38,1.18c-.28-.71-1.34-2.81-2.04-3.04-1.21-.38-3.45-.09-4.8-.15l-2.41-.26c-.04.2.09.28.16.42.84,1.64,4.12,1.57,5.71,1.85"/>
        <path class="cls-4" d="M58.18,86.97c-2.04-.29-4-.76-4.66-3.11-.16-.12-1.33.04-1.6.13-.51.15-1.96,1.43-2.42,1.87-.71.65-1.38,1.37-2.04,2.08,3.71.28,7.2-.17,10.73-.97"/>
        <path class="cls-15" d="M60.96,87.43c-.86-.23-1.83-.32-2.78-.46-3.53.8-7.02,1.25-10.73.97-.15.15-.29.31-.44.46h4.37s.15-.12.27-.13c1.05-.1,4.3,1.91,5.6,2.08l5.59-.64,2.28.07-.65-1.5c-1.19.38-2.33-.52-3.52-.85"/>
        <path class="cls-7" d="M65.01,45.79l.08,17.87-.27.12c-1.09.1-2.16.08-3.26.13-2.59.12-5.49.34-8.08.14-.26-.02-.47-.08-.72-.14v-18.12h12.26-.01ZM63.71,61.89c-.23-4.32.27-8.9,0-13.17-.03-.41-.15-.83-.21-1.24-.17-.18-.4-.24-.65-.26-1.03-.11-7.05.2-7.34-.02-.07-.05-.05-.29-.23-.35-.55-.2-.79.21-.84.7-.37,3.6.28,7.81,0,11.47.12.9.25,2.1.14,3-.04.32-.32.53-.26.75.14.26.42.43.72.48,1.24.18,3.02-.05,4.28-.13.83-.04,1.66-.02,2.48-.13.79-.09,1.99-.05,1.9-1.1"/>
        <path class="cls-8" d="M63.96,87.3l-3.38-1.17c-1.59-.28-4.87-.21-5.71-1.85-.08-.14-.21-.23-.16-.43l2.41.26c1.35.07,3.59-.23,4.8.15.71.23,1.76,2.33,2.05,3.03"/>
        <path class="cls-18" d="M63.71,48.72c.27,4.28-.23,8.85,0,13.17.09,1.04-1.11,1.01-1.9,1.1-.82.11-1.65.09-2.48.13-1.26.08-3.05.32-4.28.13-.29-.04-.58-.22-.72-.48-.05-.22.22-.43.26-.75.11-.9-.02-2.1-.14-3,.28-3.66-.37-7.87,0-11.47.04-.49.28-.89.84-.7.17.05.16.29.23.35.29.22,6.31-.09,7.34.02.25.02.48.08.65.26.05.41.17.83.21,1.24M60.96,61.82c.05-.14-.13-.28-.13-.33v-13.22h-5.21l-.13,13.81,5.47-.26Z"/>
        <path class="cls-15" d="M63.05,71.33l-2.14,4.57-.54.76h-1.47c-.28-1.63-1.58-2.82-2.88-3.7l1.92-1.34,5.12-.29h0Z"/>
        <path class="cls-15" d="M57.54,49.68h3.3v-1.41h-5.21l-.13,13.81,1.99-.09c-.2-3.98-.89-8.54.05-12.3"/>
        <path class="cls-4" d="M60.83,49.68h-3.3c-.94,3.76-.26,8.33-.05,12.3l3.48-.17c.06-.14-.13-.28-.13-.33v-11.81h0Z"/>
        <path class="cls-18" d="M58.23,32.04c.02.5.05,3.58-.13,3.72-.39.03-.5-.41-.53-.72-.09-.92-.08-2.85,0-3.78.03-.38.2-.73.26-1.11.44.21.22.85.26,1.24.02.23.12.43.13.65"/>
        <path class="cls-17" d="M62.48,82.8c3.44.07,6.87-.21,10.2-.86-.45-.35-.17-.97.02-1.48-.15-.13-2.37,1.14-2.73,1.24-1.49.43-.79-1.79-.53-2.55l-2.35.72-.2.59c-.93-.24-1.73-.78-2.63-1.14-.92-.37-3.81-1.45-4.63-1.31-1.1.2-2.23.33-3.37.53-1.64.29-3.25.71-4.86,1.13-.17.04-.36.1-.53.14-.74.03-.63-.46-1.17-.52-2.01-.25-4.35-.09-6.36-.44,4.78,1.93,9.85,3.18,14.96,3.69,1.35-.03,3.14-.11,4.2.26"/>
        <path class="cls-17" d="M29.74,82.36c.76.27-.04.86-.29,1.31-.7,1.21-.6,2.19-1.06,3.24-.07.16-.23.49-.45.45-.83-.6-.4-2.01-.12-2.84.2-.58.98-2.01,1.64-2.21-4.09-.49-8.39,1.08-12.17,1.08,1.73,1.73,3.45,2.79,4.63,4.78-.19-.52-.39-1.29-.52-1.59-.41-.99-.98-1.8-1.74-2.57l.34-.53c1.12-.34,2.35,1.71,2.71,2.59.23.55.94,2.65,0,2.73-.13.02-.37-.04-.5-.13.19.38.37.79.53,1.25,4.35-2.17,8.7-1.09,11.96-5.44-1.58-1.26-3.25-1.87-4.96-2.12M25.69,87.86c-.9.27-.65-1.59-.71-2.11-.13-1.1-.73-2.07-1.56-2.75-.03-.12.12-.3.21-.33.13-.02.91.22,1.09.33.77.48,1.33,1.6,1.43,2.49.05.51.13,2.2-.47,2.37M33.02,84.5c-.1.17-1.06.72-1.38,1.11-.37.45-.73,1.51-.95,1.72-.26.26-.6.18-.8-.1-.82-1.1,1.04-3.63,2.21-3.63.4,0,1.14.49.92.9"/>
        <path class="cls-17" d="M15.24,90.45c.35-.63,1.64-2.44,2.51-2.12-.11-.19-.26-.39-.46-.58-.26-.52-.91-.92-1.77-1.17-1.16,1.13-1.95,2.41-2.26,4.05h-.39c.09-.38-.2-.66-.25-.99-.19-1.15.74-2.57,1.62-3.32-1.6-.2-3.56-.04-5.36.52.94.54,1.69,1.68,2.01,2.58.29.8.51,1.57-.17,2.25-.53.12-1.17-2.13-1.44-2.6-.22-.39-.67-1.04-.97-1.38-.15-.17-.35-.31-.52-.45-.86.37-1.64.85-2.28,1.44.86.15,2.04,1.39,2.47,1.96.47.63.72,1.46.21,2.14-.55.39-1.07-1.12-1.31-1.43-.3-.42-1.02-1.05-1.42-1.44-.03-.02-.05-.04-.08-.06.11,1.12.52,2.52,2.14,3.33,2.07.52,5.12.05,7.4-.93-.27-.54.06-1.3.34-1.8"/>
        <path class="cls-8" d="M90.95,80.18c0,.36-.42.46-.49.58-.09.13-.01.38-.15.57-.28.37-1,.25-1.37.33-1.6.33-2.62.66-4.19-.23-.41,0-2.1,1.32-2.73,1.53-.24.08-.42.02-.59.07s-.29.26-.6.3c-.74.12-1.81-.04-2.57-.16-1.8-.27-3.58-.87-5.4-1.1-.07-.03-.13-.07-.18-.11-3.33.64-6.76.92-10.2.86.16.06.32.12.44.2.24.16.84.79,1.04,1.04.66.83,2.61,4.77,2.59,5.73-.01.28-.25.64-.27.95-1.09.45-2.29.3-3.43.42-1.91.18-3.83.41-5.73.65-1.24-.03-4.07-1.91-5.37-2.2-1.66-.36-4.41.21-6.22-.03-.49-.07-1.08-.25-.99-.84.07-.43.59-.36.86-.58.15-.13.27-.41.45-.6,1.39-1.42,3.44-3.48,5.02-4.62.38-.27.8-.45,1.25-.55,1.61-.38,3.59.09,5.13.16.28.01.64,0,1.03,0-5.11-.51-10.18-1.76-14.96-3.69-.21-.04-.43-.08-.63-.12-.52-.13-1.22-.5-1.76-.59-.46-.08-.86.16-1.39.1-.25-.03-1.07-.3-1.28-.41-.8-.42-.76-1.66-.75-2.45l-1.87.88c-.74-.08-.86-1.66-1.05-1.66-.67.42-.6,1.24-1.46,1.26-1.1.02-2.74-.89-3.62-1.52-1.77.33-3.63-.16-5.33.61-1.98-.79-4.45-1.08-6.25-2.2-.2-.12-.42-.45-.57-.47-.13-.03-.32.11-.49.09-.96-.1-2.04-.48-3.02-.62-2.07-.31-4.26-.16-6.18-1.13-.25-.22-.35-.7-.1-.95.46-.45,1.91.43,2.57.22-.01-.22.17-.5.15-.69-.01-.1-.36-.05-.28-.27.49-1.88.24-3.88.22-5.82-.24-.32-2.89-.29-3.4-.25-.73.08-1.7.63-2.32.61-.58,0-1.38-.75-1.96-1.02-1.49-.71-3.26-1.1-4.92-1.14v33.1h94.62v-14.23h-1.3ZM-.79,78.94c-.24-.43-1.36-1.54-1.04-1.98.02-.03.34-.12.41-.12.06.03.12.07.18.1.02-.02.02-.04.04-.06,2.29-.76,6.17-.99,8.67-.3.29-.14.61-.19.97-.14.01.17-.02.32-.07.46.61.27,1.08.63,1.31,1.08.08.19.12.35.17.53.35-.27.71-.46,1.01-.5.24-.03.86-.03.64.38-.28.54-1.04,1.07-1.42,1.57-.15,3.14-5.56,2.37-10.2,2.37.21-.42.26-.85.2-1.27-.31-.7-.51-1.45-.89-2.11M18.02,89.06s-.02.02-.03.03c.08,1.01-.81,1.96-2.16,2.71-.13.2-.26.37-.39.49-.12.1-.27.15-.41.16-.05-.06-.09-.12-.13-.19-2.28.98-5.33,1.45-7.4.93-1.62-.81-2.03-2.22-2.14-3.33-.3-.23-.7-.33-.56-.83.04-.13.2-.28.34-.33.11-.03.23-.03.36,0,.64-.59,1.42-1.07,2.28-1.44-.22-.19-.41-.38-.39-.66.52-.14,1.02,0,1.48.26,1.8-.56,3.76-.72,5.36-.52.02-.02.05-.04.07-.06.52-.42,1.4-1.05,1.56-.02-.12.11-.22.23-.34.34.86.26,1.51.65,1.77,1.17.2.2.34.39.46.58.02,0,.05,0,.08.01l.24.28-.04.43h0ZM22.73,89.92c-.15-.46-.33-.87-.53-1.25-.02-.01-.04-.02-.05-.03-.07-.07-.15-.24-.23-.46-1.18-1.99-2.9-3.05-4.63-4.78,3.77,0,8.07-1.57,12.17-1.07.02,0,.04-.02.06-.02.09.02.15.04.22.07,1.71.25,3.38.85,4.96,2.12-3.26,4.35-7.61,3.26-11.96,5.44M81.67,91.26c-.16.36-.31.72-.51,1.04-.2.13-.4-.04-.55-.28-2.06,1.46-4.02,2.43-7.85,1.16,0-2.18-1.09-4.35-3.26-5.44,3.78-.76,7.56-1.51,11.33-.8.13-.06.26-.1.38-.08.19.04.28.12.3.22,1.43.34,2.87.89,4.3,1.75-1.71.68-2.99,1.58-4.14,2.43"/>
        <path class="cls-17" d="M-.11,82.31c4.64,0,10.05.78,10.19-2.37h0c-.3.4-.63,1.27-.89,1.51-.36.34-.8-.02-.88-.41-.13-.76.69-1.91,1.54-2.56-.06-.17-.1-.34-.17-.53-.22-.45-.69-.8-1.31-1.08-.17.49-.65.85-.91,1.36-.39.74-.47,1.75-1.24,2.22-.58-1.19,0-3.3,1.25-3.9-2.5-.68-6.38-.46-8.67.31-.02.02-.03.04-.05.06,1.19.59,2.21,2.21,2.21,3.49,0,.36-.33.78-.22,1.21l-.4-.08c-.1-.17-.18-.34-.26-.52.05.42,0,.84-.2,1.27M1.87,76.3c1.98.19,3.11,3.44,1.94,4.94-.6.14-.89-2.38-1.12-2.92-.3-.7-1.39-1.45-.82-2.02"/>
        <path class="cls-8" d="M17.04,89.91c-.43.45-.82,1.3-1.21,1.89,1.35-.75,2.24-1.7,2.16-2.71-.27.34-.67.52-.95.82"/>
        <path class="cls-17" d="M81.51,87.09c.1.47-1.14,1.47-1.2,1.84l-.98,2.47h-.38c-.12-.88-.21-1.44.11-2.29.19-.53,1.07-1.84,1.77-2.16-3.78-.7-7.56.05-11.33.8,2.17,1.09,3.26,3.26,3.26,5.44,3.83,1.28,5.79.3,7.85-1.16-.14-.23-.23-.51-.22-.67.05-1.18,2.05-3.98,3.49-3.18v.72c-.27.11-.59.09-.82.29-.32.29-.89,1.11-1.12,1.49-.1.18-.19.38-.27.58,1.15-.84,2.43-1.74,4.14-2.43-1.43-.86-2.87-1.41-4.3-1.75M74.91,93.3c-.84-.1-.7-1.33-.88-2-.32-1.19-.97-2.27-1.99-2.97l.35-.42c.98-.29,2.06,1.35,2.42,2.11.33.68,1.03,2.88.11,3.28M77.22,92.15s-.44.3-.49.3c-.4-.9-.18-1.78-.45-2.74-.24-.84-.89-1.48-.98-2.35,1.85.14,3.03,3.47,1.91,4.78"/>
        <path class="cls-9" d="M34.25,24.62c-2.62.48-5.25.97-7.86,1.52-2.7,2.58-5.16,5.45-7.91,7.98-.23.22-.48.42-.71.63,2.25-1.1,4.69-1.35,7.17-1.47,2.61-3.48,5.76-6.22,9.31-8.66"/>
        <path class="cls-9" d="M35.78,27.93c5.56,0,9.38-3.47,13.58-6.2-1.12.24-2.23.47-3.35.7-2,.4-4.01.78-6.02,1.15-1.33,1.41-2.46,3.19-4.2,4.35"/>
        <path class="cls-5" d="M35.78,27.93c1.74-1.16,2.87-2.94,4.2-4.35-1.91.35-3.83.7-5.74,1.05-3.55,2.45-6.7,5.18-9.31,8.66,2.92-.13,5.89-.08,8.67-1.01,6.65-3.33,12.67-7.92,19.51-11.36-1.25.27-2.51.54-3.76.81-4.2,2.72-8.02,6.2-13.58,6.2"/>
        <path class="cls-5" d="M32.16,41.38c.07,0,.13,0,.2-.02,1.41-.14,2.89-.11,4.27-.42,2.12-2.24,4.25-4.46,6.38-6.68-4.77.05-8.72,2.59-10.86,7.12"/>
        <path class="cls-9" d="M57.06,20.12c-1.32.25-2.63.52-3.94.8-6.84,3.44-12.86,8.03-19.51,11.36-5.14,1.71-10.95.07-15.84,2.48-3.15,2.83-6.62,5.37-9.65,8.3-.13.12-.24.17-.2.39,1.32-.21,2.65-.17,3.98-.26,6.74-.45,13.51-1.14,20.26-1.81,2.14-4.54,6.09-7.08,10.86-7.13,4.34-4.51,8.75-8.96,13.32-13.22.13-.12.86-.78.72-.91"/>
        <path class="cls-15" d="M56.14,71.72l-5.08,3.65-.88-2.68c.32-.37.66-.83,1.2-.85l4.76-.13h0Z"/>
        <path class="cls-20" d="M54.88,73.83c1.17.79,2.39,1.62,2.7,3.1-2.12.2-4.21.74-6.25,1.3l-.12-1.87,3.68-2.53h-.01Z"/>
        <path class="cls-15" d="M49.89,78.11l-8.46-.92.25-5.07,6.36-.11c.28.67.71,1.13.97,1.83.5,1.35.7,2.86.88,4.27"/>
        <path class="cls-1" d="M48.19,20.51l-3.65.78-.11-9.24c.28-.41,3.01.38,3.63.12,0,.36.02.74,0,1.11-.13,1.9-.28,4.22-.14,6.12.03.39.12.75.27,1.11"/>
        <path class="cls-18" d="M48.06,51.07c.15,1.97.2,6.56-.19,8.41-.08.34-.27.77-.6.91-.54-1.28-.42-2.74-.39-4.11.03-1.84.12-3.77.26-5.6.04-.5-.12-1.07.2-1.5.49,0,.68,1.53.72,1.89"/>
        <path class="cls-2" d="M43.23,11.65v9.82c0,.16-2.85.7-3.09.71-.11.01-.29-.09-.29-.17v-9.38l.22-.17,3.17-.81h-.01Z"/>
        <path class="cls-4" d="M43.23,42.93l-.12,28.02h-1.83c.13-7.27-.17-14.56,0-21.84,0-.3.13-.59.14-.89.04-1.13-.03-2.27,0-3.4l1.82-1.88h0Z"/>
        <path class="cls-7" d="M40.5,48.72v22.09l-1.83-.13v-26.97c.54,0,.82.52,1.12.76.12.1.37.1.42.17.41.58-.08,3.24.28,4.08"/>
        <path class="cls-4" d="M40.37,72.12l-.26,4.7-1.27-.29c-.29-.52-.21-1.22-.41-1.74-.48-1.23-2.28.43-2.61.21-.37-2.14-1.86-1.64-2.87-.26l.39-2.87,7.04.26h-.01Z"/>
        <path class="cls-6" d="M19.26,22.91c.38.61.92,1.09,1.46,1.56.15-.56.31-1.1.49-1.65l-1.95.08h0Z"/>
        <path class="cls-6" d="M22.58,17.64c-.74.67-.44.65-.69,1.26-.35.86-1.17.18-1.85.77-.85.73-.13,1.3.6,1.73.32.19.63.26.93.35.65-1.85,1.45-3.58,2.39-5.15-.45.42-1.12.8-1.39,1.03"/>
        <path class="cls-10" d="M35.41,11.84c-.67-.84.68-1.68,1.04-2.41l-3.03.37c-.2-.09-.28-.2-.32-.34-2.68.67-4.88,2.03-6.68,3.9,2.15-.25,2.12,1.67-.12,1.31l-.13,1.01.88.49c.26.89-.76.72-1.33.98-1.28.58-1.19,2.16-.73,3.28.14.34.49.55.38,1-.98.23-1.83-1.05-1.95-1.9-.21-1.52.49-2.76,1.78-3.5-.16-.29-.23-.62-.23-.95-.21.28-.42.57-.62.87-.02.23-.18.45-.41.67-.95,1.56-1.74,3.29-2.39,5.15.23.06.45.13.68.26-.07.39-.36.72-.75.8h-.29c-.17.55-.34,1.1-.49,1.66.68.59,1.37,1.16,1.79,1.96l-2.08.2c-.14.12.28.49.38.59.2.18,1.09.92,1.27.96.18.03.23-.01.37-.11.58-.38,1.41-1.49,2.01-2.02.42-.39.9-.76,1.36-1.12.7-.29,1.5-.27,2.2-.41,3.57-.75,7.15-1.65,10.78-2.06v-7.94l-.6-.13c-.37-1.28-2.14-1.74-2.8-2.54M28,23.84c-1.15.35-1.4-1.15-1.29-1.96.09-.66.99-2.01,1.64-2.13.08-.02.14-.04.22-.02.53.15-.28,1.32-.41,1.65-.09.25-.27.78-.27,1.02,0,.58,1.01,1.17.12,1.44M35.43,20.64c-.13-1.32,1.18-2.32.05-3.51-.45-.46-1.36-.45-1.22-1.35.2-.42.64-.81.39-1.31-.26-.4-1.74-.16-1.58-.99,1.71-.65,3.28.46,2.88,2.32,1.79.98,1.87,4.77-.53,4.85"/>
        <path class="cls-6" d="M26.38,13.35h.05c1.79-1.87,4-3.23,6.68-3.9-.02-.09-.02-.19,0-.31.05-.51,1.18-3.06,1.02-3.23l-2.41,1.3c-.6-.01-.4-1.66-.59-2.09l-.46.77-.07.65c-.26.03-.55-.13-.74-.3-.49-.45-.78-1.42-1.73-1.38,0,.5-.22,1-.26,1.49-.07.65.28,2.02-.6,2.15h-2.48c-.23.33.28.67.34.99.14.8-.45.7-.85,1.1-.62.61-.35,1.6-.62,2.38-.2.56-.59,1.33-1.27,1.27.02,1.1,1.16.88,1.9,1.29.09.13.1.26.09.39.2-.3.41-.58.62-.87,0-.82.5-1.61,1.38-1.72"/>
        <path class="cls-21" d="M37.63,42.4v28.28l-2.73-.13v-2.8c0-.2-.34-.42-.52-.46-.3,1.07-.28,2.15-.26,3.25l-4.57-.32-.11-.15-.17-23.22c-.23-.22-1.14-.18-1.48-.16-2.12.1-4.26.41-6.38.52-.5.02-1.08-.03-1.64-.04l.03-1.25c.4,0,.74-.59.5-1.7l2.35-.26.12,1.22c.14.22.68.3.87.09.36-.34.32-.76.34-1.23l.1-.15,2.36-.18c.03.39-.16,1.15.26,1.37.89.35,1.08-.64.81-1.32l.1-.13,2.35-.18.12,1.35c1.29.76,1.07-.74,1.05-1.61l2.74-.13c.04,1.62-.12,3.26.14,4.87.1.55.16,1.6.9,1.51.28-2.14.25-4.33.27-6.5l2.46-.53h-.01ZM34.71,61.18c.65-1.45.26-4.2.2-5.81-.02-.38.12-3.33-.33-3.32-.2.15-.28.36-.33.59-.33,1.85-.45,5.44-.26,7.3.05.56.34,1.07.39,1.62.18-.03.25-.23.33-.38M32.42,65.67c.17-2.14.14-6.23-.29-8.31-.09-.4-.24-.75-.36-1.14-.17-.14-.25,0-.26.2,0,.3.03.61,0,.91-.23,2.47-.51,5.9-.26,8.34.05.52.28.95.62,1.33.08.09,0,.25.29.17,0-.52.23-.97.26-1.5"/>
        <path class="cls-18" d="M35.96,15.79c1.79.98,1.87,4.77-.53,4.85-.13-1.32,1.19-2.32.05-3.51-.45-.46-1.36-.45-1.22-1.35.2-.42.64-.82.39-1.32-.26-.4-1.74-.16-1.58-.99,1.71-.65,3.28.46,2.88,2.32"/>
        <path class="cls-18" d="M34.9,55.37c.06,1.61.46,4.36-.2,5.81-.08.15-.14.35-.33.38-.05-.55-.34-1.07-.39-1.62-.19-1.86-.07-5.45.26-7.3.04-.23.13-.43.33-.59.45,0,.3,2.94.33,3.32"/>
        <path class="cls-18" d="M32.1,83.6c.4,0,1.14.49.92.9-.1.17-1.05.72-1.38,1.11-.37.45-.73,1.51-.95,1.72-.26.26-.6.18-.8-.1-.82-1.1,1.04-3.63,2.21-3.63"/>
        <path class="cls-18" d="M32.13,57.36c.43,2.08.47,6.17.29,8.31-.03.53-.26.98-.26,1.5-.3.08-.22-.09-.29-.17-.34-.38-.57-.8-.62-1.33-.25-2.45.03-5.87.26-8.34.03-.3,0-.61,0-.91,0-.21.09-.34.26-.2.12.39.27.74.36,1.14"/>
        <path class="cls-4" d="M32.42,71.72l-.52,2.74-2.47-1.05c.04-.36-.17-1.86.2-1.94l2.8.25h0Z"/>
        <path class="cls-18" d="M29.52,82.3c1.14.23.21.89-.08,1.38-.7,1.21-.6,2.19-1.05,3.24-.07.16-.23.49-.45.45-.83-.6-.4-2.01-.12-2.84.21-.6,1.03-2.11,1.7-2.23"/>
        <path class="cls-18" d="M28.56,19.73c.53.15-.28,1.32-.41,1.65-.09.25-.27.78-.27,1.02,0,.58,1.01,1.17.12,1.44-1.15.35-1.4-1.15-1.29-1.96.09-.66.99-2.01,1.64-2.13.08-.02.14-.04.22-.02"/>
        <path class="cls-7" d="M28.13,48l-.13,25.16-1.36-.02-.21-.3.13-11.07c-.29-3.38.38-7.39,0-10.7-.23-1.97-2.47-1.08-3.72-.97-.62.05-2.7-.15-3.03.16-.39.38.1.7.43.88l-.08,20.98c-.67.08-.65-.36-.9-.68-.09-.12-.28-.14-.33-.22-.15-.25-.09-4.95-.08-5.69.01-.31.14-.59.14-.89.06-5.42-.05-10.83,0-16.24,3.06.14,6.07-.32,9.12-.39"/>
        <path class="cls-18" d="M26.38,13.35c2.21-.29,2.2,1.68-.07,1.31l-.13,1.01.88.49c.26.89-.76.72-1.33.98-1.28.58-1.18,2.16-.73,3.28.14.34.49.55.38,1-.98.23-1.83-1.05-1.95-1.9-.21-1.52.49-2.76,1.78-3.5-.58-1.02-.08-2.51,1.15-2.67"/>
        <path class="cls-18" d="M26.16,85.49c.05.51.13,2.2-.47,2.37-.9.27-.65-1.59-.71-2.11-.13-1.1-.73-2.07-1.55-2.75-.03-.12.12-.3.21-.33.13-.02.91.22,1.09.33.77.48,1.33,1.6,1.44,2.49"/>
        <rect class="cls-22" x="21.99" y="51" width="3.39" height="20.73"/>
        <path class="cls-18" d="M22.71,86.07c.23.56.93,2.65,0,2.73-.15.02-.45-.05-.56-.16-.24-.23-.57-1.62-.75-2.06-.41-.99-.98-1.8-1.74-2.57l.34-.53c1.12-.34,2.35,1.71,2.71,2.59"/>
        <path class="cls-16" d="M19.14,26.94l2.21,2.1c-.04.32-1.45,1.54-1.77,1.89-2.75,2.95-5.63,5.37-8.54,8.15-1.93,1.85-3.74,3.83-5.67,5.68l.09.63.5.08c.18.42,1.3,1.39,1.7,1.18.68-.73,1.46-1.83,2.61-1.63v16.41c-1.94-.48-3.91-.33-5.77.38-2.05-1.26-4.47-2.01-6.87-2.07v-3c2.25-.15,4.7-1.6,6.12-3.33.75-.89,1.46-2.1,1.29-3.3-1.47-.51-1.88,1.14-2.53,2.05-1.16,1.61-3.16,2.73-4.88,3.65v-2.22c.83-.35,2.88-2.03,2.88-2.93,0-.4-.26-.66-.66-.53-.66.21-1.45,1.67-2.22,1.9v-4.04c.82-.39,1.85-1.37,2.4-2.1.51-.65,1.73-3.19.73-3.7l-1.17-.07c.91-1.11,1.75-2.49.98-3.92-.4-.42-2.31.2-2.94.13v-.39c2.73-1.05,7.28-3.84,6.92-7.23-.05-.52-.25-.85-.83-.68-.2.05-1.02.74-1.13.62.15-.7.66-1.27.97-1.96.4-.87,1-2.82.39-3.64-.4-.54-.73-.01-1.23-.2,1.9-1.4,4.85-4.25,4.28-6.89-.04-.18-.16-.35-.29-.49-.18-.15-.43-.15-.65-.12-.27.04-.46.35-.72.33.7-1.12,1.66-2.31,1.37-3.72-.21-.32-1.44-.01-1.83.01-.14.01-.5.08-.46-.13,2.13-.95,4.89-3.1,5.59-5.42.24-.81.71-2.83-.55-2.78l-1.46,1.15-.2-.18c1.34-2.13,2.54-4.38,3.13-6.85h2.6c.41,1.7,1.36,3.31,2.48,4.63.03.46-.4-.01-.61-.05-.35-.05-.82.32-.9.63-.2.75,1.96,3.48,2.56,4.11-.3.22-.58-.24-.87-.3-.55-.12-.95.22-.9.76l3.21,4.9-2.44-1.08c-.38-.02-.64.35-.66.71-.01.28.63,1.87.78,2.28.42,1.13.93,2.38,1.51,3.45.15.29.58.79.67,1.02s-.08.17-.21.18c-1.96.2-.6,2.27.14,3.13.45.53,1.15,1.24,1.75,1.57-.01.25-.47.09-.68.15-.45.13-.43.75-.21,1.07M15.71,29.28c.32-.12.37-.42.27-.73-.09-.27-1.59-1.25-1.94-1.59-.46-.42-.9-1.56-1.7-.92l-1.23,2.29c-.3-.5.01-2.29-.54-2.47-.43-.14-.57.25-.84.43-.51.35-1.02.7-1.55.99l.26-1.83c-.21-.04-.27.07-.39.2-.32.35-.62,1.16-.99,1.62-.42.53-1.33.99-1.08,1.75.88.96,2.51-.47,3.31-1.1.14-.11.7-.81.85-.64-.02.85.12,1.71.55,2.45.22.16.59.17.75-.07.22-.29,1.1-2.51,1.23-2.51.59.76,1.34,1.52,2.2,1.98.28.14.51.34.84.14M13.71,13.85c.55-.51-.08-1.23-.25-1.82-.15-.57-.26-1.15-.35-1.74l-.36-.22c-.64,1.22-.65,3.43.96,3.77M12.9,20.22c.25-.52-.09-1.88-.16-2.51-.07-.57.22-1.32-.68-1.22-.4.47-.9.86-1.52,1.02.09-.9.57-1.64.39-2.61-.23-.04-.26.07-.37.22-.57.78-1.01,1.98-1.66,2.9-.43.62-1.36,1.17-.49,1.95.91.3,2.47-1.44,3.29-1.81.02.46.03,2.19.48,2.33.33.11.59.03.73-.27M9.77,37.67c.27-.59.25-.8-.15-1.34-.49-.35-1,.91-1.25,1.24-.41.52-1.16.93-1.1,1.7,1.02.21,2.09-.74,2.5-1.6M8.44,56.74c-.01-.36.03-.73-.01-1.1-.01-.12-.07-.49-.25-.47-.12.38-.16.71-.12,1.1.02.23.08.57.38.47M7.59,36.15c.28-.36.41-.62.32-1.1-.1-.28-.57-.25-.82-.18-.13.04-1.45,1.58-1.77,1.87-.35.3-.82.47-1.12.84-.33.41-.03.63.4.65.85.05,2.48-1.42,2.99-2.08M3.81,57.78c.85-.1,2.67-2.53,2.41-3.52-.24-.03-.37.17-.52.33-.43.45-.78,1.16-1.23,1.63-.38.4-.82.64-1.17,1.04-.23.43.13.57.51.52"/>
        <path class="cls-21" d="M19.8,45.93l-.03,1.25c-.82-.02-1.6.05-2.07.63v20.4c-.1.03-.15-.13-.2-.13h-3.46l-.13-23.33.91-.13c.04.61-.05,1.28,0,1.88.03.35.2,1.05.29,1.4.03.1.25.62.29.62l.33-.23.27-3.66,2.98-.26c.03,1.05.43,1.55.81,1.55"/>
        <path class="cls-18" d="M17.83,88.34l.24.28-.04.43c-.27.36-.68.53-.98.85-.58.61-1.09,1.92-1.6,2.37-.12.1-.27.15-.41.16-.49-.53-.1-1.42.21-1.99.36-.65,1.72-2.56,2.59-2.11"/>
        <path class="cls-4" d="M17.7,69.13v2.21l-1.63-.52-4.5-.72v-.72c.43-.04.82.15,1.24.14.5-.01,1.08-.23,1.57-.27,1.1-.09,2.25.16,3.33-.12"/>
        <rect class="cls-11" x="16.13" y="4.61" width=".13" height=".26"/>
        <path class="cls-18" d="M15.98,28.55c.1.31.04.61-.27.73-.33.2-.55,0-.84-.14-.86-.46-1.61-1.22-2.2-1.98-.13,0-1.01,2.22-1.23,2.51-.16.24-.53.23-.75.07-.43-.74-.58-1.6-.55-2.45-.15-.16-.71.53-.85.64-.79.63-2.42,2.06-3.31,1.1-.25-.76.65-1.22,1.08-1.75.37-.46.67-1.27.99-1.62.12-.13.18-.24.39-.2l-.26,1.83c.53-.29,1.04-.64,1.55-.99.27-.18.4-.58.84-.43.55.17.24,1.97.54,2.47l1.23-2.29c.79-.63,1.24.5,1.7.92.35.34,1.85,1.32,1.94,1.59"/>
        <path class="cls-18" d="M14.3,86.25c.52-.42,1.4-1.05,1.55-.02-1.36,1.21-2.25,2.59-2.6,4.39h-.39c.09-.38-.2-.66-.25-.99-.2-1.18.79-2.65,1.69-3.38"/>
        <path class="cls-18" d="M13.46,12.04c.17.59.8,1.31.25,1.82-1.61-.35-1.6-2.56-.96-3.77l.36.22c.09.59.2,1.17.35,1.74"/>
        <rect class="cls-7" x="11.44" y="44.75" width="1.7" height="23.46"/>
        <path class="cls-18" d="M12.74,17.7c.08.63.41,1.99.16,2.51-.14.3-.4.38-.73.27-.45-.14-.46-1.87-.48-2.33-.83.37-2.38,2.11-3.3,1.8-.87-.77.05-1.33.49-1.95.65-.92,1.1-2.12,1.66-2.9.11-.15.14-.26.37-.22.17.97-.3,1.71-.39,2.61.62-.16,1.12-.55,1.52-1.02.9-.1.62.65.69,1.22"/>
        <path class="cls-18" d="M10.87,77.99c.24-.03.86-.03.64.38-.28.54-1.04,1.08-1.42,1.58-.3.4-.63,1.27-.89,1.51-.36.34-.8-.02-.88-.41-.18-1.08,1.52-2.94,2.56-3.06"/>
        <path class="cls-18" d="M10.89,89.42c.29.81.51,1.57-.17,2.25-.53.12-1.18-2.13-1.44-2.6-.22-.39-.67-1.04-.97-1.38-.35-.38-.95-.62-.91-1.11,1.6-.41,3.01,1.5,3.49,2.84"/>
        <path class="cls-18" d="M9.49-.22h1.44c-.59,2.47-1.79,4.72-3.13,6.85l.2.18,1.46-1.15c1.26-.04.79,1.98.55,2.78-.7,2.32-3.46,4.47-5.59,5.42-.04.21.32.14.46.13.39-.02,1.62-.33,1.83-.01.29,1.41-.67,2.6-1.37,3.72.26.02.45-.28.72-.33.22-.03.47-.03.65.12.13.14.25.3.29.49.58,2.63-2.37,5.48-4.27,6.89.5.18.83-.35,1.23.19.61.83.01,2.77-.39,3.64-.3.68-.82,1.26-.97,1.96.11.12.93-.57,1.13-.62.58-.16.77.16.83.69.34,3.4-4.21,6.18-6.94,7.24v-1.69c1.33-.63,2.86-1.4,3.98-2.35.67-.59,1.49-1.55,1.75-2.41.05-.17-.01-.24-.18-.2-.26.09-.62.42-.95.5-.42.09-1.04.08-1.44-.14-.52-.52.54-1.41.86-1.88.77-1.14,1.62-2.36,1.46-3.82-.09-.09-1.88.54-2.19.61-.5.12-2.17.51-2.45.04-.13-.22-.07-.69.11-.88.27-.3,1.5-.91,1.96-1.23,1.49-1.04,4.08-2.88,4.88-4.49.15-.29.29-.62.28-.96-.13-.14-2.77,1.31-3-.08-.05-.55.78-1.1,1.12-1.49.62-.73,1.36-1.53,1.62-2.48h-2.01c-.41,0-.48-.82-.85-.78-.11-.17.71-.93.9-1.11.28-.24,1.13-.73,1.25-.97.18-.37-.95-1.33-1.25-1.49-.45-.23-1.11-.29-1.6-.18-.49.12-.75.87-1.31.49-.64-.43-.15-1.07-.22-1.61-.09-.9-1.78-2.2-2.72-2.29v-1.42c1.73.25,3.57,1.78,3.93,3.5,1.74-.22,3.48.6,4.15,2.23.07,0,.13.01.18-.01.54-.17,2.22-2,2.53-2.56.14-.25.28-.53.36-.82.25-1.04-.47-.24-.93-.02-.63.29-1.32.48-1.94.79-.5-.55-.03-1.49.25-2.09.59-1.24,1.52-2.48,2.14-3.73.48-.97.95-2.11,1.18-3.18M2.38,30.8c.09-.04.09-.09,0-.13v.13Z"/>
        <path class="cls-18" d="M9.62,36.33c.4.53.42.75.15,1.34-.41.86-1.48,1.8-2.5,1.6-.06-.76.69-1.17,1.1-1.7.25-.33.76-1.59,1.25-1.24"/>
        <path class="cls-3" d="M-2.38-.22C1.58-.22,5.54-.21,9.48-.22c-.24,1.07-.71,2.21-1.18,3.18-.62,1.25-1.55,2.49-2.14,3.73-.28.6-.75,1.53-.25,2.09.62-.32,1.3-.5,1.94-.79.47-.22,1.19-1.02.94.02-.08.28-.22.57-.36.82-.32.55-1.99,2.38-2.53,2.56-.05.02-.12.01-.18.01-.68-1.63-2.42-2.45-4.16-2.23-.37-1.73-2.21-3.27-3.94-3.52V-.22Z"/>
        <path class="cls-18" d="M8.43,55.64c.04.37,0,.74.01,1.1-.3.1-.36-.24-.38-.47-.04-.39,0-.72.12-1.1.18-.02.24.35.25.47"/>
        <path class="cls-18" d="M8.44,76.42c.05.75-.64,1.16-.98,1.82-.39.74-.47,1.75-1.24,2.22-.72-1.47.33-4.32,2.22-4.04"/>
        <path class="cls-18" d="M7.97,90.64c.47.63.72,1.46.21,2.14-.55.39-1.07-1.12-1.3-1.44-.3-.42-1.02-1.05-1.42-1.44-.29-.28-.79-.35-.64-.89.04-.13.2-.28.34-.33.85-.25,2.34,1.29,2.83,1.95"/>
        <path class="cls-18" d="M7.91,35.05c.1.48-.03.74-.32,1.1-.51.65-2.14,2.13-2.99,2.08-.43-.02-.73-.24-.4-.65.3-.37.77-.53,1.12-.84.33-.29,1.64-1.83,1.77-1.87.25-.07.72-.1.82.18"/>
        <path class="cls-18" d="M6.22,54.26c.26.99-1.57,3.43-2.41,3.52-.38.04-.74-.09-.51-.52.36-.4.79-.64,1.17-1.04.45-.47.79-1.19,1.23-1.63.15-.15.28-.36.52-.33"/>
        <path class="cls-17" d="M5.7,19.07c.01.34-.13.66-.28.96-.8,1.61-3.39,3.45-4.88,4.49-.46.32-1.69.92-1.96,1.23-.17.2-.24.66-.11.88.28.47,1.95.08,2.45-.04.3-.07,2.1-.7,2.19-.61.16,1.46-.69,2.68-1.46,3.82-.32.47-1.38,1.36-.86,1.88.39.22,1.01.23,1.44.14.33-.08.68-.41.95-.5.17-.04.24.02.18.2-.26.86-1.08,1.83-1.75,2.41-1.12.95-2.65,1.72-3.98,2.35V7.08c.94.09,2.63,1.39,2.74,2.29.07.54-.42,1.17.22,1.61.55.38.82-.37,1.31-.49.49-.11,1.15-.04,1.6.18.31.16,1.44,1.12,1.25,1.49-.12.24-.97.73-1.25.97-.19.17-1.01.93-.9,1.11.37-.03.43.78.85.78h2.01c-.26.95-1,1.75-1.62,2.48-.34.39-1.17.93-1.12,1.49.23,1.38,2.87-.07,3,.08"/>
        <path class="cls-18" d="M5.04,50.11c.16,1.2-.54,2.4-1.29,3.3-1.43,1.73-3.87,3.18-6.12,3.33v-.91c1.72-.92,3.72-2.04,4.88-3.65.65-.91,1.07-2.57,2.53-2.06"/>
        <path class="cls-18" d="M1.87,76.3c1.98.19,3.11,3.44,1.94,4.94-.6.14-.89-2.38-1.12-2.92-.3-.7-1.39-1.45-.82-2.02"/>
        <path class="cls-11" d="M2.38,30.67c.09.04.09.09,0,.13v-.13Z"/>
        <path class="cls-18" d="M.75,42.21c1,.51-.22,3.05-.73,3.7-.55.73-1.59,1.71-2.4,2.1v-1.96c.26,0,.37-.17.52-.32.76-.71,1.46-1.45,1.7-2.48-.83-.34-1.42.57-2.22.59v-1.57c.9-.83,2.2-1.77,2.09-3.13l-2.09.13v-.91c.63.07,2.53-.55,2.94-.13.77,1.42-.07,2.81-.98,3.92l1.18.06h0Z"/>
        <path class="cls-18" d="M.97,80.43c0,.36-.33.78-.22,1.21l-.4-.08c-.49-.83-.67-1.8-1.14-2.62-.24-.43-1.36-1.54-1.04-1.98.02-.03.34-.12.41-.12,1.26.5,2.39,2.24,2.39,3.59"/>
        <path class="cls-18" d="M-.16,50.15c.4-.13.66.13.66.53,0,.89-2.05,2.58-2.88,2.93v-1.56c.77-.23,1.56-1.7,2.22-1.9"/>
      </g>
    </g>
  </g>
</svg>