<?xml version="1.0" encoding="UTF-8"?>
<svg id="Layer_1" data-name="Layer 1" xmlns="http://www.w3.org/2000/svg" xmlns:xlink="http://www.w3.org/1999/xlink" viewBox="0 0 90 90">
  <defs>
    <style>
      .cls-1 {
        fill: #bb9889;
      }

      .cls-2 {
        fill: #ccc4bb;
      }

      .cls-3 {
        fill: #abe0f9;
      }

      .cls-4 {
        fill: #bfbebe;
      }

      .cls-5 {
        fill: #a3af65;
      }

      .cls-6 {
        fill: #b6c370;
      }

      .cls-7 {
        fill: #b7c470;
      }

      .cls-8 {
        fill: #fff;
      }

      .cls-9 {
        fill: #98a951;
      }

      .cls-10 {
        fill: none;
      }

      .cls-11 {
        fill: #b7aca2;
      }

      .cls-12 {
        clip-path: url(#clippath-1);
      }

      .cls-13 {
        fill: #919d5f;
      }

      .cls-14 {
        fill: #828d53;
      }

      .cls-15 {
        fill: #908881;
      }

      .cls-16 {
        fill: #727849;
      }

      .cls-17 {
        fill: #663925;
      }

      .cls-18 {
        fill: #986749;
      }

      .cls-19 {
        fill: #a69b91;
      }

      .cls-20 {
        clip-path: url(#clippath);
      }
    </style>
    <clipPath id="clippath">
      <rect class="cls-10" x="0" y="0" width="90" height="90"/>
    </clipPath>
    <clipPath id="clippath-1">
      <rect class="cls-10" x="-2.18" y="-.35" width="94.35" height="90.71"/>
    </clipPath>
  </defs>
  <g class="cls-20">
    <g class="cls-12">
      <g>
        <path class="cls-7" d="M59.52,71.54c-.03.07-.06.12-.09.18.21.01.42.02.63.03-.24-.27-.44-.47-.54-.21"/>
        <path class="cls-7" d="M57.32,71.53c-.83-.31-1.74-.28-2.57-.55-.24.01-.49.17-.74.34,1.15.11,2.32.21,3.49.29-.06-.03-.12-.06-.18-.08"/>
        <path class="cls-7" d="M52.23,69.9c-.08-.1-1.48.5-2.53.92.89.12,1.79.23,2.69.33-.1-.44-.11-.97-.17-1.25"/>
        <path class="cls-7" d="M.62,77.13c.04-.54-.09-.98-.13-1.5-.24.07-.48.15-.72.23.03,1.02.21,1.84.53,2.51.11-.48.3-1.01.32-1.23"/>
        <path class="cls-7" d="M-2.25,75.5c.3.02.34-.2.47-.38.9-1.21,1.76-2.48,2.7-3.67-1.05.2-2.11.39-3.17.57v3.49h0Z"/>
        <path class="cls-7" d="M1.72,62.36c6.96,6.96,16.64-.62,24.9-.31.1-.69.24-1.57.4-2.29l-1.11-.24c-.03.14-.12.28-.26.4-.66-.02-2.92.61-3.33.2-.11-.11-.17-.36-.2-.52-.17-.2-2.82,1.65-3.21,1.82-1.25.51-2.88-.27-4.02-.77-.32,0-.38.51-.88.37l-1.72-1.28c-.16,0-.53,1.6-.95,1.67-.62.16-1.13-.22-1.71-.34-.57-.12-2.35-.26-2.57-.68-.13-.25-.07-.48.04-.72-.03-.33-1.92-.36-2.26-.33-.57.04-1.1.33-1.64.21-1.15.85-2.05,1.68-1.49,2.81"/>
        <path class="cls-1" d="M26.42,63.83c.13-.46.09-.95.15-1.41.02-.11.03-.24.05-.36-8.26-.31-17.94,7.27-24.9.31-.57-1.13.34-1.97,1.49-2.82-.04,0-.08,0-.12-.02-.46-.23-.18-1.3-.26-1.76l-2.27,1.57c-.77,0-.88-1.43-.97-2.03-.25-1.72-.47-4.13-.47-6.18h-1.37v20.89c1.06-.18,2.12-.36,3.17-.57.38-.49.77-.96,1.19-1.42,2.01-2.17,4.3-2.32,7.18-2.09.98.08,1.75.47,2.42,1.02,1.77-.46,3.55-.95,5.34-1.45-.35-.42-.8-.69-.66-1.39.72-.07,1.03.65,1.47,1.16.24-.07.48-.14.72-.2.46-.58.9-1.26,1.7-1.07l.06.56c2.3-.66,4.63-1.35,7.01-2.04-.41-.15-.88-.33-.93-.7"/>
        <path class="cls-7" d="M18.15,67.55c.15-.13.29-.3.43-.48-.24.07-.48.14-.72.2.09.1.18.2.29.27"/>
        <path class="cls-7" d="M89.71,73.67s0,.07.02.1c.84.1,1.74.17,2.65.23v-8.02c-9.03,4.76-20.04,6.13-30.71,5.83-.3.29-.58.51-.79.53-.26.03-.55-.32-.81-.59-.21,0-.42-.02-.63-.03-.59,1.2-1.12.3-1.94-.11-1.17-.08-2.34-.18-3.49-.29-.4.28-.81.62-1.17.52-.24-.07-.37-.35-.44-.68-.91-.1-1.81-.21-2.7-.33-.5.2-.91.36-1.06.37-.58.07-.75-.08-.84-.64-.13-.14-2.46,1.32-2.94,1.32-.97,0-1.45-1.71-1.7-1.71-.29.22-.24.74-.65.78-.41.05-1.37-.45-1.96-.51-.7-.09-2.51.13-2.66-.73l.13-.98c-.49.07-.63-.45-1-.62-1.22-.59-3.97-.62-5.51-1.14-1.34-.46-2.5-1.58-3.74-2.26-.11-.06-.26-.11-.42-.17-2.38.69-4.71,1.37-7.01,2.04l.09.85c.09.1,1.66-1.23,2.28-1.17.84.12-.21,1.29-.07,1.43.85-.24,1.71-.71,2.61-.52.16.89-.92.78-1.57.98-.38.11-1.51.77-1.68.24l.05-1.09-1.95,1.43-.43-.16-.28-1.27c-.02.37-.41.52-.59.79-.28.46-.13,1.13-.9.88-.24-.08-.53-1-.75-1.33-.03-.05-.07-.09-.11-.13-1.79.5-3.56.99-5.34,1.45.99.81,1.75,1.95,2.59,2.95.5.61,1.36,1.12,1.54,1.92,2.76.06,5.49.06,6.48,1.57.83-.63,1.7-.67,1.63,1.15.77-.24,1.35-.88,2.12-1.2,1.88-.76,1.37.87.62,1.85.68-.13,1.44-.2,2.14-.13.4.03.83.09.83.57l-.5.74c.64,0,1.35-.07,1.96.2.43.18.87.57.43.99-.38.2-.63-.21-1.02-.27-1.2-.17-3.35.6-2.15-1.44-.73-.21-2.15.98-2.74.59-.51-.34.34-1.46.4-1.89-.13-.12-1.26.71-1.44.86-.33.28-.43.85-1.01.62-.39-.16-.39-1.69-.55-2.13-.12.05-.26.16-.4.31.09.44.09.97-.03,1.6-1.09,3.26-8.7,5.44-14.14,4.35-3.03-.76-6.05-.99-7.61-2.9-.13.03-.27.04-.41.01-.26-.07-.23-.46-.14-.9-.31-.67-.5-1.49-.53-2.5-.31.1-.62.18-.91.29-.41.14-.54.42-1.11.13v18.12h47.35c-4.66-.8-9.45-2.33-12.72-3.56,0,0,0-.28.05-.63-.51-.36-.96-.72-1.2-.96-.18-.18-.35-.39-.38-.66,1.14-1.73,2.46-3.36,3.78-4.95.9-1.09,1.98-2.1,2.74-3.15.11-.15.1-.37.32-.57.74-.7,2.11-.54,3-.64,1.16-.13,2.32-.39,3.5-.25,2.36.26,4.96,2.2,6.6,3.83.21.2.38.51.54.87,3.92.5,7.51,2.41,8.23,3.85.35,3.9-1.49,5.94-4.43,6.82h37.22v-13.36c-2.91.34-6.29.08-9.66-.33-.88.59-1.93,1.28-2.75,1.15l-3.42-1.03-.29-.45.35-.97c-.13-.13-1.06.27-1.26.36-.42.18-.8.79-1.08-.03l.25-1.24-2.12,1.07-.7.62c-.72-.24-.36-.7-.1-1.15.49-.86,1.25-1.9,1.88-2.69,1.3-1.63,2.23-2.59,4.23-3.33,3.49-1.29,6.94-2.04,10.68-1.54.3.03.88.27.97.6.07.24-.1.42-.08.61.01.18.34.67.42.99M6.35,92.18c-.73-.13-.8-1.03-1.11-1.56-.12-.18-.42-.55-.58-.73-.37-.39-.91-.51-.79-1.11,1.16-.11,2.59,1.35,2.72,2.45.03.34-.22.62-.24.95M9.21,91.39c-.09.05-.3.01-.43-.01-.28-.1-.64-1.5-.84-1.89-.29-.59-.79-1.08-1.04-1.68l.17-.3c1.1.2,2.17,2.06,2.27,3.07.02.17-.04.76-.13.83M12.61,88.98c-.05.37-.27,1.27-.77,1.11-.16-1.01-.45-2.53.45-3.25.38-.02.36,1.86.33,2.14M14.24,91.01c-.14.13-.21.32-.46.26.11-1.07.36-1.84,1.04-2.66.5-.6,1.12-1.15,1.96-.98.11.6-.52.8-.91,1.24-.6.66-.94,1.54-1.63,2.14M16.26,92.31c-.1-1.21.83-2.28,1.99-2.46.39.11.83.26.74.76-1.11.23-1.8,1.11-2.73,1.7M72.96,88.28c.08.7-.7.86-1.04,1.36l-.09.05c-.15.09-.41-.07-.43-.18-.1-.46,1.36-1.44,1.57-1.23M61.74,89.57c-.85.01-.97-.98-1.29-1.5-.33-.5-1.39-1.4-.79-1.82.92-.47,2.12,1.44,2.21,2.22.05.41-.08.72-.12,1.1M64.34,89.04c-.6.4-1.05-1.13-1.27-1.51-.17-.29-1.15-1.64-.93-1.86.35-.04.6.22.85.39.88.63,1.86,1.86,1.36,2.98M67.08,85.2c-.04.41-.34,1.16-.46,1.63-.11.43-.09.87-.33,1.3-.14.02-.27.03-.39-.05-.7-.47.04-3.21.98-3.46.23.16.23.33.2.58M69.64,86.97c-.34.5-.54,1.28-1.25,1.43-.02-.34-.15-.62-.13-.97.04-.75.97-2.06,1.75-2.02.08,0,.45.12.46.14.23.34-.61,1.12-.83,1.42"/>
        <path class="cls-13" d="M8.46,82.14c5.44,1.09,13.05-1.09,14.14-4.35.13-.63.12-1.15.03-1.6-.55.55-1.19,1.59-1.62,1.52l-.12-.25-.51.11-1.64-1.88c.11-.09.21-.28.34-.3.4-.1,1.53,1.27,1.61,1.72l.26.09c.21-.61.78-1.35,1.37-1.8-.98-1.51-3.72-1.51-6.48-1.57,0,.02.01.03.02.05.1.48.12,2.62.28,2.79l.65.07.04.74-.89.12c-.15.42-.18.11-.5.15-1,.13-2.55,1.41-3.45,1.91-.57.11-.52-.66-.62-1.02-.43.3-1.05,1.3-1.57,1.32-.38,0-.71-.35-1.11-.48-1.42-.45-3.54-.29-4.51-1.62-.67.37-1.42.57-2.13.85-.41.16-.78.46-1.21.55,1.56,1.9,4.58,2.14,7.61,2.89"/>
        <path class="cls-13" d="M59.58,87.58c-.72-1.44-4.31-3.35-8.23-3.85.58,1.3.87,3.35,1.14,4.41.08.09,1.79-1.28,1.64.14-.64.5-1.39.7-2.03,1.23-.78.65-1.11,1.54-1.83,2.23-.35.16-.78-.36-.77-.73l-2.17,1.54c-.52.16-1-.11-1.09-.63-.58.12-.97.89-1.63.92-.45.01-1.69-.54-2.36-.65-.59-.09-1.47-.28-1.94.12l-.28-.39c-1.76-.24-3.57-.29-5.33-.52-.51-.07-1.45-.62-2.26-1.19-.05.35-.05.63-.05.63,3.26,1.22,8.06,2.75,12.72,3.56h10.05c2.94-.88,4.78-2.92,4.43-6.82"/>
        <path class="cls-13" d="M89.72,73.77c.06.28.07.59.15.87l-.46.59-.55-.12c-.12,1.17.11,2.62-1.57,1.96.18,1.99-.92.99-2.09.65-.16.48.35.65.39.98l-.13.52c-.62.34-1.29.6-1.91.95-.25.14-.53.34-.84.54,3.37.41,6.75.67,9.66.33v-7.05c-.91-.06-1.81-.13-2.65-.23"/>
        <path class="cls-13" d="M80.54,47.97c.89.23,1.78.46,2.67.65,1.07.24,2.22.02,3.1.93,1.61,1.66,1.71,6.17,1.89,8.41.07.87.4,1.71,0,2.54,1.38.46.78,1.41-.47,1.56-1.37.15-1.86-.42-2.88-1.14-.3-.03-1.52,1.12-1.8,1.15-.65.1-.68-.59-1.23-.65-.17,1.89-1.39,1.75-2.74,2.28-3.21,1.25-6.8,3.24-9.96,4.24-1.01.32-1.63.15-2.59.28-1.32.18-2.36.88-3.28,1.78-.35.34-1,1.22-1.58,1.79,10.67.3,21.68-1.08,30.71-5.83v-15.25c-3.87-1.43-7.76-2.43-11.83-2.75"/>
        <path class="cls-17" d="M92.37,38.36v.78c-1.27.12-2.52-.28-3.77,0-.08.05.4.92-.25,1.11l-3.46-.2c-.2.05-.17.42-.34.58-.42.43-2.81.64-3.46.6-.97-.07-1.96-.63-2.92-.86-.87-.21-2.2.07-2.1-1.23l-2.52.78c-.6-.19-1.07-.6-1.64-.85-.87-.37-2.04-.76-2.97-1.08-1.84-.65-4.8-.6-6.68-.1-.49.13-2.26.87-2.54.86-.15-.02-.25-.08-.32-.23-.16-.16.58-1.24.07-1.09l-3.03,1.54-.5-.11-.05-1.04c-.36.28-1.84.77-2.03,1.03-.2.29.52,2.57.34,3.13.79.1,1.64.25,2.38.55,1.98.82,2.46,3.21,3.11,5.04h1.59c.49-.15.88-1.16,1.09-1.26,1.71-.91,3.74-1.24,5.7-1.05,2.71.26,5.33.86,7.94,1.52,2.41.62,4.8,1.29,7.22,1.83,1.07.24,2.22.02,3.1.93,1.61,1.66,1.71,6.17,1.89,8.41.07.87.4,1.71,0,2.54,1.38.46.78,1.41-.47,1.56-1.37.15-1.86-.43-2.88-1.14-.3-.03-1.52,1.12-1.81,1.15-.65.1-.68-.59-1.23-.65-.17,1.89-1.39,1.75-2.74,2.28-3.21,1.25-6.8,3.24-9.96,4.24-1.01.32-1.63.15-2.59.28-1.32.18-2.36.88-3.29,1.78-.52.51-1.74,2.26-2.37,2.33-.51.07-1.14-1.33-1.35-.8-.66,1.58-1.24.36-2.21-.01-.83-.32-1.74-.28-2.57-.55-.62.03-1.33,1.02-1.91.86-.57-.16-.5-1.45-.61-1.94-.12-.15-3.12,1.24-3.59,1.29-.58.07-.75-.08-.84-.64-.13-.14-2.46,1.32-2.94,1.32-.97-.01-1.45-1.71-1.7-1.71-.29.22-.24.74-.65.78-.41.05-1.37-.45-1.96-.51-.7-.09-2.51.13-2.66-.73l.13-.98c-.49.07-.63-.45-1-.62-1.22-.59-3.97-.62-5.52-1.14-1.34-.46-2.5-1.58-3.74-2.26-.38-.21-1.28-.35-1.35-.87.13-.46.09-.95.15-1.41.1-.71.26-1.81.45-2.65.04-.25.1-.47.15-.66.13-.51.66-1.05,1.08-1.39.84-.68,1.69-1,2.53-1.76.5-.43,4.4-1.65,5.28-1.88,1.18-.32,1.68-.41,2.87-.13,1.54.35,2.77,1.26,4.23,1.76l2.77-1.67c.38-.05.76.23.63.63-.04.14-.35.38-.14.52.37-.2,2.23-1.37,2.48-1.3.38.11-.08,1.09.07,1.44.1.11,1.66-.45,2.01-.4.35.04.48.43.2.6-.36.21-2.12.42-2.52.3l-.4-1.02c-.49.21-1.6,1.12-2.05,1.02-.22-.05-.46-.37-.62-.32-.37.25-.75.47-1.13.7-.13.08-.23-.02-.17.28.57.12,1.04.53,1.57.72,1.53.55,2.88.54,4.11,1.89.53.58.85,2.23,1.69,1.17.39-.5.8-1.48,1.18-2.08.62-.95.85-1.39,1.92-1.86,2.19-.95,3.82-.88,5.86.3.24.14.34.42.61.37.34-1.02,1.5-1.58,2.39-2.1.6-.37,1.51-.72,2.03-1.09.12-.09.2-.1.07-.2-.21-.15-.48-.25-.72-.46-.55-.49-.96-1.12-1.49-1.63l-.93,1.29-2.33-1.16c-.33.23-.22.78-.39,1.05-.28.45-1.48.02-1.95,0-.77-.04-1.56.05-2.33-.02-.57-.27-.34-.91-.22-1.41l-2.27.66-.47-1.32c-.08-.1-.94.66-1.04.72-.58.26-2.22-.33-2.95-.45-.84-.13-1.73-.16-2.57-.28-1-.15-2.35-.58-3.31-.61-.22,0-.42.31-.76.36-.29.04-.61-.03-.9,0-1.91.23-3.83.58-5.74.79-.74,0-.84-.8-1.16-.79-.43,0-.68.93-1.08,1.03-.45.12-1.04-.4-1.25-.36l-1.39,1.09-6.78,1.37v5.41s-.16.1-.13.2c.07.05,1.37-.26,1.63-.26.52,0,.82.35.72.71-.03.14-.12.28-.26.4-.66-.02-2.92.61-3.33.2-.11-.11-.17-.36-.19-.52-.17-.2-2.82,1.65-3.21,1.82-1.25.51-2.88-.27-4.02-.77-.32,0-.38.51-.88.37l-1.72-1.28c-.16,0-.53,1.6-.95,1.67-.62.16-1.13-.22-1.71-.34-.57-.12-2.35-.26-2.57-.68-.13-.25-.07-.48.04-.72-.03-.33-1.92-.36-2.26-.33-.61.04-1.18.39-1.76.2-.46-.23-.18-1.3-.26-1.76l-2.27,1.57c-.77,0-.88-1.44-.97-2.03-.25-1.72-.47-4.13-.47-6.18,0-.63.02-1.23.07-1.76.02-.25.2-1.05.39-1.17.9.05,1.4-.54,2.1-.89.98-.49,3.45-.86,4.64-1.09,1.24-.23,3.69-.77,4.82-.77.17,0,1.37.22,1.61.27.49.12,1.05.64,1.62.68,1.77-2.22,4.7-2.22,7.23-2.89-.46-.66-.66-1.77-.39-2.53-.66-.15-.24.34-.45.65l-.27.13c-.36.03-.67-.13-1.03-.14-.99-.05-2.61.65-2.88-.52-1.04-.09-2.02.21-2.99.52l-.42-.34.23-1.22c-.16-.16-2.36.7-2.46.99l.24,1.56c.24.21.58.13.82.22.22.09.36.28.59.34.23.05,1.4.11,1.47.15.12.41-.2.52-.59.53-.65,0-1.31-.36-1.88-.47-.88-.17-2.44-.3-3.32-.18-.93.12-1.32.63-2.48.5-.24-.03-1.05-.15-.79-.51l3.07-1.1.13-1.12s-.63.41-.78.47c-.59.22-3.79.33-4.3.12-.32-.13-.95-.78-1.24-.79-.41.12-.82.25-1.2.45-.33.17-1.14.95-1.28.95-.65,0-.4-1.51-.91-1.83l-.72.51v-1.16c.2-.09.38-.24.6-.26,1.01-.12,1.08,1.55,1.29,1.55.78-.52,1.59-1.05,2.58-.88.43.09.91.46,1.35.49.29.03.58-.12.89-.13.8-.03,1.37.08,2.23,0,.17,0,.35.11.49.09.14,0,.89-.45,1-.54.32-.33.03-2.01.13-2.54-.57.04-1.09-.15-1.52-.51-.24-.04-1.04.91-1.67.91-.67,0-1.11-.77-1.44-.79-.28-.03-.61.21-.91.25-1.53.22-1.37-.27-2.37-.74-.74-.36-1.85-.11-2.64-.03v-1.04l2.72-.14.67-1.1c-.28-.73-1.11-.32-1.63-.32-.84,0-1.36-.67-1.76-1.3v-1.96c.28-.11,1.05-.43,1.25-.14.18.78-.73,1.65.18,2.28.54.07,3.09.18,3.33.59.22.36-.04,1.04-.14,1.43l-.71,1.17c.9.41,1.87-.43,2.73.08.24.14.46.59.72.58.79-.26,1.21-1.42,2.14-.84.18.11.29.36.49.42.57.17,1.33-.18,1.81-.49.33-.26.15-1.15.65-1.19.65-.07.87.82,1.37,1.1.43.26,1.48.29,1.96.15.49-.15,1.14-1.09,1.6-.97.32.08.29.52.48.7.12.11.36.14.52.27.24.18.18.54.82.42.39-.08,1.33-.88,1.51-1.23.09-.16.5-1.49.53-1.69.03-.25.05-.62-.05-.85-.17-.33-.82-.29-.86-.72-.09-.43.36-.79.4-1.17.03-.4-.22-.84-.26-1.23-.82.75-1.78,1.75-2.97,1.07-.9-.52.46-.53.82-.67.54-.19.97-.66,1.15-1.2.14-.42.18-1.82.68-1.92.5-.11.83,1.44.58,1.82.11.13.49-.28.59-.39.16-.18.73-.97.78-1.16.12-.37-.09-.55-.05-.83.07-.41.71-1.04.84-1.52.1-.38.11-1.24.05-1.63-.05-.32-.3-.54-.36-.82-.08-.37.04-.79-.05-1.12-.13-.46-.98-.32-1.02-.81-.05-.51.53-.63.79-.9.5-.55.58-1.57.5-2.27-.76-.05-1.12-.98-1.87-.93-.32.01-.67.27-.99.08-.29-.36-.21-.79-.51-1.17-.29-.37-1.08-.55-1.16-.8-.29-.89,1.65-1.84,1.4-2.89-1.12-.35.22-1.91-.71-2.61-1.59.61-1.04-1.04-1.63-1.96-.48-.14-.82.48-1.29.18-.22-.13-.42-1.09-.52-1.37-.15-.16-.96.83-1.36.79-.71-.08-.63-1.15-.75-1.61-.15-.52-.76-1.49-1.35-1.53-.47-.03-.93.63-1.49,0l-.12.77c.41.18,1.05.11.9.66-.66-.11-2.41,1.27-2.79,1.16-.51-.13,0-.72.03-.86.07-.29-.75-1.11-.89-.96l.08,2.87c-.15.53-1.27.75-1.77.78.29,1.2.14,1.84-1.15,2.1l-.27.97c-.24.14-.77.08-1.05,0-.6-.16-.92-.87-1.56-.99-.37.42,1.49,1.77,1.15,2.78-.11.35-.97.34-1.23.74-.2.32.61.55.41,1.17-.32.8-2.25,1.52-2.17,2.4.05.69,1.35.55,1.82.86.27.38-1.08.97-.87,1.99.12.63.65.7.73.96.1.33-.11.59-.1.88,0,.38.28.87.25,1.3-.03.33-.36,1.03-.65,1.18l-1.3-.06v-1.17l1.04.26-.15-2c-.51-.52-.64-1.11-.76-1.78-.24-1.34-.12-2.79-.13-4.17l1.12-.78c.07-.12-.4-.61-.43-.87-.07-.58.79-1.23,1.28-1.42.08-.86-1.87-1.35-.9-2.84.46-.7,1.03-.76,1.72-.33.21.14.86.92,1,.76.05-.62.61-.9,1.16-1.04-.48-1.66.33-2.01,1.83-2.09.17-.86-.49-3.26.72-3.38.92-.1,1.32.43,1.73,1.14.09.13-.01.23.29.16-.22-.89-.25-1.79.47-2.46.59-.39.85.04,1.29.11.33.04.66-.02,1.01.03,1.05.17,1.89,1.47,2.04,2.45l1.44-.26c-.09-.74.39-1.33.77-1.91-.65-.96-.35-1.75.4-2.51h1.57c.07.28-.16.27-.32.39-.8.61-1.43.97-.49,1.91.21.66-.64.93-.83,1.6-.14.47.08.74.03.96-.03.17-.33.31-.22.66.08.27.53.17.77.27.89.33,1.15,1.14,1.32,2.01,1.21-.21,1.74,1,1.69,2.03-.03.85,0,.68.12,1.44.2,1.24-.76,1.82-1.16,2.79.48.13.95.66,1.04,1.16,1.03-.3,1.55.37,2.29.9.32.22.63.17.86.58.58,1-.03,2.35-.53,3.27.72.59.53,1.3.66,2.07.05.35.3.72.35,1.09.15,1.11-.16,1.99-.62,2.97.53.88,1.17.24,1.74.23.42-.01.67.5.85.84l-.26,1.88c1.12.33,2.07-1.57,2.82-.27.37.12,1.05-.62,1.29-.9.28-.33.54-1.1,1.03-1.04l.27.13.51.78c.57-.36,1.08-.8,1.28-1.46.14-.46.05-1,.57-1.26.52-.15.64.47,1.02.76.5.4,1.59.76,2.22.79.93.04,1.49-.83,2.4-.92,0-.32-.27-.5-.27-.84,0-.78,1.07-1.7,1.84-1.63-.5-1.58-.24-3,.66-4.36-1.32-.67-1.73-1.93-1.25-3.33.49-1.39,1.05-.86,1.96-1.57.76-.6.83-1.38.12-2.08-.89-.89-1.7.11-2.4-.07-.6-.14-.65-.65-1.04-.91-.27-.18-.8-.22-.89-.55-.2-.72.49-.74.89-1.02.52-.38.91-.89.92-1.56,0-.39-.22-.84-.12-1.15.14-.46,1.04-.71,1.14-1.6.08-.64-.27-.98-.26-1.42,0-.3.23-.41.27-.65.12-.67-.18-1.59-.65-2.09-.25-.26-.74-.32-.65-.84h1.44c.78.84,1.11,1.64,1.04,2.8,0,.26-.14.5-.14.78,0,1,.43,1.52-.27,2.59-.15.24-.54.5-.61.7-.1.32,0,.77-.03,1.14-.08.63-.68,1.65-1.28,1.91l.47.88c.51-.05.86-.39,1.41-.39,1.35,0,2.49,1.59,2.3,2.87.93.11,1.89.61,2.44,1.4.18.26.36.84.45.92.18.18,1,.35,1.23.66.57-.26,1.16-.73,1.8-.77.71-.04,1.25.34,1.89.53v-.85c-1.04-.49-2.39-1.2-2.49-2.47-.04-.76.15-1.39.92-1.64.14-.12-.5-.68-.63-.87-.48-.66-1.43-2.02-.95-2.82l.66-.28c-1.36-.98-2.56-2.46-2.74-4.17.08-.45.64-.63,1.04-.6l-.91-2.34h.91c.13.85.52,1.84,1.19,2.39.33.27,1.13.52,1.17.93-.17,1.2-1.46.08-2.23.18.53,1.3,1.39,2.38,2.65,3.02.36.18,1.83.6,1.9.96.04.2-.16.28-.29.35-.53.27-1.15.35-1.72.5-.14.04-.24.04-.33.2.27.65.69,1.3,1.24,1.75.33.27.87.36.98.86-.04.93-1.23.35-1.77.97-.32,1.15,1.13,1.66,1.97,2.06.72-.96,1.45-1.62,2.74-1.15.35.13.77.61.92.64.2.05.49-.12.76-.12,1.05.02,2.02,1.29,2.28,2.23,1.48-.41,2.76.77,2.93,2.21.17.04.23-.1.33-.2.28-.24,2.04-1.97,1.7-2.27l-.65-.07-.24-.42.5-1.21c-.96-.08-2.82.09-2.85-1.22.13-.42,2.02-1.35,2.5-1.67,1.27-.85,2.87-2.11,2.96-3.75-.99.08-2.02.3-2.98-.02-.23-.87.32-.91.76-1.35.71-.67,2.46-2.25,2.85-3.02.15-.32.28-.64.28-1.01-.01-.12-.77-.02-.66-.78.07-.4.65-.53.66-.98h1.18c.08.28-.21.52-.23.73-.04.35.15,1,.09,1.55-.2,1.45-1.89,2.91-2.86,3.91.86.12,1.82-.53,1.96.77.27,2.56-2.48,4.73-4.44,5.87.39.37.79.04,1.21.09l.37.2c.3.58-.01.99-.15,1.53,1.53.75.11,2.43-.64,3.27-.57.64-1.27,1.3-2.09,1.62l.52.2c.59.43.25.91.26,1.5.97-.2,2.2-2.29,2.94-.91l1.18-.65h.24c.16.05.2.18.16.35-.07.25-.3.58-.41.7-.71.83-1.32.63-2.27.53-.41,1.96-1.65,3.63-3.36,4.66l-2.38,1.2c.98.27,2.81-1.09,2.58.7l-1.14,1.78c.74.15,1.88-1.04,2.38-.89.85.24.27,1.63-.03,2.13.38.08.84-.44,1.11-.47.24-.02.58.13.7.36.21.66-1.44,2.39-1.94,2.85-.11.1-.25.18-.4.2l.66.04.5.43-.38,1.47c.48-.05.92.03.92.59l-.47,1.63c.78-.26,1.58-.55,2.38-.75,2.05-.48,3.86-.71,5.93-.13,1.09.3,2.6,1.22,3.69,1.4.08,0,.21.03.2-.07-.71-.73-.59-1.64-.33-2.54.15-.53.25-.86.38-1.44.18-.8.87-1.41,1.49-1.9-.01-.69.03-1.28.4-1.87-.8.03-1.64-.32-1.84-1.15-.33-.08-.72.06-1.02-.09-.14-.08-.24-.29-.4-.38-.39-.22-.84-.14-1.28-.54-.18-.15-.36-.53-.48-.57-.4-.12-.59.48-.83.72-.4.38-1.7,1.36-2.23,1.03-.27-.16-.42-1.28-.39-1.63-.89.18-2.19.87-3.07.9-.62.03-1.13-.35-.72-.98l2.28-2.01.34.07c.08.65-.55,1.09-.78,1.63.68.19,1.87-.92,2.39-.77.39.13.46,1.44.6,1.82.1.12,1.2-.95,1.3-1.11.43-.57.46-1.61,1.44-1.18.23.11.96,1.35,1.17,1.11-.12-.64.94-.95,1.02-1.07.05-.09.02-.34.08-.5.36-.89,1.35-1.4,2.1-1.95.15-.33.11-.91-.29-1.02-1.49.03-2.65.11-2.65-1.18,0-.25.04-.55.14-.92-1.04-.07-1.67-.85-1.27-1.86.21-.53.28-.84.46-1.36.2-.59.93-1.45,1.55-1.58.24-.04.69.02.8-.05.03-.02.26-.45.48-.62.67-.55,1.98-1.04,2.86-.91.35.05.66.5.98.07l-1.66-.69c-1.99-.26-4.32-.63-5.43-2.52-.95-1.6.31-1.28,1.42-1.16.13.02.49.1.46-.12-.85-.11-1.61-.82-2.15-1.44-.4-.46-1.52-2.12-1.48-2.65.07-.7.93-.42,1.36-.36.14.02.35.09.32-.12-.85-.29-1.5-1.15-1.92-1.91-.52-.9-1.26-2.47.23-2.78l-.52-.77h1.17c1.14,1.09,1.61,1.96-.52,1.56-.08.98.79,2.38,1.58,2.92.61.43,1.39.47,1.93.94l-.2.43-2.01.66c.23,1.09,1.39,2.35,2.47,2.68.26.08,1.26.15,1.32.39,0,.54-.82.53-.89.6-.11.09,0,.6-.64.74-.17.04-.97-.09-.82.22.83,1.04,2.1,1.22,3.32,1.5.18.01-.3-.91-.3-1.11,0-.26.26-.58.23-.76-.05-.24-.43-.23-.38-.94.04-.58.91-1.74,1.45-1.95.29-.12.88-.11,1.21-.04.3.07.71.45.96.47.18.02.4-.19.63-.23.55-.09,1.11.08,1.55.4l.79.89c.96-.72.38-.85.23-1.52-.12-.54,0-1.24.63-1.34-.1-.47-.64-.71-.76-1.27-.35-1.66.92-3.06,2.61-2.6.36.09.55.27.88.35-.21-1.27.42-2.05,1.67-2.24l.15-.75h1.17c-.46.56,0,1.61-.87,1.8-.42.09-.93-.15-1.12.32-.32.67.21,2.62-.36,2.91-.54.22-.79-.57-1.11-.86-.52-.51-1.48-.64-1.87.09-.6,1.12.55,1.41.51,2.19-.03.41-.43.62-.63.95-.01,1.04.36,1.53-.48,2.39-1.44,1.44-1.49-.45-2.72-.64-.82,1.04-1.76-.74-2.83-.21-.13.07-.61.6-.68.75-.32.67.75.52.78,1.09.03.5-.36.48-.74.58v.07c-.03.26.32,1.02.52,1.16.26.16,1.33.21,1.41.35.07.11-.04.38.02.49.06.07,1.12.23,1.03.79.65-.48,1.59-.97,2.22-.2.08.36-.9.53-1.16.66-.53.27-1.58,1.51-1.58,2.08v1.88c-.96.02-1.14-1.1-1.03-1.88.03-.25.32-.68.2-.86-.74-.54-2.13-.22-2.75.39-.3.32-.34.9-.9.9-.34,0-.49-.27-.92.01-.65.43-.47.76-.63,1.32-.12.37-1.27,1.14-.12,1.4,1,.22,1.64-.89,2.38.09.08.33-.51.32-.72.45-.46.28-.92,1.02-.84,1.58.67.14,1.6-.02,2.14.39.9.66.36,1.34.83,2.16-.02.74-.57.39-.88.51-.84.29-1.35,1.19-1.51,2.01-.27.32-.95.17-.96.85l.12.46c.65.09,1.09-.97,1.62-.25.34.43-.02.77.09,1.28.43.3,2.78-.27,2.86.22.13.79-.43.66-.86,1.09-.29.29-.73,1.04-.52,1.45.09.16.37.26.43.48.27.87-.65.71-1.14,1.02-.24.15-.83.83-.64,1.09.78.29.33,1.02-.34,1.19-.25.24-.27,1.28-.17,1.61.09.28.63.49.63.8l-.39.39c.23.62,2.13-.53,2.64-.3.5.13.62.53.62,1.01.42.1.91.09,1.33.17,1.09.22,1.33.47,2.5.48.62,0,2.26.12,2.72-.12.15-.08.12-.45.29-.65.54-.65,3.16.08,4.02,0,.09,0,.07-.67.79-.78,1.12-.16,2.56.11,3.71,0M87.01,60.56c.03-.38.04-.77.02-1.15-.04-.78-.2-1.69-.26-2.47-.17-1.91-.25-3.86-.92-5.67l-3.12.77c-.07.41.2.71.3,1.07.6,2.12.66,4.23.62,6.44-.01.44-.25.76-.01,1.23l1.37-.66c.4,0,1.76,1.18,2,.45M85.33,50.54c.05-.24-.25-.3-.41-.36-.62-.22-1.3-.25-1.94-.41-4.75-1.26-11.42-3.44-16.22-3.33-.48,0-.97-.04-1.44,0-.12,0-.49.05-.46.25l9.73,3.1c2.63-.48,5.24.71,7.56,1.83.42-.07,3.12-.89,3.16-1.09M82.46,56.99l-.39-3.77-.38.2-3,2.66,3.77.91ZM82.33,60.25l.12-2.73-4.32-1.03-10.4,4.74-.52,5.67c.53,0,1.02.04,1.54-.09,2.08-.54,4.89-2.17,7.03-3.01.52-.2,1.09-.3,1.6-.49,1.09-.39,2.12-.89,3.26-1.16.38-.3-.24-2.02.59-2.15.41-.07.76.04,1.1.26M80.6,53.11c.37-.24.75-.54,1.22-.54-1.2-1.16-3.11-1.34-4.62-1.97-.2.48-.72.6-1.2.65-2.18.26-4.11,1.19-6.13,2.08-2.43,1.05-4.84,2.2-7.08,3.6.11.16.26.17.42.24.79.32,2.53.61,3.13,1,.04.02.56.55.6.61.15.2.63,1.61.73,1.61,1.79-.91,3.62-1.78,5.45-2.63,1.08-.49,2.63-.96,3.58-1.51,1.37-.8,2.59-2.26,3.9-3.13M73.57,50.38l.3-.29c-2.75-.6-5.39-1.82-8.08-2.53-.79-.22-2.03-.7-2.74-.26-.76.48-1.38,1.5-2.29,1.62-.6.07-1.27-.14-1.82.26l-2.01,2.61,2.33.12.21-.9c.75-.95,2.11.87,2.85.64.27-.09.52-1.22,1.18-1.16.73.05,1.62,1.7,2.37,2.07.28.14,1.14.43,1.41.42l6.29-2.59h0ZM67.06,60.99l-1.1-1.89-4.01-1.32c-.58.53.08,1.11.29,1.64,1.08,2.53,1.77,5.35,1.72,8.12l2.28-.64.82-5.92h0ZM62.64,69.54c.02-1.73.3-3.55.15-5.32-.1-1.15-1.07-4.36-1.72-5.32-.22-.32-.39-.33-.59-.52-.09-.09-.12-.25-.23-.35-.14-.11-.65-.47-.79-.51-.26-.08-.16.07-.21.17-.27.73.05,2.11.02,3.01-.12,2.55-.69,5.24-.79,7.81-.03.76.03,1.53,0,2.29.41.1.16-.41.51-.6.6-.3,1.54.55,1.83,1.05l.2.06,1.61-1.78h0ZM60.7,21.87l-1.1.05-.53-.25c-.37-.33-.14-.77-.07-1.17-.74.18-3.39.43-2.97-.96.17-.57,2.47-.75,2.97-1.33-.39-.26-.4-.7-.62-1.07-.42-.73-1.21-.99-1.81-.32-.65.2-.77-.72-1.02-1.16-.26-.45-.7-1.22-1.29-1.16-.86.55-1.12-.05-1.82-.41-.39-.22-.45-.32-.86-.03-.62.42-.38.63-.6,1.1-.05.11-.25.18-.29.35-.16.51.16,1.1-.48,1.61-.58.48-1.7-.64-2.48-.66-1.12-.03-1.27.96-2.19.76-.17-.03-1.69-.76-1.86-.88-.41-.28-.61-.9-.97-1.25-.68-.65-1.53-.83-2.28-.18-.21.16-.27.41-.43.52-.23.17-.64.25-.93.27-.08.54-.24.89.07,1.41.36.61,1.33.72,1.49,1.43h.26c.5-1.48,2.73-1.18,2.73.39-.6.03-.79-.58-1.47-.37-.46.14-1.05,1.25-1,1.73.02.29.33.52.26.86-1.05.1-1.01-.38-1.29-1.12-.07-.17.05-.23-.27-.18-.35.97-.68,1.6-.36,2.64.14.46.57.86.29,1.4-.3.61-1.82-.38-1.9.84.04.4.82.54.47,1.24-.34.67-1.54.53-2.07.93-.6.45-.68,1.45-.61,2.13.04.45.53,1.05.14,1.43-.18.17-.78.12-.65.39.21.43,1.25.37,1.16.77-.04.18-.99.67-.78.85,1.09.02,2.88-.66,3.86-.26.22.09.33.27.45.33.63.29,3.36-.39,4.36-.32,1.64.11,3.46,1.33,4.81,2.23.95.65,2.75,1.85,3.53,2.59.34.32.52.77.94,1.02l2.74-1.38c.82.04.39.76.5,1.27.55-.25,1.13-.7,1.66-.94.5-.24,1.05-.3,1.52-.56-1.29-.29-.76-.95-.65-1.89-1.21.54-2.57,1.05-3.77.2-.04-.17.15-.28.27-.38,1.05-.89,2.75-1.17,3.76-2.22l-.65-.13-.33-.46.2-1.31c-.84.04-1.59.52-2.35-.09l-.24-.74,1.03-1.65h-2.02c-.16,0-1.02-.37-1.17-.51-1-.91.74-1.07,1.33-1.28,1.3-.51,3.21-1.49,4.15-2.5.43-.48.83-1.12,1.23-1.63M58.43,62.22l.2-5.1c-1.48-.38-2.99.15-4.24.91-.92,1.23-1.58,2.67-2.4,3.95-.08.12-.27.15-.38.3-.14.2-.65,1.37-.54,1.49,2.53-.05,4.94-.99,7.37-1.55M58.49,48.19c.02-.24-.61-2.01-.76-2.36-.45-1.05-.82-1.84-1.95-2.23-.47-.16-1.87-.51-2.33-.54-.58-.04-2.34.53-3.13.63-1.67.21-2.46-.15-4.04-.37-.98-.13-2-.13-2.97-.28-.74-.12-1.44-.37-2.16-.51.23,2.2.41,4.45.13,6.64.48.08.75-.28,1.23-.26.32,0,.64.18.95.23,1.64.27,3.29.46,4.92.71.63.09,2.5.63,2.94.43.21-.1.52-.48.83-.61.67-.3,1.53-.38,1.39.61-.02.14-.52.99-.07.85.37-.11.87-.54,1.37-.52-.07-.16-.2-.26-.27-.45-.33-.87-.98-2.94-1.13-3.82-.1-.57-.09-1.21.59-.78.45,1.63,1.17,3.22,1.34,4.92l.71.02.21.37c.51-.41,1.4-1.02,1.75-1.57.07-.11.46-1.03.47-1.11M57.84,70.29c-.08-2.46.1-4.89.51-7.3-2.6.39-5.13,1.61-7.81,1.55l-.52,4.96,2.27-.65c.73.21,1.02.99.98,1.7.13.14,1.19-.65,1.44-.73.38-.11,1.16.03,1.6.11.25.04,1.46.43,1.53.36M52.96,41.88c.11-.58-.24-2.97-.73-3.21l-3.38.47.66,3.24c.22.14,3.3-.28,3.45-.5M51.71,38.1c.07-.25-.09-.25-.22-.37-1.11-1.01-4.68-3.49-6.04-3.99-1.59-.59-2.71-.08-4.3-.08-.02.18,0,.34.1.49.38.76,5.01,2.69,6.07,3.32.5.3.97.68,1.34,1.13l3.04-.5h.01ZM50.02,61.95l-.99-1.96-.78-.52-4.36,1.7c.37.92,1.07,1.6,1.89,2.09l4.24-1.3h0ZM50.02,62.6l-4.29,1.32-.02,2.39.39,3.59c1.1.07,2.11-1.77,2.62-.01l.58-.12c.26-1.26.39-2.56.45-3.85.05-1.01-.04-.48-.23-1.07-.22-.68.4-1.58.5-2.25M48.45,42.39c0-.27,0-.56,0-.83-.07-.71-.25-1.91-.41-2.6-.12-.52-.96-.92-1.41-1.18-1.16-.66-2.47-1.21-3.65-1.83-.47-.24-.98-.4-1.41-.73.17,2.16.17,4.35,0,6.52l6.91.65h-.02ZM43.44,60.9l4.23-1.7c-.02-.17-.18-.22-.32-.26-.65-.26-1.41-.34-2.12-.63-2.7-1.09-5.44-3.68-8.55-3.24-1.3.17-2.77,1.02-4.13,1.14-.04.16.13.15.26.18,2.11.66,4.45,1.5,6.47,2.39,1.41.62,2.77,1.43,4.15,2.11M45.57,70.21l-.38-2.34-.15-3.36c-.79-.77-1.8-1.41-2.07-2.57-.43,0-.59.51-.84.78-1.29,1.39-3.08,2.58-3.18,4.67.86.25.38,1.07.37,1.72l3,.52c-.02-.35.05-.87.46-.92,1.08.04,1.43.98,1.91,1.74.08.12.1.27.28.22l.59-.46h.01ZM42,62.21c.12-.15.53-.6.39-.79-1.21-.67-2.49-1.41-3.76-1.97-1.42-.62-3.32-1.37-4.78-1.86-.71-.24-2.23-.71-2.93-.59-.38.07-1.84,1.34-2.08,1.7-.39.57-.88,3.4-.97,4.24-.02.13-.07.34,0,.42,1.44.48,2.59,1.82,3.99,2.34,1.82.66,4.64.47,6.09,1.59.11.09.13.18.33.13,0-.43.16-.89.33-1.3.78-1.92,2.19-2.44,3.39-3.9M40.64,41.01c-.28-1.27-.08-2.6-.14-3.89-.02-.54-.11-1.11-.13-1.7,0-.21.05-.23-.17-.17-3.89.8-7.43,2.96-11.16,4.22-.41.26-1.36,2.18-1.6,2.71-.16.39-.68,1.53-.75,1.85-.12.53.08,1.38,0,1.96.26.33.79.21,1.18.13,1.52-.29,3.41-1.33,4.92-1.86,1.01-.37,2.08-.57,3.1-.95,1.65-.6,3.16-1.56,4.76-2.29M40.24,34.57c.23-.22-1.04-1.36-1.37-1.3-4.2.85-8.74.87-12.57,2.94l2.27,2.76c3.9-1.42,7.57-3.52,11.67-4.39M40.24,48.98c.11-1.29-.05-2.63-.13-3.91-.05-.76-.02-1.52-.13-2.28l-8.32,2.63c-.09.68-.48,1.47-.54,2.12-.1.87.2,1.69.13,2.54l.68-.24.88.63c-.02-.32,1.03-1.15,1.24-1.18l.63.15.36.62,5.08-.7c.13-.08.11-.25.12-.39M34.59,32.64c.17-.14.21-.37.18-.59-.66-.36-.99-1.09-.63-1.82.14-.26.47-.39.5-.68.03-.27-.14-.66-.14-1.03,0-.43.17-.8.14-1.24-.78.08-1.48-.16-2.13-.54-.25-.14-.37-.47-.74-.36-.4,1.39-1.81,2.6-3.32,2.08-.73.06-.43,1.83-.47,2.42-.01.25-.12.49-.13.77-.03.8.03,1.62,0,2.41.97-.18,1.88-.53,2.85-.74.62-.13,3.65-.5,3.88-.67M30.2,51.19c.35-1.11-.07-2.4-.07-3.58l-1.3-1.19c-.65.04-1.63.64-2.21.67-.53.02-1.09-.34-1.58-.39-2.29-.31-5.06,1-7.09,1.95.73.65,1.88.89,2.78,1.32.64.3,2.69,1.32,2.89,1.92.07.22.07.43.05.66l6.51-1.37h.02ZM27.31,40.48c.16-.31.59-.7.56-1.01l-2.15-2.94c-1.03.74-3.09,2.62-3.08,3.98.01.54.62.74.91,1.04.76.79,1.41,1.67,2.36,2.27.35-1.16.85-2.27,1.4-3.35M26.94,34.38v-4.88l-1.03.13v5.21l1.03-.46ZM25.78,45.79l-.03-1.41c-.43-.3-1.01-.76-1.39-1.14-.51-.5-1.06-1.24-1.58-1.69-.13-.11-.16-.25-.39-.2-.15.73.14,1.27.25,1.9.12.64-.21.84.47,1.36.4.32,1.77.96,2.27,1.11.14.04.25.09.4.07M25.12,35.49v-5.73c-2.04.85-3.38-.36-2.74-2.48l-1.35-.27-1.63,2.19c.1.74.23,1.45-.03,2.17,1.29.76.72,2.31.4,3.47.39.1.77-.12,1.12-.13,1.04-.04,2.02,1.25,2.99,1.57l1.24-.78h0ZM20.26,46.99l3.43-.95c-.48-.15-1.13-.45-1.5-.78-.23-.21-.24-.6-.64-.52-1.8.71-3.93.59-5.48,1.83-.37.29-.66.73-1.11.98l2.38.96,2.93-1.51h-.01ZM22.65,58.03v-4.95l-6.53,1.1-.26,5.6,2.65.58c1.33-.86,2.59-1.88,4.13-2.33M23.17,36.87c-.03-.12-1.84-1.26-2.09-1.33-.15-.03-1.65.16-1.86.24-.24.07-.79.77-1.22.99-1.46.73-2.08,0-3.13-.88-1.1.84-2.25,1.02-3.56.51l-.26,3.52c.12.12,2.54-1.17,3.09-.63.38.38-.24.97-.23,1.4,1.01-.17,2.02-.49,3.07-.39.38.04.55.1.71.46l2.52-.05c.13-.51,1.07-.61,1.24-.82.06-.08.25-.83.39-1.1.36-.71.98-1.23,1.33-1.92M21.29,52.44c.37-.03.74,0,1.1,0-.14-.41-.61-.42-.9-.6-1.27-.77-2.68-1.72-3.96-2.42-1.41-.76-3.56-1.15-4.72-2.19-.18-.15-.25-.4-.36-.49-.45-.4-.93,0-1.36.07-1.55.25-3.09.43-4.63.72-1.46.27-2.92.67-4.39.88-.01.11.12.18.21.24,1.8,1.04,4.57,1.67,6.54,2.33.58.2,1.13.47,1.7.65,1.29.42,4.98,1.8,6.08,1.72,1.47-.13,3.18-.73,4.71-.89M14.95,59.46c.03-1.67.29-3.46.15-5.14-.01-.14,0-.28-.14-.39L.5,49.18c-.03,2.8.05,5.59.52,8.34.65-.34,1.93-1.66,2.66-1.57.3.04.58.45.59.73.04.48-.72,1.26-.52,1.88,1.35-.2,2.94-.18,4.24.27.43.15.46.3.47.76l2.65.67c.14,0,.65-1.69.8-1.71.7-.13,1.37.95,1.96,1.29l1.08-.39h0ZM10.53,36.53l-.99.51-.18.34c.12,1.33-.33,2.87-.13,4.18.04.34.53.4.85.45.37.05.08-.34.05-.58-.03-.58.11-.96.14-1.44.05-1.15,0-2.34.26-3.46"/>
        <path class="cls-5" d="M88.94,31.03c-.11-.21-.16-.41-.19-.61-.56,1.42-3.01.66-3.16-.86-.04-.46-.07-.95.52-.85.23,1.44,1.38,1.6,2.61,1.33.09-1.54,2.21-2.46,1.3-3.36-3.26-3.26-13.05-2.17-8.7-8.7,2.82-3.94,6.8-6.13,11.04-8.24V-.22h-4.95c-.46.55,0,1.61-.87,1.79-.42.09-.94-.15-1.12.32-.32.67.21,2.62-.36,2.91-.54.22-.79-.57-1.11-.86-.52-.51-1.48-.64-1.87.09-.6,1.12.55,1.41.51,2.19-.03.41-.44.62-.63.95-.01,1.04.36,1.53-.48,2.39-1.44,1.43-1.49-.45-2.72-.64-.82,1.04-1.76-.74-2.83-.21-.13.07-.61.6-.68.75-.32.67.75.52.78,1.09.03.5-.36.48-.74.58v.07c-.03.26.32,1.02.52,1.16.26.16,1.33.21,1.41.35.06.11-.04.38.02.49.05.07,1.12.23,1.03.79.65-.48,1.59-.97,2.22-.2.08.36-.9.53-1.16.66-.53.27-1.58,1.51-1.58,2.08v1.88c-.96.02-1.14-1.1-1.03-1.88.03-.25.31-.68.19-.86-.74-.54-2.13-.22-2.75.39-.3.32-.34.9-.9.9-.34,0-.49-.27-.92.01-.65.43-.47.76-.63,1.32-.12.37-1.27,1.14-.12,1.4,1,.22,1.64-.89,2.38.09.08.33-.51.32-.72.45-.46.28-.92,1.02-.84,1.58.67.14,1.6-.02,2.14.39.9.66.36,1.34.83,2.16-.02.74-.57.39-.88.51-.84.29-1.35,1.18-1.51,2.01-.27.32-.95.17-.96.85l.12.46c.65.09,1.09-.97,1.62-.25.34.43-.02.77.09,1.28.43.3,2.78-.27,2.86.22.13.79-.44.66-.86,1.09-.29.29-.73,1.04-.52,1.45.09.16.37.26.43.48.27.87-.65.71-1.14,1.02-.24.15-.83.83-.64,1.09.78.29.33,1.02-.34,1.19-.25.24-.27,1.28-.17,1.61.09.28.63.49.63.8l-.39.39c.23.62,2.13-.53,2.64-.31.5.13.62.53.62,1.01.17.04.35.05.53.07,2.44-4.17,6.24-6.58,11.41-8.3M77.63,19.51c.16-.4.71-.95,1.18-.84.11.6-.54,1.02-.37,1.61.11.35.75.5,1.08.6l.08.34c-1.21.7-2.49-.4-1.97-1.71M77.24,29.24c-1.24-.3-1.06-2.06-.49-2.93.46-.7,1.15-.89,1.94-.6l-.13.45c-.84.23-1.26,1.12-1.15,1.95l.1.15c.26.16.91-.08,1.1.35.2.47-.14.62-.18,1.08-.13,1.5,1.74.48,1.97.72-.37,2.2,1.41,1.36,2.73,1.04-.34,1.54-3.23,1.73-3.39.01-1.52.17-2.61-.62-2.48-2.22"/>
        <path class="cls-13" d="M81.33,17.98c-4.35,6.52,5.44,5.44,8.7,8.7.91.91-1.21,1.82-1.3,3.36.04,0,.09-.01.13-.02-.02.15-.06.29-.11.41.03.19.09.39.19.6-5.17,1.72-8.97,4.14-11.41,8.3.27.03.55.05.79.1,1.09.22,1.33.47,2.5.48.62,0,2.26.12,2.72-.12.15-.08.12-.45.29-.65.54-.65,3.16.08,4.02,0,.09,0,.07-.67.79-.78,1.12-.16,2.56.11,3.71,0V9.74c-4.24,2.1-8.22,4.29-11.04,8.24M85.59,35.55c-1.03.38-2.83-.21-2.25-1.47.41-.88.7.22.87.37.59.52,1.85.03,2.56,0-.11.5-.73.93-1.17,1.11"/>
        <path class="cls-8" d="M92.37-.35v.13H-2.25c.04,5.08-.04,10.17,0,15.25.01,1.37-.11,2.83.13,4.17-.22.13-.13.5-.13.72,0,.93,0,1.87,0,2.81v71.68h-.13V-.35h94.75Z"/>
        <path class="cls-17" d="M89.87,74.64l-.46.59-.55-.12c-.12,1.17.11,2.62-1.57,1.96.18,1.99-.92.99-2.09.65-.16.48.35.65.39.98l-.13.52c-.62.34-1.29.6-1.91.95-.96.55-2.48,1.87-3.59,1.7l-3.42-1.03-.29-.45.35-.97c-.13-.13-1.05.27-1.26.36-.42.18-.8.79-1.08-.03l.25-1.24-2.12,1.06-.7.62c-.72-.24-.36-.7-.1-1.15.49-.86,1.25-1.9,1.88-2.69,1.3-1.63,2.23-2.59,4.23-3.33,3.49-1.29,6.94-2.04,10.68-1.54.3.03.88.27.97.6.07.24-.1.42-.08.61.01.18.34.67.42.99.09.3.08.65.16.97M88.6,73.85l-.14-1.21c-.51.05-1.24-.11-1.72.02-.27.08-.99.58-1.36.74-1.36.61-2.75,1.14-4.07,1.86-.16.38.16.7.22.98.14.73.37,2.28.28,2.97-.05.34-.29.63-.25.98l3.11-1.71.13-1.36,1.71.34c.02-.37-.13-1.05.26-1.25.3-.15.79.46,1.17.34l.15-2.26.5-.43h.01ZM86.12,72.51c-.53.02-1.1-.04-1.63-.01-.47.03-1.13.25-1.58.26-.25,0-.46-.14-.75-.12-.65.03-2.45.64-3.18.87-.38.12-.99.23-1.21.55.24,0,.47.08.68.16.39.15,1.63.83,1.87.85.78.08,1.39-.48,2.04-.77,1.09-.48,2.32-.93,3.36-1.47.14-.08.35-.14.38-.33M81.43,78.82l-.52-3.25c-.38-.23-.8-.2-1.21-.36-.63-.23-2.02-1.04-2.62-.98-.18.02-1.07.43-1.25.57-.34.23-1.13,1.18-1.44,1.55-.51.62-.95,1.32-1.43,1.96l2.14-.73.33.22-.26,1.23c.14.13,2.5-1.09,2.48-.21,0,.2-.58,1.33-.52,1.37.75.08,3.19,1.15,3.72.53l.59-1.9h-.01Z"/>
        <path class="cls-15" d="M88.45,72.64l.14,1.21-.5.43-.15,2.26c-.38.12-.87-.49-1.17-.34-.39.2-.24.88-.26,1.25l-1.71-.34-.13,1.36-3.11,1.71c-.04-.35.2-.64.25-.98.09-.68-.14-2.24-.28-2.97-.05-.28-.38-.6-.22-.98,1.32-.72,2.71-1.25,4.07-1.86.37-.16,1.09-.66,1.36-.74.48-.13,1.21.03,1.72-.02"/>
        <path class="cls-17" d="M86.12,28.71c.24,1.49,1.46,1.61,2.74,1.31-.23,1.96-3.1,1.2-3.26-.46-.04-.46-.07-.95.52-.85"/>
        <path class="cls-15" d="M87.03,59.4c.02.38.01.77-.02,1.15-.24.74-1.6-.43-2-.45l-1.37.66c-.24-.47,0-.79.01-1.23.04-2.21-.02-4.32-.62-6.44-.11-.36-.37-.65-.3-1.07l3.12-.77c.67,1.8.75,3.75.92,5.67.07.78.22,1.69.26,2.47"/>
        <path class="cls-3" d="M86.25-.22l-.15.75c-1.25.19-1.88.97-1.67,2.24-.33-.08-.52-.26-.88-.35-1.69-.46-2.96.93-2.61,2.6.12.57.66.81.76,1.27-.63.1-.75.79-.63,1.34.15.67.73.8-.23,1.52l-.79-.89c-.43-.33-.99-.49-1.54-.4-.23.04-.45.25-.63.23-.25-.02-.65-.4-.96-.47-.33-.07-.91-.08-1.21.04-.53.21-1.4,1.37-1.45,1.95-.05.71.33.7.38.93.03.18-.23.5-.23.76,0,.2.49,1.12.31,1.11-1.22-.28-2.49-.46-3.32-1.5-.15-.3.64-.17.82-.22.64-.14.53-.65.64-.74.08-.07.89-.06.89-.6-.05-.24-1.05-.32-1.32-.39-1.08-.33-2.24-1.59-2.47-2.67l2.01-.66.2-.43c-.54-.47-1.33-.5-1.94-.93-.78-.54-1.65-1.95-1.58-2.93,2.13.4,1.66-.47.52-1.56,5.69,0,11.39,0,17.08,0"/>
        <path class="cls-4" d="M84.48,72.5c.53-.03,1.1.03,1.63.01-.03.18-.24.25-.38.33-1.04.54-2.27.99-3.36,1.47-.65.29-1.26.85-2.04.77-.24-.02-1.48-.7-1.87-.85-.22-.09-.45-.16-.68-.16.22-.33.83-.43,1.21-.55.73-.23,2.52-.84,3.18-.87.29-.02.5.12.75.12.45-.01,1.11-.23,1.58-.26"/>
        <path class="cls-17" d="M86.77,34.44c-.11.5-.73.94-1.18,1.11-1.03.38-2.83-.21-2.25-1.47.41-.88.7.22.87.37.59.52,1.85.03,2.56,0"/>
        <path class="cls-4" d="M84.92,50.18c.16.05.47.12.41.36-.04.2-2.74,1.02-3.16,1.09-2.32-1.12-4.93-2.3-7.56-1.83l-9.73-3.1c-.03-.2.34-.24.46-.25.47-.05.96,0,1.43,0,4.8-.11,11.46,2.07,16.22,3.33.63.16,1.32.2,1.94.41"/>
        <path class="cls-17" d="M83.51,44.22c.27.41-.88,1.81-1.18,1.64-.74-.73.28-1.88,1.18-1.64"/>
        <polygon class="cls-19" points="82.07 53.21 82.46 56.99 78.69 56.07 81.69 53.41 82.07 53.21"/>
        <path class="cls-15" d="M82.45,57.52l-.12,2.73c-.34-.22-.68-.33-1.1-.26-.83.13-.21,1.85-.59,2.15-1.14.27-2.18.77-3.26,1.16-.51.18-1.08.29-1.6.49-2.13.84-4.95,2.47-7.03,3.01-.52.13-1.01.09-1.54.09l.52-5.67,10.4-4.74,4.32,1.03h0Z"/>
        <path class="cls-17" d="M83.11,31.45c-.34,1.54-3.23,1.73-3.39.01-1.52.17-2.61-.62-2.48-2.22-1.24-.3-1.05-2.05-.49-2.93.46-.7,1.15-.89,1.94-.6l-.13.45c-.84.23-1.26,1.12-1.15,1.95l.1.15c.26.16.91-.08,1.1.35.19.47-.14.62-.19,1.08-.13,1.5,1.74.48,1.97.72-.37,2.2,1.41,1.36,2.73,1.04"/>
        <path class="cls-11" d="M80.91,75.56l.52,3.25-.59,1.9c-.53.62-2.97-.46-3.72-.53-.05-.04.52-1.17.52-1.37.02-.88-2.34.34-2.48.21l.26-1.23-.33-.22-2.14.73c.49-.64.92-1.34,1.43-1.96.3-.37,1.1-1.33,1.44-1.55.18-.13,1.07-.54,1.25-.57.6-.07,1.99.75,2.62.98.4.16.83.13,1.21.36"/>
        <path class="cls-7" d="M59.68,47.59h1.59c.49-.15.88-1.16,1.09-1.26,1.26-.67,2.69-1.02,4.14-1.09-2.75-.14-5.46-.44-8.11-.97.59,1.02.91,2.26,1.29,3.32"/>
        <path class="cls-13" d="M75.91,45.16c-.33-.35-.6-.96-.49-1.07l.45-.11.72.96-.05.19c.39-.02.77-.05,1.15-.08,0,0-.01-.02-.02-.02-.25-.48-.25-1.23.04-1.32.59-.22.92.71.85,1.28.4-.03.8-.06,1.19-.1.11-.59.74-1.37,1.05-1.37.04,0,.08.02.1.04.08.2-.05.77-.25,1.25.56-.05,1.11-.1,1.67-.15.28-.34.74-.56,1.18-.44.05.08.04.19,0,.32,1.47-.15,2.92-.3,4.34-.46-5.65-1.03-11.06-1.56-16.46-1.73v.04c-.2.05-.23,0-.25-.05-.6-.02-1.21-.03-1.82-.04-.03.03-.05.07-.09.09-.05-.02-.08-.06-.12-.09-.64,0-1.28,0-1.91,0-.05.35-.33.56-.73.2-.07-.06-.13-.13-.18-.21-3.13.03-6.28.18-9.49.41.7.36,1.2.92,1.58,1.58,2.64.53,5.36.83,8.11.97.52-.02,1.04-.02,1.55.03.09,0,.17.02.26.03,2.53.06,5.07,0,7.61-.15"/>
        <path class="cls-7" d="M88.6,39.14c-.08.05.4.92-.25,1.11l-3.46-.2c-.2.05-.17.42-.34.58-.42.43-2.81.64-3.46.6-.97-.07-1.96-.63-2.91-.86-.87-.21-2.2.07-2.1-1.23l-2.52.78c-.6-.2-1.07-.6-1.64-.85-.87-.37-2.04-.76-2.97-1.08-1.84-.65-4.8-.6-6.68-.1-.49.13-2.26.87-2.54.86-.15-.02-.25-.08-.32-.23-.16-.16.58-1.24.07-1.09l-3.03,1.54-.5-.11-.05-1.04c-.36.28-1.84.77-2.03,1.03-.2.29.52,2.57.34,3.13.79.1,1.64.25,2.38.55.09.04.16.09.24.14,3.21-.23,6.36-.38,9.49-.41-.39-.57-.3-1.44.47-.93.37.24.48.64.44.94.64,0,1.28,0,1.91,0-.53-.34-.61-1.02-.84-1.56l.3-.53c.51-.04,1.3,1.59.74,2.1.6,0,1.21.02,1.82.04-.01-.03-.02-.07-.05-.11-.26-.35-.48-.72-.34-1.18.24-.76,1.03-.04.87.73-.04.18-.22.36-.23.57,5.4.17,10.81.7,16.46,1.73-1.43.16-2.88.32-4.34.46-.15.56-.94,1.45-1.18,1.32-.38-.37-.29-.85,0-1.2-.55.05-1.11.1-1.67.15-.17.41-.39.74-.59.7-.24-.08-.33-.25-.33-.47,0-.05.01-.1.02-.16-.4.03-.79.07-1.19.1v.05c-.03.17-.1.32-.22.35-.29.12-.52-.07-.66-.34-.38.03-.77.05-1.15.08l-.07.27s-.08.02-.12.02c-.15,0-.3-.11-.44-.26-2.53.14-5.08.21-7.61.15,2.62.27,5.16.85,7.68,1.49,1.52.39,3.03.79,4.55,1.17,4.07.32,7.96,1.32,11.83,2.75v-11.59c-1.27.12-2.52-.28-3.77,0"/>
        <path class="cls-17" d="M80.91,43.57c.14.37-.41,2.05-.84,1.95-.24-.08-.33-.25-.33-.47,0-.6.74-1.52,1.07-1.52.04,0,.08.02.1.04"/>
        <path class="cls-4" d="M81.82,52.56c-.47,0-.85.31-1.22.54-1.32.87-2.53,2.33-3.91,3.13-.95.55-2.5,1.02-3.58,1.51-1.83.85-3.65,1.72-5.45,2.63-.1,0-.58-1.41-.73-1.61-.04-.05-.55-.59-.6-.61-.6-.39-2.34-.68-3.13-1-.16-.07-.32-.08-.42-.24,2.24-1.4,4.65-2.54,7.08-3.6,2.02-.89,3.96-1.82,6.13-2.08.48-.05,1-.17,1.2-.65,1.51.63,3.43.81,4.62,1.97"/>
        <path class="cls-17" d="M79.53,20.88l.08.34c-1.21.7-2.49-.4-1.97-1.71.16-.4.71-.95,1.18-.84.11.6-.54,1.02-.37,1.61.11.35.75.5,1.08.6"/>
        <path class="cls-17" d="M77.72,43.71c.61-.23.93.76.85,1.33-.03.17-.1.32-.22.35-.3.12-.53-.08-.67-.36-.25-.48-.25-1.23.04-1.32"/>
        <path class="cls-14" d="M75.72,13.63l1.66.68c-.32.43-.63-.01-.98-.07-.88-.13-2.19.36-2.86.91-.22.17-.45.6-.48.62-.12.08-.57.01-.8.05-.62.13-1.36.99-1.56,1.58-.17.52-.25.83-.46,1.36-.4,1.01.23,1.79,1.27,1.86-.1.37-.14.67-.14.92l-.36.03c0-.46-.96-.78-1.32-1.03-.21-.15-.42-.49-.62-.55-.82-.25-1.03.55-1.61.89-.17-.78.42-1.5.12-2.2-.73-.16-.91.28-1.1.89-.03.1-.05.21-.08.3l-1.98-.09c.03-.16,0-.29-.16-.34h-.24l-1.18.64c-.74-1.38-1.97.72-2.94.91,0-.59.33-1.07-.26-1.5l-.52-.2c.82-.32,1.52-.98,2.09-1.62.75-.85,2.18-2.52.64-3.27.14-.54.46-.96.15-1.53l-.37-.2c-.41-.04-.82.28-1.21-.09,1.96-1.14,4.71-3.32,4.44-5.87-.14-1.3-1.1-.65-1.96-.77.97-1,2.66-2.47,2.86-3.92.07-.54-.13-1.2-.09-1.54.02-.21.3-.45.23-.73h2.08l.52.77c-1.49.32-.75,1.88-.23,2.78.42.76,1.08,1.62,1.92,1.91.03.21-.17.14-.32.12-.42-.07-1.29-.34-1.36.36-.04.53,1.08,2.2,1.48,2.65.54.62,1.3,1.33,2.15,1.44.03.22-.33.14-.46.12-1.11-.12-2.37-.43-1.42,1.16,1.11,1.89,3.44,2.26,5.43,2.52M70.74,13.11v-.55c-.4-.14-.82-.15-1.21-.29-.51-.2-.96-.84-1.5-.47l-.29.88-.49-.16c-.83-2.68-1.28-1.24-2.58.03l.09.64c.64.26,1.13-.76,1.48-.77.33,1.03,2.01,1.87,2.28.39.74.2,1.49.88,2.22.3"/>
        <path class="cls-17" d="M75.87,43.98l.72.96-.12.46s-.08.02-.12.02c-.49,0-1.08-1.16-.92-1.33l.45-.11h0Z"/>
        <path class="cls-16" d="M72.8,29.25c.2.84,1.03,1.19,1.84,1.15-.37.59-.41,1.18-.4,1.87-.62.49-1.31,1.1-1.49,1.9-.13.58-.23.9-.38,1.44-.26.9-.38,1.82.33,2.54.01.1-.12.08-.2.07-1.09-.18-2.6-1.1-3.69-1.4-2.07-.58-3.88-.35-5.93.13-.81.2-1.6.49-2.38.75l.47-1.63c0-.55-.45-.64-.92-.59l.38-1.47-.5-.43-.66-.04c.15,0,.29-.1.4-.2.5-.46,2.14-2.19,1.94-2.85-.12-.23-.46-.38-.7-.36-.27.03-.73.54-1.11.47.31-.5.88-1.89.03-2.13-.5-.15-1.64,1.04-2.38.89l1.14-1.78c.23-1.78-1.6-.42-2.58-.7l2.38-1.2c1.71-1.02,2.95-2.7,3.36-4.66.96.1,1.57.29,2.27-.53.11-.12.35-.45.41-.7l1.98.09c-.46,2.03.74,3.18,2.32,1.27.65.38,1.4,1.09,2.21.65.05-.08.08-.15.08-.23l.36-.03c0,1.29,1.16,1.22,2.65,1.18.4.11.45.7.29,1.02-.75.54-1.74,1.05-2.1,1.95-.05.16-.02.41-.08.5-.09.12-1.14.42-1.02,1.07-.22.24-.95-1-1.17-1.11-.98-.43-1,.61-1.44,1.18-.11.16-1.21,1.23-1.3,1.11-.14-.38-.21-1.69-.6-1.82-.52-.15-1.71.96-2.39.77.23-.54.86-.98.78-1.63l-.34-.07-2.28,2.01c-.41.63.1,1.01.72.98.88-.03,2.18-.72,3.07-.9-.03.35.12,1.47.39,1.63.53.33,1.83-.65,2.23-1.03.24-.24.42-.84.83-.72.12.03.29.41.48.57.45.4.89.33,1.28.54.16.09.26.3.4.38.3.15.7.01,1.02.09"/>
        <path class="cls-19" d="M73.87,50.08l-.31.29-6.29,2.59c-.27,0-1.13-.28-1.41-.42-.75-.37-1.64-2.01-2.37-2.07-.66-.05-.91,1.08-1.18,1.16-.74.23-2.1-1.59-2.85-.64l-.21.9-2.33-.12,2.01-2.61c.54-.4,1.22-.2,1.82-.26.91-.12,1.53-1.14,2.29-1.62.71-.43,1.95.04,2.74.26,2.69.72,5.33,1.94,8.08,2.53"/>
        <path class="cls-17" d="M72.96,88.28c.08.7-.7.86-1.04,1.36l-.09.05c-.15.09-.41-.06-.43-.18-.1-.46,1.36-1.44,1.57-1.23"/>
        <path class="cls-17" d="M70.76,41.05c.24-.76,1.03-.04.87.73-.04.2-.25.38-.24.61-.3.08-.22-.05-.29-.16-.26-.35-.48-.72-.34-1.18"/>
        <path class="cls-17" d="M71.02,21.59c0,.08-.02.15-.08.23-.8.43-1.55-.27-2.21-.65-1.58,1.9-2.77.76-2.32-1.27.02-.1.04-.21.08-.3.18-.61.37-1.05,1.1-.89.3.7-.29,1.41-.12,2.2.58-.34.79-1.14,1.61-.89.2.07.41.4.62.55.36.25,1.32.58,1.32,1.03"/>
        <path class="cls-17" d="M70.73,12.56v.56c-.72.58-1.47-.11-2.21-.31-.27,1.48-1.96.64-2.28-.39-.35.01-.84,1.03-1.48.77l-.09-.64c1.29-1.27,1.75-2.71,2.58-.03l.49.16.29-.88c.54-.37.99.27,1.5.47.39.14.8.15,1.2.29"/>
        <path class="cls-17" d="M70.47,85.55c.23.34-.61,1.12-.83,1.43-.34.5-.54,1.28-1.25,1.42-.02-.34-.15-.62-.13-.97.04-.75.97-2.06,1.75-2.02.08,0,.45.12.46.14"/>
        <path class="cls-17" d="M68.58,40.21c.53-.04,1.41,1.8.65,2.19-.65-.29-.71-1.07-.96-1.65l.31-.53h0Z"/>
        <path class="cls-17" d="M66.89,84.62c.23.16.23.33.2.58-.04.41-.34,1.16-.46,1.63-.11.43-.09.87-.33,1.3-.14.02-.27.03-.39-.05-.7-.47.04-3.21.98-3.46"/>
        <path class="cls-19" d="M65.96,59.1l1.1,1.89-.82,5.92-2.28.64c.05-2.77-.64-5.59-1.72-8.12-.22-.53-.87-1.11-.29-1.64l4.01,1.32h0Z"/>
        <path class="cls-17" d="M66.77,41.35c.79.52.46,1.82-.29,1.14-.59-.52-.58-1.72.29-1.14"/>
        <path class="cls-7" d="M26.18,59.58l.84.18c.03-.17.07-.32.11-.46h-.17c-.24.12-.5.21-.77.28"/>
        <path class="cls-7" d="M52.62,50.6s-.08,0-.16.05c.06,0,.12,0,.17-.02v-.04h0Z"/>
        <path class="cls-7" d="M65.71,53.61c-.21-.15-.48-.25-.72-.46-.55-.49-.96-1.12-1.49-1.63l-.93,1.29-2.33-1.16c-.33.23-.22.78-.39,1.04-.28.45-1.48.02-1.95,0-.77-.04-1.55.05-2.33-.02-.57-.27-.34-.91-.22-1.41l-2.27.66-.46-1.28c-.06,0-.12,0-.17.02-.27.17-.8.62-.88.66-.34.15-1.05,0-1.73-.15-3.01.79-5.85,2.2-8.7,3.62.66.32,1.31.66,2.02.9l2.77-1.67c.38-.05.76.23.63.63-.04.14-.35.38-.14.52.37-.2,2.23-1.37,2.48-1.3.38.11-.08,1.09.07,1.44.1.11,1.66-.45,2.01-.4.35.04.48.43.2.6-.36.21-2.12.42-2.52.3l-.4-1.02c-.49.21-1.6,1.12-2.05,1.02-.22-.05-.46-.37-.62-.32-.37.25-.75.47-1.13.7-.13.08-.23-.02-.17.28.57.12,1.04.53,1.57.72,1.53.56,2.88.54,4.11,1.89.53.58.85,2.23,1.69,1.17.39-.5.8-1.48,1.19-2.08.62-.95.85-1.39,1.92-1.86,2.19-.95,3.82-.88,5.86.3.24.14.34.42.61.37.34-1.02,1.5-1.58,2.39-2.1.6-.37,1.51-.72,2.03-1.09.12-.09.19-.1.07-.2"/>
        <path class="cls-13" d="M48.63,50.88c-.84-.13-1.73-.16-2.57-.28-1-.15-2.35-.58-3.31-.61-.22,0-.42.3-.76.36-.29.04-.61-.03-.9,0-1.91.23-3.83.58-5.74.79-.74,0-.84-.8-1.16-.79-.43,0-.68.92-1.08,1.03-.45.12-1.04-.4-1.25-.36l-1.39,1.09-6.78,1.37v5.41s-.16.1-.13.2c.07.05,1.37-.26,1.63-.26.52,0,.82.35.72.71l.27.06c.27-.07.53-.15.77-.28h.17c.02-.06.03-.14.05-.2.13-.51.66-1.05,1.08-1.39.84-.68,1.68-1,2.53-1.76.5-.43,4.4-1.65,5.29-1.88,1.17-.32,1.67-.41,2.87-.13.8.18,1.51.51,2.21.86,2.85-1.43,5.68-2.83,8.7-3.62-.47-.11-.92-.24-1.22-.29"/>
        <path class="cls-3" d="M45.19-.22h19.55c-.01.45-.6.58-.66.98-.11.76.65.66.66.78,0,.37-.13.7-.28,1.01-.39.77-2.14,2.35-2.85,3.02-.45.43-.99.48-.76,1.35.96.33,1.99.1,2.98.02-.09,1.64-1.68,2.9-2.96,3.75-.48.33-2.37,1.25-2.5,1.68.03,1.3,1.89,1.14,2.85,1.22l-.5,1.21.24.42.65.07c.35.3-1.41,2.03-1.7,2.27-.1.1-.15.24-.33.2-.16-1.44-1.45-2.62-2.93-2.21-.26-.93-1.24-2.21-2.28-2.23-.27,0-.56.17-.76.12-.15-.03-.58-.51-.92-.64-1.29-.47-2.02.2-2.74,1.15-.84-.39-2.28-.9-1.97-2.05.54-.62,1.73-.04,1.77-.97-.11-.5-.65-.59-.98-.86-.55-.45-.97-1.1-1.24-1.75.09-.15.18-.15.33-.2.57-.15,1.19-.23,1.72-.5.13-.07.34-.15.29-.35-.08-.36-1.54-.77-1.9-.96-1.26-.64-2.12-1.73-2.65-3.02.77-.11,2.05,1.01,2.23-.18-.04-.41-.85-.66-1.17-.93-.66-.55-1.05-1.54-1.18-2.39"/>
        <path class="cls-17" d="M62.98,86.06c.88.63,1.86,1.86,1.36,2.98-.6.4-1.05-1.13-1.27-1.51-.17-.29-1.15-1.64-.93-1.86.35-.04.6.22.85.39"/>
        <path class="cls-15" d="M62.79,64.22c.15,1.77-.13,3.59-.15,5.32l-1.61,1.78-.2-.05c-.28-.5-1.23-1.36-1.83-1.05-.35.18-.1.7-.51.6.02-.76-.04-1.53,0-2.29.11-2.57.67-5.26.79-7.81.03-.9-.29-2.28-.02-3.01.04-.11-.05-.25.21-.17.14.04.65.4.79.51.11.1.14.26.23.35.2.2.37.21.59.52.65.96,1.62,4.17,1.72,5.32"/>
        <path class="cls-17" d="M61.86,88.47c.05.41-.08.72-.12,1.1-.85,0-.97-.98-1.29-1.5-.33-.5-1.39-1.4-.79-1.82.92-.47,2.12,1.44,2.21,2.22"/>
        <path class="cls-9" d="M59.47,23.5c.43-.48.83-1.12,1.23-1.63l-1.1.05-.32-.15c-.45,1.1-1.01,2.15-1.67,3.12.73-.42,1.41-.9,1.86-1.39"/>
        <path class="cls-9" d="M59.26,34.57c-1.21.54-2.57,1.06-3.77.2-.04-.17.15-.28.27-.38,1.05-.89,2.75-1.17,3.76-2.22l-.65-.13-.33-.46.2-1.3c-.84.04-1.59.52-2.35-.09l-.24-.74,1.03-1.65h-2.02s-.05,0-.08-.02c-1.51,1.37-3.28,2.49-5.29,3.25-3.09.62-7.94-.17-10.95-2.37-.02.52.11,1.08.23,1.62-.94-.03-1.1-1.16-.84-2.11-.52-.45-.96-.96-1.3-1.51-.25.06-.47.13-.64.26-.6.45-.68,1.45-.61,2.13.04.45.53,1.05.14,1.44-.18.17-.78.12-.65.39.21.43,1.25.37,1.16.77-.04.18-.99.67-.78.85,1.09.02,2.88-.66,3.86-.26.22.09.33.27.45.33.63.29,3.36-.39,4.36-.32,1.64.11,3.46,1.33,4.81,2.23.95.65,2.75,1.85,3.54,2.59.34.32.52.77.93,1.02l2.74-1.38c.82.04.39.76.5,1.27.56-.25,1.13-.7,1.66-.93.5-.24,1.06-.3,1.52-.57-1.29-.29-.76-.95-.65-1.89"/>
        <path class="cls-6" d="M38.22,28.16c.2-.72.63-1.33,1.17-1.29l.33.34c-.65.36-.86.87-.88,1.45,3.01,2.2,7.86,2.99,10.95,2.37,2.01-.76,3.78-1.87,5.29-3.24-.27-.07-.96-.37-1.09-.5-1-.91.74-1.07,1.33-1.28.68-.27,1.51-.66,2.29-1.11.66-.97,1.22-2.02,1.67-3.12l-.21-.1c-.37-.33-.14-.77-.07-1.18-.74.18-3.39.43-2.97-.96.17-.57,2.47-.75,2.97-1.33-.39-.26-.4-.7-.62-1.07-.42-.73-1.21-.99-1.8-.32-.65.2-.77-.72-1.02-1.16-.26-.45-.7-1.22-1.29-1.16-.86.55-1.12-.05-1.82-.41-.39-.22-.45-.31-.86-.03-.62.42-.38.63-.6,1.1-.05.11-.25.18-.29.35-.16.51.16,1.1-.48,1.61-.58.48-1.7-.64-2.48-.66-1.12-.03-1.27.96-2.19.76-.17-.03-1.68-.76-1.86-.88-.41-.28-.61-.9-.97-1.25-.67-.65-1.53-.83-2.28-.18-.21.16-.27.41-.42.52-.23.17-.64.25-.94.27-.08.54-.24.89.07,1.41.36.61,1.33.72,1.49,1.44h.26c.5-1.48,2.73-1.19,2.73.39-.6.03-.79-.58-1.47-.37-.46.14-1.05,1.25-1,1.73.02.29.33.52.26.86-1.05.1-1.01-.38-1.29-1.12-.07-.17.05-.23-.27-.18-.35.97-.69,1.6-.36,2.64.14.46.57.86.29,1.4-.3.61-1.82-.38-1.9.84.04.4.82.54.47,1.24-.23.47-.88.54-1.43.68.34.56.79,1.06,1.3,1.51M43.49,21.8c.06.25-.09.25-.22.37-.64.58-1.27,1-1.08,2.03.04.25.34.41.26.72l-.52.08-.46-.47c-.48-.95.73-3.38,2.01-2.73"/>
        <path class="cls-4" d="M58.62,57.12l-.2,5.1c-2.44.57-4.84,1.5-7.37,1.55-.11-.12.4-1.29.54-1.49.11-.15.3-.18.38-.3.83-1.27,1.48-2.72,2.4-3.95,1.25-.76,2.76-1.29,4.24-.91"/>
        <path class="cls-15" d="M55.36,50.47l.57.02c-.24-.69-.58-1.34-.98-1.95.18.63.34,1.27.41,1.93"/>
        <path class="cls-11" d="M50.32,43.69c-1.49.18-2.28-.08-3.54-.29,1.25,2.33,2.53,4.65,3.92,6.9.27.03.49.03.61-.02.21-.1.52-.48.83-.61.67-.31,1.53-.38,1.39.61-.02.14-.52.99-.07.85.37-.11.87-.54,1.37-.52-.06-.16-.19-.26-.27-.45-.29-.77-.83-2.47-1.06-3.46-.9-1.02-1.9-2.01-2.82-3.07-.14.03-.26.05-.37.06"/>
        <path class="cls-11" d="M55.78,43.6c-.47-.16-1.87-.51-2.33-.54-.5-.04-1.89.39-2.76.57.49.57,1.01,1.12,1.52,1.67,1.32-.52,2.64-1.03,3.96-1.52-.12-.06-.25-.12-.39-.17"/>
        <path class="cls-15" d="M56.18,43.77c-1.32.49-2.64,1-3.97,1.52.44.47.88.93,1.3,1.41-.03-.13-.06-.25-.07-.35-.1-.57-.09-1.21.59-.78.27,1,.64,1.98.93,2.98.41.61.74,1.26.98,1.95h.13l.21.37c.51-.41,1.4-1.02,1.75-1.57.07-.11.46-1.03.47-1.11.02-.24-.61-2.01-.76-2.36-.39-.92-.72-1.64-1.55-2.06"/>
        <path class="cls-15" d="M46.29,43.32c-.98-.13-2-.13-2.97-.28-.74-.12-1.44-.37-2.16-.51.23,2.2.41,4.45.13,6.64.48.08.75-.28,1.23-.26.32,0,.64.18.95.23,1.64.27,3.28.46,4.92.71.46.06,1.59.37,2.33.45-1.39-2.26-2.67-4.57-3.92-6.9-.16-.03-.32-.05-.5-.08"/>
        <path class="cls-19" d="M58.35,62.99c-.41,2.4-.59,4.84-.51,7.3-.08.08-1.28-.32-1.53-.36-.43-.08-1.22-.22-1.6-.11-.25.08-1.31.87-1.44.73.04-.71-.25-1.49-.98-1.7l-2.27.65.52-4.96c2.68.05,5.21-1.16,7.81-1.56"/>
        <path class="cls-17" d="M52.49,88.14c.08.09,1.79-1.28,1.64.14-.64.5-1.39.7-2.03,1.23-.78.65-1.11,1.54-1.83,2.23-.35.16-.78-.36-.77-.73l-2.17,1.55c-.52.16-1-.11-1.09-.63-.58.12-.97.89-1.63.93-.45,0-1.69-.54-2.36-.65-.59-.09-1.47-.28-1.94.12l-.28-.39c-1.76-.24-3.57-.29-5.33-.52-.83-.11-2.83-1.52-3.46-2.14-.19-.18-.35-.39-.38-.66,1.14-1.73,2.46-3.36,3.78-4.95.9-1.09,1.98-2.1,2.74-3.15.11-.15.1-.37.32-.57.74-.7,2.11-.54,3-.64,1.16-.13,2.32-.39,3.5-.25,2.36.26,4.96,2.2,6.6,3.83.97.95,1.34,3.94,1.69,5.28M51.97,88.46c.04-.11-.15-.02-.22-.1l-1.48-4.79c-.51.39-4.03,1.61-4.15,2.04.45,1.98.76,4.01.9,6.04.56-.35,2.34-2,2.92-1.82.22.07.18.42.28.38l1.75-1.76h0ZM49.63,83.32c.15-.12-.72-.92-.85-1.04-2.63-2.14-5.38-2.21-8.6-1.83-.81.1-1.51.29-2.28.52-.11.09.56.88.65.99.82.9,1.99,1.34,2.69,2.38l4.67.54,3.73-1.57h-.01ZM46.35,90.74l-.65-5.32c-1.38-.15-2.77-.33-4.15-.48-.14-.01-.22-.11-.34.07l-.44,5.99c1.25.22,2.49.29,3.69.79,0,0,1.89-1.05,1.89-1.05ZM40.11,90.88c-.17-2.02.49-4.2.26-6.2-.02-.23-.14-.5-.3-.66-.33-.34-1-.67-1.39-1.02-.28-.24-.59-.57-.85-.84-.17-.18-.25-.54-.52-.53l-.2.07-5.09,6.79c0,.34,1.7,1.44,2.06,1.72l6.04.68h-.01Z"/>
        <path class="cls-15" d="M52.96,41.88c.11-.58-.24-2.97-.73-3.21l-3.38.47.59,2.86c.09.14.18.28.28.41.74,0,3.11-.34,3.24-.53"/>
        <path class="cls-15" d="M49.43,42l.08.38s.1.03.2.03c-.1-.13-.19-.27-.28-.41"/>
        <path class="cls-15" d="M51.75,88.36c.06.08.26-.01.22.1l-1.75,1.76c-.1.04-.07-.32-.28-.38-.58-.18-2.36,1.47-2.91,1.82-.14-2.02-.46-4.06-.9-6.04.12-.43,3.64-1.65,4.16-2.04l1.48,4.78h-.02Z"/>
        <path class="cls-4" d="M51.49,37.73c.13.12.28.12.22.37l-3.05.5c-.37-.45-.84-.83-1.34-1.13-1.05-.63-5.69-2.56-6.07-3.32-.09-.15-.12-.31-.1-.49,1.59,0,2.71-.51,4.3.08,1.36.5,4.93,2.98,6.04,3.99"/>
        <path class="cls-19" d="M49.03,59.99l.99,1.96-4.24,1.3c-.83-.49-1.52-1.16-1.89-2.09l4.36-1.7.78.52h0Z"/>
        <path class="cls-15" d="M45.73,63.92l4.28-1.32c-.1.67-.72,1.57-.5,2.25.18.59.28.05.23,1.07-.05,1.29-.18,2.59-.45,3.85l-.58.12c-.51-1.76-1.52.08-2.62.01l-.39-3.59.02-2.39h.01Z"/>
        <path class="cls-4" d="M48.78,82.27c.13.12,1,.92.85,1.04l-3.73,1.57-4.67-.54c-.7-1.04-1.87-1.48-2.69-2.38-.1-.11-.76-.9-.65-.99.77-.23,1.47-.42,2.28-.52,3.22-.38,5.97-.32,8.6,1.83"/>
        <path class="cls-16" d="M49.37,14.96v.85c-.64-.2-1.19-.58-1.89-.53-.64.04-1.24.51-1.81.77-.23-.32-1.04-.48-1.23-.66-.09-.09-.26-.66-.45-.92-.54-.79-1.5-1.29-2.44-1.4.2-1.28-.95-2.87-2.29-2.87-.55,0-.9.34-1.41.39l-.47-.88c.6-.26,1.21-1.28,1.28-1.91.04-.37-.07-.83.03-1.14.07-.2.46-.46.61-.7.7-1.07.27-1.59.27-2.59,0-.28.13-.52.14-.78.07-1.15-.26-1.96-1.04-2.8h5.6l.91,2.34c-.4-.03-.97.15-1.04.6.18,1.71,1.38,3.19,2.74,4.16l-.66.28c-.48.79.47,2.15.95,2.82.13.18.77.75.63.87-.77.25-.97.88-.92,1.64.1,1.27,1.45,1.98,2.49,2.47"/>
        <path class="cls-15" d="M48.03,38.97c-.02-.09-.07-.17-.12-.25.07.26.14.51.23.76-.03-.18-.07-.36-.11-.51"/>
        <path class="cls-11" d="M48.14,39.48c-.09-.25-.16-.5-.23-.76-.27-.4-.91-.72-1.29-.93-1.16-.66-2.47-1.21-3.65-1.83-.1-.05-.21-.1-.31-.15,1.21,2.1,2.34,4.23,3.48,6.36l2.32.22c0-.27,0-.55,0-.83-.05-.56-.18-1.41-.31-2.09"/>
        <path class="cls-15" d="M46.13,42.17c-1.14-2.13-2.27-4.27-3.48-6.36-.38-.17-.76-.33-1.1-.59.17,2.17.17,4.35,0,6.52,0,0,4.58.43,4.58.43Z"/>
        <path class="cls-4" d="M47.67,59.21l-4.23,1.7c-1.38-.69-2.74-1.49-4.15-2.11-2.02-.89-4.36-1.73-6.47-2.39-.13-.03-.3-.02-.26-.18,1.36-.12,2.83-.97,4.13-1.14,3.11-.43,5.85,2.15,8.55,3.24.71.29,1.47.37,2.12.63.13.04.29.09.32.26"/>
        <path class="cls-11" d="M45.7,85.42l.65,5.32-1.89,1.05c-1.2-.5-2.44-.58-3.69-.79l.43-5.99c.12-.17.2-.08.34-.07,1.38.15,2.77.33,4.16.48"/>
        <path class="cls-19" d="M45.19,67.87l.38,2.34-.59.46c-.18.05-.21-.1-.28-.22-.48-.76-.84-1.7-1.92-1.74-.4.05-.48.58-.46.92l-3-.52c0-.65.49-1.47-.37-1.72.1-2.09,1.88-3.27,3.18-4.67.25-.27.4-.78.84-.78.26,1.15,1.27,1.79,2.07,2.57,0,0,.15,3.36.15,3.36Z"/>
        <path class="cls-17" d="M43.49,21.8c.06.25-.09.25-.22.37-.64.58-1.27,1-1.08,2.03.04.25.34.41.26.72l-.52.08-.46-.47c-.48-.95.73-3.38,2.01-2.73"/>
        <path class="cls-11" d="M42.4,61.41c.14.2-.27.64-.39.79-1.21,1.47-2.61,1.98-3.39,3.9-.16.41-.33.87-.33,1.3-.2.05-.22-.04-.33-.13-1.45-1.12-4.28-.92-6.09-1.59-1.4-.52-2.56-1.86-3.99-2.34-.07-.09-.02-.29,0-.42.09-.84.58-3.68.97-4.24.24-.36,1.7-1.63,2.08-1.7.7-.12,2.22.35,2.93.59,1.47.49,3.36,1.24,4.79,1.86,1.27.56,2.56,1.3,3.76,1.97"/>
        <path class="cls-15" d="M40.5,37.12c-.02-.54-.11-1.11-.13-1.7,0-.21.05-.23-.17-.17-3.89.8-7.43,2.96-11.16,4.22-.41.26-1.36,2.17-1.6,2.71-.16.39-.68,1.53-.75,1.85-.12.53.08,1.38,0,1.96.26.33.79.21,1.17.13,1.52-.29,3.41-1.33,4.92-1.86,1.01-.37,2.08-.57,3.1-.95,1.65-.6,3.16-1.55,4.76-2.29-.28-1.27-.08-2.6-.14-3.89"/>
        <path class="cls-4" d="M40.37,84.68c.23,2-.44,4.18-.26,6.2l-6.04-.68c-.36-.28-2.06-1.38-2.06-1.72l5.09-6.79.2-.07c.27-.01.35.35.52.53.26.27.57.6.85.84.39.35,1.07.68,1.39,1.02.16.16.28.43.31.66"/>
        <path class="cls-4" d="M38.87,33.27c.33-.05,1.6,1.09,1.37,1.31-4.1.87-7.77,2.97-11.67,4.39l-2.27-2.76c3.83-2.07,8.38-2.09,12.57-2.94"/>
        <path class="cls-15" d="M39.98,42.78l-8.32,2.63c-.09.68-.48,1.47-.54,2.12-.1.87.2,1.69.13,2.54l.68-.24.88.63c-.02-.32,1.03-1.15,1.24-1.17l.63.15.36.62,5.08-.7c.13-.08.11-.25.12-.39.11-1.29-.05-2.63-.13-3.91-.05-.76-.02-1.52-.13-2.28"/>
        <path class="cls-6" d="M26.95,7.1c4.5,0,8.23-2.67,10.99-6.42-.02-.02-.03-.05-.05-.07-.25-.26-.74-.32-.65-.84-6.99,0-13.99,0-20.98,0,.07.28-.16.27-.32.39-.8.61-1.44.97-.49,1.91.21.66-.64.94-.83,1.6-.14.47.08.74.03.96-.03.17-.33.3-.22.66.08.27.53.17.77.27.89.33,1.15,1.14,1.32,2.01,1.21-.21,1.74,1,1.69,2.03-.03.85,0,.68.12,1.44.2,1.24-.76,1.82-1.16,2.79.48.13.95.66,1.04,1.16,1.03-.3,1.55.37,2.29.9.32.22.63.17.86.58.58,1-.03,2.35-.53,3.27.72.59.53,1.3.66,2.07.04.25.18.52.27.79,2.64-.52,5.13-1.9,7.35-3.56,3.26-3.26,1.09-8.7-2.17-11.96"/>
        <path class="cls-9" d="M37.63,11.58c-.6-.14-.65-.65-1.04-.91-.27-.18-.81-.22-.89-.55-.2-.72.49-.74.89-1.02.52-.38.91-.89.92-1.55,0-.39-.22-.84-.12-1.15.14-.46,1.04-.71,1.14-1.6.08-.64-.27-.98-.26-1.42,0-.3.23-.41.27-.65.12-.65-.17-1.51-.61-2.02-2.76,3.75-6.49,6.42-10.99,6.42,3.26,3.26,5.44,8.7,2.18,11.96-2.22,1.66-4.71,3.04-7.35,3.56.03.1.06.2.07.3.15,1.11-.16,1.99-.62,2.97.53.88,1.17.24,1.74.23.42-.01.67.5.85.84l-.26,1.88c1.12.33,2.07-1.57,2.82-.27.37.12,1.05-.62,1.29-.9.28-.33.54-1.1,1.03-1.04l.27.13.51.78c.57-.36,1.08-.8,1.28-1.46.14-.46.05-1,.57-1.26.52-.15.64.47,1.02.76.5.4,1.59.76,2.22.79.93.04,1.49-.83,2.4-.92,0-.32-.27-.5-.27-.84,0-.78,1.07-1.7,1.84-1.63-.5-1.58-.24-3,.66-4.36-1.32-.67-1.73-1.94-1.25-3.33.49-1.39,1.05-.86,1.96-1.57.76-.6.83-1.38.12-2.08-.89-.89-1.7.11-2.4-.07"/>
        <path class="cls-17" d="M39.39,26.87l.33.34c-1.23.67-.9,1.92-.65,3.07-1.64-.04-.92-3.5.33-3.4"/>
        <path class="cls-16" d="M34.77,32.05c.02.22,0,.45-.19.59-.23.17-3.26.54-3.88.67-.97.21-1.88.55-2.85.74.03-.79-.03-1.61,0-2.41.01-.28.12-.52.13-.77.03-.59-.26-2.36.47-2.41,1.51.52,2.91-.68,3.32-2.08.37-.11.49.22.74.36.65.38,1.35.62,2.13.54.03.43-.14.8-.14,1.24,0,.37.17.76.14,1.03-.03.29-.36.42-.5.68-.36.73-.03,1.46.63,1.82"/>
        <path class="cls-17" d="M31.12,78.57c.43.19.87.57.43.99-.38.2-.63-.21-1.02-.27-1.2-.17-3.35.6-2.15-1.44-.73-.21-2.15.98-2.74.59-.51-.34.34-1.46.4-1.89-.13-.12-1.26.71-1.44.86-.33.28-.43.85-1.01.62-.39-.16-.39-1.69-.56-2.13-.6.23-1.48,1.91-2.02,1.83l-.12-.25-.51.11-1.64-1.88c.11-.09.21-.28.34-.3.4-.1,1.53,1.27,1.61,1.72l.26.09c.51-1.47,3.11-3.75,3-.65.77-.24,1.35-.88,2.12-1.2,1.88-.76,1.37.87.62,1.85.68-.13,1.43-.2,2.14-.13.4.03.83.09.83.57l-.5.74c.64,0,1.35-.07,1.96.2"/>
        <path class="cls-15" d="M30.14,47.61c0,1.18.41,2.47.06,3.58l-6.51,1.37c.01-.23.01-.45-.05-.66-.21-.61-2.25-1.62-2.89-1.92-.9-.42-2.05-.66-2.78-1.32,2.03-.95,4.8-2.25,7.09-1.95.49.05,1.04.41,1.58.39.58-.03,1.55-.63,2.21-.67l1.31,1.18h-.02Z"/>
        <path class="cls-2" d="M27.87,39.47c.03.32-.39.71-.56,1.01-.55,1.08-1.05,2.19-1.4,3.35-.95-.6-1.6-1.48-2.36-2.27-.29-.3-.9-.5-.91-1.04-.01-1.36,2.04-3.24,3.08-3.98l2.15,2.94h0Z"/>
        <polygon class="cls-18" points="26.94 29.49 26.94 34.38 25.91 34.83 25.91 29.62 26.94 29.49"/>
        <path class="cls-11" d="M25.74,44.37l.03,1.41c-.15.02-.26-.02-.4-.06-.5-.15-1.87-.79-2.27-1.11-.67-.52-.35-.72-.47-1.36-.11-.63-.4-1.17-.25-1.9.23-.05.26.09.39.2.52.45,1.07,1.19,1.58,1.69.38.38.96.84,1.39,1.14"/>
        <path class="cls-17" d="M25.26,67.16c.16.89-.92.78-1.57.98-.38.11-1.51.77-1.69.24l.05-1.09-1.95,1.43-.43-.16-.28-1.27c-.02.37-.41.52-.59.79-.28.46-.13,1.13-.9.88-.24-.08-.53-1-.75-1.33-.36-.5-.92-.75-.76-1.52.87-.09,1.14.99,1.76,1.44.65-.58,1.09-1.79,2.13-1.54l.14,1.41c.09.1,1.66-1.23,2.28-1.17.84.12-.21,1.29-.07,1.44.85-.24,1.71-.71,2.61-.52"/>
        <path class="cls-16" d="M25.12,29.75v5.73l-1.24.78c-.97-.32-1.95-1.61-2.99-1.57-.35,0-.73.23-1.12.13.32-1.16.89-2.71-.4-3.47.26-.73.13-1.44.03-2.18l1.63-2.19,1.35.27c-.64,2.12.7,3.33,2.74,2.48"/>
        <path class="cls-4" d="M23.69,46.05l-3.43.95-2.93,1.51-2.38-.96c.45-.25.74-.68,1.11-.98,1.55-1.24,3.68-1.12,5.48-1.83.4-.08.41.32.64.52.37.34,1.02.63,1.5.78"/>
        <path class="cls-15" d="M22.64,53.08v4.95c-1.54.45-2.81,1.47-4.13,2.33l-2.65-.58.26-5.6,6.53-1.1h-.01Z"/>
        <path class="cls-7" d="M21.08,35.54c.25.07,2.06,1.21,2.09,1.33-.35.7-.97,1.22-1.33,1.92-.14.27-.34,1.02-.39,1.1-.17.21-1.11.3-1.24.82l-2.52.05c-.15-.36-.33-.41-.71-.46-1.04-.1-2.06.22-3.07.39-.01-.43.61-1.02.23-1.4-.54-.54-2.97.75-3.09.63l.26-3.52c1.31.51,2.46.33,3.56-.51,1.05.89,1.67,1.61,3.13.88.42-.22.98-.92,1.22-.99.21-.08,1.71-.27,1.86-.24"/>
        <path class="cls-4" d="M22.38,52.43c-.36,0-.73-.02-1.1,0-1.53.16-3.24.76-4.71.89-1.1.09-4.78-1.29-6.08-1.72-.57-.18-1.12-.46-1.7-.65-1.97-.65-4.74-1.28-6.54-2.33-.09-.05-.22-.13-.21-.24,1.48-.21,2.94-.61,4.39-.88,1.54-.28,3.09-.47,4.63-.72.42-.08.91-.47,1.36-.07.11.09.17.34.36.49,1.16,1.03,3.31,1.42,4.72,2.19,1.28.71,2.69,1.65,3.96,2.42.29.17.76.18.9.6"/>
        <path class="cls-13" d="M21.6,43.5c-2.53.67-5.46.67-7.23,2.89-.57-.04-1.13-.57-1.62-.68-.24-.05-1.44-.27-1.61-.27-1.13,0-3.58.54-4.82.77-1.2.23-3.67.6-4.64,1.09-.7.35-1.2.95-2.1.89-.2.12-.37.93-.39,1.18-.04.53-.07,1.13-.07,1.76h-1.37v-10.3l.72-.51c.51.32.26,1.83.91,1.83.14,0,.96-.77,1.28-.95.38-.2.78-.33,1.2-.45.29,0,.93.66,1.24.79.51.21,3.71.1,4.3-.12.15-.05.74-.51.78-.47l-.13,1.12-3.07,1.1c-.26.36.55.48.79.51,1.16.13,1.55-.38,2.48-.5.88-.12,2.44,0,3.32.18.58.11,1.23.48,1.88.47.39,0,.71-.12.59-.53-.07-.04-1.24-.1-1.47-.15-.23-.05-.37-.25-.59-.34-.24-.09-.58,0-.82-.22l-.24-1.55c.1-.29,2.29-1.15,2.46-.99l-.23,1.22.42.34c.97-.32,1.95-.61,2.99-.52.27,1.17,1.89.47,2.88.52.36,0,.67.17,1.03.14l.27-.13c.21-.32-.22-.8.45-.65-.27.76-.07,1.87.39,2.53"/>
        <path class="cls-14" d="M12.81,28.85c-2.35,2.35-6.61,2.79-10.02,1.5.34.97,1.29.81,2.26.9-.5.63-1.12.93-1.91.61-.63-.25-1.29-1.23-.77-1.68-1.66-.71-3.08-1.86-3.93-3.4-.18.21-.35.43-.4.71-.04.42.91,1.07-.28,1.48v1.7c.28-.11,1.05-.43,1.25-.14.18.78-.73,1.65.18,2.28.54.07,3.09.18,3.33.59.22.36-.04,1.04-.14,1.44l-.71,1.17c.9.41,1.87-.43,2.73.08.24.14.46.59.72.58.79-.26,1.21-1.43,2.14-.84.18.11.29.36.49.42.57.17,1.33-.18,1.81-.49.33-.26.15-1.15.65-1.18.65-.07.87.82,1.37,1.1.43.26,1.48.29,1.96.15.49-.15,1.14-1.09,1.6-.97.32.08.29.52.48.7.12.11.36.14.52.27.24.18.18.54.82.42.39-.08,1.33-.88,1.51-1.23.09-.16.5-1.49.53-1.69.03-.25.05-.62-.05-.85-.17-.33-.82-.29-.86-.72-.09-.43.36-.79.4-1.17.03-.4-.22-.84-.26-1.23-.82.75-1.78,1.75-2.97,1.07-.9-.52.46-.53.82-.67.54-.18.97-.66,1.15-1.2.14-.42.18-1.82.68-1.92.5-.11.83,1.44.58,1.82.11.13.49-.28.59-.39.16-.18.73-.97.78-1.16.12-.37-.09-.55-.05-.83.07-.41.71-1.04.84-1.52.1-.38.11-1.24.05-1.63-.05-.32-.3-.54-.36-.82-.08-.37.04-.79-.05-1.12-.13-.46-.98-.32-1.02-.8-.05-.51.53-.63.79-.9.5-.55.58-1.57.5-2.27-.55-.04-.89-.53-1.32-.79-3.17,2.02-7.44,1.71-9.67,3.94-3.26,2.17,6.53,4.35,3.26,8.7M14,24.82c.33-.1.55.05.96-.22.52-.36.6-1.28,1.3-1.23.47.93-.86,2.3-1.75,2.21-.41-.03-1.05-.6-.51-.76"/>
        <path class="cls-5" d="M17.69,16.14c-.29-.36-.21-.79-.51-1.18-.29-.37-1.08-.55-1.16-.8-.29-.89,1.65-1.84,1.4-2.89-1.12-.35.22-1.91-.71-2.61-1.59.61-1.04-1.04-1.63-1.96-.48-.14-.82.48-1.29.18-.22-.13-.42-1.09-.52-1.37-.15-.16-.96.83-1.36.79-.71-.08-.63-1.15-.75-1.61-.15-.52-.76-1.49-1.35-1.53-.47-.03-.93.63-1.49,0l-.12.77c.41.18,1.06.11.9.66-.66-.11-2.41,1.27-2.79,1.16-.51-.13,0-.72.03-.86.07-.29-.75-1.11-.89-.96l.08,2.87c-.15.53-1.27.75-1.77.78.29,1.2.14,1.84-1.15,2.1l-.27.97c-.24.14-.77.08-1.05,0-.6-.16-.92-.87-1.56-.99-.37.42,1.49,1.77,1.15,2.79-.11.35-.97.34-1.23.74-.2.32.61.55.41,1.17-.32.8-2.25,1.52-2.16,2.4.06.68,1.35.55,1.82.86.27.38-1.08.97-.87,1.99.12.63.65.7.73.96.1.33-.11.59-.1.88,0,.38.28.87.25,1.3-.03.33-.36,1.03-.65,1.18l-1.31-.07v1.05c.03.12.05.25.09.37.51-.02,1.09-.06,1.1.59,0,.33-.26.59-.5.88.85,1.55,2.27,2.69,3.93,3.4.08-.07.19-.13.34-.17.02.13.06.24.09.34,3.42,1.29,7.67.85,10.02-1.5,3.26-4.35-6.53-6.52-3.26-8.7,2.23-2.23,6.5-1.92,9.67-3.94-.16-.1-.34-.16-.55-.15-.32.01-.68.27-.99.08M2.45,27.93c-.82.32-1.57.1-2.16-.51-1.08-1.12-1.11-3.69.6-4.18-.04,1.11-.76,2.69.26,3.58.18.15,1.69.77,1.31,1.11"/>
        <path class="cls-17" d="M18.25,89.85c.39.11.83.26.74.76-1.11.23-1.81,1.11-2.73,1.7-.1-1.21.83-2.28,1.99-2.46"/>
        <path class="cls-17" d="M16.79,76.73l.04.74-.89.12c-.15.42-.18.11-.5.15-1,.13-2.54,1.41-3.45,1.91-.57.11-.52-.66-.62-1.02-.43.3-1.05,1.3-1.57,1.32-.38,0-.71-.35-1.11-.48-1.42-.45-3.54-.29-4.51-1.62-.67.37-1.42.57-2.13.85-.53.21-1.01.67-1.62.57-.54-.15.15-1.7.18-2.13.04-.54-.09-.98-.13-1.5-.55.15-1.1.33-1.63.52-.41.14-.54.42-1.11.13v-.78c.3.02.34-.2.47-.38,1.27-1.71,2.45-3.52,3.89-5.09,2.01-2.17,4.3-2.32,7.18-2.09,2.44.2,3.61,2.29,5.01,3.97.51.62,1.4,1.14,1.56,1.97.1.48.12,2.62.28,2.78l.65.07h0ZM15.14,77.05l.22-.32c-.18-.74-.49-1.43-.73-2.14-.38-1.12-.42-.83-1.11-1.64-.95-1.14-1.63-2.35-2.87-3.24-.24-.17-1-.68-1.24-.73-.9-.15-3.84-.05-4.69.25-.18.08-.38.13-.52.26-.13.18.45.92.59,1.12.96,1.26,2.73,2.56,3.42,3.88.54,1.04.66,2.82.77,3.99l1.2.38c.78-.6,1.84-2.37,1.91-.24l3.06-1.58h-.01ZM5.41,77.82c.33.17,2.47.73,2.64.56,0-1.35-.11-3.22-.98-4.31-.67-.85-1.7-1.65-2.4-2.55-.39-.48-.83-1.05-1.05-1.62l-.26.08c-1.37,1.65-2.82,3.28-4.03,5.07l1.51-.45c.45-.1.64.18.7.59.14.96-.08,1.99-.25,2.93l3.06-1.17c.55.05.58.62,1.08.88"/>
        <path class="cls-17" d="M16.78,87.63c.11.6-.52.81-.91,1.24-.6.66-.94,1.54-1.63,2.14-.14.13-.21.32-.46.26.11-1.07.36-1.84,1.04-2.66.5-.6,1.12-1.15,1.96-.98"/>
        <path class="cls-17" d="M16.26,23.37c.47.94-.86,2.31-1.75,2.21-.41-.03-1.05-.6-.51-.76.33-.1.55.05.96-.22.52-.36.6-1.28,1.31-1.23"/>
        <path class="cls-15" d="M15.36,76.74l-.22.32-3.06,1.58c-.08-2.13-1.13-.36-1.91.24l-1.2-.38c-.11-1.17-.23-2.95-.77-3.99-.68-1.33-2.46-2.62-3.42-3.88-.14-.2-.72-.93-.59-1.12.14-.13.34-.18.52-.26.85-.3,3.78-.4,4.69-.25.24.04,1,.55,1.24.73,1.24.89,1.92,2.1,2.87,3.24.68.82.73.52,1.11,1.64.24.71.54,1.4.73,2.14"/>
        <path class="cls-11" d="M15.1,54.31c.14,1.69-.12,3.47-.15,5.14l-1.08.39c-.59-.35-1.26-1.42-1.96-1.29-.15.02-.66,1.71-.8,1.71l-2.65-.67c-.01-.46-.03-.61-.47-.76-1.3-.46-2.89-.47-4.24-.27-.2-.62.57-1.4.52-1.88-.01-.28-.28-.68-.59-.73-.73-.1-2.01,1.23-2.66,1.57-.47-2.75-.55-5.55-.52-8.34l14.46,4.75c.14.11.13.25.14.39"/>
        <path class="cls-16" d="M-2.25-.22H14.69c-.75.76-1.05,1.56-.4,2.51-.38.59-.86,1.17-.77,1.91l-1.44.26c-.15-.98-.99-2.27-2.04-2.45-.35-.05-.68,0-1.01-.03-.45-.07-.71-.5-1.29-.11-.72.66-.68,1.57-.47,2.46-.3.07-.21-.03-.29-.16-.41-.71-.8-1.24-1.73-1.14-1.21.12-.54,2.52-.72,3.38-1.5.08-2.31.42-1.83,2.09-.55.14-1.11.42-1.16,1.04-.14.16-.79-.62-1-.76-.68-.43-1.26-.37-1.72.33-.97,1.49.98,1.98.9,2.84-.49.2-1.35.85-1.28,1.42.03.26.5.75.43.87l-1.12.78c-.04-5.07.04-10.16,0-15.24"/>
        <path class="cls-17" d="M12.28,86.84c.38-.02.36,1.86.33,2.14-.05.37-.27,1.27-.77,1.11-.16-1.01-.45-2.53.45-3.25"/>
        <path class="cls-18" d="M9.54,37.04l.99-.51c-.26,1.12-.21,2.3-.26,3.46-.03.48-.17.86-.14,1.44.02.24.32.63-.05.58-.32-.04-.8-.11-.85-.45-.2-1.3.25-2.85.13-4.18l.19-.34h0Z"/>
        <path class="cls-17" d="M9.34,90.56c.02.17-.04.76-.13.83-.09.05-.31.01-.43-.01-.28-.1-.64-1.5-.84-1.89-.29-.59-.79-1.08-1.04-1.68l.17-.3c1.1.2,2.17,2.06,2.27,3.07"/>
        <path class="cls-7" d="M8.31,37.44c-.1.53.18,2.22-.13,2.55-.11.1-.86.53-1,.54-.14.02-.32-.1-.49-.09-.86.07-1.42-.04-2.23,0-.32,0-.6.16-.89.13-.43-.03-.91-.4-1.35-.49-.99-.17-1.79.36-2.58.88-.22,0-.28-1.67-1.29-1.55-.22.02-.4.17-.6.26v-3.13c.79-.08,1.9-.33,2.64.03,1,.47.84.96,2.37.74.31-.04.63-.28.91-.25.33.02.76.79,1.43.79.63,0,1.44-.96,1.68-.91.43.36.96.55,1.52.51"/>
        <path class="cls-11" d="M8.05,78.37c-.17.17-2.32-.38-2.64-.55-.5-.26-.52-.83-1.08-.88l-3.06,1.17c.17-.93.39-1.97.25-2.93-.05-.4-.25-.68-.7-.59l-1.51.45c1.22-1.78,2.66-3.42,4.03-5.07l.26-.08c.23.57.66,1.14,1.05,1.62.71.89,1.73,1.7,2.4,2.55.87,1.09.98,2.96.98,4.31"/>
        <path class="cls-17" d="M6.59,91.24c.03.34-.22.62-.24.95-.73-.13-.8-1.03-1.11-1.55-.12-.18-.42-.55-.58-.73-.37-.39-.91-.51-.79-1.11,1.16-.11,2.59,1.35,2.72,2.45"/>
        <path class="cls-17" d="M5.05,31.26c-.5.63-1.12.94-1.91.61-.73-.29-1.51-1.57-.44-1.85.22,1.36,1.28,1.14,2.35,1.24"/>
        <path class="cls-17" d="M1.14,26.82c.18.15,1.69.77,1.3,1.11-.82.32-1.57.1-2.16-.51-1.08-1.12-1.11-3.69.6-4.18-.04,1.11-.76,2.69.26,3.58"/>
        <path class="cls-16" d="M1.14,34.25l-.67,1.1-2.72.14v-2.86c.4.63.92,1.32,1.76,1.31.52,0,1.35-.41,1.63.31"/>
      </g>
    </g>
  </g>
</svg>