<?xml version="1.0" encoding="UTF-8"?>
<svg id="Layer_1" data-name="Layer 1" xmlns="http://www.w3.org/2000/svg" xmlns:xlink="http://www.w3.org/1999/xlink" viewBox="0 0 90 90">
  <defs>
    <style>
      .cls-1 {
        fill: #e2b596;
      }

      .cls-2 {
        fill: #bfbebe;
      }

      .cls-3 {
        fill: #a3af65;
      }

      .cls-4 {
        fill: #c69f91;
      }

      .cls-5 {
        fill: #b6c370;
      }

      .cls-6 {
        fill: #98a951;
      }

      .cls-7 {
        fill: #5f845f;
      }

      .cls-8 {
        fill: #95918b;
      }

      .cls-9 {
        fill: none;
      }

      .cls-10 {
        fill: #b7aca2;
      }

      .cls-11 {
        clip-path: url(#clippath-1);
      }

      .cls-12 {
        fill: #828d53;
      }

      .cls-13 {
        fill: #727849;
      }

      .cls-14 {
        fill: #663925;
      }

      .cls-15 {
        fill: #986749;
      }

      .cls-16 {
        clip-path: url(#clippath);
      }
    </style>
    <clipPath id="clippath">
      <rect class="cls-9" x="0" width="90" height="90"/>
    </clipPath>
    <clipPath id="clippath-1">
      <rect class="cls-9" x="-3.01" y="-.35" width="94.35" height="90.71"/>
    </clipPath>
  </defs>
  <g class="cls-16">
    <g class="cls-11">
      <g>
        <path class="cls-2" d="M91.54-.35v94.75H-3.21v-.13H29.37c.65,0,1.3.02,1.96,0,.45-.01,1.17-.22,1.24-.22s.21.18.39.22c.44.08,1.14-.01,1.63,0,.73.01,1.48,0,2.21,0h.91c11.02,0,22.04.01,33.05.01,5.01,0,10.03,0,15.04-.01h5.6v-2.35c.02-3.04,0-6.08,0-9.11V-.35h.14Z"/>
        <path class="cls-3" d="M76.66,88.82c.27.37.12,1.4.16,1.8.57-.5,1.17-.9,1.87-1.21,1.23-.52,2.97-1.14,2.04.95.09.08,1.7-.83,2.22-.21v.51c-.32.33-.82.27-1.18.4-.5.18-2,1.07-2.09.13.09-.41.23-.82.34-1.23.03-.15.16-.18-.13-.13-.64.11-1.95.77-2.41,1.23-.34.33-.59,1.16-1.15.51-.39-.46-.46-1.05-.61-1.61-.42.34-1.5,2.2-1.95,2.21-.82-.2-.99-1.17-1.3-1.82-.59.67-.98,1.36-1.1,2.26l-.59.21v1.45c5.01,0,10.03,0,15.04-.01-.36-.34-.3-.7-.42-1.08-.15-.48-.84-1.73.34-1.38.47.14,1.2,2.01.61,2.46h1.7c-.03-.57.06-1.19-.01-1.75-.07-.57-.84-1.64.08-1.64.17,0,.48.47.57.61.5.88.53,1.83.28,2.78h1.42c0-.8.43-1.84,1.05-2.35.01-2.17,0-4.35,0-6.52-4.88,1.41-9.79,2.65-14.76,3.42"/>
        <path class="cls-14" d="M91.41,81.5v1.31c-.74.17-1.6.64-2.2,1.11-.3.24-.58.65-.88.83-1.31.73-1.39-1.21-2.2-1.8-.48.42-.91,2.41-1.46,2.58-.65.2-1.03-.23-1.6-.37-.15,1.45-1.39.75-2.28.77-.93.02-2.28.34-3.2.6-.37.11-1.33.58-1.94.58-.26,0-.47-.09-.52-.34l.37-1.74c-.73-.12-2.07,1.53-2.41,1.58-.52.05-.64-.73-.71-1.12-.04-.23.05-.22-.26-.2-.01.16-.07.3-.15.43-.41.63-.77,1.62-1.54,1.73-.79-.14-1.61-.03-2.41-.08-.26-.01-.5-.17-.77-.14-.27.04-.39.33-.63.43-.64.29-2.38-.12-3.28-.03-.89.09-1.51.74-2.41.39-.02.49.14,1.67-.35,1.94-.3.16-1.53.35-1.95.39-1.2.15-2.48.01-3.64.4-.54.18-1.1.79-1.62.32l.39-2.26c-.34.14-.64.34-.96.54-.28.18-1.34,1.09-1.48,1.13-.34.1-.82-.1-.82-.43v-2.02c-.85.05-1.7,2.23-2.05,2.33-.4.12-1.17-.47-1.22-.89-.21-.03-.11.05-.13.2-.09.58-.1,1.47-.95,1.21-.2-.05-1.13-.77-1.27-.62.16,1.14.54,2.14.25,3.31l-.11.14c-1.03.53-2.19-.07-3.2-.08-.5,0-1.38.47-1.77.22-.08-.1-.16-.22-.2-.34-.07-.21.15-.4,0-.52-.73.4-1.67.54-2.15,1.3h-.91c0-.5.21-.96.33-1.43.04-.15.16-.15-.13-.13-.97.08-1.92.75-2.4,1.57-.49-.01-1.2.08-1.63,0-.18-.03-.33-.22-.39-.22s-.79.21-1.24.22c.02-.52,1.47-1.25,1.8-1.02l.67.76c.48-1.38,2.36-2.2,3.72-2.34.54-.05.75-.01.72.58,0,.17-.13.33-.08.46.78-.43,2.67-1.34,3.07-.13h2.99c-.05-.63-.15-1.36-.29-1.98-.15-.7-1.08-2.48.34-2.16.35.08,1.58,1.36,1.78,1.15.02-.73-.15-1.49.35-2.1,1.36-.23.98,1.33,1.68,1.97.36-.59,2.12-2.6,2.74-2.62.62,0,.45,1.88.58,2.36.21.05.23-.07.34-.13.61-.38,2.02-1.62,2.74-1.05.71.57-.11,1.53.05,1.71,1.64-.54,3.38-.42,5.08-.65v-2.02s.26-.41.32-.47c.6-.48,1.11.42,1.56.38.61-.33,1.42-.58,2.11-.63.78-.07,1.61.26,2.35.13.36-.07.41-.46.78-.52.46-.08.78.12,1.16.13.9.04,1.82-.03,2.72.01.14-.03,1.22-2.15,1.56-2.45.22-.2.55-.24.76.02.25.33.03,1.29.25,1.76.64-.51,2.47-1.76,3.25-1.37.14.08.25.24.27.4.04.38-.22.8-.27,1.16-.05.42.42.03.62-.03,1.54-.56,3.13-.77,4.77-.7l.2-.2c.04-.43-.12-1.27.5-1.33.66-.07,1.06.9,1.72.74.2-.72,1.01-2.44,1.8-2.58.64-.11,1.58,1.33,1.92,1.82,1.09-.72,2.15-1.53,3.45-1.83"/>
        <path class="cls-1" d="M87.96,83.33c.77-.51,1.52-1.05,2.36-1.44-1.15.02-2.3.05-3.44.06.45.44.87,1.08,1.08,1.37"/>
        <path class="cls-4" d="M91.41,69.83c-11.93-.5-23.86,1.57-35.79,4.55,9.58,6.84,19.58,7.66,29.75,7.59.22-.24.44-.42.67-.46.25-.04.55.16.84.44,1.14-.02,2.29-.04,3.44-.06.35-.16.71-.3,1.09-.39v-11.67M79.03,75.38c.36.05.89.13.78.64-.46.08-.84-.14-.78-.64M86.98,76.48c-.07.22-.47.22-.65.2-.22-.84.82-.8.65-.2"/>
        <path class="cls-1" d="M55.62,74.38c11.93-2.98,23.86-5.05,35.79-4.55v-14.29c-13.47,1.77-26.98,5.03-40.14,2.53,2.17-1.09,4.35-2.17,5.44-4.35-10.88-1.09-25.01,4.35-30.45-3.26-3.92-6.27,7.97-7.46,18.58-8.04-16.52-2.14-32.15.11-48.04,1.1v12.31l.88-.63c.97-.18.25,1.72.42,2.2.58-.45,2-.98,2.61-.46.5.49.11.95,0,1.5,1.27.27,3.06.29,1.7,1.95.54,0,1.07.51,1.5.65.14.06.32-1.98,1.24-1.37.16.24.29.5.41.76.12.27,0,.58.36.48,0-.12.04-.23.13-.33.53-.6,1.33-1.61,2.19-1.08.39.7-.1,1.45.03,2.19.73-.17,1.01-.68,1.84-.46,1.08.29-.37,1.81-.4,2.34l1.78.89c.52.92-.08,1.08-.61,1.66l1.42.39c.16-.4.36-1.87.98-1.7.3.08.17.84.21,1.1.07.41.23.83.25,1.25l2.28-1.43c1.14.16-.38,2.02-.2,2.21.85-.23,1.67-.77,2.59-.63.46.99-.78,1.83-.76,2.85,2.05-.48,3.17.29,1.57,2.09.31.08.64.17.95.29.35.13,1.09.54,1.36.6.71.14,1.78-1.46,2.63-1.01.28.39-.9,2.05-.76,2.63l1.82,2.25c.11,1.04-1.59.78-2.22,1.03l-.12.14c.4.76-.4,1.61-1.15,1.72-.34.05-.66,0-1,.04-6.72.92-13.45,1.83-20.2,2.61-1.24.14-2.48.42-3.73.38v11.33h30.63c.3-1.15,1.32-.46,1.96,0,.65,0,1.3.02,1.96,0,.02-.52,1.47-1.25,1.8-1.02l.67.76c.48-1.38,2.36-2.2,3.72-2.34.54-.05.75-.01.72.58,0,.17-.13.33-.08.46.78-.43,2.68-1.34,3.07-.13h2.99c-.05-.63-.15-1.36-.29-1.98-.15-.7-1.08-2.48.34-2.16.35.08,1.58,1.36,1.78,1.15.02-.73-.15-1.49.35-2.1,1.36-.23.98,1.33,1.68,1.97.36-.59,2.12-2.6,2.74-2.62.62,0,.45,1.88.58,2.36.21.05.23-.07.34-.13.61-.38,2.02-1.62,2.74-1.05.71.57-.11,1.53.05,1.71,1.64-.54,3.38-.42,5.08-.65v-2.02s.26-.41.32-.47c.6-.48,1.11.42,1.56.38.61-.33,1.42-.58,2.11-.63.78-.07,1.61.26,2.35.13.36-.07.41-.46.78-.52.46-.08.78.12,1.16.13.9.04,1.82-.03,2.72.01.14-.03,1.22-2.15,1.55-2.45.22-.2.55-.24.76.02.25.33.03,1.29.25,1.76.64-.51,2.47-1.76,3.25-1.37.14.08.25.24.27.4.04.38-.22.8-.27,1.16-.05.42.42.03.62-.03,1.54-.55,3.13-.77,4.77-.7l.2-.2c.04-.44-.12-1.27.5-1.33.66-.07,1.06.9,1.72.74.14-.51.6-1.52,1.13-2.12-10.17.07-20.17-.75-29.75-7.59M90.92,58c.22,0,.39.18.39.4s-.17.4-.39.4-.4-.17-.4-.4.17-.4.4-.4M89.96,64.6c.3,0,.55.24.55.54s-.25.54-.55.54-.54-.25-.54-.54.25-.54.54-.54M79.98,63.99l.36-.03c.66.32.66.61,0,.93-.14.05-.4-.01-.49-.11-.2-.2-.17-.69.13-.79M60.36,66.61c.39,0,.71.33.71.72s-.32.72-.71.72-.72-.32-.72-.72.32-.72.72-.72M.28,47.19c-.89.7-1.91-.39-.75-.96.6-.08,1.12.39.75.96M6.06,45.64l-.11-.42c.02-.57,1.05-.61,1.14-.27-.01.53-.53.83-1.03.7M15.99,50.38l.67-.16.45.36c.21,1.89-2.17,1.59-1.12-.2M13.7,84.91l.16.04c.43.28.33.89-.2.98-1.08.18-.88-.91.03-1.02M14.52,92.97c-.43.07-.72-.02-.98-.39-.15-.24-.06-.59.2-.72.55-.28.89.66.78,1.11M28.02,84.63c-.21.22-.6.32-.83.1-.39-.39.27-1.26.68-1.14.27.07.25.82.14,1.04M29.89,59.5c-.38,0-.68-.3-.68-.68s.3-.67.68-.67.68.3.68.67-.31.68-.68.68M33.75,73.95c-.19,0-.34-.15-.34-.34s.15-.34.34-.34.34.15.34.34-.15.34-.34.34M35.01,64.49c-.28,0-.52-.24-.52-.52s.24-.52.52-.52.52.23.52.52-.23.52-.52.52M37.27,88.81c-.28.26-.55.05-.71-.23.21-.51.21-1.11.89-.96-.03.38.13.91-.18,1.18M40.11,79.52c-.34.09-.66.01-.8-.33v-.87c.04-.13.2-.29.33-.33.15-.04.29-.04.43.04.47.39.57,1.09.04,1.48M42.43,65.19c-.23-.89.6-1,1.02-.29-.13.54-.61.5-1.02.29M45.53,80.83c-.07.04-.55.04-.62,0l-.25-.59c-.07-.52.73-.78.96-.45.12.18.03.96-.09,1.03M50.02,63.24l-.42-.34c-.07-.23-.04-.43.2-.55.67-.2.78.61.23.89M55.05,70.09c-.57.24-1.07-.02-1.14-.63.1-.17.14-.59.26-.71.35-.37,1.3-.18,1.37.45,0,0-.49.89-.49.89Z"/>
        <path class="cls-4" d="M83.36,47.65c-4.41-1.14-8.93-2-13.32-3.23-5.39-1.49-10.62-3.51-15.99-5.11-.79.41-1.44.11-2.19.09-2.93-.08-5.84.25-8.73.4-12.03.63-24.08.92-36.11,1.3-2.89.09-5.85.1-8.73.25-.49.03-.98.23-1.5.14v2.02c16.57-1.03,32.86-3.44,50.17-.8-.71-.11-1.42-.21-2.12-.3-10.61.58-22.5,1.77-18.58,8.04,5.44,7.61,19.58,2.17,30.45,3.26-1.09,2.17-3.26,3.26-5.44,4.35,13.16,2.51,26.68-.76,40.14-2.53v-5.71c-2.7-.65-5.35-1.49-8.05-2.19M43.58,43.7l-.75-.15-.14-.41c.13-.35.61-.45.87-.19.2.21.1.51.02.75M51.33,41.58c.3,0,.57.25.57.57s-.26.57-.57.57-.57-.25-.57-.57.25-.57.57-.57M50.38,43.3c-.38-.07-.76-.14-1.13-.21.38.07.75.14,1.13.21M57.21,48.42c-.34,0-.61-.27-.61-.61s.27-.61.61-.61.61.27.61.61-.27.61-.61.61M65.57,49.59l.63-.02c.73.11.2,1.4-.55,1.08-.53-.24-.62-.78-.08-1.05M66.03,54.09c-.59-.59.51-1.53,1.32-1.11,1.09.58-.71,1.73-1.32,1.11M73.85,53.19l-.15-.43c.01-.51.85-.58,1.14-.29.07.08.14.29.13.4-.14.61-.64.58-1.12.33M58.85,45.55c-.25,0-.47-.21-.47-.47,0-.04,0-.08.03-.12.06-.2.23-.35.44-.35.26,0,.47.22.47.47,0,.03,0,.05-.02.08-.04.22-.22.39-.45.39"/>
        <path class="cls-14" d="M91.41,48.53v1.31c-2.7-.65-5.35-1.49-8.05-2.19-4.42-1.14-8.93-2-13.32-3.23-5.4-1.49-10.63-3.51-15.99-5.11-.79.41-1.43.11-2.19.09-2.92-.08-5.84.25-8.73.4-12.03.63-24.08.92-36.11,1.3-2.89.09-5.85.1-8.73.25-.49.03-.98.23-1.5.14v-1.17l11.4-.38c.33-1.25,1.12-2.4,2.36-2.88l.33.2-.02.25-1.67,2.29c1.2-.03,2.39.04,3.59,0,3.33-.1,6.7-.41,10.03-.53.62-.02,1.24-.04,1.85-.06,3.61-.08,7.21-.05,10.79-.34.37-.03.75.02,1.11,0l-.39-2.22c.91-.13,1.15,1.38,1.17,2.09h1.44l-.39-2.35c.98.07,1.1,1.58,1.04,2.35l1.57-.13c-.08-.63-.27-1.25-.26-1.89,0-.2-.1-.37.2-.33.91.15.79,2.06,1.05,2.1h1.48c-.54-2.01,1-2.09,1.05-.14l7.99-.27c.35-.11.16-1.47.79-1.55.76.17.17,1.58.34,1.82l1.22.28c.25-.93,1.01-1.85,2.02-1.85.04,0,.1,0,.14,0-.15.72-.96,1.18-1.16,1.91-.08.3.59.26.71.42.37-.55.54-1.34,1.37-1.29l-.52,1.57,5,1.45c.18-.36.41-.58.86-.53l-.13.78,8.8,2.61-.45-2.27.32-.21c.86.64.91,1.77,1.26,2.71.08.08.79.26.96.28.21.03.22.02.18-.18-.12-.89-.32-1.77-.25-2.68.47-.05.79.4.95.8.29.74.22,1.54.23,2.32l6.25,1.44c.03-.88.52-2,1.56-1.83.2.84-.63,1.3-.65,2.09l1.03.12c.29-.9,1.02-2.07,2.1-1.95.26.26-1.34,1.86-1.17,2.35l7.17,1.83h-.03Z"/>
        <path class="cls-5" d="M69.22,35.64c.45-.09.64.11.53.54-.15.2-.3.39-.44.6.32.22.64.42.96.61.36-.35.83-.64,1.13-.71.12.1.18.15.21.33,0,.13-.18.5-.44.85,4.84,2.27,10.11,1.12,13.81,3.9,2.14,1.07,4.29,2.41,6.43,3.75v-6.62c-.72.3-1.6.49-2.25.93-.36.24-1.12,1.2-1.35,1.27-.34.1-.57-.26-.58-.58-.08-1.54,2.94-2.59,4.18-2.81v-3.38c-.97,0-3.1.2-3.9.72-.21.13-.24.39-.39.51-.39.29-.72.07-1.1.07-.96,0-1.94-.03-2.88,0-.66.02-1.25.38-1.88-.2-.2-.17-.24-.46-.37-.67-.04-.08,0-.26-.22-.16-.49.21-.36,1.11-.84,1.24-.57.15-2.44.12-3.08.06-.41-.04-1.4-.26-1.75-.47-.26-.16-.51-.55-.79-.76-.74-.55-1.5-.83-2.25-1.27-.22-.13-.38-.42-.57-.48-1.05-.32-3.63.16-4.93-.03-.92-.13-2.56-1.22-3.41-1.39-1.12-.24-2.66.34-3.77.7,3.66.88,6.98,2.27,9.24,4.03.21-.29.45-.51.7-.57"/>
        <path class="cls-14" d="M91.41,37.71v1.18c-.72.3-1.6.49-2.25.93-.36.24-1.12,1.2-1.35,1.27-.34.1-.57-.26-.58-.58-.08-1.54,2.94-2.59,4.18-2.81"/>
        <path class="cls-14" d="M91.41,33.28v1.04c-.97,0-3.1.2-3.9.72-.21.13-.24.39-.39.51-.39.29-.72.07-1.1.07-.96,0-1.94-.03-2.88,0-.66.02-1.25.38-1.88-.2-.2-.17-.24-.46-.37-.67-.04-.08,0-.26-.22-.16-.49.21-.36,1.11-.84,1.24-.57.15-2.44.12-3.08.07-.41-.04-1.4-.26-1.75-.47-.26-.16-.51-.55-.79-.76-.74-.55-1.5-.83-2.25-1.27-.22-.13-.38-.42-.57-.48-1.05-.32-3.63.16-4.93-.03-.93-.13-2.56-1.22-3.42-1.39-1.16-.25-2.8.39-3.9.74l.08,1.45,1.12.12c.72.93-.78.98-1.44,1.05-.67.08-1.26.1-1.82.07-1.1-.04-2.07-.27-3.34-.52-.17-.03-.88-.26-.91-.39.04-.29.36-.42.51-.67.15-.26.33-.77.47-1.09.14-.33.8-1.86.59-2.09-.39.12-.68.16-1.1.12-2.2-.21-3.9-.97-5.91-1.52-2.03-.55-6.04.02-8.15.53-2.03.49-3.11,1.64-4.75,2.81-.21.15-1.27.76-1.32.83-.07.11-.04.43-.17.67-.2.37-2.34,2-2.81,2.28-.24.13-.97.52-1.09.08-.14-.52,1.51-1.37,1.93-1.72.08-.08.25,0,.16-.29-.75.05-1.5-.1-2.22-.33-.25-.09-.55-.35-.76-.39-.89-.18-3.62,1.12-4.65,1.23-.08,0-.16,0-.26,0-.78,0-2.33-.2-2.96-.29-3.09-.49-5.65-2.04-8.61-2.95l-2.88,1.15.48.95.04.49c-.79-.41-1.14-1.09-1.9-1.62-2.86-2.02-7.35-2.16-10.68-2.85v-1.17L-.02,28.6c2.72.6,5.84.99,7.96,2.95,1.04-.27,2.21-.7,3.26-.87,1.63-.26,3.85-.04,5.08,1.16.17.16.42.6.52.65.21.1.17-.1.22-.16.16-.27.25-.61.45-.87l1.1-1.51c0-.08-.41-.11-.58-.21-.53-.32-.85-1.36-.99-1.94-1.58.91-3.27,2.07-2.61-.91-.14-.14-2.36.37-2.8.39-.47.02-.83-.14-1.17-.14-.62,0-1.18.36-1.88-.14v-.48l1.42-.68c-1.75-.12-3.4.13-5.11.43-1.32.23-2.87.75-4.21.62-1.21-.12-2.71-1.26-3.85-1.7v-.65c1.94.13,3.39,1.73,5.35,1.57-.04-2.37.04-4.74,0-7.11,0-.32-.13-.59-.14-.9-.03-1.71.04-3.44.01-5.16-.41-.07-.85.24-1.22.23-1-.04-2.09-.85-2.04-1.91l-1.96.65v-.91c.5-.05,1.29-.46,1.63-.78.32-.3.49-.82,1.07-.89.94-.11.35,1.14.31,1.49-.1.87.64,1.46,1.48,1.2.27-.08.41-.59.79-.5.47.04.4.59.65.79l.39.13c.67-.05,1.34-1.3,1.86-1.69.24-.07.49.2.76.24,1.28.21,2.14-1.76,1.28-2.72-.27-.32-1.18-.51-.9-1.05.98-.87,1.75.54,2.36,1.15,1.43-.09,1.61-.79,1.49-2.11l-.52-.54c.22-.3.59-.14.91-.25.32-.1.75-.59.78-.92l-.26-.9c.2-.29.53-.13.85-.33.52-.33.98-1.6,1.55-1.58.47,0,.57.3,1.07-.16.6-.55.49-1.24.17-1.91h1.43c.52,1.43-.57,2.74-1.92,3.1-.22.05-.48,0-.68.09-.16.09-.18.33-.29.42-.21.2-.99.65-1.08.82-.14.29-.02.76-.26,1.17-.2.33-.67.65-.98.87.6,1.76-.54,3.11-2.34,3.04.12,1.55-1.45,3.23-3.05,2.76-1.04.57-.5,1.84-.47,2.77.1,3.21-.03,6.45.25,9.65.03.32-.02.65,0,.98,2.01-.09,4.08-1.17,5.94.13.42.04,2.64-1.21,2.98-1.58.18-.2.38-.5.34-.77-.83-.11-2.18,1.45-2.87.99-.51-.85.55-1.13,1.05-1.58.99-.87,1.83-1.91,1.69-3.32-1.3.15-2.51-.33-3.77-.39.09-1.1,1.34-1.53,2.12-2.11.89-.65,1.91-1.38,2.18-2.52l-1.48.21-.21-.47c.46-1.04,1.41-1.96,1.29-3.19-.16-.17-3.07,1.22-3.37.03-.21-.78,1.7-1.53,2.24-1.88,1.25-.8,2.44-1.74,3.35-2.91-.04-.13-.32-.05-.42-.03-.83.17-2.39,1.05-2.45-.35.07-.45.79-.71,1.11-.99.91-.79,2.11-2.38,2.65-3.47.22-.41.46-1.01.54-1.48h.78c-.07.54-.33,1.11-.54,1.61-.51,1.15-1.16,2.44-1.94,3.41-.05.27.13.2.33.2.27-.01.5-.04.76-.11.34.2.5.4.48.82-.07,1.51-2.56,3.39-3.65,4.31l.75.02.17.13c.5.83-.43,2.61-.79,3.43.12.1,1.01-.18,1.16.21.66,2.03-1.41,3.68-2.95,4.59-.13.09-.23-.02-.17.29h2.02s.13-.15.24-.12c.47.09.39,1.36.35,1.75-.07.7-.51,1.44-.78,2.08l.9-.18c.38.98,0,2.02-.64,2.79-.45.53-1.02.72-1.44,1.24.58.08,1.7-.39,2.16-.01.42.34-.05,1.22-.01,1.7.37-.17.74-.38,1.1-.59.22-.13.62-.52.75-.57.84-.25,1.07,1.36,1.36,1.86.05.09.54.73.59.74.65.12,1.1-.66,1.41-.66h1.89c-.46-.82-.6-1.66-.52-2.6.61-.11.46.37.63.74.28.63.59,1.29,1.13,1.73l1.89-1.88c-.92-.58-2.41-2.41-2.35-3.51.03-.47.34-.83.67-.29.37.57.66,1.24,1.1,1.77.37.46.89.78,1.16,1.32.3,0,1.18-.86,1.51-1.1,1.14-.8,2.06-1.28,3.5-.86-1.08-1.28-2-3.11-1.75-4.82-.7-.61-1.66-1.85-1.64-2.81.01-.8.54-.74,1.18-.65.13.02.29.17.26-.07-.35-.08-.7-.68-.88-1-.43-.75-1.35-2.49-.38-3.04l.09-.26c-1.16-.38-2.44-1.92-2.21-3.2.05-.3.33-.37.38-.54.09-.32-.33-.51-.49-.78-.47-.74-1.23-2.63-1.04-3.47.08-.35.35-.55.7-.61l.84.2c-.54-.93-.86-2.12-.9-3.2h1.04c.05.95.33,1.96.79,2.78.24.4.75.7.63,1.26l-1.82.13c.05.83.47,1.8.98,2.46.36.46,1.55,1.2,1.63,1.64.03.26-.03.16-.2.21-.49.12-.98.3-1.5.25.22,1.95,2.56,1.81,3.64,2.94.04.2-.16.28-.29.35-.46.23-1.03.37-1.52.5.1,1.24,1.07,2.63,2.16,3.23.42.24,1.38.4,1.48,1,.04.24-.03.17-.16.22-.95.36-.98.04-1.85-.03-.36-.02-.82-.01-1.18.01-.16.01-.26-.04-.18.2.08.26.68,1.1.9,1.3.87.86,2.24,1.2,3,2.22.05.28-.13.18-.33.18-.76.02-1.29-.16-2.02-.25-.16.16.81,2.24,1.04,2.53.27.34.87.52,1.06.77.16.22.08.51.13.58.05.05,1.15.33,1.34.53.54-.52,1.19-.95,1.86-1.27.83-.4,2.03-.88,2.92-1.13,1.37-.38,2.63-.45,4.04-.2.05-1.32-.05-2.65,0-3.98.04-.91.5-1.25-.58-1.85-1.52,1.07-3.42.75-3.62-1.3-.74-.69-1.37.13-2.13.22-1.33.15-1.76-.73-1.63-1.92-.73-.25-1.85-.88-1.81-1.76.12-.6.51-1.13.98-1.51.13-.11,1.34-.74,1.1-.91-.29-.01-.46-.3-.74-.37-1.22-.29-2.34.17-2.26-1.71-1.23-.17-1.44-1.61-.93-2.58.51-.96,1.43-.84,2.38-.82.07-.34-.23-.57-.26-.86-.11-.79.51-1.48.9-2.07l-.77-1.01h1.3c.32.39.84.53.88,1.13.03.55-1.04.7-1.23,1.6-.14.39.22.47.29.57.8,1.09-1.55,1.86-2.35,1.9-.43.59-.07,1.21.64,1.2.25,0,.72-.29.83.21.08.35-.5.62-.7.83l-.07.65c.65-.11,2.81.66,2.98,1.26.27.95-1.66,1.49-1.79,2.35-.02.14.09.22.17.3.09.09.92.82.99.85.2.1.42-.12.64-.07.08.65-.62,1.14-.24,1.8.05.04,1.05.04,1.22.01.32-.05.59-.39,1.04-.39.2,0,1.51.36,1.63.47.41.35.2,1.15.27,1.22.2,0,.4.13.58.13.12,0,1.38-.48,1.47-.54.12-.09.3-.67.6-.61.38.08.29.67.4.9.28.58,2.15.37,2.86.8.18.12.33.36.47.43.32.16,1.53.09,1.76-.19.08-.11.08-.33.18-.47.35-.46,1,.05,1.16-.07.47-.84.73-1.88-.1-2.56-.03-.57.22-1.65.77-1.92.32-.16.92-.02,1.34-.1.42-.08.67-.39,1.07-.49.28,0,.48.45.89.37.37-.06.8-.7,1.24-.78-.03-2.71.12-5.43.03-8.14,0-.28-.13-.52-.14-.77-.03-.63.02-1.26,0-1.89h.91c-.11.6.11,1.22.13,1.76.23,4.79,0,9.31-.13,14.07-.1,3.96.37,7.98.26,12-.02,1.05-.02,2.63-.14,3.63-.1.77-.73,1.75-.9,2.56,1.25.45,2.37.08,3.65.13-.21-.88-.09-1.78-.13-2.68-.24-4.99-.02-10.18-.52-15.12-.08-.68-.43-2.06-.41-2.61.02-.23.22-.87.27-1.3.35-2.55.34-5.12.26-7.68-.05-1.59.04-3.19-.25-4.76h.91l.26,2.28c.12,3.44.09,6.86-.13,10.3-.02.29-.09.88-.14,1.16-.04.25-.34.41-.25.72,1.51-1.07,3.04-2.44,3.9-4.1-.77-.39-1.66.6-2.35.26-.11-.1-.26-.21-.24-.37.08-.53,1.84-1.54,2.33-1.98,1.29-1.12,1.77-2.31,2.09-3.97-.94-.03-1.26,1.1-2.22.9-.35-.35.97-1.98,1.2-2.38.48-.85.91-1.86,1.02-2.83h1.43c-.14.48-.27.98-.46,1.43-.21.49-.72,1.21-.85,1.63-.11.35.46.13.64.21.26.18-.24,2.04-.35,2.44-.37,1.27-.97,2.6-1.99,3.48-.05.4.41.09.6.07.76-.08.36.87.21,1.26-.53,1.34-1.52,2.26-2.5,3.23-.71.71-1.36,1.46-2.22,1.98l.4,5.77c.17.2,1.41-1.1,1.96-.72.41.28-.34,2.06-.54,2.47-.4.78-1.08,1.42-1.41,2.23l.25,5.93c1.39-.28,2.72-1,4.15-.55.53.16,1.09.5,1.64.7,1.82.6,3.25.29,5.09.38.8.03.76.36,1.57-.26,1.33-1.02,3.5-3.68,5.11-4.01.55-.12,1.21.11,1.73-.23l-.13-.97c-.64.18-1.16.45-1.82.05-.29-.17-.37-.54-.53-.64-.14-.1-.41-.09-.61-.17-1.26-.53-1.43-2.62-.33-3.48-.52-.67-.02-1.1.15-1.75-.36,0-.7-.16-.89-.48-.09-.14-.48-1.04-.51-1.18-.29-1.32.79-2.05,1.76-2.62.1-.05.23.07.15-.2-.14-.53-.89-.8-1.25-1.16-.11-.11-.3-.4-.42-.55-.66-.83-1.75-2.7-1.57-3.77.08-.43.65-.61.65-.65-.08-.27-.8-.99-1.02-1.33-.33-.51-1.49-2.63-.59-2.89.24-.07.79.12.7-.21-.11-.34-.51-.9-.67-1.28-.57-1.32-.91-2.72-1.15-4.13h1.17c.12,1.05.41,2.17.82,3.16.35.87.9,1.66,1.29,2.48.11.22.47,1.02.5,1.2.03.26-.02.18-.2.2-.24.01-.5.09-.68.1-.26,0-.46-.18-.68-.16.52,1.55,1.73,2.46,2.99,3.39.04.13-.09.27-.21.3-.43.13-1.47-.02-2,.15.24,1.13,1.01,2.47,1.82,3.32.11.11.17.24.33.2.27-.53.95-.65,1.5-.78-.11-.82-.25-1.41.07-2.21.09-.21.33-.4.33-.59.01-.2-.2-.37-.24-.55-.14-.66.04-1.27.23-1.9-.63-.55-1.24-1.07-.9-1.98.42-1.14,1.82-1.3,2.87-1.37-.93-1.05-.02-1.74.91-2.27.04-.21-.43-.52-.58-.73-.47-.66-.37-1.2-.21-1.95h1.17c-.03.37-.21.72-.13,1.11.08.47.95.74.9,1.42-.1.75-.73,1.2-1.41,1.39-.2.55.54.97.13,1.49-.79.76-2.15.1-2.6,1.32l1.03,1.04c.14.75-.82,1.27-.48,2.27.13.37.47.29.48.57.03.63-.41.78-.51,1.21-.12.53-.04,1.4-.15,1.99.63.14.82-.49,1.26-.76.83-.5,2.02-.36,2,.76-1.38-.27-2.48.61-2.46,1.99.29.89.87.41,1.41.82.03.17-.67.67-.66,1.3.01.56.71.82.66,1.37-1.38.29-2.07-1.01-1.42-2.14-1.11-.48-1.22-1.46-.92-2.56l-1.16.14s-.03.58-.01.69c.02.14.32.11.38.29.37,1.12-1.35,1.38-1.88,2-.61.7-.1,1.02.15,1.72.71.48,2.3-.63,2.51.55-.66.65-1.62.48-2.08,1.45l.65.27c.89,1.26-1.21,1.05-.75,2.58.17.59.92.38,1.15.66.25.3-.04.78.34.98.62.18,1.74-.73,2.14-.46.33.23-.13,1.73.38,2.1,1.45.14,3.05.02,4.3.91.27.2.55.65.79.77.1.05.94.41,1,.43.74.21,1.86-.01,2.21-.76.93-.53.85.67,1.16.77l2.39-.12v1.44l-.77-.26c-.01.82-.01,1.86.33,2.61.13.29.05.3.45.26M89.99,33.41l-.26-2.87h-.78l.26,2.87h.78ZM88.27,33.58c.14-.45-.1-.88-.11-1.28-.03-.61.09-1.39,0-1.96-.02-.15-.07-.24-.21-.32-.79.33-1.53.47-2.4.38l1.04,3.92,1.68-.74ZM85.55,34.45l-.91-3.39c-.59.08-1.09.43-1.68.59-1.57.4-2.66.26-3.87-.83-1.29.68-4.36,1.57-4.22-.8-.2-.04-.21.04-.33.13-.75.58-1.46,1.5-2.27,2.03l-.13.32c.9.32,1.8.84,2.6,1.38.28.2.4.47.78.64,1.18.53,2.6.17,3.84.46.67-1.6,1.9-2.67,2.42-.27,1.26-.13,2.5-.35,3.77-.25M83.97,30.14c.18-.27-.86-1.25-1.12-1.39-.82-.42-2.19-.36-3.1-.41-.84-.05-2.11-.26-2.93.07-.18.07-.92.62-1.05.77-.32.4-.34.89-.2,1.37.2.39,1.4.29,1.83.26.6-.03,1.52-.3,2.09-.27.41.03.87.38,1.32.4.23,0,1.12-.11,1.39-.16.62-.11,1.22-.36,1.77-.63M54.53,28.92l.13-7.77c-3.08-.02-5.68,2.12-8.73,2.22l.13,4.05c1.57.07,3,.71,4.54,1,1.23.23,2.71.17,3.74.82l.2-.31h-.01ZM54.53,19.98c-.05-.82.08-1.73,0-2.54-.04-.45-.27-.87-.27-1.3,0-.86.23-1.99.27-2.86.03-.5-.02-1.01,0-1.5-.33.22-.7.6-1.12.65-.43.04-.76-.27-1.16-.27-.52,0-1.17.38-1.76.26-.16.79.58,1.22.52,2.01-.05.77-.42,1.99-1.12,2.4-1.16.29-2.12,1.12-3.37.92-.29-.04-.51-.32-.85-.25l.13,4.95c3.01-.45,5.64-2.32,8.73-2.48M45.28,27.42c-.02-.54.03-1.1,0-1.63-.13-2.63-.56-5.31-.39-7.95.02-.33.21-.63.13-.98l-1.04.21v9.51l.21.85h1.1,0ZM43.03,27.2c.02-.26-.23-.85-.23-1.02v-3.07c-2.28-.48-4.56.23-6.53,1.37-.32.18-.74.39-.91.72,1.33.63,2.28,1.92,2.48,3.38.7-.13,1.36-.35,2.06-.48.66-.12,2.11-.17,2.6-.4.14-.05.51-.36.53-.5M36.53,29.29c.05-.17,0-.39,0-.58-.33.02-.57.26-.88.36-.67.22-1.47.36-2.17.29-.7-.05-3.32-1.17-3.84-1.63-.09-.09-.12-.2-.16-.3-.51-.01-.96.33-1.47.38-.77.08-1.57-.03-2.33-.12-.2.11-1.13.98-.87,1.15,1.83.2,1.67,2.19,2.22,3.52,1.16-.42,2.21.17,3.35.36.41.07.84.04,1.25.14.91-.75,1.98-1.32,2.94-2.01.27-.2,1.91-1.45,1.96-1.57M36.15,27.8c.15-.11-.58-.91-.72-1.03-.39-.36-2.08-1.39-2.58-1.6-1.05-.42-2.33-.24-3.41-.48-1.15.58-2.16,1.48-3.06,2.4-.05.28.12.18.32.2,1.21.02,1.97-.18,3-.78.47.23.77.7,1.28.93.34.15.68.17,1,.3.39.15.72.48,1.13.55,1.09.2,2.02-.25,3.04-.5M25.98,32.56l-.51-1.63c-2.11.84-4.47.74-6.69.54l-.87,1.09,5.35,1.18s2.72-1.18,2.72-1.18ZM24.89,30.55c.53-.22.34-.41-.08-.6-.79-.36-2.05-.15-2.94-.2-.35-.01-.61-.18-1.03-.12-.6.08-1.4.96-1.76,1.42,1.84-.04,4.07.17,5.81-.51M12.95,26.11h-.39v.13h.39v-.13ZM12.23,18.55c.09,0,.09-.13,0-.13-.08,0-.08.13,0,.13M3.19,25.72l1.17-.34c-.26-.97-.1-1.99-.13-2.99-.11-2.76-.38-5.87-.13-8.6.02-.23-.02-.48-.01-.72l-1.16.48s.26,12.17.26,12.17Z"/>
        <path class="cls-12" d="M84.21-.35h-3.61c-.03.37-.21.72-.13,1.11.08.47.95.74.9,1.42-.1.75-.73,1.2-1.41,1.39-.2.55.54.97.13,1.49-.79.76-2.15.1-2.6,1.32l1.03,1.04c.14.75-.81,1.27-.48,2.27.13.37.47.29.48.57.03.63-.41.78-.51,1.21-.12.53-.04,1.4-.15,1.99.63.14.82-.49,1.26-.76.83-.5,2.02-.36,2,.76-1.38-.27-2.48.61-2.46,1.99.29.89.87.41,1.41.82.03.17-.67.67-.66,1.3.01.55.71.82.66,1.37-1.38.29-2.07-1.01-1.42-2.14-1.11-.48-1.22-1.46-.92-2.56l-1.16.14s-.03.58-.01.68c.02.14.32.11.38.29.37,1.12-1.35,1.38-1.88,2-.61.7-.1,1.02.15,1.72.71.48,2.3-.63,2.51.56-.66.65-1.62.48-2.08,1.45l.65.27c.89,1.26-1.21,1.05-.75,2.58.17.59.92.38,1.15.66.25.3-.04.78.34.98.62.18,1.74-.73,2.14-.46.33.23-.13,1.73.38,2.1,1.45.14,3.04.02,4.3.91.27.2.55.65.79.77.1.05.93.41,1,.43.74.21,1.86-.01,2.21-.76.94-.53.85.67,1.16.77l2.39-.12v-3.64l-1.1-.27c-1.05.74-2.09,1.28-3.34.6-.67-.37-1.28-1.35-.93-2.12.38-.84.62.28.82.55.45.66,1.4.77,2.08.38.43-.25.7-1,1.14-1.08.46-.08.85.58,1.34.63v-3.26c-.45.08-1.55-.36-1.57-.84-.01-.65,1.22-.08,1.57-.2v-1.02c-1.09-.27-2.16-.64-3.16-1.15-6.7-3.79-5.82-11.82-4.04-18.14M82.43,21.8c-1.13.44-2.03-.78-1.29-1.74.17-.22.22-.25.5-.21.17.34.08.77.16,1.08.1.36.78.35.63.87"/>
        <path class="cls-3" d="M84.21-.35c-1.79,6.32-2.66,14.35,4.03,18.17,1,.5,2.07.88,3.17,1.15V-.35h-7.2Z"/>
        <path class="cls-14" d="M91.41,24.28v1.31l-1.1-.27c-1.05.74-2.09,1.28-3.34.6-.68-.37-1.28-1.35-.94-2.12.38-.84.62.28.82.55.45.66,1.4.77,2.08.38.43-.25.7-1,1.14-1.08.46-.08.85.58,1.34.63"/>
        <path class="cls-14" d="M91.41,19.99v1.03c-.45.08-1.56-.36-1.57-.84-.01-.65,1.22-.08,1.57-.2"/>
        <path class="cls-14" d="M89.96,64.6c.3,0,.55.24.55.54s-.25.54-.55.54-.54-.25-.54-.54.25-.54.54-.54"/>
        <polygon class="cls-15" points="89.72 30.54 89.99 33.41 89.2 33.41 88.94 30.54 89.72 30.54"/>
        <path class="cls-6" d="M88.16,32.3c.01.4.25.84.11,1.28l-1.67.74-1.04-3.91c.87.09,1.61-.05,2.4-.38.14.08.18.16.21.32.09.57-.03,1.35,0,1.96"/>
        <path class="cls-14" d="M86.33,76.67c-.22-.84.82-.8.65-.2-.07.22-.47.22-.65.2"/>
        <path class="cls-8" d="M84.63,31.06l.91,3.39c-1.27-.1-2.51.12-3.77.25-.52-2.4-1.75-1.33-2.43.27-1.24-.28-2.66.08-3.84-.46-.38-.17-.5-.45-.78-.64-.8-.54-1.7-1.07-2.6-1.38l.13-.32c.82-.53,1.52-1.46,2.27-2.03.12-.09.13-.17.33-.13-.14,2.37,2.92,1.49,4.22.8,1.21,1.09,2.31,1.23,3.87.83.6-.15,1.1-.51,1.69-.59"/>
        <path class="cls-5" d="M82.85,28.74c.26.14,1.3,1.12,1.12,1.39-.55.27-1.15.52-1.77.63-.27.05-1.16.16-1.39.16-.45-.02-.9-.37-1.32-.4-.57-.03-1.49.24-2.09.27-.42.03-1.63.13-1.83-.26-.14-.48-.12-.97.2-1.37.13-.15.87-.71,1.05-.77.82-.33,2.09-.12,2.93-.07.91.05,2.28-.01,3.1.41"/>
        <path class="cls-14" d="M82.95,90.16v.51c-.32.33-.82.27-1.19.4-.5.19-2,1.07-2.09.13.09-.41.23-.82.34-1.23.03-.15.16-.18-.13-.13-.64.11-1.95.77-2.41,1.23-.34.33-.59,1.16-1.15.51-.39-.46-.46-1.05-.61-1.61-.42.34-1.5,2.2-1.95,2.21-.82-.2-.99-1.17-1.31-1.82-.59.67-.98,1.36-1.1,2.26l-.59.21c-.46-.03-.79-.58-1.04-.92-.31-.42-.97-1.37-.41-1.82l.51-.11.8,1.15c.58-.84,1.09-1.79,2.09-2.21.62-.02.84,1.14.97,1.64.04.16-.07.22.2.17.42-.42,1.46-1.89,2.26-2.08.15-.03.29-.02.42.05.4.25.21,1.46.25,1.9.57-.5,1.17-.9,1.87-1.21,1.23-.52,2.97-1.14,2.04.95.09.08,1.7-.83,2.22-.21"/>
        <path class="cls-14" d="M81.8,20.93c.1.36.78.35.63.87-1.13.43-2.03-.78-1.29-1.74.17-.22.22-.25.5-.21.17.34.08.77.16,1.08"/>
        <path class="cls-14" d="M80.73,40.71c.05.64-.45,1.12-.67,1.68-.5.11-.68-.05-.63-.55.09-.75.51-1.25,1.31-1.12"/>
        <path class="cls-14" d="M80.34,63.96c.66.32.66.61,0,.94-.14.05-.4-.01-.49-.11-.2-.2-.17-.69.13-.79l.36-.03h0Z"/>
        <path class="cls-13" d="M79.63,1.6c.14.21.62.52.58.73-.93.53-1.85,1.22-.91,2.27-1.06.07-2.45.23-2.87,1.37-.34.91.27,1.43.9,1.98-.18.63-.37,1.24-.23,1.9.04.18.25.36.24.56,0,.18-.24.38-.33.59-.32.79-.17,1.39-.07,2.21-.56.13-1.23.25-1.5.78-.15.04-.22-.09-.33-.2-.81-.85-1.58-2.19-1.82-3.32.53-.17,1.57-.02,2-.15.12-.03.25-.17.21-.3-1.26-.93-2.47-1.84-2.99-3.39.23-.02.42.16.68.16.18-.01.45-.09.69-.1.17-.01.23.07.19-.2-.03-.17-.39-.98-.5-1.2-.39-.82-.95-1.61-1.29-2.48-.4-.99-.7-2.11-.82-3.16h7.95c-.16.75-.26,1.28.21,1.95"/>
        <path class="cls-14" d="M79.03,75.38c.36.05.89.13.78.64-.46.08-.84-.14-.78-.64"/>
        <path class="cls-3" d="M70.84,13.47c1.02,2.71,2.35,5.21,3.93,7.53.08-.28.25-.55.34-.89-.36,0-.7-.16-.89-.48-.09-.14-.48-1.04-.51-1.19-.29-1.32.79-2.04,1.76-2.62.1-.05.23.07.15-.2-.14-.53-.89-.8-1.25-1.16-.11-.11-.3-.4-.42-.55-.66-.83-1.75-2.7-1.57-3.77.08-.43.65-.61.65-.65-.08-.27-.8-.99-1.02-1.33-.33-.51-1.49-2.63-.59-2.89.24-.07.79.12.7-.21-.11-.34-.51-.9-.67-1.28-.57-1.32-.91-2.72-1.15-4.13h-2.71c.03,6.98.35,14.64,3.26,21.44v-7.61h-.01ZM69.52,7.67c-.04.21-.23.36-.27.57h-.36c-.27-.48-.49-.91-.54-1.48-.04-.42.05-2.58.46-2.66.2-.06.41.27.49.42.27.55.34,2.53.23,3.15"/>
        <path class="cls-12" d="M70.84,13.47v7.61c-2.91-6.79-3.22-14.45-3.25-21.43h-2.23c-.14.48-.27.98-.46,1.44-.21.49-.72,1.21-.85,1.63-.11.35.46.13.64.21.26.18-.24,2.04-.35,2.44-.37,1.27-.97,2.6-1.99,3.48-.05.4.41.09.6.07.76-.08.36.87.21,1.26-.53,1.34-1.52,2.26-2.5,3.23-.71.71-1.36,1.46-2.22,1.98l.4,5.78c.17.2,1.41-1.1,1.96-.72.41.28-.34,2.06-.54,2.47-.4.78-1.08,1.42-1.41,2.23l.25,5.93c1.39-.28,2.72-1,4.15-.55.53.16,1.09.5,1.64.7,1.82.6,3.25.29,5.09.38.81.03.76.36,1.57-.26,1.33-1.02,3.5-3.68,5.11-4.01.55-.12,1.21.11,1.73-.23l-.13-.97c-.64.18-1.16.45-1.82.05-.29-.17-.37-.54-.53-.64-.14-.1-.41-.09-.61-.17-1.26-.53-1.42-2.62-.33-3.48-.26-.33-.26-.6-.19-.87-1.58-2.32-2.92-4.82-3.93-7.53M64.88,15.54c.15-.13.26-.14.47-.12.33.34-.96,2.96-1.44,3.2-.17.08-.34.08-.52.07-.03-.2.03-.33.1-.49.15-.37,1.21-2.5,1.39-2.65M59.89,17.89l-.12-.42c.05-.58,1.37-1.62,1.79-2.11.21-.23,1.66-2.35,1.96-2.02.35.92-.33,2.09-.91,2.81-.61.74-1.7,1.97-2.72,1.75M61.43,28.52c-.17.16-.53.42-.77.27-.51-.39-.17-.77.13-1.18.48-.61,2.06-2.42,2.61-2.87.18-.15.39-.35.65-.33.01.27.01.52-.07.78-.17.64-2,2.81-2.56,3.32M64.96,28.78c-.26.32-.59.7-1.04.59-.45-.33.73-2.07.94-2.51.34-.72.52-1.51.95-2.19l.46-.12c.09.29.15.51.13.83-.08.95-.83,2.67-1.42,3.4M67.05,6.24c-.18.53-1.24,2.78-1.88,2.65-.32-.17-.41-.47-.32-.8.66-1.38,1.73-2.62,2.07-4.13l.37.21c.1.73-.01,1.39-.24,2.08M67.56,16.01c-.05-.54-.13-3.07.46-3.2.25-.04.37.33.42.49.15.49.28,1.78.3,2.32.06,1.38-1.02,2.02-1.18.39M69.4,27.48c-.2.46-.45.39-.79.1-.38-.88-.63-1.85-.5-2.82.12-.27.34-.39.63-.35.13.89,1.03,2.2.66,3.07M71.74,26.5c-.73.11-1.32-.86-1.32-1.5,0-.59.17-.79.57-.29.18.25.95,1.59.75,1.79"/>
        <path class="cls-14" d="M78.25,40.05c.22.22-.44,1.91-.65,2.15-.12.13-.18.24-.39.2-.34-.87-.05-2.32,1.04-2.35"/>
        <path class="cls-3" d="M60.89,89.35c-.04.28-.14.51-.32.6-.3.16-1.53.35-1.95.39-1.2.15-2.48.01-3.64.4-.54.18-1.1.79-1.62.32l.39-2.26c-.34.14-.64.34-.96.54-.28.18-1.34,1.09-1.48,1.13-.34.1-.82-.1-.82-.43v-2.02c-.85.05-1.7,2.23-2.04,2.33-.4.12-1.17-.47-1.22-.89-.21-.03-.11.05-.13.2-.09.58-.1,1.47-.95,1.21-.2-.05-1.13-.77-1.27-.62.16,1.14.54,2.14.25,3.31l-.11.14c-1.03.53-2.19-.07-3.2-.08-.5,0-1.38.47-1.77.22-.08-.1-.16-.22-.2-.34-.07-.21.15-.4,0-.52-.73.4-1.67.54-2.15,1.3,11.02,0,22.03.01,33.05.01v-1.45c-.46-.03-.79-.58-1.05-.92-.3-.42-.97-1.37-.41-1.82l.51-.11.8,1.15c.41-.6.8-1.25,1.35-1.73-3.65.32-7.34.34-11.09-.06"/>
        <path class="cls-5" d="M91.41,82.81c-.74.17-1.6.64-2.2,1.11-.3.24-.58.65-.88.83-1.31.73-1.39-1.21-2.2-1.81-.48.43-.91,2.42-1.46,2.58-.65.2-1.03-.23-1.6-.37-.15,1.45-1.39.75-2.28.77-.93.02-2.28.34-3.2.6-.37.11-1.33.58-1.94.58-.26,0-.47-.09-.52-.34l.37-1.74c-.73-.12-2.07,1.53-2.41,1.58-.52.05-.64-.73-.71-1.12-.04-.23.05-.22-.26-.2-.01.16-.07.3-.15.43-.41.63-.77,1.62-1.54,1.73-.79-.14-1.61-.03-2.41-.08-.26-.01-.5-.17-.77-.14-.27.04-.39.33-.63.43-.64.29-2.38-.12-3.28-.03-.89.09-1.51.74-2.41.39-.01.3.04.88-.03,1.33,3.75.4,7.44.38,11.09.05.22-.19.46-.36.74-.47.22,0,.39.14.52.34.77-.08,1.54-.17,2.3-.28.21-.16.41-.28.61-.32.15-.03.29-.02.42.05.04.02.07.06.09.1,4.97-.77,9.88-2.01,14.76-3.42v-2.59"/>
        <path class="cls-3" d="M73.23,89.28c.24.38.36.97.45,1.3.04.16-.07.22.2.17.32-.32,1-1.24,1.65-1.75-.76.11-1.53.2-2.3.28"/>
        <path class="cls-14" d="M74.84,52.46c.06.08.14.29.13.4-.14.61-.64.58-1.12.33l-.15-.43c.01-.51.85-.58,1.14-.29"/>
        <path class="cls-14" d="M70.99,24.71c.18.25.95,1.59.75,1.8-.73.11-1.32-.86-1.32-1.5,0-.59.17-.79.57-.29"/>
        <path class="cls-14" d="M71.62,37c.02.37-1.52,2.6-1.84,1.29-.07-.62,1.07-1.48,1.63-1.62.12.1.18.15.21.33"/>
        <path class="cls-14" d="M69.22,35.64c.45-.09.64.11.53.54-.21.27-.42.53-.61.84-.2.34-.5,1.34-.99,1.21-.65-.18.18-2.4,1.07-2.59"/>
        <path class="cls-14" d="M69.29,4.51c.27.56.34,2.53.23,3.15-.04.21-.23.36-.27.57h-.36c-.27-.48-.49-.91-.54-1.48-.04-.42.05-2.58.46-2.66.2-.05.41.27.49.42"/>
        <path class="cls-14" d="M68.73,24.41c.13.89,1.03,2.2.66,3.07-.2.46-.45.39-.79.1-.38-.88-.63-1.85-.5-2.82.12-.27.34-.39.63-.35"/>
        <path class="cls-14" d="M68.75,15.62c.05,1.38-1.02,2.02-1.19.39-.05-.54-.13-3.07.46-3.2.25-.04.37.33.42.49.15.49.28,1.78.31,2.32"/>
        <path class="cls-14" d="M67.34,52.99c1.09.58-.71,1.73-1.32,1.11-.59-.59.51-1.53,1.32-1.11"/>
        <path class="cls-14" d="M67.29,4.16c.1.73-.01,1.39-.24,2.08-.17.53-1.24,2.79-1.88,2.65-.32-.17-.41-.47-.32-.8.66-1.38,1.73-2.62,2.07-4.13l.37.21h0Z"/>
        <path class="cls-14" d="M66.08,35.24c.66-.14.64,2.35.54,2.77-.05.24-.24.47-.45.61-.38-.08-.53-.5-.58-.84-.04-.46-.03-2.44.48-2.55"/>
        <path class="cls-14" d="M66.25,24.55c.09.29.15.51.13.83-.08.95-.83,2.67-1.42,3.4-.26.32-.59.7-1.04.59-.45-.33.73-2.07.93-2.51.34-.72.52-1.51.95-2.19l.46-.12h0Z"/>
        <path class="cls-14" d="M66.2,49.57c.73.11.2,1.4-.56,1.08-.53-.24-.62-.78-.08-1.05l.63-.02h.01Z"/>
        <path class="cls-14" d="M65.35,15.42c.33.34-.96,2.96-1.44,3.2-.17.08-.34.08-.52.06-.03-.2.03-.33.1-.49.15-.37,1.21-2.5,1.39-2.65.15-.13.26-.14.47-.12"/>
        <path class="cls-14" d="M63.97,35.76c.29.46.63,2.59,0,2.73-.57.12-.82-1.4-.84-1.75-.02-.27-.09-1.32.19-1.37.16-.03.56.24.64.39"/>
        <path class="cls-14" d="M64.05,24.41c.01.27.01.52-.07.78-.17.64-2,2.81-2.56,3.32-.17.16-.53.42-.77.27-.51-.39-.17-.77.13-1.17.48-.61,2.06-2.43,2.61-2.87.18-.15.39-.35.65-.33"/>
        <path class="cls-13" d="M58.45-.35h5.47c-.11.97-.54,1.98-1.02,2.83-.23.4-1.54,2.03-1.2,2.38.96.2,1.28-.93,2.22-.9-.32,1.66-.79,2.85-2.09,3.97-.49.44-2.25,1.45-2.33,1.98-.02.16.13.27.24.37.68.34,1.58-.65,2.35-.26-.87,1.66-2.39,3.03-3.9,4.1-.09-.3.21-.47.25-.72.05-.28.12-.87.14-1.16.22-3.44.25-6.86.13-10.3l-.26-2.29Z"/>
        <path class="cls-14" d="M63.52,13.33c.35.92-.33,2.09-.91,2.81-.61.74-1.7,1.97-2.72,1.75l-.12-.42c.05-.58,1.37-1.62,1.79-2.11.21-.23,1.66-2.35,1.96-2.02"/>
        <path class="cls-14" d="M60.96,36.29c.36.12,1.07,1.9.53,2.06-.86.25-1.3-1.83-.96-2.07.09-.05.3,0,.42,0"/>
        <path class="cls-14" d="M60.36,66.61c.39,0,.71.33.71.72s-.31.72-.71.72-.72-.32-.72-.72.32-.72.72-.72"/>
        <path class="cls-14" d="M58.85,44.61c.26,0,.47.22.47.47s-.21.47-.47.47-.47-.21-.47-.47.22-.47.47-.47"/>
        <path class="cls-15" d="M58.32,33.8c-1.28-.05-2.4.32-3.65-.13.17-.8.8-1.78.9-2.55.12-1,.12-2.58.14-3.63.11-4.01-.36-8.04-.26-12,.13-4.76.36-9.29.13-14.07-.02-.54-.24-1.16-.13-1.76h2.09c.29,1.58.2,3.18.25,4.76.08,2.56.09,5.13-.26,7.68-.05.43-.25,1.08-.27,1.3-.02.55.34,1.92.41,2.61.5,4.94.28,10.12.52,15.12.04.89-.08,1.79.13,2.67"/>
        <path class="cls-14" d="M57.21,47.2c.34,0,.61.27.61.61s-.27.61-.61.61-.61-.27-.61-.61.27-.61.61-.61"/>
        <path class="cls-5" d="M54.4,30.15c-.39.12-.69.16-1.1.12-2.2-.21-3.9-.97-5.91-1.52-2.03-.55-6.04.02-8.15.53-2.03.49-3.11,1.64-4.75,2.81-.21.15-1.27.76-1.32.83-.07.11-.04.44-.17.67-.09.17-.58.59-1.13,1.04,2.22-.21,4.46-.56,6.71-1.1-.19-.36-.7-1.41-.72-1.5-.04-.25-.06-.42.18-.57.55-.14,1.52,1.16,1.56,1.8.38-.1.76-.21,1.14-.32-.57-.31-1.18-1.76-1.07-2.18.03-.11.22-.3.34-.34.25-.08.28.04.41.21.32.37,1.19,1.62.84,2.14.48-.15.96-.31,1.44-.47-.52-.45-.45-1.57-.17-2.14.83-.25,1.08,1.14.88,1.89.08-.03.16-.05.23-.08.4-.11.83-.21,1.25-.3,0-.54.37-1.26.72-1.36.49-.15.51.57.31,1.17,2.55-.42,5.39-.45,8.25-.16.18-.5.34-1.04.22-1.17"/>
        <path class="cls-5" d="M30.27,34.74c.32-.21.62-.4.77-.52.08-.08.25,0,.16-.29-.75.05-1.5-.1-2.22-.33-.25-.09-.55-.35-.76-.39-.89-.18-3.62,1.12-4.65,1.23-.08,0-.16,0-.26,0l.33.34c2.21.09,4.42.09,6.64-.05"/>
        <path class="cls-14" d="M55.54,69.2l-.49.89c-.57.24-1.07-.02-1.14-.63.1-.17.14-.59.26-.71.35-.37,1.31-.18,1.37.45"/>
        <path class="cls-3" d="M38.22,9.12c2.17,4.35,7.61,3.26,11.96,1.09,1.48-.99,3.18-2.43,4.5-4.21.02-1.23.03-2.46,0-3.69,0-.28-.13-.52-.14-.77-.03-.63.02-1.26,0-1.89h-16.12c-1.19,3.16-.98,6.32-.19,9.47"/>
        <path class="cls-12" d="M50.18,10.21c-4.35,2.18-9.79,3.26-11.96-1.09-.79-3.16-1-6.32.19-9.47h-3.68c.32.39.84.53.88,1.13.03.55-1.04.7-1.23,1.6-.14.39.22.47.29.57.8,1.09-1.54,1.86-2.35,1.9-.43.59-.07,1.21.64,1.2.25,0,.72-.29.83.21.08.35-.5.62-.7.83l-.06.65c.65-.11,2.81.66,2.98,1.26.27.95-1.66,1.49-1.79,2.35-.02.14.09.22.17.3s.93.82.99.85c.2.1.42-.12.64-.07.08.65-.62,1.14-.24,1.8.06.04,1.06.04,1.22.01.32-.05.59-.39,1.04-.39.2,0,1.51.36,1.63.47.41.35.2,1.15.27,1.22.2,0,.4.13.58.13.12,0,1.38-.48,1.47-.54.12-.09.3-.67.6-.61.38.08.29.67.4.9.28.58,2.15.37,2.86.8.18.12.33.36.47.43.32.16,1.53.09,1.76-.2.08-.11.08-.33.19-.47.35-.46,1,.05,1.16-.07.47-.84.73-1.88-.1-2.56-.03-.57.22-1.65.77-1.92.32-.16.92-.02,1.34-.1.42-.08.67-.39,1.07-.49.28,0,.48.45.89.37.37-.07.8-.7,1.24-.78-.02-1.48.02-2.96.04-4.45-1.32,1.78-3.02,3.22-4.5,4.21"/>
        <path class="cls-6" d="M54.66,21.15l-.13,7.77-.2.32c-1.03-.64-2.51-.59-3.74-.82-1.53-.29-2.97-.93-4.54-1l-.13-4.05c3.06-.1,5.65-2.24,8.73-2.22M51.33,26.37c.62.01,1.44-2.53.28-2.2-.52.15-1.17,2.2-.28,2.2M48.93,25.25c.07.62.66,1.68,1.04.65-.14-.42,0-2.09-.72-1.88-.23.07-.35.98-.33,1.23M48.27,26.36c.34-.24-.19-1.99-.84-1.82-.6.42.22,2.25.84,1.82"/>
        <path class="cls-13" d="M54.53,17.44c.08.81-.05,1.72,0,2.53-3.09.16-5.72,2.03-8.73,2.48l-.13-4.95c.34-.07.55.21.85.25,1.25.2,2.21-.63,3.37-.92.7-.41,1.07-1.63,1.12-2.4.05-.79-.68-1.22-.52-2.01.59.12,1.24-.26,1.76-.26.4,0,.73.32,1.16.27.42-.05.79-.43,1.12-.65-.02.49.03,1,0,1.5-.04.87-.27,2-.27,2.86,0,.43.23.86.27,1.3"/>
        <path class="cls-14" d="M51.62,24.18c1.15-.34.34,2.21-.28,2.2-.89,0-.24-2.04.28-2.2"/>
        <path class="cls-14" d="M51.33,41.58c.3,0,.57.25.57.57s-.26.57-.57.57-.57-.25-.57-.57.25-.57.57-.57"/>
        <path class="cls-14" d="M49.79,62.35c.67-.2.78.61.23.89l-.42-.34c-.07-.23-.04-.43.2-.56"/>
        <path class="cls-14" d="M49.52,33.54c.55-.15,1.04.98.51,1.29-.32.07-.57-.05-.68-.34-.05-.24-.1-.89.17-.96"/>
        <path class="cls-14" d="M49.97,25.9c-.38,1.03-.98-.03-1.04-.65-.02-.25.1-1.16.33-1.23.72-.21.58,1.46.72,1.88"/>
        <path class="cls-14" d="M47.43,24.55c.65-.17,1.17,1.58.84,1.82-.62.43-1.43-1.39-.84-1.82"/>
        <path class="cls-14" d="M47.72,34.22c.22.2.73,1.26.54,1.51l-.34.13c-.33,0-1.1-1.03-1.09-1.36.07-.43.54-.59.88-.28"/>
        <path class="cls-14" d="M45.62,30.3c.86-.26.28,2.12-.39,1.93-.72-.21-.13-1.77.39-1.93"/>
        <path class="cls-14" d="M45.61,79.79c.12.19.03.96-.09,1.03-.07.04-.56.04-.62,0l-.25-.59c-.07-.52.73-.78.96-.45"/>
        <path class="cls-15" d="M45.28,25.79c.03.53-.02,1.09,0,1.63h-1.1l-.21-.85v-9.51l1.04-.21c.08.35-.11.65-.13.98-.16,2.64.26,5.32.39,7.95"/>
        <path class="cls-14" d="M43.56,42.95c.2.21.1.51.02.75l-.75-.15-.14-.41c.13-.35.61-.45.87-.19"/>
        <path class="cls-14" d="M42.55,30.16c1.08-.33,1.18,2.14.57,2.33-.95-.13-.9-1.64-.57-2.33"/>
        <path class="cls-14" d="M43.45,64.89c-.13.54-.61.5-1.02.29-.23-.89.6-1,1.02-.29"/>
        <path class="cls-6" d="M42.81,26.18c0,.17.25.76.23,1.02-.02.14-.39.45-.53.5-.49.23-1.93.28-2.6.4-.7.13-1.36.35-2.05.48-.2-1.46-1.15-2.75-2.48-3.38.17-.33.6-.53.91-.72,1.97-1.14,4.24-1.85,6.53-1.37v3.07h-.01Z"/>
        <path class="cls-13" d="M42.22,16.24c1.08.6.62.94.58,1.85-.05,1.33.05,2.66,0,3.98-1.4-.25-2.66-.18-4.04.2-.88.25-2.09.73-2.91,1.13-.67.33-1.32.75-1.86,1.27-.19-.21-1.28-.48-1.34-.53-.05-.07.03-.36-.13-.58-.18-.25-.78-.43-1.05-.77-.24-.29-1.21-2.37-1.04-2.53.73.09,1.26.27,2.02.25.2,0,.38.1.33-.18-.76-1.02-2.13-1.36-3-2.22-.22-.21-.83-1.04-.9-1.3-.08-.24.02-.18.18-.2.37-.02.83-.03,1.19-.01.87.08.9.39,1.85.03.13-.04.21.02.16-.22-.1-.6-1.05-.76-1.48-1-1.1-.6-2.07-1.99-2.16-3.23.49-.13,1.07-.27,1.52-.5.13-.07.34-.15.29-.35-1.09-1.13-3.43-.99-3.64-2.94.52.05,1.01-.13,1.5-.25.16-.04.23.05.2-.21-.08-.45-1.27-1.19-1.63-1.64-.51-.65-.92-1.63-.98-2.46l1.82-.13c.12-.57-.39-.86-.63-1.26-.47-.83-.74-1.84-.79-2.79h7.17l.77.99c-.39.59-1.01,1.27-.9,2.07.03.29.33.52.26.86-.95-.02-1.87-.14-2.38.82-.5.97-.29,2.4.93,2.58-.08,1.88,1.05,1.41,2.26,1.71.28.07.45.36.74.37.24.17-.97.8-1.1.91-.47.38-.86.91-.98,1.51-.04.88,1.08,1.51,1.8,1.76-.13,1.2.3,2.08,1.63,1.92.76-.09,1.39-.9,2.13-.22.21,2.05,2.1,2.37,3.62,1.3"/>
        <path class="cls-14" d="M40.44,30.62c.38.45,1.62,2.21.46,2.37-.61-.11-1.33-1.79-1.21-2.24.03-.11.22-.3.34-.34.25-.08.28.04.41.21"/>
        <path class="cls-14" d="M40.07,78.04c.47.39.57,1.09.04,1.48-.34.09-.66.01-.8-.33v-.87c.04-.13.2-.29.33-.33.15-.04.29-.04.44.04"/>
        <path class="cls-14" d="M38.05,31.45c.6-.15,1.71,1.41,1.57,1.96-.12.46-.67.51-.96.23-.07-.07-.77-1.51-.79-1.62-.04-.25-.05-.42.19-.57"/>
        <path class="cls-14" d="M37.46,87.63c-.03.38.13.91-.19,1.19-.28.26-.55.05-.71-.23.21-.51.21-1.11.89-.96"/>
        <path class="cls-10" d="M33.21,31.76c.46-.29.92-.59,1.36-.9.27-.2,1.92-1.45,1.96-1.57.05-.17,0-.39,0-.58-.33.02-.57.26-.88.36-.67.22-1.47.36-2.18.29-.7-.05-3.32-1.17-3.84-1.63-.09-.09-.12-.2-.16-.31-.32,0-.61.12-.9.23.53,2.09,2.5,3.28,4.64,4.1"/>
        <path class="cls-8" d="M28.58,27.65c-.18.07-.37.13-.56.15-.77.08-1.57-.03-2.33-.12-.2.11-1.13.98-.87,1.15,1.83.2,1.67,2.19,2.22,3.52,1.16-.42,2.21.17,3.35.36.41.07.84.04,1.25.14.49-.41,1.03-.76,1.58-1.11-2.14-.83-4.11-2.01-4.63-4.1"/>
        <path class="cls-5" d="M35.43,26.76c.14.12.87.92.72,1.03-1.01.25-1.95.7-3.04.5-.41-.08-.74-.4-1.13-.55-.31-.13-.66-.15-1-.3-.51-.24-.82-.71-1.28-.93-1.03.6-1.79.8-3,.78-.2-.01-.37.09-.32-.2.89-.92,1.9-1.83,3.06-2.4,1.09.24,2.36.05,3.42.48.5.21,2.19,1.24,2.58,1.6"/>
        <path class="cls-14" d="M35.01,63.45c.29,0,.52.23.52.52s-.23.52-.52.52-.52-.24-.52-.52.24-.52.52-.52"/>
        <path class="cls-14" d="M33.75,73.28c.18,0,.34.15.34.34s-.15.34-.34.34-.34-.15-.34-.34.15-.34.34-.34"/>
        <path class="cls-12" d="M29.32,19.07c-.7-.61-1.66-1.85-1.64-2.81,0-.17.03-.29.08-.4-1.18-1.27-2.17-2.74-2.96-4.37-.02.14-.07.25-.17.27-.74-.05-1.38-1.9-.98-2.35.12-.02.2-.01.28.02-1.15-3.03-1.75-6.42-1.95-9.78h-3.16c-.07.54-.33,1.11-.54,1.61-.51,1.15-1.16,2.44-1.94,3.41-.05.27.13.2.33.2.27-.01.5-.04.76-.11.34.2.5.4.48.82-.07,1.51-2.56,3.39-3.65,4.31l.75.02.17.13c.5.83-.43,2.61-.79,3.43.12.1,1.01-.18,1.16.21.66,2.03-1.41,3.68-2.95,4.59-.13.09-.23-.02-.17.29h2.02s.13-.15.24-.12c.47.09.39,1.36.35,1.75-.07.7-.51,1.44-.78,2.08l.9-.18c.38.98,0,2.02-.64,2.8-.45.53-1.02.72-1.44,1.24.58.08,1.7-.39,2.16-.01.42.34-.05,1.22-.01,1.7.37-.17.74-.38,1.1-.59.22-.13.62-.52.75-.56.84-.25,1.07,1.36,1.36,1.86.05.09.54.73.59.74.65.12,1.1-.66,1.41-.66h1.89c-.46-.82-.6-1.66-.52-2.6.61-.11.46.37.63.74.28.63.59,1.29,1.13,1.73l1.89-1.88c-.92-.58-2.42-2.41-2.35-3.51.03-.47.34-.83.67-.29.37.57.66,1.24,1.1,1.77.37.46.89.78,1.16,1.32.3,0,1.17-.86,1.51-1.1,1.14-.81,2.05-1.28,3.5-.86-1.08-1.28-2-3.11-1.75-4.82M18.5,19.86c-.13.7-.59,1.59-1.3,1.82-.17-.12-.21-.24-.21-.46s.7-1.86.85-2.15c.08-.13.28-.49.4-.51.48-.11.32,1.02.26,1.3M18.16,12.61c-.22.2-.54.24-.83.18-.3-.09-.23-.54-.15-.77.13-.39,1.17-1.57,1.49-2.03.12-.18.21-.57.3-.66.55-.56.68.25.6.78-.11.62-.94,2.09-1.41,2.5M20.12,21.74c-.35.26-.54.25-.75-.15-.05-.21-.04-.41-.02-.62.04-.32.51-2.04.64-2.36.08-.2.16-.33.34-.45.24-.05.51.55.55.74.14.67-.22,2.42-.76,2.84M20.21,13.58c-.86-.58.26-1.65.54-2.43.17-.49.21-1.16.38-1.57.09-.18.2-.34.42-.29.58,1.42.16,3.65-1.35,4.29M27.81,23.45c-.63.33-1.91-1.09-2.2-1.59-.25-.47-.49-1.33-.08-1.74.34-.08,1.27,1.35,1.5,1.62.38.47,1.49,1.12.77,1.71"/>
        <path class="cls-3" d="M24.11,9.55c.27.19.76,1.41.69,1.96.79,1.62,1.78,3.1,2.96,4.37.17-.37.6-.33,1.1-.26.13.02.29.17.26-.07-.35-.08-.7-.68-.88-1-.43-.75-1.35-2.49-.38-3.04l.09-.26c-1.16-.38-2.44-1.92-2.21-3.2.05-.3.33-.37.38-.54.09-.32-.33-.51-.49-.78-.47-.74-1.23-2.63-1.04-3.47.08-.35.35-.55.7-.61l.84.2c-.54-.93-.86-2.12-.9-3.2h-3.23c.19,3.36.8,6.75,1.94,9.79.06.02.12.05.19.1"/>
        <path class="cls-14" d="M29.89,58.14c.37,0,.67.31.67.67s-.3.68-.67.68-.69-.3-.69-.68.3-.67.69-.67"/>
        <path class="cls-14" d="M27.87,83.59c.27.07.25.82.14,1.04-.21.22-.6.32-.83.1-.39-.39.27-1.26.69-1.14"/>
        <path class="cls-14" d="M27.04,21.74c.38.47,1.49,1.12.77,1.71-.63.33-1.91-1.09-2.2-1.59-.25-.47-.49-1.33-.08-1.74.34-.08,1.27,1.35,1.5,1.62"/>
        <path class="cls-14" d="M27.78,36.68c.63-.1.61,1.6-.4,1.27l-.22-.32c-.03-.46.17-.82.62-.96"/>
        <path class="cls-8" d="M25.47,30.93l.51,1.63-2.72,1.17-5.35-1.17.87-1.09c2.22.2,4.58.29,6.69-.54"/>
        <path class="cls-14" d="M25.21,77.01c.11,1.04-1.59.78-2.22,1.03l-.12.14c.4.76-.4,1.61-1.15,1.72-.34.05-.66,0-1,.04-6.72.92-13.45,1.83-20.2,2.61-1.24.14-2.48.42-3.73.38v-1.04l24.89-3.26c-.58-1.78.38-1.78,1.83-1.96l-1.15-1.51c.25-.62.76-1.12.76-1.87-.29.24-.71.4-.98.64-.37.34-.18.68-1.01.5-.4-.09-2.08-.78-2.54-.99-.2-.09-.41-.18-.57-.35-.67-.73.6-1.58.4-1.76-.54.04-2.26.1-2.03-.78.11-.45.66-1.24.88-1.73.08-.17.2-.44.17-.61l-2.2,1.14-.36-.18.34-2.13c-.6.23-1.03,1.26-1.69,1.17l-.47-2.09c-.17-.04-.14.13-.18.26-.15.38-.18,1.14-.66,1.17-.73-.22-3.12-.36-2.77-1.48l.88-.94-1.43-.65c-.47-.61.21-.85.41-1.27.08-.15.29-.96.24-1.01l-1.63.92-.34-.2-.12-1.9c-.96.17-.85,1.94-1.97,1.51l-.51-1.9c-.13-.18-.23,0-.28.17-.12.32-.18.65-.36.95l-.34.2c-.18,0-2.25-.71-2.45-.82s-.32-.32-.34-.54c.19-.32.6-.42.51-.86-.55-.18-2.17.08-2.33-.49-.14-.46.7-1.02.63-1.6-.91-.09-1.59,1.04-2.39.91l-.35-1.44-.49.41v-1.7l.88-.63c.97-.18.25,1.72.43,2.2.58-.45,2-.98,2.61-.46.5.49.11.95,0,1.5,1.27.27,3.06.29,1.7,1.95.54,0,1.07.51,1.5.65.14.05.32-1.98,1.24-1.37.16.24.29.5.41.76.12.27,0,.58.36.48,0-.12.04-.23.13-.33.53-.6,1.33-1.61,2.19-1.08.39.7-.1,1.45.03,2.19.73-.17,1.01-.68,1.84-.46,1.08.29-.37,1.8-.4,2.34l1.78.89c.52.92-.08,1.08-.61,1.66l1.42.39c.16-.4.36-1.87.98-1.7.3.08.17.84.21,1.1.07.41.23.83.25,1.25l2.28-1.43c1.14.16-.38,2.02-.2,2.21.85-.23,1.67-.77,2.59-.63.46.99-.78,1.83-.76,2.85,2.06-.48,3.17.29,1.57,2.09.32.08.64.17.95.29.35.13,1.09.54,1.36.6.71.14,1.78-1.46,2.63-1.01.28.39-.9,2.06-.76,2.63l1.82,2.25h0Z"/>
        <path class="cls-14" d="M24.95,35.69c.42.46.39,2.53-.33,2.55-.51,0-.32-1.36-.33-1.77,0-.35-.17-.61,0-.97l.65.2h.01Z"/>
        <path class="cls-5" d="M24.82,29.95c.41.19.61.38.08.6-1.74.68-3.97.47-5.81.51.36-.47,1.16-1.35,1.76-1.42.42-.07.68.11,1.03.12.89.04,2.14-.16,2.94.2"/>
        <path class="cls-14" d="M24.11,9.55c.34.24,1.04,2.12.51,2.23-.74-.05-1.38-1.9-.98-2.35.21-.04.3.01.47.12"/>
        <path class="cls-5" d="M7.47,32.18c-2.86-1.99-7.35-2.13-10.68-2.82v2.72c4,.22,7.96.7,11.89,1.2-.38-.36-.71-.76-1.21-1.11"/>
        <path class="cls-3" d="M84.98,41.75c-3.7-2.77-8.97-1.63-13.81-3.9-.48.65-1.19,1.28-1.39.44-.03-.28.2-.61.5-.91-.32-.18-.64-.39-.96-.61-.06.08-.11.16-.17.24-.19.34-.5,1.34-.99,1.21-.47-.12-.17-1.29.36-2.02-2.26-1.76-5.58-3.14-9.24-4.03-.05,0-.09.03-.14.04l.08,1.45,1.12.12c.72.93-.78.98-1.44,1.05-.67.08-1.26.1-1.82.07-1.1-.04-2.07-.27-3.34-.52-.17-.03-.88-.26-.91-.39.04-.29.36-.42.51-.68.15-.26.33-.77.47-1.09.06-.14.23-.53.37-.92-2.86-.29-5.7-.26-8.25.16-.15.45-.42.84-.7.75-.24-.07-.33-.29-.33-.56-.43.09-.85.19-1.25.3-.08.03-.15.05-.23.08-.06.23-.17.4-.31.44-.16-.02-.29-.1-.4-.19-.48.17-.96.33-1.44.47-.07.11-.18.2-.39.23-.05,0-.09-.04-.14-.07-.38.11-.76.22-1.14.32,0,.06,0,.12,0,.16-.12.46-.68.51-.96.23,0,0-.04-.06-.07-.12-2.25.54-4.49.9-6.71,1.1-.67.53-1.42,1.09-1.68,1.25-.24.13-.97.52-1.09.08-.09-.34.57-.81,1.16-1.2-2.22.14-4.43.14-6.64.05-4.77-.19-9.52-.81-14.3-1.43l.04.43c-.28-.14-.49-.32-.7-.51-3.93-.5-7.89-.98-11.89-1.2v8.23l11.4-.38c.33-1.25,1.12-2.4,2.36-2.88l.33.2-.02.25-1.68,2.3c1.2-.03,2.39.04,3.59,0,3.33-.1,6.7-.41,10.03-.53.62-.02,1.24-.04,1.85-.05,3.61-.08,7.21-.05,10.79-.34.37-.03.75.02,1.11,0l-.39-2.22c.91-.13,1.15,1.38,1.17,2.09h1.43l-.39-2.35c.98.07,1.1,1.58,1.04,2.35l1.57-.13c-.08-.63-.27-1.25-.26-1.89,0-.2-.1-.37.2-.33.91.15.79,2.06,1.05,2.1h1.48c-.54-2.01,1-2.09,1.05-.14l7.99-.27c.35-.11.16-1.47.79-1.55.76.17.18,1.58.34,1.82l1.22.28c.25-.93,1.01-1.85,2.02-1.85.04,0,.1,0,.14,0-.15.72-.96,1.18-1.16,1.91-.08.3.59.26.71.42.37-.55.54-1.34,1.37-1.29l-.52,1.57,5,1.45c.18-.36.41-.58.86-.53l-.13.78,8.8,2.61-.45-2.27.32-.21c.86.64.91,1.77,1.26,2.71.08.08.79.26.96.28.21.03.22.02.18-.18-.12-.89-.32-1.77-.25-2.67.47-.05.79.4.95.8.29.74.22,1.54.23,2.32l6.25,1.44c.03-.88.52-2,1.55-1.83.2.84-.63,1.3-.65,2.09l1.03.12c.29-.9,1.02-2.07,2.1-1.95.26.26-1.34,1.86-1.18,2.35l7.17,1.83v-3.03c-2.14-1.34-4.29-2.68-6.43-3.75M.25,37.57c-.5.12-1.16-1.89-1.12-2.27.02-.16.09-.24.21-.33,1.07.16,1.63,1.85.91,2.6M3.06,38.04c-.12.1-.36.08-.51.04-.37-.73-.34-1.58-.6-2.33-.11-.29-.88-1.53-.72-1.7.88,0,1.42.73,1.7,1.49.16.47.58,2.17.13,2.49M4.61,37.44c-.16-.68-.26-1.58.08-2.22.08-.15-.01-.32.25-.25.64.27.71,2.58-.33,2.47M7.3,37.98c-.04.12-.83,1.24-.91,1.3-.16.11-.26.16-.47.12-.46-.51.65-2.24,1.44-2.09.01.23.01.45-.05.66M16.08,37.31c-.63.1-.64-.65-.82-1.08-.12-.29-.59-.58-.16-.87.88.33,1.37,1.01.98,1.95M17.78,38.23c-.96,0-.71-1.36-.79-2.01-.03-.27-.24-.54-.24-.79-.01-.75.7-.51,1.01.02.5.84.29,1.91.02,2.78M19.8,38.23c-.45-.1-.57-2.02.32-1.83.22.34.22,1.96-.32,1.83M22.77,38.35c-.59.16-.63-.91-.73-1.33-.09-.36-.49-.76-.03-1.14.96.07,1.6,2.23.76,2.47M24.62,38.24c-.51,0-.32-1.36-.33-1.77,0-.35-.17-.61,0-.97l.65.2c.42.46.39,2.53-.33,2.54M27.37,37.96l-.22-.32c-.03-.46.17-.82.62-.96.63-.1.61,1.6-.4,1.27M48.27,35.74l-.34.13c-.33,0-1.1-1.03-1.09-1.36.07-.43.54-.59.88-.28.22.2.73,1.26.54,1.51M50.03,34.83c-.32.07-.57-.05-.68-.34-.05-.24-.1-.89.17-.96.55-.15,1.04.98.51,1.29M61.49,38.35c-.86.25-1.31-1.83-.96-2.07.09-.05.3,0,.42,0,.36.12,1.07,1.9.53,2.05M63.97,38.49c-.57.12-.82-1.4-.84-1.75-.02-.27-.09-1.32.2-1.37.16-.03.55.24.64.39.29.46.63,2.59,0,2.73M66.62,38.01c-.05.24-.24.47-.45.61-.38-.08-.53-.5-.58-.84-.04-.46-.03-2.44.48-2.54.66-.14.64,2.35.54,2.77M77.6,42.21c-.12.13-.18.24-.39.2-.34-.87-.05-2.32,1.04-2.35.22.22-.43,1.91-.65,2.15M80.06,42.38c-.5.11-.69-.05-.63-.55.09-.75.51-1.25,1.3-1.12.05.64-.45,1.12-.67,1.67"/>
        <path class="cls-5" d="M20.35,34.16c-3.09-.49-5.66-2.04-8.61-2.95l-2.88,1.15.48.95v.06c4.78.61,9.53,1.23,14.3,1.43l-.33-.35c-.78,0-2.33-.2-2.96-.29"/>
        <path class="cls-5" d="M16.46,76.55c1.35.68,3.13.93,5.06,1.03.1-.74.91-.78,1.98-.91l-1.15-1.51c.25-.62.76-1.12.76-1.87-.29.24-.71.4-.98.64-.37.34-.18.68-1.01.5-.4-.09-2.08-.78-2.53-.99-.2-.09-.41-.18-.57-.35-.67-.73.6-1.58.4-1.76-.54.04-2.26.1-2.03-.78.11-.45.66-1.24.88-1.73.08-.17.2-.43.17-.61l-2.2,1.14-.36-.18.34-2.13c-.6.23-1.03,1.26-1.69,1.17l-.47-2.09c-.17-.04-.14.13-.18.26-.15.38-.18,1.14-.66,1.17-.73-.22-3.12-.36-2.77-1.48l.88-.94-1.42-.65c-.47-.61.21-.85.41-1.27.08-.15.29-.96.24-1.01l-1.63.92-.34-.2-.12-1.9c-.96.17-.85,1.94-1.97,1.51l-.51-1.9c-.13-.18-.23,0-.28.17-.12.32-.18.65-.36.95l-.34.2c-.18,0-2.25-.71-2.45-.82s-.32-.32-.34-.54c.2-.32.6-.42.51-.86-.55-.18-2.17.08-2.33-.49-.14-.46.7-1.02.63-1.6-.91-.09-1.59,1.04-2.39.91l-.35-1.43-.5.4v2.55c7.93,3.36,14.49,9.57,19.67,16.48"/>
        <path class="cls-3" d="M21.53,77.58c-1.93-.1-3.71-.35-5.06-1.03-5.19-6.91-11.75-13.12-19.68-16.48v21.82l24.89-3.26c-.15-.46-.19-.79-.16-1.05M-.27,70.81c-.62.14-1.1-2.25-1.37-2.67-.02-.13.1-.28.21-.32.59-.17.99.74,1.16,1.16.25.61.57,1.33,0,1.83M2.06,71.33c-.16.04-.27-.01-.38-.13-.32-.33-.62-2.53-.75-3.15-.05-.25-.43-.91-.03-1.01.65-.17,1.08,1.38,1.17,1.82.1.42.53,2.33-.01,2.48M3.77,70.68c-.58-.15.24-1.45.39-1.69.34-.51.85-1.21,1.49-1.3.27.28-.93,1.84-1.14,2.16-.18.28-.3.95-.74.83M5.13,71.59c-.1-.7.15-1.07.65-1.5.27-.24,1.34-1.02,1.63-.59.37.52-.85,1.19-1.17,1.44-.37.29-.53.77-1.11.65M6.83,72.84c.04-.43.48-.75.87-.84.2-.04.51-.09.64.1.49.72-1.6,1.8-1.51.74"/>
        <path class="cls-14" d="M22.01,35.88c.96.07,1.6,2.23.76,2.47-.59.16-.63-.91-.73-1.33-.09-.36-.49-.76-.03-1.14"/>
        <path class="cls-14" d="M21.55,9.3c.58,1.43.16,3.65-1.35,4.29-.86-.58.26-1.65.54-2.42.17-.49.21-1.16.38-1.57.09-.18.2-.34.42-.29"/>
        <path class="cls-14" d="M20.88,18.9c.14.67-.22,2.43-.76,2.84-.35.26-.54.25-.75-.15-.05-.21-.04-.41-.02-.62.04-.32.51-2.04.64-2.36.08-.2.16-.33.34-.45.24-.05.51.55.56.74"/>
        <path class="cls-14" d="M20.12,36.4c.22.34.22,1.96-.32,1.83-.45-.1-.57-2.02.32-1.83"/>
        <path class="cls-14" d="M18.98,9.33c.55-.55.68.25.6.78-.11.62-.93,2.09-1.41,2.5-.22.2-.54.24-.83.18-.3-.09-.23-.54-.15-.77.13-.39,1.17-1.57,1.49-2.03.12-.18.21-.57.31-.66"/>
        <path class="cls-14" d="M18.24,18.55c.48-.11.31,1.02.26,1.31-.13.7-.59,1.59-1.3,1.82-.17-.12-.21-.24-.21-.46s.7-1.86.85-2.15c.08-.13.28-.49.4-.51"/>
        <path class="cls-6" d="M18.56,29.95l-1.1,1.51c-.2.26-.28.6-.45.87-.04.07-.01.26-.22.16-.1-.05-.35-.49-.52-.65-1.23-1.21-3.45-1.42-5.08-1.16-1.06.17-2.22.6-3.26.87-2.12-1.96-5.24-2.35-7.96-2.95l-3.18-.41v-2.99c1.14.43,2.64,1.58,3.85,1.7,1.34.13,2.89-.39,4.21-.62,1.71-.29,3.36-.54,5.11-.42l-1.41.67v.48c.69.5,1.25.14,1.87.14.35,0,.71.16,1.18.14.43-.02,2.65-.53,2.79-.39-.66,2.98,1.03,1.83,2.61.91.14.58.46,1.62.99,1.94.16.1.58.13.58.21"/>
        <path class="cls-14" d="M17.76,35.44c.5.84.29,1.91.02,2.78-.96,0-.71-1.36-.79-2.01-.03-.27-.24-.54-.24-.79-.01-.75.7-.51,1.01.02"/>
        <path class="cls-13" d="M15.95-.35h2.09c-.09.47-.33,1.07-.54,1.48-.54,1.09-1.74,2.68-2.65,3.47-.32.28-1.04.54-1.11.99.06,1.4,1.62.52,2.45.35.11-.02.38-.1.42.03-.91,1.17-2.1,2.11-3.35,2.91-.54.35-2.45,1.1-2.24,1.88.3,1.19,3.21-.21,3.37-.03.12,1.23-.84,2.14-1.29,3.19l.21.47,1.48-.21c-.26,1.14-1.28,1.87-2.17,2.52-.78.58-2.03,1.01-2.12,2.11,1.26.07,2.48.54,3.77.39.14,1.4-.7,2.45-1.68,3.32-.5.45-1.57.73-1.05,1.58.7.46,2.04-1.1,2.87-.99.04.27-.15.58-.34.77-.34.37-2.56,1.62-2.98,1.58-1.86-1.3-3.93-.22-5.94-.13-.02-.33.03-.66,0-.98-.28-3.2-.15-6.44-.25-9.65-.03-.93-.58-2.21.47-2.77,1.6.47,3.16-1.21,3.04-2.76,1.8.07,2.94-1.28,2.34-3.05.3-.22.78-.54.98-.87.24-.41.12-.88.26-1.17.09-.16.87-.62,1.08-.82.11-.1.13-.34.29-.42.21-.1.47-.03.68-.09,1.36-.36,2.45-1.66,1.93-3.1"/>
        <path class="cls-14" d="M17.11,50.57c.21,1.89-2.18,1.59-1.12-.2l.67-.16.45.36Z"/>
        <path class="cls-14" d="M15.11,35.37c.88.33,1.37,1.01.98,1.95-.63.1-.64-.65-.82-1.08-.12-.29-.59-.58-.16-.87"/>
        <path class="cls-3" d="M8.47,8.36c1.1-.07,1.46-.5,1.51-1.3-.71.31-1.41.5-2.12.61.22.25.42.51.61.69"/>
        <path class="cls-12" d="M-.83-.35h-2.38v11.34c.5-.06,1.3-.46,1.63-.78.32-.3.49-.82,1.07-.89.94-.11.35,1.14.3,1.49-.1.87.64,1.46,1.48,1.2.27-.08.41-.59.79-.5.47.04.4.59.65.79l.39.13c.68-.05,1.34-1.3,1.86-1.69.24-.07.49.2.76.24,1.28.21,2.14-1.76,1.28-2.72-.16-.18-.52-.33-.76-.52-2.04-.1-4.07-.87-6.11-1.88C-1.28,4.43-1.3,2.04-.83-.35"/>
        <path class="cls-3" d="M14.52-.35H-.83c-.47,2.39-.46,4.78.98,6.21,2.04,1.02,4.07,1.79,6.11,1.88-.17-.14-.27-.31-.15-.54.68-.6,1.26-.1,1.75.46.71-.1,1.41-.29,2.12-.61.02-.24,0-.51-.02-.81l-.52-.54c.22-.3.59-.14.91-.25.32-.1.75-.59.78-.92l-.26-.9c.19-.29.53-.13.85-.33.52-.33.98-1.6,1.55-1.58.47,0,.57.3,1.07-.16.6-.55.49-1.24.17-1.91"/>
        <path class="cls-14" d="M13.87,84.95c.43.28.33.89-.2.98-1.08.18-.88-.91.03-1.02l.16.04h.01Z"/>
        <rect class="cls-7" x="12.56" y="26.11" width=".39" height=".13"/>
        <path class="cls-7" d="M12.23,18.42c.09,0,.09.13,0,.13-.08,0-.08-.13,0-.13"/>
        <path class="cls-14" d="M8.34,72.11c.49.72-1.6,1.79-1.51.74.04-.43.48-.75.87-.84.2-.04.51-.09.64.1"/>
        <path class="cls-14" d="M7.42,69.51c.37.52-.85,1.19-1.18,1.44-.37.29-.53.77-1.11.65-.1-.7.15-1.07.65-1.5.27-.24,1.34-1.02,1.63-.59"/>
        <path class="cls-14" d="M7.35,37.31c.01.23.01.45-.05.66-.04.12-.83,1.24-.91,1.31-.16.11-.26.16-.47.12-.46-.51.65-2.24,1.44-2.09"/>
        <path class="cls-14" d="M5.95,45.22c.02-.57,1.05-.61,1.14-.27-.01.53-.53.83-1.03.7l-.11-.42h0Z"/>
        <path class="cls-14" d="M5.65,67.69c.27.28-.94,1.84-1.14,2.16-.18.28-.3.95-.74.83-.58-.15.24-1.45.39-1.69.34-.51.85-1.21,1.49-1.31"/>
        <path class="cls-14" d="M4.94,34.98c.64.27.71,2.58-.33,2.47-.16-.68-.26-1.58.08-2.22.08-.15-.01-.31.25-.25"/>
        <path class="cls-15" d="M4.36,25.38l-1.18.34-.26-12.17,1.16-.48c-.01.24.03.49.01.72-.25,2.73.02,5.84.13,8.6.03,1-.13,2.02.13,2.99"/>
        <path class="cls-14" d="M2.92,35.55c.16.47.58,2.18.13,2.49-.12.1-.36.08-.51.04-.37-.73-.34-1.58-.6-2.33-.11-.29-.88-1.53-.72-1.7.88,0,1.43.73,1.7,1.49"/>
        <path class="cls-14" d="M2.08,68.85c.1.42.53,2.33-.01,2.48-.16.04-.27-.01-.38-.13-.31-.33-.62-2.53-.75-3.15-.05-.25-.43-.91-.03-1.01.65-.17,1.08,1.38,1.18,1.82"/>
        <path class="cls-13" d="M2.14,19c.04,2.37-.04,4.74,0,7.11-1.96.16-3.42-1.44-5.35-1.57v-12.64l1.96-.65c-.04,1.07,1.04,1.87,2.04,1.91.37.01.81-.29,1.22-.23.03,1.72-.04,3.45-.01,5.16.01.32.14.59.14.9"/>
        <path class="cls-14" d="M-.66,34.98c1.07.16,1.63,1.85.91,2.6-.5.12-1.16-1.89-1.12-2.27.02-.16.09-.24.21-.33"/>
        <path class="cls-14" d="M-.47,46.23c.6-.08,1.12.39.75.96-.89.7-1.91-.39-.75-.96"/>
        <path class="cls-14" d="M-.27,68.98c.25.61.57,1.33,0,1.83-.62.14-1.1-2.25-1.37-2.67-.02-.13.1-.28.21-.32.59-.17.99.74,1.16,1.16"/>
      </g>
    </g>
  </g>
</svg>