<?xml version="1.0" encoding="UTF-8"?>
<svg id="Layer_1" data-name="Layer 1" xmlns="http://www.w3.org/2000/svg" xmlns:xlink="http://www.w3.org/1999/xlink" viewBox="0 0 90 90">
  <defs>
    <style>
      .cls-1 {
        fill: #abe0f9;
      }

      .cls-2 {
        fill: #c1ca71;
      }

      .cls-3 {
        fill: #bfbebe;
      }

      .cls-4 {
        fill: #b6c370;
      }

      .cls-5 {
        fill: #98a951;
      }

      .cls-6 {
        fill: #d4d5dd;
      }

      .cls-7 {
        fill: none;
      }

      .cls-8 {
        fill: #b7aca2;
      }

      .cls-9 {
        clip-path: url(#clippath-1);
      }

      .cls-10 {
        fill: #828d53;
      }

      .cls-11 {
        fill: #908881;
      }

      .cls-12 {
        fill: #727849;
      }

      .cls-13 {
        fill: #849a52;
      }

      .cls-14 {
        fill: #663925;
      }

      .cls-15 {
        fill: #c28966;
      }

      .cls-16 {
        fill: #b7c471;
      }

      .cls-17 {
        fill: #986749;
      }

      .cls-18 {
        fill: #a69b91;
      }

      .cls-19 {
        clip-path: url(#clippath);
      }
    </style>
    <clipPath id="clippath">
      <rect class="cls-7" width="90" height="90"/>
    </clipPath>
    <clipPath id="clippath-1">
      <rect class="cls-7" x="-2.18" y="-.35" width="94.35" height="90.71"/>
    </clipPath>
  </defs>
  <g class="cls-19">
    <g class="cls-9">
      <g>
        <path class="cls-1" d="M92.38-.35v94.75H-2.38v-.13H14.44c7.78,0,15.54.01,23.32.01,11.21,0,22.43,0,33.64-.01.41,0,.65-.1.91-.13.26-.02.77.13,1.17.13h18.76c.01-3.47,0-6.95,0-10.42v-1.44c.01-10.91,0-21.82,0-32.71V12.3c0-.28-.13-.54-.13-.65,0-.42.13-1.12.13-1.7V-.35h.14Z"/>
        <path class="cls-8" d="M92.24,85.06v-1.21c-.31-.02-.61-.11-.91-.2-1.02-.3-2.91-1.12-3.85-1.23-1.78-.21-3.56.08-5.4-.47-.35-.1-1.16-.52-1.16-.91v-2.54c-1.54-.13-3.22.54-4.63-.25.03-.63-.35-1.18-.33-1.77.03-1.29.86-2.64.59-3.97-.87.59-1.83,1.68-2.83,1.99-.39.13-.85.16-1.27.29-3.77,1.15-7.68,2.65-11.64,2.83l-.79.65c11.23,1.93,21.21,10.31,32.23,6.79"/>
        <path class="cls-11" d="M60.01,78.27l-3.63,3-1.14,4.61.13.38,3.72,1.75c.17,0,1.89-1.39,2.28-1.62.39-.22.97-.6,1.27-.12l.15,1.87c.41.08.64-.27.96-.41.46-.21,2.09-.97,2.47-.87l.29.24c.35.7-1.04,2.27-.6,2.95,1.3,1.19,3.16,1.17,4.73,1.77.79.3,1.47.84,2.22,1.17.29.12.89.13.99.45.12.42-.04.61-.37.83h18.76c.01-3.07,0-6.14,0-9.21-11.02,3.52-21-4.86-32.23-6.79"/>
        <path class="cls-14" d="M92.24,82.41v1.43c-.3-.02-.61-.11-.91-.2-1.02-.3-2.92-1.12-3.85-1.23-1.78-.21-3.56.08-5.41-.47-.35-.1-1.16-.52-1.16-.91v-2.54c-1.54-.13-3.22.54-4.63-.25.03-.63-.35-1.17-.33-1.77.03-1.29.86-2.64.59-3.97-.87.59-1.83,1.67-2.83,1.99-.39.13-.85.16-1.27.29-3.77,1.15-7.68,2.65-11.64,2.83l-4.43,3.65-1.14,4.61.13.38,3.72,1.75c.17,0,1.89-1.39,2.28-1.62.39-.22.97-.6,1.27-.12l.15,1.87c.41.08.64-.27.96-.41.46-.21,2.09-.97,2.47-.87l.29.24c.35.7-1.04,2.27-.6,2.95,1.3,1.18,3.16,1.17,4.73,1.77.79.3,1.47.84,2.22,1.17.29.12.89.13.99.45.12.42-.04.61-.37.83-.4,0-.91-.15-1.17-.13-.4-.3-.87-.67-1.3-.91-1.76-.96-4.42-1-5.93-2.47-.73-.71.42-1.86.33-2.74-.48-.04-.9.24-1.3.46-.36.18-1.21.9-1.39.96-.97.29-.35-1.52-.7-2.07-.13-.15-1.95,1.56-2.16,1.67-1.34.75-3.35-1.39-4.38-1.26-.28.04-1.6.45-1.92.57-1.52.54-3.15,1.45-4.69,2.09-.8.33-2.74,1.27-3.47,1.36-.16.02-.35.03-.51.01-.49-.08-1.05-1.44-.98-1.96-.27-.4-4.78,2-5.38,2.24-.22.09-.5.24-.75.24-.15,0-.28-.05-.39-.18-.57-.71.68-.97,1.05-1.32v-2.68h-2.54c-.3,0-1.64,1.41-2.24,1.53-.78.17-.7-.17-1.14-.49-1.26-.88-2.23-1.05-3.78-.91-.53.04-1.81.55-2.09,0v-.39c.22-.71,1.92-.9,2.55-.97.52-1.58,1.12-3.25,2.5-4.27l3.18-.35h.12c1.19-.13,2.41.2,3.36.93.53.41.74,1,1.32,1.27,1.64-1.45,3.36-3.14,5.38-4.01l10.13,1.42c.35-.54.24-1.33.67-1.83.47-.55,4.54-3.56,5.18-3.82l4.66-.68,1.37-3.33c-.75.13-2.77,1.35-3.37,1.27-.55-.07-1.4-.92-1.78-1.34-.23-.26-.59-1.09-.97-.97-.59.75-1.28,1.41-1.89,2.14-.49.58-1.14,1.72-1.63,2.15-.12.11-.27.2-.42.23-1.01.23-.87-.54-1.18-1.23-.11-.24-.7-1.48-.8-1.54-.59-.36-2.44.47-3.16.43-.89-.16-1.2-2.28-2.11-2.2-.32.02-1.09,1.29-1.37,1.63-.73.85-1.61,1.54-2.02,2.66-1.58.78-3.46.88-5.16,1.37l-6.58,2.81c-1.71-.57.28-1.28.08-2.34-.2-.01-.38-.02-.57.02-.71.17-2.76.93-3.44,1.25-1.19.57-2.99,2.02-4.29,2.23-1.2.2-1.72-.4-.97-1.42-.41-.01-.91-.32-1.27-.37-.63-.08-.52-.01-1.21-.22-1.36-.39-4.76-.49-6.12-.13-.61.16-1.25.6-1.89.6s-1.37-.61-2.07-.65l-.22.32.65,7.36c.21.24.86-.91.98-1.04.32-.36.7-.86,1.21-.55.6.29.66,1.84.89,1.87.45.1.57-.27.85-.46.45-.29,1.78-1.17,2.14-.47.34.51-.42,1.51-.33,1.88.03.11.16.2.29.18.5-.02.99-.32,1.52.09.45.43.48,1.05.45,1.63.37.23.84.28,1.18.52.31.2.88.77.38,1.03l-.36.11c-1.08-.63-3.32-.53-2.16-2.25l-.22-.3-1.88.32c-.52-.33.34-1.74.14-2.29-.89-.16-1.83,2.06-2.62,1.51l-.71-2.03c-.93.87-1.12,2.26-1.37,3.46l.78,4.75h-2.35c-.41-.51-1.32-.52-1.95-.72-.51-.15-1.16-.51-1.64-.58-.8-.1-2.13.05-2.97.14-.66.07-1.73.65-1.63-.52l.77-.36.77-8.12c-.68-.16-2.27,1.01-2.77.89-.72-.17-.36-2.42-.67-2.33-.65.22-1.15,1.89-1.83,1.83-.71-.08-1.2-1.96-1.7-1.96-.33.4-.42.79-.54,1.27-.07.24.08.5-.3.42v-2.35c1.1-1.64,1.72-.29,2.4.79.11.11.24.15.39.11.2-.07,1.38-1.89,2.1-1.76,1.01.03,0,2.21.45,2.75.37.26,1.93-.77,2.49-.78.12-.09.24-.84.25-1.04.13-1.51.05-3.06.13-4.57.01-.27.24-.6.08-.85-.17-.26-.53,0-.79.01-.34.01-.68-.03-1.02.01-.54.07-2.35.71-2.54-.11l.12-1.73c-.82-.01-1.61,1.88-2.35,1.5-.52-.48-.45-1.26-.65-1.89-.21-.05-.26.08-.39.2-.3.27-.26.73-.65.72v-1.57c.49-.52,1.11-1.58,1.67-.58-.22.71.2,1.42.28,2.14.2.04.22-.04.33-.13.42-.33,1.8-1.69,2.22-1.7.67-.03,0,1.8.2,2.22,1.17.05,2.39-.63,3.51,0-.04-.14.13-.28.13-.33v-6.19c-1.08-.01-1.89,1.11-2.99,1.25-.53.07-.67-.32-.17-.71.88-.71,2.25-1.21,3.17-1.91v-2.61c-.15-.23-.3-.21-.55-.17-1.66.28-3.93,1.72-5.71,1.35-.7-.14-1.35-.64-2.08-.72v-1.83c.8-.04,1.58.62,2.32.75,1.63.28,4.06-1.14,5.71-1.39l.3-.22c.03-1.52-.16-3.02-.12-4.56.07-2.97.14-5.96.2-8.95.02-1.01.04-2.02.07-3.04.12-6.03.48-12.22-.27-18.23-.46-3.64-1.03-7.73-1.7-11.33-.09-.45-.28-1.77-.64-1.97-.1-.07-.99-.34-1.09-.34-.37.02-1.1.77-1.47,1.02-1.1.74-1.9,1.23-3.31.8v-1.3c.86.4,1.25.34,2.05-.11.46-.25,1.69-1.14,2-1.51.35-.39.39-1.49,1.25-.99.38.32.1,1.07.7,1.25.96.32,2.42-.8,2.75-1.7.27-.75.08-1.65.64-2.28-1.12-.36-2.63-1.47-2.84-2.7-.07-.41.04-.83-.09-1.22-.85-.32-1.63-.58-2.08-1.44C1.32,3,1.66.61,3.29.17c.11.11.21.14.18.3-.04.25-.45.82-.57,1.13-.49,1.37-.23,2.86,1.36,3.2.4.09,1.5-.03,1.64.18.32.53-.27.76-.34,1.11-.15.89.32,1.4,1,1.87.9.63,1.95.5,2.98.67.18.03.33-.01.46.2-.36.87-1.38,1.02-2.22.98.21,1.45,1.76,2.57,3.19,2.48.74-.04,1.41-.51,1.61.61.12.74-.13,1.11.41,1.79,1.04,1.33,2.98.53,3.52,1.04.25.24,0,.58-.01.91-.02.74.51,1.55,1.22,1.8.61.21,1.44.05,2.06-.1.72-.16,1.58-.84,2.22-.13.66.74-.39,2.66,1.37,2.92,1.03.15,1.28-.32,1.75-1.11,1.11-.39.88,1.03,1.08,1.79.36,1.4,1.36,2.38,2.88,2.17.68-.09,1.04-.79,1.56-.74.52.05.45.88,1.42.73,1.03-.16,2.81-1.63,3.33-2.55.25-.41.25-.73.41-1.15.63-.32,1.04-.03,1.62-.59,1.1-1.05.98-3.55-.05-4.62-.47-.49-1.61-.65-1.23-1.49.18-.42.68-.33.9-.52.27-.25.79-1.27.84-1.64.13-.99.1-1.86-.77-2.47l-.2-.08c-.97.4-1.81,1-2.89,1.15-1.15.15-3.03-.16-3.54-1.35-.14-.33-.3-.76.24-.64.63.86,2.21.85,3.17.68.87-.14,2.71-1.33,2.54-2.34-.07-.45-.72-1.27-.37-1.6.36-.32.91-.08,1.25.18.8.65.62,1.85.45,2.74.8.14,2.46-.55,2.87-1.23.23-.36.36-1.41,1.04-.79.43.38.2.85.27,1.36.89.52,2.99-.91,3.31-1.69.14-.38.02-.86.5-1.08.39-.17.79.36,1.21.42,1.2.18,2.4-.51,3.12-1.42.87-1.11.55-2.41.2-3.65h1.42c.59,1.86.28,3.81-1.23,5.09-.43.37-.76.48-1.21.74-.12.08-.18-.01-.17.23.03.96,2.28,3.05,3.21,3.47.32,0,3.01-2.4,3.32-2.82.1-.13.69-1.08.21-.97-.77.18-1.58,1.09-2.49.39l-.07-.59c1.16-1.77,3.04-3.35,3.39-5.55h1.7c.18,1.32.82,2.6,1.69,3.59.6.67,1.39,1.12,1.95,1.84.15.59-.61.38-.94.47-.35.09-.91.26-.88.67.05.65,1.48,3.34,2.15,3.34.29-.39.61-1.22,1.1-1.37.52-.17,1.45-.12,2.01-.21.29-.04,1.64-.27,1.75-.4l.69-1.47c2.09-2.11,4.23-4.17,6.12-6.46h2.21l-6.06,6.52c1.27-.29,2.23-1.2,3.4-1.71,1.17.28.3,1.8,1.91,1.54,2.07-.34,5.25-3.59,6.46-5.28.26-.37.3-.83.8-1.09h.26c.77.6,1.09.79,2.12.63l2.3-.63h4.82V.48c-.29.12-.67.21-.99.25-1.4.2-2.82,0-4.14.15-.78.1-1.69.6-2.49.64-.58.04-1-.18-1.53-.24-1.46,1.72-2.84,3.41-4.8,4.6-1.48.89-4.09,2.26-4.95-.04-.09-.07-.3-.01-.41.01-.7.16-2.75,1.54-3.65,1.96-.84.37-2.02.86-2.89,1.15-.57.18-1.73.34-2.14.59-.41.24-1.1,1.79-1.34,2.32-1.09,2.29-2.03,4.7-2.97,7.06l1.79-1.21c1.39-.21,2.86-.51,4.23,0,.93.34,1.66,1.26,2.64,1.39,1.91.25,4.16-.47,6.1-.4.16-.05.99-1.39,1.2-1.66.83-1.07,2.41-3.16,3.49-3.82.6-.36,1.42-.73,2.08-1.03,3.37-1.6,7.06-3.13,10.78-3.5v1.18c-3.52.85-6.94,2.11-10.21,3.66-1.29.62-2.41,1.13-3.26,2.34-.11.15-.24.3-.21.51h3.85c1.45,0,4.94-2.72,6.33-3.57.96-.59,2.24-1.6,3.37-1.25,0,.11.13.37.13.65-.87.85-2.08,1.36-3.11,2.02-1.34.86-4.74,3.45-6.2,3.45-.36,0-.78-.22-1.17-.26-1.4-.13-2.77.26-4.15.02l-2.29,2.65c-.41.05-.84.09-1.26.1-.57.03-1.12.04-1.67.1-.58.04-1.25.21-1.83.26-.53.04-1.16-.08-1.69,0-.84.13-4.19,2.15-4.69,2.87-.8,1.14-1.07,1.75-2.16,2.8-1.79,1.71-3.81,3.24-5.6,4.95-.41.39-1.44,1.3-1.68,1.72-.36.6-.53,2.23-.65,2.99-.08.43-.51,3.18-.41,3.31.74-.35,1.96-1.57,2.79-1.17.15.08.08.18.07.32-.84.78-2.26,1.67-2.78,2.7-.15.29-.41,1.64-.99,1.24l-.58-.73c-.52.57-1.23,1.11-1.64,1.75-.22.37-.14.4.14.65,2.02,1.76,5.45,1.3,7.99,1.52.27.02.57.17.87.12v.38c-1.67.47-3.4.43-5.09.72-.59.9-1.04,1.89-1.64,2.79-.64.98-1.53,1.82-2,2.88,1.96-.35,3.97-1.21,5.98-.78.02-.16.08-.3.16-.43.48-.78,1.99-2.74,3.02-2.41l.2.41c-.6.67-1.31,1.22-1.95,1.84-.43.43-1.05,1.42-1.69,1.58-.23.05-.5.09-.79.11-.54.03-1.14.02-1.62.09-1.05.13-2.09.37-3.14.5-.33.04-.72-.04-1,.04-.2.05-.36.35-.57.48-1.32.78-2.65.64-3.7,1.77-1.58,1.73-2.88,3.97-4.37,5.8-.79,3.21-1.61,6.44-2.49,9.63-.65,2.31-2.26,4.37-2.9,6.67l4.82-2.02,4.43-1.05c.33-.19.49-.88.73-1.22.47-.7,1.81-2.09,2.47-2.62.17-.13,1.33-.9,1.44-.91.6-.09,1.48.72,1.82,1.18.17.24.3.8.54.89.98.05,2.42-.66,3.34-.22.67.33.86,1.29,1.26,1.87.13.09.27.09.4-.01.2-.13.8-1.14,1.04-1.43,1.02-1.26,1.94-1.89,1.68-3.77-.09-.59-.57-1.32-.51-1.95.02-.24.2-.47.23-.7.45-3.12.97-6.47,1.65-9.55.23-1.05.54-1.77,1.08-2.62.08-.12.15-.24.24-.37.92-1.39,5.05-6.43,6.44-6.85.54-.16,1.25-.18,1.86-.36.89-.25,1.76-.61,2.64-.87.2-.74-.13-3.63.24-4.61.05-.13.12-.23.21-.28.4-.25,1.05.18,1.05.52v3.79c0,.08.18.17.29.16.61-.02,1.46-.33,2.11-.36.92-.05.96.11,1.99-.11,1.04-.23,5.67,2.11,7.3,2.41,1.82.35,3.69,0,5.5.29v2.74c-.93.85-1.67,1.92-2.53,2.87-.47.52-1.59,1.39-1.9,1.88-.21.34-.07.71-.22,1.08-.3.73-2.52,1.92-3.27,2.46-1.09.77-2.08,1.66-3.13,2.48-.82,2.53-1.58,5.1-2.22,7.69-.57,2.28-1.7,6.24-1.84,8.45-.02.28.02.58,0,.86.67-.03,1.35.02,2.02,0,.75-.03,1.54-.23,2.35-.14,1.46.16.17,2.61.71,3.47l3.07.45c2.42-.15,4.71.37,6.97,1.18M89.71,50.6c.35,0,1.81-1.9,1.62-2.08-.88-.03-1.78.05-2.67,0-3.9-.21-6.18-2.29-9.55-2.97-2.62-.52-6.96,1.77-9.59,2.34-1.36,1.32-2.77,2.6-3.86,4.15.5.39,4.12-1.38,4.87-1.57.76.08.6.77.83,1.26.53,1.14,1.85.3,2.7.16.67.09.15,1,1.15,1.34,1.81.61,4.35-1.07,5.36-2.51.23-.33.41-1.19.67-1.27.84-.27,1.12.66,1.7,1,.82.48,2.44.48,3.37.41,1.11-.08,2.31-.59,3.39-.27M87.18,53.95c.29-.71,1.07-1.35,1.42-2.03-2.03.17-4.06.61-6.04-.16-.27-.11-.53-.41-.78-.35-1.65,1.95-4.5,4.05-7.17,2.96-.83-.34-.86-.92-1.85-.89-.53.02-.75.15-1.37-.05-.95-.34-.92-1.05-1.63-1.5-1.74.68-3.53,1.38-5.41,1.63-.13.06-1.83,1.88-1.96,2.08-.2.28-.65,2.71-.65,3.13,0,.32.14.54.11.87-.08.75-.63,1.99-.83,2.84-.25,1.1-.37,2.23-.59,3.33.52,1.74.69,3.4,1.72,4.93.27.4,1.13,1.54,1.6,1.52l4.8-1.94.37.17c.84.85-1.82,4.27-1.57,4.5.47.05.88-.04,1.33-.17,1.19-.32,4.04-1.2,4.97-1.81.83-.54,3.35-2.76,3.7-3.6.75-2.57,1.1-5.64,2.23-8.07.85-1.83,3.13-3.59,4.8-4.71.45-.29,2.36-1.28,2.53-1.51.18-.23.1-.75.26-1.16M65.1,20.92c.29-.17,1.55-.63,1.47-.99-.32-.28-1.02-1.01-1.39-1.1-.38-.08-3.01-.08-3.29.04l-3.2,2.67c-.47.57-.71,1.55-1.18,2.09-.17.21-.5.27-.66.43-.3.3-.57.8-.97,1.07-.94.62-2.62.74-3.74,1.08-.38.11-1.84.62-2.05.8-.22.2-1.21,2.25-1.1,2.36.26.26,3.78-1.94,4.72-1.67.21.07.47.35.72.47.58.26,2.48.6,3.04.36,1.38-1.47,3.35-2.71,4.62-4.24.7-.82.79-1.68,1.63-2.41.37-.32.97-.68,1.39-.95M59.17,16.68c.92-2.1,1.82-4.22,2.71-6.33-1.41-.33-2.93-3.23-2.87-4.5.02-.8.89-.84.77-1.28-.02-.1-1.01-1.11-1.22-1.4-.25-.38-.5-1.1-.72-1.36-.11-.14-.21-.23-.39-.2l-1.44,2.42c.17.05.35-.12.58-.07.12.04.21.18.21.33-.16.88-.12,1.62-.54,2.45-.57,1.12-2.96,3.6-4.14,3.94-1.1.32-.7-.58-1.04-.91-.11-.11-.36-.15-.52-.27-.73-.55-1.32-1.17-1.8-1.97-.27-.45-.55-1.52-1-1.6-.27-.04-1.14-.04-1.37.07-.21.1-.6.76-.92,1.02-1.28,1.08-2.85,1.62-4.45.88l-2,1.02c-.15.22.17.77.21,1.11.16,1.48-.35,2.5-1.18,3.65l.07.18c1.97,1.73,2.02,5.31-.13,6.92-.35.25-.88.35-1.11.58-.25.25-.58,1.03-.91,1.44-.15.2-.35.39-.58.6-.96.89-2.43,1.79-3.52,1.83-.47.01-.9-.27-1.3-.27-.46,0-1.16.38-1.7.4-.34,0-1.18-.2-1.52-.3-1.47-.49-1.96-1.69-2.44-3.03-.27-.18-.68.05-.99.08-1.08.07-2.19-.45-2.48-1.57-.09-.33.03-1.09-.27-1.17-.47.08-.89.33-1.35.46-.46.14-1.02.01-1.38.45l-5.08,7.05c-.34,3.13-.34,6.3-.46,9.45-.05,1.7-.33,2.22.24,3.94.52,1.61.66,2.93,2.04,4.07.57.47,2.09,1.04,2,1.86-.11.86-1.01.79-1.67,1.02-.33.99,2.2,1.58,2.06,2.25-.02.11-.15.21-.24.28-.14.05-.27.08-.41.08-.2,0-.4-.04-.6-.11-.71-.25-2.36-1.68-2.39-2.45-.04-1.08,1.41-.79,1.33-1.55-.98-.59-1.9-1.53-2.38-2.58-.11-.23-.01-.61-.23-.62-.25,1.58-.18,3.16-.26,4.75-.24,4.72-.48,9.49-.26,14.2.03.77-.05,1.56.02,2.33.33.33,1.14,1.42,1.57,1.37,1.02-.32,2.23-.82,3.29-.89,1.33-.11,2.74.3,4.02.51.61-.5.84-1.47,1.63-1.77,3.21-.29,7.69-2.14,10.44.16.4.34.57.79,1.04.97.02-.22.18-.38.26-.59.93-2.76,1.33-6.87,2.89-9.22.26-.39,1.61-1.85,1.65-2.01.16-.52-.41-1.7-.49-2.33-.09-.77.02-1.53.36-2.23.23-.48.36-.83.5-1.21.08-.22.16-.46.28-.75.14-.36.64-1.3.88-1.6.83-1.05,2.65-1.07,3.88-1.07l.2-.2c.03-1.75.45-3.47.65-5.21.22-1.88.25-3.81.58-5.69.27-1.57,1.8-4.93,2.72-6.26.15-.23.49-.59.71-.72.5-.29,2.4-.88,3.02-1.02,1.17-.27,2.39-.26,3.58-.46l.54-.5c.38-.93.58-1.87.97-2.83.53-1.33,1.28-2.65,1.87-3.99M55.89,29.76l-3.06-1.04-4.57,1.83c-.52.8-.69,1.62-.83,2.56-.29,1.84-.34,3.72-.55,5.57-.2,1.59-.59,3.18-.64,4.78l3.13-.18c.81-1.35,2.06-2.17,3.19-3.21.1-2.03.51-4.03.72-6.06.04-.41-.07-.87.03-1.27.21-.92,2.05-2.12,2.58-2.96M54.2,86.14c.03-.6.75-2.32.63-2.74-.09-.33-1.54-.3-1.86-.35-1.2-.17-2.37-.47-3.55-.63-1.46-.2-2.95-.22-4.39-.51-1.11.83-2.39,1.66-3.41,2.59-.9.8-1.49,2.28-1.73,3.48-.07.32-.26,2.14-.16,2.25.17.18,4.05-1.85,4.75-1.57.73.13.34,1.44.52,1.96l.49.11,8.7-3.7c.26-.21,0-.55,0-.89M49.37,53.41l2.47-4.17c-2.25,0-4.47,2.18-6.64.77l-.79-1.36c-1.38.27-2.66.86-4.04.18-.79.47-.15,2.34.1,3.04.22.62.17.82.85,1.1,1.57.65,3.4.33,4.85,1.27l3.2-.85v.02ZM52.62,46.7c-.36-.18-.79-.27-1.15-.47-1.09-.57-1.91-1.64-3.22-1.74-.97-.08-2.41.29-3.38.39-1.13.11-1.88-.33-2.86.52-.7.6-1.2,1.84-1.05,2.74l.15.11c.42,0,.86.04,1.28,0,.55-.07,2.36-.78,2.59-.75.64.11.78,1.37,1.26,1.61.82.42,2.53-.57,3.35-.82.24-.08.53,0,.83-.09.64-.17,1.78-.98,2.21-1.51M44.94,55.04c-1.07-.35-2.21-.34-3.29-.68-.38-.12-1.44-.74-1.6-.74-.17,0-.39.13-.52.25-.43.39-1.4,1.65-1.6,2.19-.74,2.13-1.38,4.94-1.95,7.18-.94,3.65-1.36,7.61-3.14,10.93-.48.88-1.23,1.78-1.65,2.64-.11.22-.24.4-.19.65.18.01.37.02.55-.02,1.09-.25,2.38-1.08,3.52-1.3.2-.1.36-.26.47-.45.39-.66.95-2.02,1.25-2.78,1.59-3.94,1.9-9.44,4.32-12.89,1.19-1.71,2.64-3.26,3.83-4.97M38.68,87.04l.4-1.16c-.02-.1-.18-.08-.22-.13-.57-.76-.83-1.4-1.74-1.85-1.15-.57-2.03-.27-3.2-.18-.46.03-1.02-.08-1.44,0-.6.1-2.08,2.45-2.02,3.06l.13.27c1.24.21,2.16.74,2.94,1.72.24,0,1.84-1.39,2.44-1.58.87-.26,1.84.07,2.71-.14M32.19,72.33c.58-1.32,1.61-4.63,1.38-5.98-.14-.8-1.11-1.88-1.85-2.19-1.25-.51-2.36-.4-3.64-.24-1.68.2-3.37.54-5.04.83-.32.42-.85.85-.77,1.41.12.39,1.83.36,2.14,1,.18.37-.01.71-.41.75-.17.02-1.58-.48-1.83-.6-.54-.25-.92-.66-1.5-.85-1-.32-2.89-.59-3.91-.45-1.52.21-3.21,1.51-4.65.75l.39,10.48c.09.52,1.49.8,1.9,1.23l1.67-1.15c.11-1.19.51-2.34,1.03-3.4.41-.83,1.66-2.77,2.52-3.09.51-.18.93-.09,1.38-.17,2.28-.42,4.4-1.14,6.76-.74.73.13,2.01,1.46,2.5,2.06.9,1.07,1.02,2.4,1.91.35M30.58,75.15c.22-.8-.88-2.11-1.41-2.71-.17-.2-1.03-1.11-1.17-1.17-.57-.25-2.11-.22-2.76-.15-1.65.16-3.37.77-5.05.93-1.26,1.1-2.43,2.85-2.82,4.49-.03.14-.11.27,0,.4.17.25,1.8.09,2.23.12.86.07,3.29.4,3.9.91.26.22.32.51.62.69.45.25,1.96.43,2.45.3.25-.08,2.13-1.02,2.34-1.18.59-.48,1.07-2.03,1.68-2.63M16.66,20.83c.22-.27.7-.51.66-.91-.04-.34-.43-.34-.69-.5-.32-.22-.52-.55-.93-.49-.67,1.05-1.32,2.29-2.12,3.26-.92,1.11-1.77,1.41-3.24,1.3-1.41-.1-1.59-.47-1.86-1.79-.51-2.49-.58-5.25-1.11-7.76-.04-.22-.1-.46-.29-.61-.36.15-.57.49-.86.71-.28.21-1,.48-1.03.79-.05.45.41,2.13.51,2.75.74,4.86,1.66,9.92,1.85,14.83.09,2.5-.34,4.82-.27,7.31.08,3.76-.08,7.2-.13,10.93-.18,11.14.6,22.28-.26,33.38l-.91,8.15h2.94c.47,0,2.14,1,2.87.9l1.23.6c-.39-2.03-.77-4.09-1.02-6.14-.94-7.65-1.25-16.15-1.05-23.84.04-1.86-.3-3.31-.4-5.08-.42-7.96.39-17.15.93-25.16.09-1.29.21-5.87.79-6.77.14-.22.48-.33.7-.61.33-.43.64-1.2,1-1.73.84-1.22,1.81-2.37,2.72-3.53M15.36,17.83c.01-1.07-.73-.82-1.47-1.01-1.44-.39-2.26-1.08-2.68-2.53-.05-.18-.01-.41-.07-.6-.15-.5-.77-.3-1.17-.38-.54-.11-1-.38-1.53-.49l1.23,8.86.2.33c.65.08,1.59.24,2.1-.26.9-.91,1.49-2.14,2.53-3.07.34-.29.85-.35.86-.85"/>
        <path class="cls-6" d="M92.24,49.7c-.94.85-1.68,1.93-2.53,2.87-.39.43-1.23,1.11-1.68,1.61,1.4-.09,2.81-.17,4.21-.24v-4.24"/>
        <path class="cls-11" d="M88.03,54.17c-.09.1-.17.19-.22.28-.21.34-.07.71-.22,1.08-.3.73-2.52,1.92-3.27,2.46-1.09.77-2.08,1.66-3.13,2.48-.82,2.53-1.58,5.1-2.22,7.69-.57,2.28-1.7,6.24-1.84,8.45-.02.28.02.58,0,.86.67-.03,1.35.02,2.02,0,.75-.03,1.55-.23,2.35-.14,1.46.16.17,2.61.71,3.47l3.07.45c2.43-.15,4.71.37,6.97,1.17v-28.48c-1.41.07-2.81.15-4.21.24M81.8,73.2l-.62.21c-.32-.58-.05-1.08-.01-1.62.14-1.95.4-4.31.82-6.22.08-.33.22-1.08.37-1.33.38-.6,1.13-.28,1.15.36,0,0-1.71,8.6-1.71,8.6Z"/>
        <path class="cls-5" d="M77.32,37.05c-.5-.43-1.48-1.42-.62-1.94.47-.12,1.11.8,1.48,1.09.52.4,2.77,1.62,3.25,2.12,1.14-.79,2.2-1.72,3.26-2.78-.05,0-.09-.03-.14-.04-.16.3-.78.47-1.12.51-.93.1-3.83.02-4.6-.46-.38-.23-.35-.68.08-.82.3-.09,1.17-.04,1.54-.03.75.03,1.41.16,2.22.14h.08c-1.41-.69-2.43-1.65-2.93-2.77h0c-.51-.03-3.09-1.43-3.35-1.85-.22-.34-.21-.97.23-1.1.59-.16.78.26,1.16.49.32.18,1.05.52,1.63.82.01-.68.21-1.38.6-2.08-.66.11-1.34.12-1.99-.02-.18-.04-.33.01-.46-.2-.08-.38.74-.54.99-.58.24-.03.52-.05.79-.07-1.57-.73-3.41-1.61-4.63-3.2.02.63.02,1.27-.01,1.88-.01.22-.12.42-.14.65-.05.54.16,1.07-.32,1.5s-1.12.51-1.76.52l.02.9c.36,0,.42.24.3.66-.1.37-1,2.07-1.24,2.4-.16.22-.35.34-.53.34l.37.79c.35-.11.6.04.55.43-.58.88-1.68,1.53-2.89,1.95l.42,1.09c.25-.11.5-.22.73-.34.42-.23.71-.43,1.02-.8.28.28.2.64-.02.98l1.08.1c.16-.42.35-.75.53-.81.18-.05.37-.05.5.11.3.48-.36,2.84-.64,3.4-.11.1-.23.13-.34.13l1.35.34c.05-.13.12-.23.21-.28.4-.25,1.06.18,1.06.52v.04c2.08-.27,3.83-.92,5.4-1.86-.96-.43-2.68-1.53-3.12-1.91M74.6,29.9c1.01-.4,1.52,2.24,1.28,2.72-.2.41-.85.39-1.04-.13-.1-.26-.48-2.08-.46-2.27.02-.15.07-.27.22-.32M76.28,39.27c-.23.39-.76.32-1.03,0-.32-.37-.67-2.45-.59-2.93l.48-.58h.34c.39.2.46.63.56,1.02.12.5.45,2.1.25,2.48"/>
        <path class="cls-18" d="M89.13,14.32c-1.34.86-4.74,3.45-6.2,3.45-.36,0-.78-.22-1.17-.26-1.4-.13-2.77.26-4.15.02l-2.3,2.65c-.41.05-.84.09-1.26.1l.08,1.78c.25,0,.43.2.59.4.04.6.07,1.21.09,1.82,1.22,1.59,3.06,2.46,4.63,3.2.18-.01.37-.03.54-.04.26-.01,1.12-.16,1.21.16.04.4-.32.58-.64.65-.14.04-.29.06-.43.08-.39.71-.59,1.41-.6,2.09.38.19.71.38.83.5.11.1.18.18.2.34.13.51-.18.83-.69.8.49,1.12,1.52,2.08,2.93,2.77.52-.04,1.12-.31,1.61.13.24.21.26.39.18.53.05,0,.09.03.14.04-1.06,1.06-2.13,1.99-3.26,2.78.05.05.1.1.11.13.11.38-.16.72-.55.68-.11,0-.31-.08-.54-.18-1.57.93-3.31,1.58-5.4,1.86v3.74c0,.08.18.17.29.16.61-.02,1.46-.33,2.11-.36.92-.05.96.11,1.99-.11,1.04-.23,5.67,2.11,7.3,2.41,1.82.35,3.69,0,5.5.29V12.29c-.87.85-2.08,1.36-3.11,2.02M85.45,40.48c-.21.48-.42,1.53-.64,1.84-.12.16-.18.26-.42.2l-.48-.72c-.08-.82,1.34-3.44,2.17-3.56.12-.02.28.09.3.18.05.25-.77,1.67-.93,2.06"/>
        <path class="cls-3" d="M62.66,12.5c-.98,2.13-1.86,4.33-2.73,6.51l1.79-1.21c1.39-.21,2.86-.51,4.23,0,.93.34,1.66,1.26,2.64,1.39,1.91.25,4.15-.47,6.1-.4.16-.05.99-1.39,1.2-1.66.83-1.07,2.41-3.16,3.49-3.82.6-.36,1.43-.73,2.08-1.03,3.37-1.6,7.06-3.13,10.78-3.5V2.75c-10.02,2.77-19.93,5.96-29.59,9.75M69.19,16.14c-1.2.73-.4-1.87-.24-2.33.35-.92.85-1.91,1.6-2.57l.33.2c-.16.52-.46,1.02-.65,1.55-.18.5-.84,3.01-1.03,3.14M71.98,15.29c-.16.59-.19,1.31-.39,1.83-.08.17-.15.41-.39.39-.72-.16-.12-2.43.05-2.94.12-.32,1.21-2.77,1.71-2.27-.14,1.04-.7,1.98-.98,2.99"/>
        <path class="cls-6" d="M92.24.56c-.29.12-.67.21-.99.25-1.4.2-2.82,0-4.14.15-.78.1-1.69.6-2.49.64-.58.04-1-.18-1.53-.24-1.46,1.72-2.84,3.41-4.8,4.6-1.48.89-4.09,2.26-4.95-.04-.09-.07-.3-.01-.41.01-.7.16-2.75,1.54-3.66,1.96-.84.37-2.02.86-2.89,1.15-.57.18-1.73.34-2.14.59-.41.24-1.1,1.8-1.34,2.32-.09.18-.16.37-.24.55,9.65-3.78,19.57-6.98,29.59-9.75V.56h-.01Z"/>
        <path class="cls-16" d="M82.03,13.61c3.27-1.55,6.69-2.82,10.21-3.66,0,.58-.13,1.27-.13,1.7-1.13-.35-2.41.66-3.37,1.25-1.39.85-4.88,3.57-6.33,3.57h-3.85c-.03-.21.1-.36.21-.51.85-1.21,1.97-1.72,3.26-2.34"/>
        <path class="cls-5" d="M74.06,51.9c.67.09.15,1,1.15,1.34,1.8.61,4.35-1.07,5.36-2.51.23-.33.41-1.18.67-1.27.84-.27,1.12.66,1.7,1,.82.48,2.44.48,3.37.41,1.11-.08,2.31-.59,3.39-.27.35,0,1.81-1.9,1.62-2.08-.88-.03-1.78.05-2.67,0-2.41-.13-4.21-.98-6.02-1.76-3.97,1.14-7.77,2.8-11.23,5.07.56.99,1.82.22,2.64.08"/>
        <path class="cls-4" d="M69.53,47.89c-1.36,1.32-2.77,2.6-3.86,4.16.5.39,4.12-1.38,4.87-1.57.76.08.6.77.83,1.26.02.03.04.05.06.08,3.45-2.27,7.25-3.93,11.22-5.07-1.12-.49-2.24-.95-3.53-1.2-2.62-.52-6.96,1.77-9.59,2.34"/>
        <path class="cls-1" d="M87.43-.35l-2.31.63c-1.03.16-1.35-.03-2.12-.63h4.43Z"/>
        <path class="cls-6" d="M87.18,53.95c.29-.71,1.07-1.35,1.42-2.03-2.03.17-4.06.61-6.04-.16-.27-.11-.53-.41-.78-.35-1.65,1.95-4.5,4.05-7.17,2.96-.83-.34-.86-.92-1.85-.89-.53.02-.75.15-1.37-.05-.95-.34-.92-1.05-1.63-1.5-1.74.68-3.53,1.38-5.41,1.63-.13.05-1.83,1.88-1.96,2.08-.2.28-.65,2.71-.65,3.13,0,.28.1.49.11.75,7.53-3.54,16.32-4.68,25.25-5.28.02-.1.04-.19.07-.28"/>
        <path class="cls-18" d="M61.86,59.51v.12c-.08.75-.63,1.99-.83,2.84-.25,1.1-.37,2.23-.59,3.33.52,1.74.68,3.4,1.72,4.93.27.4,1.13,1.54,1.6,1.52l4.8-1.94.37.17c.84.85-1.82,4.28-1.57,4.5.47.05.88-.04,1.33-.17,1.19-.32,4.03-1.2,4.97-1.8.83-.54,3.35-2.76,3.7-3.6.75-2.57,1.1-5.65,2.23-8.07.85-1.83,3.13-3.59,4.8-4.71.45-.29,2.36-1.28,2.53-1.51.14-.18.13-.53.19-.88-8.93.6-17.72,1.74-25.25,5.27"/>
        <path class="cls-14" d="M86.38,38.43c.05.25-.77,1.68-.94,2.06-.21.48-.42,1.53-.64,1.84-.12.16-.18.26-.42.2l-.48-.72c-.08-.82,1.34-3.44,2.17-3.56.12-.02.28.09.31.18"/>
        <path class="cls-14" d="M84.37,34.96c.73.64-.44.98-.94,1.04-.94.1-3.83.02-4.6-.46-.38-.23-.35-.68.08-.82.3-.09,1.17-.04,1.54-.03.75.03,1.41.16,2.22.14.54,0,1.17-.34,1.7.12"/>
        <path class="cls-14" d="M83.51,64.6l-1.71,8.6-.62.21c-.32-.58-.05-1.08-.01-1.62.14-1.95.4-4.31.82-6.22.08-.33.22-1.08.37-1.33.38-.6,1.13-.28,1.15.36"/>
        <path class="cls-16" d="M76.21-.35h6.53c-.5.26-.54.72-.8,1.09-1.21,1.68-4.39,4.94-6.46,5.27-1.61.26-.74-1.26-1.91-1.54-1.17.51-2.13,1.41-3.4,1.71l6.06-6.53h-.02Z"/>
        <path class="cls-14" d="M81.54,38.45c.11.38-.16.72-.56.69-.6-.02-3.12-1.62-3.66-2.09-.5-.43-1.48-1.42-.62-1.94.47-.12,1.11.8,1.48,1.09.57.43,3.25,1.88,3.36,2.25"/>
        <path class="cls-14" d="M81.17,27.61c.04.4-.32.58-.64.65-.79.2-1.63.23-2.42.07-.18-.04-.33.01-.46-.2-.08-.38.74-.54.99-.58.4-.04.92-.08,1.33-.11.26-.01,1.12-.16,1.21.16"/>
        <path class="cls-14" d="M80.52,31.26c.13.51-.19.84-.7.81-.51-.03-3.09-1.43-3.35-1.85-.22-.34-.21-.97.23-1.1.59-.16.78.26,1.16.49.53.3,2.15,1.01,2.46,1.32.11.1.18.18.2.34"/>
        <path class="cls-14" d="M76.03,36.79c.12.5.45,2.1.25,2.48-.23.39-.76.32-1.03,0-.32-.37-.67-2.45-.59-2.93l.48-.58h.34c.39.2.46.63.56,1.02"/>
        <path class="cls-14" d="M74.6,29.9c1.01-.4,1.52,2.24,1.28,2.72-.2.41-.85.39-1.04-.13-.1-.26-.48-2.08-.46-2.27.02-.15.07-.27.22-.32"/>
        <path class="cls-14" d="M74.71,22.46c.08,1.21.14,2.49.08,3.71-.01.22-.12.42-.14.65-.06.54.16,1.07-.32,1.5s-1.12.51-1.76.52c-.34,0-.67-.01-.98,0-1.24.03-2.51.07-3.76-.15-.38-.07-1.22-.28-1.11-.82.17-.79,1.48-.25,2-.21.63.05,1.47.11,2.09.13.38.01,2.24.05,2.41-.05.14-.11.12-.25.13-.4.11-1.38-.07-3.22.13-4.56.04-.24.24-.64.48-.71.05-.01.11-.02.16-.02.25,0,.43.2.59.4"/>
        <path class="cls-13" d="M68.9,27.69c.6.05,1.34.1,1.9.12.38.01,2.24.05,2.41-.05.14-.11.12-.25.13-.4.08-.99.01-2.22.04-3.33-1.52,1.61-2.59,3.12-4.49,3.67"/>
        <path class="cls-8" d="M66.74,38.38c.96-.31,1.95-.59,2.84-.97l-.42-1.09c-1.09.37-2.26.53-3.16.47-.28-.02-1.17-.15-1.71-.34-.08.06-.16.12-.25.17.84.56,1.75,1.19,2.71,1.76"/>
        <path class="cls-8" d="M72.34,40.16c-.17-.03-.33-.14-.4-.33-.1-.35.13-1.62.45-2.48l-1.08-.1c-.2.32-.49.6-.7.78-.43.38-1.26.85-2.14,1.26,1.24.56,2.54.92,3.87.86"/>
        <path class="cls-6" d="M56.77,42.34c-.05-.12-.08-.25-.07-.38.07-.93,1.76-2.65,2.66-2.79.28-.05.53-.05.55.29-.74.57-1.41,1.33-1.92,2.11-.11.16-.26.55-.39.8,1.78.08,3.56.33,5.34.78-6.77-8.46-1.68-16.27,5.52-22.39-1.2.47-3.85,2.12-4.29,2.75-.8,1.14-1.07,1.75-2.16,2.79-1.79,1.71-3.81,3.24-5.6,4.95-.41.39-1.43,1.3-1.67,1.72-.36.6-.53,2.23-.65,2.99-.08.43-.51,3.18-.41,3.31.74-.35,1.96-1.57,2.79-1.18.15.08.08.18.07.32-.84.78-2.26,1.67-2.78,2.7-.15.29-.41,1.64-.99,1.24l-.58-.73c-.4.43-.91.86-1.31,1.32,1.97-.42,3.94-.62,5.91-.59"/>
        <path class="cls-8" d="M72.38,20.38c-.58.04-1.25.21-1.83.26-.53.04-1.16-.08-1.68,0-.1.02-.24.06-.4.12-7.2,6.12-12.29,13.93-5.52,22.39-1.78-.44-3.56-.7-5.34-.78-.06.11-.11.2-.16.22-.32.2-.57.02-.68-.25-1.97-.03-3.94.17-5.9.59-.12.14-.24.28-.33.43-.22.37-.14.4.14.65,2.02,1.76,5.45,1.31,7.99,1.52.27.02.57.17.87.12v.38c-1.68.47-3.4.43-5.09.72-.59.9-1.04,1.89-1.64,2.8-.64.98-1.53,1.82-2,2.88,1.96-.35,3.97-1.21,5.98-.78.02-.16.08-.3.16-.43.48-.78,1.99-2.74,3.02-2.41l.2.41c-.6.67-1.3,1.22-1.95,1.84-.43.43-1.05,1.43-1.69,1.58-.23.05-.5.09-.79.11l.17,2.37c.92-.57,2.56-1.37,3-1.53.28-.1,1.49-.47,1.65-.23.02.11.02.2,0,.27l1.81-.03c.08-.12.15-.24.24-.37.92-1.39,5.05-6.43,6.44-6.85.54-.16,1.25-.19,1.86-.36.89-.25,1.76-.61,2.64-.87.2-.74-.13-3.63.24-4.61l-1.35-.34s-.06-.02-.1-.03c-1.33.06-2.63-.3-3.86-.86-.89.41-1.82.76-2.39.85-1.02.17-1.65-.27-.95-1.2.51-.21,1.05-.39,1.6-.57-.96-.57-1.87-1.2-2.71-1.76.08-.05.16-.11.25-.17-.22-.08-.39-.17-.42-.27-.49-1.5,1.13-.95,1.9-.84,1.41-1.17,2.57-2.54,2.83-3.98-.18.08-.34.14-.44.16-.83.18-1.39-.15-.78-.91.4-.15.81-.29,1.22-.43-.09-.49-.29-.98-.64-1.47-.04,0-.08,0-.12-.02-.38-.07-1.22-.28-1.11-.82.17-.79,1.48-.25,2-.21.06,0,.12.01.18.02,1.9-.55,2.97-2.06,4.49-3.67.01-.43.03-.85.09-1.23.04-.24.24-.64.48-.71.05-.01.11-.02.16-.02l-.08-1.78c-.57.03-1.12.04-1.67.1M64.72,44.52c.91-.13,1.9.16,1.15,1.14-.41.17-.85.15-1.28.29-.44.13-1.93.98-2.26.49-.1-.25-.12-.52.08-.72.45-.46,1.69-1.12,2.32-1.21"/>
        <path class="cls-5" d="M69.92,29.65c.26-.13.7-.51.78-.53.49-.13.67.39.3.84-.26.32-1.63,1.07-2.42,1.4-.26,1.45-1.41,2.81-2.83,3.98.03,0,.07,0,.1.02,1.9.16,4.02-.37,5.63-1.41l-.37-.79c-.18,0-.36-.11-.49-.36l.03-.43,1.72-2.59c.08-.01.15-.02.21-.02l-.02-.9c-.34,0-.68-.01-.98,0-1.2.03-2.43.06-3.65-.14.34.49.55.98.64,1.47.46-.16.92-.33,1.33-.53"/>
        <path class="cls-1" d="M58.37-.35h15.64c-1.89,2.3-4.03,4.35-6.12,6.46l-.68,1.47c-.11.13-1.46.36-1.75.4-.57.09-1.49.03-2.01.21-.49.15-.81.98-1.1,1.37-.67,0-2.1-2.69-2.15-3.34-.03-.41.53-.59.88-.67.33-.09,1.09.12.94-.47-.56-.72-1.35-1.16-1.95-1.84-.87-.99-1.5-2.27-1.69-3.59"/>
        <path class="cls-14" d="M73.42,36.66c.3.48-.36,2.84-.64,3.4-.11.1-.23.13-.34.13-.22,0-.41-.13-.5-.36-.1-.35.13-1.62.45-2.48.16-.42.35-.75.53-.8s.37-.05.5.11"/>
        <path class="cls-14" d="M72.59,29.75c.36,0,.42.24.3.66-.1.37-1,2.07-1.24,2.4-.16.22-.35.34-.53.34s-.36-.11-.49-.36l.03-.43,1.72-2.59c.08-.01.15-.02.21-.02"/>
        <path class="cls-14" d="M71.25,14.57c.12-.31,1.21-2.77,1.71-2.27-.14,1.04-.7,1.98-.98,2.99-.16.59-.18,1.3-.39,1.83-.08.17-.15.41-.39.39-.72-.16-.12-2.43.05-2.94"/>
        <path class="cls-14" d="M71.49,33.95c.35-.11.6.04.55.44-.58.88-1.69,1.53-2.89,1.95-1.09.37-2.26.53-3.17.47-.39-.03-2.02-.27-2.13-.61-.51-1.57,1.28-.89,2-.83,1.9.16,4.02-.37,5.63-1.41"/>
        <path class="cls-14" d="M71.33,36.28c.28.28.2.64-.02.98-.2.32-.49.6-.7.78-.86.76-3.39,1.92-4.52,2.11-1.02.17-1.65-.27-.95-1.2,1.38-.58,3.03-.95,4.44-1.53.25-.11.5-.22.73-.34.42-.23.71-.43,1.02-.81"/>
        <path class="cls-16" d="M71.4,94.27c-11.21.01-22.43.01-33.64.01v-1.96c.25,0,.53-.15.75-.24.6-.24,5.11-2.64,5.38-2.24-.08.52.49,1.88.98,1.96.16.02.35.01.51-.01.73-.09,2.66-1.03,3.47-1.36,1.53-.64,3.16-1.54,4.69-2.09.33-.12,1.64-.52,1.92-.57,1.03-.13,3.05,2.01,4.38,1.26.22-.12,2.03-1.83,2.16-1.67.35.54-.27,2.36.7,2.07.18-.05,1.03-.77,1.39-.96.4-.22.83-.5,1.3-.46.1.88-1.05,2.03-.33,2.74,1.51,1.47,4.17,1.51,5.93,2.47-.07.43.15.73.39,1.04"/>
        <path class="cls-14" d="M70.7,29.12c.49-.13.67.39.3.84-.32.39-2.34,1.45-2.86,1.57-.83.18-1.39-.15-.78-.91.84-.32,1.76-.58,2.56-.96.26-.13.7-.51.78-.53"/>
        <path class="cls-14" d="M70.55,11.25l.33.2c-.16.52-.46,1.02-.65,1.55-.18.5-.84,3.01-1.03,3.14-1.2.73-.4-1.87-.24-2.33.35-.92.85-1.91,1.6-2.57"/>
        <path class="cls-16" d="M63.66,73.51c-.56-.06-1.4-.92-1.78-1.34-.23-.26-.59-1.09-.97-.97-.59.75-1.28,1.41-1.89,2.14-.49.58-1.14,1.72-1.63,2.15-.12.11-.27.2-.42.23-1.01.23-.87-.54-1.18-1.23-.11-.24-.7-1.48-.8-1.55-.25-.15-.73-.09-1.25.03-5.21,4.18-10.12,7.72-16.23,9.73.29.14.58.3.84.5.53.41.74,1,1.32,1.27,1.64-1.45,3.36-3.14,5.38-4.01l10.12,1.42c.35-.54.24-1.33.67-1.83.47-.55,4.54-3.56,5.18-3.82l4.66-.69,1.37-3.33c-.75.13-2.77,1.35-3.37,1.27"/>
        <path class="cls-2" d="M65.17,18.83c-.38-.08-3.01-.08-3.3.04l-3.2,2.66c-.47.57-.71,1.55-1.17,2.09-.17.21-.5.27-.66.43-.3.3-.57.8-.97,1.07-.93.62-2.62.74-3.74,1.08-.38.11-1.84.62-2.06.8-.22.2-1.21,2.25-1.1,2.36.26.26,3.78-1.94,4.72-1.67.04.01.08.04.12.06,4.27-2.41,8.58-5,12.49-8.07-.35-.33-.84-.78-1.13-.85"/>
        <path class="cls-5" d="M53.82,27.75c.18.11.39.31.6.41.58.26,2.48.6,3.04.36,1.38-1.47,3.35-2.71,4.62-4.24.7-.82.79-1.68,1.63-2.41.37-.32.97-.68,1.39-.95.29-.17,1.55-.63,1.47-.99-.07-.06-.17-.15-.27-.25-3.9,3.07-8.22,5.66-12.48,8.07"/>
        <path class="cls-14" d="M64.72,44.52c.91-.13,1.9.16,1.15,1.14-.41.17-.85.15-1.28.29-.44.13-1.93.98-2.26.49-.1-.25-.12-.52.08-.72.45-.46,1.69-1.12,2.32-1.21"/>
        <path class="cls-8" d="M59.41,66.46c.02-.24.2-.47.23-.7.26-1.82.55-3.72.88-5.6-1.15.6-2.26,1.26-3.34,1.98-.09.22-.18.44-.26.65-.2.58-.79,3.49-1.02,3.66-.26.17-.69,0-.77-.29-.15-.51.04-1.66.4-2.83-2.47,1.9-4.73,4.2-6.71,7,1.57-2.09,2.88-4.43,4.19-6.78-.06.11-.12.23-.19.33-.13.23-.42.54-.71.35-.32-.36-.33-.77-.13-1.18l2.88-6.46c-4.32.65-8.56,1.47-12.31,3.26-.39.54-.78,1.07-1.19,1.57-.79,3.21-1.61,6.44-2.49,9.63-.65,2.3-2.26,4.37-2.9,6.67l4.82-2.02,4.43-1.04c.33-.2.49-.88.73-1.22.47-.7,1.8-2.09,2.47-2.62.17-.13,1.33-.9,1.43-.91.6-.09,1.48.72,1.82,1.18.17.24.3.8.54.89.98.05,2.43-.66,3.34-.22.68.33.86,1.29,1.26,1.87.13.09.27.09.4-.01.2-.13.81-1.14,1.04-1.43,1.02-1.26,1.94-1.89,1.69-3.77-.09-.59-.57-1.32-.51-1.95"/>
        <path class="cls-6" d="M55.3,55.57c.08-.11.31-.26.62-.46l-.17-2.37c-.54.03-1.14.02-1.62.09-1.04.13-2.09.37-3.14.5-.33.04-.72-.04-1,.04-.2.05-.36.35-.57.48-1.32.78-2.65.64-3.7,1.77-1.15,1.26-2.15,2.78-3.18,4.22,3.75-1.79,7.99-2.6,12.31-3.26l.45-1.02h0Z"/>
        <path class="cls-3" d="M53.29,63.03c1.31-2.37,2.64-4.73,4.22-6.83-.39.06-.78.11-1.17.17-.08.08-.17.15-.24.24-1.11,1.92-1.77,4.4-2.8,6.42"/>
        <path class="cls-6" d="M53.29,63.03c-.09.18-.2.35-.29.53-1.31,2.35-2.62,4.69-4.19,6.78,1.98-2.81,4.24-5.1,6.71-7,.45-1.5,1.17-3.01,1.76-3.19,1.37-.42.24,1.22.05,1.62-.05.12-.1.25-.16.37,1.08-.73,2.19-1.39,3.34-1.98.23-1.34.49-2.67.77-3.95.23-1.05.54-1.77,1.08-2.62l-1.8.03c-.03.11-.12.2-.25.3-.76.61-2.26,1.18-3.16,1.78-.29.2-.57.41-.82.66.39-.06.78-.11,1.17-.17-1.58,2.1-2.9,4.46-4.22,6.83"/>
        <path class="cls-6" d="M60.57,53.35c.02.11.02.2,0,.27-.03.11-.12.2-.25.3-.76.61-2.26,1.19-3.16,1.78-.39.27-.77.51-1.05.9-1.27,2.21-1.96,5.14-3.28,7.28-.13.23-.42.54-.71.35-.32-.36-.33-.77-.13-1.19l3.33-7.48c.08-.11.32-.26.62-.46.92-.57,2.56-1.37,3-1.53.28-.1,1.49-.47,1.65-.23"/>
        <path class="cls-10" d="M59.17,16.68c.92-2.1,1.82-4.22,2.71-6.33-1.41-.33-2.92-3.23-2.87-4.5.02-.8.89-.84.77-1.28-.02-.1-1.01-1.11-1.22-1.4-.25-.38-.5-1.1-.72-1.36-.11-.14-.21-.23-.39-.2l-1.44,2.41c.17.05.35-.12.58-.07.12.04.21.18.21.33-.16.88-.12,1.62-.54,2.45-.55,1.09-2.8,3.43-4.02,3.88.83,1.54,2.99,2.51,3.96,3.88.23-.28.45-.56.68-.89.28.2.12.23.07.46-.3,1.46-1.61,3.09-2.74,4.03-.13.11-.28.24-.45.36.29.6.6,1.19.92,1.76.41-.35,2.29-1.62,2.49-1.66.29-.04.35.36.3.58-.07.43-1.55,1.69-2.23,2.03.4.64.83,1.26,1.28,1.85.27-.78.47-1.56.79-2.35.53-1.33,1.28-2.65,1.87-3.99"/>
        <path class="cls-12" d="M55.01,21.26c-.64.14-.72-.51-.43-.96,0-.01.05-.05.09-.08-.33-.57-.64-1.16-.92-1.76-.42.3-.92.55-1.32.23l-.18-.46c.03-.21.13-.39.26-.53.18-.2.41-.4.65-.61-.21-.52-.41-1.06-.58-1.6-.31-.04-.61-.16-.94-.3-1.26-.58-3.37-2.26-3.63-3.68-.07-.35-.04-.58.4-.53.32.04.5.6.72.86.46.52,1.09,1.07,1.65,1.48.28.2.87.53,1.41.85-.03-.13-.08-.25-.11-.38.99.99,1.98,1.08,3.78,1.09.12-.13.23-.25.34-.38-.96-1.37-3.13-2.34-3.95-3.88-.04.01-.09.04-.12.05-1.1.32-.7-.58-1.04-.91-.11-.11-.36-.15-.52-.27-.73-.55-1.32-1.17-1.8-1.97-.27-.45-.55-1.52-1-1.6-.27-.04-1.14-.04-1.37.07-.21.1-.6.76-.92,1.02-1.28,1.08-2.85,1.62-4.45.88l-2,1.02c-.15.22.17.77.21,1.11.16,1.48-.35,2.5-1.17,3.65l.07.18c1.97,1.73,2.02,5.31-.13,6.92-.35.25-.88.35-1.11.58-.25.25-.58,1.03-.91,1.44-.15.2-.35.39-.58.6l2.27.05.52-.2c.18.2-.45,2.01-.59,2.35-.23.52-.58,1.08-1.01,1.61l2.44.22c.09-.1.17-.18.27-.26.57.82-.26,2.28-.74,3.03-.85,1.37-4.12,4.58-5.68,4.88-.51.11-.87-.02-1.32-.26l-.09-.36c-.87,1.09-1.73,2.05-2.89,2.84-.39.27-1.74.87-1.86,1.14-.11.23.32.29.46.3.66.08,1.41-.23,1.83.41.26.52-.74,1.17-1.06,1.55l-2.4,1.57c1.07.3,2.04.05,3.07-.26.5-.15,1.27-.71,1.75-.46.99.5-1.09,3.41-.91,3.58,1.24.04,3.01-.78,3.92-1.62.48-.45,1.04-1.72,1.73-.82.08.13.09.25.07.39-.05.52-1.14,2.65-.88,2.96.76-.21,1.55-.76,2.14-1.3.48-.44,1.83-2.57,2.38-1.33.13.28.23,1.05.28,1.41.05.41.14,1.14.15,1.54,0,.16.02.43-.05.59h.13c.08-.21.16-.45.28-.74.14-.36.64-1.3.88-1.6.83-1.05,2.65-1.07,3.88-1.07l.2-.2c.03-1.75.45-3.47.65-5.21.22-1.88.25-3.81.58-5.69.27-1.57,1.8-4.93,2.72-6.27.15-.23.49-.59.71-.72.5-.29,2.4-.88,3.02-1.02,1.17-.27,2.39-.26,3.58-.46l.54-.5c.06-.16.12-.32.17-.47-.45-.6-.88-1.22-1.28-1.86-.08.04-.16.08-.22.09M40.14,33.23c-.35.78-1.52,3.14-2.1,3.63-.79.68-1.59-.03-1.21-.95.32-.77,1.45-2.09,1.96-2.86.28-.43,1.63-2.85,1.91-2.9l.3.21c.17.54-.61,2.28-.87,2.87M44.47,18.67c-.77-.32-.98-1.3-1.19-2.04-.35-1.22-.9-3.28.17-4.19l.41.34c-.05,1.45.63,2.81.9,4.18.12.58.26,1.33-.3,1.72M51.26,21.29c-.78.62-2.58-1.04-3.07-1.63-.57-.69-1.24-1.83-1.5-2.68-.15-.52-.28-.9-.07-1.43.25-.03.36.02.53.19.35.38.8,1.41,1.18,1.94.42.59,1,1.24,1.53,1.72.37.33,2.13,1.32,1.38,1.89"/>
        <path class="cls-12" d="M55.85,14.87c-1.8,0-2.8-.1-3.78-1.09.03.13.07.25.11.38.51.3.98.6,1.11.8.11.15.15.26.12.46-.3.1-.57.11-.84.07.18.54.37,1.08.58,1.6.75-.62,1.7-1.25,2.35-1.86.13-.12.24-.24.36-.36"/>
        <path class="cls-14" d="M59.37,39.17c.28-.05.53-.05.55.29-.74.57-1.41,1.33-1.93,2.11-.15.23-.39.93-.54,1.02-.46.28-.77-.2-.75-.63.07-.93,1.76-2.65,2.67-2.8"/>
        <path class="cls-14" d="M57.28,60.15c1.37-.42.24,1.22.05,1.62-.13.33-.29.69-.41,1.02-.2.58-.79,3.49-1.02,3.67-.26.17-.68,0-.77-.29-.35-1.15,1.11-5.7,2.15-6.01"/>
        <path class="cls-14" d="M57.15,18.56c.29-.04.35.36.3.58-.08.49-1.95,2.02-2.45,2.12-.64.14-.72-.51-.43-.96.12-.18,2.36-1.7,2.58-1.74"/>
        <path class="cls-14" d="M56.87,13.6c.28.2.12.23.06.46-.3,1.46-1.61,3.09-2.74,4.03-.44.37-1.21,1.04-1.77.6l-.18-.46c.03-.21.13-.39.26-.53.74-.82,2.14-1.65,3-2.47.55-.53.93-1.01,1.37-1.63"/>
        <path class="cls-1" d="M51.71-.35h4.96c-.35,2.2-2.23,3.77-3.39,5.55l.07.59c.91.7,1.72-.21,2.49-.39.48-.11-.11.84-.21.97-.3.41-3,2.82-3.32,2.82-.92-.42-3.18-2.51-3.21-3.47,0-.24.05-.15.17-.23.45-.26.77-.37,1.21-.74,1.51-1.28,1.82-3.23,1.23-5.09"/>
        <path class="cls-3" d="M52.83,28.72l3.06,1.04c-.52.84-2.37,2.03-2.58,2.96-.1.4,0,.86-.03,1.27-.21,2.02-.62,4.02-.72,6.06-1.13,1.03-2.38,1.86-3.19,3.21l-3.13.18c.05-1.6.45-3.19.64-4.77.22-1.85.26-3.73.55-5.57.14-.93.3-1.75.83-2.55,0,0,4.57-1.83,4.57-1.83ZM50.78,32c0-.3-.39-.5-.66-.4-.27.11-.35.37-.42.63-.32,1.03-.76,4.26-.55,5.25.1.43.42.69.76.29.35-.4.32-2.42.4-3.12.11-.88.28-1.77.48-2.65"/>
        <path class="cls-11" d="M54.83,83.4c-.09-.33-1.54-.3-1.86-.35-.6-.09-1.2-.21-1.8-.32-3.78,2.35-8.8,3.71-11.47,7.18,0,.17,0,.29.02.32.17.18,4.05-1.85,4.75-1.57.73.13.34,1.44.52,1.96l.49.11,8.7-3.7c.26-.21,0-.56,0-.89.03-.6.75-2.32.63-2.74"/>
        <path class="cls-3" d="M49.43,82.42c-1.46-.2-2.95-.22-4.39-.51-1.11.83-2.39,1.66-3.41,2.59-.9.8-1.49,2.28-1.73,3.48-.05.24-.18,1.37-.19,1.93,2.67-3.47,7.69-4.83,11.47-7.18-.59-.11-1.17-.23-1.75-.31"/>
        <path class="cls-14" d="M53.29,14.96c.11.15.15.26.12.46-.64.22-1.18.04-1.78-.23-1.26-.58-3.37-2.26-3.63-3.68-.07-.35-.04-.58.4-.53.32.04.5.6.72.86.46.52,1.09,1.07,1.65,1.48.54.39,2.25,1.24,2.52,1.64"/>
        <path class="cls-3" d="M51.84,49.24l-2.47,4.17-3.2.85c-1.45-.95-3.29-.62-4.85-1.27-.67-.28-.63-.48-.85-1.1-.25-.71-.89-2.58-.1-3.04,1.37.67,2.65.09,4.03-.18l.79,1.36c2.16,1.4,4.38-.76,6.63-.77"/>
        <path class="cls-2" d="M51.8,46.36c-.11-.04-.23-.08-.33-.14-1.09-.57-1.91-1.64-3.22-1.74-.97-.08-2.41.29-3.38.39-1.13.11-1.88-.33-2.86.52-.7.6-1.2,1.84-1.05,2.74l.15.11c.19,0,.39,0,.59.02,3.1-2.08,6.57-2.01,10.11-1.9"/>
        <path class="cls-5" d="M41.69,48.27c.23,0,.47,0,.7-.02.55-.07,2.36-.78,2.59-.75.64.11.78,1.37,1.26,1.61.82.42,2.53-.57,3.35-.82.24-.08.53,0,.83-.09.64-.17,1.78-.98,2.21-1.51-.26-.13-.54-.22-.82-.33-3.54-.1-7.02-.17-10.11,1.9"/>
        <path class="cls-14" d="M49.88,19.4c.37.33,2.13,1.32,1.38,1.89-.78.62-2.58-1.04-3.07-1.63-.57-.68-1.24-1.83-1.5-2.67-.15-.52-.28-.9-.07-1.44.25-.03.36.02.53.2.35.38.81,1.41,1.18,1.94.43.59,1,1.24,1.53,1.72"/>
        <path class="cls-14" d="M50.11,31.6c.27-.1.67.1.66.4-.2.88-.37,1.77-.48,2.65-.09.7-.06,2.72-.4,3.12-.34.39-.66.14-.76-.29-.21-.99.24-4.22.55-5.25.08-.26.15-.52.42-.63"/>
        <path class="cls-16" d="M34.7,3.57c-.89.79-2.3,1.01-3.18-.2.16-.24.2-.15.39-.13.8.08,1.29.2,1.95-.4.34-.3.47-.73.62-1.14-.18-.74-.46-1.43-.86-2.04H9.32c.36,1.53.98,3.03,1.42,4.35,3.26,5.44,10.88,6.53,16.31,2.17,0,2.18,1.09,4.35,2.17,4.35.98,0,1.84-.27,2.56-.74-.58-.22-1.08-.57-1.3-1.09-.14-.33-.3-.76.24-.64.44.6,1.34.77,2.18.77,1.19-1.35,1.8-3.32,1.79-5.25M19.37,7.7c-1.76-.21-3.08-1.7-2.84-3.49h.38c.29,1.43,1.61,2.78,3.18,2.32.39-.11,1.78-1.9,1.79-.7.01,1.15-1.49,1.98-2.51,1.87"/>
        <path class="cls-5" d="M27.06,6.17c-5.44,4.35-13.05,3.26-16.31-2.18-.44-1.32-1.05-2.82-1.42-4.35H3.29V.17c.11.11.21.14.18.3-.04.25-.45.82-.57,1.13-.49,1.37-.23,2.86,1.36,3.2.4.09,1.5-.03,1.64.18.31.53-.27.76-.34,1.11-.15.89.32,1.4,1,1.87.9.63,1.95.5,2.98.67.18.03.33-.01.46.2-.36.87-1.38,1.02-2.22.98.21,1.45,1.76,2.57,3.19,2.48.74-.04,1.41-.51,1.61.61.12.74-.13,1.11.41,1.79,1.04,1.33,2.98.53,3.52,1.04.25.24,0,.58-.01.91-.02.74.51,1.54,1.22,1.79.61.21,1.44.05,2.05-.1.72-.16,1.58-.84,2.22-.13.66.74-.39,2.66,1.37,2.92,1.03.15,1.28-.32,1.75-1.11,1.11-.39.88,1.03,1.08,1.79.36,1.4,1.36,2.38,2.88,2.18.67-.09,1.04-.79,1.56-.74.52.05.44.88,1.42.73,1.03-.16,2.81-1.63,3.33-2.55.25-.41.25-.73.41-1.15.63-.32,1.04-.03,1.62-.59,1.1-1.05.98-3.55-.05-4.62-.47-.49-1.61-.65-1.23-1.49.18-.42.68-.33.9-.52.27-.25.79-1.27.84-1.64.13-.99.1-1.86-.77-2.47l-.2-.08c-.97.4-1.8,1-2.89,1.15-.64.09-1.5.02-2.23-.26-.73.46-1.58.74-2.56.74-1.09,0-2.18-2.18-2.18-4.35M10.82,7.38c-.08-.49-.16-1.54.5-1.6.03,1.46.87,2.66,2.41,2.74.65.02,1.4-.42,2.01.18-1.41,1.45-4.55.83-4.93-1.33M24.91,16.71c-1.71.95-4.44-.42-4.21-2.51.02-.17.16-.7.32-.73.33-.08.48.89.66,1.16.95,1.43,2.4,1.25,3.77.53.52.44-.07,1.27-.54,1.54"/>
        <path class="cls-5" d="M50.29-.35h-16.67c.4.61.68,1.3.86,2.04.14-.38.29-.74.63-1,.77,1.02.38,2.17-.41,2.88,0,1.93-.6,3.9-1.79,5.25.36,0,.7-.03.99-.08.87-.14,2.71-1.33,2.54-2.34-.07-.45-.72-1.27-.37-1.6.36-.32.91-.08,1.25.18.8.65.62,1.85.45,2.74.8.14,2.46-.56,2.87-1.23.23-.36.36-1.41,1.04-.79.43.38.2.85.27,1.36.89.52,2.99-.91,3.31-1.68.14-.38.02-.86.5-1.08.39-.17.79.36,1.21.42,1.2.18,2.4-.51,3.12-1.42.87-1.11.55-2.41.2-3.65"/>
        <path class="cls-14" d="M44.77,16.95c.12.58.26,1.33-.31,1.72-.77-.32-.98-1.3-1.18-2.04-.35-1.22-.9-3.28.17-4.19l.41.34c-.05,1.45.63,2.81.9,4.18"/>
        <path class="cls-18" d="M41.65,54.35c1.08.35,2.22.34,3.28.69-1.19,1.71-2.64,3.26-3.83,4.97-2.41,3.45-2.73,8.95-4.32,12.89-.3.76-.86,2.12-1.25,2.78-.11.18-.27.35-.47.45-1.14.23-2.44,1.05-3.52,1.31-.18.04-.37.03-.55.02-.04-.25.09-.43.2-.65.42-.86,1.17-1.76,1.65-2.64,1.78-3.32,2.21-7.28,3.14-10.93.57-2.24,1.21-5.05,1.95-7.18.2-.53,1.16-1.79,1.6-2.19.13-.12.35-.25.52-.25.16,0,1.22.62,1.6.74"/>
        <path class="cls-14" d="M41.01,30.36c.17.54-.61,2.28-.87,2.87-.35.78-1.52,3.14-2.1,3.63-.79.68-1.59-.03-1.21-.95.32-.77,1.45-2.09,1.96-2.86.28-.43,1.63-2.85,1.91-2.9,0,0,.31.21.31.21Z"/>
        <path class="cls-14" d="M39.27,27.15c.57.82-.26,2.28-.74,3.03-.85,1.37-4.12,4.58-5.68,4.88-.51.11-.87-.02-1.32-.26l-.09-.36c-.87,1.09-1.73,2.05-2.89,2.84-.39.27-1.74.87-1.86,1.14-.11.23.32.29.46.3.66.08,1.41-.23,1.83.41.26.52-.74,1.17-1.06,1.55l-2.4,1.57c1.07.31,2.04.06,3.07-.26.5-.15,1.27-.71,1.75-.46.99.5-1.09,3.41-.91,3.58,1.24.04,3.01-.78,3.92-1.62.48-.45,1.04-1.72,1.73-.82.08.13.09.25.07.39-.05.52-1.14,2.65-.88,2.96.76-.21,1.56-.76,2.14-1.3.48-.44,1.83-2.57,2.38-1.33.13.28.23,1.05.28,1.41.05.41.14,1.14.15,1.54,0,.16.02.43-.05.59-.02.03-.04.05-.08.08l-.6.05c-.63-.11-.59-1.11-.6-1.61-.07-.14-.14-.22-.32-.22-.12,0-1.49,1.2-1.85,1.41-.67.4-1.87,1.01-2.65.75l-.46-.46c-.24-.61.37-1.09.34-1.7-.75.25-1.46.61-2.22.84-.48.15-2.08.6-2.48.53-.21-.03-.46-.15-.59-.33-.46-.9,1.4-2.23,1.24-3.26-1.86.4-4.21.79-5.8-.52l-.04-.43c.22-.75,3.35-1.13,3.76-2.18-1.28-.47-2.56-.66-3.92-.72-1.35-1.53,1.62-1.7,2.64-2.04,2.07-.72,4.43-2.13,5.76-3.88.54.08.21.72.39,1.04,2.02-1.43,4.11-2.94,5.73-4.82.58-.66.97-1.47,1.55-2.09.09-.1.17-.18.27-.26"/>
        <path class="cls-10" d="M22.46,57.35c-.12,0-.25.02-.36,0-2.02-.3-.17-1.86.35-2.59.23-.3,1.38-1.94,1.12-2.2-1.53.34-3.04.5-4.62.39-.43-.03-1.49-.17-1.77-.46-.52-.54-.18-.92.4-1.21l-.67-1.07c-.2,0-.4-.04-.6-.11-.71-.25-2.36-1.69-2.39-2.45-.04-1.08,1.41-.79,1.33-1.56-.98-.59-1.9-1.53-2.38-2.58-.11-.23-.01-.61-.23-.62-.25,1.58-.18,3.16-.26,4.75-.24,4.72-.48,9.49-.26,14.2.03.77-.06,1.56.02,2.33.33.33,1.14,1.42,1.57,1.37,1.02-.32,2.23-.82,3.28-.89.18-.02.37,0,.55,0,2.31-1.95,4.13-4.26,4.93-7.34"/>
        <path class="cls-12" d="M38.79,48.17c.23-.48.36-.83.5-1.21h-.13s-.04.04-.08.07l-.6.05c-.63-.11-.59-1.11-.6-1.61-.07-.14-.14-.22-.32-.22-.12,0-1.49,1.2-1.85,1.41-.67.4-1.87,1.01-2.65.75l-.46-.46c-.24-.61.37-1.09.34-1.7-.75.25-1.46.61-2.22.84-.48.15-2.08.6-2.48.53-.21-.03-.46-.15-.59-.33h-1.98c.04.08.08.17.08.29-.09,1.51-4,4.32-5.33,5.05l.85.26c.76,0,2.94-.99,3.39-.53.61,1.37-.58,2.69-1.13,3.83-.08.15-.2.43-.17.61,1.44-.49,2.77-1.28,4.1-2.02.43-.18.85,0,.99.46.14.45.12,2.63.06,3.2-.13,1.21-1.33.97-1.45-.13-.03-.37.16-1.65-.2-1.75-.26-.07-2,1-2.45,1.18-.55.24-1.32.56-1.98.59-.8,3.08-2.63,5.39-4.93,7.34,1.16.02,2.36.33,3.47.51.61-.5.84-1.47,1.63-1.77,3.21-.29,7.69-2.14,10.44.16.4.34.57.79,1.04.97.02-.22.18-.38.26-.59.94-2.76,1.33-6.87,2.89-9.22.26-.39,1.61-1.85,1.65-2.01.16-.52-.41-1.7-.49-2.33-.09-.77.02-1.53.36-2.23"/>
        <path class="cls-3" d="M37.13,83.9c-1.15-.57-2.03-.27-3.2-.18-.46.03-1.02-.08-1.43,0-.6.1-2.08,2.45-2.02,3.06l.13.27c.22.04.41.1.61.15,1.82-1.31,4.19-2.1,6.38-3-.14-.1-.28-.2-.46-.29"/>
        <path class="cls-11" d="M37.59,84.2c-2.18.9-4.55,1.69-6.38,3,.94.27,1.69.76,2.33,1.57.24,0,1.84-1.39,2.44-1.58.87-.26,1.84.07,2.71-.14l.4-1.16c-.02-.1-.18-.08-.22-.13-.45-.61-.73-1.14-1.28-1.55"/>
        <path class="cls-10" d="M36.56,27.19l2.44.22c-.59.62-.98,1.42-1.55,2.09-1.62,1.88-3.71,3.39-5.73,4.82-.18-.33.15-.97-.39-1.04-1.34,1.75-3.7,3.17-5.76,3.88-1.02.35-3.99.51-2.64,2.04,1.36.05,2.63.25,3.92.72-.41,1.04-3.55,1.42-3.76,2.17l.04.43c1.59,1.32,3.94.92,5.8.52.16,1.03-1.7,2.36-1.24,3.26h-1.98c-.12-.12-.34-.12-.55.05-.53.42-1.03,1.11-1.57,1.57-1.11.98-2.72,2.11-4.08,2.7-.37.16-1.28.35-1.91.66l-.67-1.07c.14,0,.27-.02.41-.08.09-.08.22-.17.24-.28.14-.67-2.38-1.26-2.05-2.25.65-.23,1.55-.16,1.66-1.02.09-.82-1.44-1.39-2-1.86-1.38-1.14-1.52-2.46-2.04-4.07-.57-1.72-.29-2.24-.24-3.94.12-3.15.12-6.32.46-9.45l5.08-7.05c.36-.43.92-.3,1.38-.45.46-.13.88-.38,1.35-.46.31.09.18.85.27,1.17.29,1.12,1.4,1.63,2.48,1.57.3-.02.72-.26.99-.08.48,1.35.97,2.55,2.44,3.03.34.11,1.18.3,1.52.3.53-.02,1.24-.4,1.7-.4.4,0,.84.28,1.3.27,1.1-.03,2.57-.93,3.52-1.83l2.27.05c-.65,1.52-1.7,2.76-2.93,3.85-.56.5-2.98,2.03-3.04,2.56-.01.17.12.38.24.51.5.22.87-.05,1.29-.28,1.09-.59,2.41-1.7,3.36-2.87M26.94,31.1c.25-.87-1.86-1.38-2.45-1.81-1.88-1.34-2.93-4.36-3.67-6.45-.94-.13-.35,1.77-.22,2.37.57,2.59,1.57,4.95,4.18,6,.71.28,1.64.64,2.15-.12M21.82,33.91c.65.31,2.17.83,2.12-.28-.62-.61-1.51-.82-2.2-1.34-.4-.3-.89-.85-1.25-1.22-.26-.28-.34-.75-.84-.66-.48,1.35,1.02,2.96,2.16,3.5M19.66,38.17c.14-.11.14-.21.11-.37-.09-.42-1.14-1.27-1.49-1.65-.21-.23-1.14-1.57-1.29-1.57-.29.22-.22.63-.16.95.14.83,1.92,3.23,2.84,2.64"/>
        <path class="cls-13" d="M51.81,73.4c-.89-.16-1.2-2.28-2.11-2.2-.32.02-1.09,1.29-1.37,1.63-.73.85-1.61,1.54-2.02,2.66-1.58.78-3.46.88-5.15,1.37l-6.58,2.81c-1.71-.57.28-1.28.08-2.34-.2-.01-.38-.02-.57.02-.71.17-2.76.93-3.44,1.25-1.19.57-2.99,2.02-4.29,2.23-1.2.2-1.72-.4-.97-1.42-.41-.01-.91-.32-1.27-.37-.63-.08-.52-.01-1.21-.22-1.36-.39-4.76-.49-6.12-.13-.61.16-1.25.6-1.89.6s-1.37-.61-2.07-.65l-.22.32.65,7.36c.21.24.86-.91.98-1.04.32-.36.7-.86,1.21-.55.31.15.48.64.6,1.08,3.42-.74,6.74-1.32,9.92-1.32,1.52,0,2.95-.1,4.33-.24.36-.61.8-1.16,1.38-1.6l3.17-.35h.12c.86-.1,1.74.06,2.53.42,6.1-2,11.01-5.54,16.23-9.73-.71.16-1.5.42-1.91.4"/>
        <path class="cls-16" d="M33.63,89.68c-.78.17-.7-.17-1.14-.49-1.26-.88-2.23-1.05-3.78-.91-.53.04-1.81.55-2.09,0v-.39c.22-.71,1.92-.9,2.56-.97.3-.91.63-1.85,1.12-2.68-1.38.15-2.81.24-4.33.24-3.18,0-6.5.58-9.92,1.32.11.41.18.78.29.79.45.1.57-.27.85-.46.45-.29,1.78-1.17,2.14-.47.34.51-.42,1.51-.33,1.88.03.11.16.2.29.18.5-.02.99-.32,1.52.09.45.43.48,1.05.45,1.63.37.23.84.28,1.19.52.3.2.88.77.38,1.03l-.36.11c-1.08-.63-3.32-.53-2.16-2.25l-.22-.3-1.88.32c-.52-.33.34-1.74.14-2.29-.89-.16-1.83,2.06-2.62,1.51l-.71-2.03c-.93.87-1.12,2.26-1.37,3.46l.78,4.75c7.78,0,15.54.01,23.32.01v-1.96c-.15,0-.28-.05-.39-.18-.57-.71.69-.97,1.05-1.32v-2.68h-2.54c-.3,0-1.64,1.41-2.24,1.53"/>
        <path class="cls-14" d="M38.16,23.24c.18.2-.45,2.01-.59,2.35-.23.52-.58,1.08-1.01,1.61-.95,1.17-2.27,2.28-3.36,2.87-.42.23-.79.5-1.29.28-.12-.13-.25-.34-.24-.51.07-.52,2.48-2.06,3.04-2.56,1.23-1.09,2.27-2.33,2.93-3.85l.52-.2h0Z"/>
        <path class="cls-14" d="M35.1.69c1.63,2.16-1.91,4.97-3.59,2.68.16-.24.2-.15.39-.13.81.08,1.3.2,1.95-.4.64-.58.54-1.61,1.25-2.14"/>
        <path class="cls-11" d="M33.4,68.43c.17-.83.26-1.59.17-2.08-.14-.8-1.11-1.88-1.85-2.19-1.25-.51-2.36-.4-3.64-.24-1.67.2-3.37.54-5.04.83-.32.42-.85.85-.77,1.41.12.39,1.83.36,2.14,1,.07.15.07.29.03.41,2.98.74,5.96.9,8.95.85"/>
        <path class="cls-16" d="M24.45,67.57c-.06.18-.21.31-.45.34-.17.02-1.58-.48-1.83-.6-.54-.25-.92-.66-1.5-.85-1-.32-2.89-.59-3.92-.45-1.52.21-3.21,1.51-4.65.75l.39,10.48c.09.52,1.49.81,1.9,1.23l1.67-1.15c.11-1.19.51-2.34,1.03-3.4.41-.83,1.66-2.77,2.52-3.09.51-.18.92-.09,1.38-.17,2.28-.42,4.4-1.14,6.77-.74.73.13,2.01,1.46,2.5,2.06.9,1.07,1.02,2.4,1.91.35.37-.83.91-2.47,1.21-3.9-2.98.04-5.96-.11-8.95-.85"/>
        <path class="cls-11" d="M29.16,72.44c-.17-.2-1.03-1.11-1.18-1.17-.27-.12-.78-.17-1.31-.19-1.73,3.02-5.7,3.81-8.54,6.01.54,0,1.2-.04,1.45-.02.86.07,3.3.4,3.9.91.26.22.32.51.62.68.45.25,1.96.43,2.45.3.25-.08,2.13-1.02,2.34-1.19.59-.48,1.07-2.03,1.67-2.63.22-.8-.88-2.11-1.41-2.71"/>
        <path class="cls-3" d="M26.68,71.07c-.55-.02-1.12,0-1.46.04-1.65.16-3.37.77-5.05.94-1.26,1.1-2.42,2.85-2.82,4.49-.03.14-.11.27,0,.4.07.1.39.13.77.14,2.84-2.2,6.82-2.99,8.54-6.01"/>
        <path class="cls-14" d="M28.46,54.25c.14.45.12,2.63.06,3.2-.13,1.21-1.33.97-1.45-.13-.03-.37.16-1.65-.2-1.75-.26-.07-2,1-2.45,1.18-.65.28-1.64.71-2.34.6-2.02-.3-.17-1.86.35-2.59.23-.3,1.38-1.94,1.12-2.2-1.53.34-3.05.5-4.62.39-.43-.03-1.49-.17-1.77-.46-.52-.54-.19-.92.4-1.21.63-.32,1.55-.5,1.91-.66,1.36-.59,2.97-1.72,4.08-2.7.53-.46,1.03-1.14,1.57-1.57.22-.17.43-.17.55-.04.04.07.08.16.08.28-.09,1.51-4,4.32-5.33,5.05l.85.26c.76,0,2.94-.99,3.39-.53.61,1.37-.58,2.69-1.13,3.83-.08.15-.2.43-.17.61,1.44-.49,2.77-1.28,4.1-2.02.43-.18.85,0,.99.46"/>
        <path class="cls-14" d="M24.49,29.29c.59.42,2.7.94,2.45,1.81-.51.76-1.45.4-2.15.12-2.61-1.05-3.61-3.42-4.18-6-.13-.6-.72-2.5.22-2.37.74,2.09,1.78,5.11,3.67,6.45"/>
        <path class="cls-14" d="M25.46,15.17c.52.45-.07,1.27-.54,1.54-1.71.95-4.44-.42-4.21-2.51.02-.17.16-.7.32-.73.33-.08.48.89.66,1.16.95,1.44,2.4,1.25,3.77.53"/>
        <path class="cls-14" d="M23.94,33.62c.04,1.11-1.47.6-2.12.28-1.14-.54-2.64-2.15-2.16-3.5.5-.09.58.38.84.66.36.37.85.91,1.25,1.22.68.52,1.58.73,2.2,1.34"/>
        <path class="cls-14" d="M21.88,5.83c.01,1.15-1.49,1.98-2.51,1.87-1.76-.21-3.08-1.7-2.84-3.49h.38c.29,1.43,1.61,2.78,3.18,2.32.39-.11,1.78-1.9,1.79-.7"/>
        <path class="cls-14" d="M19.77,37.8c.03.16.03.26-.11.37-.92.59-2.7-1.82-2.84-2.64-.05-.32-.13-.73.16-.95.15,0,1.09,1.34,1.29,1.57.35.38,1.4,1.23,1.49,1.65"/>
        <path class="cls-15" d="M7.13,56.74c.06,8.11.36,16.21-.07,24.3,5.1-7.67,2.67-15.77.07-24.3"/>
        <path class="cls-17" d="M7.14,50.66c-.03,2.03-.03,4.05-.02,6.08,2.61,8.53,5.03,16.63-.07,24.29-.05,1-.1,2.01-.18,3.01l-.91,8.15h2.94c.47,0,2.14,1,2.87.9l1.23.6c-.39-2.03-.77-4.09-1.02-6.15-.94-7.65-1.25-16.15-1.06-23.84.04-1.86-.3-3.31-.4-5.08-.28-5.23-.02-10.99.34-16.59-1.13-.36-2.42-.55-3.58-.88.02,3.22-.09,6.26-.14,9.51"/>
        <path class="cls-17" d="M16.64,19.42c-.32-.22-.52-.55-.94-.49-.67,1.05-1.32,2.29-2.12,3.26-.92,1.11-1.77,1.41-3.24,1.3-1.41-.1-1.59-.47-1.86-1.79-.51-2.49-.58-5.25-1.11-7.76-.04-.22-.1-.46-.29-.61-.36.15-.56.49-.86.71-.28.21-1,.48-1.03.79-.05.45.41,2.13.51,2.75.62,4.07,1.36,8.27,1.7,12.42,1.31-.83,2.86-1.43,4.46-1.84.1-.67.23-1.21.39-1.46.14-.22.48-.33.7-.61.33-.43.64-1.2,1-1.73.84-1.22,1.8-2.37,2.72-3.54.22-.27.7-.51.66-.91-.04-.34-.43-.34-.68-.5"/>
        <path class="cls-15" d="M7.54,32.43c.09,2.5-.34,4.82-.27,7.31v1.42c1.16.33,2.45.52,3.58.88.19-2.93.4-5.82.59-8.57.06-.93.14-3.57.4-5.3-1.6.41-3.15,1.01-4.46,1.84.06.81.12,1.62.15,2.42"/>
        <path class="cls-10" d="M13.9,16.82c.74.2,1.48-.05,1.47,1.01-.01.5-.52.55-.86.85-1.04.92-1.63,2.15-2.53,3.07-.51.5-1.45.34-2.1.26l-.2-.33-1.23-8.86c.53.11.99.38,1.53.49.4.08,1.02-.12,1.17.38.06.18.01.41.07.6.41,1.46,1.24,2.14,2.68,2.53"/>
        <path class="cls-14" d="M13.73,8.52c.65.02,1.4-.42,2.01.19-1.41,1.45-4.55.83-4.93-1.33-.08-.49-.16-1.54.5-1.6.03,1.46.87,2.66,2.41,2.74"/>
        <path class="cls-16" d="M12.09,94.27H-2.38v-10.03c.38.08.24-.18.31-.42.12-.48.22-.87.54-1.27.5,0,.99,1.88,1.7,1.96.67.07,1.17-1.61,1.83-1.83.32-.1-.04,2.15.67,2.33.5.12,2.09-1.05,2.77-.89l-.77,8.12-.77.36c-.1,1.17.97.59,1.63.52.84-.09,2.16-.24,2.97-.14.48.07,1.13.42,1.64.58.63.2,1.53.21,1.95.72"/>
        <path class="cls-13" d="M7.01,9.68c-.57.63-.37,1.53-.64,2.28-.33.89-1.79,2.01-2.75,1.7-.6-.18-.32-.94-.7-1.25-.86-.5-.9.6-1.25.99-.32.37-1.54,1.26-2,1.51-.79.45-1.19.51-2.05.11V-.35H3.29V.17c-1.63.45-1.97,2.83-1.28,4.17.45.86,1.23,1.12,2.08,1.44.13.39.02.8.09,1.22.21,1.23,1.72,2.34,2.84,2.7"/>
        <path class="cls-10" d="M5.83,28.14c.75,6,.39,12.2.27,18.23-.02,1.01-.04,2.02-.07,3.03l-1.52-.03c0-.28-.13-.47-.66-.3-.49.15-1.74,1.97-2.93,2.42-2.15.84-1.09-.32-.66-1.32.47-1.1.73-2.28.7-3.48l-.37-.24c-1.03.34-1.82,1.41-2.96,1.28v-.52c.29.08.27-.15.4-.32,1.35-1.76,2.46-3.79,2.47-6.07H.1c-.13.99-.73,1.99-1.25,2.86-.34.57-.77,1.22-1.23,1.71v-7.7c.7-.08,1.32-.81,1.76-1.29.95-1.02,2.62-3.34,2.56-4.76-.02-.34-.28-.76-.61-.46l-3.71,4.57v-5.22c1.13.1,2.34-1.59,2.76-2.51.29-.63.79-1.78.17-2.3-1.01,1.17-1.69,2.67-2.94,3.65v-13.04c1.4.42,2.21-.07,3.31-.8.37-.25,1.1-1,1.47-1.02.1,0,.99.27,1.09.34.36.2.55,1.52.64,1.97.66,3.6,1.24,7.69,1.7,11.33"/>
        <path class="cls-10" d="M6.03,49.4c-.05,2.99-.13,5.98-.2,8.95-.04,1.53.15,3.03.12,4.56l-.3.22c-1.65.25-4.08,1.67-5.71,1.39-.74-.13-1.51-.79-2.32-.75v-14.86L-.03,47.74c.08.8-.34,1.53-.73,2.21-.37.64-1.7,1.95-1.29,2.62,1.64.86,3.71-.21,5.08-1.17.4.08.05,1.39.26,1.7.49.33.9.1.98-.47.1-.75.09-1.7.13-2.47.01-.22.11-.53.11-.78l1.52.03h0Z"/>
        <path class="cls-16" d="M5.97,69.12v6.19s-.17.18-.13.33c-1.12-.63-2.34.05-3.51,0-.2-.41.48-2.25-.2-2.22-.42.01-1.79,1.37-2.22,1.7-.11.09-.13.17-.33.13-.09-.72-.5-1.44-.28-2.14-.57-1-1.18.05-1.67.58v-8.08c.73.08,1.38.58,2.08.72,1.78.37,4.04-1.07,5.71-1.35.25-.03.4-.05.56.17v2.61c-.91.71-2.28,1.21-3.17,1.91-.5.39-.36.77.17.71,1.1-.14,1.91-1.26,2.99-1.25"/>
        <path class="cls-13" d="M.03,82.68c.11.11.24.15.39.11.19-.07,1.38-1.89,2.1-1.76,1.01.03,0,2.21.44,2.75.37.26,1.94-.77,2.49-.78.12-.09.24-.84.25-1.04.13-1.51.06-3.06.13-4.57.01-.27.24-.6.08-.85-.17-.26-.53,0-.79.01-.34.01-.68-.03-1.02.01-.54.07-2.35.71-2.55-.11l.12-1.73c-.82-.01-1.61,1.88-2.35,1.5-.52-.48-.45-1.26-.65-1.89-.21-.05-.26.08-.39.2-.31.27-.26.73-.65.72v6.65c1.1-1.64,1.72-.29,2.4.79"/>
        <path class="cls-14" d="M4.51,49.37c0,.25-.1.57-.11.78-.04.77-.03,1.72-.13,2.47-.08.57-.49.79-.98.47-.21-.3.14-1.62-.26-1.7-1.37.97-3.44,2.03-5.08,1.17-.4-.67.92-1.98,1.29-2.62.39-.67.8-1.4.73-2.21l-2.35,1.17v-1.17c1.14.13,1.92-.95,2.96-1.28l.37.24c.03,1.2-.23,2.38-.7,3.48-.42,1-1.49,2.15.66,1.32,1.18-.46,2.44-2.27,2.93-2.43.53-.16.66.02.66.3"/>
        <path class="cls-14" d="M1.94,31.64c.06,1.43-1.61,3.74-2.56,4.76-.45.49-1.07,1.22-1.76,1.29v-1.95l3.71-4.57c.33-.3.59.12.61.46"/>
        <path class="cls-14" d="M.56,25.72c.62.52.12,1.68-.17,2.31-.42.92-1.63,2.61-2.76,2.51v-1.16c1.25-.98,1.92-2.48,2.94-3.65"/>
        <path class="cls-14" d="M.1,40.83h.39c0,2.28-1.12,4.31-2.47,6.07-.13.16-.11.39-.4.32v-1.82c.46-.49.89-1.14,1.23-1.71.52-.87,1.12-1.87,1.25-2.86"/>
      </g>
    </g>
  </g>
</svg>