<?xml version="1.0" encoding="UTF-8"?>
<svg id="Layer_1" data-name="Layer 1" xmlns="http://www.w3.org/2000/svg" xmlns:xlink="http://www.w3.org/1999/xlink" viewBox="0 0 90 90">
  <defs>
    <style>
      .cls-1 {
        fill: #a9bc69;
      }

      .cls-2 {
        fill: #bfbebe;
      }

      .cls-3 {
        fill: #b6c370;
      }

      .cls-4 {
        fill: #b7c470;
      }

      .cls-5 {
        fill: #fff;
      }

      .cls-6 {
        fill: #d4d5dd;
      }

      .cls-7 {
        fill: none;
      }

      .cls-8 {
        fill: #d5d781;
      }

      .cls-9 {
        fill: #b7aca2;
      }

      .cls-10 {
        clip-path: url(#clippath-1);
      }

      .cls-11 {
        fill: #919d5f;
      }

      .cls-12 {
        fill: #908881;
      }

      .cls-13 {
        fill: #849a52;
      }

      .cls-14 {
        fill: #663925;
      }

      .cls-15 {
        fill: #a69b91;
      }

      .cls-16 {
        clip-path: url(#clippath);
      }
    </style>
    <clipPath id="clippath">
      <rect class="cls-7" x="0" y="-.01" width="90" height="90"/>
    </clipPath>
    <clipPath id="clippath-1">
      <rect class="cls-7" x="-2.94" y="-.36" width="94.35" height="90.71"/>
    </clipPath>
  </defs>
  <g class="cls-16">
    <g class="cls-10">
      <g>
        <path class="cls-13" d="M20.52,51.78c-.27.22-.63.29-.91.51-.11.08-.22.23-.33.38.36,0,.72.03,1.07.05.09-.37.18-.72.17-.94"/>
        <path class="cls-13" d="M42.7,72.54c.69-.22,1.39-.53,2.11-.97-.7.35-1.41.67-2.11.97"/>
        <path class="cls-13" d="M18.37,50.59c-1.21.63-1.49-1.41-1.83-2.21-.5.24-.41,2.11-.85,2.21-.38.08-1.35-1.87-1.63-1.55-.08.36-.08,1.39-.35,1.57-.62.33-1.13-.37-1.69-.64-.46-.22-1-.26-1.38-.43-.92-.41.48-1.24.56-1.92-.08-.07-1.34.51-1.53.62-.29.17-.62.72-.96.49-.43-.3.37-1.64.53-2.02-.13-.11-1.77.74-2.05.89-.25.13-1.33,1.03-1.35.23-.01-.71,1.03-1.57,1.04-1.83l-.52-1.64c-.31.1-.39.8-.78.6-.35-.18-.47-1.01-.59-1.38-.04-.12-.02-.29-.2-.26l-.33,1.17c-.31.48-2.7.33-3.12-.13l-.17-.35c.22-.34.34-.72.5-1.09.1-.22.2-.49.39-.64l-.17-.25c-.52.04-2.19,1.49-1.99.24.04-.28.45-1.55.34-1.68-.4.21-.79.46-1.16.73-.28.21-1.32,1.23-1.58.96-.12-.43.2-.75.26-1.11.04-.27-.02-.58.03-.88.1-.49.55-1.24.5-1.72l-1.32-2.15v14.71c7.06,1.14,14.11,1.24,21.17,1.52-.18-.59.18-1.39.22-2.03"/>
        <path class="cls-3" d="M27.41,82.45c.52-.09,1.02-.14,1.53-.19-.11-.3-.29-.66.05-.9.21.3.63.46.84.73,0,.02.04.07.06.1,1.01-.04,1.99,0,2.95.09-.29-1.07-.82-2.11-1.4-3.06-1.56.76-2.96,1.82-4.02,3.23"/>
        <path class="cls-3" d="M41.55,78.1c-2.69-.67-6.2-.51-9.27.73.92.88,1.6,2.27,1.93,3.63.58.1,1.15.23,1.72.38l-.23-3.04c.9.01,1.19,1.33,1.27,2.05.02.2.06.74.06,1.3.52.16,1.04.34,1.55.53.18-1.64,2.36-4.35,4.04-4.41-.33,1.29-1.4,2.13-2.02,3.25-.33.58-.48,1.15-.66,1.71.54.24,1.08.49,1.61.76.29-.57.74-1.08,1.16-1.4.26-.21,1.46-1.11,1.48-.35,0,.3-1.22,1.65-1.5,2.03-.05.07-.1.15-.15.23.76.41,1.52.84,2.28,1.29,1.09-4.35,0-6.53-3.26-8.7"/>
        <path class="cls-3" d="M13.27,83.54c-4.35-2.17-9.79-2.17-13.05,2.17.15.03.31.08.46.11-.07-.31.09-.42.42-.52.39.24.75.54,1.07.88.9.26,1.8.56,2.7.89-.26-.93-.66-1.84-.88-2.75-.13-.51-.39-1.45.43-.83.81.6,1.64,2.57,1.95,4.14,1.46.57,2.92,1.17,4.39,1.73.36-1.04,2.21-3.25,2.97-3.84.18-.14,1.23-.79,1.37-.65.15.16-.29,1.03-.41,1.22-.65,1.02-1.75,2-2.38,3.1-.12.21-.21.42-.3.64,1.51.54,3.01,1.02,4.52,1.32,1.09-4.35-1.09-6.52-3.26-7.61M8.99,88.01c-.53-.03-.74-.82-.78-1.24-.05-.53.08-3.47.59-3.59.34-.08.57.86.59,1.11.12,1.23-.11,2.53-.39,3.72"/>
        <path class="cls-13" d="M91.37,71.11c-.12-.28.23-1.05-.27-.96l-.79,3.51-.42-.02c-.52-.17-.72-1.62-.86-2.14-.04-.18.1-.36-.21-.31-1.16,1.08-2.01,2.43-2.99,3.65l-.39.13c-.14-.01-.26-.09-.35-.2-.36-.45,0-3.12.01-3.85l-1.01,2.04-.24.28-.45-.04c-.21-.11-.4-.61-.46-.85-.03-.14-.2-.91-.2-.98v-2.15c-.22.03-.23.25-.29.42-.3.86-.22,1.89-.49,2.64-.04.13-.03.26-.21.3h-.49l-.15-.11-1.49-3.13c-.01.82.04,1.74-.14,2.53-.08.37-.32.53-.68.45-.34-.1-1.17-1.72-1.65-1.94-.07.49.22,1.32-.26,1.62-.97.34-1.86.3-2.83.7-.36.15-1.51,1.04-1.61.22-.09-.77,1.49-2.87,1.32-3.06-.63.22-1.34.54-1.87.93-.59.43-.98,1.3-1.77,1.13l-.12-.66,1.15-3.49c-.15-.16-1.1.75-1.24.91-.41.45-.89,1.13-1.12,1.69-.15.03-.38.04-.52-.04-.54-.37.62-3.3.53-3.99-.64.47-1.17,1.22-1.43,1.96l-.46-.13.06-.43c-.49-.75-1.23.01-1.82-.28-.49-.24-.15-.79-.13-1.16.03-.86.07-1.7.13-2.54l-.67,1.09c-.29.43-.77,2.94-1.53,2.42-.29-.63-.45-1.3-.53-2-.05-.41.15-.92-.2-1.24-.34.51-.62,3.13-1.18,3.25-.19.04-.33-.22-.42-.35l-.94-1.99v2.14c0,.08-.27.5-.44.47l-.85-.66c-.07.66.22,1.11,0,1.76-.1.28-.23.49-.52.25l-.15-.41c-.9-.45-1.89.21-2.85-.09-.43-.28.39-1.13.55-1.41.14-.24.15-.47.24-.65.09-.15.3,0,.26-.22-.95.15-1.65.79-2.44,1.28l-.3-.17-.13-.27,1.3-3.06c-.58.15-2.29,2.15-2.65,2.08-.6-.43-.23-.99-.21-1.49,0-.67-.02-1.35,0-2.02l-.86,1.83-.42-.02c-.03-.18-.03-.39-.22-.49-.83-.16-1.47-.71-2.23-1.03-.22-.02-.86.75-1.41.75l-.29-.09c-.72-.35-.84-2.77-1.08-3.56-.35.14-.63.55-1.04.34-.25-.16,0-1.28-.38-1.58-1.23-.41-2.12.67-3.25.58-.37-.27.52-1.75.51-2.2-.24-.05-.32.13-.46.26-.33.28-1.56,1.69-1.83,1.7-.22,0-.29-.14-.33-.33-.13-.72.17-1.57.2-2.28-.31.29-.58.64-.83,1-.2.29-.52,1.11-.78,1.15-.56.09-.68-.96-.81-1.37-.52-.15-1.27.59-1.7.33-.51-.32-.16-2.59-.12-3.2-.49.14-1.77,2.32-1.91,2.35s-.49.04-.58-.08c-.21-.52-.1-1.08-.12-1.62-.58.16-1.27,2.01-1.94,1.54l-.48-1.94c-.15,0-.32,2.58-.81,2.73-.65-.03-1.29-.27-1.95-.37-.79-.11-1.95.18-2.02-.73-1.3,1.37-2.79,2.56-3.46,4.56,6.53,2.18,13.05,3.26,19.58,1.09-4.35,2.18-6.53,6.53-10.88,8.7,4.72.94,8.62,3.52,13.11,2.06.7-.3,1.41-.62,2.11-.97-.72.43-1.42.74-2.11.97-5.82,2.49-11.64,3.27-17.46,2.29-2.77-.75-5.65-1.68-8.56-2.54-.13.11-.29.13-.46-.05-.02-.03-.02-.06-.04-.09-6.69-1.96-13.47-3.49-19.19-1.64v23.88h94.62v-22.41l-.24-.87h0ZM16.53,91.15c-1.51-.3-3.01-.78-4.52-1.32-.12.29-.22.58-.31.89-.89.22-1.18-.4-1-1.2.01-.05.04-.11.06-.16-1.46-.56-2.92-1.16-4.39-1.73.12.63.17,1.19.1,1.57-.08.42-.34,1.06-.87.87-.38-.93-.45-1.93-.7-2.89-.01-.04-.02-.07-.03-.11-.9-.33-1.8-.63-2.7-.89.43.45.78.98,1.01,1.55.34.86.77,2,0,2.73-.56.14-1.01-2.1-1.21-2.56-.3-.7-1.11-1.49-1.27-2,0-.04,0-.06-.02-.09-.15-.03-.31-.08-.46-.11,3.26-4.35,8.7-4.35,13.05-2.18,2.17,1.09,4.35,3.26,3.26,7.61M44.81,86.8c-.76-.45-1.52-.89-2.28-1.29-.3.51-.58,1.2-1.22,1.2-.19-.54-.06-1.15.23-1.71-.53-.27-1.07-.52-1.61-.76-.12.38-.25.76-.47,1.14-.46.29-.9-1.07-.9-1.48,0-.07,0-.14.02-.21-.51-.2-1.03-.37-1.55-.53,0,.69-.08,1.4-.35,1.46-.45-.09-.57-.63-.68-1l-.06-.77c-.57-.15-1.14-.27-1.72-.37.23.93.3,1.85.16,2.57-.02.14-.33.83-.38.86-.34.22-.6-.38-.68-.65-.25-.83-.21-1.85-.41-2.72-.02-.08-.05-.16-.07-.25-.96-.1-1.94-.14-2.94-.09.37.6,1.38,3.09,1.38,3.53,0,.48-.33.78-.7.32-.35-.43-1.38-3.07-1.61-3.73,0-.02,0-.03-.02-.05-.5.05-1.01.1-1.53.19,1.06-1.41,2.46-2.47,4.02-3.23-.12-.2-.24-.4-.36-.59l.14-.53c.39.16.75.42,1.08.73,3.06-1.24,6.58-1.41,9.27-.73,3.26,2.18,4.35,4.35,3.26,8.7M72.47,86.16c-.31.46-.67.85-1.18,1.06-.12-.37-.11-.77-.02-1.17-1.01-.15-2.03-.41-3.07-.7-.05.09-.09.17-.14.26-.08.14.02.24-.29.17-.05-.19-.08-.39-.1-.58-.69-.2-1.39-.39-2.09-.56.02.12.04.24.06.34.2,1.05.58,2.54-.16,3.4-.47.14-.78-.86-.88-1.2-.26-.89-.31-1.91-.5-2.85-.67-.11-1.33-.17-1.99-.15.35.81,1.1,2.78.36,3.02-1.01.34-1.23-1.67-1.51-2.36-.07-.17-.14-.33-.22-.5-.98.21-1.94.63-2.87,1.37v-4.35c3.76-3.76,13.23-4.27,16.41,1.3.09,0,.18.02.27.05.16.1.12.28,0,.49.35.74.6,1.57.71,2.5-.91.36-1.84.48-2.8.45"/>
        <path class="cls-13" d="M73.58,84.36c-.41.55-.72,1.22-1.11,1.8.96.03,1.89-.09,2.8-.45-.12-.94-.37-1.77-.71-2.51-.24.43-.85.98-.97,1.16"/>
        <path class="cls-3" d="M74.27,82.67c-3.19-5.57-12.65-5.07-16.41-1.3v4.35c.93-.74,1.89-1.16,2.87-1.37-.48-1.05-1.11-2.09-1.06-3.24,1.03.55,1.82,1.78,2.32,2.84.03.06.07.15.11.24.66-.02,1.32.05,1.99.15-.02-.08-.03-.17-.05-.25-.24-1.03-.72-1.96-.85-2.99.22-.22,1.12.52,1.31.71.6.65.89,1.89,1.07,2.83.69.17,1.39.36,2.08.56-.15-1.62.81-3.54,2.12-4.38.16-.1.25-.16.46-.12.32.33-.96,2.27-1.15,2.69-.34.68-.53,1.29-.89,1.96,1.03.29,2.06.55,3.07.7.18-.81.68-1.62,1.14-2.21.46-.58,1.1-1.26,1.87-1.18"/>
        <path class="cls-1" d="M16.18,72.15c-.29-.63-.29-1.32-.49-2-.2-.63-.6-1.36-.91-1.96-.13-.25-1-1.53-.85-1.69.27-.07.35.04.53.18,1.31.99,2.81,3.5,2.44,5.19-.03.16-.12.32-.23.41,2.91.86,5.79,1.79,8.56,2.55,5.82.97,11.64.2,17.47-2.3-4.5,1.46-8.4-1.11-13.11-2.05,4.35-2.18,6.53-6.53,10.88-8.7-6.53,2.17-13.05,1.09-19.58-1.09.67-2,2.16-3.19,3.46-4.56-.01-.14,0-.3.04-.5.05-.24.32-.45.24-.74-.22-.21-1.91.65-2.28.64-1.04-.02.1-2.03.33-2.47-.08-.07-1.21.52-1.39.63-.24.13-.74.73-1.02.29-.15-.23-.03-.77.1-1.28-.36-.02-.72-.03-1.07-.05-.19.27-.39.55-.58.55-.32-.14-.47-.35-.54-.59-7.06-.28-14.11-.38-21.17-1.52v19.41c5.72-1.85,12.5-.32,19.19,1.64M30.49,66.63c.35.35-1.45,1.86-1.68,2.15-.57.68-1.01,1.57-1.44,2.34l-.33.08c-.56-.8.02-1.89.52-2.6.68-.96,1.7-1.9,2.92-1.97M24.53,67.25c.54-1.46,1.77-3.02,3.35-3.35.23.22-1.07,1.58-1.23,1.83-.86,1.3-.96,2.42-1.53,3.68-.08.15-.34.67-.56.62-.73-.78-.37-1.88-.03-2.77M21.36,63.31c.02-.08.22-.24.33-.19.58.51.68,1.34.82,2.05.18,1.01.41,2.21.03,3.15l-.46-.13c-.12-.2-.21-.4-.29-.62-.14-.39-.42-1.67-.42-2.04,0-.5-.1-1.87,0-2.22M18.49,66.05c1.2,1.37,2.35,3.52,1.31,5.28-.34.05-.19-.05-.26-.18-.44-.86-.37-1.52-.64-2.36-.4-1.24-1.48-2.26-1.57-3.58.22-.23,1.01.66,1.16.85M15.44,57.12c-.24.47-1.35,1.37-1.76,1.89-.44.55-.59,1.18-1.12,1.61l-.43-.18c-.71-.63.12-1.74.58-2.28.7-.8,1.68-1.64,2.81-1.55.01.18.02.35-.06.52M10.49,56.6c.32-.57,1.69-2.41,2.34-2.36.7.23.17.76-.11,1.13-.28.36-.66.71-.92,1.11-.54.86-.84,1.78-1.26,2.71h-.37c-.4-.88-.11-1.77.33-2.59M6.06,53.61c.55-.15,1.44,1.16,1.64,1.6.43.9.61,2.3.5,3.28-.04.47-.28,1.24-.86.85-.41-.36-.36-2.32-.5-3.01-.08-.34-.19-.78-.33-1.11-.13-.31-1.02-1.46-.46-1.61M2.93,55.03c.55-.11,1.99,2.1,2.21,2.6.42.97.63,2.03-.13,2.87-.22.05-.26-.17-.33-.32-.26-.53-.27-1.24-.45-1.77-.33-.96-1.12-1.97-1.45-2.99-.08-.23-.04-.24.14-.39"/>
        <path class="cls-14" d="M91.61,68.32v3.65l-.24-.87c-.12-.28.23-1.05-.27-.96l-.79,3.51-.42-.02c-.52-.17-.72-1.62-.86-2.14-.04-.17.1-.36-.21-.3-1.16,1.08-2.01,2.42-2.99,3.65l-.39.13c-.14-.01-.26-.09-.35-.2-.36-.45-.01-3.12,0-3.85l-1.01,2.04-.24.28-.45-.04c-.21-.11-.4-.61-.46-.85-.03-.14-.2-.91-.2-.98v-2.15c-.22.03-.23.25-.29.43-.3.86-.22,1.89-.49,2.64-.04.13-.03.26-.21.3h-.49l-.15-.11-1.49-3.13c-.01.82.04,1.74-.14,2.53-.08.37-.32.53-.68.45-.34-.1-1.17-1.72-1.65-1.94-.07.49.22,1.32-.26,1.62-.97.34-1.86.3-2.83.7-.36.15-1.51,1.04-1.61.22-.09-.77,1.49-2.87,1.32-3.06-.63.22-1.34.54-1.87.93-.59.43-.98,1.31-1.77,1.13l-.12-.66,1.15-3.49c-.15-.16-1.1.75-1.24.91-.41.45-.89,1.13-1.12,1.69-.15.03-.38.04-.52-.04-.54-.37.62-3.3.53-3.99-.64.47-1.17,1.22-1.43,1.96l-.46-.13.06-.43c-.49-.75-1.23.01-1.82-.28-.49-.24-.15-.79-.13-1.16.03-.86.07-1.7.13-2.54l-.67,1.09c-.29.42-.77,2.94-1.53,2.42-.29-.63-.45-1.3-.53-2-.05-.41.15-.92-.2-1.24-.34.51-.62,3.13-1.18,3.25-.18.04-.33-.22-.42-.35l-.93-1.99v2.14c0,.08-.27.5-.45.47l-.85-.66c-.07.66.22,1.11,0,1.76-.1.28-.23.49-.52.25l-.15-.41c-.9-.45-1.89.21-2.85-.09-.43-.28.39-1.13.55-1.41.14-.24.15-.47.24-.65.09-.15.3-.01.26-.22-.95.15-1.65.79-2.44,1.28l-.3-.17-.13-.27,1.31-3.06c-.58.15-2.29,2.15-2.65,2.08-.6-.43-.23-.99-.21-1.49,0-.68-.02-1.35,0-2.02l-.86,1.83-.42-.02c-.03-.18-.03-.39-.22-.49-.83-.16-1.47-.71-2.23-1.03-.22-.02-.86.75-1.41.75l-.29-.09c-.72-.35-.84-2.77-1.08-3.56-.35.14-.63.55-1.04.34-.25-.16,0-1.28-.38-1.58-1.23-.41-2.12.67-3.25.58-.37-.27.52-1.75.51-2.2-.24-.05-.32.13-.46.26-.33.28-1.56,1.69-1.83,1.7-.22,0-.29-.14-.33-.33-.13-.72.17-1.57.2-2.28-.31.29-.58.64-.83,1-.2.29-.52,1.11-.78,1.15-.56.09-.68-.96-.81-1.37-.52-.15-1.27.59-1.7.33-.51-.32-.16-2.59-.12-3.2-.49.14-1.77,2.32-1.91,2.35s-.49.04-.58-.08c-.21-.52-.1-1.08-.12-1.62-.58.16-1.27,2.01-1.94,1.54l-.48-1.93c-.15,0-.31,2.58-.8,2.73-.65-.03-1.3-.27-1.95-.37-.9-.13-2.32.28-1.98-1.23.06-.24.32-.45.24-.74-.22-.21-1.92.65-2.28.64-1.04-.02.1-2.03.33-2.47-.08-.07-1.21.52-1.39.63-.24.13-.74.73-1.02.29-.26-.4.29-1.71.26-2.22-.27.22-.63.29-.91.51-.31.24-.61.92-.9.92-1.09-.49-.37-1.73-.33-2.62-1.21.63-1.49-1.41-1.83-2.21-.5.24-.41,2.11-.85,2.21-.38.08-1.35-1.87-1.63-1.55-.08.36-.08,1.39-.35,1.57-.62.33-1.13-.37-1.69-.64-.46-.22-1-.26-1.38-.43-.92-.41.48-1.24.56-1.92-.08-.07-1.34.51-1.53.62-.29.17-.62.72-.96.49-.43-.3.37-1.64.53-2.02-.13-.11-1.77.74-2.05.89-.25.13-1.33,1.03-1.35.23-.01-.71,1.03-1.57,1.04-1.83l-.52-1.64c-.31.1-.39.8-.78.6-.35-.18-.47-1.01-.59-1.38-.04-.12-.02-.29-.2-.26l-.33,1.17c-.31.48-2.7.33-3.12-.13l-.17-.35c.22-.34.34-.72.5-1.09h.39c-.09.22-.19.38-.26.59.07.07.11.15.21.18.41.12,1.45.05,1.95.15l.26-.13.47-1.29h.42l.47,1.54.72-.39.72.39.52-1.56c-.63-.15-1.34-.58-1.33-1.28-1.35-.24-3.18-1.73-3.31-3.15-.02-.25.1-.46.07-.7-.07-.53-.28-1.1-.25-1.65l-2.42,1.04c-.2.2-1.36,3.23-1.37,3.59,0,.2-.02.22.19.2.25-.3,1.48-.79,1.77-.6.42.35-.42,1.87-.27,2.03.42-.08,1.51-.73,1.88-.65.09.02.24.21.21.33-.14.27-.26.41-.39.72h-.26l-.17-.25c-.52.04-2.19,1.49-1.99.24.04-.28.45-1.56.34-1.69-.4.21-.79.46-1.16.73-.28.21-1.32,1.23-1.58.96-.12-.44.2-.75.26-1.11.04-.27-.02-.58.03-.88.1-.49.55-1.24.5-1.72l-1.32-2.15v-2.99c.34.07.27-.16.36-.36.76-1.75,1.48-3.5,2.35-5.2-.45-1.35-.67-2.56-.75-3.96,0-.13,0-.26,0-.39,0-.2-.2-.42-.08-.65.43-.48.67-1.08,1.01-1.61.08-.12.22-.18.24-.22h.26c-.46.79-.73,1.51-.91,2.41l.91,3.71,3.89-.91c.11-.72.12-3.25.59-3.65.13-.1.24-.15.4-.12l.33.73-.37,3.09c.05.28,1.15,1.83,1.41,2.11.78.85,1.29.6,2.25.88,1.87.58,3.72,1.25,5.5,2.06,1.71-1.23,3.76-1.46,5.74-1.95l.18-1.45c-.61.1-.97-.07-1.47-.37-1.28,1.13-4.09,1.74-4.39-.53-1.32.33-3.29.59-3.26-1.3-1.58.57-4.31.26-2.6-1.89.68-.86,1.06-.64,1.68-1.04.15-.1.4-.63.59-.85.33-.37.8-.89,1.24-1.04-.08-.48-1.23-1.03-1.63-1.03-.3.01-.61.39-.88.36-.29-.03-.71-.43-1-.57-1.73-.72-2.53.54-3.97.33-.35-.05-.65-.34-.99-.45-1.34-.48-1.76.1-2.86.71-.03.02-.1-.01-.13,0-1.12-1.19-2.41-1.07-3.65-.13v-1.3c1.39-.73,2.72-.71,3.98.27.8-.53,1.61-.8,2.6-.65.39.07.85.41,1.21.49.93.2,2-.85,3.46-.6.59.11,1.15.65,1.49.73.19.06.5-.11.76-.12.83-.01,1.97.72,2.36,1.46,1.01-.3,1.74-.09,2.48.63,1.28-.4,2.26-.46,3.48.16.16.08.27.3.43.36.23.07.59-.11.88-.13,1.24-.05,2.61.74,3.07,1.91.96-.15,1.88-.22,2.41.72.57-.18,1.14-.66,1.72-.76.42-.08,1.5-.17,1.93-.17,1.08-.01,1.59.84,2.22,1.55.23,0,1.51-.77,1.88-.83.67-.1,1.03.47,1.53.57.33.07.65,0,.98.07,1.2.22,2.98,1.15,3.23,2.45.6-.22,1.14-.15,1.74-.02.47-.68,1.5-1.43,2.37-1.43.27,0,.55.16.77.14.21-.02.61-.38.98-.47,1.06-.24,2.02.37,2.57,1.25,1.63-.34,2.57.36,2.39,2.08l1.28.13c.54-1.24,2.15-2.44,3.45-1.59,1.35-.93,3.34-1.02,4.34.42,1.09-.37,1.96-.41,2.87.37,1.29-.86,2.75-1.19,3.75.25,1.13-.4,2.25-.77,3.33-.03.43.3.65.82.98,1.11.19.17.5.23.73.45.37.34.98,1.67,1.05,1.74.1.06.7.11.98.25.78.41,1.06,1.32,1.22,2.12.46-.3.87.05,1.35,0,.4-.04.78-.45,1.2-.51l1.28.38c.29-.26.23-.6.53-.9.48-.49,2.08-1.09,2.75-1.16.68-.08,2.44-.2,3.08-.11.79.11,1.98.64,2.16,1.49.07.28-.04.45-.04.68,1.5-.43,4.06.07,4.72,1.68.33.76,0,1.69.68,2.37v1.44c-.4.56-.56,1.17,0,1.7v1.3c-.43.99-.83,1.71-2.09,1.37-.48-.13-.75-.64-1.24-.72-.87-.13-1.93.38-2.86-.09-.75.83-2.22,1.74-3.36,1.49-.25-.05-.49-.3-.71-.35-.34-.04-.84.26-1.27.25-.64-.02-1.88-.33-2.35-.78-.26-.26-.38-.8-.49-.89-.22-.17-.81-.1-.96-.68-1.63.67-4.67,1.92-4.74-.9-.82.02-1.72.39-2.07-.62-.1-.52.58-1.58.93-1.95.17-.17.86-.57.93-.7.1-.16.17-.92.13-1.17l-4.95,4.57c-.27.83-.6,1.64-.96,2.44-.4.86-2.49,4.22-1.96,4.97,1.03.32,2.01,1.13,2.98,1.51.9.37,2.14.5,3.12.78,1.05.3,2.54,1.04,3.48,1.22.6.11,1.05.03,1.71.25.53.17,1.17.73,1.55.79.3.05,1.03-.17,1.37-.27.41-.12,1.73-.77,2-.36l.05.65c.88-.14,1.95-.59,2.82-.64.38-.02.89.11.84.58-.03.35-.45.3-.53.59,1.29-.2,1.93.39,2.7,1.28.61-.26,1.18-.63,1.78-.91.63-.29,1.52-.53,2.09-.91.7-.47,1.16-1.43,2.03-1.67v1.57c-.31.14-.4.49-.64.73-.26.25-.62.36-.85.72-.23.37-.88,2.12-.96,2.56-.18,1.17.65,1.96.76,3.1.09,1.01-.36,3.43-1.53,3.69-.87.2-1.76-.23-2.64-.1,0,.68-.24,2.01-1.1,1.96-.77-.16-1.02-1-1.6-1.42-.41.08-.71.32-1.16.37-1.12.13-3.38-.02-4.48-.32-.47-.11-1.1-.53-1.51-.59-.6-.08-1.48.52-1.95.14-.49-.38.02-2.14-.06-2.23-1.6.46-1.54-.51-1.11-1.7l1.75-2.86c-.55-.1-.82.08-1.23.39-.88.65-3.43,2.87-3.78,3.77-.66,1.68-1.08,3.74-1.63,5.47,2.19-2.26,1.87-.16,1.28,1.61-.05.14-.24.28.09.22.25-.04,1.27-1.21,1.68-1.33.5-.22.93-.59,1.52-.5.26.67-1.46,3.57-1.18,3.92,1.07-.7,2.24-1.46,3.57-1.44.1.02.17.26.18.36.04.59-1.02,1.96-1.27,2.58l2.51-.46c.07-.03.22-.43.22-.46v-1.96c.21-.29.49-.21.75-.02l1.47,2.04.28-2.91c.02-.1.09-.17.18-.21,1.01-.29,1.56,2.39,2.14,2.86.11-1.26.62-2.6,1.42-3.59.36-.13.7-.16.78.27.24,1.2.08,2.5.33,3.71.4-.54.64-1.19,1-1.74.17-.25.9-1.26,1.08-1.4.22-.17.56-.14.84-.1.27.43-.07.72-.17,1.15-.36,1.35-.75,2.79-.65,4.18.52-.7,2.3-3.22,3.23-2.98.1.02.17.1.23.16l.51,1.25c.35-1.09.58-2.75,1.7-3.26M89.91,39.73c.07-.55.63-.65.52-1.57-.08-.6-.53-.95-.62-1.34-.2-.87.32-1.28-.76-1.84-.93-.48-2.17-.39-3.18-.75-.58-.62-.37-1.36-1.3-1.69-.77-.27-1.08-.1-1.75-.07-1.15.04-2.34.05-3.37.66-.55.33-.36.64-.6.97-.11.15-.72.49-.93.53-.55.11-.89-.35-1.37-.35s-.89.49-1.32.53c-.52.04-.87-.35-1.53,0-1.02.57-.93,1.39-1.22,2.31-.26.85-.5.63-1.01,1.07-.54.45-.9,1.02-1.24,1.63.57.26,1.65-.39,2.13-.08.38.25-.05.96.11,1.35.15.51.99.37,1.41.29,1.08-.19,2.01-1,3.12-.98l.07.91.13.09c.89-.34.85.7,1.33,1.07.56.43,1.65.29,2.32.41.79.13,1.27.52,2.16.33.39-.09,1.47-.63,1.62-.98.09-.22-.35-.84.26-.92.55-.02,1.02.25,1.57.27,1.01.05,1.7-.45,2.72.15.37.22.92.95,1.2.11.33-1-.54-1.42-.47-2.14M88.46,61.97c.36-1.33.49-2.36-.25-3.59-.72-1.21-2.9-2.08-3.08-2.53-.05-.16-.01-.37-.1-.55-.04-.09-.86-.9-.98-.97-.53-.34-1.04-.07-1.5-.47l.07-.65c-1.33-.14-2.96,1.23-3.98.03-1.7.2-2.98,1.6-4.35,2.51.67.18,1.46-.4,1.95.4-.59.8-1.35,1.4-1.93,2.23-.48.66-.81,1.27-1.07,2.06.52.15,1.02-.49,1.5.07l-.08,2.22c.52.09,1.01-.16,1.5-.14.64.03,1.28.47,1.96.53.67.07,3.25.09,3.75-.16.65-.33.52-.85,1.52-.15.25.17,1.23,1.37,1.43,1.23l.26-1.37c.54-.25,1.18-.22,1.76-.2.63.02,1.34.5,1.6-.49M72.6,55.9c.1-.39.87-.45.75-.91-.03-.14-.58-.94-.71-1.12-.25-.34-.61-.62-.84-.99-3.53.08-6.74-1.92-10.22-2.15-1.51-.1-3.17.18-4.57.14-.36,0-.67-.28-1.01-.24-.72.08-2.23.75-3.07.98-.71.18-1.45.28-2.15.45-.12.03-.15.1-.2.2-.29.69-.46,2-.72,2.82-.1.3-.35.54-.45.98-.46,1.92.02,4.37.77,6.19.08.18.13.36.3.49.18-.38.97-2.27,1.31-2.35.11-.02.29.12.32.2v4.11c.52-.4,2.78-2.48,3.38-2.08.09.23.16.42.12.67-.06.32-1.25,2.35-1.15,2.44.86-.23,1.57-.71,2.52-.5.75.25-.76,1.62-1.02,1.94-.11.13-.25.17-.2.39h1.96c.06-.4-.19-1.79.2-1.95l.33.08c.09.35.37.82.77.83v-2.66c0-.05.22-.76.26-.79.12-.09.36-.08.51-.04l1.19,2.98c.19-.9.38-1.87.72-2.73.29-.72,1.14-2.24,1.36-.58.13.99.09,2.06.21,3.06.4-.66.63-1.44,1.06-2.08.34-.52.85-.89,1.12-1.42h.41c.47.16.11,1.36.09,1.74-.07.88-.1,1.78-.13,2.66l.9-.13c.01-.17.01-.35.06-.52.33-1.03,1.94-6.04,2.56-6.44.17-.11.42-.13.64-.27.74-.49,1.92-1.76,2.67-2.41.09-.08.21-.12.33-.12.05-.36-.48-.43-.38-.83M73.06,34.05l.03-.17c-.29-.5-.53-1.49-1.23-1.52-.21,0-.4.14-.62.11-.69-.1-.82-1.4-1.26-1.87-.34-.37-.87-.7-1.37-1.24-1.27-1.39-2.31.01-3.36-.15-.66-.1-.53-1.14-1.82-.86-.36.08-1.19.65-1.4.95-.29.4-.25.98-.58,1.25-.29.24-.62-.22-.83.17l.11.72c.4-.01,1.15.2,1.27.62.15.52-.86,1.6-.58,2,.54.47,2.33-.48,2.28.59l-.25.84c.95.52,2.01-.49,2.82-.52.31,0,.52.27.83.35.77.17,1.66-.49,1.85-1.24.73-.16,1,.4,1.75.49.87.1,1.71.13,2.35-.5M70.89,35.74l-1.63-.51c-.9.64-1.78,1.08-2.86.51-.63.99-3.14,1.32-3.85.34l-.26-.98c-1.96.23-2.23-1.34-1.31-2.74-.76-.15-1.64-.25-2.14-.91-.47.41-2.47,3.9-2.28,4.16.98.14,1.88.21,2.08,1.38l-.07,1.23c1.69-.53,4.06.24,3.59,2.35.33.03.59-.17.88-.23,1.09-.23,2.75-.26,3.73-.84.83-.49,2.24-2.3,3.08-3.05.27-.25.7-.58,1.04-.72M62.53,48.3c-.08-1.88.61-3.77-.37-5.53-.24.34-.85.72-1.04.98-.4.55-.27,1.22-1.1,1.76-.34.23-.69.18-.98.34-.26.13-.42.53-.78.65-.98.3-2.06-.18-2.23-1.25-.89.3-1.77.46-2.64-.02-.15-.09-.29-.32-.44-.35-.16-.04-.7.13-1.02.12-.79-.03-1.43-.49-1.5-1.3-1.12.15-1.9-.58-1.82-1.7-1.08.33-2.73,1.26-2.87-.52-.14,0-.26-.03-.39.06-.11.08-.92,1.16-1.1,1.39-1.2,1.54-2.59,3.38-2.1,5.46l.16.11c.47.18,1.01.21,1.48.34,1.73.51,3.98,1.6,5.69,1.87,1.03.16,3.19.2,4.18-.07,2.52-.66,4.17-1.46,6.87-1.86.47-.08,1.45-.16,1.81-.28.11-.03.17-.09.2-.2M60.86,40.89c0-.38.53-.58.36-1.15-.59-1.02-1.81-.35-2.7-.88l-.02-.51-.43.11c-.53-.25-.27-.85-.37-1.32-.14-.68-.59-.4-1.06-.51-.18-.04-.34-.2-.55-.23-.51-.09-1.4.13-1.36.77-.19.29-1.71-1.11-2.01-1.03l-.67,1.3c-.79.2-1.57.04-2.32.5l-.24.89c-1.46.35-2.74,1.35-2.97,2.9.7.12,2.7-1.15,3.19-.79.27.21-.28,1.27,0,1.71l1.38.18c.29.23.22.96.47,1.12.66.43,1.33-.37,1.78-.25.28.11.33.47.56.62.74.48,1.58-.3,2.32-.12.64.64.74,1.75,1.89,1.41.12-.3.35-1.01.73-1.01.27,0,.46.27.79,0,.43-.35.33-1.07.51-1.45.15-.29.77-.36.91-.64.34-.66-.19-1.25-.19-1.63M60.53,29.74c.12-.14.56-1.27.45-1.42-.85-.6-1.77.66-2.43.09-.17-.15-.27-.43-.56-.67-.72-.55-1.36-.58-2.21-.26-.4.14-.96.72-1.24.71-.37,0-.4-.48-.59-.59-.59-.37-1.85.66-2.02,1.24-.17.53.12,1.05.1,1.61l.42.35c1.03-.58,1.83-.7,3-.65.76.02,1.21.02,1.96,0,.71-.01,2.69.16,3.12-.39M58.12,31.05c-.62-.02-1.14.17-1.77.13-1.1-.07-1.67-.53-2.93-.07-1.21.46-.49.96-.2,1.76.36.98.74,2.08.72,3.12.1.12,1.52-.53,1.63-.65.21-.21.84-1.89,1.13-2.38.41-.68.99-1.24,1.41-1.91M53.03,35.22l-.39-1.69c-.34.15-.42.54-.71.78-.9.75-.99,0-1.57,0-.48,0-1.19.55-1.96.51-.47-.02-.79-.37-1.06-.4-.2,0-.49.13-.76.14-1.39.05-1.85-.42-1.77-1.83-1.02.73-3.11.91-3.13-.78-.99.09-1.99-.26-2.08-1.38-.02-.39.23-.8.12-1.22h-.84c-.43.9-1.04,1.78-1.46,2.7-.17.36-.52,1.05-.55,1.41-.03.26.12,1.62.18,1.88.36,1.36,2.33,1.78,3.37,2.36.95.53,2.54,2.01,3.47,2.27.3.08.73-.1,1.12-.09.53.02.77.28,1.35-.07.31-.18.37-.5.6-.71.48-.45,1.28-.65,1.58-.9.16-.15.17-.42.32-.6.56-.75,1.81-1.02,2.72-.99l.57-1.26.88-.16v.02ZM51.08,33.53l.79-1.24c-.07-.75-.26-1.03-.93-1.34l-.18-1.21c-.38-.39-.92-.17-1.38-.32-.87-.28-.27-1.6-.67-2-.35-.34-1,.04-1.51-.12-.76-.24-.84-1.16-1.91-1.09-.65.04-.91.68-1.56.66-.17,0-.36-.12-.53-.12-.91,0-1.59,1.52-1.71,1.56-.42.1-.74-.1-.85-.5l-.17-.04-1.11.53c.4.22,1.4.01,1.63.39.27.45-.26.9-.32,1.38-.18,1.38.91.61,1.82.9.53.26.03,1.06.25,1.18.26.1.58.09.85.07.45-.04,1.56-.57,1.74-.04.23.88-.13,1.86,1.12,1.73.51-.05.84-.43,1.32-.52l.46.47c.98.22,1.86-.8,2.86-.33M48.61,57.18c.04-.83.29-1.95.26-2.74-.02-.77-.44-1.71-.49-2.51-.06-.13-.13-.21-.26-.26-.57-.26-1.58-.43-2.22-.64-1.26-.42-3.19-.86-4.27-1.34-.22-.1-.49-.42-.63-.39l-3.73,3.19-.52.07c.62.96-.33,2.16-.39,3.2-.02.43.08.84.2,1.24.15.21.21.08.33-.07.71-.83,1.25-1.83,2.31-2.26l.41.41-.5,2.17c.11.13,2.02-2,2.73-1.64.12.07.26.23.25.38l-.76,2.03c.81-.14,1.5-.43,2.31-.02.69.35.25,1.38.63,1.46.48-.22.89-.65,1.48-.5l.66,3.37,2.22-2.54c.04-.86-.06-1.74,0-2.6M42.58,44.12c.02-.18-.2-.39-.23-.63-.13-.89-.14-1.3-.37-2.24-.08-.33,0-.8-.16-1.11-.05-.12-1.1-.84-1.25-.85-2.67,1.22-5.79,1.05-8.45,2.32l-1.36,4.37c.31,1.58.42,3.19.84,4.74.16.63.9,2.88,1.36,3.2.18.13.14.1.27-.02.34-.32.89-1.09,1.36-1.1l.4.13c.15.23-.29,2.44-.34,2.94-.04.58-.09,1.02.53.5l.78-3.09c-.66-.17-1.06-.84-1.32-1.44-.58-1.35-.52-2.59-.2-3.98.06-.24.13-.48.2-.71l.4-.08v2.28c0,.09.35,1.21.41,1.4.06.18.84,1.99,1.14,1.65-.07-.57.27-.89.65-1.24-.84-.78-1.06-1.83-.78-2.93.32-.37.58,1.14.62,1.27.08.23.49,1.26.82,1.14,1.06-.64,1.86-2,3.12-2.16.25-.82-.03-1.82.36-2.57.1-.17.25-.16.31-.25.13-.24.87-1.47.88-1.57M38.28,27.63c.74-1.33-1.66-2.12-2.65-2.3-.27-.05-.58.02-.87-.04-.43-.09-.79-.57-1.32-.49-.21.02-.35.21-.53.26-.26.09-.57.12-.82.23-.27.13-1.64,1-1.58,1.24.82.92-.67,1.02-.8,1.78,1.12.23,1.98-.75,3.07-.65.54.04.36.41.78.53.88.14,2.03-.9,2.53.33l2.19-.88h0ZM38.31,28.77c-.32-.45-.61.15-.95.36-.81.47-1.72.58-2.25-.28-.85.26-1.62.59-2.45.12-.09-.04-.09-.21-.12-.23-.46-.24-2.27.87-2.97.62l-.38,3.38c1.33.52,2.53,1.3,3.87,1.81.53.2,2.35.82,2.82.66.39-.12.1-.55.08-.83-.04-.92.2-1.62.56-2.45.49-1.12,1.26-2.07,1.79-3.17M37.21,39.14c.31-.42-.61-2.03-.61-2.61-.49-.04-.98.03-1.47-.02-1.5-.15-3.22-1.13-4.56-1.83-.5-.26-1.66-.8-2.03-1.1-.33-.26-.5-.59-.27-.97-.1-.09-1.7.59-1.96.71-.55.28-1.96,1.39-2.39,1.37-.13,0-.41-.17-.47-.13-.43,1.37-.98,2.71-1.03,4.17l8,2.37c.85,0,.72-.53,1.26-.71.32-.11.62-.05.93-.12,1.53-.36,3.04-.85,4.6-1.13M30.23,55.29l1.17-1.5c-1.04-2.21-1.43-4.62-1.68-7.04l1.28-4.57c-.2-.03-.36.17-.6.21-.5.04-2.03-.66-2.67-.85-1.5-.47-3.06-.91-4.59-1.22-.68.53-1.99,1-2.5,1.67-.43.59-1.44,3.05-1.58,3.76-.08.36-.02.66-.08.98-.08.54-.41.99-.09,1.55l.18.21.87-.11.31.46-.87,2.65c.15.17,1.34-1.05,1.83-.72.39.27-.25,1.7-.14,2.15.85-.23,1.54-.92,2.48-.78l-.03.57-.68,1.78c.61-.2,2.21-.78,2.73-.4.4.34-.52,1.77-.45,1.84l2.53.39c.22-1.21.41-2.52.91-3.66.18-.39.36-.89.89-.76.49.15.32,1.3.36,1.73.04.32.11.7.16,1.01.02.16.03.64.22.63M30.75,25.19c.12-.17-.85-1.13-1.11-1.17-.59-.11-.99.19-1.45.22-.24.01-.42-.13-.74-.07-.67.13-1.7,1.07-2.36.61-.41-.28-.32-.74-1.17-.63-.56.07-1.7,1.18-2.03,1.63-.26.34-.16.58-.26.97.89.33,1.54-.04,2.4-.13.48.2.56.58,1.11.73,1.42.4,3.04.14,4.43-.35-.11-.87.35-1.57,1.19-1.81M28.93,29.16l-.27-.97c-1.6.14-3.63.49-4.88-.74-.79.28-1.59.27-2.41.08l-.37,1.62c1.07,1.28,1.85,2.81,3.11,3.93.1.07.19.08.32.07.53-.04,2.02-.88,2.71-1.09.46-.13.91-.25,1.39-.23l.41-2.66h0ZM21.61,37.95l1.45-4.36c0-.25-.75-.84-.97-1.11-.45-.57-1.1-1.82-1.57-2.22-.13-.11-.19-.13-.37-.1-.4.08-1.13.49-1.59.63-1.16.38-2.37.72-3.6.84-.63,1.33-1.48,2.64-1.63,4.11,1.25.66,2.33,1.63,3.7,2.05.4.12,2.15.55,2.45.54.16,0,.6-.29.94-.35.4-.05.79,0,1.2-.04M20.33,26.96c.24-1.35,1.29-2.22,2.21-3.14-.46-.72-1.53-1.4-2.4-1.36-.42.01-.88.48-1.28.36l-.23-.16c-.13-.64-.82-.88-1.39-.96-.85-.11-1.52.37-2.32.23-.53-.1-.58-.89-1.63-.59-.43.12-1.96,1.29-1.91,1.7.02.18.48.36-.1.73-.4.25-.93,0-1.47.34-.1.07-.52.55-.56.63-.11.25.45.33.59.33.52,0,1.54-.57,1.89-.47l.5.42c.07.27-.28.7-.05,1.09.53.88,3-.85,3.31.08l.04,1.14.19.2c1.47.37,2.28-.86,3.61-1.03l.22.64.78-.16v-.02ZM19.8,41.58c.15-.18.49-.18.38-.53l-1.23-2.16-2.01.17c-.16.09-.22.35-.34.46-.29.27-1.84,1.77-1.97,1.8-.18.05-.38.02-.57.03-.11-.93.93-1.68,1.56-2.3.2-.18.58-.15.27-.38-.25-.17-.59-.27-.85-.42-.17,0-1.82,1.6-2.32,1.82-.21.1-.51.27-.49-.09.04-.9,1.38-1.5,1.84-2.09.09-.11.16-.14.12-.33l-1.21-.5-2.84,1.77c-.39.88-.85,1.75-1.23,2.64-.23.53-.36,1.93-1.11,1.56l-.13,3.39c.2.16,1.89-.98,2.48-.6.48.35-.56,1.48-.39,1.64.74-.1,1.46-.8,2.21-.51.28.4-.92,1.68-.77,1.82.79-.05,1.49.4,2.14.78l.32-1.49.34-.09,1.5,1.58c.12-.63.24-1.34.5-1.91.11-.26.24-.66.6-.56.27.08.84,1.75,1.01,2.12.07.14.08.43.3.35.47-.22-.05-1.25-.08-1.64-.09-2.13.57-4.65,1.96-6.34M13.8,32.16l-5.79-1.76c-1.67.82-2.98,2.15-4.49,3.21l.63,4.95c.86.95,2.02,1.53,3.13,2.14.1.46-.29.14-.52.33.33.26.84.89,1.15.36.18-.32.42-.96.61-1.34.09-.21.28-.39.36-.55.14-.35.04-.86.26-1.11l3.3-1.85c.15-.23-.04-.48-.03-.71.1-1.25.78-2.59,1.39-3.66M6.9,29.94c-1.14-.74-1.72-2.03-2.57-3.04-.4-.13-3.03.68-3.42.97-.16.12-.4.52-.64.67-.85,2.23-2.01,4.31-2.61,6.64-.05.37.7,1.94.96,2.25.12.15.15.17.26,0,.35-.51.67-1.54,1.2-1.93.43-.34,2.33-.72,2.46-.92l.26-1.18c.1-.24.4-.2.54-.3.13-.1.39-.62.57-.8.87-.96,1.94-1.62,2.99-2.35"/>
        <path class="cls-9" d="M91.61,52.68v15.64c-1.12.51-1.35,2.18-1.7,3.26l-.51-1.25c-.05-.06-.13-.14-.23-.16-.94-.24-2.71,2.28-3.23,2.98-.1-1.39.29-2.83.65-4.18.11-.43.45-.72.17-1.15-.27-.04-.62-.08-.84.1-.17.14-.9,1.15-1.08,1.4-.36.55-.6,1.2-1,1.74-.25-1.21-.09-2.51-.33-3.71-.09-.43-.42-.4-.78-.27-.8.99-1.32,2.33-1.42,3.59-.59-.47-1.13-3.15-2.14-2.86-.1.03-.16.11-.19.21l-.28,2.91-1.47-2.04c-.26-.18-.54-.27-.75.02v1.96s-.15.42-.22.46l-2.51.46c.25-.62,1.32-1.99,1.27-2.58-.01-.1-.09-.34-.18-.36-1.33-.02-2.5.74-3.57,1.44-.28-.35,1.44-3.24,1.18-3.92-.59-.09-1.02.28-1.52.5-.4.12-1.43,1.28-1.68,1.33-.33.07-.14-.08-.09-.22.59-1.77.9-3.87-1.28-1.61.55-1.73.97-3.78,1.63-5.47.36-.9,2.9-3.12,3.79-3.77.41-.32.67-.49,1.23-.39l-1.75,2.86c-.43,1.19-.49,2.15,1.11,1.7.08.09-.43,1.85.06,2.23.47.38,1.35-.22,1.95-.14.41.05,1.04.48,1.51.59,1.1.29,3.36.45,4.48.32.46-.06.75-.29,1.16-.37.58.42.83,1.26,1.6,1.42.86.05,1.1-1.28,1.1-1.96.88-.13,1.77.29,2.64.1,1.17-.26,1.62-2.68,1.53-3.69-.11-1.14-.95-1.93-.76-3.1.08-.43.73-2.19.96-2.56.23-.36.59-.47.85-.72.24-.24.33-.59.64-.73"/>
        <path class="cls-2" d="M89.52,43.37c-.48-.13-.75-.64-1.24-.72-.87-.13-1.93.38-2.86-.09-.75.83-2.22,1.74-3.36,1.49-.25-.05-.49-.3-.71-.35-.34-.04-.84.26-1.27.25-.23,0-.55-.05-.87-.13.67,1.1.88,2.38.4,3.82-1.16,2.91-5.45,3.33-9.34,1.92-.11.12-.29.17-.6.1-.19-.06-.28-.24-.3-.47-.45-.2-.89-.43-1.32-.67-.19,0-.36-.11-.46-.28-1.23-.79-2.31-1.78-3.09-2.96-.62,1.2-1.19,2.51-.88,2.95,1.03.32,2.01,1.13,2.98,1.51.9.37,2.14.5,3.12.78,1.05.3,2.54,1.04,3.48,1.22.6.11,1.05.03,1.71.25.53.17,1.17.73,1.56.79.3.05,1.03-.17,1.37-.27.41-.12,1.73-.77,2-.36l.05.65c.88-.14,1.95-.59,2.82-.64.38-.02.89.11.84.58-.03.35-.45.3-.53.59,1.29-.2,1.93.39,2.7,1.28.61-.26,1.17-.63,1.78-.91.63-.29,1.52-.53,2.09-.91.7-.47,1.16-1.44,2.03-1.67v-9.11c-.43.99-.83,1.71-2.09,1.37M85.89,52.5c-.2.25-.48.25-.67,0-.26-.34-.08-2.28-.11-2.88-.09-1.46-.66-3.39-.67-4.69,0-.24-.01-.43.21-.59.37-.08.79,1.2.88,1.47.32.97.55,2.28.62,3.29.04.67.12,2.96-.25,3.39M88.03,51.64c-.39.07-.37-.14-.42-.49-.1-.66-.09-1.39-.17-2.03-.14-1.07-.46-2.12-.38-3.21.12.02.29-.03.37,0,.24.15.9,3.11.93,3.58.02.33-.01,2.1-.33,2.14"/>
        <path class="cls-6" d="M67.59,48.24c-.03-.06-.07-.11-.08-.18-.18-1.01.44-2.21,1.25-2.78l.42.18c-.23.46-.65,2.85-.89,2.99-.08.05-.16.07-.24.07.43.25.87.48,1.32.68-.07-.71.48-1.97.71-2.34.1-.18.68-1.09.93-.83.15.86-.29,1.53-.49,2.32-.1.4-.02.96-.26,1.21,3.89,1.41,8.18.99,9.34-1.92.48-1.44.27-2.72-.4-3.82-.57-.13-1.18-.36-1.48-.65-.26-.26-.38-.8-.49-.89-.22-.17-.8-.1-.96-.68-1.63.67-4.67,1.92-4.74-.9-.82.02-1.72.39-2.07-.62-.03-.18.03-.42.13-.67-.51-.03-1.01-.05-1.5-.04l-1.58,1.46c-.27.83-.6,1.64-.96,2.44-.17.36-.63,1.16-1.07,2.02.78,1.17,1.85,2.17,3.09,2.96M71.66,48.44c.11-.27,1.08-1.34,1.32-1.1.08.49-.25,2.51-.96,2.33-.47-.3-.58-.71-.36-1.23"/>
        <path class="cls-2" d="M69.61,39.41c.2-.49.57-1.03.81-1.28.17-.17.86-.57.93-.7.1-.16.17-.92.13-1.17l-3.37,3.11c.49,0,.99,0,1.5.04"/>
        <path class="cls-8" d="M75.26,24.81c1.09-2.17,3.26-3.26,5.44-4.35-13.05,4.35-25.01-4.35-38.07-1.09,1.09-3.26,3.26-2.17,5.44-3.26-1.67-.39-3.34-.66-5.01-.85-.05.22-.12.4-.22.51-.06.07-.26.14-.37.1-.23-.21-.35-.45-.43-.7-.73-.07-1.45-.13-2.18-.16,0,.29-.07.57-.2.79-.39.67-.61.4-.86-.16-.09-.2-.16-.43-.22-.66-9.79-.24-19.57,2.1-29.36,3.81.19.12.36.23.5.26.2.05.5-.11.76-.12.83-.01,1.97.72,2.36,1.46,1.01-.3,1.74-.09,2.48.63,1.28-.4,2.26-.46,3.48.16.16.08.27.3.43.36.23.07.59-.11.88-.13,1.24-.05,2.61.74,3.07,1.91.96-.15,1.88-.22,2.42.72.57-.18,1.14-.66,1.72-.76.42-.08,1.5-.17,1.93-.17,1.08-.01,1.59.84,2.22,1.54.23,0,1.51-.77,1.88-.83.67-.1,1.03.47,1.53.57.33.07.65,0,.98.07,1.2.22,2.98,1.15,3.23,2.45.6-.22,1.14-.15,1.74-.02.47-.69,1.5-1.44,2.37-1.42.27,0,.56.16.77.14s.61-.38.98-.47c1.06-.24,2.02.37,2.57,1.25,1.63-.34,2.57.36,2.39,2.08l1.28.13c.54-1.24,2.15-2.44,3.45-1.59,1.35-.92,3.34-1.02,4.34.42,1.09-.37,1.96-.41,2.87.37,1.29-.86,2.75-1.18,3.75.25,1.13-.4,2.25-.77,3.33-.03.43.3.65.82.98,1.11.2.17.5.23.73.45.37.34.98,1.68,1.06,1.74.1.07.7.11.98.25.78.41,1.05,1.32,1.22,2.12.46-.3.87.05,1.35,0,.4-.04.78-.45,1.2-.51l1.28.38c.29-.26.23-.6.53-.9.48-.49,2.08-1.09,2.75-1.16.69-.08,2.44-.2,3.08-.11.79.11,1.98.64,2.16,1.49.07.28-.04.45-.04.69,1.5-.43,4.06.07,4.72,1.67.33.76,0,1.69.68,2.37v-19.13c-4.95,2.8-10.22,5.01-16.35,6.37"/>
        <path class="cls-8" d="M6.55,6.96c.09.03.19.11.28.22.32-.03.65-.06.97-.09-.15-.25-.26-.43-.26-.48-.01-.16.08-.25.22-.3.37-.12.87.28,1.26.69.99-.06,1.98-.09,2.97-.11-.12-.38-.2-.69-.14-.74.44.11.82.38,1.11.73.85,0,1.7,0,2.56.02.06-.25.72-1.49,1.02-1.27.18.2.14.77-.01,1.3.69.02,1.37.04,2.06.07.56-.61,1.43-1.05,2.11-1.11.18.19-.15.67-.6,1.17.97.04,1.94.09,2.91.14h.04c9.92.51,19.9.98,28.84-3.32.39-.5.89-.83,1.61-.83-.53.3-1.07.57-1.61.83-1.07,1.37-1.26,4.06-2.49,5.18,13.38-5.34,27.64-6.76,42.21-7.69V-.23H-3.01v9.61c2.87-1.09,5.85-1.74,8.9-2.1-.01-.33.29-.4.66-.32"/>
        <path class="cls-4" d="M49.41,9.06c-.44.18-.89.33-1.33.52.56,0,.98-.2,1.33-.52"/>
        <path class="cls-4" d="M49.41,9.06c-.35.32-.77.52-1.33.52.44-.19.89-.34,1.33-.52,1.23-1.13,1.42-3.82,2.49-5.18-8.94,4.3-18.92,3.83-28.84,3.33,0,.18.02.37-.02.54-.09.33-1.37,1.89-1.73,1.79-.69-1.04.7-2.22,1.71-2.34-.97-.05-1.94-.1-2.91-.14-.56.64-1.29,1.32-1.42,1.57l-.58.12c-.25-.63.01-1.25.47-1.75-.69-.03-1.38-.05-2.06-.07-.16.58-.45,1.11-.71,1.05-.32-.28-.39-.67-.3-1.08h0c-.85-.02-1.71-.03-2.56-.02.4.49.62,1.13.51,1.75-.18.26-.38.36-.65.14-.16-.13-.59-1.15-.82-1.88-1,.02-1.99.05-2.98.11.19.2.35.4.46.55.37.5.81,1.12.28,1.67h-.39c-.18-.09-1.11-1.4-1.57-2.13-.33.03-.65.05-.97.09.38.42.71,1.33.46,1.71-.32.04-.58-.09-.76-.34-.08-.1-.59-.99-.62-1.08-.03-.08-.02-.13-.02-.19-3.05.36-6.03,1.01-8.9,2.1v9.41c1.39-.73,2.72-.71,3.98.27.8-.53,1.61-.8,2.6-.65.39.07.85.41,1.21.49.94.2,2-.85,3.46-.6.36.07.7.29.99.47,9.79-1.71,19.57-4.05,29.36-3.81-.12-.46-.22-.94-.44-1.3-.13-.24-1-1.12-1.02-1.2l.22-.31c1.38-.28,2.54,1.5,2.51,2.83.73.04,1.45.09,2.18.16-.21-.7-.02-1.53-.31-2.33-.12-.34-1.1-1.71-.95-1.85,1.07.02,2.21,1.55,2.34,2.55.05.38.06,1.17-.06,1.73,1.67.19,3.34.46,5.01.85-2.18,1.09-4.35,0-5.44,3.26,13.05-3.26,25.01,5.44,38.07,1.09-2.18,1.09-4.35,2.17-5.44,4.35,6.12-1.36,11.39-3.57,16.35-6.37V1.37c-14.57.94-28.83,2.35-42.21,7.69M73.24,5.11c.09-.1.64.18.74.3.24.27.88,1.9.93,2.27.04.35-.18.6-.42.82-.16-.15-.34-.28-.44-.49-.11-.23-.76-2.2-.8-2.45-.02-.15,0-.3,0-.46M45.71,14.74c-.09.05-.25.01-.37.02l-.65-3.64c.97.04,1.49,1.72,1.45,2.53,0,.21-.29,1.01-.42,1.09M48.72,13.1c-.23.43-.43,1.21-.76,1.57-.13.14-.23.08-.39.09-.08-.74-.12-1.46.28-2.13.14-.26,1.42-1.51,1.67-1.26.03.71-.52,1.17-.8,1.74M51.54,14.38c-.26.37-.38,1.22-.99.98-.77-.54.47-2.03,1-2.4.19-.12,1.24-.65,1.35-.54.33.33-1.16,1.7-1.36,1.97M63.08,19l-.45.04c-.4-.12-.59-1.16-.77-1.58-.11-.22-.87-1.42-.75-1.53,1.39.01,2.42,1.84,1.97,3.07M65.33,19.18c-.84-.34-.65-1.41-.93-2.17-.23-.61-1.11-1.52-1.18-1.95-.08-.48.7-.29.98-.12.13.08.98,1.07,1.07,1.21.48.79.96,2.37.06,3.03M68.34,17.88c-.34.1-.5-.3-.6-.55-.22-.57-.24-1.25-.49-1.85-.18-.45-.85-1.24-.9-1.59-.02-.13.1-.27.18-.31.15-.03.28.05.41.11,1.17.41,2.49,3.17,1.39,4.19M70.98,5.67c.64-.08,1.53,1.81,1.49,2.38-.03.47-.33.66-.65.24-.46-.6-.5-1.85-1.32-2.13-.13-.18.29-.48.48-.49M73.2,14.86c-.34.38-.8.64-1.11,1.16-.17.3-.9,2.38-1.46,2-.4-1.46.67-3.02,1.83-3.85.52-.27,1.17.18.74.68M76.05,16.06c-.08.23-1.43,2.3-1.64,2.53-.14.16-.26.37-.51.33-.5-1.44.74-3.21,2.21-3.38.02.18,0,.35-.05.52M77.21,8.25c-.98-.43-.48-1.92-.56-2.79l.5-.21c.03.36.34.6.43.92.13.42.25,2.08-.37,2.08M81.2,6.61c-.28.3-.97,2.12-1.38,2.02-.7-.16.14-2.59,1.07-2.73.29-.04.48.49.32.71M83.02,8.83c-.35.27-.59.15-.66-.27-.15-.96,1.03-1.65,1.83-1.88.33.39-.83,1.88-1.16,2.15M86.27,9.03c-.31-.46.79-1.57,1.04-1.3.08.76-.16,1.45-1.04,1.3"/>
        <path class="cls-4" d="M51.9,3.88c.54-.26,1.08-.53,1.61-.83-.72,0-1.22.33-1.61.83"/>
        <path class="cls-5" d="M91.61-.36v.13H-3.01c0,6.34.01,12.68,0,19.02v75.6h-.13V-.36h94.75Z"/>
        <path class="cls-3" d="M85.88,34.24c-.58-.62-.37-1.36-1.31-1.69-.77-.27-1.08-.1-1.75-.07-1.15.04-2.34.05-3.37.66-.55.33-.36.64-.6.97-.11.15-.72.49-.92.53-.55.11-.89-.35-1.37-.35s-.89.49-1.32.53c-.52.04-.87-.35-1.53,0-1.02.57-.93,1.39-1.22,2.31-.26.85-.5.63-1.01,1.07-.54.45-.9,1.02-1.24,1.63.53.25,1.53-.31,2.04-.11,3.97-3.4,9.22-5.43,14.28-5.33-.23-.05-.46-.1-.68-.17"/>
        <path class="cls-11" d="M72.37,39.77c.38.25-.05.96.11,1.35.15.51.99.37,1.41.29,1.08-.18,2.01-1,3.12-.98l.07.91.13.09c.89-.34.85.7,1.33,1.07.55.43,1.65.29,2.32.41.79.13,1.27.52,2.16.33.39-.09,1.47-.63,1.62-.98.09-.22-.35-.84.26-.92.56-.02,1.02.25,1.57.27,1.01.05,1.7-.45,2.72.15.37.22.93.95,1.2.11.33-1-.54-1.43-.47-2.14.06-.55.63-.65.52-1.57-.08-.6-.53-.95-.62-1.34-.2-.87.32-1.28-.76-1.84-.73-.38-1.65-.41-2.5-.58-5.06-.1-10.31,1.93-14.28,5.33.03,0,.06.02.09.03"/>
        <path class="cls-11" d="M82.62,53.2h-.24c.07.11.15.22.21.34l.03-.34Z"/>
        <path class="cls-11" d="M88.21,58.38c-.72-1.21-2.9-2.08-3.08-2.53-.05-.16-.01-.37-.1-.55-.04-.09-.86-.9-.98-.97-.43-.28-.85-.15-1.24-.31.42,1.04.47,2.23.07,3.42-1.64,2.46-6.38,3.06-8.14.4-.15.17-.3.35-.43.55-.48.66-.81,1.27-1.07,2.06.52.15,1.02-.49,1.5.07l-.08,2.22c.52.09,1.01-.16,1.5-.14.64.03,1.28.47,1.96.53.67.07,3.25.09,3.75-.16.65-.33.52-.85,1.52-.15.25.17,1.23,1.37,1.43,1.23l.26-1.37c.54-.25,1.18-.22,1.76-.2.63.02,1.34.5,1.6-.49.36-1.33.49-2.36-.25-3.59"/>
        <path class="cls-3" d="M82.88,57.43c.4-1.19.35-2.39-.07-3.42-.09-.04-.17-.08-.26-.16l.03-.31c-.06-.11-.13-.23-.21-.33-1.28.02-2.78,1.15-3.74.03-1.7.2-2.98,1.6-4.35,2.51.67.18,1.46-.4,1.95.4-.45.62-1,1.11-1.49,1.68,1.76,2.66,6.49,2.07,8.14-.4"/>
        <path class="cls-14" d="M88.36,49.5c.02.33-.01,2.1-.33,2.14-.39.07-.37-.14-.42-.49-.1-.66-.09-1.39-.17-2.03-.14-1.07-.46-2.12-.38-3.21.12.02.29-.03.37,0,.24.15.9,3.11.94,3.58"/>
        <path class="cls-14" d="M87.32,7.72c.08.76-.16,1.45-1.04,1.31-.31-.46.79-1.57,1.04-1.31"/>
        <path class="cls-14" d="M86.14,49.1c.04.67.12,2.96-.25,3.39-.2.25-.48.25-.67,0-.26-.34-.08-2.28-.11-2.88-.09-1.46-.66-3.39-.68-4.69,0-.24,0-.43.21-.59.37-.08.79,1.2.88,1.47.32.97.56,2.28.62,3.29"/>
        <path class="cls-14" d="M84.18,6.68c.33.39-.83,1.88-1.16,2.15-.35.27-.59.15-.66-.27-.15-.96,1.03-1.65,1.83-1.88"/>
        <path class="cls-14" d="M80.89,5.9c.29-.04.48.49.31.71-.28.3-.97,2.12-1.38,2.02-.7-.16.14-2.59,1.07-2.73"/>
        <path class="cls-14" d="M77.58,6.18c.13.42.25,2.08-.37,2.08-.98-.43-.48-1.92-.57-2.79l.5-.21c.03.36.34.6.44.92"/>
        <path class="cls-14" d="M76.1,15.54c.02.19,0,.35-.05.52-.08.23-1.43,2.31-1.64,2.53-.14.16-.26.37-.51.33-.5-1.43.74-3.21,2.21-3.38"/>
        <path class="cls-14" d="M74.91,7.69c.04.35-.19.6-.42.82-.16-.15-.34-.28-.43-.49-.11-.23-.76-2.2-.8-2.45-.02-.15,0-.3,0-.46.09-.1.64.18.74.3.24.27.88,1.9.92,2.27"/>
        <path class="cls-14" d="M74.55,82.72c.49.29-.78,1.38-.97,1.64-.73.98-1.14,2.38-2.29,2.86-.37-1.13.42-2.5,1.12-3.38.51-.64,1.25-1.43,2.14-1.12"/>
        <path class="cls-2" d="M59.8,62.99l1.18,2.98c.2-.9.38-1.87.72-2.73.08-.18.19-.42.32-.64-.79.19-1.6.33-2.42.38.07,0,.14,0,.2.02"/>
        <path class="cls-2" d="M52.12,64.68c.45-.34,2.16-1.9,3.02-2.1-1.08-.27-2.1-.69-3.02-1.23v3.33Z"/>
        <path class="cls-2" d="M49.33,58.91c.14,1.17.46,2.34.87,3.32.08.18.13.36.31.49.13-.26.53-1.22.88-1.83-.79-.55-1.49-1.21-2.05-1.99"/>
        <path class="cls-2" d="M73.35,54.99c-.03-.14-.58-.93-.71-1.12-.25-.34-.61-.62-.84-.99-3.53.08-6.74-1.92-10.22-2.15-1.51-.1-3.17.18-4.57.14-.36,0-.67-.28-1.01-.24-.72.08-2.23.75-3.07.98-.71.18-1.45.28-2.15.45-.12.03-.15.1-.2.2-.17.4-.3,1.01-.43,1.62,5.12-2.11,11.26-1.9,16.4.31,1.09,1.09,2.18,4.35,1.09,5.44-1.26,1.27-2.89,2.16-4.65,2.72.03.09.05.2.07.34.13.99.09,2.06.21,3.06.4-.66.63-1.43,1.06-2.08.34-.52.85-.89,1.12-1.42h.41c.47.16.11,1.36.09,1.74-.07.88-.1,1.78-.13,2.66l.9-.13c.01-.17.01-.35.07-.52.33-1.03,1.94-6.04,2.56-6.44.17-.11.42-.13.64-.27.74-.49,1.93-1.76,2.68-2.41.09-.08.21-.12.33-.12.06-.36-.48-.43-.38-.83.1-.39.87-.45.75-.91"/>
        <path class="cls-2" d="M55.52,62.66c.08.2.14.39.1.62-.05.32-1.25,2.35-1.15,2.44.86-.23,1.57-.71,2.52-.5.75.25-.76,1.62-1.02,1.94-.11.13-.25.17-.2.39h1.96c.06-.4-.19-1.79.2-1.95l.33.08c.09.35.37.82.77.83v-2.66c0-.05.22-.76.26-.79.05-.04.13-.05.21-.06-1.35.08-2.69-.03-3.98-.32"/>
        <path class="cls-6" d="M66.56,54.17c-5.15-2.21-11.28-2.41-16.4-.31-.09.43-.18.86-.29,1.2-.1.3-.35.54-.45.98-.21.88-.22,1.87-.1,2.86.57.77,1.27,1.43,2.06,1.99.16-.28.32-.5.42-.52.11-.02.29.12.32.2v.78c.93.54,1.94.96,3.02,1.23.15-.03.27-.04.36.02,0,.02,0,.04.02.06,1.29.29,2.64.4,3.98.32h.1c.82-.05,1.62-.19,2.42-.38.33-.57.77-1.04.98-.27,1.76-.56,3.39-1.46,4.65-2.72,1.09-1.09,0-4.35-1.09-5.44M55.13,56.15c-.1.64-.17,1.7-.14,2.34.04.78.44,1.72.14,2.49-.06.13.08.22-.21.17-1.65-1.21-1.22-4.15-.44-5.79.08-.16.79-1.37,1.02-1.12.06.65-.29,1.27-.38,1.9M57.86,57.97c-.07.71-.03,1.62,0,2.34,0,.43.37,1-.08,1.37-.55-.1-.85-.62-.94-1.14-.15-.89-.08-2.81.13-3.71.08-.34.55-1.69.83-1.78.39-.09.58.03.58.43,0,.63-.47,1.72-.52,2.49M60.8,58.03l-.38.12c-.61-.49-.29-1.35-.02-1.95l.46-.13c.08.49.34,1.63-.05,1.96"/>
        <path class="cls-14" d="M72.46,14.17c.52-.27,1.17.19.74.69-.34.38-.8.64-1.11,1.16-.17.3-.9,2.38-1.46,2-.4-1.46.67-3.02,1.83-3.85"/>
        <path class="cls-3" d="M70.59,31.82c-.21-.43-.36-.96-.62-1.23-.34-.37-.87-.7-1.37-1.24-1.27-1.39-2.31.01-3.36-.15-.66-.1-.53-1.14-1.82-.86-.36.08-1.19.65-1.4.95-.29.4-.25.98-.58,1.25-.29.24-.62-.22-.83.17l.11.72c.28,0,.72.1,1.01.3,2.95-.93,5.9-.57,8.85.09"/>
        <path class="cls-11" d="M71.86,32.36c-.21,0-.4.14-.62.11-.3-.04-.49-.32-.65-.64-2.95-.66-5.9-1.03-8.85-.09.12.09.23.19.26.32.15.52-.86,1.6-.58,2,.54.47,2.33-.48,2.28.59l-.25.84c.95.52,2.01-.49,2.82-.52.3,0,.52.27.83.35.77.17,1.66-.49,1.85-1.24.73-.16,1,.4,1.75.49.87.1,1.71.13,2.35-.5l.03-.17c-.29-.5-.53-1.49-1.23-1.52"/>
        <path class="cls-14" d="M72.98,47.34c.08.49-.25,2.51-.96,2.33-.47-.3-.58-.71-.36-1.23.11-.27,1.08-1.34,1.32-1.1"/>
        <path class="cls-14" d="M70.98,5.67c.64-.08,1.53,1.81,1.49,2.38-.03.47-.33.66-.65.24-.46-.6-.5-1.85-1.32-2.13-.13-.18.29-.48.48-.49"/>
        <path class="cls-14" d="M71.02,46.04c.15.86-.29,1.53-.49,2.32-.15.59.12,1.53-.86,1.32-.77-.26.11-2.32.41-2.81.1-.18.69-1.09.94-.83"/>
        <path class="cls-15" d="M69.26,35.23l1.63.51c-.35.14-.77.47-1.04.72-.84.75-2.25,2.56-3.08,3.05-.98.58-2.64.61-3.73.84-.29.05-.56.26-.88.23.47-2.11-1.9-2.88-3.59-2.35l.06-1.23c-.2-1.17-1.1-1.24-2.08-1.38-.18-.26,1.82-3.75,2.28-4.17.5.66,1.38.76,2.14.91-.92,1.4-.65,2.97,1.31,2.74l.26.98c.71.98,3.22.65,3.85-.34,1.08.57,1.96.13,2.86-.51"/>
        <path class="cls-14" d="M70.24,80.71c.31.33-.96,2.27-1.15,2.69-.38.77-.56,1.45-1.03,2.22-.08.14.02.24-.29.17-.49-1.72.56-4.02,2.02-4.96.16-.1.25-.16.46-.12"/>
        <path class="cls-14" d="M68.76,45.28l.42.19c-.23.46-.65,2.85-.89,2.99-.34.21-.72-.03-.78-.39-.18-1.01.44-2.21,1.25-2.78"/>
        <path class="cls-14" d="M66.94,13.69c1.17.41,2.49,3.18,1.39,4.19-.34.1-.5-.3-.6-.55-.22-.57-.24-1.25-.49-1.85-.18-.45-.85-1.24-.9-1.59-.02-.13.1-.27.19-.3.15-.03.28.05.41.11"/>
        <path class="cls-14" d="M65.64,84.98c.2,1.06.58,2.55-.16,3.4-.47.14-.78-.86-.88-1.2-.28-.97-.31-2.09-.54-3.1-.24-1.03-.72-1.96-.85-2.99.22-.22,1.12.52,1.31.71.67.73.96,2.21,1.13,3.18"/>
        <path class="cls-14" d="M65.27,16.15c.48.79.96,2.37.06,3.03-.84-.34-.65-1.41-.93-2.18-.23-.61-1.11-1.52-1.18-1.95-.08-.48.7-.29.98-.12.13.08.98,1.07,1.07,1.21"/>
        <path class="cls-14" d="M61.12,15.93c1.39.01,2.41,1.84,1.97,3.07l-.45.04c-.4-.12-.59-1.16-.77-1.58-.11-.22-.87-1.43-.75-1.53"/>
        <path class="cls-6" d="M55.69,47.65c.47-.47.76-.93.94-1.39-.31-.23-.53-.56-.61-1-.89.3-1.77.46-2.64-.02-.15-.09-.29-.32-.43-.35-.16-.04-.7.13-1.02.12-.79-.03-1.43-.49-1.5-1.31-1.12.15-1.9-.58-1.82-1.7-1.08.33-2.73,1.26-2.87-.52-.14,0-.26-.03-.39.05-.11.08-.92,1.16-1.1,1.39-.65.84-1.35,1.77-1.78,2.77,2.59,4.06,9.5,3.81,13.22,1.95"/>
        <path class="cls-2" d="M62.16,42.77c-.24.34-.85.72-1.04.98-.4.56-.27,1.22-1.1,1.76-.34.23-.68.18-.98.34-.26.13-.43.53-.78.65-.58.18-1.18.08-1.62-.25-.18.46-.48.93-.94,1.39-3.73,1.86-10.63,2.12-13.22-1.95-.36.84-.54,1.74-.32,2.69l.16.11c.47.18,1.01.21,1.48.34,1.73.51,3.98,1.6,5.69,1.87,1.03.16,3.19.2,4.18-.07,2.52-.66,4.17-1.46,6.87-1.86.47-.08,1.45-.16,1.81-.28.11-.03.17-.09.2-.2-.08-1.88.61-3.77-.37-5.53"/>
        <path class="cls-14" d="M62,83.94c.26.54,1.29,2.99.47,3.26-1.01.34-1.23-1.67-1.51-2.36-.48-1.22-1.34-2.4-1.27-3.74,1.03.55,1.82,1.78,2.32,2.84"/>
        <path class="cls-11" d="M61.22,39.74c.17.58-.37.77-.36,1.15,0,.38.52.97.18,1.63-.14.28-.76.35-.91.64-.18.38-.08,1.1-.51,1.45-.34.27-.52,0-.79,0-.38,0-.61.71-.73,1.01-1.15.34-1.25-.77-1.89-1.41-.74-.18-1.58.6-2.32.12-.23-.15-.27-.51-.56-.62-.46-.12-1.12.68-1.78.25-.25-.16-.17-.89-.47-1.12l-1.38-.18c-.28-.43.27-1.5,0-1.71-.49-.36-2.49.91-3.19.79.23-1.55,1.51-2.56,2.97-2.9l.24-.89c.75-.46,1.52-.31,2.32-.5l.67-1.3c.31-.08,1.83,1.33,2.01,1.03-.04-.64.85-.86,1.36-.77.22.03.37.18.55.23.47.11.91-.17,1.06.51.1.47-.16,1.07.37,1.32l.44-.11.02.51c.89.53,2.11-.14,2.7.88"/>
        <path class="cls-3" d="M60.97,28.32c.11.15-.33,1.28-.45,1.43-.43.55-2.41.38-3.12.39-.75.02-1.2.02-1.96,0-1.18-.04-1.97.08-3,.65l-.42-.35c.02-.55-.27-1.08-.1-1.61.17-.58,1.44-1.61,2.02-1.24.18.11.22.59.59.59.28.01.84-.57,1.24-.71.85-.32,1.49-.29,2.21.26.29.24.39.52.57.67.65.58,1.58-.68,2.43-.09"/>
        <path class="cls-14" d="M60.85,56.08c.08.49.34,1.63-.05,1.96l-.38.12c-.61-.49-.29-1.35-.02-1.95l.46-.13h0Z"/>
        <path class="cls-14" d="M57.81,55.04c.39-.09.58.03.58.44,0,.63-.47,1.72-.52,2.49-.06.71-.03,1.62,0,2.34,0,.43.37,1-.08,1.37-.55-.1-.85-.62-.93-1.14-.15-.89-.08-2.81.13-3.71.08-.34.56-1.69.83-1.78"/>
        <path class="cls-2" d="M56.35,31.18c.63.04,1.15-.15,1.77-.13-.42.67-1,1.23-1.41,1.92-.29.49-.92,2.17-1.13,2.38-.11.12-1.53.77-1.63.65.02-1.04-.36-2.14-.72-3.12-.29-.8-1.01-1.3.19-1.76,1.25-.47,1.83,0,2.93.06"/>
        <path class="cls-14" d="M55.51,54.25c.05.65-.29,1.27-.38,1.9-.1.64-.17,1.7-.14,2.34.04.78.43,1.72.14,2.49-.05.13.08.22-.21.17-1.65-1.21-1.22-4.15-.43-5.79.08-.16.79-1.37,1.02-1.12"/>
        <path class="cls-2" d="M52.64,33.53l.39,1.69-.88.16-.57,1.26c-.91-.03-2.15.24-2.72.99-.14.17-.15.45-.32.6-.29.25-1.1.46-1.58.9-.23.21-.29.52-.6.71-.58.35-.82.09-1.35.07-.39,0-.82.16-1.12.09-.93-.26-2.52-1.74-3.47-2.27-1.04-.58-3.01-1-3.37-2.36-.07-.26-.22-1.62-.18-1.88.03-.36.38-1.05.56-1.41.41-.91,1.02-1.79,1.46-2.71h.84c.11.42-.14.84-.12,1.23.09,1.12,1.09,1.47,2.08,1.38.02,1.7,2.11,1.51,3.13.78-.08,1.4.38,1.88,1.77,1.83.27,0,.57-.15.76-.14.26.03.59.38,1.06.4.77.04,1.48-.52,1.96-.51.58,0,.66.74,1.57,0,.28-.24.37-.63.71-.78"/>
        <path class="cls-14" d="M52.9,12.41c.33.33-1.16,1.7-1.36,1.97-.26.37-.38,1.22-.99.98-.77-.54.47-2.03,1-2.4.19-.12,1.24-.65,1.35-.54"/>
        <path class="cls-3" d="M48.71,27.43c-.35-.34-1,.04-1.51-.12-.76-.24-.84-1.16-1.91-1.09-.65.04-.91.68-1.56.66-.17,0-.36-.12-.53-.12-.91,0-1.59,1.52-1.71,1.55-.42.1-.74-.1-.85-.5l-.17-.04-1.11.53c.4.22,1.4.01,1.63.39.11.18.09.37,0,.55,2.44-1.37,5.11-1.65,7.87-.97,0-.35,0-.68-.16-.85"/>
        <path class="cls-11" d="M50.95,30.95l-.19-1.21c-.38-.39-.92-.17-1.38-.32-.5-.16-.51-.67-.51-1.15-2.76-.67-5.43-.4-7.87.98-.1.27-.3.54-.33.83-.19,1.38.91.61,1.82.9.53.26.03,1.05.25,1.17.26.1.58.09.85.07.45-.04,1.56-.57,1.74-.04.23.88-.13,1.86,1.12,1.73.51-.05.84-.43,1.32-.52l.46.47c.98.22,1.86-.8,2.86-.33l.79-1.24c-.07-.75-.26-1.03-.92-1.34"/>
        <path class="cls-14" d="M49.52,11.36c.03.71-.52,1.18-.81,1.74-.23.43-.42,1.21-.76,1.57-.13.14-.23.08-.39.09-.08-.74-.12-1.46.28-2.13.14-.26,1.43-1.51,1.68-1.26"/>
        <path class="cls-9" d="M48.44,52.35c-.03-.14-.06-.28-.06-.41-.06-.13-.13-.21-.26-.26-.57-.26-1.58-.44-2.22-.64-1.26-.42-3.19-.86-4.27-1.34-.22-.1-.49-.42-.63-.39l-3.73,3.19-.52.07c.28.43.24.9.11,1.39,3.91,1.48,8.95,1.13,11.6-1.6"/>
        <path class="cls-12" d="M36.85,53.94c-.16.61-.46,1.23-.5,1.8-.02.43.08.84.2,1.24.15.21.21.08.33-.07.71-.83,1.25-1.83,2.31-2.26l.41.41-.5,2.18c.11.13,2.02-2,2.73-1.64.12.07.26.23.25.38l-.76,2.03c.8-.14,1.5-.43,2.31-.02.68.35.25,1.38.63,1.46.48-.22.89-.65,1.48-.5l.66,3.37,2.22-2.54c.04-.86-.05-1.74,0-2.6.04-.83.29-1.95.26-2.74-.02-.64-.3-1.4-.43-2.1-2.65,2.72-7.69,3.07-11.59,1.6"/>
        <path class="cls-14" d="M44.69,11.11c.97.04,1.49,1.72,1.45,2.53,0,.21-.29,1.01-.42,1.09-.09.05-.25.01-.37.02l-.65-3.64h-.01Z"/>
        <path class="cls-14" d="M42.7,83.59c.26-.21,1.46-1.11,1.48-.35,0,.3-1.22,1.65-1.5,2.03-.36.49-.62,1.43-1.37,1.42-.39-1.09.57-2.46,1.39-3.11"/>
        <path class="cls-14" d="M43.13,13.53c.06.52.08,1.86-.28,2.24-.07.07-.26.14-.37.1-.85-.79-.34-1.95-.74-3.03-.12-.34-1.1-1.71-.95-1.85,1.07.02,2.21,1.55,2.34,2.54"/>
        <path class="cls-15" d="M31.6,50.72c.16.63.9,2.88,1.36,3.2.19.13.14.1.27-.02.34-.32.89-1.09,1.36-1.1l.4.13c.15.23-.29,2.44-.34,2.94-.04.58-.09,1.02.53.5l.78-3.09c-.66-.17-1.06-.84-1.32-1.44-.58-1.35-.52-2.59-.2-3.98,0-.02,0-.04.02-.07-.94.51-2.03.83-3.28.9.11.68.22,1.36.4,2.02"/>
        <path class="cls-2" d="M39.79,39.6c-2.48.89-5.26.87-7.67,2.01l-1.36,4.37c.18.9.3,1.81.44,2.72,1.25-.07,2.34-.39,3.28-.9.05-.22.12-.43.18-.64l.4-.08v.37c2.48-1.66,3.87-4.72,4.74-7.85"/>
        <path class="cls-15" d="M42.35,43.49c-.13-.89-.14-1.3-.37-2.24-.08-.33,0-.8-.16-1.11-.05-.12-1.1-.84-1.25-.85-.25.12-.51.21-.78.3-.87,3.13-2.26,6.19-4.74,7.85v1.92c0,.09.35,1.21.41,1.4.07.19.84,1.99,1.14,1.65-.07-.57.27-.89.65-1.24-.84-.78-1.06-1.83-.78-2.92.31-.37.58,1.14.62,1.27.08.23.49,1.26.82,1.14,1.06-.64,1.86-2,3.12-2.16.25-.82-.03-1.82.36-2.57.1-.17.25-.16.3-.25.13-.24.87-1.47.88-1.57.02-.18-.19-.39-.23-.63"/>
        <path class="cls-14" d="M42.62,79.27c-.33,1.29-1.4,2.13-2.02,3.25-.54.97-.6,1.91-1.13,2.85-.46.29-.9-1.07-.9-1.48,0-1.61,2.31-4.57,4.06-4.62"/>
        <path class="cls-14" d="M37.35,12.17c1.69-.34,3.04,2.37,2.32,3.62-.39.67-.61.4-.86-.16-.27-.6-.33-1.41-.65-1.96-.13-.24-1-1.12-1.02-1.2l.22-.3h0Z"/>
        <path class="cls-3" d="M34.75,25.29c-.44-.09-.79-.57-1.32-.49-.21.02-.35.21-.53.26-.26.09-.56.12-.82.23-.27.13-1.64,1-1.58,1.24.82.92-.67,1.02-.8,1.78.4.08.77,0,1.13-.12,1.43-1.11,3.03-2.12,4.75-2.86-.26-.04-.55.02-.83-.04"/>
        <path class="cls-11" d="M35.62,25.33h-.04c-1.71.74-3.32,1.75-4.75,2.86.64-.22,1.24-.6,1.94-.54.54.04.36.41.78.53.88.14,2.03-.9,2.53.33l2.19-.88c.74-1.33-1.66-2.12-2.65-2.31"/>
        <path class="cls-2" d="M37.36,29.12c.34-.21.63-.8.95-.36-.53,1.1-1.31,2.04-1.79,3.16-.36.83-.6,1.52-.56,2.45.02.27.32.71-.08.83-.47.15-2.28-.47-2.82-.66-1.34-.5-2.54-1.28-3.87-1.8l.38-3.38c.7.25,2.51-.86,2.97-.62.03.02.03.18.12.23.83.47,1.6.14,2.45-.12.53.86,1.45.75,2.25.28"/>
        <path class="cls-2" d="M29.59,37.86c.71-2.12-.43-3.78-2.2-4.98-.46.18-.94.38-1.07.44-.44.22-1.42.97-2.02,1.25.75,3.03,4.32,6.2,5.29,3.28"/>
        <path class="cls-9" d="M31.68,40.39c.31-.11.62-.05.92-.12,1.53-.36,3.05-.85,4.6-1.13.3-.42-.61-2.03-.61-2.61-.49-.04-.98.03-1.47-.02-1.5-.15-3.22-1.13-4.56-1.83-.5-.26-1.66-.8-2.03-1.1-.33-.26-.5-.59-.27-.97-.05-.04-.45.1-.88.26,1.77,1.2,2.91,2.86,2.2,4.98-.97,2.92-4.54-.25-5.29-3.28-.15.07-.29.12-.38.12-.13,0-.41-.17-.47-.13-.44,1.37-.98,2.71-1.03,4.17l8,2.37c.85,0,.72-.53,1.26-.71"/>
        <path class="cls-14" d="M36.97,81.85c.05.45.18,2.65-.29,2.76-.45-.09-.56-.63-.68-1l-.29-3.82c.9.01,1.18,1.33,1.27,2.06"/>
        <path class="cls-14" d="M31.21,78.1c2.2.91,3.57,4.78,3.16,6.94-.02.14-.33.83-.38.86-.34.22-.6-.38-.67-.65-.25-.83-.21-1.85-.41-2.72-.32-1.38-1.08-2.72-1.84-3.89l.14-.53h0Z"/>
        <path class="cls-2" d="M27.41,47.65c1.9-1.27,2.32-3.28,2.34-5.38-.66-.2-1.56-.59-2.01-.72-1.5-.47-3.06-.91-4.59-1.22-.69.53-1.99,1-2.5,1.67-.21.28-.55,1-.86,1.74v3.9c2.18,1.09,5.44,1.09,7.61,0"/>
        <path class="cls-12" d="M29.73,46.75l1.28-4.57c-.19-.03-.36.17-.6.21-.15,0-.38-.04-.66-.12-.02,2.1-.44,4.11-2.35,5.38-2.18,1.09-5.44,1.09-7.61,0v-3.9c-.34.81-.64,1.65-.72,2.02-.08.36-.02.66-.08.98-.08.54-.41.99-.09,1.55l.18.21.87-.11.32.46-.87,2.65c.15.17,1.34-1.05,1.83-.72.39.27-.25,1.7-.14,2.15.85-.23,1.54-.92,2.48-.78l-.03.57-.69,1.78c.61-.2,2.21-.78,2.73-.4.4.34-.52,1.77-.45,1.84l2.53.39c.22-1.21.41-2.52.91-3.66.18-.39.36-.89.89-.76.49.15.32,1.3.36,1.73.04.32.11.7.16,1.01.02.16.03.64.22.63l1.17-1.5c-1.04-2.21-1.44-4.62-1.67-7.04"/>
        <path class="cls-14" d="M31.26,85.72c0,.48-.33.78-.7.32-.35-.43-1.38-3.07-1.61-3.73-.11-.32-.33-.7.03-.95.21.3.63.46.84.73.32.43,1.44,3.17,1.44,3.63"/>
        <path class="cls-11" d="M29.86,24.13c-2.38.42-4.61,1.22-6.5,2.6.21-.05.43-.09.67-.11.48.19.55.58,1.11.73,1.42.4,3.04.14,4.43-.35-.11-.87.35-1.57,1.19-1.81.1-.14-.52-.79-.89-1.06"/>
        <path class="cls-3" d="M29.64,24.01c-.59-.11-.99.2-1.45.22-.24.01-.42-.13-.74-.07-.67.13-1.7,1.07-2.36.61-.41-.28-.31-.74-1.17-.63-.55.07-1.7,1.18-2.03,1.63-.26.34-.16.58-.26.97.65.24,1.17.11,1.74-.02,1.88-1.37,4.11-2.17,6.5-2.6-.09-.06-.17-.11-.22-.12"/>
        <path class="cls-14" d="M30.49,66.62c.35.35-1.45,1.86-1.69,2.15-.57.69-1.01,1.57-1.43,2.34l-.33.08c-.55-.81.02-1.89.52-2.6.69-.96,1.7-1.9,2.93-1.97"/>
        <path class="cls-2" d="M28.66,28.19l.27.97-.41,2.67c-.48-.02-.94.1-1.39.23-.69.21-2.18,1.04-2.71,1.09-.12,0-.22,0-.32-.07-1.26-1.12-2.04-2.64-3.11-3.93l.37-1.62c.83.2,1.62.21,2.42-.08,1.25,1.23,3.28.88,4.88.74"/>
        <path class="cls-14" d="M27.88,63.9c.23.22-1.07,1.58-1.23,1.83-.86,1.3-.96,2.43-1.53,3.68-.08.15-.34.67-.56.62-.73-.78-.37-1.88-.03-2.77.54-1.46,1.77-3.02,3.35-3.35"/>
        <path class="cls-14" d="M23.06,7.2c0,.19.02.38-.02.56-.09.33-1.37,1.89-1.73,1.79-.7-1.06.73-2.25,1.75-2.35"/>
        <path class="cls-2" d="M22.25,32.65c-.12,1.35-1.61,2.19-2.46,3.04-1.74.87-4.85.35-6.04-1.55-.21.52-.36,1.05-.42,1.61,1.25.66,2.33,1.63,3.7,2.06.4.12,2.15.55,2.45.54.16,0,.6-.29.93-.35.4-.05.79,0,1.2-.04l1.45-4.36c0-.21-.51-.64-.81-.94"/>
        <path class="cls-6" d="M19.8,35.68c.84-.84,2.33-1.69,2.46-3.04-.06-.06-.12-.12-.16-.17-.45-.57-1.1-1.82-1.57-2.22-.13-.11-.2-.13-.37-.1-.4.08-1.13.49-1.59.63-1.16.38-2.37.72-3.6.84-.39.83-.87,1.65-1.21,2.5,1.19,1.9,4.3,2.42,6.04,1.55"/>
        <path class="cls-14" d="M22.51,65.17c.18,1.01.41,2.21.03,3.15l-.46-.13c-.12-.2-.21-.4-.29-.62-.14-.39-.42-1.68-.42-2.05,0-.5-.1-1.87,0-2.22.02-.08.22-.24.33-.2.58.51.69,1.34.82,2.06"/>
        <path class="cls-14" d="M20.71,5.89c.41.44-1.78,2.3-2.01,2.74l-.58.12c-.56-1.4,1.34-2.75,2.59-2.86"/>
        <path class="cls-3" d="M14.91,21.93c-.53-.1-.58-.89-1.63-.59-.43.12-1.96,1.29-1.92,1.7.02.18.48.36-.1.73-.4.25-.94,0-1.47.34-.1.07-.52.55-.55.63-.11.25.45.33.59.33.52,0,1.54-.57,1.89-.47l.28.23c1.99-1.21,4.08-2.13,6.24-2.73-.28-.23-.66-.35-1.01-.39-.85-.11-1.52.37-2.32.23"/>
        <path class="cls-11" d="M12.23,25.01c.06.27-.28.7-.05,1.09.53.88,3-.85,3.31.08l.04,1.14.2.2c1.47.37,2.28-.86,3.61-1.03l.22.64.78-.16c.24-1.35,1.29-2.22,2.21-3.14-.46-.72-1.53-1.4-2.4-1.36-.42.01-.88.48-1.28.36l-.23-.16c-.05-.25-.2-.42-.38-.56-2.15.6-4.25,1.53-6.24,2.73l.22.19v-.02Z"/>
        <path class="cls-15" d="M20.32,27.92l-.19,1.45c-1.98.49-4.03.72-5.74,1.95-1.78-.8-3.63-1.48-5.5-2.05-.96-.28-1.47-.03-2.25-.88-.26-.28-1.36-1.83-1.41-2.11l.37-3.09-.33-.73c-.16-.03-.27.02-.4.12-.47.4-.48,2.94-.59,3.65l-3.89.91-.91-3.71c.19-.9.46-1.62.91-2.41,0-.02-.02-.12.03-.22.06-.08.43-.2.36-.57,1.1-.61,1.52-1.19,2.86-.71.34.11.64.39.99.45,1.44.22,2.24-1.04,3.97-.33.29.13.71.53,1,.57.27.03.58-.35.88-.36.4,0,1.56.55,1.63,1.03-.43.15-.91.67-1.24,1.04-.18.22-.43.75-.59.85-.63.4-1,.18-1.69,1.04-1.71,2.15,1.02,2.46,2.6,1.89-.02,1.89,1.95,1.63,3.26,1.3.3,2.27,3.11,1.66,4.39.53.5.31.86.47,1.47.37"/>
        <path class="cls-2" d="M17.62,43.3c.62-.62,1.59-1.95,1.91-3.38l-.58-1.03-2.01.17c-.16.09-.22.35-.34.46-.29.27-1.84,1.77-1.97,1.81-.18.05-.38.02-.57.03-.11-.92.94-1.67,1.56-2.29.2-.18.58-.15.27-.38-.25-.17-.59-.27-.85-.42-.17,0-1.82,1.6-2.32,1.82-.21.1-.51.27-.49-.09.04-.9,1.38-1.5,1.84-2.09.09-.11.16-.14.12-.33l-1.21-.5-2.84,1.77c-.39.88-.85,1.75-1.23,2.64-.11.27-.2.75-.36,1.12,2.06,2.57,7.18,1.64,9.06.7"/>
        <path class="cls-12" d="M20.18,41.04l-.64-1.13c-.32,1.43-1.29,2.76-1.91,3.39-1.88.94-7,1.87-9.06-.7-.15.37-.38.62-.75.43l-.13,3.39c.19.16,1.89-.98,2.48-.6.48.35-.55,1.48-.39,1.64.74-.1,1.46-.8,2.21-.51.28.4-.92,1.68-.77,1.82.79-.05,1.49.4,2.14.78l.31-1.49.34-.09,1.5,1.58c.12-.63.24-1.34.5-1.91.11-.26.24-.66.6-.55.27.08.84,1.75,1.01,2.12.07.14.08.43.31.35.47-.22-.06-1.25-.08-1.64-.09-2.13.57-4.65,1.96-6.34.15-.18.49-.18.38-.53"/>
        <path class="cls-14" d="M18.49,66.05c1.2,1.37,2.35,3.52,1.3,5.28-.34.05-.2-.05-.26-.18-.45-.86-.37-1.52-.64-2.36-.4-1.24-1.48-2.26-1.57-3.58.22-.23,1.01.66,1.16.85"/>
        <path class="cls-14" d="M14.47,66.69c1.3.99,2.81,3.5,2.44,5.19-.08.35-.37.7-.68.36-.34-.65-.32-1.38-.52-2.09-.2-.63-.6-1.36-.91-1.96-.13-.25-1-1.53-.85-1.69.27-.07.35.04.53.18"/>
        <path class="cls-14" d="M16.55,5.63c.38.41-.22,2.47-.72,2.35-.32-.28-.39-.67-.3-1.08.05-.25.72-1.49,1.02-1.27"/>
        <path class="cls-14" d="M15.5,56.6c.01.19.02.35-.07.52-.24.47-1.35,1.37-1.76,1.89-.43.56-.59,1.19-1.12,1.61l-.43-.18c-.71-.63.12-1.74.58-2.28.7-.81,1.68-1.64,2.81-1.56"/>
        <path class="cls-14" d="M15.11,84.87c.15.16-.29,1.03-.41,1.22-.65,1.02-1.75,2-2.38,3.1-.28.5-.45.99-.61,1.53-.89.22-1.17-.4-1-1.2.21-.96,2.23-3.38,3.04-4,.18-.14,1.23-.79,1.37-.65"/>
        <path class="cls-9" d="M8.02,30.4l5.79,1.76c-.61,1.08-1.29,2.41-1.39,3.66-.01.23.18.48.03.71l-3.29,1.85c-.22.25-.12.76-.26,1.11-.08.16-.27.35-.36.55-.18.38-.42,1.02-.61,1.34-.31.53-.83-.1-1.15-.36.23-.18.62.13.52-.33-1.11-.61-2.27-1.2-3.13-2.14l-.63-4.95c1.51-1.05,2.82-2.39,4.49-3.21"/>
        <path class="cls-14" d="M11.86,6.16c1.04.26,1.82,1.41,1.62,2.48-.18.26-.38.36-.65.14-.24-.2-1.12-2.47-.97-2.62"/>
        <path class="cls-14" d="M12.83,54.24c.7.23.17.76-.11,1.13-.28.36-.66.71-.92,1.11-.54.86-.84,1.78-1.26,2.71h-.37c-.4-.88-.11-1.77.33-2.59.32-.57,1.68-2.41,2.34-2.36"/>
        <path class="cls-14" d="M9.49,7.55c.37.5.8,1.12.28,1.68h-.39c-.24-.12-1.83-2.43-1.83-2.61-.01-.16.08-.25.22-.3.55-.18,1.39.8,1.72,1.24"/>
        <path class="cls-14" d="M9.38,84.29c.12,1.23-.11,2.53-.39,3.72-.53-.03-.74-.82-.78-1.24-.05-.53.08-3.47.59-3.59.34-.08.57.86.59,1.11"/>
        <path class="cls-14" d="M7.7,55.21c.43.9.61,2.3.5,3.28-.04.47-.28,1.24-.86.85-.41-.36-.36-2.32-.5-3.01-.08-.34-.2-.78-.33-1.11-.13-.3-1.02-1.46-.46-1.61.55-.15,1.44,1.16,1.64,1.6"/>
        <path class="cls-2" d="M7.55,42.39l-.52,1.56-.72-.39-.72.39-.47-1.54h-.42l-.47,1.29-.26.13c-.5-.1-1.53-.03-1.95-.15-.1-.03-.14-.12-.21-.18.08-.21.17-.37.26-.59.08-.21.17-.43.26-.64.13-.3.25-.45.39-.72.03-.12-.12-.3-.21-.33-.37-.08-1.46.58-1.88.65-.15-.16.7-1.69.27-2.03-.29-.2-1.52.29-1.77.6-.22.02-.21,0-.2-.2,0-.36,1.17-3.39,1.37-3.59l2.41-1.05c-.03.55.18,1.12.25,1.65.03.24-.09.45-.07.7.13,1.42,1.96,2.91,3.31,3.15-.01.71.7,1.13,1.33,1.28"/>
        <path class="cls-14" d="M6.55,6.96c.47.14,1.05,1.46.74,1.93-.32.04-.58-.09-.76-.34-.08-.1-.59-.99-.62-1.08-.17-.52.21-.61.64-.51"/>
        <path class="cls-14" d="M4.43,83.5c1.13.84,2.31,4.36,2.04,5.71-.08.42-.34,1.05-.87.87-.38-.93-.45-1.92-.7-2.89-.26-.97-.69-1.91-.91-2.86-.13-.51-.39-1.45.44-.83"/>
        <path class="cls-14" d="M5.14,57.63c.42.97.63,2.03-.13,2.87-.22.05-.26-.17-.33-.32-.26-.53-.27-1.24-.45-1.77-.33-.96-1.12-1.97-1.45-2.99-.08-.23-.04-.24.14-.39.55-.11,1.99,2.1,2.21,2.6"/>
        <path class="cls-15" d="M5.24,28.14c-.29-.42-.58-.85-.91-1.24-.4-.13-3.03.68-3.42.97-.16.12-.4.52-.64.67-.4,1.05-.87,2.07-1.32,3.09,2.03.42,4.39-1.42,6.28-3.5"/>
        <path class="cls-12" d="M5.24,28.14c-1.89,2.08-4.25,3.92-6.28,3.5-.5,1.15-.98,2.32-1.29,3.55-.06.37.7,1.94.96,2.25.12.15.15.17.26,0,.35-.51.67-1.54,1.2-1.94.43-.34,2.33-.72,2.46-.93l.26-1.17c.1-.24.4-.2.54-.3.13-.1.39-.62.57-.8.87-.96,1.93-1.62,2.99-2.35-.7-.45-1.19-1.12-1.66-1.8"/>
        <path class="cls-14" d="M3.18,87.75c.34.86.77,2,0,2.73-.57.14-1.01-2.1-1.21-2.56-.31-.7-1.11-1.49-1.27-2-.13-.39.04-.5.4-.61.91.55,1.69,1.42,2.08,2.44"/>
        <path class="cls-14" d="M2.08,42.26h.26c-.09.21-.19.44-.26.64h-.39c.1-.22.2-.49.39-.64"/>
        <path class="cls-14" d="M.78,20.23c.08.37-.3.49-.36.57-.05.1-.02.2-.03.22H.13c.19-.28.03-.49.52-.78.03-.01.1.02.13,0"/>
        <path class="cls-2" d="M.65,20.23c-.49.29-.34.5-.52.78-.02.03-.16.1-.24.22-.34.53-.58,1.13-1.01,1.61-.12.23.08.46.08.65-1.04-.18-1.57-1.07-1.96-1.96v-1.43c1.24-.94,2.53-1.06,3.65.13"/>
      </g>
    </g>
  </g>
</svg>