<?xml version="1.0" encoding="UTF-8"?>
<svg id="Layer_1" data-name="Layer 1" xmlns="http://www.w3.org/2000/svg" xmlns:xlink="http://www.w3.org/1999/xlink" viewBox="0 0 90 90">
  <defs>
    <style>
      .cls-1 {
        fill: #e9e5e5;
      }

      .cls-2 {
        fill: #b3c06e;
      }

      .cls-3 {
        fill: #abe0f9;
      }

      .cls-4 {
        fill: #a3af65;
      }

      .cls-5 {
        fill: #839a51;
      }

      .cls-6 {
        fill: #a9bd69;
      }

      .cls-7 {
        fill: #7f8954;
      }

      .cls-8 {
        fill: none;
      }

      .cls-9 {
        clip-path: url(#clippath-1);
      }

      .cls-10 {
        fill: #919d5f;
      }

      .cls-11 {
        fill: #828d53;
      }

      .cls-12 {
        fill: #727849;
      }

      .cls-13 {
        fill: #9f948d;
      }

      .cls-14 {
        fill: #663925;
      }

      .cls-15 {
        fill: #97684b;
      }

      .cls-16 {
        fill: #c28966;
      }

      .cls-17 {
        fill: #b7c46f;
      }

      .cls-18 {
        clip-path: url(#clippath);
      }

      .cls-19 {
        fill: #72774a;
      }
    </style>
    <clipPath id="clippath">
      <rect class="cls-8" x="0" width="90" height="90"/>
    </clipPath>
    <clipPath id="clippath-1">
      <rect class="cls-8" x="-2.17" y="-.36" width="94.35" height="90.71"/>
    </clipPath>
  </defs>
  <g class="cls-18">
    <g class="cls-9">
      <g>
        <path class="cls-14" d="M21.7-.36c-.19.9.1,1.38.26,2.2,1.75-.93,3.42.58,3.74,2.27.05.25-.05.83.03.94.04.05.79.28,1.08.54,2.15,1.87.67,6.71,3.49,8.28l.19-14.23h.78v5.12c-.39,8.6.07,17.26-.12,25.88,0,.52-.37,2.99,0,3.24.2.14,1.12.34,1.37.19.88-.52.53-1.77.58-2.66.44-8.02.15-16.3.12-24.32,0-2.47.12-5-.12-7.45h.78v15.27c.55-.62,1.2-1.61,1.57-2.37.27-.56.76-2.62,1.41-2.49.77.16.44,1.34.52,1.93.26,1.97,1.22,2.83,2.5,4.19,1.7-1.07,3.82-2.22,4.21-4.37-.15-.14-2.67,1.31-2.44-.17.05-.29.95-1.16,1.2-1.53.78-1.14,1.24-2.46,1.67-3.77.21-.64.25-2.29,1.19-2.29.19,0,.49.14.56.33.21.6.17,1.88.34,2.64.5,2.17,2.26,3.03,2.7,4.42.29.92-.03.48-.32.56-.3.09-.68.45-1.02.52.39,1.34,1.03,2.57,1.88,3.68.16,0,2.05-2.1,2.13-2.39.1-.33-.45-.1-.72-.31-.76-.59.9-1.32,1.3-1.7.38-.35,1.89-2.26,1.98-2.68.11-.5-.09-2.17.74-2.23.95-.07.6,1.63.62,2.09.03.63.52,2.1.77,2.72.24.58,1.47,2.36,1.5,2.64.07.78-1.46.12-1.66.3.15,1.29.49,2.53.91,3.75.24.19,1.19-1.12,1.32-1.33.53-.8,1.27-2.45,1.27-3.39,0-.52-.59-2.82.06-3.04.4-.13.54.49.64.78.25.77.32,1.62.55,2.42.44,1.46,1.15,2.82,2.04,4.04.82-.89,1.21-2.08,1.49-3.23-.69-.33-2.51.49-2.05-.82.06-.18,1.29-1.05,1.54-1.31,1.62-1.68,1.63-3.15,2.59-5.02.04-.08.23-.08.25-.19.08-.34-.05-.83,0-1.2-.49.15-1.21-.18-1.61-.13-.27.04-.55.38-.85.46-1.87.5-3.65-.94-3.24-2.92h-2.26c-.09,0-.83-.37-.96-.46-1.19-.82-1.3-2.11-1.04-3.42h1.29c-.09.99-.43,1.83.6,2.44.24.14,2.38.8,2.57.79.31,0,.97-1.12,1.43-.52.22.3-.36.93-.43,1.27-.24,1.17.62,1.61,1.65,1.59-.07-.33.13-1.45.47-1.54.64-.19.52.8.58.88.38.48,3.14-.33,3.69-.61.33-.16,1.08-.76,1.08-1.12V.92c.39-.1,1.22.27,1.43.57.22.3.06.78.22,1.2.31.83,1.45,1.87,2.41,1.72.53-.08,1.01-1.63,1.64-.85.33.41-.56,1.54-.25,2.45.15.43,1.54.52,1.54,1.06,0,.71-1.65.33-1.8.46-.25.21-.16,1.68.04,2.07.57,1.07,2.21.55,2.55.95.3.35-.19.68-.14,1.16.14,1.41,3.02,1.06,4.01.98V-.36h.91c-.1.27-.12.55-.13.83-.36,9.61.09,19.62.14,29.24.02,2.95-.18,6.16,0,9.07.02.3.25.56.24.75-.19,2.07-.04,4.42-.39,6.46-.07.38-.62,1.32-.24,1.59.23.16.88-.08,1.23-.08.47,0,1.33.33,1.47-.21.11-.39-.39-1.18-.38-1.66.01-.4.34-.45.4-.89.46-3.4-.36-7.82,0-11.33v-3.76c.07-9.59.47-19.66.14-29.31,0-.25.01-.49-.14-.71h.91v10.94c.2,1.52,2.45.16,2.83-.79.15-.37.12-1.01.33-1.22.34-.34.75.1,1.1-.06.19-.09.78-.81.91-1.04.93-1.55.64-3.49,1.29-5.11.02,1.89-.13,3.84-.13,5.69-.28.43-.68.99-1.1,1.29-.35.25-1.05.41-1.2.55-.11.11-.2.53-.36.74-.96,1.26-2.02,1.91-3.68,1.69v7.45c-.08.26.73,1.06.86,1.08.08.02.72-.42,1.05-.47,1.09-.19,1.79.14,2.49.94.24.27.61,1.05.66,1.09.15.11,1.08-.28,1.41.01v1.29c-.83-.56-1.07-.08-1.65.1-1,.3-.67-.4-.87-1.01-.42-1.26-1.85-1.8-2.84-.77-.14.15-.18.49-.33.58-.22.13-.78.02-.78.06v17.14s.14.21.14.31c.17.1,2.42-.57,2.91-.62,1.17-.11,2.3.22,3.41-.14v1.17c-.97.44-1.87.07-2.89.15-1.17.09-2.27.62-3.45.69-.21.14-.12,2.6-.12,3.05,0,.3-.01.61,0,.91.02.57-.09,1.63.32,2.07.44.47.56-.23.71-.39.39-.41.98-1.2,1.49-1.18.73.03.45.73.2,1.18-.21.36-.84.76-.97,1.04-.13.28-.04.58-.27.9-.68.98-2.25-.04-3.1-.13-.45-.05-1.22-.04-1.68,0-.52.04-1.89.62-2.2,0-.23-.46.11-.63.19-.98.04-.19-.02-.42.04-.61.19-.68.76-.62,1.01-1.77v-.13c.01-.07.12-.19.14-.44.11-1.5-.23-2.99-.14-4.48-1.06.06-2.11.3-3.18.26-.8-.03-1.63-.34-2.39-.39,0-.92-1.16-.39-1.81-.52,0,.21,0,.43.09.62.09.21.28.14.3.15.03.03,0,.19.07.25.32.28.56.09.75.68.1.32.19.76-.18.95-1.35.3-2.52,1.36-3.97.61-.43-.22-.42-.67-.5-.68-.12-.02-1.68.46-1.74.53-.18.19.05.22.17.29.86.47,2.29.97,2.94,1.78.13.16.23.63.26.65.1.08,1.89-1,1.81.65-.03.53-.24,1.11-.13,1.68.97-.36,2.55-1.32,3.49-.45.88.82-.9,1.48-1.03,2.26,1.17-.1,2.6.34,3.48,1.11.84.74.52,1.01-.12,1.74.88.11,3.38,1.24,3.33,2.25-.02.4-.52,1.07-.49,1.3.01.09,1.22.61,1.28,1.2.05.5-.85.82-.74,1.25.2.78,4.09.97,2.58,2.68-.71-.25-1.47-.42-2.21-.83-1.38-.79-1.82-1.56-1.42-3.18-.44-.13-1.41.35-1.69-.09-.68-1.06,1.44-1.85,1.17-2.24-.6-.27-1.12-.65-1.72-.93-.77-.36-2-.29-1.74-1.44.16-.73,1.54-1.03-.41-1.58-.79-.22-1.4-.11-2.13-.2-1.52-.21.61-1.88.7-2.57-.05-.05-1.24.38-1.42.45-.51.22-.8.76-1.46.56-.79-.24-.19-2.18-.8-2.04-.47.1-1.34,2.28-2.12,1.79-.1-.06-.17-.65-.15-.82.1-.63,1.2-1.32.84-2.14-.09-.21-1.46-1.23-1.74-1.37-.65-.33-.96-.23-1.59-.35-1.5-.29-.57-.83-.76-1.43-.25-.81-2.85.2-2.93-.82-.05-.6.95-.67,1.14-1.21-.46.04-1.02-.08-1.46.03-.45.1-.57.65-1.17.47-.41-.12-.51-.9-.48-1.27-.6.14-1.36.21-1.97.1-.32-.06-2.63-1.13-2.93-1.34-.54-.37,0-.77-.16-1.07-.29-.5-3.63-1.67-4-2.28-.43-.71.08-.94.52-1.37-.56-.25-2.66.64-2.92.27-.4-.57.77-1.4.59-1.56-.53-.17-1.52.91-1.75.91-.59,0-.6-.92-.65-1.3-.63.3-1.34,1.22-2.06,1.16-.47-.04-1.08-.44-1.58-.5-.64-.08-1.9.5-1.58-.57.06-.2.31-.3.36-.42.23-.5-1.03.17-1.16.27-.33.25-.38.7-.83.67-.95-.06,0-1.35-.21-1.64-1.27.78-1.38,2.58-3.04.78-.37,1.02-1.28.91-2.09,1.27-.75.33-1.79.94-2.3,1.59-.28.36-.32,1.17-.98.83-.52-.27-.07-.96-.19-1.36-.93.52-.96,1.45-1.38,2.12-.69,1.1-1.67-.14-1.41-1.08-.02-.03-.31.16-.38.21-1.17.83-1.29,2.52-2.27,3.42-.41.38-.92.17-1.09.27-.2.13.02,1.33-1.13,1.4-.28.02-.63-.22-.77,0-.23.35.38,1.2-.31,1.76-.55.46-1.44-.04-1.56.05.81.91.17,1.58-.45,2.33-1.65,1.97-4.12,3.92-6.15,5.49l-2.64,3.18c-.94.69-1.12-.99-1.36-1.51-.05-.12-.04-.38-.27-.18-.05.04-.51,1-.58,1.17-.19.44-.58,1.5-.66,1.93-.09.53.2,1.12-.24,1.44-.64.47-1.57-.73-1.62-.66.12,1.13-.21,1.53-1.05,2.12-1.06.76-4.96,3.09-6.07,3.38-.58.15-.91.06-1.43-.2.08-.19-.09-.6.14-.96.12-.18.55-.37.76-.46.07-.03.25,0,.39-.06,2.01-.94,3.79-2.28,5.8-3.19.03-.57.04-1.16.03-1.73,0-.45-.34-.91.13-1.28.96-.76,2.18,1.46,2.32,1.35.41-1.16.88-2.6,1.55-3.62.17-.25.72-.97.99-1,.59-.07.39.39.43.74.2,1.54.26,1.4,1.17.32.09-.11.09-.28.12-.32,1.91-2.33,4.69-4.08,6.73-6.47.19-.22.75-.72.78-.97.06-.6-.99-1.86.12-2.2.78-.24,1.14.27,1.82.46l-.13-1.03c-1.86-.03-3.77.29-5.63.13-.43-.04-.73-.22-1.09-.26.08-1.03,0-.61-.39-.78-.41-.18-.36-2.39-.39-2.85-.02-.34.02-.69,0-1.04-.01-.29-.13-.37-.13-.39-.05-1.46.01-2.94,0-4.4-.01-1.48.02-2.96-.02-4.45-.11-.34-.94-.17-1.27-.34.04,1.49-.05,2.99,0,4.48,0,.23.14.41.14.44.05,1.8.24,4.09.13,5.82-.04.64-.21.6-.26.78-1.11-.07-.72-1.98-.77-2.79-.15-2.55-.18-5.09-.13-7.62.01-.55.07-1.38-.07-1.89-.09-.36-.51-.71-.46-1.16-1.69.68-3.25.19-4.27-1.29.5,2.77.18,5.66.25,8.48.08,2.99.23,6.02.52,8.99.18,1.76,0,2.75,1.36,4.14.1.1.29.1.32.13.6.58.07,1.36-.82.89-.09-.05-.79-.67-.86-.76-.05-.07.12-.34-.19-.26-.94,1.05-3.19.97-3.43,2.59-.02,0,.1.25-.19.27-1.14.1-.75-1.74-.98-2.47-.05-.06-1.08.62-1.37.65-.51.05-.77-.35-1.04-.36-.35-.02-.8.87-1.52.35-.66-.47.07-1.08.44-1.41.04-.04.25-.03.39-.18s.19-.4.33-.58.42-.22.52-.52c.1-.31-.27-.68-.22-1.23.03-.36.29-.83.39-1.23,1.13-4.17.45-7.97.25-12.22-.14-2.93-.12-4.33-.93-7.22-.07-.25-.28-.4-.33-.58-.21-.76.29-1.13,1.01-.88l1.03,1.62v-8.97c-.15-.45-1.09.12-1.5.16-1.15.12-2.22-.36-2.51-1.54-.79.46-1.39.62-2.33.52,0-.21.08-.54-.13-.65v-.13c.12-.03.12-.15.13-.26.75.11,1.45-.14,1.92-.73.41-.51.32-1.38,1.24-1.21.94.17-.11,1.87.72,2.52.87.69,2.51-1.02,3.11-.27.21.25.19,1.08.73,1.22.49.12,1.4-.85,1.72-1.21.4-.44.68-1.42,1.42-1.04.34.18.11.86.65.53.52-.33.5-3.38.18-3.94-.24-.43-.8-.45-.5-1.17.02-.04.47-.64.51-.66.68-.51,1.06.54,1.5.84.77.52,1.64.34,2.14-.44.3-.46.14-1.57,1.13-1.28.78.23.18,1.88,1.83,1.65.89-.12,2.28-2.2,2.93-1.36.23.3-.05.96.31.85.51-.15,1.39-1.38,1.46-1.91.15-1.06-.56-1.19-.62-1.79-.05-.47.33-.87.26-1.35h1.29l.05-.04ZM10.96,6.76v2.65c0,.67-.93,2.02-1.69,2.08v9.23c.9-.07.55.41.69.94.36,1.41,1.51,1.83,2.87,1.64.62-.09,2.03-1.28,1.89-.07-.06.51-.42.47-.02,1.2.7,1.3,2.04.7,2.99.09.55-.35,1.93-1.76,2.28-1.86.52-.15-.02,1.17-.03,1.24-.05.44.2,1.95.7,2.1.77.23,1.46-.78,1.94-.87.3-.05.58.12.88.12.8,0,2.02-1.07,1.99-1.89-.02-.39-.48-.56-.36-1,.11-.4.87-.63.89-1.71.02-1.17-1.09-.46-.9-1.55.11-.66,1.05-.18.9-1.41-.03-.25-.32-.94-.51-1.05-.38-.22-1.13.14-1.46-.62-.39-.89.47-.59.73-.65.85-.19,1.42-.45,1.79-1.29.51-1.17.12-2.76-1.37-2.54-.47.07-1.82,1.05-1.31-.53.38-1.19,1.82-.71,2.15-1.12.65-.81.85-2.95-.27-3.46-.61-.28-1.07.56-1.54-.15-.3-.45.16-.7.24-1.15.11-.7-.03-1.29-.51-1.8-.79-.85-.92-.31-1.56.12-.13.09-.37.05-.5.14-.14.09-.83,1.26-1.23,1.62-.52.46-1.19.92-1.92.75-.25-.06-.48-.37-.65-.34-.47.07-1.07,1.02-2.22,1.02-.78,0-1.54-.66-1.81-.65-.24,0-.49.4-.75.54-.79.42-1.43.45-2.29.23M74.35,5.59c-1.4.2-2.38-.56-3.23-1.55.16,3.02.7,6,1.42,8.93.2.16,1.6-2.12,1.66-2.43.09-.47-.27-1.12-.24-1.78.03-.76.59-1.64.6-1.94,0-.29-.36-.82-.21-1.23M47.7,11.28c.17-.14-.78-.94-.9-1.1-.63-.81-1.15-1.77-1.36-2.78l-1.49,3.17c1.12-.37,1.38-.14,1.27,1.02-.2,2.19-1.44,3.64-3.1,4.92-.66.51-2.25,1.75-3.06,1.4-.8-.34-.21-1.1-.35-1.33-.06-.1-.33-.2-.46-.32-.71-.68-1.09-1.24-1.48-2.14-.12-.28-.17-1.06-.46-.69-.54,1.04-1.28,2.24-2.43,2.66-.02,5.59-.11,11.21.13,16.78.32-.05.61.42.8.39.13-.02,1.26-.85,1.59-1,.35-.16,1.41-.35,1.47-.41.09-.09-.23-1.6.59-1.68.81-.08,1.05,1.16,1.56,1.55.19.04,1.18-1.49,2.08-1.51.75-.02.76.94.82,1,.11.1,2.43-1.09,2.59.07.05.38-.29.67-.26.7.06.08,1.75.54,1.94.46.79-.8,3.98-3.46,3.37-.59.68-.11,1.81-.98,2.4-.39.67.68-.4,1.51-.33,1.56.91-.1,2.17-.41,2.7.6.32.6.07.74-.37,1.15,1.03.68,2.98,1.1,3.54,2.28.13.28.14.61.23.8.24.47,2.24,1.05,2.82,1.26.76-2.54,2.39-1.68,1.94.78,1.43-.24,2.85-.13,4.27.13,0-.48.38-1.05.37-1.49,0-.28-.22-.56-.24-.9-.1-2.03.22-4.06.26-6.08.11-5.59.1-11.92-.26-17.47-.11-1.62-.43-3.23-.52-4.85l-.42,1.33c-.41.91-.9,1.81-1.65,2.49,1.11.03.77,1.16.61,1.9-.43,2.01-2.16,5.65-4.29,2.81l-.98-1.67c-.24,1.05-.92,1.94-1.56,2.78-.17.22-.63.54-.71.72-.1.22-.04.62-.07.64-.04.04-.95.03-1.11,0-.8-.11-.45-.57-.61-1.08-.09-.3-.46-.78-.62-1.19-.27-.73-.79-3.03-.78-3.76,0-.7.64-.7.65-1.02,0-.19-.38-.81-.49-1.07-.2-.5-.17-1.39-.75-.95-.09.07-1.51,1.59-1.55,1.69-.07.18.09.39,0,.64-.14.51-.53,1.2-.85,1.62-.23.29-1.89,2.01-2.12,2.14-.73.43-.58-.18-.85-.46-.36-.37-.93-.55-1.4-1.19-.64-.87-2.26-4.47-.15-4.31M71.77,15.04l-1.04-7.63-.71,1.93c-.41.67-1.04.48-1.1.52-.04.03,0,.8,0,.97.48,6.73.66,13.16.52,19.93-.03,1.67-.41,3.8-.27,5.43.08.92.25,1.06.1,2.16-.08.56-.84,3.26-.69,3.47.44.6,2.21-.88,2.78-.51.1.07.06.64.36.74.47.16,2.1,0,2.11-.69,0-.25-.46-1.03-.56-1.39-.48-1.77-.36-4.71-.48-6.64-.27-4.4-.51-8.78-.39-13.2.04-1.4-.05-3.15.55-4.37.67-1.36,1.88-2.73,2.75-3.97.44-.55-.6-1.21-.97-.97-.11.07-.58,1.29-.75,1.58-.3.51-.72,1.16-1.08,1.64-.14.19-.86,1.29-1.14.99M47.9,11.28v.13c.08-.04.08-.09,0-.13M81.73,14.13c-.38.1-.68-.36-.96-.38-.25-.02-.78.22-1.17.25-1.48.1-2.54-.43-3.11-1.81-.43,1.18-2.86,3.66-2.91,4.73-.02.29.3.53.26.57-.06.08-.33-.1-.4.45-.41,3.35.33,7.47.13,10.88l.65,9.89c.75.1.46-.74.57-1.3.09-.45.49-.88.56-1.25.12-.58,0-1.08.19-1.75.14-.45.68-1.09.72-1.36.05-.34-.45-.84-.5-1.4-.14-1.7,1.16-3.51,2.71-4.09-.86-2.27,1.16-5.36,3.24-6.26v-7.18h.02ZM17.43,39.49h7.83c.06,0,.24.26.39,0,0-1.27.25-1.49,1.49-1.35.68-1.11,1.13-2.45,2.13-3.3.26-.22.99-.6,1.1-.71.22-.24.15-2.46.13-2.98,0-.31-.14-.59-.14-.89-.08-4.92.07-9.84,0-14.76-.06-.3-1.1-.64-1.49-.97-.24-.2-.55-.77-.78-.77-.21.66-.57,1.3-1.03,1.82-.13.14-.46.24-.47.33-.04.25.46.98.52,1.42.12.85-.28,1.52-.24,2.05.04.49.32.76.25,1.56-.07.79-.52,1.15-.62,1.59-.07.29.13.51.11.74-.14,1.66-1.31,2.84-2.92,3.16-.31.06-.66-.04-.99.04-.38.09-.94.66-1.46.74-1.35.21-1.94-.84-2.32-1.93-.28.43-1.61.89-1.72,1.25-.19,4.33.24,8.65.23,12.98M4.72,23.55c-.04.06-.24.07-.29.15-.27.42.05,1.74.07,2.26.06,2.54.01,5.1,0,7.64-.01,2.66.28,5.5-.43,8.11-.13.49-.93,2.29-.88,2.62.15.95,1.89-.72,2.39-.57.42.12.04,2.21.66,2.2.51-.6,2.98-1.44,3.24-1.95.23-.46-.39-1.98-.45-2.65-.66-7.58-.52-15.19-.78-22.76-.03-.93.03-1.86,0-2.79l-.59,1.16c-.74.94-1.48,1.32-2.64.79.03,1.31.27,2.77.13,4.07-.02.18-.37,1.64-.42,1.72M81.71,23.47c-.22.02-.46-.23-.59-.26-.34-.06-1.49,1.99-1.56,2.4-.28,1.7.91,1.39,1.2,1.98.42.83-.88.73-1.24.84-1.24.37-2.81,2.31-2.23,3.66.2.46,1.08.53,1.05.98-.05.61-1.21.47-1.56,1.55-.45,1.39.29.85.49,1.12.43.58-.79.86-1.09,1.26-.27.36-.43,1.09-.54,1.53.62.05,2.88-1.09,2.98,0,.05.59-.72.68-1.13.82-.2.07-.37-.11-.3.27,1.48.02,2.95.05,4.39-.26l.12-15.89h0Z"/>
        <path class="cls-3" d="M57.15-.36c-.26,1.31-.15,2.6,1.04,3.42.13.09.88.46.96.46h2.27c-.41,1.98,1.37,3.42,3.24,2.92.3-.08.57-.42.85-.46.4-.05,1.11.28,1.61.13-.05.37.07.86,0,1.2-.02.11-.21.1-.25.18-.95,1.87-.97,3.34-2.59,5.02-.25.26-1.47,1.13-1.54,1.31-.46,1.31,1.36.49,2.05.82-.28,1.15-.67,2.35-1.49,3.23-.89-1.23-1.6-2.58-2.04-4.04-.24-.8-.31-1.65-.55-2.42-.1-.29-.24-.91-.64-.78-.65.21-.06,2.51-.06,3.04,0,.95-.75,2.59-1.28,3.39-.13.2-1.08,1.52-1.32,1.33-.41-1.22-.76-2.46-.91-3.75.2-.18,1.73.48,1.66-.3-.02-.28-1.26-2.06-1.5-2.64-.26-.62-.74-2.09-.77-2.72-.02-.46.33-2.17-.62-2.09-.83.07-.63,1.73-.74,2.23-.09.42-1.6,2.32-1.98,2.68-.4.38-2.06,1.11-1.3,1.7.27.21.82-.02.72.31-.09.29-1.97,2.4-2.13,2.39-.85-1.1-1.49-2.34-1.88-3.68.35-.08.72-.44,1.02-.53.28-.08.6.36.31-.56-.43-1.38-2.2-2.24-2.7-4.42-.17-.75-.14-2.04-.34-2.63-.07-.19-.37-.34-.56-.34-.94,0-.98,1.65-1.19,2.29-.42,1.3-.88,2.63-1.67,3.77-.25.37-1.15,1.24-1.2,1.53-.23,1.48,2.29.03,2.44.17-.39,2.15-2.51,3.3-4.21,4.37-1.29-1.36-2.24-2.22-2.51-4.19-.08-.59.25-1.77-.52-1.93-.65-.14-1.14,1.93-1.41,2.49-.38.76-1.02,1.75-1.58,2.37V-.36h23.31Z"/>
        <path class="cls-11" d="M-1.98-.36h22.38c.07.48-.31.88-.26,1.35.06.6.77.73.62,1.79-.08.53-.95,1.76-1.46,1.91-.35.1-.07-.55-.31-.85-.66-.84-2.04,1.24-2.93,1.36-1.65.23-1.05-1.42-1.83-1.65-.98-.29-.83.82-1.13,1.28-.5.78-1.36.96-2.14.44-.44-.3-.82-1.36-1.5-.84-.03.02-.49.62-.51.66-.29.72.26.74.5,1.17.32.56.35,3.61-.18,3.94-.54.34-.31-.35-.65-.53-.74-.38-1.02.61-1.42,1.04-.33.36-1.24,1.33-1.72,1.21-.54-.14-.52-.97-.73-1.22-.61-.75-2.25.96-3.12.27-.82-.65.23-2.35-.71-2.52C0,8.28.08,9.16-.32,9.66c-.47.59-1.17.85-1.92.73.17-3.06.04-6.55,0-9.64,0-.23.08-.59-.13-.72v-.39h.39Z"/>
        <path class="cls-5" d="M81.73-.23v12.94c-.99.07-3.87.43-4.01-.98-.05-.48.44-.81.14-1.16-.34-.4-1.97.12-2.54-.95-.2-.38-.29-1.85-.04-2.07.16-.13,1.8.24,1.8-.46,0-.53-1.39-.63-1.54-1.06-.31-.9.58-2.04.25-2.45-.63-.78-1.11.77-1.64.85-.96.15-2.11-.89-2.42-1.72-.16-.42,0-.9-.22-1.2-.21-.3-1.04-.67-1.43-.57v1.88c0,.36-.75.96-1.08,1.12-.55.28-3.32,1.09-3.7.61-.06-.08.06-1.07-.58-.88-.34.1-.54,1.22-.47,1.55-1.03.02-1.9-.42-1.65-1.59.07-.34.65-.97.43-1.26-.45-.61-1.11.5-1.43.52-.19,0-2.34-.65-2.58-.79-1.03-.61-.69-1.45-.6-2.44h.13l23.16.13.02-.02Z"/>
        <path class="cls-15" d="M33.08-.36c.25,2.45.12,4.97.12,7.45.02,8.02.32,16.3-.12,24.32-.05.89.3,2.14-.58,2.66-.25.15-1.17-.06-1.37-.19-.36-.24,0-2.71,0-3.24.19-8.61-.26-17.28.13-25.88V-.36h1.81ZM32.82,18.01c-.67.06-1.19.57-1.28,1.24-.19,1.36-.15,5.04-.02,6.46.08.82.46,1.15,1.3,1.09v-8.8h0Z"/>
        <path class="cls-3" d="M30.49-.36l-.2,14.23c-2.82-1.57-1.34-6.41-3.49-8.28-.29-.25-1.05-.49-1.08-.54-.08-.11.02-.69-.03-.94-.32-1.7-2-3.2-3.74-2.27-.16-.82-.45-1.3-.26-2.2,0,0,8.8,0,8.8,0Z"/>
        <path class="cls-4" d="M21.81,13.67c.82.82,1.63,1.36,2.45,1.71.17,0,.36.02.46,0,.85-.19,1.42-.45,1.79-1.29.51-1.17.12-2.76-1.37-2.54-.47.07-1.82,1.05-1.31-.53.38-1.19,1.82-.71,2.15-1.12.65-.81.85-2.95-.27-3.46-.61-.28-1.07.55-1.54-.15-.3-.45.16-.7.24-1.15.12-.7-.03-1.29-.51-1.8-.79-.85-.92-.31-1.56.12-.13.09-.37.06-.5.14-.14.09-.83,1.26-1.23,1.61-.52.46-1.19.92-1.92.75-.25-.06-.48-.37-.65-.34-.47.07-1.07,1.02-2.22,1.02-.78,0-1.54-.66-1.82-.65-.24,0-.49.4-.75.54-.79.43-1.43.45-2.29.23v2.65c0,.67-.93,2.02-1.69,2.08v1.38c.28,1.45.84,2.84,1.74,4.05,3.24,2.16,9.72,3.24,10.8-3.24"/>
        <path class="cls-11" d="M24.25,15.38c-.82-.35-1.63-.89-2.45-1.71-1.08,6.48-7.56,5.4-10.8,3.24-.91-1.21-1.46-2.59-1.74-4.05v7.86c.9-.07.55.41.68.94.35,1.41,1.51,1.83,2.87,1.64.62-.09,2.03-1.28,1.89-.06-.06.51-.42.47-.02,1.2.7,1.3,2.04.7,2.99.09.55-.35,1.93-1.76,2.28-1.86.52-.15-.02,1.17-.03,1.24-.05.44.2,1.95.7,2.1.77.23,1.46-.78,1.95-.87.3-.05.58.12.88.12.8,0,2.02-1.07,1.99-1.89-.02-.39-.47-.56-.35-1,.11-.4.87-.63.89-1.71.02-1.16-1.09-.46-.9-1.55.11-.66,1.05-.18.9-1.42-.03-.24-.32-.94-.51-1.05-.38-.22-1.13.14-1.46-.62-.24-.54,0-.64.26-.65"/>
        <path class="cls-12" d="M17.43,39.49c0-4.33-.42-8.64-.23-12.98.11-.36,1.44-.82,1.72-1.25.39,1.09.98,2.14,2.32,1.93.52-.08,1.08-.64,1.46-.74.33-.08.68.02.99-.04,1.61-.32,2.78-1.5,2.92-3.16.02-.23-.17-.46-.11-.74.1-.43.55-.8.62-1.59.07-.79-.22-1.07-.25-1.56-.04-.53.36-1.2.24-2.05-.06-.43-.56-1.17-.52-1.42.01-.09.34-.19.47-.33.46-.52.82-1.16,1.03-1.82.22,0,.54.58.78.77.39.33,1.43.67,1.49.97.07,4.92-.09,9.84,0,14.76,0,.31.13.59.14.89,0,.52.08,2.74-.13,2.98-.11.12-.84.49-1.1.71-1,.86-1.45,2.19-2.13,3.3-1.24-.13-1.48.09-1.49,1.35-.15.25-.34,0-.39,0h-7.83v.02Z"/>
        <path class="cls-19" d="M-2.24,11.41c.94.11,1.54-.05,2.33-.52.29,1.18,1.36,1.66,2.51,1.54.41-.04,1.35-.61,1.49-.16v8.97l-1.02-1.62c-.72-.26-1.22.12-1.01.87.05.18.26.33.33.58.82,2.89.8,4.28.93,7.22.2,4.25.88,8.06-.25,12.22h-.65s.03-.19.13-.32c.18-.22.53-.14.53-.65,0-1.33-2.65-.19-2.34.97-.14-.03-.74-.03-.91,0,.17-.39.77-1.05.04-1.27-.93-.28-1.86.96-1.98,1.79-.02-.02-.09,0-.13,0-.15-9.85.2-19.75,0-29.62"/>
        <path class="cls-19" d="M81.73,14.13v7.18c-2.08.9-4.1,3.99-3.24,6.26-1.54.58-2.85,2.38-2.71,4.09.05.55.55,1.06.5,1.4-.04.27-.58.91-.72,1.36-.2.67-.08,1.17-.2,1.75-.07.37-.47.81-.56,1.25-.12.56.18,1.4-.57,1.3l-.65-9.89c.2-3.4-.55-7.53-.13-10.88.07-.55.33-.37.4-.45.03-.04-.28-.27-.26-.57.06-1.07,2.49-3.56,2.92-4.73.57,1.38,1.63,1.92,3.11,1.81.39-.03.91-.27,1.17-.25.28.02.59.47.96.38"/>
        <path class="cls-5" d="M92.34,39.36c-1.11.36-2.25.03-3.41.15-.49.05-2.74.72-2.91.62,0-.1-.14-.27-.14-.31v-17.14s.56.07.78-.06c.15-.09.19-.43.33-.58.99-1.03,2.42-.49,2.84.76.2.6-.13,1.31.87,1.01.58-.17.82-.65,1.65-.1v15.65"/>
        <path class="cls-15" d="M71.77,15.04c.28.29,1-.81,1.14-.99.36-.47.78-1.12,1.08-1.64.17-.29.64-1.51.75-1.58.36-.23,1.4.42.97.97-.87,1.25-2.09,2.61-2.75,3.98-.6,1.22-.51,2.97-.55,4.37-.11,4.43.12,8.81.39,13.2.12,1.92,0,4.87.48,6.64.1.35.56,1.13.55,1.39-.01.69-1.64.85-2.11.69-.3-.1-.25-.67-.36-.74-.57-.37-2.34,1.11-2.78.51-.15-.21.61-2.91.69-3.47.15-1.1-.02-1.24-.1-2.16-.14-1.64.24-3.76.27-5.44.13-6.77-.04-13.21-.52-19.93-.01-.17-.04-.94,0-.97.05-.05.68.14,1.09-.52l.72-1.93,1.04,7.63h0ZM70.86,10.9c-1.09.05-.97,2.9-.39,3.17.14.07.73.11.78.07.24-.23-.34-2.74-.39-3.23M72.15,20.86c-1.51-.18-1.82,1.27-2.03,2.43-.39,2.12-.67,8.33.86,9.93.39.41.87.6,1.43.37-.23-2.24-.19-4.48-.26-6.72,0-.31-.13-.59-.14-.89-.04-1.68-.06-3.47.13-5.12"/>
        <path class="cls-19" d="M9.92,40.53c-.29-2.96-.45-6-.52-8.99-.07-2.82.25-5.71-.25-8.48,1.02,1.49,2.58,1.97,4.27,1.29-.05.44.37.8.46,1.16.13.51.08,1.34.07,1.89-.05,2.54-.02,5.08.13,7.62.05.81-.34,2.71.77,2.79-.1.34-.17.68-.13,1.04-.3-.31-.97-.42-1.11.13-.08.3.47,1.11.6,1.55h-.91c-.03-.69-.74-1.86-1.49-1.82-1.07.05.04,1.25.19,1.82h-2.08Z"/>
        <path class="cls-15" d="M4.72,23.55c.05-.08.4-1.54.42-1.72.14-1.3-.1-2.77-.13-4.07,1.16.53,1.9.15,2.64-.79l.59-1.16c.03.92-.04,1.86,0,2.79.26,7.57.12,15.19.78,22.76.06.67.68,2.19.45,2.65-.25.51-2.72,1.35-3.24,1.95-.62,0-.24-2.08-.66-2.2-.5-.14-2.24,1.52-2.39.57-.05-.32.74-2.13.88-2.62.71-2.61.42-5.45.43-8.11.01-2.54.06-5.1,0-7.64-.01-.52-.34-1.84-.07-2.26.05-.08.25-.09.29-.15M7.43,21.92c-1.05.23-1.25,2.52-1.37,3.42-.38,2.81-1.22,10.39-.57,12.83.29,1.09,1.42,3.26,2.76,2.04.66-.6.23-1.32.18-2.1-.24-3.72-.52-7.78-.45-11.49.02-.9.25-2.07.24-2.97,0-.22-.11-1.56-.16-1.62-.12-.18-.43-.14-.63-.1"/>
        <path class="cls-19" d="M92.34,22.41c-.33-.29-1.26.09-1.41-.01-.05-.04-.42-.82-.66-1.09-.71-.79-1.4-1.12-2.49-.94-.33.06-.96.49-1.05.47-.13-.02-.94-.82-.87-1.08v-7.45c1.66.22,2.73-.43,3.69-1.69.16-.21.25-.63.36-.74.14-.14.85-.3,1.2-.55.42-.3.82-.86,1.1-1.29,0,4.74.13,9.58.13,14.36"/>
        <path class="cls-5" d="M92.08-.23c.46.54.25,1.82.26,2.59-.65,1.63-.36,3.56-1.29,5.11-.13.22-.72.95-.92,1.04-.35.15-.76-.28-1.1.06-.21.21-.18.85-.33,1.22-.39.95-2.64,2.32-2.84.8V-.23s6.22,0,6.22,0Z"/>
        <path class="cls-5" d="M81.71,23.47l-.12,15.89c-1.45.32-2.92.29-4.39.26-.07-.38.1-.2.3-.27.41-.14,1.18-.23,1.13-.82-.1-1.1-2.36.04-2.98,0,.11-.45.27-1.17.54-1.53.3-.4,1.52-.68,1.09-1.26-.2-.27-.95.27-.49-1.12.35-1.08,1.51-.94,1.56-1.55.04-.45-.85-.52-1.05-.98-.58-1.35.99-3.29,2.23-3.66.36-.11,1.66,0,1.24-.84-.3-.59-1.48-.28-1.2-1.98.07-.42,1.21-2.46,1.56-2.4.13.02.37.27.59.26"/>
        <path class="cls-3" d="M74.36,5.59c-.15.41.21.94.21,1.23s-.57,1.18-.6,1.94c-.03.66.33,1.31.24,1.78-.06.3-1.45,2.58-1.66,2.42-.72-2.93-1.26-5.91-1.42-8.93.86.99,1.83,1.75,3.23,1.55"/>
        <path class="cls-1" d="M16.13,31.08c0,1.46-.05,2.94,0,4.4l.13.39c.01.34-.02.69,0,1.04l-1.16.13c.11-1.74-.08-4.02-.13-5.82l1.16-.13h0Z"/>
        <path class="cls-13" d="M16.13,31.08l-1.16.13s-.13-.2-.14-.44c-.04-1.49.04-2.99,0-4.48.34.18,1.16,0,1.28.34.04,1.48,0,2.97.02,4.45"/>
        <path class="cls-13" d="M16.26,36.9c.03.46-.03,2.66.39,2.85-.22.45-.69.57-1.16.52-.03-.13-.69-1.34-.78-1.42-.04-.36.03-.7.13-1.04.05-.18.22-.14.26-.78,0,0,1.16-.13,1.16-.13Z"/>
        <path class="cls-19" d="M74.61,40.53s-.21.06-.3-.15c-.08-.19-.1-.41-.09-.62.65.13,1.8-.4,1.81.52-.48-.04-1.05-.09-1.42.26"/>
        <path class="cls-19" d="M16.65,39.75c.38.17.46-.25.39.78-.49-.05-1.05.04-1.55,0,0-.08.01-.18,0-.26.47.05.94-.07,1.16-.52"/>
        <path class="cls-13" d="M16.26,35.87l-.13-.39s.12.1.13.39"/>
        <path class="cls-19" d="M47.9,11.29c.08.04.08.09,0,.13v-.13Z"/>
        <path class="cls-11" d="M54.73,26.84c-.1-.33-.27-1.59.16-1.71.5-.14.92,1.2,1.17,1.54.44.61,1.2,1.07,1.87,1.36.13.05.32.12.54.18-.05-.58-.09-1.15-.13-1.73-1.46-.79-2.86-2.83-2.36-4.2.46-.31,1.46,1.58,1.76,1.93.13.14.31.29.51.44-.06-1.47-.09-2.94-.07-4.42-.27.01-.85,0-.97-.01-.81-.11-.46-.57-.61-1.07-.09-.3-.46-.78-.62-1.19-.27-.73-.79-3.03-.78-3.76,0-.7.64-.7.65-1.03,0-.19-.38-.81-.49-1.07-.2-.5-.17-1.39-.75-.95-.09.07-1.51,1.59-1.55,1.69-.08.18.08.39,0,.64-.14.51-.53,1.2-.85,1.62-.23.29-1.9,2.01-2.12,2.15-.26.15-.41.17-.51.12-.33,1.03-.72,2.05-1.17,3.05.11-.05.2-.07.31-.13.59-.3,1.76-1.32,2.29-1.35.62-.03,0,1.14-.16,1.39-.67.97-2.07,1.78-3.45,2.1-.47.84-.98,1.67-1.57,2.49.44-.3,1.45-.27,1.86-.36.47-.11,2.23-.94,2.45-.72.08.08-.04.71-.17.87-.57.69-4.01,1.89-4.34.72-.03-.1-.02-.18,0-.25-.37.49-.75.98-1.17,1.45,1.96-.98,2.15,1.59,3.78,1.27.16-.44,1.92-1.81,2.25-1.84.57-.05.44.69.17,1.08-.24.34-1.51,1.3-2.12,1.31-.5,1.54-1.29,2.79-2.25,3.86.41.1.79.17.88.13.79-.8,3.99-3.46,3.37-.58.68-.11,1.81-.98,2.4-.39.68.68-.4,1.51-.33,1.56.91-.1,2.17-.41,2.7.6.32.6.07.74-.37,1.15,1.03.68,2.98,1.1,3.54,2.28.14.28.14.61.24.8.14.27.86.58,1.57.83-.79-2.85-1.32-5.81-1.65-8.82-1.53-.25-3.47-1.51-3.92-3.01M51.9,28.5c-.39-.36-.02-1.53.42-1.66,1.34-.4.56,2.56-.42,1.66M58.63,33.4c-.79.9-2.79-.55-2.99-1.54-.05-.25,0-.57.29-.63.33-.07.88.83,1.35,1.07.56.27,2.1.24,1.34,1.11"/>
        <path class="cls-19" d="M67.88,14.07c-.11-1.62-.43-3.23-.52-4.85l-.42,1.33c-.41.91-.9,1.81-1.65,2.49,1.11.03.77,1.16.61,1.9-.43,2.01-2.16,5.65-4.29,2.81l-.98-1.67c-.24,1.05-.92,1.94-1.56,2.78-.17.22-.63.54-.71.72-.1.22-.04.62-.07.65,0,0-.06.01-.13.02,0,1.47,0,2.95.07,4.42.74.55,1.82,1.07,1.93,1.26.31.51-.12.89-.65.91-.38.02-.79-.11-1.19-.33.04.58.08,1.15.13,1.73.74.22,1.83.5,1.98.79.38.71-1.15.93-1.65.87-.05,0-.11-.02-.16-.03.34,3.01.86,5.97,1.65,8.82.51.18,1.01.34,1.25.43.76-2.54,2.39-1.68,1.94.78,1.43-.24,2.85-.13,4.27.13-.01-.48.38-1.04.37-1.49,0-.28-.22-.56-.24-.9-.1-2.03.23-4.06.27-6.08.11-5.59.1-11.92-.27-17.47M61.93,23.52c-.8-.81,1.11-1.61,1.62-2.01.84-.68,1.55-1.62,2.11-2.54.15-.24.81-1.98,1.19-1.59.24.25-.82,3.21-1.06,3.67-.45.86-2.85,3.51-3.86,2.48M62.71,26.37c.03-.51,1.84-1.77,2.33-2.34.52-.6.77-1.25,1.18-1.79.11-.15.14-.26.37-.21.5,1.35-1.46,4.46-2.71,4.86-.47.15-1.21.13-1.17-.51M66.74,27.93c-.25.55-1.27,2.14-1.96,1.79-1.05-.53.91-2.2,1.22-2.66.22-.32.28-1.02.68-1.14.99-.29.28,1.54.06,2.01"/>
        <path class="cls-19" d="M48.24,27.94s.02-.03.02-.05c-1.63.33-1.82-2.24-3.78-1.26.42-.48.8-.96,1.17-1.45.03-.11.1-.19.2-.26.59-.81,1.1-1.64,1.57-2.49-.69.16-1.37.21-1.95.08-1.06-.23-.71-1.28.39-1.49,1.03-.2,1.64-.2,2.57-.6.45-1,.84-2.02,1.17-3.05-.17-.09-.17-.4-.34-.58-.36-.37-.93-.55-1.4-1.19-.63-.87-2.26-4.47-.15-4.31.17-.14-.78-.94-.9-1.1-.63-.81-1.15-1.77-1.36-2.78l-1.49,3.17c1.12-.36,1.38-.14,1.28,1.02-.2,2.19-1.44,3.64-3.1,4.92-.66.51-2.25,1.75-3.06,1.4-.79-.34-.21-1.1-.35-1.33-.06-.1-.33-.2-.46-.32-.71-.68-1.09-1.23-1.48-2.14-.12-.28-.17-1.06-.46-.69-.54,1.04-1.28,2.24-2.43,2.66-.02,5.59-.11,11.21.13,16.78.32-.05.61.42.8.39.13-.02,1.26-.85,1.59-1.01.35-.16,1.41-.35,1.47-.41.09-.09-.23-1.6.59-1.68.81-.08,1.05,1.16,1.56,1.55.19.04,1.18-1.49,2.08-1.51.75-.02.76.94.82,1,.1.1,2.43-1.09,2.59.07.05.38-.29.67-.26.7.03.04.56.2,1.06.32.96-1.07,1.75-2.33,2.25-3.86-.23,0-.38-.13-.32-.51"/>
        <path class="cls-16" d="M32.82,18.01v8.8c-.84.06-1.23-.27-1.3-1.09-.13-1.42-.17-5.1.02-6.46.09-.67.62-1.18,1.28-1.24"/>
        <path class="cls-14" d="M-.17,40.53c-.71.12-.7,1.02-1.13,1.15-.61.18-.61-.44-.82-.63.12-.83,1.05-2.07,1.98-1.79.73.22.13.88-.04,1.27"/>
        <path class="cls-14" d="M2.42,40.53c-1.2,1.1-1.1.14-1.68,0-.31-1.16,2.34-2.3,2.34-.97,0,.51-.34.44-.53.65-.11.13-.12.3-.13.31"/>
        <path class="cls-14" d="M51.03,18.94c.62-.03,0,1.14-.17,1.4-1,1.46-3.66,2.56-5.4,2.18-1.06-.23-.71-1.28.39-1.49,1.15-.22,1.74-.16,2.89-.74.59-.29,1.76-1.32,2.29-1.35"/>
        <path class="cls-14" d="M54.88,25.13c.5-.14.92,1.2,1.17,1.54.44.61,1.2,1.07,1.87,1.36.55.24,2.32.6,2.52.97.38.71-1.15.93-1.65.87-1.55-.19-3.62-1.49-4.07-3.04-.1-.33-.26-1.59.16-1.71"/>
        <path class="cls-14" d="M66.85,17.37c.24.25-.82,3.21-1.06,3.66-.46.86-2.85,3.51-3.86,2.48-.8-.81,1.11-1.61,1.62-2.01.84-.68,1.55-1.63,2.11-2.55.15-.24.81-1.98,1.19-1.59"/>
        <path class="cls-14" d="M55.98,22.28c.46-.31,1.46,1.58,1.76,1.93.6.68,2.3,1.46,2.44,1.7.31.51-.12.89-.65.91-1.74.07-4.2-2.78-3.55-4.54"/>
        <path class="cls-14" d="M66.59,22.02c.5,1.35-1.47,4.46-2.71,4.86-.47.15-1.21.13-1.17-.51.03-.51,1.84-1.77,2.33-2.34.51-.6.77-1.25,1.18-1.8.11-.15.14-.26.37-.21"/>
        <path class="cls-14" d="M50.16,23.84c.08.08-.04.71-.17.87-.57.69-4.01,1.89-4.34.72-.25-.85,1.49-.74,2.06-.87.47-.11,2.23-.94,2.45-.72"/>
        <path class="cls-14" d="M66.68,25.93c.99-.29.28,1.54.06,2.01-.25.55-1.27,2.14-1.96,1.79-1.05-.53.91-2.2,1.22-2.66.22-.32.28-1.03.68-1.14"/>
        <path class="cls-14" d="M55.94,31.23c.33-.06.88.84,1.35,1.07.56.27,2.1.24,1.34,1.11-.79.9-2.79-.55-2.99-1.54-.05-.25,0-.57.29-.63"/>
        <path class="cls-14" d="M50.51,26.06c.57-.05.44.69.17,1.08-.33.47-2.64,2.15-2.44.81.06-.39,1.93-1.85,2.27-1.88"/>
        <path class="cls-14" d="M52.32,26.83c1.34-.4.56,2.56-.42,1.66-.39-.36-.02-1.53.42-1.66"/>
        <path class="cls-16" d="M72.15,20.86c-.2,1.65-.17,3.44-.13,5.12,0,.31.13.59.14.89.06,2.24.03,4.49.26,6.72-.56.23-1.04.04-1.43-.37-1.53-1.6-1.25-7.81-.86-9.93.21-1.17.53-2.61,2.03-2.43"/>
        <path class="cls-16" d="M70.86,10.9c.05.49.62,3.01.39,3.24-.05.05-.63,0-.78-.07-.58-.27-.7-3.12.39-3.17"/>
        <path class="cls-14" d="M14.71,38.84c.08.09.75,1.29.78,1.42.02.08,0,.17,0,.26.04.44.07,1.28-.31,1.56-.89.65-.84-1.04-.98-1.56-.12-.44-.67-1.26-.59-1.55.14-.55.81-.43,1.11-.13"/>
        <path class="cls-14" d="M13.29,40.53c.02.46-.12,1.3-.71,1.31-.62,0-.44-.76-.58-1.31-.15-.57-1.26-1.78-.19-1.82.75-.03,1.45,1.13,1.49,1.82"/>
        <path class="cls-16" d="M7.43,21.92c.19-.04.5-.08.63.1.05.07.16,1.4.16,1.62.01.9-.22,2.07-.24,2.97-.06,3.71.22,7.77.45,11.49.05.78.48,1.5-.18,2.1-1.34,1.22-2.47-.95-2.76-2.04-.65-2.44.19-10.02.57-12.83.12-.9.32-3.19,1.37-3.42"/>
        <path class="cls-2" d="M-.17,40.53c.16-.03.76-.03.91,0,.58.14.48,1.1,1.68,0h.65c-.11.4-.36.87-.39,1.23-.05.55.32.92.22,1.23-.1.31-.38.35-.52.52-.14.18-.18.43-.33.58-.15.16-.35.15-.39.18-1.08-.59-2.03.43-2.84.72-.22.08-.94.07-1.02.21-.12.19-.02,3.9-.02,4.51v.13h-.15v-4.66c.21-.13.13-.49.13-.71.01-.93.1-2.02-.13-2.91v-.52h.13s.11-.02.13,0c.21.19.2.81.82.63.43-.12.41-1.03,1.13-1.15"/>
        <path class="cls-17" d="M.61,61.1c.51.25.84.35,1.43.2,1.11-.29,5.01-2.62,6.07-3.38.84-.6,1.17-.99,1.05-2.12.06-.08.98,1.13,1.62.66.44-.32.15-.91.24-1.44.08-.44.47-1.49.66-1.93.07-.16.53-1.12.58-1.17.23-.2.21.06.27.18.24.52.41,2.2,1.36,1.51l2.64-3.18c2.03-1.57,4.51-3.52,6.15-5.49.62-.75,1.27-1.42.45-2.33.12-.09,1.01.4,1.57-.05.68-.57.08-1.41.31-1.76.14-.22.49.02.77,0,1.16-.08.93-1.27,1.13-1.4.16-.11.68.11,1.09-.27.98-.91,1.1-2.6,2.27-3.42.06-.04.36-.23.38-.2-.27.94.71,2.19,1.41,1.08.42-.67.45-1.6,1.38-2.12.12.4-.33,1.09.19,1.36.66.33.7-.47.98-.83.5-.65,1.55-1.25,2.3-1.58.82-.36,1.73-.25,2.09-1.27,1.66,1.8,1.77,0,3.04-.78.22.29-.73,1.58.21,1.65.45.03.5-.42.83-.67.12-.09,1.38-.77,1.16-.27-.05.12-.3.22-.36.42-.32,1.06.94.49,1.58.57.5.06,1.11.46,1.58.5.72.06,1.42-.86,2.06-1.16.05.38.06,1.3.65,1.3.23,0,1.22-1.08,1.75-.91.18.16-.99.99-.59,1.56.26.37,2.36-.51,2.92-.27-.45.43-.95.66-.52,1.37.36.61,3.71,1.78,4,2.28.17.3-.38.7.16,1.07.3.21,2.61,1.28,2.93,1.34.61.11,1.38.05,1.97-.1-.03.37.07,1.15.48,1.27.6.18.71-.36,1.17-.47.45-.1,1,0,1.46-.03-.18.53-1.19.61-1.13,1.21.09,1.01,2.69,0,2.93.82.18.61-.74,1.14.76,1.43.63.12.94.02,1.59.35.27.14,1.64,1.16,1.74,1.37.37.82-.74,1.51-.84,2.14-.03.17.04.75.15.82.78.49,1.65-1.69,2.12-1.79.61-.13,0,1.8.8,2.04.66.21.95-.34,1.46-.56.19-.08,1.37-.5,1.42-.45-.09.7-2.23,2.37-.7,2.58.73.1,1.34-.02,2.13.2,1.95.55.58.85.41,1.58-.26,1.14.98,1.08,1.74,1.44.6.28,1.13.66,1.72.93.27.39-1.85,1.18-1.17,2.24.28.44,1.25-.04,1.69.09-.4,1.62.04,2.39,1.42,3.17.73.42,1.49.59,2.2.83.02,0,.09.18.21.24.39.17.96.38,1.21.67-.68.18-1.95-.08-1.63.91.31.97,2.74.54,3.18-.39,1.22.85,1.86-.78,2.98-.39-.47.08-2.85,1.92-3.04,2.33-.15.32-.08.77.29.88.81.24,2.21-1.78,3.14-1.92,0,.02.14.21.14.44,0,10.03.04,20.08-.07,30.1l-.29.23-93.66.03c-.25.02-.48,0-.57-.27v-12.94c1.9.08,3.66.42,5.51.76.2.04.17-.12.18-.12.53.1,1.51.34,2.01.51.64.22,1.03.52,1.32,1.14.19.41.61,2.93,1.31,2.02.52-.67.37-2.06.02-2.77h2.46s.18.11.27.31c.2.48.2,1.54.84,1.49.6-.05.66-1.36.58-1.81.51-.25,1.13-.09,1.68-.13,0,.16.14.98.19,1.17.07.28.46,1,.78,1.02.1,0,.44-.09.47-.21.08-.35-.31-1.34-.27-1.98h2.59c-.1.21-.5,1.78-.49,2.01,0,.2.12.62.32.69.81.28.7-.62.89-1.14.16-.45.39-.86.58-1.3l1.04.13c.05.05-.88.7-.05,1.28l1.99.53c-1.4.32-2.79.67-4.22.89-1.15.18-5.46.26-5.84,1.53-.63,2.14,3.13,2.72,4.57,2.88,4.1.46,10.94-1,14.78-2.55.28-.11.79-.1.93-.17-.15.79,1.14.45,1.58.35.65-.14,1.31-.52,1.99-.6,4.54-.53,7.97,2.69,12.06,3.83,4.71,1.32,8.05,1.65,12.84.36,3.61-.97,4.12-1.63,6.53-4.21,1.22-1.3,2.94-1.91,4.63-2.48.21-.07.38-.14.61-.1-.15.21-.61.39-.86.5-1.28.58-3.37.98-3.53,2.69-.13,1.37,1.25,2.37,2.52,2.38,2.08,0,5.77-2.3,7.56-3.44,1.59-1.01,5.56-3.4,5.82-5.31.34-2.46-1.05-2.09-2.45-3.35-.81-.73-1.12-2-2.46-2.01.07-1.25-1.28-1.89-2.38-1.8-1.02.08-3,1.24-2.41,2.45-1.52.54-3.47,1.53-4.92.33-1.36-1.13-.35-2.56.58-3.56,1.02-1.1,2.42-1.51,3.43-2.59.09-.1.48.06.39-.57-.16-1.06-1.77-1.63-2.72-1.37.68-.75,1.79-1.42,1.93-2.53.35-2.73-3.03-2.5-4.85-2.39-1.99.12-3.85.67-5.62,1.56-.19-3.39,1.64-5.92,4.01-8.09.8-.73,2.05-1.21,2.33-2.39,2.61-2.31.03-1.56-.12-1.69-.05-.04-.04-.61-.49-.74-.86-.25-1.73.21-2.36.75-.08-2.35-2.71-.67-2.85.78-.43-.42-.61-.81-1.2-1.06-.91-.38-2.96-.43-2.68.99.12.59,1.39.68,1.29,1.49-.89-.02-3.2.46-2.98,1.68-1.91.2-1.13-.47-1.04-1.62.09-1.11.1-2.41-1.26-2.62-1.63-.26-3.82,1.94-5.4,2.43-.09.03-.08-.1-.06-.19.69-4.87,4.5-8.62,8.93-10.29.12-.04.48-.03.78-.13.72-.23,1.18-.14,1.04-1.16.4-.35,1.42-1.08.51-1.49-.59-.27-1.41.3-1.81.71-.61-.29-1.22-.72-1.94-.65-.43-.79-2.05-1.82-1.94-.26-.31-.07-.82.05-1.16,0-.28-.3-.92-.77-1.35-.77-.63,0-.71.58-.33,1.03-.56.35-1.3.26-1.94.26-.47,0-.87-.18-1.32-.1-.5.08-.77.49-1.13.62-2.76,1-5.08,1.32-7.9,2.78-2.13,1.1-3.9,2.68-5.9,3.93-1.97,1.23-3.88,2.55-5.67,4.03.15-.67.49-1.3.82-1.89,1.73-3.15,4.42-7.8,7.01-10.2.65-.6,3.31-3.01,3.88-3.3.48-.24.51.3.78-.78l1.29-.65c-.04.58.14,1.04.78.71.23-.11.5-1.04.72-1.35.36-.52,1.77-1.26.64-1.7-1.08-.42-1.75,1.16-2.01,1.95l-1.17.13c.07-.2.06-.42.16-.68.12-.29.96-1.27.27-1.51-1.16-.39-1.83,1.69-1.86,2.57l-1.81.39c.05-.48.15-2.03-.35-2.18-1.28-.37-1.33,1.9-1.07,2.69-1.33.53-2.64,1.39-3.87,2.15-1.8,1.1-4.68,2.71-6.21,4.01-.95.81-1.93,2.29-2.85,3.23-.73.74-1.61,1.58-2.33,2.26-2.96,2.77-6.35,5.52-9.77,7.77-3.03,1.99-8.82,6.13-12.23,6.6-.56.08-.99.18-1.55,0v-1.42c.35-.23,2.79-1.28,2.85-1.42M46.12,36.15c-.67.13-1.86,1.97-1.27,2.38.2.14.54.07.73-.07.1-.07,1.35-1.75,1.33-1.86-.05-.29-.49-.51-.79-.45M75.1,59.44c-.87.18-1.96,1.31-1.4,2.24.73.34,1.15-.73,1.56-.91.42-.19,1.48.04,1.24-.72-.19-.59-.86-.73-1.4-.61M78.49,68.08c.09-.74-.05-1.17-.58-1.69-2.03-1.97-4.93.24-4.21,2.72,1.05-.05,1.33-2.02,2.39-2.08,1.24-.07,1.4.95,2.39,1.05M84.15,65.79c-.56.09-2.03.93-1.27,1.47.33.23,3.06-.36,4.37.29.31.16,1.15,1.09,1.54.55.45-.63-1.1-1.7-1.58-1.93-.91-.43-2.06-.53-3.06-.37"/>
        <path class="cls-10" d="M88.59,46.99l.78.52c-.45.43-1.03,1.01-.91,1.68.32.33,2.64-1.14,2.85-1.42.22.26.71.09,1.04.13v14.36c-.17.02-.36-.03-.52,0-1.12-.39-1.76,1.24-2.98.39.72-1.52-.97-.67-1.55-.52-.25-.29-.82-.49-1.21-.67-.12-.05-.2-.23-.21-.24,1.51-1.71-2.37-1.9-2.58-2.68-.11-.43.79-.75.74-1.25-.06-.59-1.27-1.11-1.28-1.2-.03-.23.47-.9.49-1.3.05-1-2.44-2.14-3.33-2.25.63-.73.96-1,.12-1.73-.88-.77-2.31-1.21-3.48-1.11.13-.78,1.91-1.43,1.03-2.26-.93-.87-2.52.08-3.49.45-.11-.58.1-1.15.13-1.68,2.3-.05,4.62-.18,6.89-.42l.49-.35c-.24,1.15-.82,1.1-1.01,1.77-.05.19,0,.42-.04.61-.08.35-.42.52-.19.98.31.62,1.68.04,2.2,0,.46-.04,1.23-.05,1.68,0,.85.09,2.42,1.1,3.1.13.22-.32.14-.62.27-.9.13-.28.76-.68.97-1.04"/>
        <path class="cls-17" d="M1.64,48.68c.18-.03.56-.05.65.13-.44.46-1.12,2.06-.19,2.21.71.11.73-.63,1.04-1.03.29-.37.71-.63.96-1.04.09.11,1.43.5,1.68.39-.39,1.68,1.48.99,1.42.13.54.2,1.23,0,1.68.26-.23.35-.24,1.12.23,1.27.19.06.43,0,.55.03.16.05.21.31.7.26.4-.04,1.52-.99,1.37-.13-.67,1.02-1.15,2.47-1.55,3.62-.14.11-1.36-2.11-2.32-1.35-.47.37-.14.84-.13,1.28,0,.58,0,1.16-.03,1.73-2.02.91-3.8,2.26-5.8,3.19-.13.06-.31.03-.39.06-.13-.21-.5-.15-.71-.13-1.02.1-2.04.2-3.04.39,0-3.36,0-6.73,0-10.09v-.13l.91-.13c-.17.49-.11,1.47.42,1.72.74.35.88-.86,1.1-1.29.24-.46.91-1.25,1.45-1.34"/>
        <path class="cls-10" d="M21.18,44.41c-2.03,2.39-4.82,4.14-6.73,6.47-.48-.42-.8-.09-1.29,0-.05-.35.16-.82-.43-.74-.27.03-.82.75-.99,1,.15-.86-.97.09-1.37.13-.49.05-.54-.21-.7-.26.12-.32.66-.58.75-.87.34-1.12-1.03-1.17-1.53-.43-.45-.26-1.14-.06-1.68-.26-.06-.79-1.32-.58-1.42-.13-.26.11-1.6-.28-1.68-.39-.02-.03.01-.3-.12-.46-.42-.51-1.33-.05-1.7.33-.09-.18-.46-.16-.65-.13.16-1.42-1.39-.96-2.07-.33-.16.14-.84,1.07-.9,1.23l-.9.13c0-.61-.1-4.32.02-4.51.08-.13.8-.13,1.02-.21.81-.28,1.76-1.3,2.84-.72-.37.33-1.1.94-.44,1.41.72.52,1.17-.38,1.52-.36.27.02.53.42,1.04.36.29-.03,1.32-.71,1.37-.65.23.74-.16,2.58.98,2.47.29-.03.17-.26.19-.27.04-.02.25.06.35-.03.07-.06.06-.31.16-.43.37-.46,1.56-.76,2.16-1.08.26-.14.94-.48.95-.8.07.09.77.71.86.76.89.47,1.42-.31.83-.89.61-.13,1.79-.16,2.37.02.35.11.31.73.35.76.24.21,2.51-1.27,3.16-1.17.19.03.35.25.51.24.07,0,1.21-.33,1.42-.39.24-.07.39-.45.82-.49.55-.05.64.31.96.65"/>
        <path class="cls-2" d="M11.99,40.53c.14.55-.04,1.31.58,1.31s.73-.84.71-1.31h.9c.14.52.09,2.21.98,1.56.38-.28.35-1.12.31-1.56.5.04,1.07-.05,1.55,0,.36.04.66.23,1.1.26,1.87.15,3.77-.16,5.63-.13l.13,1.03c-.67-.19-1.03-.7-1.82-.46-1.11.35-.06,1.6-.12,2.2-.03.25-.59.75-.78.97-.32-.34-.41-.7-.96-.65-.42.04-.57.42-.82.49-.21.06-1.34.39-1.42.39-.16,0-.31-.21-.51-.24-.65-.1-2.92,1.37-3.16,1.17-.03-.03,0-.65-.35-.76-.59-.18-1.76-.15-2.37-.02-.03-.03-.23-.03-.32-.13-1.37-1.39-1.18-2.38-1.36-4.14h2.07l.03.02Z"/>
        <path class="cls-10" d="M76.04,40.27c.76.06,1.59.37,2.39.39,1.06.04,2.12-.21,3.18-.26-.09,1.49.25,2.98.14,4.48-.02.25-.13.37-.14.44-.59-.1-.43-.61-.7-.91-.52-.56-1.88-.58-2.59-.5-1.29.14-2.68.23-4,.4-.64.08-1.67.21-2.15.63-.65-.81-2.08-1.31-2.94-1.78-.12-.06-.35-.1-.16-.29.06-.07,1.62-.55,1.74-.53.08,0,.07.46.5.68,1.45.74,2.62-.32,3.97-.61.37-.19.28-.62.18-.95-.19-.58-.43-.4-.75-.67-.07-.06-.05-.23-.07-.25.38-.35.94-.29,1.42-.26"/>
        <path class="cls-10" d="M92.34,44.15c-.8-.03-1.6.04-2.4,0-.17,0-.34-.13-.38-.13h-2.98c-.31,0-.43.4-.71.39,0-.45-.09-2.91.12-3.05,1.18-.07,2.28-.59,3.45-.69,1.03-.08,1.93.29,2.9-.15v3.62"/>
        <path class="cls-2" d="M92.34,44.15v3.75c-.32-.04-.81.13-1.04-.13.33-.45.16-1.12-.46-1.16-.36-.02-1.2.64-1.48.9l-.78-.52c.25-.44.54-1.14-.2-1.18-.51-.02-1.1.77-1.49,1.18-.8-.31-.69-.55-.78-1.23-.03-.24.16-.52-.26-.45-.01-.3,0-.6,0-.9.28,0,.4-.39.71-.39h2.98s.21.13.38.13c.8.03,1.6-.03,2.4,0"/>
        <path class="cls-17" d="M81.6,45.31v.13l-.49.35c-2.27.24-4.59.38-6.89.42.08-1.65-1.71-.57-1.81-.65-.03-.02-.13-.48-.26-.65.49-.42,1.51-.55,2.15-.63,1.32-.17,2.71-.25,4-.4.71-.08,2.07-.06,2.59.5.28.3.11.82.7.91"/>
        <path class="cls-7" d="M1.51,59.67c-.22.1-.65.28-.76.47-.23.35-.07.77-.14.96-.06.15-2.5,1.2-2.85,1.42v-2.59c1-.19,2.03-.29,3.04-.39.21-.02.58-.08.71.13"/>
        <path class="cls-6" d="M6.3,47.25c.24-1.62,2.49-1.54,3.43-2.59.32-.09.14.19.19.26-.01.32-.69.66-.95.8-.61.32-1.79.62-2.16,1.08-.1.12-.09.36-.16.43-.1.09-.31,0-.35.03"/>
        <path class="cls-6" d="M14.45,50.88s-.03.21-.12.32c-.91,1.07-.97,1.21-1.17-.32.49-.09.81-.42,1.29,0"/>
        <path class="cls-14" d="M91.82,62.26c.16-.03.35.02.52,0,0,.46-.13.98-.13,1.29-.93.14-2.33,2.16-3.14,1.92-.37-.11-.44-.56-.28-.88.19-.41,2.57-2.25,3.04-2.33"/>
        <path class="cls-7" d="M14.19,58.77s0-.22.13-.32c2.08-1.65,5.31-2.18,7.89-2.4l-3.49,5.5,4.58-1.87c.14-.05.06-.18.08-.27.26.21.58.67.91.78-.46.4.43.7.49.81.1.17-.02.55.16.75-1.33.61-.99,1.94,0,1.63.15-.05,1.29-.73,1.42-.85.26.27.8.08,1.16.13-.41.55-.18,1.6.56,1.41.34-.09,1.27-1.42,1.38-1.79.54-.02.99-.38,1.42-.65-.02.51.03,1.04,0,1.55-.92,0-1.62.89-2.42,1.4-1.96,1.23-4.7,2.22-7.03,1.84-.32.32.76,1.23,1.04,1.29.03.15-.05.58,0,.65-.59.19-2.65,2.08-1.82,2.66.73.51,1.12-.62,1.43-1.04.11-.15.34-.26.39-.32,0,.36.33.47.65.52-.22.52-.66,2.27.21,2.44.68.13.82-1.3.98-1.71.07-.16.2-.27.23-.34l1.42.13c-.04.36-.05,1.23.45,1.3.76.1.69-.75.84-1.3.53.02,1.04-.16,1.55-.26.21-.04.1.13.65-.13.18-.08.34-.18.52-.26-.14.55.9.91.91.98.05.58-.62,1.66-.97,2.13-.13.18-.69.6-.71.64-.6-.32-1.07.58-1.49.9-1.77,1.37-4.85,2.89-7.12,2.85-.42,0-.85-.47-1.14-.38-.76.22.07,1.14.17,1.41.04.1-.04.36.03.55.27.76,1.09,1.52,1.78,1.91-.06.16.11.63.26.72.23.14.47-.08.65-.07.66.01,1.5.66,2.33.39.04.21.46.43.68.37.4-.1.4-.49.48-.76.87,0,1.55-.65,2.33-.91.32.59,1.03.39,1.16-.13l1.42-.13c-.05.84-.08,1.69-.24,2.51.02.09,1.51.74,1.6.72s.2-.21.2-.32c-.06-.98.19-1.95.26-2.91h.78c.3,1.52,1.64,2.17,1.42,0h2.46c.12.28.72,1.2,1,1.27.5.13.89-.27.81-.76l1.42-.13c.7.57,2.56.21,1.29-.65.92-.96,1.39-2.37.26-3.36.05-.02.46-.73.52-.83,0-.05-.31-.2-.33-.2h-2.07c-.81,0-1.77-.93-2.4-1.35-.17-.11-.46-.04-.51-.07-.15-.09-1.04-.93-1.16-1.1-.69-.92-.66-1.57-.52-2.65.02-.16-.03-.36,0-.52,0-.07.35-.29.26-.65.17.01.35-.02.52,0,.55.07,1.11.29,1.68.26.03.31,0,.49.39.6.35.1.41-.17.52-.21.95-.29,3.51-.4,4-1.24.41-.71-.06-1.4-.82-1.48-.42-.04-.88.03-1.36,0,.02-.28.04-.44-.21-.63-.65-.5-2.14-.93-2.94-1.33-1.2-.59-2.86-1.3-3.19-2.7.4.12,1.33-.09,1.81,0,.09.19.36.27.39.39,0,0-.11.06-.12.11.53.15,1.16.57,1.72.53.59-.04,2.05-.65,2.82-.81.5-.11,1.52-.39,1.97-.34.6.07,1.14.82,1.8,1.06,1.25.45,1.46.02,2.49-.15.82-.13.45.17.77.63,2.05,2.98,5.86,1.81,8.85,2.47.15.23-.65,1.39-.8,1.72-.55,1.27-1.01,2.71-1.01,4.1-.43.06-1.18.81-1.42,1.16-1.68-.04-2.76,1.35-4.27,1.81-.87-.87-1.43-.63-.9.65-.67-.02-1,.66-1.55.91-.03-.06-.68-.98-.78-1.1-.29-.35-1.32-1.25-1.42-.26-.03.29.93,1.64,1.11,2.26.34,1.23-.12,2.5.65,3.5.08.02.4-.2.45-.26-.08.36.18.24.39.32,1.48.56,2.72,1.23,4.15,1.81,2.48,1,5.19,1.09,7.82,1.1.81,0,1.93-.21,2.14.85.53,2.74-3.36,4.17-5.5,4.33-5.07.39-9.37-2.14-13.97-3.5-2.93-.87-5.92-.93-8.7.5-.32.17-.98.76-1.08.8-.14.06-.65.05-.93.16-3.84,1.55-10.68,3.01-14.78,2.55-1.44-.16-5.2-.74-4.57-2.88.38-1.28,4.68-1.35,5.84-1.53,1.43-.22,2.82-.57,4.22-.89l-1.99-.53c-.83-.58.1-1.22.05-1.28l-1.04-.13c.14-.32.75-1.1.04-1.28-.37-.09-1.2.74-1.33,1.02h-2.59c.02-.33.14-.79.25-1.1.13-.35,1.02-1.42.08-1.47-1.04-.06-1.5,1.78-1.49,2.58-.55.04-1.17-.12-1.68.13-.17-.85-2.48-2.98-3.3-2.99-.36,0-.7.27-.52.66.17.36,1.62,1.33,2.02,1.88.14.19.08.38.12.45h-2.46c-.27-.55-1.36-1.4-1.94-1.61-.81-.3-3.67-.88-2.71.71-.01,0,.02.15-.18.12-1.85-.35-3.61-.68-5.51-.76v-17.21c.56.18.99.08,1.55,0l.35.63c.87-.05,1.73-.22,2.58-.32,1.52-.19,2.87-.81,4.38-1.34l1.88-.51c-.73.46-1.53.95-2.24,1.45-.59.41-1.12.91-1.64,1.4.55-.07,1.02-.04,1.58-.17,2.27-.52,6.78-3.42,8.12-5.33.28-.4.79-1.15-.13-.97M17.81,60.71c-.31-.31-2.62,1.84-2.99,2.12-2.26,1.69-4.37,2.67-6.63,4.11-.13.08-.67.4-.61.56.36.4.84.35,1.33.29,2.18-.27,7.01-4.23,8.38-5.99.24-.31.55-.69.52-1.1M44.42,67.21c-1.09.09,0,1.1.2,1.43.31.53,1.1,3.14,1.84,2.15.66-.87-1.14-3.66-2.04-3.59"/>
        <path class="cls-10" d="M39.81,37.03c-.02.54,0,.87.39,1.29-.58.29-3.24,2.7-3.88,3.3-2.59,2.4-5.27,7.05-7.01,10.2-.32.59-.67,1.23-.82,1.9,1.79-1.49,3.7-2.8,5.67-4.03,2.01-1.25,3.77-2.83,5.9-3.93,2.81-1.46,5.13-1.78,7.9-2.78-.04,1.24.85.48,1.33.54,1.16.15,1.77,3.04,2.65,2.14.55-.57-.21-1.75-.62-2.23-.3-.35-.78-.54-.9-.97.64,0,1.38.1,1.94-.26.2.24.53.39.75.73.33.51.54,1.93,1.24,1.86,1.28-.12.18-2.31-.32-2.85.35.05.85-.07,1.16,0,1.2.27.41,3.29,1.75,2.47.66-.4.51-1.62.19-2.21.72-.07,1.33.35,1.94.65-.47.48-1,1.45-.52,2.07-4.43,1.67-8.23,5.42-8.93,10.29,0,.09-.03.22.06.19,1.58-.49,3.77-2.68,5.4-2.43,1.35.21,1.35,1.51,1.26,2.62-.1,1.15-.87,1.82,1.04,1.62.17.93,1.93-.43,2.56-.49.54-.05,1.36.43,1.72.17.43-.3-.28-2.23-.53-2.66.75-.17,1.02,1.19,1.29,1.36.37.23.96,0,1.23-.33.27-.34.56-1.52.72-1.68.22-.21.22.04.25.19.1.43.09,1.45.61,1.6.63.18.89-.77,1.26-1.15.2-.2.92-.71,1.18-.76,1.08-.24-.07.78-.14,1.02-.32.99.53,1.15,1.24.52-.28,1.18-1.53,1.66-2.33,2.39-2.37,2.17-4.2,4.7-4.01,8.09,1.77-.88,3.63-1.43,5.62-1.56,1.82-.11,5.19-.34,4.85,2.39-.14,1.11-1.25,1.78-1.93,2.53-.66.18-2.77,1.32-1.62,2.08.48.32.85-.33,1.27-.55.48-.26,1.08-.48,1.61-.26.39.16.55.76,1.07.68-1.01,1.08-2.41,1.48-3.43,2.59-.93,1-1.94,2.43-.58,3.56,1.45,1.21,3.4.22,4.92-.33.57,1.17,1.58-.91,2.68-1.01.89-.08.95.87,1.42.99.43.11.66-.24.68-.63,1.34,0,1.65,1.28,2.46,2.01,1.4,1.26,2.79.89,2.45,3.35-.26,1.9-4.23,4.29-5.82,5.3-1.79,1.14-5.47,3.44-7.56,3.44-1.27,0-2.65-1.01-2.52-2.38.16-1.71,2.25-2.11,3.53-2.69.25-.11.71-.28.86-.5-.23-.04-.4.03-.61.1-1.7.57-3.41,1.18-4.63,2.48-2.41,2.58-2.92,3.24-6.53,4.21-4.79,1.29-8.12.95-12.84-.36-4.09-1.14-7.52-4.36-12.06-3.83-.68.08-1.34.46-1.99.6-.44.1-1.74.43-1.58-.36.09-.04.75-.63,1.08-.8,2.77-1.43,5.77-1.37,8.7-.5,4.6,1.36,8.9,3.89,13.97,3.5,2.14-.17,6.02-1.59,5.5-4.33-.2-1.06-1.32-.85-2.14-.85-2.62,0-5.34-.09-7.82-1.1-1.43-.58-2.67-1.25-4.15-1.81-.2-.08-.46.04-.38-.32.22-.3.39-1.34.4-1.75,0-.46-.23-2-.4-2.39.56-.25.88-.93,1.55-.91.18.44.53.82.62,1.39.08.52-.08,2.46.51,2.6.76.18.96-1.3.93-1.84-.05-.79-.59-2.24-1.15-2.8,1.51-.46,2.59-1.85,4.27-1.81-.39.57-1.37,2.77-.97,3.37.28.42.87-.32,1.03-.53.42-.54,1.16-2.52,1.72-2.68.34-.1.92.11,1.06-.38.21-.77-.83-1.02-1.41-.94,0-1.39.46-2.83,1.01-4.1.14-.33.95-1.49.8-1.72-3-.66-6.81.52-8.86-2.47-.32-.47.04-.77-.77-.63-1.04.17-1.25.6-2.49.15-.65-.24-1.2-.99-1.8-1.06-.45-.05-1.47.24-1.97.35-.77.17-2.23.77-2.82.81-.56.04-1.2-.38-1.72-.53,0-.05.12-.1.12-.11.26.22.51.03.78,0,.02,0,.19.26.33,0,.25-.45-.23-1.07.84-1.3.08.2.67.67.9.51.09-.06.18-.86.14-1.03.73-.41,1.74-1.81.39-2.07.6-.97-.33-.86-1.04-.65l3.23-5.3-9.19,3.23c.13-.89-.03-2.22,0-3.18,0-.51.56-2.9-.64-2.2-.59.35-.5,3.83-.64,4.59-.55.18-.79,1.15-1.04,1.68-.13-.25-.43-.09-.62-.04-1.27.32-2.69.7-3.91,1.14-.21.07-.46-.03-.38.32-.23,0-.41,0-.65-.06-.95-.22-1.42-1.08-1.68.58-.02.09.06.22-.08.27l-4.58,1.86,3.49-5.5c-2.58.22-5.81.75-7.89,2.4-.12.1-.11.3-.13.32-1.86,1.43-3.74,2.41-5.69,3.62l-1.88.51c-1.51.54-2.86,1.15-4.38,1.34-.86.11-1.72.27-2.58.32l-.35-.63c3.41-.47,9.2-4.61,12.23-6.6,3.42-2.25,6.81-5,9.77-7.77-.05.05-.17.52-.07.64.56.28,2.22,2.62,2.85,1.56.36-.61-.37-1.2-.78-1.55s-1.5-1.15-2-.65c.73-.68,1.6-1.52,2.33-2.26.93-.94,1.9-2.42,2.85-3.23,1.53-1.3,4.41-2.91,6.21-4.01,1.24-.76,2.54-1.62,3.87-2.15.32.97,1.3.63,1.42-.52l1.81-.39v.09ZM31.27,43.76c0-.4-.21-.71-.39-1.03l-.97.51c-.5.67-.9,1.43-1.12,2.24-.1.37-.39,1.07.03,1.34.64.39.84-.76,1.01-1.07.35-.63.89-1.63,1.45-1.98,0,.5-.42.83-.37,1.2.07.48.44.58.85.4.13-.06,1.55-2.02,1.32-2.37-.86-.19-1.04.33-1.56.71-.08.06-.21.04-.25.07M28.52,43.92c-.7-.69-1.79.75-1.95,1.41-.14.57-.26,3.03.39,3.2.84-.02.56-1.64.72-2.35.17-.74,1.33-1.78.84-2.26M23.47,48.05c-1.27.35,1.34,2.3,1.63,2.28.55-.04.59-.67.35-1.08-.23-.4-1.52-1.33-1.98-1.2M20.24,52.59c-.49.03-1.41.41-.88.94.25.25.82.15,1.17.25.52.15,1.16,1.11,1.74.59.8-.71-1.34-1.82-2.04-1.78M57.37,75.49c-.94.18-2.83,2.29-3.14,3.21-.17.52-.3,2.35.58,1.88.25-.14.91-1.7,1.24-2.13.23-.31,1.39-1.5,1.7-1.54.38-.05.85.37,1.19-.1.57-.78-.84-1.46-1.57-1.32M77.49,80.99c.4.4,1.16-.15,1.71-.11.53.04,1.85.85,1.62-.44-.23-1.23-3.43-1.49-3.48.13,0,.12.06.33.14.42M57.76,79.76c-.79.17-2.43,1.72-1.39,2.24.7.35.78-.31,1.09-.59.52-.46,2.59-2.13.29-1.65"/>
        <path class="cls-14" d="M57.41,57.22c-.23-1.22,2.09-1.71,2.98-1.68.1-.81-1.18-.9-1.29-1.49-.28-1.42,1.77-1.37,2.68-.99.6.25.77.64,1.2,1.06.14-1.45,2.77-3.12,2.85-.78.63-.54,1.5-1,2.36-.75.46.13.44.7.49.74.15.13,2.73-.61.12,1.69-.71.63-1.56.47-1.24-.52.08-.24,1.22-1.26.15-1.02-.26.06-.98.56-1.18.76-.38.38-.64,1.33-1.26,1.15-.52-.15-.51-1.17-.61-1.6-.04-.15-.04-.41-.25-.19-.16.15-.45,1.33-.72,1.68-.27.33-.85.56-1.23.33-.27-.17-.54-1.52-1.29-1.36.25.43.96,2.36.53,2.66-.36.25-1.17-.23-1.72-.18-.63.06-2.39,1.42-2.56.49"/>
        <path class="cls-14" d="M8.11,82.7c.35.7.5,2.1-.02,2.77-.71.91-1.12-1.61-1.31-2.02-.29-.61-.68-.92-1.32-1.14-.5-.17-1.48-.41-2.01-.51-.95-1.59,1.9-1.01,2.71-.71.58.22,1.67,1.06,1.94,1.61"/>
        <path class="cls-14" d="M78.49,68.08c-.99-.09-1.15-1.12-2.39-1.05-1.06.06-1.34,2.03-2.39,2.08-.72-2.48,2.18-4.69,4.21-2.72.53.51.67.94.58,1.69"/>
        <path class="cls-14" d="M79.01,75.98c-.02.39-.25.74-.68.63-.48-.12-.53-1.07-1.42-.99-1.11.09-2.12,2.17-2.68,1.01-.59-1.21,1.39-2.36,2.41-2.45,1.09-.09,2.45.55,2.38,1.8"/>
        <path class="cls-14" d="M84.15,65.79c.99-.15,2.15-.06,3.06.37.48.23,2.03,1.3,1.58,1.93-.38.54-1.22-.4-1.54-.55-1.31-.65-4.03-.06-4.37-.29-.76-.53.71-1.38,1.27-1.47"/>
        <path class="cls-14" d="M12.25,82.7c.09.44.02,1.76-.58,1.81-.64.05-.64-1.02-.84-1.49-.08-.21-.24-.26-.27-.31-.04-.07.01-.26-.12-.45-.39-.55-1.85-1.51-2.02-1.88-.18-.38.16-.66.52-.66.82,0,3.13,2.13,3.3,2.99"/>
        <path class="cls-14" d="M50.42,42.47c.13.43.6.62.9.98.41.48,1.17,1.66.62,2.23-.88.89-1.49-2-2.65-2.14-.48-.06-1.36.7-1.33-.54.36-.13.63-.54,1.13-.62.46-.07.85.1,1.33.1"/>
        <path class="cls-14" d="M73.32,70.8c-.52.08-.68-.52-1.07-.68-.53-.22-1.13,0-1.61.26-.42.22-.8.87-1.27.55-1.15-.76.96-1.9,1.62-2.08.95-.26,2.56.3,2.72,1.37.1.63-.29.47-.39.57"/>
        <path class="cls-14" d="M15.1,82.58c-.04.64.35,1.64.27,1.98-.03.12-.36.21-.47.21-.32-.02-.7-.74-.78-1.02-.05-.18-.19-1.01-.19-1.17-.01-.8.46-2.64,1.49-2.58.94.05.05,1.13-.08,1.48-.12.31-.23.77-.25,1.1"/>
        <path class="cls-14" d="M54.04,41.95c.5.54,1.6,2.73.32,2.85-.7.07-.91-1.36-1.24-1.86-.23-.34-.56-.5-.76-.73-.38-.45-.29-1.02.33-1.03.43,0,1.07.47,1.35.77"/>
        <path class="cls-14" d="M41.23,36.64c-.12.36-.17.53-.26.91-.27,1.07-.29.53-.78.78-.38-.42-.4-.75-.39-1.29.03-.88.7-2.96,1.86-2.57.68.23-.15,1.22-.27,1.51-.11.26-.1.48-.16.68"/>
        <path class="cls-14" d="M57.15,42.21c.32.59.47,1.81-.19,2.21-1.34.82-.55-2.19-1.76-2.47-.11-1.56,1.51-.54,1.94.26"/>
        <path class="cls-14" d="M38,37.42c-.13,1.15-1.1,1.49-1.42.52-.26-.79-.21-3.07,1.07-2.7.5.14.4,1.7.35,2.18"/>
        <path class="cls-14" d="M60.38,43.63c-.1.09-.34.12-.58.39-.2.21-.39.49-.45.78-.29.09-.66.08-.78.13-.49-.62.05-1.59.52-2.07.4-.41,1.22-.98,1.81-.71.9.41-.12,1.13-.51,1.48"/>
        <path class="cls-14" d="M88.85,62.65c-.44.93-2.87,1.36-3.18.39-.32-1,.95-.73,1.63-.91.58-.15,2.28-1,1.55.52"/>
        <path class="cls-14" d="M18.98,82.83c-.19.43-.41.85-.58,1.3-.19.52-.08,1.43-.89,1.14-.2-.07-.31-.49-.32-.69,0-.22.39-1.8.49-2.01.13-.28.96-1.11,1.33-1.02.71.18.1.96-.04,1.28"/>
        <path class="cls-14" d="M42.4,36.51c.26-.79.92-2.38,2.01-1.95,1.12.44-.28,1.18-.64,1.7-.22.31-.49,1.24-.72,1.35-.64.32-.82-.13-.78-.71.15-.11.09-.28.13-.39"/>
        <path class="cls-14" d="M75.1,59.44c.54-.11,1.21.02,1.4.61.24.76-.82.53-1.24.72-.42.18-.83,1.25-1.57.91-.56-.94.53-2.07,1.4-2.25"/>
        <path class="cls-14" d="M46.12,36.15c.3-.06.73.17.79.45.02.11-1.22,1.79-1.33,1.87-.19.14-.53.2-.73.06-.59-.42.6-2.25,1.27-2.38"/>
        <path class="cls-10" d="M42.4,36.51c-.04.11.02.28-.13.39l-1.29.65c.09-.37.14-.54.26-.91l1.17-.13h0Z"/>
        <path class="cls-10" d="M60.38,43.63c.15,1.03-.32.93-1.04,1.17.06-.29.26-.57.45-.78.25-.26.48-.3.58-.39"/>
        <path class="cls-14" d="M91.3,47.77c-.21.29-2.52,1.75-2.85,1.42-.12-.67.45-1.25.91-1.68.28-.27,1.12-.93,1.48-.9.62.04.79.71.46,1.16"/>
        <path class="cls-14" d="M1.64,48.68c-.54.09-1.2.87-1.45,1.34-.22.43-.36,1.64-1.1,1.29-.54-.25-.6-1.23-.42-1.72.06-.16.74-1.09.9-1.23.68-.63,2.24-1.09,2.08.33"/>
        <path class="cls-14" d="M4.1,48.94c-.25.41-.67.67-.96,1.04-.31.4-.33,1.14-1.04,1.03-.93-.14-.25-1.75.19-2.21.37-.38,1.27-.84,1.69-.33.13.16.09.43.12.46"/>
        <path class="cls-14" d="M9.66,51.01c-.12-.04-.36.04-.55-.03-.46-.15-.46-.92-.22-1.27.5-.74,1.87-.7,1.53.43-.09.29-.63.54-.75.87"/>
        <path class="cls-14" d="M7.2,49.45c.06.86-1.81,1.55-1.42-.13.1-.45,1.37-.66,1.42.13"/>
        <path class="cls-2" d="M31.66,55.79c.18.35.32,2.57.88,1.71.03-.04.28-.52.29-.55.56.02.48.71.65,1.07.07.14.25.08.26.09.07.11.11.69.33,1.03.92,1.43,2.56,1.35,4.07,1.3h.13c.07.34.15,1.15.26,1.42-1.07.23-.59.85-.84,1.3-.14.25-.31,0-.33,0,.4-.55-.15-.73-.29-1.07-.17-.4.04-1.34-.74-.94-.4.2-.3,1.26-.13,1.62-.48-.09-1.41.12-1.81,0,0,0-.07-.19-.22-.24-1.15-.36-.67,1.37-.28,1.96.75,1.13,4.14,2.74,5.49,2.92.44.06.9-.01,1.35.01.48.03.94-.05,1.36,0,.76.08,1.23.77.82,1.48-.49.85-3.05.96-4,1.24-.04-.38.1-2.03-.15-2.18-.93-.57-.8,1.35-.76,1.79-.57.03-1.13-.19-1.68-.26.27-.53.81-1.75.4-2.28-.24-.3-.66-.26-.82.11-.05.1-.34,1.33-.35,1.47-.04.49.22.56.26.7.09.36-.25.58-.26.65-.39-.07-.72-.67-.89-.99-.56-1.06-1.11-3.78-1.64-4.45-.5-.64-.98-.11-.98.58,0,.83,1.09,3.65,1.58,4.38.46.67,1.06,1.15,1.92.99-.14,1.08-.18,1.73.52,2.65.13.17,1.02,1.01,1.17,1.1-.06,1.42,1.83,2.42,3.05,2.58.3.04,1.51-.02,1.74-.12,1.14.99.66,2.41-.26,3.36-.46-.31-.72-.51-1.16-.85-1.01-.77-.64,1.09-.14,1.49l-1.42.13c-.05-.28-.62-1.2-.78-1.61-.15-.4-.41-1.05-.48-1.46-.05-.27.03-2.09-.66-1.12-.54.75-.24,2.84.12,3.67h-2.46c-.08-.79-.3-1.91-.42-2.75-.22-1.5-.98-1-1.12.24-.06.58,0,1.94.11,2.51h-.78c.11-1.47.25-5.17-.13-6.47.72.62,1.4,1.04,2.38.66.48-.34-.94-1.01-1.15-1.18-.69-.57-.96-1.27-1.29-2.07-.32-.75-.77-3.01-1.23-.77-.24,1.14-.3,5.28-.13,6.47-1.11-.3-.77,1.14-.59,1.82.09.34.43.82.46,1.03.03.23-.12.4-.13.52l-1.42.13c.07-.26.06-2.85,0-3.17-.1-.5-.67-.67-.93-.17-.24.48-.48,2.99-.23,3.46-.78.26-1.46.91-2.33.91.19-.66.56-2.28.53-2.91-.03-.55-.51-.82-.84-.32-.25.37-.94,3.19-.85,3.61-.83.27-1.67-.38-2.33-.39.1-.44,1.17-1.78.66-2.14-.69-.49-1.09.82-1.32,1.29-.06.12-.23.2-.24.21-.69-.39-1.51-1.15-1.78-1.91-.07-.18,0-.45-.03-.55,2.68.94,7.77-1.18,9.16-3.58.29-.5.27-.87.41-1.2.02-.04.58-.47.71-.64.35-.47,1.03-1.55.97-2.13,0-.07-1.05-.43-.91-.98-.18.07-.34.18-.52.26.04-.56.73-2.83-.31-2.6-.26.06-.65,2.35-.33,2.73-.51.1-1.02.28-1.55.26.15-.56.71-1.92.74-2.29.05-.58-.59-.78-1.02-.13-.25.38-.96,2-1.01,2.42l-1.42-.13c.04-.09.03-.3.1-.48.12-.29,1.2-1.84.59-1.99-.73-.18-1.88,1.51-2.11,2.08-.31-.05-.65-.15-.65-.52.1-.14.4-.69.4-.84,0-.51-.38-.41-.4-.45-.05-.07.03-.5,0-.65,2.11.49,6.6-1.56,7.96-3.23.46-.57.41-.59.45-1.3.03-.51-.02-1.04,0-1.55-.43.27-.88.63-1.42.65.09-.28.32-1.32-.17-1.28-.38.03-.64.73-.92,1.03-.13.14-.81.6-.85.64-.36-.05-.9.14-1.17-.13,1.51-1.37-.39-1.25-1.42-.78-.18-.2-.06-.57-.16-.75-.06-.11-.95-.4-.49-.81,1.09.35,5.35,0,5.8-1.26.05-.15,0-.35.03-.42.14-.35.34-.66.52-1.04.24-.53.49-1.5,1.04-1.68"/>
        <path class="cls-16" d="M32.43,74.04c.38,1.3.24,5,.13,6.47-.07.96-.31,1.93-.26,2.91,0,.11-.11.31-.2.32-.09.02-1.58-.64-1.6-.72.16-.83.19-1.67.24-2.51,0-.11.16-.29.13-.52,1.36.28.52-1.56.35-2.36-.04-.18-.21-.37-.22-.49-.17-1.19-.11-5.33.13-6.47.09.45.11.92.25,1.37.22.68.88,1.45,1.04,2"/>
        <path class="cls-14" d="M29.2,73.78c-.15.33-.12.7-.41,1.2-1.39,2.41-6.48,4.53-9.16,3.58-.1-.27-.93-1.19-.17-1.41.29-.08.72.38,1.14.38,2.27.03,5.35-1.49,7.12-2.85.42-.32.89-1.22,1.49-.9"/>
        <path class="cls-14" d="M14.19,58.77c.91-.18.41.57.13.97-1.34,1.91-5.86,4.81-8.12,5.33-.56.13-1.03.1-1.58.17.52-.49,1.05-.98,1.64-1.4.71-.5,1.51-.99,2.24-1.45,1.95-1.21,3.83-2.19,5.69-3.62"/>
        <path class="cls-14" d="M17.81,60.71c.03.41-.28.79-.52,1.1-1.36,1.76-6.2,5.71-8.38,5.99-.49.06-.97.11-1.32-.29-.07-.15.47-.47.6-.56,2.26-1.44,4.37-2.42,6.63-4.11.37-.28,2.68-2.43,2.99-2.12"/>
        <path class="cls-14" d="M30.88,63.17c-.05.7,0,.72-.45,1.3-1.35,1.67-5.84,3.73-7.96,3.23-.27-.06-1.36-.97-1.03-1.29,2.32.38,5.07-.6,7.03-1.84.8-.5,1.49-1.41,2.42-1.4"/>
        <path class="cls-14" d="M34.37,62.78c.33,1.4,1.99,2.11,3.19,2.7.8.39,2.29.82,2.94,1.33.25.19.23.35.21.63-.44-.02-.91.04-1.35-.01-1.35-.18-4.74-1.79-5.49-2.92-.39-.58-.87-2.31.28-1.96.15.05.2.23.22.23"/>
        <path class="cls-14" d="M25.71,58.9c.77.05,1.87-.04,2.64-.14.61-.08,1.16-.51,1.76-.24-.03.07.03.27-.03.42-.45,1.25-4.71,1.61-5.8,1.26-.33-.1-.65-.56-.91-.78.26-1.66.73-.79,1.68-.57.24.05.42.04.65.06"/>
        <path class="cls-14" d="M35.54,70.15c-.03.15.02.35,0,.52-.86.16-1.46-.32-1.92-.99-.49-.73-1.59-3.55-1.59-4.38,0-.69.48-1.22.98-.58.52.67,1.08,3.39,1.64,4.45.17.32.5.92.89.99"/>
        <path class="cls-14" d="M46.93,77.01c.16.39.4,1.93.4,2.39,0,.4-.17,1.44-.4,1.75-.05.06-.36.27-.45.26-.77-1-.31-2.26-.65-3.5-.17-.62-1.13-1.97-1.11-2.26.1-.99,1.14-.09,1.42.26.1.12.75,1.03.78,1.1"/>
        <path class="cls-14" d="M53.65,73.65c.25-.36.99-1.11,1.42-1.16.57-.08,1.61.17,1.4.94-.13.49-.72.28-1.05.38-.56.16-1.3,2.14-1.72,2.68-.16.21-.75.95-1.03.53-.4-.59.58-2.8.97-3.37"/>
        <path class="cls-14" d="M49.38,75.46c.56.56,1.1,2.01,1.15,2.8.03.54-.17,2.02-.93,1.84-.59-.14-.43-2.08-.51-2.6-.09-.57-.43-.95-.62-1.39-.53-1.28.04-1.52.91-.65"/>
        <path class="cls-14" d="M39.03,81.02c.08.49-.31.89-.81.76-.28-.07-.88-1-1-1.27-.35-.83-.65-2.92-.12-3.67.7-.97.61.85.66,1.12.08.4.33,1.05.48,1.46.16.41.73,1.33.78,1.61"/>
        <path class="cls-14" d="M37.22,74.42s.34-.04.5.07c.64.42,1.6,1.35,2.41,1.35h2.07s.33.15.33.2c-.06.11-.48.82-.52.83-.23.1-1.44.15-1.74.12-1.22-.15-3.11-1.16-3.05-2.58"/>
        <path class="cls-14" d="M23.12,70.15c.24-.57,1.38-2.26,2.12-2.08.61.15-.47,1.7-.59,1.99-.07.18-.06.38-.1.47-.03.07-.17.18-.23.34-.16.4-.3,1.83-.98,1.7-.87-.16-.43-1.91-.21-2.44"/>
        <path class="cls-14" d="M33.34,80.51c-.11-.57-.17-1.93-.11-2.51.13-1.25.89-1.74,1.12-.24.12.84.34,1.96.42,2.75.22,2.17-1.12,1.52-1.42,0"/>
        <path class="cls-14" d="M44.42,67.21c.9-.08,2.7,2.71,2.04,3.59-.74.98-1.53-1.62-1.84-2.15-.19-.33-1.29-1.34-.2-1.43"/>
        <path class="cls-14" d="M29.33,80.63c-.13.52-.84.71-1.16.13-.26-.47-.02-2.98.23-3.46.26-.51.84-.34.93.17.06.31.07,2.91,0,3.17"/>
        <path class="cls-14" d="M25.96,70.67c.05-.41.76-2.04,1.01-2.42.43-.65,1.07-.45,1.02.13-.03.37-.58,1.73-.74,2.29-.15.55-.08,1.39-.84,1.3-.51-.06-.5-.93-.45-1.3"/>
        <path class="cls-14" d="M25.84,81.67c-.08.27-.08.66-.48.76-.23.06-.64-.16-.68-.37-.09-.42.6-3.24.85-3.61.34-.5.82-.23.85.31.03.63-.33,2.25-.53,2.91"/>
        <path class="cls-14" d="M29.46,62.26c-.12.37-1.05,1.71-1.39,1.79-.73.19-.97-.85-.56-1.41.03-.04.71-.5.85-.64.29-.3.55-1,.92-1.03.49-.04.26,1,.17,1.28"/>
        <path class="cls-14" d="M24.93,61.74c1.03-.47,2.93-.6,1.42.78-.13.12-1.27.81-1.42.85-1,.31-1.33-1.02,0-1.63"/>
        <path class="cls-14" d="M22.47,68.34s.41-.06.4.45c0,.15-.3.7-.4.84-.05.07-.27.17-.39.32-.31.42-.7,1.55-1.43,1.04-.83-.58,1.23-2.47,1.82-2.66"/>
        <path class="cls-14" d="M41.75,80.25c1.26.86-.6,1.21-1.29.65-.5-.4-.87-2.26.14-1.49.44.33.7.53,1.16.85"/>
        <path class="cls-14" d="M36.32,69.51c-.17-.02-.35.01-.52,0-.03-.14-.3-.21-.26-.7,0-.14.3-1.37.35-1.47.17-.37.59-.41.82-.11.41.53-.13,1.74-.4,2.28"/>
        <path class="cls-14" d="M22.34,81.67c-.18,0-.41.22-.65.07-.15-.09-.32-.56-.26-.72,0-.02.18-.09.24-.21.23-.46.63-1.77,1.32-1.29.52.36-.56,1.7-.65,2.14"/>
        <path class="cls-14" d="M29.46,70.28c-.54.26-.44.09-.65.13-.31-.37.08-2.67.33-2.73,1.04-.23.35,2.04.31,2.6"/>
        <path class="cls-14" d="M37.35,63.17c-.26.03-.51.22-.78,0-.03-.11-.3-.2-.39-.39-.18-.36-.27-1.42.13-1.62.79-.39.57.54.74.94.15.34.69.51.29,1.07"/>
        <path class="cls-14" d="M38,69.77c-.05-.44-.18-2.36.76-1.79.25.15.11,1.8.15,2.18-.11.04-.17.31-.52.21-.37-.1-.35-.29-.38-.6"/>
        <path class="cls-7" d="M32.95,56.57l9.18-3.23-3.23,5.3c-.08.02-.28.23-.54.3-1.09.28-2.02.58-3.05-.14-.58-.4-.81-1.65-1.59-.68,0,0-.19.04-.25-.09-.17-.36-.09-1.05-.65-1.07.03-.07.13-.37.13-.39"/>
        <path class="cls-14" d="M57.37,75.49c.74-.14,2.15.54,1.58,1.32-.34.47-.81.04-1.19.1-.31.05-1.46,1.23-1.7,1.54-.33.43-.99,1.99-1.24,2.13-.88.47-.76-1.36-.58-1.88.3-.91,2.19-3.02,3.14-3.21"/>
        <path class="cls-14" d="M38.9,58.64c.7-.21,1.63-.32,1.03.65-.31.51-1.46.66-1.81,1.16-1.51.05-3.15.14-4.07-1.3-.22-.34-.26-.92-.33-1.03.78-.97,1.01.28,1.58.68,1.02.71,1.96.42,3.05.14.26-.07.46-.27.54-.3"/>
        <path class="cls-14" d="M31.66,55.79c.15-.77.05-4.25.64-4.59,1.2-.71.66,1.69.64,2.2-.02.96.14,2.29,0,3.17,0,.02-.1.31-.13.39,0,.03-.26.51-.29.55-.55.85-.7-1.36-.88-1.71"/>
        <path class="cls-14" d="M28.52,43.92c.49.48-.68,1.52-.84,2.26-.16.71.12,2.33-.72,2.35-.65-.16-.53-2.63-.39-3.2.16-.67,1.25-2.11,1.95-1.42"/>
        <path class="cls-14" d="M31.27,43.76c-.55.36-1.1,1.35-1.45,1.98-.17.31-.37,1.46-1.01,1.07-.43-.26-.14-.97-.03-1.33.23-.81.63-1.57,1.12-2.24l.98-.51c.18.33.39.63.39,1.03"/>
        <path class="cls-14" d="M77.49,80.99c-.09-.09-.15-.29-.14-.42.04-1.61,3.25-1.36,3.47-.13.24,1.29-1.09.48-1.62.44-.55-.04-1.31.5-1.71.11"/>
        <path class="cls-14" d="M21.31,49.58c.5-.5,1.59.31,2,.65.41.35,1.14.94.78,1.55-.63,1.06-2.29-1.28-2.85-1.56-.09-.12.02-.59.07-.64"/>
        <path class="cls-14" d="M57.76,79.76c2.3-.48.22,1.19-.29,1.65-.31.28-.39.94-1.09.59-1.04-.52.6-2.07,1.39-2.24"/>
        <path class="cls-14" d="M20.24,52.59c.69-.04,2.84,1.08,2.04,1.78-.58.52-1.22-.44-1.74-.59-.35-.1-.92,0-1.17-.25-.54-.53.39-.92.88-.94"/>
        <path class="cls-7" d="M30.62,57.47c-.17.38-.38.68-.52,1.04-.6-.26-1.15.16-1.76.25-.77.1-1.87.2-2.64.14-.07-.35.18-.25.38-.32,1.23-.44,2.65-.82,3.91-1.14.19-.05.49-.21.62.04"/>
        <path class="cls-14" d="M23.47,48.05c.46-.13,1.75.8,1.98,1.2.24.41.2,1.03-.35,1.08-.29.02-2.9-1.93-1.63-2.28"/>
        <path class="cls-14" d="M31.27,43.76s.17,0,.25-.07c.52-.38.7-.89,1.56-.71.23.35-1.2,2.32-1.32,2.37-.41.18-.79.08-.85-.4-.05-.37.36-.7.37-1.2"/>
        <path class="cls-6" d="M39.55,61.36s-.47-.95-.52-.98c-.28-.17-.55.06-.78.07h-.13c.35-.5,1.5-.65,1.81-1.16,1.35.26.35,1.66-.39,2.07"/>
        <path class="cls-14" d="M39.55,61.36c.04.17-.05.97-.14,1.03-.23.15-.82-.32-.9-.51-.11-.27-.19-1.08-.26-1.42.23,0,.5-.24.78-.07.05.03.5.92.52.98"/>
        <path class="cls-14" d="M31.14,70.67c.46-2.24.91.02,1.23.77.34.8.61,1.5,1.29,2.07.21.17,1.63.83,1.15,1.18-.98.38-1.67-.03-2.38-.66-.16-.54-.82-1.32-1.04-2-.14-.44-.16-.92-.25-1.37"/>
        <path class="cls-14" d="M31.01,77.14c.02.11.18.3.22.49.17.8,1.01,2.64-.35,2.36-.03-.21-.37-.69-.46-1.03-.18-.68-.52-2.11.59-1.82"/>
        <path class="cls-15" d="M84.83-.36h.13c.15.22.13.46.13.7.34,9.65-.07,19.72-.13,29.31-2.35-1.74-2.24,2.59-2.06,3.93.06.47.52,1.7,1.1,1.25l.96-1.43c-.35,3.51.46,7.93,0,11.33-.06.44-.39.49-.4.89-.01.48.49,1.27.38,1.66-.15.54-1,.21-1.47.21-.35,0-1.01.24-1.23.08-.39-.27.17-1.22.24-1.59.35-2.04.2-4.39.39-6.46.02-.19-.22-.45-.24-.75-.17-2.91.02-6.12.01-9.07-.05-9.62-.5-19.64-.14-29.24.01-.29.04-.56.14-.83h.13c.52.22,1.52.22,2.07,0M83.63,16.23c-1.18.36-.57,2.88.63,2.18,1.05-.61.63-2.56-.63-2.18"/>
        <path class="cls-16" d="M84.96,29.66v2.98c-.2.02-.2.37,0,.39v.39l-.96,1.43c-.58.45-1.03-.78-1.1-1.25-.18-1.34-.29-5.68,2.06-3.94"/>
        <path class="cls-10" d="M85.87,45.31c.41-.07.23.21.26.45.09.68-.02.92.78,1.23-.15.15-.27.86-.71.39-.42-.44-.3-1.5-.32-2.07"/>
        <path class="cls-15" d="M84.96,33.02c-.2-.02-.2-.37,0-.39v.39"/>
        <path class="cls-16" d="M83.63,16.23c1.25-.38,1.67,1.57.63,2.18-1.19.7-1.81-1.82-.63-2.18"/>
      </g>
    </g>
  </g>
</svg>