<?xml version="1.0" encoding="UTF-8"?>
<svg id="Layer_1" data-name="Layer 1" xmlns="http://www.w3.org/2000/svg" xmlns:xlink="http://www.w3.org/1999/xlink" viewBox="0 0 90 90">
  <defs>
    <style>
      .cls-1 {
        fill: #7ed2f6;
      }

      .cls-2 {
        fill: #ccc4bb;
      }

      .cls-3 {
        fill: #a8796b;
      }

      .cls-4 {
        fill: #abe0f9;
      }

      .cls-5 {
        fill: #c1ca71;
      }

      .cls-6 {
        fill: #bfbebe;
      }

      .cls-7 {
        fill: #b6c370;
      }

      .cls-8 {
        fill: #b7c470;
      }

      .cls-9 {
        fill: #98a951;
      }

      .cls-10 {
        fill: none;
      }

      .cls-11 {
        fill: #d5d781;
      }

      .cls-12 {
        clip-path: url(#clippath-1);
      }

      .cls-13 {
        fill: #5f8460;
      }

      .cls-14 {
        fill: #849a52;
      }

      .cls-15 {
        fill: #663925;
      }

      .cls-16 {
        fill: #d3eefb;
      }

      .cls-17 {
        fill: #6cafc4;
      }

      .cls-18 {
        clip-path: url(#clippath);
      }
    </style>
    <clipPath id="clippath">
      <rect class="cls-10" x="0" width="90" height="90"/>
    </clipPath>
    <clipPath id="clippath-1">
      <rect class="cls-10" x="-2.18" y="-.35" width="94.35" height="90.71"/>
    </clipPath>
  </defs>
  <g class="cls-18">
    <g class="cls-12">
      <g>
        <path class="cls-16" d="M44.75,66.34l-.47.42-.2,1.04.72,1.7v.12c.17,0,.33.04.49.11.27.1.59.23.92.36-.17-.58-.41-1.17-.77-1.78-.42-.62-.63-1.29-.69-1.98"/>
        <path class="cls-17" d="M92.37,89.32l-2.15.39h-2.6c-.35,0-1.57-.37-1.99-.49-1.17-.35-3.74-1.61-4.69-1.71-.54-.05-1.78.33-2.45.37-1.5.1-4.15.03-5.5-.63-.97-.48-1.99-1.35-2.51-2.27-.04-.09-.21-.09-.23-.13-.36-.72-.22-3.1-.59-4.03-.03-.09-.77-1.11-.84-1.13-.36-.14-.63.15-.92.21-1.9.39-4.97.53-6.83,0-.52-.14-.9-.49-1.33-.64-.26-.1-.45.03-.73-.16-.98-.68-1.02-2.53-1.11-3.59-.22-.13-.45-.27-.68-.41-1.14,1.52-1.43,2.96-1.19,4.28.65.18,1.25.35,1.57.47,1.51.58,5.32,2.46,5.98,3.92.24.52.18,1.26.63,1.59.39.28,1.64.47,2.26.74,1.34.58,2.36,1.65,3.64,2.35.78.42,1.85.86,2.69,1.15,0,.24.12.41-.18.39-1.8-.13-2.77-.86-4.2-1.81-.6-.39-1.2-.98-1.83-1.3-.97-.5-2.37-.49-3.01-1.41-.3-.42-.37-.96-.58-1.38-.81-1.58-3.81-2.88-5.45-3.41-.35-.11-.79-.22-1.26-.33,1.09,2.85,4.47,5.11,6.54,6.49,5.09,3.56,10.42,6.16,15.99,7.59h13.54v-5.11Z"/>
        <path class="cls-16" d="M56.31,80.32c-2.19-.52-5.12-1.2-3.71-3.87.46-.86,1.5-1.38.93-2.51.59.09.82.71.79,1.24-.03.91-1.96,2.27-.91,3.24.29.28,1.53.63,2.63.94-.24-1.32.05-2.76,1.19-4.28-1.8-1.12-3.65-2.57-3.82-4.8-1.46.16-2.6-.27-3.71-1.17-2.5-2.05-1.23-3.6-.33-6.12l-2.86,1.77-1.76,1.58c.06.69.28,1.35.7,1.98.36.61.6,1.2.77,1.78,1.35.56,3.07,1.36,4.11,1.9,2.26,1.19.74,2.09-.43,3.32-.66.68-1.71,1.41-1.83,2.47-.16,1.34.59,1.75,1.64,2.26,2,.97,4.25,1.64,6.26,2.6,1.28.62,2.68,1.27,2.67,2.96,0,.55-.33.84.11,1.44,1.22,1.01,2.74,1.82,3.91,2.86.37.33.88.73.78,1.24v3.26h15.39c-5.57-1.43-10.9-4.03-15.99-7.59-2.07-1.38-5.45-3.64-6.53-6.49"/>
        <path class="cls-15" d="M92.37,88.93v.39l-2.15.39h-2.6c-.35,0-1.57-.37-1.99-.49-1.17-.35-3.74-1.61-4.69-1.71-.54-.05-1.78.33-2.45.37-1.5.1-4.15.03-5.5-.63-.97-.48-1.99-1.35-2.51-2.27-.04-.09-.21-.09-.23-.13-.36-.72-.22-3.1-.59-4.04-.03-.09-.77-1.11-.84-1.13-.36-.14-.63.15-.92.21-1.9.39-4.97.53-6.83,0-.52-.14-.9-.49-1.33-.64-.26-.1-.45.03-.73-.16-.98-.67-1.02-2.53-1.11-3.59-1.98-1.17-4.31-2.7-4.5-5.21-1.46.16-2.6-.27-3.71-1.17-2.5-2.06-1.23-3.6-.33-6.12l-2.86,1.77-2.23,2c.07-.37.16-.71.29-1.02.55-1.36,1.73-2.23,3.06-2.99.65-.37,2.15-.8,2.52-1.12.95-.79,2.11-3.36,3.12-4.4,1.71-1.77,4.55.24,6.46.77.75-.53,1.02-1.9,1.96-2.17.26-.08.15.07.18.18.18.58.08.94,0,1.51l1.71-1.36c.51-.71-.74-2.51,0-2.88.5-.26,1.7.95,2.22,1.11v-2.41s.15-.75.18-.85c.04-.15.14-.28.27-.39l1.49,1.31c.46-1.61-.4-4.73-1.9-5.58-.55-.32-1.33.32-1.94.5-1.37.42-3.38.3-4.83.13-1.19-.15-2.31-.4-2.77-1.66-.2-.51.28-2.14.58-2.63.39-.67,1.41-1.14,2-1.63l-3.9-3.39c-3.57-3.1-4.36-7.06-1.24-10.89.5-.62,1.17-1.03,1.76-1.56-3.54.47-7.14,1.33-10.08,3.4-2.37,1.69-4.16,4.03-4.63,6.97-.07.42-.23,1.57-.13,1.92.03.08.15.26.25.15.55-.35,1.15-.54,1.82-.47.12.11-.27.85-.36,1-.11.18-.93,1.12-.81,1.22.78,0,1.71-.41,2.41.13l-.73,1.17c.62,0,1.95.35,1.96,1.11,0,.27-.29.43-.26.71.15.15,3.13-1.01,2.68.52l-1.02.77-.09.27c.81.27,1.66.55,2.22,1.24l-.77.67c-.12.46.79,1.12.38,1.64l-1.17.62c.04.65,1.3,1.58.98,2.21-.21.41-.88.21-1.28.29-.25.05-.54.37-.85.78l-.15-.23c-.2-.22-.97.16-.91-.26.12-.88,1.66-1.24,1.69-1.42-.7-1.32-.62-1.59.52-2.48-.63-.7-1.27-1.33-.25-2.02-.46-.11-1.55-.35-1.76-.78-.2-.37.52-.51.46-.91l-1.83.13.52-1.69c-.83-.17-1.99-.07-2.61-.72-.16-.17-.13-.1,0-.26.21-.25.52-.42.66-.72-.62.02-1.22.43-1.82.11-.24-.35.41-1.23.64-1.54.04-.07.27-.11.26-.26-.25-.08-.23.11-.26.13-.27.14-1.53.88-1.7.65-.48-3.18.02-6.1,1.9-8.72.49-.67,1.68-1.74,1.99-2.3.25-.47.15-.99.73-1.36.47-.32.64.21,1.01.12l1.79-1.03-.27-.2c0-.33.18-.55.4-.78.65-.7,1.25-.47.65.34-.07.08-.32.17-.39.33l.07.05c.11-.07.22-.18.33-.25.15-.1.49-.33.62-.36.82-.23,1.25-.07,2.11-.63.33-.22.47-.68.97-.59.12.02.11.27.21.34.22.14,1.89-.15,2.23-.26.6-.2,1.14-1.34,1.88-1.5.78-.16-.03.92-.07,1.17.13.13,1.02-.59,1.24-.65.38-.11.11.55.2.65.74-.07,1.72-.16,2.34-.6.32-.22.93-.98,1.27-1.08.27-.09.59.15.98.09.3-.05,1.34-.52,1.66-.68.13-.07.29-.03.26-.21-4.32-1.85-8.99-2.64-13.68-2.6v-.53l-3.64-.11c-.14.89-.67,1.77-1.32,2.39l.91.33c0,.15.03.27-.05.4-.26.37-3.75-.17-4.43-.03-.57-.34.12-.66.32-1.02-.55-.11-1.64.57-2.02.53-.48-.04-.28-.48-.26-.78l-1.82,1.02-11.85-.23-.2.28c.64,1-.07,2-.4,2.96h1.04c-.02.11.03.32-.01.38-.08.11-2.14.71-2.56.9-.62.27-1.19.65-1.81.93-.38.04-.27-.58-.26-.78-.9.59-1.84.47-2.85.64-.42-.34-.3-.83-.21-1.29-.66-.26-2.21.63-2.66.51-.08-.02-.25-.18-.2-.29l.25-.74c-.39.12-1.89,1.36-2.22,1.04l.13-.65c.11-.03.27.03.43-.02.16-.07.2-.23.22-.24.34-.2,2.11-1.27,2.35-1.04l-.39,1.04,2.26-.39.8-1.04.33.33c.03.39-1,1.79-.32,2.01.73.09,2.31-1.12,2.93-.72l.05.47,1.8-.77c.16-.41.85-2.34.48-2.57-.33-.11-.72.08-.78-.38-.1-.65.28-.7.54-1.14.58-.98.52-2.82-.87-2.84-.63-.01-1.15.8-1.64.47-.38-.26.36-1.46-.3-2.03-.92-.79-2,.28-2.62.28-.29,0-.46-.27-.77-.28-.54-.03-1.1.47-1.6.11-.42-.4.5-1.03.73-1.36.43-.64.82-2.02-.23-2.19-.3-.05-.83.26-.9-.42-.02-.22.4-.82.47-1.18.21-1.25.17-1.87-1.21-1.73-.71.07-1.04.64-1.74.5-.33-.56.18-.99.11-1.6-.18-1.45-1.77-.76-2.6-.26-.59.37-1.35,1.44-1.97.88v-2.08c-.38-.28-1.23.7-1.49.99-.41.45-.9,1.52-1.57,1.43-.53-.12-.28-.96-.36-1.47-.04-.34-.2-.76-.38-1.05-.2-.32-1.98-1.95-2.19-1.65-.14.6-.15,1.15-.14,1.76.01.23.32.87-.07.98-.43.12-.73-.7-.98-.98-.48-.55-1.28-1.27-2.02-.72-.11,2.65-1.09.37-2.4.39v-1.04l1.49.4c.83-1.46,2.3-.97,3.33-.01-.11-2.76,1.56-1.87,2.94-.64.59.52,1.16,1.13,1.24,1.95.14.17.96-.78,1.11-.91,1.24-.96,2.7-.69,2.68,1.04.05.05.98-.51,1.18-.59.78-.32,1.5-.51,2.3-.09.87.47.9,1.85,1.01,1.85.38-.1.66-.19,1.1-.14.11-1.16,1.03-2.08,2.22-1.55.11-1.46.98-3.02,2.65-2.47.54-.86,1.45-1.5,2.43-.85.24.16.53.63.75.7.39.1.7-.17,1.39.16.77.39.77.99,1.2,1.41.15.15.43.16.65.38.58.58.36,1.74-.08,2.36.9.16,1.76.18,2.44.89.91-.52,1.71-.07,2.59.28,1.01-.8,1.83-1.38,3.11-.67,1.82-1.51,3.41.89,3.6,2.62,1.21-1.26,2.64-1.3,3.45.38.8-.63,1.77-.3,2.16.6.36.84.11.53.71,1.25.47.57.57,1.42.46,2.13-.05.28-.29.5-.26.78.02.34.59.53.54.97,1.53.1,3.07.1,4.6.15.77.02.82.37,1.62-.21,1.07-.77,1.04-2.02,2.23-2.47.36-.13.77-.12,1.12-.32.35-.74.66-1.51,1.47-1.86l-.5-1.48-.78-.12-.47-.73c-.46-.04-.85.59-1.36.34-.35-.17-.67-.99-.78-1.37-1.32.63-2.06-.13-2.22-1.44-.29-.07-.58.13-.85.13-.72.01-1.4-1.03-1.49-1.7-.25.08-.24.46-.52.59-.83.37-1.58-.49-1.7-1.24-.29-.08-.37.29-.61.37-.75.23-1.15-.68-1.4-.63-.67,1.29-2.21,1.27-2.41-.26-.25-.04-.34.22-.6.26-1.05.2-1.45-.7-1.75-1.51-1.16.3-1.65-.23-1.85-1.34-1.38-.03-2.23-1.34-2.33-2.62.26.01.52-.02.77.01.1.6.42,1.66,1.12,1.7.23.03.17-.05.23-.17.2-.41.15-1,.42-1.4.22-.23.54-.18.72.07v2.74s.22.24.33.18c.57-.33.57-1.47,1.35-1.02,0,.59,0,2.37.66,2.53.51.12,1.12-1.18,1.37-1.11l.36,1.86c.1.3.5.3.7.09l.84-2.81.64.09c.05.88-.35,1.67.47,2.33.54.12.62-2.57,1.64-1.89.27.18,0,.65,0,.91-.03.74,0,1.51.59,2.02.63-.36.51-1.87,1.37-1.49-.09.57.27,2.36.87,2.52.85-.02.5-1.66,1.47-1.42-.05.86-.04,2.3.72,2.88.62.48,1.08-.87,1.37-.66l.79,2.08h.37c.89-2.21,1.48-.13,1.64-.13l.63-.51c.67.46.43,1.26.48,1.95.22-.03.37-.53.65-.33.29.22.55,1.28.71,1.63.55-.54.88-1.11,1.77-.85.33.1.8.6,1.08.57.51-.17,1.13-.9,1.1-1.46-.07-1.02-1.11-1.05.09-2.44.13-.14.41-.23.43-.27.11-.18-.01-1.07.12-1.52.33-1.1,1.76-1.69,2.83-1.58.3.03.63.18.95.24.42.08.85-.15,1.15.27.34.47.28,1.33,1.14,1.15.92-.76,1.96-1.16,3.08-1.55-.01-.9-.55-1.39.14-2.27.53-.65,1.23-.54,1.97-.64C75.05,1.41,76.25,0,76.98-.18c.15-.04.49-.07.86-.07.59,0,1.26.05,1.45.17.36.24.62,1.03.86,1.22.35.26.84.05,1.24.46.65.64.11,1.76.2,1.83.68-.05,1.47.31,1.57,1.05.23-.09.22-.47.38-.72.33-.48.88-.72,1.41-.86-.04-1.2.97-2.15,2.03-2.47,1.49-.43,2.57.39,3.1,1.74.11.29.22,1.2.45,1.26l1.08-.6c.3-.45-.04-.72.07-1.1.08-.27.48-.62.73-.77v3.12c-.9-.62-1.69.35-2.65-.12-.42-.62-.26-1.4-.73-2.02-1-1.34-3.43-.42-3.24.75.05.34.63.63.43.88-.52.37-1.25.02-1.8.37-.32.21-.02,1.24-1.25,1.52-.15.03-.28.06-.38.06-.64,0-.41-.63-.8-.97-.29-.27-1.05-.25-1.24-.59l-.08-1.68c-.3-.18-.73-.08-1.02-.22-.52-.23-.84-1.61-1.61-1.59-1.04.03-2.78,1.65-2.57,2.83-.43-.09-.76-.5-1.23-.5-.23,0-.87.25-.99.44-.55.76.78,1.9-.51,2.62-.84.47-1.88.35-2.11,1.6l-2.24-.26c-.29-.09-.41-.64-.74-.82-.16-.09-1.3-.4-1.52-.43-.91-.14-2.28.59-1.72,1.58.18.34.66.48.5.99-.51.2-1.47.1-1.75.66-.2.38.13.74.18,1.11.11.82-.17,1.66-.77,2.22-.35.32-1.1.88-1.57.64l-.52-.52c-.74-.35-.63.48-.9.79-.69.51-1-.38-1.9-.08-1,.34-.82,1.37-1.12,2.2-.76.09-1.33-.37-2.06.09-.6.38-.83.96-.86,1.63l-.72.39,5.6.78c.2-1.15-.82-1.37-.62-2.51.14-.83.73-1.29,1.53-1.4.16.14-.97,1.24-.91,1.75.03.29.49.58.59.86.23.65-.14,1.08.72,1.5.64.3,4.88,2.12,5.29,2.14.08.01.21.04.2-.07-.5-.35-.54-.66-.58-1.24-.88-.25-1.7-.28-1.25-1.42.48-.12.11.37.34.53l1.55.1c.43.28-.24,1,.27,1.18,1.95.27,3.38-.85,4.34-2.41l-.53-.94c-.34-.04-1.38.03-1.52-.37-.28-.81.55-1.84,1.41-1.74l-.65,1.44,1.32.18c.22.63.62.86,1.28.86l-.14,3.18-.11.15c-6.1,1.69-12.12,4.25-17.12,8.17.03,1.22-.95,2.92-.86,4.06.08,1.07,1.41,2.48,1.82,3.47l.52-2.02.39-.18.23,3.09,2.97,2.77c.27.04.15-.04.21-.18.34-.91.15-2.13,1.09-2.82.3-.05.18.13.2.33.09,1.22-.15,2.38-.26,3.59h.51c.2-.17.25-2.16,1.05-1.96v2.48c.22-.04.27.22.46,0,.26-.32.42-1.2.74-1.61.11-.15.14-.27.37-.22.23.88-.32,1.57-.07,2.48.18.69,1.47,1.98,2.02,2.47.29-1.38.59-3.25,1.63-4.3.15-.15.23-.15.44-.13.18.17-1.23,4.06-1.11,4.83.12.8,1.46,1.76,2.02,2.34.33-1.16.45-2.57,1.57-3.26.22,1.81-.61,3.39-.78,5.14l.79.29.45,1.73,2.67-3.06.56-.04c.75.2-.11,1.57-.42,1.87-.24.23-.15-.63-.39-.39-.42.39-1.92,3.19-2.28,3.19l-1.04-1.17c.04,2.4-1.4,1.44-2.81.78v2.81l-.68.42-1.26-.49c.56,1.59-.75,2.14-1.7,3.06-.43.42-.73,1.18-1.44,1.24l-.26-1.69c-.66,1.18-.91,2.41-1.34,3.68-.13.38-.25.83-.75.7l-1.42-.86.07,3.4h-1.76l.25,2.64-.77.27c.26.66.75,1.32.63,2.07-.16.49-1.72.38-1.8,1.07-.04.49.72,1.7,1.04,2.08.35.41,1.82,1.54,2.27,1.64.2.03.24,0,.2-.18-.1-.39-1.04-2.69-.9-2.82.39-.05.74.37.98.65.89,1.04,1.41,2.88,1.5,4.23.02.53-.13,1.4-.78,1.24-.03.03.25.85.28.88.07.07,1.43.72,1.63.78.32.12,1.4.42,1.66.42h2.28c.02-.46.11-4.05.46-4.05.67,1.21.72,2.72.46,4.05h3.19c.08,0,.48-.39.92-.21.93.41,1.43,3.95,1.25,4.93.46.97,1.29,1.29,2.11,1.82.86.55.78.71,1.99.88,1.17.15,2.71.12,3.89.01.21-.02.39-.09.59-.14-.39-1.76.07-3.56.94-5.11.53-.96,1.33-2.07,2.39-2.44l-1.9,3.97-.77,3.59c.39.03,1.05.05,1.4.23.28.13.29.46.67.62.77.33,5.37,1.62,6.07,1.63h.33c-.24-1.61-.05-3.24-.29-4.86-.22-1.37-.73-2.69-1.05-4.02-.03-.14-.18-.42-.02-.5,2.17,2.62,2.25,6.19,1.5,9.39h3.77l-.08-.04ZM63,43.71c.51,0,.72-.47.51-.91-1.57-1.84-3.13-1.47-4.93-.24-.64.43-1.28.96-1.52,1.73.49,1.07,1.42,1.72,2.58,1.86,1.52.18,2.32-.24,2.25-1.86-.02-.36-.36-1.04.12-1.04.07.09.09.25.16.29.08.05.71.17.83.17M59,60.64l.4-1.49-3.26-1.37-1.42,5,2.21.86v-2.94s.15-.88.18-.98c.04-.15.15-.28.27-.38l1.62,1.29h0ZM55.75,57.78c-1.22-.24-1.67.55-2.35,1.37-.97,1.17-3.94,5.69-4.05,7.03-.07.87.07,1.22.73,1.76,1.23,1.01,1.79.28,2.51-.87,1.22-1.95,1.65-4.13,2.17-6.3.24-1.02.67-1.99.98-2.99M55.43,23.89c.09-.04.09-.09,0-.13v.13ZM46.11,43.44h-.39v.13h.39v-.13ZM44.06,20.35c.98-.82,1.54-1.79,1.13-3.1-1.75-.03-.78-.61-.4-1.39.29-.59.4-1.21,0-1.78-.17-.25-.51-.33-.7-.61-.21-.29-.17-.6-.3-.87-.52-1.09-1.16.36-1.76.21l-.97-1.53c-1.15-.35-1.63,1.86-2.42,1.66-.64-.16-.43-1.1-.51-1.59-.16-1.03-.75-2.57-2.06-2.31-.12.11.45,1.47-.35,1.55-.6.04-.71-.68-.72-1.13-.48-.34-1.17-.33-1.61.1-.32.3-.14.85-.67.89-.53.05-1.49-1-2.25-.75.12.27-.2,1.24-.57,1.16-.43-.1-.59-1.38-1.38-1.63-.15-.04-1.65-.32-1.77-.3-.25.01-.42.33-.66.35l-.43-.11c-.05-1.07,1.2-1.59.9-2.73l-.59-.13c-.26-.53-.67-1.64-1.42-1.57-.33.03-.4.52-.89.38-.39-.12-.41-1.01-.87-1.23-.74-.34-1.33.76-1.45,1.36-.66.26-.9-.7-1.5-.26l-.86,2.34-1.32-.22c-.23.18-.84.62-.74.95,1.25.79.88,2.1.65,3.33,1.13.3,1.3,1.22,1.16,2.27-.07.42-.33.72-.38,1.12.37-.08.74.16,1.09.13.29-.03.62-.3.96-.36,1.3-.23,2.55.37,2.51,1.79,2.3-.37,3.11,1.36,2.87,3.38,3.2-.02,6.41-.02,9.57.53.53-.22,1.88-1.48,2.35-1.45.15.01.26.07.3.22l-.04.96c.46-.18,1.88-1.42,2.22-1.43.2-.01.32.14.33.33l-.26.85c.8-.11,1.68-.51,2.47-.25l-.38.9,1.73-.02h0ZM37.24,20.63v-.65c-.1-.1-.97.49-.78.65h.78Z"/>
        <path class="cls-11" d="M69.37,25.9c4.88-.54,11.12-1.9,16.81-1.77.19-.08.3-.06.37.01.4.01.8.04,1.19.07.14-.15.34-.23.6-.19v.24c.75.07,1.49.18,2.21.33-.04-.59.21-1.12.91-1.22l-.55,1.3c.5.11.99.24,1.46.39v-5.38c-7.81,1-15.17,3.37-23,6.22"/>
        <path class="cls-5" d="M78.07,29.17c-4.32-.48-8.21.1-11.77,1.46.04.94-.13,1.93-.62,2.74-.08.14.02.23-.28.17-.26-.84-.21-1.88.33-2.6.03-.04.06-.08.09-.12-3.48,1.4-6.65,3.55-9.59,6.17l2.72,2.54c.27.04.15-.04.21-.18.34-.91.15-2.13,1.09-2.82.3-.05.18.13.2.33.09,1.22-.15,2.38-.26,3.59h.51c.2-.17.25-2.16,1.06-1.96v2.48c.22-.04.27.22.46,0,.26-.32.42-1.2.74-1.61.11-.15.14-.27.37-.22.23.88-.32,1.57-.07,2.48.18.68,1.47,1.98,2.02,2.47.29-1.38.59-3.25,1.63-4.3.15-.15.23-.15.45-.13.18.17-1.23,4.06-1.11,4.83.12.8,1.46,1.76,2.02,2.34.33-1.16.45-2.57,1.57-3.26.22,1.81-.61,3.39-.78,5.14l.79.29.45,1.73,2.67-3.06.56-.04c.75.19-.11,1.57-.42,1.87-.24.23-.15-.63-.39-.39-.18.17-.57.79-.98,1.44.33-.15.66-.3.99-.44.54-.55,3.16-1.58,3.71-2.11l-.21-.98c.2-.99,1.87.7,1.96.59.11-.72.23-1.25.85-1.7l.85.91c.18-.55,1.15-2.23,1.76-2.22.86.02.1,1.45.2,1.57.53-.27,1.7-1.53,2.28-1.05.41.34.08.91-.27,1.19l-.26-.52c-.14.13-.93.9-1.52,1.33,1.07-.24,2.15-.45,3.23-.63.15-.07.27-.11.31-.12.09-.02.19,0,.28.03,1.59-.25,3.18-.43,4.79-.56-.39-.59-.76-2.46-.91-2.97.08-.18.25-.02.36.03.84.46.84,1.25,1.27,1.98.08.03.61-1.25.98-1.18v-11.36c-7.25.5-14.34.11-20.83,3.36,1.09-3.26,3.26-5.44,6.53-6.53M73.44,30.69c.24-.05.28,0,.42.17-.32.33-.64,1.78-1.23,1.63-.54-.45.32-1.67.8-1.8M62.76,38.26c-.05.22-.23.28-.42.23-.62-.17.07-3.07,1.11-2.87l-.69,2.64ZM64.35,37.83c-.05-.59,0-1.01.2-1.55.07-.17.72-1.47.98-1.18-.09.97-.29,2.21-1.17,2.74M89.63,45.52c-.26-.1-1.26-1.72-1.16-1.83.87.27,1.21.95,1.16,1.83M71,30.67c.17.17-.45,1.87-1.04,1.7-.05-.8,0-1.83,1.04-1.7M67.35,34.19c.01-.24-.11-.45-.1-.68.03-.46.47-2.16.66-2.61.1-.22.54-.94.8-.88.22.15.22.33.2.58-.05.48-.88,3.13-1.16,3.4-.13.12-.2.24-.4.2M67.36,44.22c-.43-1.32.29-3.07,1.42-3.77.28.34-.79,3.49-1.42,3.77M69.43,38.81c-.1.07-.27.12-.37.04l-.26-.54c.5-.79.7-2.52,1.81-2.57.24.25-.87,2.9-1.17,3.07M69.56,42.01c.02-.7.19-1.45.47-2.08.24-.5.71-1.3,1.36-1.18.12,1.23-.87,2.53-1.83,3.26M77.06,38.1c.09-.17,1.04-1.11,1.24-.91.2.68-.57,1.05-1.11,1.3-.15-.14-.25-.16-.13-.39M77.24,41.92c-.11.54-1.44,1.29-1.55,1.9-.93-.11.23-1.74.66-2.01.29-.18.99-.35.89.11M76.6,36.14c.33.33-.88,1.33-1.11,1.57-.29.3-.42.87-.97.78.14-1.01.88-2.49,2.08-2.35M73.63,44.44c-.09.16-.97,1.6-1.2,1.35-.08-.72.27-1.44.63-2.05.23-.39.53-1.01,1.05-.95.07.6-.22,1.13-.49,1.64M72.32,38.17c.09-.64.48-1.6,1.03-1.96.4-.26.77-.27.59.33-.25.82-1.19,1.72-1.37,2.6-.38.32-.27-.82-.25-.97M71.91,43.57c-.37.88-.52,1.83-.89,2.7-.07.15-.79,1.78-1.07,1.48-.03-.84.18-1.67.5-2.44.25-.61.73-1.65,1.46-1.74"/>
        <path class="cls-2" d="M73.74,17.55h-.28c0,.17-.11.35-.11.54-.02.42.03.85-.03,1.27.14-.03.28-.05.42-.08v-1.73Z"/>
        <path class="cls-2" d="M71.65,16.86h-.4l-.14,3.14c.18-.07.36-.12.54-.18v-2.96Z"/>
        <path class="cls-3" d="M82.72,18.29c.03-.49.01-1,.04-1.5h-.42c-.03.53-.23,1.07-.13,1.63l-3.63.44c1.65-.08,3.3-.18,4.96-.57h-.82Z"/>
        <path class="cls-8" d="M92.37,18.16h-5.99v-.05l-.64-.03c-.03.08-.3.22-.34.22h-1.86c-1.65.4-3.3.5-4.96.57l-4.84.59v-.17c-.14.03-.28.05-.42.08-.01.08-.02.16-.04.24l-1.63.38v-.17c-.18.06-.36.11-.54.18v.04l-.11.15c-.33.09-.65.19-.97.29-.3.15-.61.31-.91.49.3-.18.61-.34.91-.49-5.76,1.69-11.41,4.17-16.14,7.88.03,1.22-.95,2.92-.86,4.06.08,1.07,1.41,2.48,1.82,3.47l.52-2.02.39-.18.23,3.09.25.23c2.94-2.62,6.1-4.76,9.59-6.17.12-.16.29-.31.49-.29v.08c3.56-1.35,7.45-1.93,11.77-1.46-3.26,1.09-5.44,3.26-6.53,6.53,6.49-3.24,13.58-2.86,20.83-3.36v-7.28c-.48-.15-.97-.28-1.46-.39l-.22.53c-.08-.2-.12-.41-.14-.6-.72-.15-1.46-.26-2.21-.33,0,.66-.24,1.29-.58,1.84-.39-.45-.43-1.46-.01-1.88-.39-.03-.79-.05-1.19-.07.26.32-.41,1.75-.44,2.2h-.5c-.33-.8.04-1.39.37-2.11.08-.05.15-.08.21-.1-5.7-.13-11.93,1.22-16.82,1.77,7.83-2.85,15.19-5.22,23-6.22v-1.52l-.03-.02ZM54.51,33.8c-.16.71-.59-.16-.66-.52-.05-.29-.09-.53-.04-.84.03-.24.46-1.53.77-1.12.11.87.14,1.61-.07,2.48M54.84,29.36c0-.57-.03-1.07.65-.91,0,.57.03,1.07-.65.91M56.01,32.63c-.78-.02-.88-1.63-.2-1.71l.4.13-.21,1.58h0ZM57.32,35.81c-.05.16-.11.38-.33.33-.52-.34-.55-.88-.43-1.47.04-.21.76-1.56,1.02-1.26.08.09-.17,2.15-.26,2.4M57.75,29.86c-.1.62-.32,1.22-.3,1.85-.21.24-.48-.53-.5-.62-.1-.55.07-1.52.68-1.73.28.2.15.27.12.5M59.54,32.03c-.02.48-.16,1.62-.27,2.09-.05.23-.15.33-.33.46-.46,0-.85-2.83.15-3.1.17-.05.27-.04.38.1.09.15.08.3.07.46M59.15,30.41c-.2-.74-.08-1.73.77-1.96.09.72-.18,1.54-.77,1.96M60.87,32.2c-.05.15-.49,1.04-.7.82-.03-.92-.1-2.03.78-2.61.23.6.13,1.21-.09,1.79M61.2,29.21h-.48c-.46-.4.66-2.16,1.02-1.8l-.54,1.8ZM62.53,28.32l-.07-.51c.28-.22.34-.73.78-.65.54.14-.5,1.33-.72,1.16M63.44,30.41c-.33-.7.11-1.51.91-1.43.05.64-.36,1.18-.91,1.43M89.12,28.84l.37.22c.05.13-.08.65-.13.68-.07.04-.26,0-.37.01l.13-.91ZM86.77,28.97c.28.6.01,1.29-.65,1.43-.3-.66-.04-1.25.65-1.43M84.68,24.28c.08.08-.33,1.85-.65,1.96-.25-.73-.24-1.74.65-1.96M84.68,29.36l-.72,1.7c-.47-.64-.18-1.76.72-1.7M82.93,24.28c-.07.41-.18.85-.32,1.25-.07.17-.03.4-.27.45-.22-.74-.16-1.35.59-1.7M82.98,29.36l-.9,1.7c-.35-.75-.02-1.77.9-1.7M81.04,29.75l-.78,1.17c-.22-.77-.13-1.23.78-1.17M76.41,21.79l.52-.64c.79-.16-.15,2.15-.52.64M77.97,21.8c-.01-.17.09-.46.16-.62.07-.16.07-.38.29-.42l.12.71-.58.34h0ZM80.13,20.11l.62.59c-1,1.52-1.28.68-.62-.59M81.76,21.41l-.32-.43.39-.72c.24-.09.5.02.51.3l-.59.85h0Z"/>
        <path class="cls-8" d="M77.47,48.16c-.12.12-.24.23-.35.33.24-.08.48-.16.72-.23-.14-.07-.27-.12-.37-.1"/>
        <path class="cls-8" d="M69.37,51.13c0,.21,0,.39-.03.55.12-.06.24-.11.36-.17l-.34-.38h0Z"/>
        <path class="cls-8" d="M66.56,51.91v1.33c.43-.26.86-.49,1.3-.73-.4-.15-.85-.39-1.3-.6"/>
        <path class="cls-8" d="M79.09,47.87c.2-.06.4-.1.6-.15l-.61-.49c.02.26.02.47.01.65"/>
        <path class="cls-8" d="M80.47,47.52c.32-.08.63-.17.95-.24l-.18-1.22c-.4.41-.49,1-.76,1.46"/>
        <path class="cls-9" d="M91.27,45.93c-.14.14-.29.17-.47.07-.04-.03-.09-.09-.14-.16-1.6.13-3.2.31-4.79.56.19.03.37.1.5.25.1.41-2.28,1.53-2.71,1.6-.63.11-.94-.28-.52-.72.08-.08,1.5-.76,2.14-1.03-1.08.18-2.16.39-3.23.63-.3.22-.55.35-.63.24v-.08c-.33.08-.64.16-.96.24-.11.18-.24.35-.43.47l-.34-.28c-.2.05-.4.1-.6.15-.06,1.24-.73.65-1.25.38-.24.07-.48.16-.72.23-.36.33-.71.62-1.16.89-.43.25-3.11,1.64-3.39,1.36-.01-.17-.02-.35.07-.52.02-.03.04-.07.08-.1-.33.14-.66.29-.99.44-.53.85-1.1,1.75-1.31,1.75l-.7-.79c-.12.06-.25.11-.37.17-.12,1.09-.72,1.11-1.48.83-.43.24-.87.48-1.3.73v1.48l-.68.42-1.26-.49c.57,1.59-.75,2.14-1.7,3.06-.43.42-.73,1.18-1.44,1.24l-.26-1.68c-.66,1.18-.91,2.41-1.34,3.68-.13.38-.25.83-.75.7l-1.43-.86.07,3.4h-1.76l.25,2.64-.77.27c.26.66.75,1.32.63,2.07-.16.49-1.72.38-1.81,1.07-.03.36.37,1.1.72,1.63.17-2.8,2.73-3.71,4.55-4.62.25-.18.5-.35.75-.5-.05-.12-.1-.24-.15-.36.13.07.24.16.35.25,3.51-1.96,7.59-.85,11.2.76l-.66-1.52c.74.35,1.38,1.14,1.73,2.01.31.15.62.3.92.45v-.07c-.29-1.15-.64-2.29-.9-3.44.43.46.84,1.03,1.18,1.65,1.81-8.2,10.31-11.66,18.36-11.27v-9.51c-.33.02-.65.06-.98.08,0,0-.12.15-.12.15Z"/>
        <path class="cls-14" d="M74.01,66.47c.96,1.72,1.43,3.89.5,5.51l-.26-.07c.01-1.25-.22-2.46-.52-3.66v.07c-.3-.15-.61-.3-.92-.45.22.53.33,1.08.29,1.57-.01.24.04.42-.2.59l-1.16-2.65c-3.61-1.61-7.69-2.72-11.2-.76,1.52,1.11,2.16,3.53,2,5.3-.02.32-.05.83-.39.98-.03-1.11-.28-2.32-.61-3.36-.31-.97-.81-1.86-1.2-2.8-.25.15-.5.31-.75.5-1.81.91-4.37,1.82-4.55,4.62.12.19.24.35.33.45.35.41,1.82,1.54,2.27,1.64.2.03.24,0,.2-.18-.1-.39-1.04-2.69-.9-2.82.39-.05.74.37.98.65.89,1.04,1.41,2.88,1.5,4.23.02.53-.13,1.4-.78,1.24-.03.03.25.85.28.88.07.07,1.43.72,1.63.78.32.12,1.4.42,1.66.42h2.28c.02-.46.11-4.05.46-4.05.67,1.21.72,2.72.46,4.05h3.19c.08,0,.48-.39.92-.21.93.41,1.43,3.95,1.25,4.93.46.97,1.29,1.29,2.11,1.82.86.55.78.71,1.99.88,1.17.15,2.71.12,3.89.01.21-.02.39-.09.59-.14-.39-1.76.07-3.56.94-5.11.53-.96,1.33-2.07,2.39-2.44l-1.9,3.97-.77,3.59c.39.03,1.05.05,1.4.23.28.13.29.46.67.62.77.33,5.37,1.62,6.07,1.63h.33c-.24-1.61-.05-3.24-.29-4.86-.22-1.37-.73-2.69-1.06-4.02-.03-.14-.18-.42-.02-.5,2.17,2.62,2.25,6.19,1.5,9.39h3.77v-31.41c-.58,0-2.09,3.27-2.21,3.12-.14-1.51.68-3.31,2.21-3.77v-1.67c-8.05-.39-16.55,3.07-18.36,11.27M60.83,75.37l-2.47-6.91c.2-.22,1.04.99,1.14,1.13.82,1.13,1.99,3.27,1.85,4.68-.03.35-.17.93-.52,1.1M63.05,78.63c-.21-.02-.39-.75-.39-.85v-3.2c.3-.07.22.07.29.17.82,1.01.5,2.74.1,3.87M64.13,69.99c-.18,1.04-.15,2.12-.36,3.17-1.07-1.4-.55-3.94.22-5.39.09-.16,1.06-1.64,1.28-1.38-.27,1.24-.91,2.35-1.14,3.61M89.76,57l-1,1.65-.95,3.69c-.59-1.73-.41-5.27,1.95-5.34M86.5,62.39c-.04.35-.22.88-.64.86-.27-1.29-.29-2.77-.74-4.01-.26-.71-.79-1.17-1.09-1.85,2.05.42,2.71,3.21,2.47,5M84.18,60.68c.29.71.64,1.74.17,2.44l-2.02-4.56c.92.26,1.51,1.28,1.85,2.12M80.12,58.96c.6-.32,1.12.21,1.49.65.52.65.7,1.24.59,2.08-.51-.52-.85-1.19-1.3-1.75-.14-.18-.91-.79-.77-.98M81.56,63.91c-1.16,1.48-2.49,2.76-3.2,4.56-.85-.89.15-2.23.74-3.03.61-.84,1.32-1.64,2.46-1.52M79.99,73.29l-2.06,4.52-.29.16c-.39-1.17.1-2.59.85-3.52.14-.18,1.31-1.37,1.5-1.16M66.41,70.72c.33-.58.9-1.35,1.59-1.48l-1.95,3.65c-.32-.8-.03-1.48.36-2.17M67.35,76.41c-.38-2,.71-4.53,2.54-5.47l-2.54,5.47ZM71.39,82c-.27-1.83-.95-3.6-2.09-5.07.99-.09,1.85,1.4,2.15,2.22.29.79.63,2.22-.07,2.85M73.47,82.8l-.58-3.12-.91-2.61-1.24-1.96c1.52.21,2.28,1.89,2.74,3.2.57,1.63.67,2.86-.01,4.49M75.82,83.06c-.17.15-.25.02-.26-.18-.09-1.9.07-3.81-.45-5.68l-1.32-3.51c.98.39,1.62,1.5,1.99,2.44.87,2.13,1.05,4.85.03,6.94M76.21,68.98c-.35-1.52.34-3.37,1.12-4.68.14-.25,1.45-2.14,1.75-1.84l-1.59,3.17s-1.28,3.35-1.28,3.35ZM82.79,74.72c-1.78,2.51-2.86,3.4-4.07,6.49-.36.9-.63,2.15-1.04,2.99-.09.16,0,.22-.29.16-.76-2.46.4-5.56,1.9-7.55.43-.58,2.08-2.25,2.7-2.51.33-.15.65-.11,1-.1.03.21-.1.35-.2.51M86.38,86.32c-.18.01-.21-.48-.23-.62-.22-1.63-.4-3.13-1.27-4.6l-.85-1.42c1.04.42,1.67,1.55,2.05,2.57.49,1.29.75,2.74.29,4.08M86.44,71.2c-.53-.57-1.14-1.02-1.72-1.54-.14-.12-.37-.13-.31-.41.57.03,1.26.28,1.65.7.15.16.48.74.54.96.05.2.1.36-.17.3M86.51,67.81c.85-.11,1.65.68,2.14,1.32.8,1.05,1.12,2.38.99,3.71-.04.35-.21,1.12-.65,1.1-.09-2.35-.64-4.55-2.48-6.12M90.81,84.88l-2.08-9.52c1.14.92,1.83,2.61,2.18,4.01.43,1.78.66,3.8-.1,5.5M91.82,68.96c.41,1.4.63,2.85.01,4.23-.13.27-.26.64-.63.61.16-2.51-.5-4.9-1.16-7.3,1.02.51,1.48,1.4,1.78,2.46"/>
        <path class="cls-15" d="M92.37,43.7v.78l-1.1,1.45c-.14.14-.29.17-.47.07-.43-.28-.88-2.57-1.04-3.13.08-.18.25-.02.36.03.84.46.84,1.25,1.27,1.98.08.03.61-1.25.98-1.18"/>
        <path class="cls-15" d="M92.37,16.73v1.44h-5.99v-.05l.15-3.25c.11-.34.87-.24,1.16-.16.34,1.56,1.17,1.75,2.64,1.37.41.76,1.23.97,2.03.66"/>
        <path class="cls-6" d="M85.26,14.76c.15.04.35.04.6,0l-.12,3.31.64.03.15-3.25c.07-.23.44-.25.76-.22-.44-.31-1.28.11-2.03.13"/>
        <path class="cls-9" d="M89.72,3.96c-.42-.62-.26-1.4-.73-2.02-1-1.34-3.43-.42-3.24.75.05.34.63.63.43.88-.52.37-1.25.02-1.81.37-.32.21-.02,1.24-1.25,1.52-.15.03-.28.05-.38.05l.54.81c.07-.06.14-.11.22-.15.11.46-.15.95-.12,1.36.05.77.65,1.07.52,2.23-.05.41-.3.7-.37,1.07-.17,1.03.12,1.72-.59,2.6l1.36.17h.02c.12-.03.27-.03.48,0-.07.67,0,1.06.45,1.17.76-.02,1.59-.44,2.03-.13.16.01.31.04.4.06.34,1.55,1.17,1.75,2.64,1.37.41.76,1.23.97,2.03.66V4.08c-.9-.62-1.69.35-2.65-.12M85.92,12.68c-.14-.21-.14-.52-.23-.62-.08-.1-.59-.19-.79-.3-.71-.41-.67-.97-.58-1.72.14-.3.54-.65.89-.42.26.17-.03.63-.02.92.02.68,1.36.58,1.25,1.63l.14.11c.78.11,1.54-.13,2.27-.38-.17,1.23-2.19,1.84-2.94.78M91.85,11.37c-.91.41-1.68-.22-1.69-1.16.12-.12,1.62.72,1.66.79.05.1.02.25.02.37"/>
        <path class="cls-4" d="M92.37-.35V.96c-.25.15-.65.5-.73.77-.11.38.24.65-.07,1.1l-1.08.6c-.23-.07-.34-.97-.45-1.26C89.51.82,88.43,0,86.94.43c-1.07.32-2.08,1.27-2.03,2.47-.53.14-1.09.38-1.41.86-.16.25-.15.63-.38.72-.1-.74-.88-1.1-1.57-1.04-.09-.07.46-1.18-.2-1.83-.4-.4-.89-.2-1.24-.46-.24-.18-.5-.98-.86-1.22-.18-.12-.86-.17-1.45-.17v-.11h14.57Z"/>
        <path class="cls-15" d="M90.9,79.38c.43,1.78.66,3.8-.1,5.5l-2.08-9.52c1.14.92,1.83,2.61,2.18,4.01"/>
        <path class="cls-15" d="M89.76,57l-1,1.65-.95,3.69c-.59-1.73-.41-5.28,1.95-5.34"/>
        <path class="cls-15" d="M88.65,69.13c.8,1.06,1.12,2.38.99,3.71-.04.35-.21,1.12-.65,1.1-.09-2.35-.64-4.55-2.48-6.12.85-.11,1.65.68,2.14,1.32"/>
        <path class="cls-15" d="M88.47,43.7c.87.27,1.21.95,1.16,1.83-.26-.1-1.26-1.72-1.16-1.83"/>
        <path class="cls-15" d="M89.49,29.06c.05.13-.08.65-.13.69-.07.04-.26,0-.37.01l.13-.91.37.22h0Z"/>
        <path class="cls-15" d="M88.34,24.02c.08.74-.2,1.47-.59,2.08-.52-.61-.42-2.21.59-2.08"/>
        <path class="cls-15" d="M86.59,12.28c.78.11,1.54-.13,2.27-.38-.17,1.23-2.19,1.84-2.94.78-.14-.21-.14-.52-.23-.62-.08-.1-.59-.18-.79-.3-.71-.41-.67-.97-.58-1.72.14-.3.54-.65.89-.42.26.17-.03.63-.02.92.02.68,1.36.58,1.25,1.63l.14.11h.01Z"/>
        <path class="cls-15" d="M86.77,28.97c.28.6.01,1.29-.65,1.44-.3-.66-.04-1.25.65-1.44"/>
        <path class="cls-15" d="M86.62,70.9c.05.2.1.36-.17.31-.53-.57-1.14-1.02-1.72-1.55-.14-.12-.37-.13-.3-.41.57.03,1.26.28,1.65.7.15.16.48.74.54.96"/>
        <path class="cls-15" d="M85.98,24.24c1.33-.77.17,1.52.13,2.11h-.5c-.33-.8.04-1.39.37-2.11"/>
        <path class="cls-15" d="M84.03,57.39c2.06.42,2.71,3.21,2.47,5-.04.35-.22.88-.64.86-.27-1.29-.29-2.77-.74-4.01-.26-.71-.79-1.18-1.09-1.85"/>
        <path class="cls-15" d="M86.08,82.24c.49,1.29.75,2.74.29,4.08-.18.01-.21-.48-.23-.62-.22-1.63-.4-3.13-1.27-4.6l-.85-1.42c1.04.42,1.67,1.56,2.06,2.57"/>
        <path class="cls-15" d="M86.38,46.63c.1.41-2.28,1.53-2.71,1.6-.63.11-.93-.28-.52-.72.1-.1,2.26-1.12,2.45-1.15.27-.04.59.05.78.27"/>
        <path class="cls-15" d="M85.86,14.77l-.12,3.31c-.03.08-.3.22-.34.22h-2.67c.03-.49.01-1,.04-1.5.05-.83.24-1.59,1.07-2.02.09-.55.07-1.03.48-1.17h.02c.12-.03.27-.03.48,0-.1.9.08,1.31,1.04,1.17"/>
        <path class="cls-15" d="M84.68,24.28c.08.08-.33,1.85-.65,1.96-.25-.73-.24-1.74.65-1.96"/>
        <path class="cls-15" d="M84.68,29.36l-.72,1.7c-.47-.64-.18-1.76.72-1.7"/>
        <path class="cls-15" d="M84.18,60.69c.29.71.64,1.74.17,2.44l-2.02-4.56c.93.26,1.51,1.28,1.85,2.12"/>
        <path class="cls-14" d="M82.95,13.42l1.36.17c-.41.14-.39.62-.48,1.17-.83.43-1.01,1.2-1.07,2.02h-.42c.01-.14.08-.4-.2-.33-.38.11-1.07.54-1.5.72-1.73.64-3.47.84-5.29,1.1-.44.07.26-.72.07-.9h-1.69v.17h-.28c0-.08-.02-.16-.1-.25-.26-.3-1.29-.45-1.71-.45h-.4c-.66,0-1.07-.23-1.28-.86l-1.32-.18.65-1.44c-.86-.1-1.7.94-1.41,1.74.14.4,1.18.33,1.52.37l.53.93c-.96,1.57-2.39,2.69-4.34,2.42-.51-.17.16-.89-.27-1.18l-1.55-.1c-.23-.16.14-.65-.34-.53-.45,1.14.37,1.17,1.25,1.42.03.58.08.89.58,1.24.01.11-.12.08-.2.07-.4-.02-4.64-1.84-5.29-2.14-.86-.42-.49-.85-.72-1.5-.1-.28-.55-.57-.59-.86-.05-.51,1.08-1.61.91-1.75-.8.11-1.39.58-1.53,1.4-.2,1.14.82,1.36.62,2.51l-5.6-.78.72-.39c.03-.67.26-1.25.86-1.63.73-.46,1.29,0,2.06-.09.3-.83.12-1.86,1.12-2.2.9-.3,1.22.59,1.9.08.27-.32.16-1.14.9-.79l.52.52c.47.24,1.22-.33,1.57-.64.6-.56.88-1.4.77-2.22-.05-.37-.38-.73-.18-1.11.28-.57,1.24-.47,1.75-.66.16-.51-.32-.65-.5-.99-.57-.99.81-1.72,1.72-1.58.22.03,1.36.35,1.52.43.33.17.45.73.74.82l2.24.26c.23-1.25,1.27-1.13,2.11-1.6,1.29-.72-.04-1.86.51-2.62.12-.18.76-.43.99-.43.47,0,.79.41,1.23.5-.22-1.17,1.52-2.79,2.57-2.83.77-.02,1.09,1.36,1.61,1.59.29.14.72.03,1.02.22l.08,1.69c.18.34.95.32,1.24.59.39.34.16.97.8.97l.54.8c-.46.41-.66,1.09-.7,1.66h-1.29c.09.79,1.15.37,1.6.65.6.38-.16,1.57-.27,2.05-.11.54-.03,1.12-.26,1.7-.25.64-1.16,1.35-1.47,2.04-.52.36-.99.05-1.55.08-.07.05.09.41.16.49.11.1.53.26.68.28,1.21.17,1.42-.59,2.08-1.29.13-.13.37-.21.53-.38.05-.07.11-.12.15-.18M77.78,15.68l-2.09.2c.17.59.3.89.98.97.58-.12,1.11-.55,1.11-1.16M74.06,15.02c.17-.02,1.22-.33.98-.64-.78-.25-1.6-.14-2.27-.65-1.07-.81-.84-1.94-.2-2.94-.01-.36-.71-.61-.78-1.04-.09-.49.17-1.12.39-1.55-1.4.21-1.77,1.73-.68,2.62-.75,2.03-.05,4.56,2.57,4.21M67.08,17.31l-.92-.38-.25-.99-.52.22-.1.99c.43.74,1.26.85,1.79.16M65.67,10.28c.14-.11.33.01.25-.33-.69-.5-2.21.99-2.33,1.52-.22.96.5,1.26.48,1.51-.35.58-.61.7-.49,1.45.08.53.83,1.89,1.41,1.17-.04-.52-.64-1.21-.63-1.69,0-.37.46-.66.38-1.16-.03-.27-.33-.4-.43-.63-.29-.65.89-1.5,1.36-1.85"/>
        <path class="cls-15" d="M84.11,45.12c.41.34.08.91-.27,1.19l-.26-.52c-.21.2-1.92,1.89-2.14,1.57l-.2-1.29c-.55.58-.51,1.49-1.2,1.94l-.96-.77c.2,2.58-1.08.83-1.61.93-.5.48-.91.86-1.51,1.22-.43.25-3.11,1.64-3.39,1.36-.01-.17-.02-.35.06-.52.27-.52,3.2-1.64,3.79-2.21l-.21-.98c.2-.99,1.87.7,1.96.59.11-.72.23-1.25.85-1.7l.85.91c.18-.55,1.15-2.23,1.76-2.22.86.02.1,1.45.2,1.57.53-.27,1.7-1.53,2.28-1.06"/>
        <path class="cls-15" d="M83.39,7.52c.05.77.65,1.07.52,2.23-.05.41-.3.7-.37,1.07-.17,1.03.12,1.72-.59,2.6-.04.07-.1.12-.15.18-.16.17-.4.25-.53.38-.65.71-.87,1.47-2.08,1.29-.15-.02-.58-.18-.68-.28-.08-.08-.23-.43-.16-.49.57-.02,1.03.28,1.55-.08.3-.7,1.22-1.4,1.47-2.04.23-.58.15-1.15.26-1.7.11-.49.87-1.67.27-2.06-.45-.28-1.51.14-1.6-.64h1.29c.03-.59.24-1.26.7-1.67.07-.05.14-.11.22-.15.11.46-.15.95-.12,1.36"/>
        <path class="cls-15" d="M82.99,74.2c.03.21-.1.35-.2.51-1.78,2.51-2.86,3.4-4.07,6.49-.36.9-.63,2.15-1.04,2.99-.09.16,0,.22-.29.16-.76-2.46.4-5.56,1.9-7.55.44-.58,2.08-2.25,2.7-2.51.33-.15.65-.11,1-.1"/>
        <path class="cls-15" d="M82.99,29.36l-.9,1.7c-.35-.75-.02-1.77.9-1.7"/>
        <path class="cls-15" d="M82.93,24.28c-.07.41-.19.85-.32,1.25-.07.17-.03.4-.27.45-.22-.74-.16-1.35.59-1.7"/>
        <path class="cls-15" d="M82.15,16.46c.27-.08.21.19.2.33-.03.53-.23,1.07-.13,1.63l-8.47,1.03v-2.08h1.69c.2.18-.51.97-.07.9,1.82-.26,3.56-.46,5.28-1.1.43-.17,1.12-.61,1.5-.72"/>
        <path class="cls-15" d="M82.34,20.56l-.59.85-.32-.43.39-.72c.24-.09.5.02.51.3"/>
        <path class="cls-15" d="M81.61,59.61c.52.65.7,1.24.59,2.08-.51-.52-.85-1.18-1.3-1.75-.14-.18-.91-.79-.77-.98.6-.32,1.12.21,1.49.65"/>
        <path class="cls-15" d="M79.1,65.43c.61-.84,1.32-1.64,2.46-1.52-1.16,1.48-2.49,2.76-3.2,4.56-.85-.89.15-2.23.74-3.03"/>
        <path class="cls-15" d="M81.04,29.75l-.78,1.18c-.22-.77-.13-1.23.78-1.18"/>
        <path class="cls-15" d="M80.12,20.11l.62.59c-1,1.52-1.28.68-.62-.59"/>
        <path class="cls-15" d="M79.99,73.29l-2.06,4.52-.29.16c-.39-1.17.1-2.59.85-3.52.14-.18,1.3-1.37,1.5-1.16"/>
        <path class="cls-15" d="M79.08,62.47l-1.59,3.17-1.28,3.35c-.35-1.52.34-3.37,1.12-4.68.14-.25,1.45-2.14,1.75-1.84"/>
        <path class="cls-15" d="M78.43,20.76l.12.71-.58.34c-.01-.17.09-.46.16-.62.07-.16.07-.38.29-.42"/>
        <path class="cls-15" d="M78.3,37.18c.2.69-.57,1.06-1.11,1.31-.15-.14-.25-.16-.13-.39.09-.17,1.04-1.11,1.24-.91"/>
        <path class="cls-4" d="M77.82-.35v.1c-.37,0-.71.02-.86.07-.73.18-1.93,1.59-2.31,2.25-.74.1-1.44,0-1.97.64-.7.88-.15,1.37-.14,2.27-1.12.39-2.15.79-3.08,1.55-.86.17-.8-.68-1.14-1.15-.3-.43-.73-.2-1.15-.27-.32-.05-.64-.21-.95-.24-1.07-.11-2.5.48-2.83,1.58-.13.46-.01,1.34-.12,1.52-.02.04-.3.13-.43.27-1.2,1.38-.15,1.41-.09,2.44.03.55-.59,1.28-1.1,1.46-.27.03-.75-.47-1.08-.57-.89-.26-1.22.3-1.77.85-.15-.35-.41-1.41-.71-1.63-.28-.21-.43.29-.65.33-.04-.68.2-1.49-.48-1.95l-.63.51c-.16,0-.75-2.08-1.64.13h-.37l-.79-2.08c-.29-.21-.75,1.14-1.37.66-.76-.58-.77-2.02-.72-2.88-.97-.24-.62,1.4-1.47,1.42-.6-.16-.96-1.96-.87-2.52-.86-.38-.74,1.13-1.37,1.49-.6-.51-.62-1.28-.59-2.02,0-.26.28-.73,0-.91-1.02-.67-1.1,2.01-1.64,1.89-.82-.65-.41-1.45-.47-2.33l-.64-.09-.84,2.81c-.2.22-.6.22-.7-.09l-.36-1.86c-.25-.07-.86,1.23-1.37,1.11-.67-.16-.65-1.95-.66-2.53-.78-.45-.78.7-1.35,1.02-.11.05-.33-.15-.33-.18V-.02c-.17-.25-.5-.29-.72-.07-.27.4-.23.99-.42,1.4-.05.12,0,.21-.23.17-.7-.03-1.02-1.1-1.12-1.7-.25-.03-.51,0-.77,0h-.52c-.5,0-2.76-.09-2.99.07-.13.08-.17.36-.33.46h-.13c-.15-.1-.2-.38-.33-.46-.25-.15-2.59-.07-3.13-.07-10.1-.07-20.22.07-30.35.01v6.25c0,5.68-.02,11.34-.02,17.02,0,23.78.07,47.57.02,71.35h-.13V-.35h80.2Z"/>
        <path class="cls-15" d="M75.69,15.88l2.09-.2c0,.61-.53,1.04-1.11,1.16-.67-.08-.8-.38-.98-.97"/>
        <path class="cls-15" d="M76.35,41.82c.29-.18.99-.35.89.11-.11.54-1.44,1.29-1.55,1.9-.94-.11.23-1.74.66-2.01"/>
        <path class="cls-15" d="M76.93,21.15c.79-.16-.15,2.15-.52.64l.52-.64Z"/>
        <path class="cls-15" d="M76.6,36.14c.33.33-.88,1.33-1.11,1.57-.29.3-.42.87-.97.78.14-1.01.88-2.49,2.08-2.35"/>
        <path class="cls-15" d="M75.79,76.12c.87,2.13,1.05,4.85.03,6.94-.17.15-.25.02-.26-.18-.09-1.9.07-3.81-.45-5.68l-1.32-3.51c.98.39,1.62,1.5,1.99,2.44"/>
        <path class="cls-15" d="M75.03,14.38c.24.32-.81.62-.98.64-2.62.35-3.32-2.18-2.57-4.21-1.09-.89-.72-2.42.69-2.62-.22.43-.48,1.07-.39,1.55.08.43.77.68.78,1.04-.64,1-.87,2.13.2,2.94.67.51,1.49.4,2.27.65"/>
        <path class="cls-15" d="M72.83,64.82c1.62,1.72,2.96,4.96,1.69,7.17l-.26-.07c.02-2.45-.89-4.75-1.42-7.1"/>
        <path class="cls-15" d="M74.12,42.79c.06.6-.22,1.13-.49,1.64-.09.16-.97,1.6-1.2,1.35-.08-.72.27-1.44.63-2.04.23-.39.53-1.01,1.06-.95"/>
        <path class="cls-15" d="M73.35,36.21c.4-.26.77-.27.59.33-.25.82-1.18,1.72-1.37,2.6-.38.32-.27-.82-.25-.97.09-.64.48-1.6,1.03-1.96"/>
        <path class="cls-15" d="M73.48,78.3c.57,1.63.67,2.86-.01,4.49l-.58-3.12-.91-2.61-1.24-1.96c1.52.21,2.28,1.89,2.74,3.2"/>
        <path class="cls-15" d="M73.44,30.69c.24-.05.28,0,.42.17-.32.33-.64,1.78-1.23,1.63-.54-.45.32-1.68.81-1.81"/>
        <path class="cls-15" d="M73.36,17.3c.08.09.1.17.1.25,0,.17-.11.35-.11.54-.02.5.05,1.01-.07,1.5l-1.63.38v-3.12c.41,0,1.45.14,1.71.45"/>
        <path class="cls-15" d="M71.07,65.86c1.2.57,2.11,2.27,2.02,3.58-.01.24.04.42-.2.59l-1.83-4.17h.01Z"/>
        <path class="cls-15" d="M72.82,89.58c0,.24.12.41-.19.39-1.8-.13-2.77-.86-4.2-1.81-.6-.39-1.2-.98-1.83-1.31-.97-.5-2.37-.49-3.01-1.41-.3-.42-.37-.96-.58-1.38-.8-1.58-3.81-2.88-5.45-3.41-1.99-.65-6.69-.96-4.97-4.2.46-.86,1.5-1.38.93-2.51.59.09.82.71.79,1.24-.03.91-1.96,2.27-.91,3.24.47.45,3.33,1.08,4.2,1.41,1.51.58,5.32,2.46,5.98,3.92.24.52.18,1.26.63,1.59.39.28,1.64.47,2.26.74,1.34.58,2.36,1.65,3.64,2.35.78.42,1.85.86,2.69,1.15"/>
        <path class="cls-15" d="M71.91,43.57c-.37.88-.52,1.83-.89,2.7-.07.15-.79,1.78-1.07,1.48-.03-.84.18-1.67.5-2.44.25-.61.73-1.65,1.46-1.74"/>
        <path class="cls-15" d="M71.46,79.15c.29.79.63,2.22-.07,2.85-.27-1.83-.95-3.6-2.09-5.07.99-.09,1.85,1.4,2.15,2.22"/>
        <path class="cls-15" d="M71.39,38.75c.12,1.23-.87,2.53-1.83,3.26.02-.7.18-1.45.47-2.08.24-.5.71-1.31,1.36-1.19"/>
        <path class="cls-15" d="M71,30.67c.17.17-.45,1.87-1.04,1.7-.05-.8,0-1.83,1.04-1.7"/>
        <path class="cls-15" d="M70.61,35.75c.24.25-.87,2.9-1.18,3.07-.1.07-.27.12-.37.04l-.26-.54c.5-.79.7-2.52,1.81-2.57"/>
        <path class="cls-15" d="M69.89,70.94l-2.55,5.47c-.38-2,.71-4.54,2.55-5.47"/>
        <path class="cls-15" d="M68.72,30.02c.22.15.22.33.2.58-.05.48-.88,3.13-1.16,3.4-.13.12-.2.24-.4.2.01-.24-.11-.45-.1-.68.03-.46.47-2.16.66-2.61.1-.22.54-.93.81-.88"/>
        <path class="cls-15" d="M68.78,40.45c.28.34-.79,3.49-1.43,3.77-.43-1.32.29-3.07,1.43-3.77"/>
        <path class="cls-15" d="M68,69.24l-1.95,3.65c-.32-.8-.03-1.48.36-2.18.33-.58.9-1.35,1.59-1.48"/>
        <path class="cls-16" d="M52.23,48.76c.03.1.03.2.02.29,4.82,5.3-3.61,9.52-6.81,11.66,3.26-2.18,7.61-2.18,9.79-5.44,2.13-3.19,1.12-6.38-3-6.51"/>
        <path class="cls-1" d="M65.83,46.46c-.55-.32-1.33.32-1.94.5-1.37.43-3.38.31-4.83.13-1.19-.15-2.31-.4-2.77-1.66-.2-.51.28-2.14.58-2.63.39-.67,1.41-1.14,2-1.63l-3.9-3.39c-3.57-3.1-4.36-7.06-1.24-10.89.5-.62,1.17-1.03,1.76-1.56-3.54.47-7.14,1.33-10.08,3.4-2.37,1.69-4.15,4.03-4.63,6.97-.07.42-.23,1.57-.13,1.92.03.08.15.26.25.15.55-.35,1.15-.54,1.82-.47.12.11-.27.85-.36,1-.11.18-.93,1.12-.81,1.22.78,0,1.71-.41,2.41.13l-.73,1.17c.62,0,1.95.35,1.96,1.11,0,.27-.29.43-.26.71.15.15,3.13-1.01,2.68.52l-1.02.77-.09.27c.8.27,1.66.55,2.22,1.24l-.77.67c-.12.46.79,1.12.38,1.64l-1.17.62c.04.65,1.3,1.58.98,2.21-.21.41-.88.21-1.28.29-.25.05-.54.37-.85.78-.52.68-1.07,1.62-1.45,2-1.49,1.46-5.52,3.84-7.45,5.06-4.89,3.12-12.87,6.88-15.61,12.16-1.05,2.03-.22,4.25-.41,6.43.13.14,1.36-1.02,1.45-.07.02.28-.53,1.99-.62,2.51-.09.49-.18.97-.17,1.47.18.18,2.03-1.65,2.61-1.44-.45,1.75-.77,3.52-.65,5.34l1.7-.91-.13,3,1.95-1.11.91-.07.42-.41c-.2-.2-.38-.42-.53-.72-.74-1.41-.25-2.27-.27-3.62-.03-2.05-3.02-3.2-4.24-4.63-1.42-1.66-1.69-4.99.72-5.86l.65.13c.04-.39.09-.77.15-1.08.3-1.49,3.75-3.33,5.1-3.91.42-.17,1.2-.53,1.62-.6.57-.09.88.1,1.27.49.87.87,1.86,2.44,2.68,3.46.35.45.64.72.9,1.03l1.92-.23c-.39-.72-.57-1.51-.29-2.44.49-1.64,2.39-3.2,4.11-3.38-.18.15-.37.32-.55.47l2.79.98c.55-1.36,1.73-2.23,3.06-2.99.65-.37,2.15-.81,2.52-1.12.95-.79,2.11-3.36,3.12-4.4,1.71-1.77,4.55.24,6.46.77.75-.53,1.02-1.9,1.96-2.17.26-.08.15.07.18.18.18.58.08.93,0,1.51l1.71-1.36c.51-.71-.74-2.51-.01-2.88.5-.26,1.7.95,2.22,1.11v-2.41s.15-.75.18-.85c.04-.15.14-.28.27-.39l1.49,1.3c.46-1.61-.4-4.73-1.9-5.58M50.4,33.8l-.33,1.16c.32.43,1.1.41,1.44.79.39.45.03,1.15.32,1.5.38.28.87.3,1.28.55.74.43.84,1.09,1.23,1.76.17.29.51.58.65.91.07.15.13.3-.09.35-1.32-.29-1.15-2.19-2.14-2.54-.33-.12-.68-.1-1.05-.26-1.12-.5-.37-1.27-.77-1.84-.54-.46-1.58-.37-1.58-1.29,0-.63.54-.88,1.04-1.1M46.16,34.96c.14-.61.78-1.02.92-1.55.11-.38.02-.72.1-1.09.15-.76,1.46-1.91,2.32-1.78-.35.72-1.72,1.2-1.71,2.01,0,.3.21.53.12.89-.04.16-.75,1.2-.91,1.44-.26.38-.57.83-.89,1.13,0-.35-.02-.7.05-1.04M55.23,55.27c-2.18,3.26-6.53,3.26-9.79,5.44,3.2-2.14,11.63-6.36,6.81-11.66-.08.56-.81.93-.79,1.37,0,.52,1.72.9,1.4,2.45-.38,1.84-4.24,1.51-5.22,3.12-.23.39-.28.88-.57,1.26-.89,1.21-4.17,1.27-5.53,1.96-.08-.35.09-.22.25-.32,1.22-.72,4.08-1.33,4.81-2.37.26-.37.38-.93.67-1.28.96-1.16,4.13-1.48,4.7-2.34.58-.88-.68-1.28-1.06-1.84-.8-1.16.51-1.69.38-2.19-.09-.35-1.89-1.46-1.8-1.85.03-.16.23-.2.39-.14.34.12,1.95,1.22,2.15,1.5.1.13.15.26.19.37,4.12.13,5.13,3.32,3,6.51M59.13,52.69c-.16.14-.25.02-.26-.2-.07-1.85-.8-1.46-2.21-1.96-1.73-.62-1.18-1.08-2.02-2.15-.65-.83-2.46-1.28-2.55-2.4-.04-.54.26-1,.08-1.5-.73-.6-3.31-1.6-3.65-2.35-.46-.98.93-1.63,1.37-2.34-.77-.38-1.67-.66-2.44-1.02-1.03-.48-1.76-1.1-.57-1.98v.98c1.05.58,4.62.75,3.81,2.64-.25.6-1.74,1.08-1.4,1.6.2.3,2.94,1.33,3.55,1.99.66.73.11,1.13.1,1.72,0,.85,1.73,1.35,2.29,1.96.45.47.55,1.27.98,1.63,1.21,1.03,4.17.83,2.93,3.38"/>
        <path class="cls-15" d="M66.16,16.93l.92.38c-.53.68-1.36.58-1.79-.16l.1-.99.52-.22s.25.99.25.99Z"/>
        <path class="cls-15" d="M66.3,30.54c.05.97-.12,1.99-.62,2.83-.08.14.02.23-.28.17-.26-.84-.21-1.88.33-2.6.13-.18.33-.43.58-.4"/>
        <path class="cls-15" d="M65.92,9.95c.08.34-.11.22-.25.33-.47.35-1.65,1.2-1.36,1.85.11.23.4.36.43.63.08.5-.38.79-.38,1.16-.01.48.59,1.16.63,1.68-.59.72-1.34-.64-1.41-1.17-.12-.75.14-.87.49-1.45.02-.25-.7-.55-.48-1.51.12-.53,1.64-2.02,2.33-1.52"/>
        <path class="cls-15" d="M64.55,36.28c.06-.17.72-1.47.98-1.18-.09.97-.29,2.21-1.17,2.74-.05-.59,0-1.01.2-1.56"/>
        <path class="cls-15" d="M63.98,67.77c.09-.16,1.05-1.64,1.28-1.38-.27,1.24-.91,2.35-1.14,3.61-.18,1.04-.15,2.12-.36,3.16-1.07-1.4-.55-3.94.22-5.39"/>
        <path class="cls-15" d="M64.35,28.97c.05.64-.36,1.19-.91,1.44-.33-.7.11-1.51.91-1.44"/>
        <path class="cls-6" d="M63.51,42.79c.21.45,0,.91-.51.91-.12,0-.75-.12-.83-.17-.08-.04-.1-.21-.16-.29-.48,0-.14.68-.12,1.04.07,1.62-.73,2.04-2.25,1.86-1.15-.14-2.09-.79-2.58-1.86.24-.77.88-1.29,1.52-1.73,1.79-1.23,3.36-1.6,4.93.24"/>
        <path class="cls-9" d="M51.02,21.54c-.2.44-1.01.75-1.39.85-.27.08-1.15.3-1.27,0-1.22.44-2.42.93-3.58,1.5-.1.13-.2.24-.26.3-.12.12-.11.27-.37.22l.03-.22c-.41.21-.81.44-1.21.67.11.07.17.2.13.37l-1.22,2.04c-.44-.31-.05-1.4.37-2.02-1.21.72-2.35,1.54-3.44,2.41,0,.14,0,.27-.05.4-.05.16-.67,1.11-.86.9-.05-.17-.07-.36-.06-.54-.35.3-.67.63-1,.95.14,0,.25.09.28.31-.43.79-.67,2-1.18,2.72-.12.15-.15.26-.37.22-.26-.45,0-1.59.37-2.38-.93.97-1.76,2.02-2.54,3.12,1.15-.3,1.98-.38,2.03,1.6.7-.15,1.27-.68,1.96-.85,1.22-.29.52.51-.03.88-.4.26-2.1,1.11-2.49,1.02l-.22-1.7c-.75.09-1.51.47-2.27.58-.37.61-.74,1.23-1.06,1.88,5.44,0,10.88,4.35,10.88,6.53-1.26,3.46-3.61,6.01-6.45,8.2.06,1.43-.21,3.02-1.35,3.53v-2.54c-1.4.99-2.9,1.92-4.41,2.85-.27.31-.86.72-.94.8-.41.39-.8.86-1.24,1.24-.14.12-.21.3-.45.26,0-.27.05-.53.15-.78-.76.47-1.52.95-2.27,1.45.12.91.05,1.99-.22,2.66-.13.33-.36.81-.78.71-.05-.92.08-1.84.08-2.75-.44.3-.87.61-1.3.92-.11.52-.45,1.36-.75.6v-.02c-2.63,2.04-4.95,4.42-6.56,7.52.02,0,.05.02.06.05l-.35.52c-.14.29-.28.58-.4.88,2.23-1.12,3.6-.22,4.85,1.2,1.46-3.36,5.33-5.89,8.03-7.93l.64-2.69c.6.37.37,1.27.39,1.89.01.2-.05.23.2.2l4.76-2.66.91-2.81c.84.52.39,1.44.45,2.21,3.68-2.26,7.48-4.37,10.62-7.36-.2-.22-.97.16-.91-.26.12-.88,1.66-1.24,1.69-1.42-.7-1.32-.62-1.59.52-2.48-.63-.7-1.27-1.33-.25-2.02-.46-.11-1.56-.35-1.76-.78-.2-.37.52-.51.46-.91l-1.83.13.52-1.69c-.83-.17-1.99-.07-2.61-.72-.16-.17-.13-.1,0-.26.21-.25.52-.42.66-.72-.62.02-1.22.43-1.82.11-.24-.35.41-1.23.64-1.54v-.13c-.27.14-1.53.88-1.7.65-.48-3.18.02-6.1,1.9-8.72.49-.67,1.67-1.74,1.99-2.31.25-.47.15-.99.73-1.36.47-.32.64.21,1.01.12l1.79-1.03-.27-.2c0-.33.18-.55.4-.78.65-.7,1.25-.47.65.34v.13c.15-.1.49-.33.62-.36.82-.23,1.25-.07,2.11-.63.33-.22.47-.69.97-.59.12.02.11.27.21.34.22.14,1.89-.15,2.23-.26.6-.2,1.14-1.34,1.88-1.5.78-.16-.03.92-.07,1.17.13.13,1.02-.59,1.24-.65.38-.11.11.56.2.65.74-.07,1.72-.16,2.34-.6.32-.22.93-.98,1.27-1.08.27-.09.59.15.98.09.3-.05,1.34-.52,1.66-.68.13-.07.29-.03.26-.21-1.13-.48-2.28-.89-3.45-1.23-3.08.15-6.15.66-9.1,1.49M26.04,62.93c-.13.11-.17.25-.39.2l.46-5.21c1.22,1.04,1.11,4.02-.07,5.01M36.2,55.56c-.14-1.62.88-3.81,2.61-4.05-.67,1.21-1.37,2.4-2.12,3.56-.13.22-.17.57-.49.49M40.37,53.81c-.28.43-1.54,1.46-2.02,1.88-.14.13-.22.32-.46.26-.34-.37,1.65-3.18,2.61-2.61.03.21-.02.3-.13.47M37.22,33.19c-.14.2-.34.5-.63.48-.02-.24,0-.43.07-.66.13-.49.73-1.96,1-2.38.28-.45.87-.78,1.13-1.22.43-.72.5-2.22,1.59-2.13.22.25-.7,2.46-.93,2.78-.27.38-.76.52-.98.78-.39.45-.84,1.76-1.24,2.35M38.68,34.96c-.68-.03-.35-1.22-.2-1.69.29-.86.94-1.08,1.11-1.4.46-.88.25-2.5,1.43-2.9l.12.61-2.47,5.38h.01ZM44.35,25.85c-.04.14-1.45,1.95-1.58,1.95-.36-.25-.08-.68.04-1,.22-.52.54-1,1.03-1.32.3-.1.63.01.5.37M45.32,25.59c-.02-.82.47-1.95,1.44-1.83.33.52-1.15,2.11-1.44,1.83M49.37,23.76l.73-.5.57.3c-.34.37-1.18,1.01-1.29.2M52.42,22.33c-.16.13-.27.13-.33-.07-.05-.4,1.14-1.52,1.44-1.24.29.28-.92,1.16-1.11,1.3M53.27,22.98c.28-.66.76-1.38,1.57-1.3-.09.78-.75,1.43-1.57,1.3M56.53,21.67c.21-.65.82-1.39,1.56-1.3.1.77-.86,1.33-1.56,1.3M57.71,22.98c.17-.9,1.01-1.65,1.95-1.57.2.6-1.72,1.78-1.95,1.57"/>
        <path class="cls-11" d="M35.65,26.99c-1.92-.36-3.88-.79-5.84-1.25-.25.41-.81.62-1.22.76-.34.11-.67.2-1,.23.59.08,1.17.17,1.75.29,2.1-.03,4.21-.04,6.31-.04"/>
        <path class="cls-7" d="M60.12,20.05c-3.31-.97-6.77-1.4-10.23-1.37v-.53l-3.64-.11c-.14.89-.67,1.77-1.32,2.39l.91.33c0,.15.03.27-.05.4-.26.37-3.75-.18-4.43-.03-.57-.34.12-.66.32-1.02-.55-.11-1.64.57-2.02.53-.48-.04-.28-.48-.26-.78l-1.82,1.02-11.85-.23-.2.28c.64,1-.07,2-.4,2.96h1.04c-.02.11.03.32-.01.38-.03.05-.47.2-.98.36-.62.2-1.35.43-1.58.54-.62.27-1.18.65-1.8.93-.38.04-.27-.58-.26-.78-.9.59-1.84.47-2.85.64-.42-.34-.3-.83-.21-1.3-.66-.26-2.21.63-2.66.51-.08-.02-.25-.18-.2-.29l.25-.74c-.39.12-1.89,1.36-2.22,1.04l.13-.65s-.09-.01-.13,0c-.78.22-1.49.48-2.32.61-.87.14-2.77.57-1.59-.8l-.2-.2-1.57,1.31c-.82.09-.28-1-.33-1.04-1.3.15-2.44.76-3.83.5l-.22-.63h-.85c.12-.57-.13-.9-.25-1.44-.11-.17-.53-.09-.79-.25-.3-.18-.66-1.03-.77-1.04-.83.16-1.26,1.66-.65,2.21.53.48,1.15.12,1.68.28.39.12.3.58-.24.63-1.57.18-2.49-.4-2.49-1.62h-1.5v4.4c9.44,1.48,19.37-1.86,28.99-.83h-.04c-.05-.29,0-.21.16-.28.39-.21.84-.2,1.24-.33.36-.12.72-.29,1.08-.42.25-.08.5-.15.77-.14-.02.11-.08.2-.13.29,1.97.46,3.92.89,5.84,1.25-9.79,0-19.58,0-29.36,3.26,1.51,0,2.98.1,4.43.29.04-.07.08-.12.14-.14.13,0,.24.08.33.2.52.07,1.03.16,1.54.25.03-.33.15-.65.34-.84.22.3.27.63.3.97.23.05.45.09.67.14-.01-.29-.02-.8.2-.84.55.18.89.62,1.03,1.14.51.13,1.02.27,1.52.42.02-.27.05-.53.12-.78.46.26.69.64.77,1.05,4.29,1.37,8.41,3.4,12.53,5.76-9.79-2.17-23.93-3.26-29.37,5.44-4.08,6.12,10.03,3.63,12.68,10.48.17-.05.34-.07.51-.05-.11.18-.24.35-.36.53.09.32.17.65.22,1.01-.27-.06-.53-.12-.8-.18-.05.07-.11.15-.16.22-.31.47-1.56,2.83-1.97,2.85-.78-.77.07-2.07.61-2.77.13-.17.28-.35.45-.53-.99-.22-1.98-.43-2.98-.63.69.94,1.09,2.56.56,3.56-.29.04-.22,0-.29-.17-.31-.64-1.25-2.79-1.48-3.62-3.36-.65-6.73-1.14-10.09-1.21.02,13.88.03,27.76,0,41.63h28.03c-.33-.73-.05-1.57,0-2.28.09-1.12.14-2.22.38-3.32-.38.22-1.54,2.3-2.02,1.57-.1-.38-.09-.83-.02-1.22s.47-.87.48-1.07c0-.17-.12-.4-.13-.65-.01-.59.02-1.17.01-1.76-.75.67-1.28,1.82-1.95,2.52-.14.14-.23.09-.4.09-.38-1.05.78-1.8.9-2.55.12-.73-.05-1.69.01-2.47.05-.7.32-1.45.39-2.14-1.61,1.39-2.32,3.51-3,5.47-.3.05-.21-.03-.28-.16-.49-.82-.2-1.85.13-2.67.15-.37.89-1.52.91-1.69.02-.16-.21-.47-.24-.76-.07-.5-.01-1.15.13-1.63h-.13c-.32.5-.61,1.01-.84,1.57-.25.58-1.13,3.46-1.39,3.62-.09.05-.25.03-.36.01-.54-1.03-.35-2.11-.02-3.19.5-1.62,1.47-2.07,1.31-4.04-.04-.52-.22-1.16-.45-1.63-.3.33-2.41,2.88-2.81,2.48-.11-.63.34-1.12.72-1.57.54-.65,1.27-1.32,2.13-1.45.08-.87-.05-1.79.02-2.65.06-.78.27-1.52.58-2.23-1.25-1.42-2.62-2.31-4.85-1.2.13-.3.27-.59.4-.88l-3.05,4.57c-.26.33-.61.5-1.04.46v-5.22l.4.09c.51.84.61,1.83.71,2.78.82-1.18,1.55-2.45,2.89-3.11.1-.04.26-.19.37-.14,1.61-3.1,3.93-5.48,6.56-7.52-.17-.46-.76-3.57-.64-3.7,1.05,0,1.49,2.1,1.42,2.91,0,.06-.02.13-.03.21.43-.32.86-.62,1.3-.92,0-.77-.09-1.53-.47-2.27.5-.59.97.21,1.16.66.11.27.18.61.23.98.75-.49,1.51-.97,2.27-1.45.38-1.03,1.5-1.78,2.58-1.83.07.06,0,.18-.11.31,1.52-.93,3.01-1.86,4.41-2.85v-4.5c.65.16.99,1.2,1.13,1.79.11.46.19,1.07.22,1.71,2.84-2.19,5.19-4.74,6.45-8.2,0-2.18-5.44-6.53-10.88-6.53.33-.65.69-1.27,1.06-1.88-.45.07-.89.04-1.32-.19v-.91c-.77.26-1.55.62-2.4.52l.2-1.83-1.44,1.57c-.67-.04-.9-.71-1.36-1.04,0,.32.01.62-.04.95-.02.15-.05.42-.28.35-.6-.23-.21-2.11-.02-2.63.05-.17.01-.42.28-.36.55.08.66,1.38.98,1.83.85-.4,1.45-1.53,2.47-1.44l-.39,1.7c.12.1,2.38-.8,2.92-.75.6.07.59.63.22,1.01.43-.08.85-.2,1.23-.3.78-1.1,1.61-2.16,2.54-3.12.18-.38.38-.69.56-.78.13-.06.24-.09.34-.08.33-.32.65-.65,1-.95.02-.62.35-1.23.98-1.41v.64c1.09-.87,2.23-1.69,3.44-2.41.15-.23.31-.4.43-.44.12-.03.22,0,.3.04.4-.23.8-.46,1.21-.67l.12-.88c.21-.33.83-.54.88-.03,0,.11-.22.38-.41.61,1.16-.57,2.36-1.06,3.58-1.5,0-.03-.03-.07-.02-.11l.38-.61c-.73.1-1.47.59-2.09-.07l2.94-1.23-.33,1.42c.1.11,1.48-.83,1.83-.46,0,.07-.02.13-.05.19,2.96-.83,6.03-1.34,9.1-1.49M26.42,25.39c-.4.15-.84.73-1.01-.03.05-.18.22-.38.44-.56.51-.42,1.29-.72,1.56-.25l.04.51c-.08.02-.15.05-.23.07-.27.08-.54.16-.8.26M30.73,23.89c-.12-.65.6-.51,1.04-.65.07.39-.89.79-1.04.65M9.49,68.46c.96.88.93,3.26,0,4.18v-4.18ZM8.53,81.6c.29.57.7,1.68.24,2.24l-1.37-3.25c.52-.05.92.6,1.13,1.01M7.79,70.81l-.37-.22c-.03-.76-.2-1.43-.15-2.2.01-.21.09-.34.26-.2.37.86.57,1.7.26,2.61M7.53,58.03c-.32.04-.43-.32-.58-.52-.41-.61-.92-1.48-1.27-2.12-.1-.2-.26-.38-.24-.61,1.37.38,2.3,1.86,2.09,3.25M5.08,57.03c.12.36.28,1-.29,1l-1.03-2.21c.54.22,1.12.61,1.33,1.21M5.31,89.78c-.53-.57-1.08-1.38-1.62-1.9-.23-.22-2.65-1.98-2.28-2.34,2.13.51,4.3,2.45,4.56,4.69-.12.14-.55-.35-.65-.45M9.8,90.88c-.27.05-.36-.09-.5-.26-.96-1.1-2.34-3.5-3.13-4.83-.11-.2-.84-1.33-.73-1.42.41-.05.62.1.91.33,1.03.82,3.72,4.46,3.66,5.74-.01.2-.03.34-.22.45M13.13,91.14c-.38-.02-.78.14-1.03-.21-.21-.28-.79-2.9-.65-3.05.51-.05.99.66,1.2,1.08.14.3.64,2.04.49,2.17M15.48,91.08c-.14.05-.37.12-.5.03-.09-.05-.27-.53-.29-.68-.11-.95-.09-1.98-.2-2.94-.02-.21-.09-.24.14-.39,1.18.26,1.69,3.54.85,3.98M16.78,80.46l-1.37,4.69c-.82-.71-.52-1.82-.26-2.73.22-.77.7-2.02,1.63-1.96M18.86,72.64l-1.3,1.37-2.74,2.27c.08-1.85,2.2-3.68,4.04-3.64M17.18,70.29l-2.54,3-.98.9c.03-1.79,1.7-3.81,3.52-3.9M13.26,81.56c.5,1.35.7,2.73.26,4.11l-.29-.16-1.78-6.09c.95.23,1.5,1.29,1.82,2.14M11.05,85.28l-2.02-5.6c1.08.68,1.72,1.75,2.15,2.92.27.75.93,2.38-.13,2.68M5.44,47.74l-.29-.16-1.78-3.1c1.53-.35,2.63,1.96,2.08,3.26M7.4,48l-1.89-3.9c1.73.4,2.38,2.31,1.89,3.9M8.77,48.4c-.54-.11.08-1.7.21-2,.29-.64.7-1.19,1.23-1.65.14-.13.21-.32.46-.26.03.26-.05.49-.13.73-.12.38-1.15,2.84-1.32,2.98-.11.11-.28.18-.45.21M10.99,48.4c-.14.14-.23.3-.46.26-.14-1.67,1.3-3.31,2.99-3.39.05.24-.13.32-.26.46-.75.85-1.51,1.88-2.27,2.68M12.22,49.57c-.02-1.13,1.36-2.08,2.41-1.97.5.05.82.35.28.68-.79.52-1.87.78-2.7,1.28M12.87,58.55c.35-1.33,1.18-2.53,2.52-3.01.63-.24.88-.23,1.52.02-.25.7-1.14.82-1.74,1.2-.23.14-.53.38-.74.55-.24.2-1.29,1.5-1.57,1.24M14.7,59.6c.1-1.08,1.74-1.35,2.48-.72-.65.7-1.58.78-2.48.72M19.13,50.74c1.1.22,1.25,1.46.77,2.34l-.77-2.34ZM20.82,60.77c-.51-1.15-.45-2.52-1.3-3.51,1.66-.13,2.48,2.55,1.3,3.51M21.67,53.87l-.72-3.9c.28-.03.49.27.63.47.64.92.81,2.53.09,3.44M23.43,55.43v-4.83c1.2,1.08,1.31,3.82,0,4.83M28.51,50.86c.05.25-.13.32-.26.46-.61.71-1.08,1.08-1.59,1.94-.43.74-.68,1.69-1.27,2.31-.13-1.88,1.12-4.39,3.12-4.7M29.29,53.02c-.77,1-1.71,2.12-2.55,3.06-.13.14-.18.33-.43.27,0-1.71,1.57-3.55,3.25-3.78.07.25-.14.32-.26.46M32.62,47.35c.88.88,1.01,2.38.82,3.56-.03.16-.38,1.15-.62.87l-.4-3.98.21-.45h0ZM31.38,49.18l-.59-1.57c.67.34.88.85.59,1.57M34.02,27.91c-.1.51-.18,1.26-.82,1.33l-.24-.49c-.1-.38.49-1.18.95-1.21.26.18.14.18.11.37M34.77,31.24c-.12.15-.24.07-.39.08-.24-.91-.18-2,.45-2.74.09-.1.48-.52.59-.39.04.84-.12,2.38-.64,3.06M37.92,25.14c-.11.37-.32.71-.42,1.08l-.59-.11c-.25-.53.33-1.46.92-1.3.26.2.14.16.09.34M39.32,26.49l-.45-.12c-.2-.49-.04-.92.26-1.3,1.28-.51.36.86.18,1.42M40.63,25.85c-.09-.63.23-1.24.91-1.3.09.58-.25,1.33-.91,1.3"/>
        <path class="cls-11" d="M27.59,26.74c-.28.03-.57,0-.86-.11-9.62-1.03-19.55,2.31-28.99.83,0,8.44.01,16.88.02,25.32,3.36.07,6.73.56,10.09,1.21-.02-.07-.04-.15-.05-.19-.01-.1-.05-.3.07-.32.19,0,.79.29.93.43.09.09.18.2.26.31.99.2,1.98.41,2.98.63.42-.47.95-.92,1.5-1.07-2.66-6.85-16.76-4.36-12.68-10.48,5.44-8.7,19.58-7.61,29.36-5.44-4.12-2.35-8.24-4.38-12.53-5.76.09.49-.02,1.04-.25,1.56-.3.05-.21-.03-.29-.17-.3-.5-.38-1.08-.34-1.66-.51-.15-1.02-.29-1.53-.42.24.87-.04,1.98-.71,2.51-.22-.83-.47-1.83-.52-2.67v-.14c-.22-.05-.45-.09-.67-.14.03.38.02.76.16,1.12-.63,0-.86-.64-.8-1.25-.51-.09-1.02-.18-1.54-.25.36.45.36,1.56.05,1.63-.54-.05-.72-1.28-.52-1.69-1.45-.18-2.92-.29-4.43-.29,7.68-2.56,15.37-3.11,23.05-3.23-.58-.12-1.17-.21-1.75-.29M19.64,32.89c.66.49.78,1.65,0,2.08,0,0,0-2.08,0-2.08Z"/>
        <path class="cls-8" d="M13.9,55.27c-.05-.36-.12-.69-.22-1.01-.2.28-.39.55-.58.83.27.06.53.12.8.18"/>
        <path class="cls-15" d="M62.95,74.76c.82,1.01.5,2.74.1,3.87-.21-.02-.39-.75-.39-.85v-3.2c.3-.07.22.07.29.17"/>
        <path class="cls-15" d="M62.66,89.9c.37.33.88.73.78,1.24-.53-.05-.91-.25-1.35-.54-1.36-.89-2.61-2.21-3.96-3.14-.49-.66-.2-1.42-.36-2.19-.22-1.04-.94-1.39-1.81-1.84-1.89-.96-6.95-2.56-8.04-4.08-1.45-2.02,1.66-4.33,2.34-6.11-.05-.24-1.81-.91-2.16-1.1-.62-.33-2.9-1.58-3.23-1.99-.11-.14-.23-.32-.21-.51.04-.01.09-.01.13-.01.17,0,.33.04.49.11,1.37.5,3.73,1.59,5.04,2.26,2.26,1.19.74,2.09-.43,3.32-.66.69-1.71,1.41-1.83,2.47-.16,1.34.59,1.75,1.64,2.26,2,.97,4.25,1.64,6.26,2.6,1.28.62,2.68,1.27,2.66,2.96,0,.55-.33.84.11,1.44,1.22,1.01,2.74,1.82,3.92,2.86"/>
        <path class="cls-16" d="M43.32,82.6c-.03.32-.06.64-.06.94,0-.32.02-.63.06-.94"/>
        <path class="cls-16" d="M43.33,82.5s0,.07,0,.1c0-.03,0-.07,0-.1"/>
        <path class="cls-1" d="M43.33,82.5c.49-3.99,3.52-7.45,3.11-11.29-.71-.42-1.4-.85-1.56-1.06-.11-.14-.23-.32-.21-.51.04-.01.09-.01.13-.01v-.12c-.76-.03-1.2-1.12-.72-1.7l.2-1.04c.07-.37.16-.71.29-1.02l-2.79-.98c-.57.47-1.12.93-1.6,1.48-.88.99-1.74,1.95-.96,3.31.93,1.61,3.24,3.03,3.25,5.05.26.07.52.14.79.25,1.95.98.41,4.57.07,7.65"/>
        <path class="cls-16" d="M58.13,87.45c-.49-.66-.2-1.42-.36-2.19-.22-1.04-.93-1.39-1.8-1.84-1.89-.96-6.95-2.56-8.04-4.08-1.45-2.02,1.66-4.33,2.34-6.11-.05-.24-1.81-.91-2.16-1.1-.3-.16-.99-.54-1.67-.93.41,3.84-2.62,7.3-3.11,11.29,0,.03,0,.07,0,.1-.03.31-.06.62-.06.94,0-.32.02-.63.06-.94,0-.04,0-.07,0-.1.34-3.08,1.88-6.68-.07-7.65-.27-.11-.54-.18-.79-.25,0,.11,0,.21,0,.32-.13,1.11-2.96,4.45-3.68,5.7-.6,1.04-.51,1.73.5,2.41,1.98,1.34,6.56,2.68,7.31,5.08.29.95.06,1.56.96,2.31l1.16.72c-.25.02-.48.03-.68.03v3.23h6.23c-.26-4.06-3.11-7.97-5.26-11.46-.44-.18-.9-.34-1.38-.48.49.14.95.3,1.38.48-.1-.16-.2-.32-.29-.48.1.16.19.32.29.48,5.08,2.12,6.85,6.99,8.9,11.46h5.54v-3.26c-.53-.05-.91-.25-1.35-.54-1.36-.89-2.61-2.21-3.96-3.14"/>
        <path class="cls-1" d="M49,82.94c2.14,3.49,5,7.4,5.26,11.46h3.64c-2.05-4.47-3.82-9.34-8.9-11.46"/>
        <path class="cls-15" d="M63.44,35.62l-.69,2.64c-.05.22-.23.28-.42.23-.62-.17.07-3.07,1.11-2.87"/>
        <path class="cls-15" d="M63.25,27.16c.54.14-.5,1.33-.72,1.16l-.07-.51c.28-.22.34-.73.78-.65"/>
        <path class="cls-15" d="M60.18,66.37c1.78.96,2.52,3.64,2.35,5.55-.02.32-.05.83-.39.98-.03-1.11-.28-2.32-.61-3.36-.35-1.1-.95-2.09-1.35-3.17"/>
        <path class="cls-15" d="M61.74,27.41l-.54,1.81h-.48c-.46-.4.66-2.16,1.02-1.81"/>
        <path class="cls-15" d="M59.5,69.59c.82,1.13,1.99,3.27,1.85,4.68-.03.35-.17.92-.52,1.1l-2.47-6.91c.2-.22,1.04.99,1.14,1.13"/>
        <path class="cls-15" d="M60.96,30.41c.23.6.13,1.21-.09,1.8-.05.15-.49,1.04-.7.82-.03-.92-.1-2.03.78-2.61"/>
        <path class="cls-15" d="M59.92,28.45c.09.72-.19,1.54-.77,1.96-.2-.74-.08-1.73.77-1.96"/>
        <path class="cls-15" d="M59.66,21.41c.2.6-1.72,1.78-1.95,1.57.17-.9,1.01-1.65,1.95-1.57"/>
        <path class="cls-15" d="M59.47,31.57c.09.15.08.31.06.46-.02.48-.16,1.62-.27,2.09-.05.23-.15.33-.33.46-.46,0-.85-2.83.15-3.1.17-.05.27-.04.38.1"/>
        <path class="cls-6" d="M59.41,59.15l-.4,1.49-1.62-1.29c-.12.1-.23.23-.27.38-.03.1-.18.94-.18.98v2.94l-2.21-.86,1.42-5,3.26,1.37h0Z"/>
        <path class="cls-15" d="M56.21,49.31c1.21,1.03,4.16.83,2.93,3.38-.16.14-.25.02-.26-.2-.07-1.85-.8-1.46-2.21-1.96-1.73-.62-1.19-1.08-2.02-2.15-.65-.83-2.46-1.28-2.54-2.4-.04-.54.26-1,.08-1.5-.73-.6-3.31-1.6-3.65-2.35-.46-.98.93-1.63,1.37-2.34-.77-.38-1.67-.66-2.44-1.02-1.03-.48-1.76-1.1-.57-1.98v.98c1.05.58,4.62.75,3.81,2.64-.25.6-1.74,1.08-1.4,1.6.2.3,2.94,1.33,3.55,1.99.66.73.11,1.13.1,1.72,0,.85,1.73,1.35,2.3,1.96.45.47.55,1.27.98,1.63"/>
        <path class="cls-15" d="M58.09,20.37c.1.77-.86,1.33-1.56,1.31.21-.65.82-1.39,1.56-1.31"/>
        <path class="cls-15" d="M57.63,29.36c.28.2.15.27.12.5-.1.62-.32,1.22-.31,1.85-.21.24-.48-.53-.5-.62-.1-.55.07-1.52.69-1.73"/>
        <path class="cls-15" d="M57.58,33.41c.08.09-.17,2.15-.26,2.4-.05.16-.11.38-.33.33-.52-.34-.55-.88-.43-1.47.04-.21.76-1.56,1.02-1.26"/>
        <path class="cls-13" d="M56.67,11.05l.5,1.48c-.81.35-1.12,1.12-1.47,1.86-.35.2-.76.18-1.12.32-1.19.45-1.16,1.7-2.23,2.47-.8.58-.85.23-1.62.21-1.53-.05-3.07-.05-4.6-.15.04-.43-.52-.63-.54-.97-.03-.28.21-.5.26-.78.11-.71,0-1.57-.46-2.13-.6-.72-.35-.41-.71-1.25-.39-.9-1.36-1.23-2.16-.6-.8-1.69-2.24-1.64-3.45-.38-.18-1.73-1.78-4.13-3.6-2.62-1.28-.71-2.1-.13-3.11.67-.88-.35-1.67-.8-2.59-.28-.67-.71-1.53-.73-2.44-.89.43-.62.65-1.78.08-2.36-.22-.22-.5-.23-.65-.38-.42-.42-.42-1.02-1.2-1.41-.7-.34-1-.06-1.39-.16-.22-.07-.51-.53-.75-.7-.98-.65-1.88,0-2.43.85-1.67-.55-2.54,1.01-2.65,2.47-1.18-.52-2.11.39-2.22,1.55-.43-.04-.72.04-1.1.14-.11,0-.14-1.38-1.01-1.85-.8-.42-1.52-.23-2.31.09-.2.08-1.12.64-1.17.59.02-1.73-1.44-2-2.68-1.04-.15.13-.97,1.09-1.11.91-.08-.82-.65-1.42-1.24-1.95-1.38-1.23-3.04-2.12-2.94.64-1.02-.96-2.5-1.45-3.33.01l-1.49-.4V-.22c10.14.05,20.26-.08,30.38,0,.65,1.04,1.53.91,2.35.13.22,1.54,1.92,1.6,2.35.13.33-.03.45.36.77.46.64.21,1.37.03,1.44-.72.17,0,.35,0,.52,0,.1,1.28.95,2.59,2.33,2.62.2,1.11.69,1.64,1.85,1.34.3.82.7,1.71,1.75,1.51.26-.04.35-.3.6-.26.21,1.53,1.74,1.55,2.41.26.25-.05.65.86,1.4.63.24-.08.32-.45.61-.37.12.75.87,1.61,1.7,1.24.28-.13.27-.51.52-.59.09.66.77,1.71,1.49,1.7.27,0,.55-.2.85-.13.16,1.3.9,2.07,2.22,1.43.11.38.43,1.2.78,1.37.51.25.9-.38,1.36-.34l.47.73.78.12h0Z"/>
        <path class="cls-15" d="M56.22,31.05l-.21,1.58c-.78-.02-.88-1.63-.2-1.71l.4.13h0Z"/>
        <path class="cls-6" d="M53.4,59.15c.67-.82,1.13-1.61,2.35-1.37-.3,1-.74,1.97-.98,2.99-.52,2.16-.96,4.35-2.18,6.3-.72,1.15-1.28,1.88-2.51.87-.66-.54-.79-.89-.73-1.76.11-1.34,3.08-5.85,4.05-7.03"/>
        <path class="cls-15" d="M55.49,28.45c0,.57.03,1.07-.65.91,0-.57-.03-1.07.65-.91"/>
        <path class="cls-8" d="M55.43,23.76c.09.04.09.09,0,.13v-.13Z"/>
        <path class="cls-15" d="M54.99,40.49c.06.15.13.31-.09.35-1.32-.29-1.15-2.19-2.14-2.54-.33-.12-.68-.1-1.05-.26-1.12-.5-.37-1.27-.77-1.84-.54-.46-1.58-.37-1.58-1.29,0-.63.54-.88,1.04-1.1l-.33,1.16c.32.43,1.1.41,1.44.79.39.45.03,1.15.32,1.5.38.28.87.3,1.28.55.74.43.84,1.09,1.23,1.76.17.29.51.58.65.91"/>
        <path class="cls-15" d="M54.84,21.67c-.09.78-.75,1.43-1.57,1.31.28-.66.76-1.38,1.57-1.31"/>
        <path class="cls-15" d="M54.58,31.32c.11.87.14,1.61-.07,2.48-.16.71-.59-.16-.66-.52-.05-.29-.09-.53-.04-.84.03-.24.46-1.53.77-1.12"/>
        <path class="cls-15" d="M53.53,21.02c.29.28-.92,1.16-1.11,1.31-.16.13-.27.13-.33-.07-.05-.4,1.14-1.52,1.44-1.24"/>
        <path class="cls-15" d="M51.46,50.42c0,.52,1.72.9,1.4,2.45-.38,1.84-4.24,1.51-5.22,3.12-.23.39-.28.88-.57,1.26-.89,1.21-4.16,1.27-5.52,1.96-.08-.35.09-.22.25-.32,1.22-.72,4.08-1.33,4.81-2.37.26-.37.38-.93.67-1.28.96-1.16,4.13-1.48,4.7-2.34.58-.88-.67-1.28-1.05-1.84-.8-1.16.51-1.69.38-2.19-.09-.35-1.89-1.46-1.81-1.85.03-.16.23-.2.39-.14.34.12,1.95,1.22,2.15,1.5.73.97-.61,1.45-.59,2.03"/>
        <path class="cls-15" d="M49.24,21.8c.1.11,1.48-.83,1.83-.46,0,.54-1,.92-1.43,1.04-.3.09-1.36.36-1.29-.11l.38-.61c-.73.1-1.47.59-2.09-.07l2.94-1.23-.33,1.42v.02Z"/>
        <path class="cls-15" d="M50.1,23.26l.57.31c-.34.37-1.19,1.01-1.29.19l.73-.5h0Z"/>
        <path class="cls-15" d="M47.18,32.32c.15-.76,1.46-1.91,2.32-1.78-.35.72-1.72,1.2-1.71,2.01,0,.3.21.53.12.89-.04.16-.75,1.2-.91,1.44-.26.38-.56.83-.89,1.13,0-.35-.02-.7.05-1.04.14-.61.78-1.02.92-1.55.11-.38.02-.72.1-1.09"/>
        <path class="cls-15" d="M47.55,90.42l1.16.72c-.25.02-.48.03-.68.03-.76,0-1.27-.19-1.74-1.06-.57-1.06-.2-2.11-1.29-3.13-1.65-1.57-6.11-2.61-7.12-4.6-1.34-2.64,1.92-5.14,3.13-7.22.5-.86.22-1.26-.26-2.03-.64-1.01-1.65-1.94-2.23-3-.39-.72-.57-1.51-.29-2.44.49-1.64,2.39-3.2,4.11-3.38-.18.15-.37.32-.55.47-.57.47-1.12.93-1.6,1.48-.88.99-1.74,1.95-.96,3.31.98,1.7,3.49,3.18,3.24,5.37-.13,1.11-2.96,4.45-3.68,5.7-.6,1.04-.51,1.73.5,2.41,1.98,1.34,6.56,2.68,7.31,5.08.29.95.07,1.56.96,2.31"/>
        <path class="cls-1" d="M32.39,83.55c2.83-3.77,4.84-9.16,8.87-9.12.03-.43-.19-.79-.51-1.31-.64-1.01-1.65-1.94-2.23-3l-1.92.23c.26.32.48.67.7,1.27.13.38.51,1.59.55,1.91.1.87-2.49,1.75-3.18,1.94-.9.23-2.34.45-3.61.49,1.78,1.99,2.11,4.52,1.34,7.59"/>
        <path class="cls-16" d="M46.29,90.1c-.57-1.05-.2-2.11-1.29-3.13-1.65-1.57-6.11-2.61-7.12-4.6-1.34-2.64,1.91-5.14,3.13-7.22.16-.28.24-.51.25-.73-4.02-.04-6.04,5.35-8.87,9.12.77-3.07.44-5.6-1.34-7.59-.68.02-1.32,0-1.79-.1-1.39-.29-2.76-1.41-4.13-1.86-.39-.29-.43-.71-.39-1.16.03-.54.08-1.24.13-1.89l-.65-.13c-.53,1.69-1.38,3.5.05,4.96,1.42,1.43,4.76,2.87,4.89,5.14.04.63-.22,1.33-.26,1.95-.21,3.17,1.43,2.53,3.56,3.74,1.73.98,3.06,2.48,3.22,4.53h-.9c-.05-1.88-1.47-3.25-3.09-4.02-1.13-.54-2.31-.62-3.14-1.47l-.42.41c-.45,1.1-.89,2.19-1.13,3.36-.35,1.7-.18,3.32-.55,4.98h21.6v-3.23c-.76,0-1.27-.2-1.74-1.07"/>
        <path class="cls-13" d="M47.67,25.46v.13c-.11.07-.22.18-.33.25l-.07-.05c.08-.15.33-.25.39-.33"/>
        <path class="cls-15" d="M46.76,23.76c.33.52-1.15,2.11-1.44,1.83-.02-.82.47-1.95,1.44-1.83"/>
        <rect class="cls-8" x="45.71" y="43.44" width=".39" height=".13"/>
        <path class="cls-15" d="M45.84,51.45l.15.23c-.52.69-1.07,1.62-1.45,2-1.49,1.46-5.53,3.84-7.45,5.06-4.89,3.12-12.87,6.88-15.61,12.16-1.05,2.03-.22,4.25-.41,6.43.13.14,1.36-1.02,1.45-.07.02.28-.53,1.99-.62,2.51-.09.49-.18.97-.17,1.47.18.19,2.03-1.65,2.61-1.44-.45,1.75-.77,3.52-.65,5.34l1.7-.91-.13,3,1.95-1.11.91-.07c-.45,1.1-.89,2.19-1.13,3.36-.35,1.7-.18,3.32-.55,4.98h-.65c-.33-.73-.05-1.57,0-2.28.09-1.12.14-2.22.38-3.32-.38.22-1.54,2.3-2.02,1.57-.1-.38-.09-.83-.02-1.22s.47-.87.48-1.07c0-.17-.12-.4-.13-.65-.01-.59.02-1.17.01-1.76-.75.67-1.28,1.82-1.95,2.52-.14.14-.23.09-.4.09-.38-1.05.78-1.81.9-2.56.12-.73-.05-1.69.01-2.47.05-.7.32-1.45.39-2.14-1.61,1.39-2.32,3.51-3,5.47-.3.05-.21-.03-.28-.16-.49-.82-.2-1.85.13-2.66.15-.37.89-1.52.91-1.68s-.21-.47-.24-.76c-.07-.5-.01-1.15.13-1.63.02-.09.22-.18.13-.39-.25.01-.2.29-.26.39-.32.5-.61,1.01-.84,1.57-.25.58-1.13,3.46-1.39,3.62-.09.05-.25.03-.36.01-.54-1.03-.35-2.11-.02-3.19.5-1.62,1.47-2.07,1.3-4.04-.04-.52-.22-1.16-.45-1.63-.3.33-2.41,2.88-2.81,2.48-.11-.63.34-1.12.72-1.57.54-.65,1.27-1.32,2.13-1.45.08-.87-.05-1.79.02-2.65.36-4.51,5.34-7.69,8.6-10.16l.64-2.69c.6.37.37,1.27.39,1.89.01.2-.05.23.2.2l4.76-2.66.91-2.81c.84.52.39,1.44.45,2.21,3.68-2.26,7.48-4.37,10.63-7.36"/>
        <path class="cls-9" d="M44.79,14.07c-.17-.25-.51-.33-.7-.61-.21-.29-.17-.6-.3-.87-.52-1.09-1.16.36-1.76.21l-.97-1.53c-1.15-.35-1.63,1.86-2.43,1.66-.64-.16-.43-1.1-.51-1.59-.16-1.03-.75-2.57-2.05-2.31-.12.11.45,1.47-.35,1.54-.6.04-.71-.67-.72-1.13-.48-.34-1.17-.33-1.61.1-.32.3-.14.85-.67.89-.53.06-1.49-1-2.25-.75.12.27-.2,1.24-.57,1.16-.43-.1-.59-1.38-1.38-1.63-.15-.04-1.65-.32-1.77-.3-.25.01-.42.33-.66.35l-.43-.11c-.05-1.07,1.2-1.59.9-2.73l-.59-.13c-.26-.53-.67-1.64-1.42-1.57-.33.03-.4.52-.89.38-.39-.12-.41-1.01-.87-1.23-.74-.34-1.33.76-1.45,1.36-.66.26-.9-.7-1.5-.26l-.86,2.34-1.32-.22c-.1.08-.28.21-.43.36,1.1.96,3.2-1.13,3.2-1.13,2.17,7.61,6.53,5.44,13.05,6.53,2.17,0,1.09,3.26,3.26,3.26,2.19-.73,5.85-1.45,8.02-.21,0-.02.02-.04.03-.06.29-.59.4-1.21,0-1.78"/>
        <path class="cls-14" d="M45.19,17.25c-1.71-.03-.83-.58-.43-1.33-2.17-1.25-5.83-.53-8.02.2-2.17,0-1.09-3.26-3.26-3.26-6.53-1.09-10.88,1.09-13.05-6.52,0,0-2.1,2.09-3.2,1.13-.2.19-.36.4-.31.58,1.25.79.88,2.1.65,3.33,1.13.3,1.3,1.22,1.16,2.27-.06.42-.33.72-.38,1.12.37-.08.74.16,1.09.13.29-.03.62-.3.96-.36,1.31-.23,2.55.37,2.51,1.79,2.31-.37,3.11,1.36,2.87,3.38,3.2-.02,6.4-.02,9.57.53.53-.22,1.88-1.48,2.35-1.45.15.01.26.07.3.22l-.04.96c.46-.18,1.88-1.42,2.22-1.44.2-.01.32.14.33.33l-.26.85c.8-.11,1.69-.51,2.47-.25l-.38.9,1.73-.02c.98-.82,1.54-1.79,1.13-3.1"/>
        <path class="cls-15" d="M44.3,23.32c.21-.33.83-.54.88-.03-.02.17-.51.74-.66.91-.12.12-.11.27-.37.22,0,0,.15-1.1.15-1.1Z"/>
        <path class="cls-15" d="M44.08,67.81l.72,1.7c-.76-.03-1.2-1.12-.72-1.7"/>
        <path class="cls-15" d="M43.85,25.48c.3-.1.63.01.5.37-.04.14-1.45,1.95-1.58,1.95-.36-.25-.08-.69.04-1,.22-.52.54-1,1.03-1.32"/>
        <path class="cls-15" d="M42.67,24.82c.3-.08.5.13.42.41l-1.22,2.04c-.6-.42.36-2.33.79-2.46"/>
        <path class="cls-15" d="M41.55,24.54c.09.58-.25,1.33-.91,1.31-.09-.63.23-1.24.91-1.31"/>
        <path class="cls-13" d="M41.42,38.62c0,.15-.22.2-.26.26v-.13s0-.21.26-.13"/>
        <path class="cls-15" d="M41.03,28.97l.12.61-2.47,5.38c-.68-.03-.35-1.22-.2-1.69.29-.86.93-1.08,1.11-1.4.46-.88.25-2.5,1.44-2.9"/>
        <path class="cls-15" d="M40.5,53.34c.03.21-.02.31-.13.47-.28.43-1.54,1.46-2.02,1.88-.14.13-.22.32-.46.26-.34-.37,1.65-3.18,2.61-2.61"/>
        <path class="cls-15" d="M40.37,27.27c.22.25-.7,2.46-.94,2.78-.27.38-.76.52-.98.78-.39.45-.84,1.76-1.24,2.35-.14.2-.34.5-.63.48-.02-.24,0-.43.07-.66.13-.49.73-1.96,1-2.38.28-.45.87-.78,1.13-1.22.43-.72.5-2.22,1.59-2.13"/>
        <path class="cls-15" d="M39.13,25.07c1.28-.51.36.86.18,1.43l-.45-.12c-.2-.49-.04-.92.26-1.31"/>
        <path class="cls-15" d="M38.81,27.02c0,.35.04.7-.05,1.04-.05.16-.67,1.11-.86.9-.22-.75.1-1.72.91-1.95"/>
        <path class="cls-15" d="M37.83,24.81c.26.2.14.16.09.34-.11.37-.32.71-.42,1.08l-.59-.11c-.25-.53.33-1.46.92-1.31"/>
        <path class="cls-15" d="M37.37,34.12c1.22-.29.52.51-.03.88-.4.26-2.1,1.11-2.49,1.02l-.22-1.7c-1.18.15-2.41,1.01-3.59.39v-.91c-.77.26-1.55.62-2.4.52l.2-1.83-1.43,1.57c-.67-.04-.9-.71-1.36-1.04,0,.32.01.62-.04.95-.02.15-.05.42-.28.35-.6-.23-.21-2.11-.02-2.63.05-.17.01-.42.28-.36.55.08.66,1.38.98,1.83.85-.4,1.45-1.53,2.47-1.44l-.39,1.7c.12.1,2.38-.8,2.92-.75.6.07.59.63.22,1.01,1.73-.33,3.2-1.34,3.25,1.29.7-.15,1.27-.68,1.96-.85"/>
        <path class="cls-15" d="M37.84,73.53c.1.87-2.49,1.75-3.18,1.94-1.38.36-4.04.68-5.41.39-1.39-.29-2.76-1.41-4.13-1.86-.39-.29-.42-.71-.39-1.16.03-.54.08-1.24.13-1.89.04-.39.09-.77.15-1.08.3-1.49,3.75-3.33,5.1-3.9.42-.17,1.2-.53,1.62-.6.57-.09.88.1,1.27.49.87.87,1.86,2.44,2.67,3.46.35.44.64.72.9,1.03.26.32.48.67.7,1.27.13.38.51,1.59.55,1.91M35.56,69.83l-2.12-2.71-.36-.23v1.96c.71.23,1.37.58,2.04.89.12.05.33.28.43.09M34.5,75.24c-.03-.98,1.17-3.12,1.03-3.94-.11-.58-1.72-1.25-2.25-1.51-1.47,1.7-3.12,3.27-4.12,5.32,1.76.35,3.57.35,5.34.13M32.8,69.44c.16-.91-.29-2.04-.27-2.98l-.41-.2c-1.49.89-3.22,1.69-4.64,2.66-.47.33-1.02.65-1.05,1.29.22.92-.55,3.5.22,4.09.43.33,1.75.72,2.21.41.57-.63.92-1.41,1.44-2.08.45-.59,2.45-2.76,2.52-3.21"/>
        <path class="cls-15" d="M38.81,51.52c-.67,1.21-1.37,2.4-2.12,3.56-.13.22-.17.57-.49.49-.14-1.62.88-3.81,2.61-4.05"/>
        <path class="cls-6" d="M37.24,19.98v.65h-.78c-.18-.16.68-.75.78-.65"/>
        <path class="cls-15" d="M36.49,29.46c.3-.14.57-.15.62.23-.43.79-.67,2-1.18,2.72-.12.15-.15.26-.37.22-.38-.66.37-2.88.94-3.17"/>
        <path class="cls-15" d="M35.68,91.14h-.9c-.05-1.88-1.47-3.25-3.09-4.02-1.13-.54-2.31-.62-3.14-1.47-.2-.2-.38-.43-.53-.72-.74-1.41-.25-2.27-.27-3.62-.03-2.05-3.02-3.2-4.24-4.63-1.42-1.66-1.69-4.99.72-5.86-.53,1.69-1.38,3.5.05,4.96,1.43,1.44,4.76,2.87,4.89,5.15.04.63-.22,1.33-.26,1.95-.21,3.18,1.42,2.54,3.56,3.74,1.73.98,3.06,2.48,3.22,4.53"/>
        <path class="cls-15" d="M35.51,49.8c.35,1.48.52,4.5-1.13,5.24v-7.04c.65.16.99,1.2,1.13,1.79"/>
        <path class="cls-6" d="M33.43,67.12l2.12,2.71c-.11.2-.32-.03-.43-.09-.67-.32-1.34-.66-2.04-.89v-1.96l.36.23h0Z"/>
        <path class="cls-6" d="M35.53,71.3c.14.82-1.07,2.96-1.03,3.94-1.77.22-3.58.22-5.34-.13,1-2.04,2.65-3.62,4.12-5.32.53.26,2.14.94,2.25,1.51"/>
        <path class="cls-15" d="M35.41,28.19c.04.84-.12,2.38-.64,3.06-.12.15-.24.07-.39.08-.24-.91-.18-2,.45-2.74.09-.1.48-.52.59-.39"/>
        <path class="cls-15" d="M32.03-.15c.23-.15,2.49-.08,2.99-.06-.07.75-.79.92-1.44.72-.33-.1-.45-.49-.77-.46-.42,1.47-2.13,1.41-2.35-.13-.82.78-1.7.91-2.35-.13.54,0,2.88-.09,3.13.06.13.08.17.36.33.46h.13c.15-.1.2-.38.33-.46"/>
        <path class="cls-15" d="M33.91,27.54c.26.19.14.19.11.37-.1.51-.18,1.26-.82,1.33l-.24-.49c-.1-.38.49-1.18.95-1.21"/>
        <path class="cls-15" d="M32.62,47.35c.88.88,1.01,2.38.82,3.56-.03.16-.38,1.15-.62.87l-.4-3.98.21-.45h0Z"/>
        <path class="cls-6" d="M32.53,66.46c-.02.94.43,2.07.27,2.98-.08.45-2.08,2.62-2.52,3.21-.51.66-.87,1.45-1.44,2.08-.46.3-1.78-.09-2.21-.41-.77-.59,0-3.17-.22-4.09.03-.64.59-.97,1.06-1.29,1.42-.98,3.15-1.77,4.64-2.67l.41.2h.01Z"/>
        <path class="cls-15" d="M31.77,23.24c.06.39-.89.79-1.04.65-.12-.65.6-.51,1.04-.65"/>
        <path class="cls-15" d="M30.79,47.61c.67.34.88.85.59,1.57l-.59-1.57Z"/>
        <path class="cls-15" d="M30.07,55.04c.24.21-.94,1-1.04,1.11-.41.39-.81.86-1.24,1.24-.14.12-.21.3-.45.26-.03-1.42,1.38-2.55,2.73-2.61"/>
        <path class="cls-15" d="M28.09,26.01c.61-.2,1.18-.58,1.85-.55-.11.61-.85.88-1.36,1.04-.64.21-1.24.38-1.89.12-.05-.29,0-.21.16-.28.39-.21.84-.2,1.24-.33"/>
        <path class="cls-15" d="M29.55,52.56c.06.25-.14.32-.26.46-.77,1-1.71,2.12-2.56,3.06-.13.14-.18.33-.43.27,0-1.71,1.57-3.55,3.25-3.79"/>
        <path class="cls-15" d="M28.51,50.86c.05.25-.13.32-.26.46-.61.71-1.08,1.08-1.59,1.94-.43.74-.68,1.68-1.27,2.31-.13-1.88,1.12-4.39,3.12-4.7"/>
        <path class="cls-15" d="M27.41,24.54l.04.51c-.34.11-.7.21-1.03.34-.4.15-.84.73-1.01-.03.15-.59,1.61-1.48,2-.82"/>
        <path class="cls-15" d="M26.1,57.91c1.22,1.04,1.11,4.02-.07,5.01-.13.11-.17.25-.39.2l.46-5.21Z"/>
        <path class="cls-15" d="M24.98,57.34c.38.94.39,2.7.01,3.64-.13.33-.36.81-.78.71-.09-1.71.45-3.41-.39-5.01.5-.59.97.21,1.16.66"/>
        <path class="cls-9" d="M23.95,21.22c-.1-.65.28-.7.54-1.14.58-.98.52-2.82-.87-2.84-.63-.01-1.15.8-1.64.47-.38-.26.36-1.46-.3-2.03-.93-.79-2,.28-2.62.28-.29,0-.46-.27-.77-.28-.54-.03-1.1.47-1.6.11-.42-.4.5-1.03.73-1.36.43-.64.82-2.02-.23-2.19-.3-.05-.83.26-.9-.42-.02-.22.4-.82.47-1.17.21-1.25.17-1.87-1.21-1.73-.71.07-1.04.64-1.74.5-.33-.57.18-.99.11-1.6-.18-1.45-1.77-.76-2.6-.26-.59.37-1.35,1.44-1.97.88v-2.08c-.38-.28-1.23.7-1.49.99-.41.45-.9,1.52-1.57,1.44-.53-.12-.28-.96-.36-1.47-.04-.34-.2-.76-.38-1.05-.2-.32-1.98-1.95-2.19-1.65-.14.6-.15,1.15-.14,1.76,0,.23.32.87-.07.98-.43.12-.73-.7-.98-.98-.48-.55-1.28-1.27-2.02-.72-.11,2.65-1.09.37-2.4.39v5.19c3.81-1.76,8.43-1.74,11.81,1.63,0,1.09,1.09,4.35-1.09,5.44,5.1,0,15.94-.96,13.68,6.1.09,0,.18.03.25.08l.05.47,1.81-.77c.16-.41.85-2.34.48-2.57-.33-.11-.72.08-.78-.38"/>
        <path class="cls-14" d="M8.46,18.29c2.18-1.09,1.09-4.35,1.09-5.44-3.37-3.37-8-3.39-11.81-1.63,0,3.94-.02,7.89-.02,11.83H-.77c0-.32.07-.66.2-1.07.09-.26.39-.6.4-.77,0-.25-.3-.53-.36-.8-.18-.83.03-1.69.52-2.35.29-.14,1.25-.33,1.4.03-1.18.11-2.08,2.85-.52,2.79,0-.91.25-1.96,1.31-2.08.04.47-.25.75-.27,1.23-.03.57.12,1.85.78,1.89.03-.26.22-.55.52-.52.01.67-.1,1.5.39,2.03.21.11,1.04-.84,1.38-.35.32.48-.52,1.14-.47,1.18l1.96-.4c.14-.2-.55-1.19-.07-1.3.26-.05.62.84.93.89.33.09.76-.46,1.22-.17.34.2-.2.57-.13.85.6-.46,1.22-.96,2-1.03.52.14-.16.96-.12,1.29,1.11-.39,2.42-.39,3.45-.99.24-.14.34-.48.66-.45.16.3.15.97-.13,1.17l.13.13c.34-.2,2.11-1.27,2.35-1.04l-.39,1.04,2.26-.39.81-1.04.33.33c.03.39-1,1.79-.32,2.01.64.08,1.95-.85,2.67-.79,2.26-7.06-8.58-6.1-13.68-6.1M20.69,23.76c-.26.02-.58.03-.65-.26l.65.13v.13Z"/>
        <path class="cls-15" d="M23.43,50.6c1.2,1.08,1.3,3.82,0,4.83,0,0,0-4.83,0-4.83Z"/>
        <path class="cls-15" d="M21.6,56.74c1.05,0,1.49,2.1,1.42,2.92-.03.42-.43,1.68-.78.8-.16-.4-.77-3.59-.64-3.72"/>
        <path class="cls-15" d="M21.58,50.43c.64.92.8,2.53.09,3.44l-.72-3.9c.28-.03.49.27.63.47"/>
        <path class="cls-6" d="M21.21,79.28c.09.21-.11.31-.13.39h-.13c.07-.1.01-.38.26-.39"/>
        <path class="cls-15" d="M19.51,57.26c1.66-.13,2.48,2.56,1.3,3.51-.51-1.15-.45-2.52-1.3-3.51"/>
        <path class="cls-13" d="M20.69,23.63v.13c-.26.02-.58.03-.65-.26,0,0,.65.13.65.13Z"/>
        <path class="cls-15" d="M19.13,50.74c1.1.22,1.25,1.46.77,2.34l-.77-2.34Z"/>
        <path class="cls-15" d="M19.64,32.89c.66.49.78,1.65,0,2.08,0,0,0-2.08,0-2.08Z"/>
        <path class="cls-15" d="M18.86,72.64l-1.29,1.37-2.74,2.27c.08-1.85,2.2-3.68,4.04-3.64"/>
        <path class="cls-15" d="M16.91,31.06c1.01.58.93,1.65.52,2.61-.3.05-.21-.03-.29-.17-.43-.73-.43-1.64-.23-2.44"/>
        <path class="cls-15" d="M17.18,70.29l-2.55,3-.98.9c.03-1.79,1.7-3.81,3.52-3.9"/>
        <path class="cls-15" d="M16.78,80.46l-1.37,4.69c-.82-.71-.52-1.82-.26-2.73.22-.77.7-2.02,1.63-1.96"/>
        <path class="cls-15" d="M14.7,59.6c.1-1.08,1.74-1.35,2.48-.72-.65.7-1.58.78-2.48.72"/>
        <path class="cls-15" d="M15.39,55.54c.63-.24.88-.23,1.52.02-.25.7-1.14.82-1.74,1.2-.23.14-.53.38-.74.55-.24.2-1.29,1.5-1.57,1.24.35-1.33,1.18-2.53,2.52-3.01"/>
        <path class="cls-15" d="M15.74,68l-3.39,5.09c-.26.33-.61.5-1.04.46v-5.22l.4.09c.51.84.61,1.83.71,2.79.82-1.19,1.55-2.45,2.89-3.11.12-.05.34-.27.44-.09"/>
        <path class="cls-15" d="M14.63,87.1c1.18.26,1.69,3.55.85,3.98-.14.05-.37.12-.5.03-.09-.05-.27-.53-.29-.68-.11-.95-.09-1.98-.2-2.94-.02-.21-.09-.24.14-.39"/>
        <path class="cls-15" d="M14.63,47.6c.5.05.82.35.28.69-.79.52-1.87.78-2.7,1.28-.02-1.13,1.36-2.08,2.41-1.97"/>
        <path class="cls-15" d="M14.24,30.28c1.48.48,1.39,2.81.33,3.65-.22-.83-.47-1.83-.52-2.68-.01-.22-.07-.92.2-.98"/>
        <path class="cls-15" d="M14.43,22.98c.16.31.15.97-.13,1.18-.12.09-.57.07-.65.39-.78.22-1.49.48-2.32.61-.87.14-2.77.57-1.59-.8l-.2-.2-1.57,1.3c-.82.09-.28-1-.33-1.04-1.31.15-2.44.76-3.83.5l-.22-.63h-.85c.12-.57-.13-.9-.25-1.43-.11-.18-.53-.09-.79-.25-.3-.18-.66-1.03-.77-1.04-.83.16-1.26,1.66-.65,2.21.53.48,1.15.12,1.67.28.39.12.3.58-.24.63-1.57.18-2.49-.4-2.49-1.62,0-.32.07-.66.2-1.07.09-.26.39-.6.4-.77,0-.25-.3-.53-.36-.8-.18-.83.03-1.68.52-2.35.29-.14,1.25-.33,1.4.03-1.19.11-2.08,2.85-.52,2.8,0-.91.25-1.96,1.3-2.08.04.47-.25.75-.27,1.23-.03.57.12,1.85.78,1.89.03-.26.22-.56.52-.52.01.67-.1,1.5.39,2.03.21.11,1.04-.84,1.38-.35.32.48-.52,1.14-.47,1.18l1.96-.4c.14-.2-.55-1.19-.07-1.29.26-.05.62.84.94.89.33.09.76-.46,1.22-.17.34.2-.2.57-.13.85.6-.46,1.22-.96,2-1.03.52.14-.16.96-.12,1.29,1.11-.39,2.41-.39,3.45-.99.24-.14.34-.48.66-.45"/>
        <path class="cls-13" d="M14.3,24.15l.13.13s-.05.17-.22.24c-.16.05-.33-.01-.43.02-.04.01-.09-.01-.13,0,.09-.33.53-.3.65-.39"/>
        <path class="cls-15" d="M11.59,55.39c.55-.72,1.5-1.76,2.46-1.65-.33.55-.75,1.04-1.1,1.58-.3.47-1.55,2.83-1.97,2.85-.78-.77.07-2.07.61-2.77"/>
        <path class="cls-15" d="M13.26,81.56c.5,1.35.7,2.73.26,4.11l-.29-.16-1.78-6.09c.95.23,1.5,1.29,1.82,2.14"/>
        <path class="cls-15" d="M13.52,45.26c.05.24-.13.32-.26.46-.75.85-1.51,1.88-2.27,2.67-.14.14-.23.3-.46.26-.14-1.67,1.3-3.31,2.99-3.39"/>
        <path class="cls-15" d="M13.52,32.1c-.97.02-1.01-1.54-.46-2.09.47.64.2,1.41.46,2.09"/>
        <path class="cls-15" d="M12.64,88.96c.14.31.64,2.05.49,2.18-.38-.02-.78.14-1.03-.21-.21-.28-.79-2.9-.65-3.05.51-.05.99.66,1.2,1.08"/>
        <path class="cls-15" d="M10.86,30.41c.67.01.76,1.74.38,1.83-.63-.07-.78-1.74-.38-1.83"/>
        <path class="cls-15" d="M11.18,82.6c.27.75.93,2.38-.13,2.68l-2.02-5.6c1.08.69,1.72,1.75,2.15,2.93"/>
        <path class="cls-15" d="M10.66,44.48c.03.26-.05.49-.13.73-.12.38-1.15,2.84-1.32,2.98-.11.11-.28.18-.45.21-.54-.11.08-1.7.21-2,.29-.64.7-1.18,1.23-1.65.14-.13.21-.32.46-.26"/>
        <path class="cls-15" d="M6.35,84.69c1.03.82,3.72,4.46,3.66,5.74-.01.2-.03.34-.22.45-.27.05-.36-.09-.5-.26-.96-1.1-2.34-3.5-3.13-4.83-.11-.2-.84-1.33-.73-1.42.41-.05.62.1.91.33"/>
        <path class="cls-15" d="M8.79,53.91c.85.84,1.41,2.75.83,3.87-.29.04-.22,0-.29-.17-.34-.7-1.41-3.17-1.53-3.82-.01-.1-.05-.3.07-.32.2,0,.79.29.94.43"/>
        <path class="cls-15" d="M9.49,68.46c.96.88.93,3.26,0,4.18v-4.18Z"/>
        <path class="cls-15" d="M8.53,81.6c.29.57.7,1.68.24,2.24l-1.37-3.25c.52-.05.92.6,1.13,1.01"/>
        <path class="cls-15" d="M7.53,68.2c.37.86.57,1.7.26,2.61l-.37-.22c-.03-.76-.2-1.44-.15-2.2.01-.21.09-.34.26-.2"/>
        <path class="cls-15" d="M5.44,54.78c1.37.38,2.31,1.86,2.09,3.25-.32.04-.43-.32-.58-.52-.41-.61-.92-1.48-1.27-2.12-.1-.2-.26-.38-.24-.61"/>
        <path class="cls-15" d="M5.51,44.1c1.73.4,2.38,2.31,1.89,3.9l-1.89-3.9Z"/>
        <path class="cls-15" d="M5.96,90.22c-.12.14-.56-.35-.65-.45-.53-.57-1.08-1.38-1.62-1.9-.23-.22-2.65-1.98-2.28-2.34,2.13.51,4.3,2.45,4.56,4.69"/>
        <path class="cls-15" d="M3.36,44.48c1.53-.35,2.63,1.96,2.08,3.26l-.29-.16-1.78-3.1h-.01Z"/>
        <path class="cls-15" d="M5.08,57.03c.12.36.28,1-.29,1l-1.03-2.21c.54.22,1.12.61,1.33,1.21"/>
      </g>
    </g>
  </g>
</svg>