<?xml version="1.0" encoding="UTF-8"?>
<svg id="Layer_1" data-name="Layer 1" xmlns="http://www.w3.org/2000/svg" xmlns:xlink="http://www.w3.org/1999/xlink" viewBox="0 0 90 90">
  <defs>
    <style>
      .cls-1 {
        fill: #bb9889;
      }

      .cls-2 {
        fill: #ccc4bb;
      }

      .cls-3 {
        fill: #abe0f9;
      }

      .cls-4 {
        fill: #78736d;
      }

      .cls-5 {
        fill: #a3af65;
      }

      .cls-6 {
        fill: #b6c370;
      }

      .cls-7 {
        fill: #b7c470;
      }

      .cls-8 {
        fill: #98a951;
      }

      .cls-9 {
        fill: #5f845f;
      }

      .cls-10 {
        fill: #ef7948;
      }

      .cls-11 {
        fill: none;
      }

      .cls-12 {
        clip-path: url(#clippath-1);
      }

      .cls-13 {
        fill: #919d5f;
      }

      .cls-14 {
        fill: #828d53;
      }

      .cls-15 {
        fill: #908881;
      }

      .cls-16 {
        fill: #727849;
      }

      .cls-17 {
        fill: #849a52;
      }

      .cls-18 {
        fill: #663925;
      }

      .cls-19 {
        fill: #b55d48;
      }

      .cls-20 {
        fill: #c28966;
      }

      .cls-21 {
        fill: #986749;
      }

      .cls-22 {
        fill: #dab399;
      }

      .cls-23 {
        fill: #c7d5e2;
      }

      .cls-24 {
        clip-path: url(#clippath);
      }
    </style>
    <clipPath id="clippath">
      <rect class="cls-11" x="0" width="90" height="90"/>
    </clipPath>
    <clipPath id="clippath-1">
      <rect class="cls-11" x="-2" y="-.31" width="94.35" height="90.71"/>
    </clipPath>
  </defs>
  <g class="cls-24">
    <g>
      <g class="cls-12">
        <g>
          <path class="cls-7" d="M57.54,67.55c-.15-.1-.3-.22-.45-.33l-.12.5c.21-.04.39-.11.57-.17"/>
          <path class="cls-7" d="M55.97,66.27c.37-.12.74-.18,1.01-.05l.26.39-.14.6c.15.11.3.23.45.33.22-.07.45-.1.74.05l-.12.33c.65.39,1.29.7,1.92.93-.04-1.52-.07-3.03-.08-4.54-1.98.88-4.47,1.12-4.03,1.95"/>
          <path class="cls-17" d="M60.05,60.88c0-.39.02-.79.04-1.18,0-.26.1-.47.13-.71-.51-.04-1.86.23-1.78-.57l.29-1.52c-.49.2-1.38,1.77-1.88,1.43l-.4-1.82-1,1.94c-.75.18-1.09-.55-1.61-.89l-.27,2.2c-.25.04-.53.03-.77-.04-.38-.12-.51-.59-.91-.59l.12,1.87c-.17.63-2.01.1-2.52.08-.61-.03-1.21,0-1.81.12-.37-.18-.41-.42-.22-.77-.16-.14-2.04.42-2.38.55-.28.11-1.34.74-1.45.74-.09,0-.3-.24-.33-.34,0-.34.21-.52.25-.88.02-.18.09-.54-.2-.46-.11.03-.83.49-.98.59-.62.44-1.29,1.24-1.91,1.61-1.71,1.01-4.38,1.87-6.37,1.72-.34-.03-.49-.09-.46-.47l.53-.85c-1.51.45-2.75,1.13-2.48-1.17-1.46.27-2.61.79-2.09-1.31-.82.16-.66.96-1.62.78l-3.85-1.56-.02,1.09c-.06.16-.37.34-.54.32-.37-.04-1.66-.84-1.98-1.14-.03,0-.1.1-.21.24,11.3,10.48,25.38,5.2,38.67.99"/>
          <path class="cls-18" d="M92.55,83.11v2.99c-.56-.32-.36-1.02-.39-1.57-.75.38-1.04,2.51-1.99,2.33l-1.65-1.28c.16,1.86-.24,2.33-1.7,1.04-.28.36.79,2.59-.07,3h-2.22c-.25,0-.88.58-1.28.37l-.25-.27c-.18-.16.05-1.04-.28-.88l-1.24,1.24-.43.04-1.26-1.68c-.2.47-.77,2.86-1.13,2.98-.51.17-1.53-.52-2-.76-.09.47.03,1.81-.58,1.82-.4-.06-2.31-.84-1.89-1.42l.43-.11,1.12.49c-.03-.38.05-1.62.35-1.83l.57-.07c.45.49.99.98,1.7.99.02-.61,1.28-3.77,1.64-3.89,1.15-.25.71,1.48,1.1,2.2.11.13,1.61-1.62,2.65-1.28.47.32.35.8.21,1.28.78-.26,1.52-.31,2.35-.26-.26-1.62-1.1-4.18,1.44-2.35-.03-.51,0-2.03.71-1.96.32.03,1.16,1.26,1.57,1.57.12.09.13.18.33.13.43-1,1.12-2.52,2.22-2.86"/>
          <path class="cls-17" d="M74.46,61.47c-.63-.24-1.2-.74-1.67-1.17-.51.2-.87.75-1.48.64-.23-.64,1.01-1.48,1.5-1.55.92-.14,1.01.48,1.75.64l1.39-2.93-.74-1.5c-.24-.27-.88,1.24-1.22,1.16-.58-.12-.2-1.74-.53-2.21-.7.25-.99,2.05-1.31,2.22-.27.14-.24-.55-.4-.65l.06-.45c-.36-.57-.88.3-1.32.48-.46.17-1.03.11-1.4.55v10.34c1.9-1.44,3.68-3.41,5.37-5.58"/>
          <path class="cls-8" d="M92.55,64.16v-5.04l-2.67,1.56-1.89-1.04c-.05.7-.56,1.33-.28,2.01-.02.13-.34.29-.47.32-.14.02-1.02-.09-1.26-.12-.62-.08-1.24-.28-1.85-.36-.61-.09-1.25.07-1.87-.16-.21-.65.41-.76.51-1.29-.64-.07-3.7,1.23-4.04.91l.26-1.03-3.38,1.63c-.4.12-.79.07-1.15-.07-.02.03-.04.05-.06.07,6.09,2.45,12.18,3.25,18.15,2.62"/>
          <path class="cls-7" d="M74.4,61.55c-1.67,2.14-3.43,4.09-5.31,5.51v.42c.66-.42.82-1.66,1.82-1.43l.6,1.54c1.09-1.36,3.11-3,2.68.13.14.16,1.94-1.25,2.68-.65.45.35.09,1.25-.08,1.7h1.89c.4,0,.47.6.12.77l-3.1.26c-.58-.18.21-1.07.34-1.33.05-.13.28-.68.23-.74-.95-.08-1.42.78-2.01,1.17-.99.66-.63-1.48-.78-1.97-1.25.01-1.86,4.05-3,.14-.17.24-1.24,1.63-1.24,1.75v5.94c.57-.17.97-.65,1.48-.93,1.32-.74,1.4-.2,1.78,1.07,1.09-.65,3.53-1.08,2.6.9,1.12-.07,2.17.06,3.26.26-.02-.75,0-1.87.83-2.2l1.39.64c.36-.68.68-2.86,1.83-2.28l1.1,1.37c.76-.73,1.57-1.59,2.59-1.93.61.01.53,1.32.61,1.79.89-.12,1.72-1.03,2.68-.53.4.6-.75,1.94-.59,2.1.82-.3,1.56.02,2.38.02.18.08.36.25.36.43h1.03v-11.32c-5.97.63-12.06-.17-18.15-2.62"/>
          <path class="cls-18" d="M92.55,58.21v.91l-2.66,1.55-1.89-1.04c-.06.7-.56,1.33-.28,2.01-.02.13-.34.29-.47.32-.14.02-1.02-.09-1.26-.12-.62-.08-1.24-.28-1.85-.36-.61-.09-1.25.07-1.87-.16-.21-.65.41-.76.51-1.29-.64-.07-3.7,1.23-4.04.91l.26-1.03-3.38,1.63c-1.09.32-2.08-.57-2.83-1.24-.51.19-.87.75-1.48.64-.23-.64,1.01-1.48,1.5-1.55.92-.14,1.01.48,1.75.64l1.39-2.93-.74-1.5c-.24-.27-.88,1.24-1.22,1.16-.58-.12-.2-1.74-.53-2.21-.7.25-.99,2.06-1.31,2.22-.27.14-.24-.56-.4-.65l.05-.45c-.36-.57-.88.3-1.32.48-.46.17-1.03.11-1.4.55v10.76c.66-.42.82-1.66,1.82-1.43l.6,1.54c1.09-1.36,3.11-3,2.68.13.14.16,1.94-1.25,2.68-.65.45.35.09,1.25-.08,1.7h1.89c.4,0,.47.6.12.77l-3.1.26c-.58-.18.21-1.07.34-1.33.05-.13.28-.68.23-.74-.95-.08-1.43.78-2.01,1.17-.99.66-.63-1.48-.78-1.97-1.25.01-1.86,4.05-3,.14-.17.24-1.24,1.63-1.24,1.75v5.94c.57-.17.97-.65,1.48-.93,1.32-.74,1.4-.2,1.78,1.07,1.09-.65,3.53-1.08,2.6.9,1.12-.07,2.18.06,3.26.26-.02-.75,0-1.87.83-2.2l1.39.64c.36-.68.69-2.86,1.83-2.28l1.1,1.37c.76-.73,1.57-1.59,2.59-1.93.61.01.53,1.32.61,1.79.89-.12,1.72-1.03,2.68-.53.4.6-.75,1.94-.59,2.1.82-.3,1.56.02,2.38.02.18.08.36.25.36.43,0,.07-.02.13-.07.2-.45.46-.86.14-1.3.12-.68-.02-1.28.04-1.96.14-.96-.15.03-1.51.07-2.09l-1.78,1.01c-1.01.32-.66-1.08-.7-1.73-.02-.48-.54.04-.72.18-.46.39-.79.92-1.17,1.31-.63.64-1.48-1.12-1.88-1.43-.18.58-.75,2.27-1.47,2.2-.39-.04-.82-.49-1.27-.37l.11,1.86c-.08.17-.23.34-.43.36-.45.03-1.82-.48-2.48-.53-1.22-.1-3.1.54-2.14-1.43-.72-.19-1.79.83-2.4.63-.34-.11-.17-1.18-.34-1.54h-.32c-.51.55-1.84,1.29-2,2.04-.16.7.06,1.7-.04,2.44.03.15.75.05.8.53.08.75-.75.46-1.11.45-.48,0-.97-.01-1.45.01-.31.01-.66.26-.98.07-.39-.24-.22-1.34-.26-1.76-.33.15-.7.18-1.03.33-.51.22-1.06.75-1.61.57-.37-.12-.69-1.53-.82-1.56-.79.01-2.31,1.15-3.01.83-.13-.05-.34-.18-.3-.36l.6-.32.07-.33c.24-5.79-.34-11.85,0-17.61,0-.26.1-.47.13-.71-.51-.04-1.86.23-1.78-.57l.29-1.52c-.49.2-1.38,1.77-1.88,1.42l-.4-1.82-1,1.94c-.75.18-1.09-.56-1.61-.89l-.27,2.2c-.25.04-.53.03-.77-.04-.38-.12-.51-.59-.91-.59l.12,1.87c-.17.63-2.01.1-2.52.08-.61-.03-1.21,0-1.81.12-.37-.18-.41-.42-.22-.77-.16-.14-2.04.42-2.38.55-.28.11-1.34.74-1.45.74-.09,0-.31-.24-.33-.34,0-.34.21-.52.25-.88.02-.18.09-.54-.2-.46-.11.03-.83.49-.98.59-.62.44-1.29,1.24-1.91,1.61-1.71,1.01-4.38,1.87-6.37,1.72-.34-.03-.49-.09-.46-.47l.53-.85c-1.51.45-2.75,1.13-2.48-1.18-1.46.27-2.61.79-2.09-1.3-.82.16-.66.96-1.62.78l-3.85-1.55-.02,1.09c-.06.16-.37.34-.54.32-.37-.04-1.66-.84-1.98-1.14-.1,0-.79,1.24-1.23,1.37-.37.12-.73.02-1.1.07-1.07.16-2.96.67-3.91.64-.89-.04-.83-.83-1.07-.9-.58-.08-1.73.56-2.19.26-.4-.27.02-1.03-.09-1.44l-5.01.91c-.58.09-.9-.24-.98-.79l-.46.27c-.62.12-.99-.83-1.16-1.32-.24-.61-.34-1.33-.6-1.95-.46-.15-1.65.77-1.89.39-.16-.27-.1-1.45-.05-1.83l-1.39,1.41c-.53.15-1.34-.91-1.48-1.41l-1.04,1.04v-1.57c.69-.37,1.08-.82,1.7-.06.2.24.35.86.72.85.26-.49,1.33-1.2,1.84-.79.4.41-.1,1.03.05,1.58l1.43-.4c.05-1.79.22-3.64,1.04-5.27-.81-.59-2.8.14-2.21-1.49-1.11.09-2.95,1.78-2.94-.26l-1.63.78v-.91c.42-.23,2.53-1.24,2.73-.58l-.12.71.5-.22c.04-2.73,0-5.46.02-8.2.02-1.82.12-3.74.13-5.59.06-6.87-.1-13.76-.14-20.59,0-3.35.03-6.7,0-10.04l-.61-.71c-.82.51-1.57.58-2.52.51v-.91c.4-.03.83.04,1.22-.03.65-.13,1.14-1.07,1.83-.86.38.2.41.65.73.96.76.72,1.82.42,2.74.33.08.62.77,1.38,1.34,1.59.32.12.65.03.88.29-.45.61-1.24.33-1.76-.05-.63,1.05.16,2.05,1.37,1.82-.14.49-.53.87-.62,1.4-.22,1.29.17,2.26,1.26,2.98-.35.93-1.28.58-1.18,1.95.11,1.13,1.63.26,2.15.32.61.07,1.27.99,1.95.77.39-.13.53-1.87,1.31-1.78.33.03.6.53,1.01.66.68.22,2.46,0,2.47.93,0,.63-.59.95-.07,1.75.42.69,1.2.77,1.94.65.47-.07,1.14-.58,1.83-.51.39.03.59.62,1.19.01.53-.55.55-1.34.33-2.03-.11-.34-.36-.52-.39-.85.52-.14.7.4,1.13.5.27.07.72.05.99,0,.75-.17.72-1.13,1.14-1.66.78.33,1.4.78,2-.14.31-.47.24-.87.39-1.31.12-.33.51-.46.47-.83-.01-.12-.38-1.02-.46-1.12-.16-.18-.47-.2-.65-.39-.16-.2-.2-.52-.33-.68-.12-.17-.43-.2-.51-.45-.22-.72,1.53-1.53,2.14-1.49.6.05,1.46,1.32,1.95.53.33-.53.05-1.5,1.02-1.27.53.12.53.5,1.46.36,1.22-.2.87-1.54,1.23-2.12.12-.18.57-.14.39-.66-.04-.14-.76-.4-.46-.87.26-.38.73.14,1.04.15.86,0,1.72-1.02,2.1-1.71.38,1.14,2.47,2.22,3.24.9.12-.2.13-.54.29-.65.71-.45,1.01.33,1.47.48.74.24,1.52-.66,1.84-1.25.45,0,.91-.02,1.37,0,.15,0,.48-.1.44.13l-.62.16c-.7,1.51-2.32,2.85-4,1.83-.65.68-1.11.95-2.09.88-.81-.06-1.09-.36-1.69-.79l-1.75,1c.21.73-.43.87-.6,1.23-.11.22-.03.47-.1.68-.43,1.4-2.1,2.14-3.47,1.66-.29.83-1.31,1.07-2.11.85-.42-.12-.71-.55-1.12-.71l-.96.37c.23.74.95,1.04,1.27,1.65.31.58.56,1.17.29,1.82-.09.23-.28.35-.36.54-.28.71-.22,1.25-.88,1.86-.81.74-1.11.26-.56,1.73.24.63.66,1.23,1.21,1.65.32.25,1.77.83.98,1.37-.32.22-.68-.26-.91.13.29,1.26,1.42,2.29,2.74,2.22.74-1.04,2.01-1.9,1.95-3.33-.53-.14-1.98.85-2.28.4-.22-.42.11-.67.4-.93,1.35-1.16,3.74-2.1,3.84-4.16l-1.37.38c0-.59.24-1.06.53-1.54.53-.9,1.46-1.87,1.9-2.79.59-1.22.64-2.81.89-4.12h.51c0,.49.27.9.36,1.39.26,1.34.29,2.43.82,3.75.42,1.08,1.31,1.83,1.44,2.93-.16-.05-1.33.08-1.29.2.13.53.89,1.95,1.24,2.4.46.6,1.12.97,1.62,1.51.05.29-.12.16-.29.23-.5.19-.78.34-1.34.36-.15.01-.26-.04-.2.2.08.23.83,1.22,1.04,1.44.4.42,1.82,1.26,1.94,1.58.04.11.08.27-.07.3l-1.22.73c.54,1.13.99,2.44,2.12,3.08.38.22.9.16,1.02.74.35.24,1.37-.62,1.62-.89.68-.75.97-1.88,1.1-2.87-.83-.13-1.71.61-2.42.01-.41-.61,1.14-1.36,1.5-1.64,1.13-.92,2-1.78,2.22-3.32-.1-.11-2.37,1.75-2.22.46.02-.21,1.71-2.16,2.01-2.69.64-1.07.98-1.99,1.22-3.22.13-.71.04-2.9,1.01-1.6-.17,1.83-.09,4.05,1.11,5.55.49.61,1.38.96,1.44,1.76-.48-.08-.89-.1-1.31.2.57,1.07,1,2.08,1.94,2.88l-.19.42-.83.02.85,1.16c.27-.34.31-.74.58-1.1.28-.38.72-.55.99-.85.34-.37.39-.87.94-1.14,1.01-.51,1.5.61,2.06.61.27,0,.54-.31.81-.36.48-.1,1,.07,1.47-.16-.13-.7-.1-1.25.28-1.86.16-.25.46-.37.51-.67.12-.7-.34-.98-.4-1.56-.13-1.26.34-2.63,1.83-2.03-.04-2.27.07-4.57,0-6.84,0-.28-.13-.53-.14-.77-.03-1.51.08-3.01-.13-4.5h1.04c.02.8-.03,1.61,0,2.41.26,6.46.38,12.95.52,19.43.1,4.76,0,9.74.26,14.45.24,4.12.23,8.42.26,12.52.03,5.11-.87,10.22-.78,15.38,0,.32.13.6.14.9.04,4.02-.05,8.05,0,12.06.65.07,1.2-.57,1.87-.37.42.14.73.99.74,1.41.61-.23,2.84-1.24,3.26-.56v1.48h.9c-.02-1.2.04-2.39.01-3.59-.25-10.03-.1-19.95,0-29.96.13-13.06-.85-25.93-.65-38.98l-.27-6.58h.91l.26,7.3c.5-.14.82-.36,1.37-.39.71-.05,2.15.23,2.38,1,.06.2,0,.42.05.6.22.65.68,1.29.63,2.05.62.17.63-.37.87-.53,1.35-.89,2.7.35,2.84,1.71,1.46-.72,2.79-1.93,3.07-3.59-.04-.15-.28-.04-.4,0-.93.33-1.69,1.09-2.73.45.46-1.64,2.3-2.47,3.39-3.7,1.18-1.32,2.07-3.13,2.22-4.89h1.03c.04,2.85-1.59,5.18-3.64,6.97,1.22.04,1.2.52,1,1.53-.37,2.01-1.65,2.95-3.22,4.08l1.38.32c.11.09.16.19.18.34.04.27-.08.47-.06.71.37-.21,1.65-1.01,2-.76.24.42.11.65-.01,1.05-.86,2.77-2.91,4.67-5.58,5.71v.26c.26-.15,1.1-.25,1.25-.01v1.3c.65-.39,1.38-.63,1.83-1.28.41-.11.7.04.87.41.18.41-.15,1.37-.33,1.82-.91,2.45-3.44,3.58-5.44,4.99l.96-.18c.92.6.06,1.75-.04,2.59.16.17,1.61-1.04,2.01-1.04,1.21-.03.47,1.44.59,1.57l1.26-.49.68.45c.22.74-.38,2.57-.74,3.26-.1.18-.21.37-.32.54-.79,1.19-1.97,1.92-3.09,2.82.28,0,.5-.13.82-.03.2.05.32.24.35.44.28,1.65-2.71,4.14-4.17,4.62l2.49,4.02,4.61.14c1.47-.13,2.77.16,4.18.51.98.63.52,4.15.32,5.22.08.09,1.43-.64,1.66-.75.37-.15.79-.17,1.11-.29.12-.04.1-.2.13-.22.72-.39,3.43,1.41,4.2,1.78l2.28-1.16v.9c-.28.16-1.18.67-1.18.98l1.18.85v.78c-.68-.21-1.24-.64-1.86-.93-.24-.12-.59-.11-.78-.23-.13-.08-.27-.44-.57-.64-.89-.61-2.05-1-2.98-1.59l-4.27,2.5-.48.5,4.21-.37c.41.28.54.67.96,1,.41.33,1.85,1.16,2.33,1.2,1.33.1,2.23-.88,3.45-1.04v1.04c-1.16.74-2.65,1.46-4.04.98-.57-.21-1.7-.95-2.21-1.31-.37-.26-.62-.71-1.01-.95-1.13-.15-3.02.72-4.05.27-.21-.09-.41-.45-.6-.41l-3.22,2.13-1.82,3.53,3.97-1.38.31.21-.25.97c.21.19,3.54-1.25,4.11-.65.26.38-.38,1.13-.34,1.18l3.2.53.27-.13c.06-.46.46-2.13.79-2.36.48-.34.85.45,1.22.72.24.17.58.28.85.42.88-.54,1.73-1.34,2.79-1.52M81.98,49.93c.07-.5.01-1.05.01-1.57,0-.38.22-.71-.05-1.1l-.26-.13c-1.04-.02-2.1.03-3.14,0-2.64-.07-4.23,0-6.86.54-.86.18-1.72.41-2.58.62v7.43l.72-.26c.42-2.19,3.12-3.45,5.2-3.24,1.68.16,2.6,1.12,3.27,2.59l3.13-2.08c.07-.93.47-1.93.57-2.82M79.26,14.61c.06-.43-.58.11-.88.16-.39.08-1.03.11-1.08-.42-.03-.35.27-.52.26-.85-1.02.02-2.04-.01-3.06-.14-.4-.04-.63-.26-.6-.7.04-.51,1.39-.61,1.83-.73-.1-.74-.57-1.69-1.47-1.4-.37.53-1.68.91-2.14.47-.28-.26-.32-1.21-.53-1.63-.09-.18-.26-.29-.34-.43-.1-.18-.09-.41-.17-.61-.37-.79-2.52-.53-2.64.54-.17,1.59.03,3.7.01,5.36-.01.3-.14.59-.14.9-.08,4.38.4,8.66.66,12.97.05.89.1,1.77.13,2.67.09,2.9-.09,5.83-.01,8.73l1.52,1.36c1.37-.84,3.4-1.45,3.95-3.12-.98.03-1.87.54-2.73-.2-.37-.33.13-.68.4-.9,1.97-1.6,4.85-2.29,5.33-5.35.04-.27.03-.19-.13-.13-1.12.37-1.68.26-1.96-.98l-1.96.73-.46-.46c-.26-.36.55-2.13.47-2.22-.75-.1-3.43.85-3.85.13-.07-.11-.09-.21-.09-.3,0-.33.28-.61.55-.8.93-.66,2.69-1.24,3.81-1.92,1.01-.62,2.6-1.67,3.2-2.67.06-.09.62-1.18.35-1.09-.47.15-1.41.84-1.93.76-.96-.29-.22-.91-.1-1.54-1.05.15-2.11.51-3.19.39-.43-.04-1.01-.15-.84-.7.14-.41,3.82-1.88,4.5-2.27,1.15-.66,3.13-2.23,3.31-3.61M73.14,27.33h-.39v.12h.39v-.12ZM72.88,46.61c.02-.15-.01-.25-.08-.39-.45-.99-2.06-3.2-2.79-4.1-.23-.28-.61-.47-.65-.85-.11,0-.24-.05-.26.07-.03.33-.04,1.25.03,1.53.07.24.94,1.29,1.16,1.7.4.7.7,1.48,1.09,2.18.29.33,1.05-.23,1.5-.13M70.92,47.05l-1.37-2.93-.46-.64v4.17c.32-.12,1.76-.33,1.83-.6M60.62,54.36l.13-4.62-11.78.38c-.33.64-.36,1.18-1.03,1.6-.1.07-.76.36-.81.36h-2.55c.21,1.52.65,3.23.52,4.76,0,.16-.21,1.2-.26,1.23-.03.02-.35.02-.38,0-.25-.16-.1-3.02-.14-3.58-.08-1.12-.54-2.25-.5-3.37.17-.52,1.94.04,2.39.07.37,0,.97-.09,1.17-.41.31-.91.74-2.02.21-2.94-.85-.27-1.72.29-2.4.75-.59.39-1.42,1.56-1.49-.05,1.18-2.21,2.32-4.61,3.83-6.6.53-.72,1.38-1.84,2.27-1.97l-.09-.27c-.61-.37-1.25-.42-1.9-.68-.46-.17-1.6-.83-1.86-.87-.53-.1-.95.11-1.42.13-3.07.1-6.22.05-9.25.39-.57.07-2.81.38-3.09.7-.11.13-.33.74-.24.85l.64.27.42-.82c.58-.07,1.27-.21,1.85-.24,3.33-.17,6.82.15,10.17,0l1.45.51c.12.18.07.35,0,.53-.22.53-1.11,1.58-1.47,2.18-1.06,1.71-2.03,3.46-3.01,5.2v.18c.41.1.96.22,1.15.65-.75-.28-1.47-.3-2.27-.26-5.79.31-11.95,1.76-17.73,2.35l-4.69-.39-6.71-.2c.35-.35.95-.41,1.43-.52,3.04-.71,7.05-1.34,10.17-1.5.13,0,.26,0,.39,0,.22,0,.43,0,.65,0s1.57.05,1.57-.07c-.51-.35-1.12,0-1.57-.07-2.93-.37-6.48-.04-9.43.4-3.14.48-6.08,1.41-8.99,2.61-.46.29-.77,2.33-.85,2.93-.18,1.38.12,2.11.12,3.25-.01.44-.39.97.2,1.35.89-.31,1.52-.08,1.49.93l5.34-.9-2.09-.47c-.27-.43,0-.78.01-1.16.03-1.23.07-2.42.26-3.64l-.91-.54.46-.45,6.09.82c.7.17.86,1.04.23,1.36l-.33,4.61c-.11.17-.19.1-.33.08-.73-.11-1.51-.45-2.26-.47-.24.08-.43,1.1-.48,1.37-.03.29-.01.15.13.13.95-.22,1.65-.54,2.03.59,1.64-.22,3.25-.71,4.92-.69.43-.24.9-1.36,1.34-1.41.58-.08,1.47.86,2.08,1.04l.46-1.24c.61-.36,2.85,1.01,3.64,1.12.29-3.82,3.5-6.68,7.35-6.37,3.1.23,6.22,2.48,6.35,5.77,0,.49-.16.89-.14,1.37l1.9-1.15c.23-.13.65-.28,1.01-.28.28,0,.52.1.59.36.08.29-.38.7-.25,1.08.98-.41,2.26-.89,3.33-.91.83-.02.73.45,1.18.52l2.27.13v-2.01l.39-.27c.34-.23,1.38.93,1.44.86.26-.68-.07-1.52.32-2.1.61-.5,1.4.76,1.9,1.05.26-.9.71-1.82,1.26-2.58.17-.24.43-.26.63-.03.28.35-.05,1.56.2,2.09.47-.34,1.53-1.48,2.13-1.29.72.25-.22,2.03-.05,2.21l.92-.06.38-3.66v-.02ZM60.54,48.95c.38-.11,0-.36-.05-.58-.04-.33.04-.71,0-1.04-.25-2.39-.76-4.67-1.37-6.97-.04-.17-.08-.35-.07-.52l-1.43.26c.08.99.49,1.9.72,2.86.45,1.95.71,4.01.71,6,.45-.06,1.09.1,1.49,0M60.57,38.54l-.08-1.97c-.76.29-1.5-.02-2.27-.13-1.08-.14-.77,0-1.76-.45-.75-.34-2.27.47-2.71.03-.34-.35.15-.87.1-1.27-.36.13-.71.27-1.04.45-.97.51-1.35,1.2-1.57-.58-.49.18-.95,1.22-1.38,1.27-.53.07-.56-.7-.96-.88-.16.39-.71,1.66-1.11,1.7-.65.05-.72-.69-1.24-.91v1.61c.88.6,1.98.76,2.94,1.12.31.11.59.36.94.49,1.13.43,5.43.43,6.75.29,1.02-.11,2.11-.87,3.24-.66,0,0,.15-.11.15-.11ZM60.36,35.8c.05-4.24.22-8.47.14-12.71-.03-1.71-.23-3.5-.27-5.21-.03-1.27.14-2.83,0-4.05-.06-.6-1-1.26-1.06-.39-.08.96.89,1.51.12,2.72-.34.52-.68.51-.64,1.33.02.45.31.61-.07,1.1-.47.64-1.41.51-2.06.68-.68.2-.69.7-1.65.3-.24-.11-.54-.41-.74-.45-.33-.05-.44.68-.63.89-.23.25-.61.27-.9.66-1,1.34.09,1.42.94,1.93.11.07.22-.04.16.22-.56.42-.9.85-1.64.97-.24.04-.94-.13-.83.21.18.6,1.07,2.35,1.49,2.81.37.39,1.27.74.86,1.37l-.78.51c.47.79.93,1.69,1.78,2.12,1.03.51,3.84.72,1.08,1.79.63.99,1.64,1.6,2.41,2.4.11.11.16.33.22.37.09.05,1.99.5,2.06.42M58.02,48.96c.08-1.63-.04-3.12-.31-4.72-.21-1.26-.61-2.49-.74-3.75h-4.48l-2.03,2.86c.95.13,1.97-.42,2.86.07.19.14.14.28.08.47-.07.21-1.35,2.13-1.25,2.21.5.11,1.01.45,1.51.51,1.13.15,1.46-.33,2.75.38,1.03.55.34,1.88.43,1.98h1.18ZM54.63,35.15l2.09-.2c-.51-.27-2.08-2-2.08-2.48,0-.12.17-.42.12-.46-1.2-.17-2.03-1.27-2.67-2.23-.51-.78-1.38-1.84-.21-2.39-.42-.56-.78-1.15-1.07-1.8-.15-.37-.63-1.64-.62-1.97.02-.77.94-.59,1.5-.6.14,0,.35.09.31-.13-1.02-.01-3.28-2.71-3.07-3.52-.02-.34.61-.39.6-.45-.08-.25-.72-1.17-.9-1.59-.22-.5-.62-1.1-.14-1.54l.52-.13c-.85-.68-1.34-1.63-1.63-2.67l-1.24,2.22c.84-.05.72,1,.64,1.62-.13,1.13-.88,2.35-1.69,3.14v.18l.36.02c.08.05.15.34.15.43,0,.58-.36,1.98-.58,2.54-.51,1.36-1.69,2.75-3.06,3.26v.25l.37.22c-.12.79.26.49.51.73.28.27.09.85,0,1.17-.56,1.96-2.68,3.34-4.53,3.88,0,.27-.05.25.2.26.57.03,1.06-.22,1.61-.12.41.75-.12,1.35-.63,1.88.36.03,1.23-.67,1.41-.12.25.74-.77,1.85-1.02,2.52,1.96.02,3.94.2,5.86.52v-2.4c.11-.11.19-.26.35-.3.68-.22,1.46.95,1.61.76l.91-1.63c.89-.41.67.62,1.29.72.14-.53,1.64-1.9,2.08-1.23l.14,1.1c.75-.38,1.54-.84,2.41-.78.58.08.32.93.07,1.3M55.8,49.09c.31-2.26-.94-1.31-2.25-1.59-.27-.07-1.63-.7-1.88-.86-.23-.15-.4-.29-.4-.6l1.14-2.03c-.51-.14-2.74.47-2.99.12-.04-.21.04-.39.14-.57.37-.64,1.2-1.46,1.65-2.12.1-.14.64-.87.54-.96l-2.15.25c-1.22,1.64-2.38,3.34-3.34,5.13-.1.2-.71,1.32-.63,1.39.96-.3,1.64-.93,2.65-.37.78.43.76,1.67.74,2.46l6.78-.26h0ZM44.27,42.06c.15-.23,1.12-1.44.97-1.58h-3.64c.15.52.42,1.06.59,1.56.07.17.1.21-.06.34l-2.74-.33c-.15.14.78,1.22.46,1.57-.19.37-1.23.42-1.63.52l3.13,3.12c.79-1.79,1.88-3.54,2.94-5.2M42.12,28.37c-.67,0-.71-.48-.65-1.04l-2.74.26c-.1-.51.27-.74.59-1.04l2.02-1.18c-1.72-.18-2.86-2.13-3.36-3.62-.14-.43-.52-1.32-.16-1.66.15-.15.52-.09.52-.32-.6-.24-1.12-.92-1.48-1.45-.33-.46-1.75-2.85-.3-2.58.15.02.59.45.61.11-.15.02-.22-.04-.31-.16-.92-1.25-1.33-2.61-2.01-3.96l.12-.42c.32-.11.58.04.85.1.19.03.24.01.17-.17-.1-.29-.58-.83-.76-1.2-.32-.63-.46-1.35-.73-2-.07,0-.35.96-.44,1.13-.21.41-1.14,1.59-1.18,1.83-.04.28.26.6.26,1.01,0,1.39-1.19,2.97-2.23,3.79.9.36.4,1.75.1,2.45-.48,1.08-1.51,1.97-2.04,3.03-.66.4-2.43-.49-2.99-.92-.87-.68-1.84-2.32-.95-3.25-1.07-.93-1.75-2.28-1.67-3.72-.22-.04-.26.08-.39.2-.41.43-.66,1.13-1.43,1.12l-.14,1.48v22.23c1.24.05,2.49-.07,3.72,0,1.12.04,2.49.2,3.59.46.31.08,2.11.71,2.21.59.03-1.04.81-1.39,1.7-1.63,1.15-.3,2.77-.49,3.97-.59.5-.04,1.08.07,1.57,0,.66-.1,1.15-.98,1.5-1.5-2.31-.2-1.04-1.03-.26-2.14h-1.89s-.57-.24-.63-.28c-.3-.18-.78-.96-.54-1.29.06-.1,1.86-.59,2.24-.75.67-.28,1.5-.74,2.12-1.14.67-.43,1.41-.84,1.45-1.74M41.34,41.79l-.39-1.24c-1.39-.15-2.83-.03-4.24-.07-.9,0-1.91-.25-2.87-.14-.49.07-.62.29-.26.66l3.79,2.48c.31,0,1.56-.08,1.63-.34-.12-.66-.63-1.17-.25-1.87l2.6.51h-.01ZM40.03,47.91s-.25-.43-.33-.52c-2.19-2.7-6.86-5.9-10.13-7.07-3.48-1.26-9.45-.75-13.2-.61-.84.03-1.7-.04-2.54,0-.03.18.22.17.36.23,3.45,1.36,7.12,2.83,10.01,5.25.54.45,1.47,1.67,2.04,1.86,2.19.16,4.38.49,6.56.61,2.11.12,4.42-.02,6.51.13.25,0,.47.15.72.13M36.75,62.55c0-.62.22-4.07-.31-4.21-1.04-.08-1.41,2.78-1.16,3.25.07.15.34.23.33.46l-.52.98c.42-.05,1.53,0,1.66-.48M34.37,61.74l.85-3.92c-.84-.32-1.34-.13-1.81.61-.67,1.04-.63,2.49-.81,3.69l1.76-.38h.01ZM27.72,48.17c.15,0,.48.1.45-.13-.45-.23-.78-.06-1.22-.04-.14,0-.25-.27-.21.17.32,0,.65,0,.98,0M24.07,46.61c.09-.04.09-.09,0-.13v.13ZM21.52,46.48h2.35c-.72-.72-1.65-1.29-2.55-1.83l.19,1.83h0ZM20.87,46.48l-.25-2.28-3.39-1.62.13,4.16s3.51-.26,3.51-.26ZM20.48,38.53l.07-21.89c-.37.08-.54.52-.85.71-.65.38-.98.03-1.6-.16l-.62.33-.12,21.02h3.12ZM16.57,25.82c.07-2.66-.06-5.35,0-8.02-1.91.5-3.2-1.36-3-3.13l-.45.13c-.7,1.76-1.24,3.74-2.54,5.15-.07.34.34.11.6.3.46.36-.08,1.98-.28,2.49-.35.89-.95,1.59-1.49,2.35.17.14,1.07-.58,1.37-.13.5.6-.21,2.22-.57,2.83-.55.94-1.57,1.95-2.63,2.25l.07.26c.43-.07,1.49-.74,1.83-.39.6.63-.81,1.88-.72,1.96.7.26,1.95-1.11,2.45-.62.4.55.24,1.1,0,1.7-.24.62-.77,1.44-1.52,1.25-.35-.64.31-1.24.5-1.87-.07-.08-.34.1-.38.13-.4.37-1.13,2.35-1.54,3.02-.56.89-1.29,1.66-2.12,2.3-.4.32-.95.66-1.42.86-.03.25.25.09.37.04.21-.08.79-.4.94-.3l.13,1.11-.46.98,1.54-.64c.96.71.27,2.04-.02,2.95l-1.72,2.12c.84-.12,1.79-.86,2.58-1.01.9-.18.74,1.23.56,1.79.6-.1.92-.72,1.61-.5.48.15.48,2.1.48,2.59.34-.03,1.04-.11,1.14-.48.21-2.2.61-4.37,1.21-6.49-.51-.3-2.42-.65-2.59-1.2-.12-.38.03-.75.43-.83l5.54-.13c-.01-.29-.12-.53-.14-.84-.22-3.99.19-8.03.27-12M16.26,46.75c.13-1.07.22-2.12.19-3.21-.01-.49-.29-.92,0-1.49-.39-.08-2.43-1.03-2.61-.78l-1.04,5.99,3.47-.51h-.01ZM15.27,58.08c-.07-1.4.38-2.77.39-4.17l-1.04-.14-.38,4.16,1.03.14h0ZM13.57,57.69l.39-4.05-1.04-.13c-.28,1.08-.2,2.12-.25,3.2-.02.27-.25.62-.08.85l.98.13ZM12.41,14.62l-1.31-.33c-.05.47-.26.97-.68,1.2-.34.14-.96.15-1.32.08-.36-.09-.9-.57-1.22-.6-.24-.02-.62.18-.9.22-1.79.2-3.08-1.01-2.25-2.77.17-.39.48-.55.63-.92-.6-1.09-.38-2.21-.25-3.38l-1.06-.47v29.97c1.95-1.16,4.34-2.51,4.7-4.95-.35.02-1.34.1-1.28-.43.03-.43.86-.71,1.15-1.07.14-.16.33-.49.33-.72-.65.26-1.51.63-2.22.66-.42.01-1.73-.12-2.12-.24-.16-.03-.3.02-.3-.14,0-.02,0-.05.01-.09.76-.95,1.96-1.2,2.96-1.73,1.35-.73,2.86-1.93,3.04-3.55-1.27.27-2.59,1.04-3.92.65-.32-.48,1.46-1.45,1.76-1.7,1.01-.83,1.9-2.14,2.28-3.39l-1.74.27c-.15-.03-.22-.43-.2-.57.05-.32,1.47-1.7,1.79-2.11.93-1.17,1.64-2.48,2.1-3.9M11.88,57.43l.25-4.05h-.91l-.24,3.83.19.2s.71.02.71.02ZM9.67,48.17v-1.83c-.77.08-2.12,1.44-2.45.09.04-.41.8-1,.55-1.52-1.08.48-2.14,1.12-3.37,1.07l-.15.1.2,3.45.75.46c.76-.22,1.49-.76,2.25-1.09.67-.29,1.49-.57,2.22-.72M6.66,41.07c0-.23-2.19.66-2.48.33v3.12c.36-.3,1.6-.95,1.76-1.29.11-.24.04-.53.13-.79.14-.42.53-.87.59-1.36M4.2,40.62c.25-.1,1.47-1.39,1.29-1.57l-1.28.67v.89h0ZM3.73,49.61l-.05-3.47c-.48-.75-.06-.91,0-1.54.15-1.4-.12-3.08-.01-4.5l-1.61.28-.2.18.12,7.87c1.16-.19,1.7-.4,1.31,1.03l.45.14h0ZM3.41,36.52c.36-7.31-.07-15.21-.14-22.55-.03-3.02.03-6.05.01-9.07l-1.31-.13-.13,34.15,1.4-.68c-.06-.59.13-1.2.16-1.73"/>
          <path class="cls-15" d="M88.52,56.97c-.57-.21-1.7-.95-2.21-1.32-.03-.02-.06-.05-.09-.08-3.18.97-6.59,1.09-9.33,2.18l-1.27,2.48,3.97-1.38.31.21-.25.97c.21.2,3.54-1.25,4.11-.65.26.38-.38,1.13-.34,1.17l3.2.53.27-.13c.07-.46.46-2.13.79-2.36.48-.34.85.45,1.22.72.24.17.58.28.85.42.88-.54,1.73-1.34,2.79-1.52v-2.22c-1.16.74-2.65,1.46-4.03.98"/>
          <path class="cls-2" d="M85.3,54.71c-1.13-.15-3.02.72-4.05.27-.21-.09-.41-.45-.6-.41l-3.22,2.13-.54,1.06c2.74-1.09,6.15-1.21,9.33-2.18-.32-.26-.57-.65-.92-.87"/>
          <path class="cls-7" d="M86.36,51.17l-4.27,2.5-.48.5,1.06-.09c2.2-.67,4.4-1.05,6.6-1.36-.88-.58-2.01-.97-2.91-1.55"/>
          <path class="cls-17" d="M89.91,53.4c-.13-.08-.27-.43-.57-.64-.02,0-.05-.03-.07-.04-2.2.31-4.4.7-6.6,1.36l3.15-.28c.41.28.54.68.96,1,.41.33,1.85,1.16,2.33,1.2,1.33.1,2.23-.88,3.45-1.04v-.39c-.67-.21-1.24-.64-1.86-.94-.24-.12-.59-.11-.78-.23"/>
          <path class="cls-18" d="M92.55,42.18v1.31c-1.03-.38-2.03-1.25-2.55-2.22-.17-.34-.72-1.44.2-.98.25.12,1.15,1.1,1.5,1.37.26.2.55.38.85.52"/>
          <path class="cls-16" d="M84.19,7.8c-.14.03-.28.08-.43.13-.57,1.27-1.25,2.44-2.22,3.41,2.43,0,3.65-1.81,5.02-3.18-.3-.38-.52-.93-.53-1.3l-1.85.95h.01Z"/>
          <path class="cls-5" d="M85.51,12.14c.51-1.24,1.48.71,2.35.58l.21-.98c.19-1.59,0-3.36,0-4.75-.28.14-.54.31-.79.51.16.2.36.37.43.62-.35.66-.8.47-1.15.04-1.37,1.37-2.59,3.18-5.02,3.18.97-.97,1.65-2.14,2.22-3.41-.3.09-.61.14-.86-.12l-.08-.43c.64-.57,1.05-2.89,1.76-3.07l.37.1s.06.1.08.16c.56-1.58,1.15-3.21,2.04-4.75h-4.04c.04,2.85-1.59,5.18-3.64,6.97,1.22.04,1.2.52,1,1.53-.37,2.01-1.65,2.95-3.22,4.08l1.38.32c.11.09.16.2.19.34.04.27-.08.47-.07.71.37-.21,1.65-1.01,2-.76.24.42.11.65-.01,1.05-.32,1.05-.82,1.97-1.46,2.77,1.99-1.14,3.8-2.6,5.6-4.4,1.09,1.09-1.09,2.18-1.09,3.26,2.11,0,3.23-.83,3.82-2.02-.77-.24-1.72-1-2.03-1.52"/>
          <path class="cls-16" d="M84.34,6.86c.92.22,1.39-1.22,1.7-1.37.66-.34.93,1.46,1.14,1.86.03.05.07.1.11.15.25-.2.51-.37.78-.51,0,1.39.19,3.16,0,4.75l.06-.3c.29-.21,1.72.68,2.2.84.72.22,1.48.35,2.22.32V-.18c-1.82.01-3.65,0-5.48,0-.88,1.54-1.48,3.17-2.04,4.75.28.68-.84,2.15-.7,2.29"/>
          <path class="cls-16" d="M84.99,20.34c.38-.36.59-1.39,1.18-.78.46.47.09,1.36.59,1.89.63.68,1.51-1.35,1.7-1.82.13-.34-.02-.84.52-.92.32,0,.93.97,1.23,1.25.65.6,1.48,1.07,2.35,1.23v-7.82c-.96.03-1.76.05-2.68-.25-.42-.14-.8-.39-1.23-.53.12,1.1-.43,1.29-1.1,1.08-.59,1.2-1.71,2.02-3.82,2.02,0-1.09,2.18-2.18,1.09-3.26-1.8,1.8-3.61,3.26-5.6,4.4-1.04,1.31-2.46,2.29-4.12,2.94v.26c.26-.15,1.1-.25,1.25,0v1.31c.65-.39,1.38-.63,1.83-1.28.41-.11.7.04.87.41.18.41-.15,1.37-.33,1.82-.19.51-.46.95-.77,1.36.8-.42,1.62-.62,2.52-.33,2.18,0-1.09,3.26,0,4.35,2.18,1.09,5.44-2.18,5.44-1.09.46,3.72-.07,5.84-1.43,6.98v.69c.32.08.22-.09.29-.17.34-.38,1-1.4,1.25-1.87.24-.47.29-1.38.85-1.32.55.07.91,1.4,1.26,1.86.5.66,1.19.8,1.7,1.29.12.12.28.28.28.42,0,.08-.05.15-.18.2-1.32.48-2.54-.99-3.17-1.98-.54.66-.93,1.51-1.5,2.14-.35.4-.62.75-1.22.57-.38-.11-.47-.73-.48-1.26-.51.23-1.1.38-1.76.46-.65.27-1.75.64-2.15.51-.29-.1-.42-.26-.46-.45-.61-.03-1.26-.09-1.93-.17-.36.43-.77.81-1.21,1.16,1.46.99,3.8,1.65,2.24,3.99-1.2,2.4-3.39,3.47-5.84,3.59l1.62,2.61,4.61.14c1.47-.13,2.77.16,4.18.51.98.63.52,4.15.32,5.22.08.09,1.43-.64,1.66-.75.37-.15.79-.17,1.11-.29.12-.04.1-.2.13-.22.72-.39,3.43,1.41,4.2,1.78l2.28-1.16v-7.56c-1.03-.38-2.03-1.25-2.54-2.22-.17-.34-.72-1.44.2-.98.25.12,1.15,1.1,1.5,1.37.26.19.55.38.85.52v-20.08c-1.43.04-2.65-.97-3.58-1.95-.41.48-.56,1.15-.98,1.62-1.02,1.14-2.34.59-2.48-.85-.08-.09-1.04.53-1.25.64-.37.17-1.42.68-1.74.74-.22.04-.53.01-.53-.27-.01-.57.34-.8.55-1.27.37-.85.61-1.73.97-2.58.15.02.46-.04.56.02.42.29-.58,2.36-.64,2.85.15.15,1.37-.54,1.57-.72M86.23,42.57c-.25.7-.57,2.5-1.63,2.15-.53-.16-1.04-1.35-1.04-1.89-.19-.05-.21.06-.31.13-.46.32-1.7,1.45-2.21,1.29-.72-.22.14-2.75.06-2.86-.85.42-3.6,2.18-4.44,1.63-.45-.62.32-.85.65-1.18.4-.38.89-.83,1.24-1.24.37-.43.59-1.22,1.24-1.18.1.79-.5,1.37-.91,1.96.18.03.32-.04.48-.11.65-.24,1.57-1.02,2.09-1.18.2-.04.39-.07.57.03.46.3-.28,2.65-.13,2.82.22.05.26-.09.39-.2.21-.18.53-.5.72-.72.25-.29.43-1.02.88-.9.6.15.49,2.18,1.07,2.59l1.1-2.77.45-.2c.65.36.59,1.16,1.05,1.68.66.73,2.21.8,2.16,1.95-1.43.17-2.61-.78-3.46-1.82M89.81,48.11c.25.23,2.23,1.37,1.83,1.76-1.71.17-3.57-1.57-3.64-3.26.85-.04,1.25.98,1.82,1.5"/>
          <path class="cls-5" d="M79.17,34.37c.16-.78,1.41-1.92,1.71-2.37.2-.32.72-1.6.93-1.69.47-.2.35.5.29.82-.1.49-.73,2.11-1.01,2.49-.1.13-.3,0-.26.22.5-.1.99-.34,1.42-.6.76-.48,1.21-1.45,2.08-1.35,0,.11.14.27.14.32v1.33c1.35-1.13,1.89-3.25,1.42-6.97,0-1.09-3.26,2.18-5.44,1.09-1.09-1.09,2.18-4.35,0-4.35-.9-.3-1.72-.1-2.52.32-1.18,1.56-3.08,2.51-4.67,3.63l.96-.18c.93.6.07,1.75-.04,2.59.16.17,1.61-1.04,2.01-1.04,1.21-.03.47,1.43.59,1.57l1.26-.49.67.45c.22.74-.38,2.57-.74,3.26-.1.18-.21.37-.32.54-.12.19-.27.35-.42.51.68.08,1.32.14,1.93.17-.02-.08-.02-.17,0-.26"/>
          <path class="cls-16" d="M83.56,33.45c-.5.29-.9.72-1.44.98-.08.04-.2.09-.32.15.65-.08,1.24-.23,1.76-.47v-.66"/>
          <path class="cls-14" d="M78.28,39.62c1.56-2.34-.79-3-2.24-3.99-.48.38-.97.75-1.47,1.14.28,0,.5-.13.82-.03.2.05.32.24.35.43.28,1.65-2.71,4.14-4.16,4.62l.87,1.41c2.45-.12,4.64-1.19,5.84-3.59"/>
          <path class="cls-18" d="M92.55,21.19v.91c-1.43.04-2.65-.97-3.58-1.95-.41.48-.56,1.15-.98,1.62-1.02,1.14-2.34.59-2.48-.85-.08-.09-1.04.53-1.25.64-.37.17-1.43.68-1.74.74-.22.04-.53.01-.53-.27-.01-.57.34-.8.55-1.27.37-.85.61-1.73.97-2.58.15.02.46-.04.56.02.42.29-.58,2.36-.64,2.85.15.15,1.37-.54,1.57-.72.38-.36.59-1.39,1.18-.78.46.47.09,1.36.59,1.89.63.67,1.51-1.35,1.7-1.82.13-.34-.02-.84.52-.93.32,0,.93.97,1.23,1.25.65.6,1.48,1.07,2.35,1.23"/>
          <path class="cls-18" d="M92.55,12.59v.78c-.96.03-1.76.05-2.68-.25-.43-.14-.81-.39-1.23-.53.25,2.36-2.56.53-3.13-.45.51-1.24,1.48.71,2.35.58l.27-1.28c.29-.21,1.72.69,2.2.84.72.22,1.48.35,2.22.31"/>
          <path class="cls-3" d="M92.55-.31v.13c-3.17.02-6.34-.02-9.52,0h-1.03c-.15,1.76-1.04,3.58-2.22,4.89-1.1,1.23-2.94,2.05-3.39,3.7,1.04.64,1.79-.12,2.73-.44.12-.04.36-.15.4,0-.28,1.66-1.61,2.87-3.07,3.59-.14-1.36-1.49-2.6-2.84-1.71-.24.16-.25.71-.87.53.05-.76-.41-1.4-.63-2.06-.05-.17.01-.4-.05-.6-.23-.77-1.68-1.05-2.38-1-.55.03-.87.25-1.37.39l-.26-7.3h-.91c-1.03,0-2.08,0-3.12,0v-.12h28.54,0Z"/>
          <path class="cls-18" d="M89.81,48.11c.25.23,2.23,1.37,1.83,1.76-1.71.17-3.57-1.57-3.64-3.26.85-.04,1.25.98,1.82,1.5"/>
          <path class="cls-18" d="M90.1,34.45c0,.08-.05.15-.19.2-1.32.48-2.54-.99-3.16-1.98-.54.66-.93,1.51-1.5,2.14-.35.4-.62.75-1.22.57-.57-.16-.49-1.45-.48-1.93-.5.29-.9.72-1.44.98-.5.25-1.99.82-2.48.65-.41-.14-.52-.39-.47-.71.16-.78,1.41-1.93,1.71-2.37.2-.32.72-1.6.93-1.69.47-.2.35.5.29.82-.1.49-.73,2.11-1.01,2.49-.1.13-.31,0-.26.22.5-.1.99-.34,1.43-.6.76-.48,1.21-1.45,2.08-1.35,0,.11.14.27.14.32v2.02c.32.08.22-.09.29-.18.34-.38,1-1.4,1.25-1.87.24-.47.29-1.38.85-1.32.56.07.91,1.4,1.26,1.86.5.66,1.18.8,1.7,1.29.12.12.28.28.28.42"/>
          <path class="cls-18" d="M87.53,42.44c.66.73,2.21.81,2.16,1.95-1.43.17-2.61-.78-3.46-1.82-.25.7-.57,2.5-1.63,2.15-.53-.16-1.04-1.35-1.04-1.89-.2-.06-.21.05-.32.13-.46.32-1.7,1.45-2.21,1.29-.72-.22.14-2.75.05-2.86-.85.42-3.6,2.18-4.44,1.63-.45-.62.32-.85.65-1.17.4-.38.89-.83,1.24-1.24.37-.42.59-1.22,1.24-1.18.1.79-.5,1.37-.91,1.96.19.03.32-.04.48-.11.65-.24,1.57-1.02,2.09-1.17.2-.04.39-.07.57.03.46.31-.28,2.65-.13,2.82.22.05.26-.09.39-.2.21-.18.53-.5.72-.72.25-.29.43-1.02.88-.9.6.15.49,2.18,1.07,2.59l1.1-2.77.45-.2c.65.36.59,1.16,1.06,1.67"/>
          <path class="cls-18" d="M87.71,8.12c-.65,1.23-1.65-.47-1.68-1.26l-1.85.95c-.42.1-.92.39-1.28,0l-.08-.43c.64-.57,1.06-2.89,1.76-3.07l.37.1c.57.58-.77,2.3-.62,2.45.93.22,1.39-1.22,1.7-1.37.66-.34.93,1.46,1.14,1.86.15.27.45.46.53.77"/>
          <path class="cls-10" d="M81.99,48.48v-.12c0-.38.22-.71-.05-1.1l-.26-.13c-1.04-.02-2.1.03-3.14,0-2.37-.06-3.9,0-6.09.4,2.97,1.23,6.36,1.12,9.55.94"/>
          <path class="cls-19" d="M72.45,47.54c-.25.05-.51.09-.78.15-.86.18-1.72.41-2.58.62v7.43l.72-.26c.42-2.19,3.12-3.45,5.2-3.24,1.67.16,2.6,1.12,3.27,2.59l3.13-2.08c.07-.92.47-1.92.57-2.82.06-.46.02-.97.01-1.45-3.19.18-6.58.29-9.55-.94"/>
          <path class="cls-8" d="M74.27,10.53c-.37.53-1.68.91-2.14.47-.28-.26-.32-1.21-.53-1.63-.09-.19-.26-.29-.34-.44-.1-.18-.09-.41-.17-.61-.37-.79-2.52-.53-2.64.54-.17,1.59.03,3.7.01,5.36-.01.3-.14.59-.14.9v.26c2.26-1.95,4.62-3.64,7.24-4.13-.23-.52-.64-.93-1.28-.73"/>
          <path class="cls-17" d="M68.97,28.11l.62-.04c0-.33.28-.61.56-.8.92-.66,2.69-1.24,3.81-1.91,1.01-.62,2.6-1.68,3.2-2.68.05-.09.62-1.18.35-1.09-.47.15-1.41.84-1.93.76-.96-.29-.22-.91-.1-1.54-1.05.15-2.11.51-3.19.39-.43-.04-1.01-.15-.84-.7.14-.41,3.82-1.88,4.5-2.27,1.15-.66,3.13-2.23,3.31-3.61.05-.43-.58.11-.88.16-.39.08-1.03.11-1.08-.42-.03-.35.27-.52.26-.85-1.02.02-2.04-.01-3.06-.14-.4-.04-.63-.26-.6-.7.04-.51,1.39-.61,1.83-.73-.03-.22-.1-.45-.19-.67-2.61.48-4.98,2.18-7.24,4.13-.05,4.29.4,8.49.66,12.72"/>
          <path class="cls-17" d="M77.43,31.16c.16-.05.17-.14.13.13-.48,3.06-3.36,3.75-5.33,5.35-.27.22-.77.58-.4.9.86.74,1.75.23,2.73.2-.54,1.68-2.58,2.28-3.95,3.12l-1.52-1.36c-.08-2.9.1-5.83.01-8.73-.03-.89-.08-1.77-.13-2.66l.62-.04c0,.1.02.2.09.3.42.72,3.1-.23,3.85-.13.09.09-.73,1.86-.47,2.22l.46.46,1.96-.73c.28,1.24.84,1.35,1.96.98"/>
          <rect class="cls-7" x="72.75" y="27.33" width=".39" height=".12"/>
          <path class="cls-19" d="M72.8,46.22c.06.14.1.24.08.39-.45-.1-1.21.46-1.5.13-.39-.7-.68-1.48-1.09-2.18-.23-.4-1.1-1.46-1.16-1.7-.08-.28-.07-1.21-.03-1.53.02-.12.15-.07.26-.07.04.38.43.57.65.85.74.9,2.35,3.11,2.8,4.1"/>
          <path class="cls-9" d="M69.55,44.13l1.37,2.93c-.07.27-1.51.48-1.83.6v-4.17s.46.64.46.64Z"/>
          <path class="cls-20" d="M64.14,52.67c-1.09-7.61,3.26-15.23,0-22.84-2.17,1.09,0,3.26-1.09,5.44-1.07-2.66-1.09-5.85-1.6-8.79.02,3.24.03,6.5.21,9.64.24,4.12.23,8.42.26,12.52.03,5.11-.87,10.22-.78,15.38,0,.32.13.6.14.9.04,4.03-.05,8.05,0,12.06.65.07,1.2-.57,1.87-.37.08.03.15.08.22.15.99-9.84,2.07-19.69,4.04-29.53-2.17,1.09-2.17,3.26-3.26,5.44M62.45,63.23c-.02.07-.21.24-.33.2-.26-.24-.42-.34-.46-.71-.14-1.18.08-2.47.39-3.59l.39.2v3.9h.01ZM63.03,52.6c-.54-.13-.67-.75-.72-1.23-.03-.41.21-3.06.4-3.19l.63.2c-.08.7-.22,1.51-.26,2.2,0,.4.33,1.95-.05,2.02"/>
          <path class="cls-20" d="M61.81,16.97c.04-.35.22-.88.64-.86.03.06.06.18.08.32,2.41-5.7,4.55-11.31,2.06-16.62h-.58c-1.04,0-2.09,0-3.13.01.02.8-.03,1.61,0,2.41.23,5.65.35,11.32.47,16.99.17-.42.35-.84.53-1.26-.08-.31-.12-.63-.07-.99"/>
          <path class="cls-21" d="M67.41,6.4l-.27-6.58h-2.54c2.48,5.31.34,10.92-2.07,16.62.11.67.09,2.04-.09,2.15-.03.02-.34.02-.37,0-.08-.22-.14-.42-.19-.62-.18.42-.35.84-.53,1.26.02.81.04,1.62.05,2.44.03,1.59.04,3.2.05,4.82.51,2.94.54,6.13,1.6,8.79,1.09-2.18-1.09-4.35,1.09-5.44,3.26,7.61-1.09,15.23,0,22.84,1.09-2.18,1.09-4.35,3.26-5.44-1.97,9.84-3.05,19.69-4.04,29.53.3.3.51.92.51,1.26.61-.23,2.84-1.24,3.26-.56v1.48h.9c-.02-1.2.04-2.39.01-3.59-.25-10.03-.1-19.95,0-29.96.13-13.06-.85-25.93-.65-38.98M62.77,26.67c-.74-.14-.64-1.54-.59-2.15.05-.59.15-1.56.91-1.37.02.8-.02,1.61-.01,2.41.01.38.36,1.23-.32,1.11M66.88,35.59c.14.45.33,2.31-.21,2.42-.12.03-.32-.14-.32-.2,0-.74.07-1.63,0-2.34-.01-.08-.21-.24-.14-.39.39-.26.56.2.66.51M65.86,2.85c-.28-.47-.75-2.24.23-2.12.25.82.33,1.51.14,2.35-.24.04-.27-.07-.37-.23M66.98,43.78c-.21.71-.74.87-.85,0l.23-3.31c.26-.02.36-.04.49.22.35.7.34,2.33.13,3.08M67.28,69.09c-.04.39-.13.96-.65.85.07-.16-.13-.39-.13-.46v-3.25c.02-.08.2-.23.32-.2.48.11.51,2.61.47,3.06"/>
          <path class="cls-18" d="M66.81,66.03c.48.11.51,2.61.47,3.06-.04.39-.13.96-.65.85.07-.16-.13-.39-.13-.46v-3.25c.02-.08.19-.23.32-.2"/>
          <path class="cls-18" d="M66.85,40.7c.35.7.34,2.33.13,3.08-.21.71-.74.87-.85,0l.23-3.31c.26-.02.36-.04.49.22"/>
          <path class="cls-18" d="M66.88,35.59c.14.45.33,2.31-.21,2.41-.12.03-.32-.14-.32-.19,0-.74.07-1.63,0-2.34-.01-.08-.21-.24-.14-.39.39-.26.55.2.66.51"/>
          <path class="cls-18" d="M66.09.73c.25.82.33,1.51.14,2.35-.24.04-.27-.07-.37-.23-.28-.47-.75-2.24.23-2.12"/>
          <path class="cls-15" d="M10.71,76.91c-.2-.14-.21-.02-.33.07-.87.58-1.74,1.13-2.61,1.7-1.15.1-2.01-.75-3-1.16-.98.48-1.97,1.11-3.12.9-.24-.04-1.25-1.05-1.42-1.3-.35-.49-.46-1.1-.73-1.63l-1.54-.6c-.04-.15-.03-.3-.03-.46h-.13v6.94s.09.06.14.09c0-.07,0-.14.02-.21l.3-.22,2.48,2.6c.29.01.13-1.74.89-1.54.31.08,1.37,1.75,1.72,2.07.16,0,1.59-2.38,2.14-2.66.35-.18.78.09.78.39v2.01l1.4-.67c.45-1.51.48-2.01,2.2-1.41l.18-.04c.23-.27.58-1.81.73-1.91.37-.25.84.08,1.22.08-.33-.57-.84-2.68-1.29-3"/>
          <path class="cls-3" d="M41.77-.31s-.04.08-.06.13c.33,0,.67,0,1,0,.15,0,.48-.1.45.13l-.62.16c-.7,1.51-2.32,2.85-4,1.83-.65.69-1.11.95-2.09.88-.81-.05-1.09-.36-1.69-.79l-1.75,1c.21.73-.44.87-.6,1.23-.11.22-.03.47-.1.68-.43,1.4-2.1,2.14-3.47,1.66-.29.83-1.31,1.07-2.11.85-.43-.12-.71-.55-1.12-.71l-.96.37c.23.74.95,1.04,1.27,1.65.31.58.55,1.18.29,1.82-.09.23-.28.35-.36.54-.28.71-.22,1.25-.88,1.86-.81.74-1.11.26-.56,1.73.24.63.66,1.23,1.21,1.65.32.25,1.77.83.98,1.37-.32.22-.68-.26-.91.13.29,1.26,1.43,2.29,2.74,2.22.74-1.04,2.01-1.9,1.95-3.33-.53-.14-1.98.85-2.28.4-.22-.43.11-.68.4-.93,1.35-1.16,3.74-2.1,3.84-4.17l-1.37.38c0-.59.24-1.05.53-1.54.53-.9,1.46-1.87,1.9-2.8.59-1.22.64-2.81.89-4.12h.51c0,.49.27.9.36,1.39.26,1.34.29,2.43.82,3.75.42,1.08,1.31,1.83,1.44,2.93-.16-.06-1.33.08-1.29.2.13.53.89,1.95,1.24,2.4.46.6,1.12.97,1.62,1.51.05.29-.12.16-.29.23-.5.18-.78.34-1.34.36-.15.01-.26-.04-.19.2.08.23.83,1.22,1.04,1.44.4.42,1.82,1.26,1.94,1.58.04.11.08.27-.07.3l-1.22.73c.54,1.13.99,2.44,2.12,3.08.38.22.9.16,1.02.74.35.24,1.37-.62,1.62-.89.68-.75.97-1.88,1.1-2.87-.83-.13-1.71.61-2.41.01-.41-.61,1.14-1.36,1.5-1.64,1.13-.93,2-1.78,2.22-3.32-.1-.11-2.37,1.75-2.22.46.02-.21,1.71-2.16,2.01-2.69.64-1.07.98-1.99,1.22-3.22.13-.71.04-2.9,1.01-1.6-.17,1.83-.09,4.05,1.11,5.55.49.61,1.38.96,1.44,1.76-.48-.08-.89-.1-1.31.2.57,1.07,1,2.08,1.94,2.88l-.2.43-.83.02.85,1.16c.27-.34.31-.74.58-1.1.28-.38.72-.56.99-.85.34-.37.39-.87.94-1.14,1.01-.51,1.5.61,2.06.61.27,0,.54-.3.81-.36.48-.1,1,.07,1.47-.16-.13-.7-.1-1.25.28-1.86.16-.25.46-.37.51-.68.12-.7-.34-.98-.4-1.55-.13-1.26.34-2.63,1.83-2.03-.04-2.27.07-4.57,0-6.84,0-.28-.13-.53-.14-.77-.03-1.51.08-3.01-.13-4.5h1.04c1.04,0,2.09,0,3.13,0v-.12h-22.26Z"/>
          <path class="cls-18" d="M62.72,48.19l.63.2c-.08.7-.22,1.51-.26,2.2-.01.4.33,1.95-.06,2.02-.54-.13-.67-.75-.72-1.23-.03-.41.21-3.06.4-3.19"/>
          <path class="cls-18" d="M63.1,23.15c.02.81-.02,1.61-.01,2.41.01.38.36,1.23-.32,1.11-.74-.14-.64-1.54-.59-2.15.06-.59.15-1.56.91-1.37"/>
          <path class="cls-18" d="M62.45,16.11c.18.36.21,2.34-.01,2.47-.03.02-.34.02-.37,0-.19-.56-.34-1.01-.26-1.61.04-.35.22-.88.64-.86"/>
          <path class="cls-18" d="M62.45,59.32v3.9c-.02.07-.21.24-.33.2-.26-.24-.42-.34-.46-.71-.14-1.17.08-2.47.39-3.59l.39.2h.01Z"/>
          <path class="cls-19" d="M47.94,51.72c-.1.07-.76.36-.81.36h-2.54c.21,1.52.65,3.23.52,4.76,0,.16-.21,1.2-.26,1.23-.03.02-.35.02-.38,0l-.48.91c.28,0,.52.1.59.36.08.29-.38.7-.25,1.08.98-.41,2.26-.89,3.33-.91.83-.02.73.45,1.17.52l2.27.13v-2.01l.39-.27c.34-.23,1.38.92,1.44.86.26-.68-.07-1.52.32-2.1.61-.5,1.4.76,1.9,1.05.26-.9.71-1.82,1.26-2.58.17-.24.43-.26.63-.03.28.35-.06,1.55.2,2.09.47-.34,1.53-1.48,2.13-1.29.72.25-.22,2.03-.05,2.21l.92-.07.38-3.65.13-4.62-11.78.38c-.33.64-.36,1.19-1.03,1.6M57.99,50.87c.28.11.31.48.16.73-.04.08-.28.22-.33.22h-2.48l-.31-.44c.15-.73,2.37-.68,2.96-.51"/>
          <path class="cls-19" d="M60.49,48.37c.04.22.43.47.05.58-.4.11-1.04-.05-1.49,0,0-1.99-.26-4.06-.71-6-.23-.96-.64-1.87-.72-2.86l1.42-.26c0,.17.02.35.07.52.61,2.31,1.12,4.58,1.37,6.97.04.34-.04.72,0,1.04"/>
          <path class="cls-17" d="M46.55,36.69v.72c.88.6,1.98.76,2.94,1.12.31.11.59.36.94.49,1.13.43,5.43.43,6.75.29,1.02-.11,2.11-.87,3.24-.66l.15-.11-.04-1.11c-4.66.38-9.32.95-13.98-.74"/>
          <path class="cls-7" d="M58.22,36.44c-1.08-.14-.77,0-1.76-.45-.75-.34-2.27.47-2.71.03-.34-.35.15-.87.1-1.27-.36.13-.71.27-1.04.45-.97.51-1.35,1.2-1.57-.58-.49.18-.95,1.22-1.38,1.27-.53.07-.55-.7-.96-.88-.16.39-.71,1.66-1.11,1.7-.65.05-.72-.68-1.24-.91v.89c4.66,1.69,9.32,1.12,13.98.74l-.03-.86c-.76.29-1.5-.02-2.27-.13"/>
          <path class="cls-17" d="M52.92,26.97c.41.33,1.02.66.67,1.2l-.78.51c.47.79.93,1.68,1.78,2.12,1.03.51,3.84.72,1.08,1.79.63.99,1.64,1.6,2.42,2.4.11.11.16.33.22.37.09.05,1.99.5,2.06.43.05-4.24.22-8.47.14-12.71,0-.54-.05-1.09-.08-1.64-1.68.24-3.7.13-4.97.77-1.14,1.14-1.98,2.89-2.52,4.76"/>
          <path class="cls-8" d="M60.24,13.83c-.07-.6-1-1.26-1.06-.39-.08.96.89,1.51.12,2.72-.34.52-.69.51-.64,1.33.02.45.31.61-.07,1.1-.47.64-1.41.51-2.06.68-.67.2-.68.7-1.65.3-.24-.11-.54-.41-.74-.44-.33-.06-.43.67-.63.89-.23.25-.61.27-.9.66-1,1.34.09,1.43.93,1.93.11.07.22-.04.16.22-.55.43-.9.85-1.64.97-.24.04-.93-.13-.83.21.18.6,1.07,2.35,1.49,2.81.05.06.12.11.19.17.54-1.87,1.38-3.62,2.52-4.76,1.28-.64,3.3-.53,4.97-.77-.07-1.2-.16-2.4-.19-3.57-.03-1.27.14-2.83,0-4.05"/>
          <path class="cls-18" d="M58.28,67.6l-.2.52c-.48.22-1.15.51-1.67.36-.67-.33-.16-.88-.09-1.4-.08-.08-.97.4-1.13.49-.65.37-1.18,1.18-1.59.07-.09-.43.39-1.09-.09-1.47-.64.15-1.23,1.64-1.7,1.7-.85.07-.99-.95-1.82-1.17-.42,1.84-1.29,1.32-2.68.78-.15.17.54.97.14,1.24-.63.41-1.08-.51-1.25-.99-.25-.7-.38-1.34.52-1.54l1.95.63c.18-.05.37-.99.86-1.23.59-.3,1.58.74,2.12.83,1.14-1.35,3.05-2.16,2.96.41.11.11,1.62-.96,2.35-.59l.26.39-.26,1.1c.49-.09.78-.38,1.31-.12"/>
          <path class="cls-18" d="M57.99,50.87c.28.11.31.48.16.73-.04.08-.28.22-.33.22h-2.48l-.31-.44c.15-.73,2.37-.68,2.96-.51"/>
          <path class="cls-16" d="M57.72,44.24c.26,1.6.38,3.09.3,4.72h-1.17c-.1-.1.6-1.42-.43-1.98-1.29-.71-1.62-.23-2.75-.38-.5-.06-1.01-.4-1.51-.51-.1-.08,1.18-2,1.25-2.21.07-.18.11-.33-.08-.47-.89-.49-1.91.07-2.86-.07l2.03-2.86h4.48c.13,1.26.53,2.49.74,3.75"/>
          <path class="cls-16" d="M56.72,34.95l-2.09.2c.25-.37.51-1.23-.07-1.31-.87-.05-1.66.4-2.41.78l-.14-1.1c-.43-.67-1.94.7-2.08,1.23-.62-.1-.4-1.13-1.29-.72l-.91,1.63c-.15.19-.93-.98-1.61-.76-.15.04-.24.2-.35.3v2.4c-1.93-.33-3.9-.5-5.86-.52.25-.68,1.27-1.78,1.02-2.52-.19-.55-1.06.15-1.41.12.51-.53,1.04-1.13.63-1.88-.55-.1-1.04.15-1.61.12-.25,0-.21,0-.2-.26,1.85-.54,3.97-1.93,4.52-3.88.1-.33.29-.9,0-1.17-.25-.24-.63.07-.51-.73l-.37-.22v-.25c1.37-.51,2.55-1.9,3.06-3.26.22-.57.57-1.97.58-2.54,0-.1-.08-.38-.15-.44l-.36-.02v-.19c.81-.79,1.56-2.01,1.69-3.14.08-.62.2-1.68-.64-1.62l1.24-2.22c.29,1.04.78,1.99,1.63,2.68l-.52.13c-.48.45-.08,1.04.14,1.54.18.41.83,1.34.9,1.59,0,.05-.62.11-.6.45-.22.82,2.04,3.51,3.07,3.52.03.22-.17.13-.32.13-.57.01-1.48-.17-1.5.6,0,.33.47,1.6.62,1.97.28.65.64,1.24,1.07,1.81-1.17.55-.3,1.61.21,2.39.63.96,1.47,2.06,2.66,2.23.05.03-.12.34-.12.46,0,.48,1.57,2.21,2.08,2.48"/>
          <path class="cls-23" d="M51.27,46.04l1.14-2.03c-.51-.14-2.74.47-2.99.12-.04-.21.04-.39.14-.57.37-.64,1.2-1.46,1.65-2.12.1-.14.64-.87.54-.96l-2.15.25c-1.22,1.64-2.38,3.34-3.34,5.13-.02.05-.08.15-.14.27h5.16s0-.06,0-.1"/>
          <path class="cls-13" d="M53.55,47.5c-.27-.06-1.63-.7-1.88-.86-.2-.13-.35-.27-.39-.5h-5.16c-.21.4-.55,1.06-.49,1.12.96-.3,1.64-.94,2.65-.37.78.43.76,1.68.74,2.46l6.78-.26c.32-2.26-.94-1.31-2.25-1.59"/>
          <path class="cls-18" d="M54.1,90.41c.67.03,1.67-.24,1.96.58-.11.47-2.66.62-3.11.32-.27-.4.71-1.52.76-2.01.13-1.19-1.27-.43-1.85-.15-.49.23-1.42,1.03-1.94.68-.35-.22.25-2.27.4-2.68-.14-.11-1,.34-1.18.47-.38.27-1,1.21-1.17,1.29-1.09.59-.93-2.09-.91-2.66l-.63.73c-.4.56-.61,1.52-.95,2.06-.17.28-.49.26-.77.14l-1.29-2.54c-.12.43-.71,2.68-.91,2.81-.78.49-.88-.98-1.04-1.45-.19-.53-.66-1.02-.39-1.61.9-.16.89.89,1.42,1.29.13-.52.35-1.76.83-1.99.9-.45,1.17,1.4,1.5,1.96.08.14-.02.22.28.16.28-.88,1.36-2.77,2.41-2.61.65.1.41,1.71.46,2.22.56-.6,2.12-1.55,2.9-1.14.83.43-.02,1.61-.03,2.32.86-.57,2.74-1.53,3.49-.43.65.93.03,1.38-.24,2.26"/>
          <path class="cls-18" d="M54.09,77.13c.29,1.23-1.58,1.1-2.4,1.02-1.46-.13.1-1.5-.25-2.34-.53.2-2.03,1.65-2.46,1.54-.14-.04-.24-.22-.35-.32v-2.01c-.54.17-1.08,1.58-1.52,1.66-.61.13-.75-1.35-1.15-1.65-.34.35-.27,1.37-.78,1.43-.48.04-.47-.43-.72-.73-.23-.28-1-.8-.91-1.16.04-.15.22-.22.39-.14.22.1,1,.9,1.04.85.16-.64.47-1.51,1.11-1.77.61,0,.53,1.45.85,1.9.13.16.75-.7.91-.85.32-.27.7-.5,1.12-.58l.39.12c.47.38-.11,1.53.05,2.09.59-.45,1.16-.92,1.86-1.2.32-.12.61-.32.92-.09.7.46-.35,1.49-.32,2.07h1.89s.21.15.32.15"/>
          <path class="cls-10" d="M24.99,52.67c4.74-1.29,8.44-2.42,11.74-3.84-4.53.56-9.17,1.51-13.58,1.96l-4.69-.39-6.71-.2c.35-.35.95-.41,1.42-.52,3.04-.71,7.05-1.34,10.17-1.5.01-.2.37-.2.39,0,.22,0,.43,0,.65,0v-.13c-2.93-.37-6.48-.04-9.43.4-3.14.48-6.08,1.41-9,2.61-.46.29-.77,2.33-.85,2.93-.18,1.38.12,2.11.12,3.25-.01.45-.39.97.19,1.35.89-.32,1.52-.08,1.49.93l5.34-.9-2.09-.47c-.27-.44,0-.78.01-1.16.03-1.23.07-2.43.26-3.64l-.91-.54.46-.45,6.09.82c.7.17.86,1.04.23,1.36l-.33,4.61c-.11.17-.18.1-.33.08-.73-.11-1.51-.45-2.26-.47-.24.08-.43,1.1-.48,1.37-.03.29-.01.15.13.13.95-.22,1.65-.54,2.03.59,1.64-.22,3.25-.71,4.92-.68.43-.24.9-1.36,1.34-1.41h.12c-.14-2.94,1.69-6.07,3.54-6.07M9.08,56.65c-.2.53-.71,1.35-1.32,1.44-.95.1-1.75-.75-1.87-1.64-.15-1.18.18-2.72.58-3.84.1-.29.38-.56.67-.62,2.17-.49,2.41,3.26,1.94,4.66M20.28,58.6c-.95,2.07-3.17,1.46-3.33-.59-.11-1.36-.09-4.29,1.66-4.6.29-.05.59-.04.88-.03,1.71.8,1.45,3.77.78,5.22"/>
          <path class="cls-10" d="M49.81,39.96l-.05-.14c-.07.07-.15.15-.22.21.09-.03.17-.06.26-.07"/>
          <path class="cls-10" d="M47.82,39.02c-.46-.17-1.6-.83-1.86-.87-.53-.1-.95.11-1.43.13-3.07.1-6.22.05-9.24.39-.57.07-2.81.38-3.09.7-.11.13-.33.74-.24.85l.64.27.42-.81c.58-.07,1.27-.21,1.85-.24,3.33-.17,6.82.15,10.17,0l1.45.51c.12.18.07.35,0,.53-.22.53-1.11,1.58-1.47,2.18-.47.76-.92,1.53-1.37,2.31,1.32-.93,2.64-2,4.03-3.21.48-.63,1.15-1.46,1.88-1.72.07-.07.15-.15.22-.21l-.04-.13c-.61-.37-1.25-.42-1.9-.67"/>
          <path class="cls-19" d="M44.69,49c-.48.41-.94.72-.99-.46,1.17-2.21,2.32-4.61,3.83-6.6.04-.06.09-.12.13-.18-1.38,1.22-2.71,2.28-4.03,3.21-.56.96-1.1,1.93-1.64,2.89v.18c.41.1.96.22,1.15.65-.75-.28-1.47-.3-2.27-.26-1.36.07-2.75.22-4.15.39-3.3,1.42-7,2.55-11.74,3.84-1.84,0-3.68,3.13-3.54,6.07.58.04,1.39.86,1.96,1.04l.46-1.24c.61-.36,2.85,1.01,3.64,1.12.29-3.82,3.5-6.68,7.35-6.37,3.1.23,6.22,2.48,6.35,5.78,0,.49-.16.89-.14,1.37l1.9-1.15c.23-.13.65-.28,1.01-.28l.48-.91c-.25-.16-.1-3.02-.14-3.58-.08-1.12-.54-2.25-.5-3.37.17-.52,1.94.04,2.39.07.37,0,.97-.09,1.18-.41.14-.43.32-.91.4-1.4-.94-.87-2.63.54-3.1-.38"/>
          <path class="cls-10" d="M47.6,47.84c-.85-.27-1.72.29-2.4.75-.16.11-.33.26-.5.41.47.92,2.16-.49,3.1.38.09-.53.08-1.06-.2-1.54"/>
          <path class="cls-23" d="M45.24,40.49c.15.14-.82,1.35-.97,1.58-1.06,1.65-2.14,3.4-2.94,5.2l-3.13-3.12c.4-.1,1.44-.15,1.63-.52.33-.35-.61-1.42-.46-1.57l2.74.33c.16-.13.13-.16.06-.34-.16-.5-.43-1.03-.59-1.56h3.66Z"/>
          <path class="cls-14" d="M24.78,31.62c.21,2.11-1.6,1.46-1.9-.12-.04-.26-.18-1.37.14-1.45.6-.12.38,1.97.91,2.09.45.1.4-1.24.6-1.49.54-.61,1.01.12,1.46.35.2.1.73.24,1.14.44-.1-.54-.1-1.08.04-1.61.35,0,.94,0,1.57-.08-.74-.21-1.52-.61-1.8-.87-.69-.61-1.38-1.94-1.37-2.86.7-.15.79.59,1.11,1.03.55.76.95,1.2,1.85,1.54.49.19,1.55.25,1.68.8.74-.31,1.31-.83,1.31-1.74-.68-.68-1.35-1.36-2-2.07-1.04.26-2.44-.36-3.04-1.19-.2-.26-.68-1.08-.18-1.23.59-.17.98.55,1.36.83.25.18.53.28.81.35-.88-1.11-1.63-2.35-2.18-3.79-.12-.07-.23-.15-.31-.21-.87-.68-1.84-2.32-.95-3.25-1.06-.93-1.75-2.28-1.67-3.72-.22-.04-.26.08-.39.2-.41.44-.66,1.13-1.42,1.12l-.14,1.48v22.23c1.24.05,2.49-.07,3.72,0,1.12.04,2.49.2,3.59.46.31.08,2.11.71,2.21.59,0-.26.07-.48.16-.67-1.1-2.27-2.96-4.37-3.69-6.43-.64.28-2.25-.33-2.59-.72M25.76,37.22c-.7-.51-1.24-1.45-1.11-2.34l.45.13c.31.51.88,1.29,1.38,1.62.47.3,1.35.33,1.29,1.11-.62.29-1.5-.13-2.01-.52"/>
          <path class="cls-16" d="M41.47,27.33l-2.74.26c-.1-.51.27-.74.59-1.04l2.02-1.18c-1.72-.18-2.86-2.13-3.36-3.62-.14-.42-.52-1.32-.16-1.66.15-.15.52-.09.52-.32-.6-.24-1.12-.92-1.48-1.45-.33-.46-1.75-2.85-.3-2.58.15.02.59.45.61.11-.15.02-.22-.04-.31-.16-.92-1.25-1.33-2.61-2.01-3.96l.12-.42c.32-.11.58.04.85.1.18.03.24.01.17-.17-.1-.29-.58-.83-.76-1.2-.32-.63-.46-1.35-.73-2-.06,0-.35.96-.43,1.13-.21.41-1.14,1.59-1.18,1.83-.04.28.26.6.26,1.01,0,1.39-1.19,2.97-2.23,3.79.9.36.4,1.75.1,2.45-.48,1.08-1.51,1.97-2.04,3.03-.57.35-1.95-.26-2.68-.72.55,1.44,1.31,2.68,2.18,3.79.48.13.98.19,1.46.39.47.28.07.73-.3.84-.03,0-.06.01-.09.02.64.71,1.32,1.39,2,2.07,0,.91-.57,1.43-1.31,1.74.02.08.02.18,0,.28-.23.3-.83.26-1.46.07-.63.08-1.22.08-1.57.08-.14.54-.13,1.08-.04,1.61.3.14.53.31.53.51,0,.21-.12.32-.28.39.74,2.06,2.6,4.17,3.69,6.44.28-.54.87-.78,1.54-.96,1.15-.3,2.77-.49,3.97-.59.5-.04,1.08.07,1.57,0,.66-.1,1.15-.98,1.5-1.5-2.31-.2-1.04-1.03-.26-2.14h-1.89s-.57-.24-.63-.28c-.3-.18-.78-.96-.54-1.29.07-.1,1.86-.59,2.24-.75.67-.28,1.5-.74,2.12-1.14.67-.43,1.41-.84,1.45-1.74-.67,0-.71-.48-.65-1.04M30.12,34.69c-.35-.36-.79-1.09-.33-1.5.27-.05.62.48.76.61.22.16.57.48.77.59.36.2,2.03.48,1.93.95-.77.78-2.49.03-3.13-.64"/>
          <path class="cls-9" d="M33.83,40.34c-.49.07-.62.29-.26.66l1.88,1.23c.29-.57.54-1.18.8-1.78-.78-.06-1.62-.21-2.42-.11"/>
          <path class="cls-16" d="M38.74,41.28l2.6.51-.39-1.24c-1.39-.15-2.83-.03-4.24-.07-.15,0-.3-.02-.45-.03-.26.6-.51,1.21-.8,1.78l1.9,1.25c.32,0,1.56-.08,1.63-.34-.12-.66-.63-1.17-.25-1.87"/>
          <path class="cls-4" d="M39.71,47.39c.08.09.37.49.33.52-.25.02-.47-.12-.72-.13-2.1-.15-4.4,0-6.51-.13-2.17-.12-4.37-.45-6.56-.61-.58-.18-1.5-1.41-2.04-1.86-2.88-2.43-6.56-3.89-10.01-5.25-.14-.05-.39-.04-.36-.23.85-.03,1.71.04,2.54,0,3.75-.14,9.72-.65,13.2.61,3.26,1.17,7.94,4.37,10.12,7.07"/>
          <path class="cls-6" d="M10.85,1.55c2.54.51,5.56-.88,8.38-1.73-3.61,0-7.22.02-10.83.02.73,1.03,1.59,1.71,2.45,1.71"/>
          <path class="cls-6" d="M-2.2-.31V3.92s.09.02.13.02v-.72c.4-.03.83.04,1.22-.03.65-.13,1.14-1.07,1.83-.86.38.2.41.65.73.96.76.72,1.82.42,2.74.33.08.62.77,1.38,1.34,1.59.32.12.65.03.88.29-.45.61-1.24.33-1.76-.06-.63,1.06.16,2.06,1.37,1.82-.14.49-.53.87-.62,1.4-.22,1.29.17,2.26,1.26,2.98-.35.94-1.28.58-1.18,1.95.11,1.13,1.63.26,2.15.32.61.07,1.27.99,1.95.77.39-.13.53-1.87,1.31-1.78.33.03.6.53,1.01.66.69.22,2.46,0,2.47.93,0,.63-.59.95-.07,1.75.42.68,1.2.77,1.94.65.47-.07,1.14-.58,1.83-.51.39.03.59.62,1.19,0,.53-.55.56-1.34.33-2.03-.11-.34-.36-.52-.39-.85.52-.14.7.4,1.13.5.27.07.72.05.99,0,.75-.17.72-1.13,1.14-1.66.78.33,1.4.78,2-.14.3-.47.24-.87.39-1.3.12-.33.51-.46.47-.83-.01-.12-.38-1.02-.46-1.12-.16-.18-.47-.19-.65-.39-.16-.2-.2-.52-.33-.69-.12-.17-.43-.2-.51-.45-.22-.72,1.53-1.53,2.14-1.49.6.05,1.46,1.32,1.95.53.33-.53.05-1.5,1.02-1.27.53.12.53.5,1.46.36,1.22-.2.87-1.54,1.23-2.12.12-.18.57-.14.39-.66-.04-.14-.76-.4-.46-.87.26-.38.73.14,1.04.15.86,0,1.72-1.02,2.1-1.71.38,1.14,2.47,2.22,3.24.9.12-.2.13-.54.29-.65.71-.45,1.01.33,1.47.48.74.24,1.52-.66,1.84-1.25-5.47-.03-10.94-.02-16.42,0,.87.51,1.63,1.41,2.25,2.83-5.44,1.09-4.35,5.44-8.7,8.7-1.09,1.09-4.35,1.09-5.44,0C10.69,7.44,8.35,1.88,4.42-.17c12.3.01,24.61-.07,36.92,0h.37s.04-.08.06-.13H-2.2Z"/>
          <path class="cls-8" d="M13.03,11.34c1.09,1.09,4.35,1.09,5.44,0,4.35-3.26,3.26-7.61,8.7-8.7-.61-1.42-1.37-2.32-2.25-2.83h-5.69c-2.82.85-5.84,2.24-8.38,1.73-.86,0-1.72-.69-2.45-1.71h-3.99c3.93,2.05,6.27,7.61,8.61,11.51"/>
          <path class="cls-18" d="M37.16,78.41c.04.21,0,.31-.12.47-.41.63-2.28,1.2-2.99.83l.25-.71c.99-.18,1.82-.75,2.86-.59"/>
          <path class="cls-21" d="M36.44,58.34c.52.14.29,3.59.3,4.21-.13.47-1.24.42-1.66.48l.52-.98c0-.23-.26-.31-.33-.46-.25-.47.12-3.33,1.16-3.25"/>
          <path class="cls-18" d="M36.51,90.41c.29.25-.86.6-1,.62-1.52.24-3.1-.24-4.38-1.04-.32-.2-1.58-1.12-1.52-1.47.17-.29.4-.1.65,0,1.14.44,2.18,1.14,3.36,1.46.95.25,1.93.33,2.89.43"/>
          <path class="cls-18" d="M36.45,85.58c.06.19.12.32-.07.46-.29.2-.9-.26-1.1-.47-.19-.17-.89-1.16-.4-1.29.36-.09,1.46.97,1.57,1.3"/>
          <path class="cls-18" d="M35.21,73.07c.09.96-1.1,1.18-1.83,1.37-.68.18-2.7.75-2.86-.28-.03-.23.16-.26.32-.31.77-.25,2.62-.68,3.4-.77.31-.03.64-.01.97-.01"/>
          <path class="cls-21" d="M35.21,57.82l-.85,3.92-1.76.38c.17-1.2.13-2.64.81-3.69.47-.74.97-.92,1.81-.61"/>
          <path class="cls-18" d="M35.01,81.28c.39.12.7.39,1.11.39-.91.95-2.88.27-4.03-.07-1.18-.35-2.37-.84-3.31-1.65-.16-.14-.27-.16-.22-.43.18-.65,1.7.41,2.04.57,1.51.69,2.88.76,4.41,1.2"/>
          <path class="cls-18" d="M34.46,76.09c.51.27,1.73.54.45.99-.52-.15-1.81-.57-1.78-1.22l.21-.32c.3-.09.86.39,1.13.54"/>
          <path class="cls-18" d="M32.89,84.18c.31.54.85.94.76,1.65-1.12.24-1.82-1.04-2.19-1.91-.13-.29-.54-1.39-.28-1.59.17-.03.38-.04.55.01.26.08.95,1.48,1.15,1.84"/>
          <path class="cls-18" d="M31.33,34.38c.36.2,2.03.48,1.92.95-.77.78-2.49.03-3.13-.64-.35-.36-.79-1.09-.33-1.5.27-.05.62.48.76.61.22.16.57.48.77.59"/>
          <path class="cls-18" d="M33.26,77.56c-.6.69-1.54.1-2.13-.35-.4-.31-1.2-1.1-.66-1.53.41-.12,1.13.59,1.5.83.46.3,1.1.45,1.29,1.05"/>
          <path class="cls-18" d="M28.52,28.6c.57.22,1.88.26,1.67,1.08-.5.66-2.74-.32-3.26-.79-.68-.61-1.38-1.94-1.37-2.86.7-.15.79.59,1.11,1.03.56.76.95,1.2,1.85,1.54"/>
          <path class="cls-18" d="M29.7,82.42c.11.45.54,2.5.37,2.77-.14.22-.49.12-.7.02-.68-.33-1.07-2.88-.7-3.46.14-.23.6-.24.77-.07.09.1.21.55.25.73"/>
          <path class="cls-18" d="M29.92,24.73c.47.28.06.73-.3.84-1.05.33-2.51-.32-3.13-1.17-.2-.26-.68-1.08-.18-1.23.59-.17.98.56,1.36.83.68.49,1.51.44,2.26.74"/>
          <path class="cls-18" d="M29.47,71.32c.01.53.52,3.2-.44,3.17-.1-.01-.29-.11-.36-.2-.48-.87-.13-1.73-.11-2.58.02-.73-.05-1.51-.01-2.23.02-.34.15-1.27.29-1.53.13-.26.23-.24.49-.23.22,1.2.09,2.39.13,3.6"/>
          <path class="cls-9" d="M28.17,48.04c.03.23-.29.12-.45.13-.33,0-.66,0-.98,0-.04-.45.07-.18.21-.18.43-.02.77-.18,1.22.04"/>
          <path class="cls-18" d="M27.64,71.32c.03.79.39,2.05.38,2.73,0,.12-.29.78-.37.88-.32.45-1.32.13-1.76.09-1.03-.09-2.36.01-2.81-1.16,1.27-.02,2.58-.04,3.77.39-.34-2.46-.51-5.08.15-7.48l.2-.2c.12-.03.48-.05.56,0,.1.07.16.66.15.84-.03,1.25-.33,2.62-.27,3.91"/>
          <path class="cls-18" d="M26.48,36.64c.47.31,1.35.33,1.29,1.11-.62.29-1.5-.13-2.01-.52-.7-.51-1.24-1.45-1.11-2.34l.45.13c.32.51.88,1.29,1.38,1.62"/>
          <path class="cls-18" d="M25.99,31c.34.17,1.67.47,1.66.95-.01,1.02-2.45.15-2.87-.33.21,2.11-1.6,1.46-1.9-.12-.04-.26-.19-1.37.14-1.45.6-.12.38,1.97.91,2.09.45.1.4-1.24.6-1.49.54-.61,1.01.12,1.46.35"/>
          <path class="cls-18" d="M23.87,85.78c.59-.11,2.76-.88,3.13-.6-.55,1.25-2.62,1.64-3.86,1.82-1.71.23-5.54.04-6.84-1.22-.22-.22-.45-.84-.05-.73.25.09.6.35.98.46,1.88.59,4.71.63,6.65.27"/>
          <path class="cls-18" d="M26.34,76.07c.55.82-2.4,1.68-2.85.83l.07-.32c.54.04,2.46-.97,2.78-.51"/>
          <path class="cls-21" d="M25.96,48.11c0,.12-1.35.07-1.57.07v-.13c.45.05,1.06-.28,1.57.06"/>
          <path class="cls-18" d="M25.18,81.54c.14.92-.45,1.54-1.11,2.08-.6.49-1.51,1.13-2.28.78-.07-.37.23-.56.46-.77.41-.37.99-.7,1.43-1.06.46-.36.84-1.03,1.5-1.03"/>
          <path class="cls-18" d="M25.14,87.88c.18.64-.23,3.03-1.26,2.77-.4-.97.47-1.94.63-2.9.23-.26.53-.21.63.13"/>
          <path class="cls-18" d="M25.04,79.45c.04.32-.33.46-.57.54-1.13.47-2.97.57-4.15.34-1.44-.29-3.61-1-3.75-2.71.09-.09,2.01.9,2.31,1.01,1.23.47,2.71.79,4.01.83.69.02,1.39-.33,2.15-.01"/>
          <path class="cls-18" d="M24.25,75.75c.05.19.01.26-.12.38-.18.18-1.42.35-1.73.3-.45-.07-.68-.3-.88-.7.02-.29,1.12-.17,1.37-.19.16-.01.32-.1.44-.11.37-.02.67-.04.92.3"/>
          <path class="cls-9" d="M24.07,46.48c.09.04.09.09,0,.13v-.13Z"/>
          <path class="cls-14" d="M23.87,46.48h-2.35l-.2-1.83c.89.53,1.83,1.11,2.55,1.83"/>
          <path class="cls-21" d="M23.74,48.17c-.13,0-.26,0-.39,0,.01-.2.37-.2.39,0"/>
          <path class="cls-18" d="M22.55,81.07c.85-.18.78.32.26.78-.38.35-2.15,1.22-2.67,1.25-.17.01-.76-.06-.83-.15-.04-.07-.04-.43,0-.49,1.09-.17,2.25-1.17,3.23-1.39"/>
          <path class="cls-18" d="M22.77,87.78c.29.46-.72,1.77-1.04,2.1-.35.35-1.69,1.45-2.13,1.01-.64-.65.88-1.5,1.28-1.86.28-.26,1.52-1.81,1.89-1.25"/>
          <path class="cls-20" d="M17.22,42.57l.13,4.17,1.16-.09c.06-1.11.18-2.21.31-3.32l-1.59-.76h0Z"/>
          <path class="cls-21" d="M20.62,44.19l-1.8-.86c-.13,1.1-.25,2.21-.31,3.32l2.36-.18s-.25-2.28-.25-2.28Z"/>
          <path class="cls-20" d="M17.42,27.14l-.07,11.39h2.03c.37-3.92.27-7.75-1.97-11.39"/>
          <path class="cls-21" d="M20.54,16.63c-.37.08-.54.52-.85.71-.65.38-.98.03-1.6-.16l-.62.33-.06,9.64c2.24,3.64,2.34,7.47,1.97,11.38h1.09l.07-21.89h0Z"/>
          <path class="cls-18" d="M19.5,53.38c1.71.8,1.45,3.77.78,5.22-.95,2.07-3.17,1.46-3.33-.59-.11-1.36-.09-4.29,1.66-4.6.29-.05.59-.04.88-.03M19.61,57.92c.3-1.04.59-3.86-.99-3.86-.38.23-.63.35-.78.78-.29.85-.51,3.78.43,4.21.81.39,1.15-.48,1.34-1.13"/>
          <path class="cls-18" d="M19.95,80.82c.09.37-1.12.67-1.38.71-.7.08-2.32.08-1.53-.88.59.03,1.17-.09,1.72-.12.46-.02.85-.12,1.2.29"/>
          <path class="cls-23" d="M18.62,54.06c1.58,0,1.29,2.82.99,3.86-.19.65-.53,1.52-1.34,1.13-.95-.42-.73-3.36-.43-4.21.15-.43.4-.55.78-.78"/>
          <path class="cls-18" d="M19.31,87.93c.37.35-1.15,1.77-1.64,1.18-.45-.64,1.09-1.38,1.64-1.18"/>
          <path class="cls-18" d="M18.78,69.11l-.35.41-3.03.35-.22-.25.41-1.51c-.45.13-.88.32-1.28.55-.45.27-.74.63-1.18.88-.55-.12-.28-1.52-.35-1.95-.76-.13-1.87,1.62-2.4,1.57-.42-.04-1.13-1.25-1.11-1.71-.34-.04-.21.02-.27.19-.21.52-.23,1.04-.37,1.55l-.45.2c-.41-.05-1.49-1.48-1.49-1.84.04-.4.28-.45.66-.33.37.12.54.71.87.88.07-.52.15-1.08.58-1.43.85-.73,1.27,1.58,1.58,1.57.64-.64,1.59-1.74,2.6-1.55l.27.12c.41.39.33.91.31,1.44.58-.39,1.97-1.12,2.65-.89.84.28-.49,1.5-.3,1.68.34-.03.65-.2.99-.25.22-.02,1.13-.12,1.27-.11.16.02.57.31.6.45"/>
          <path class="cls-5" d="M14.11,25.48c-1.09-1.09-1.09,2.18-2.18,1.09,0-2.92.98-6.32,2.28-9.55-.49-.62-.75-1.48-.65-2.33l-.45.13c-.7,1.76-1.24,3.74-2.54,5.15-.07.34.34.11.6.3.46.36-.08,1.98-.28,2.49-.35.89-.95,1.59-1.49,2.35.17.14,1.07-.58,1.37-.13.5.6-.21,2.22-.57,2.83-.56.94-1.57,1.95-2.63,2.25l.07.26c.43-.07,1.49-.74,1.83-.39.6.63-.81,1.88-.72,1.96.7.26,1.95-1.11,2.45-.62.4.55.24,1.1,0,1.7-.24.62-.77,1.44-1.52,1.25-.35-.64.32-1.24.5-1.87-.07-.08-.34.1-.38.13-.4.37-1.13,2.35-1.54,3.02-.55.89-1.29,1.66-2.12,2.3-.4.32-.95.66-1.42.86-.03.25.25.09.37.04.21-.08.79-.4.93-.3l.13,1.11-.46.98.55-.23c2.55-5.12,9.59-7.93,7.88-14.78"/>
          <path class="cls-14" d="M16.57,17.81c-1,.26-1.82-.12-2.35-.8-1.3,3.24-2.28,6.64-2.28,9.55,1.09,1.09,1.09-2.18,2.18-1.09,1.71,6.85-5.33,9.65-7.88,14.78l1-.41c.96.71.27,2.04-.02,2.95l-1.72,2.12c.84-.12,1.79-.86,2.58-1.01.9-.18.74,1.23.56,1.79.6-.1.92-.72,1.61-.5.48.15.48,2.1.48,2.59.34-.03,1.04-.11,1.14-.48.21-2.2.61-4.37,1.21-6.49-.51-.3-2.43-.65-2.59-1.2-.12-.38.03-.75.44-.83l5.53-.13c-.01-.29-.12-.53-.14-.84-.22-3.99.18-8.03.27-12,.06-2.66-.05-5.35,0-8.02"/>
          <path class="cls-14" d="M16.44,43.54c.03,1.09-.05,2.14-.19,3.21l-3.47.51,1.04-5.99c.18-.25,2.22.71,2.61.78-.29.57-.01,1,0,1.49"/>
          <path class="cls-4" d="M15.66,53.92c-.01,1.39-.46,2.76-.39,4.17l-1.03-.14.38-4.16,1.04.14h0Z"/>
          <path class="cls-4" d="M13.96,53.65l-.39,4.05-.98-.13c-.17-.23.05-.58.08-.85.05-1.08-.03-2.12.25-3.2l1.04.13Z"/>
          <path class="cls-18" d="M11.1,75.73c1.32,1.25,1.69,3.62,2.47,5.22-.01.38-.66.54-.96.71-.32-.16-.99-.99-1.31-.9-.47.4-.53,1.82-1.29,1.78-.33-.01-1.2-.51-1.38-.01-.17.51.2.4.32.57.29.39-.35,1.57-.26,2.09.72-.17,2.14-1.16,2.67-.33.36.54-.42,1.24-.39,1.89.09.09,1.81-.44,2.08.07-.01.39-2.05.97-2.42.97-1.04-.02-.42-1.63-.19-2.21-.12-.1-2.13,1.08-2.54.39l.33-2.22c-.44.23-.89.46-1.29.73-.28.18-.56.66-.97.57-.69-.17-.08-1.85-.54-2.33-.51.36-1.48,2.58-2.07,2.46l-2.03-2.2c-.27.63.1,2.08-.96,1.83l-2.44-2.87c.01-.24-.03-.47.02-.7l.31-.22,2.48,2.6c.29.01.13-1.74.89-1.54.31.08,1.37,1.75,1.72,2.07.16,0,1.59-2.38,2.14-2.67.35-.18.78.09.78.39v2.01l1.4-.67c.45-1.51.48-2.01,2.2-1.41l.18-.04c.23-.27.58-1.8.73-1.91.37-.25.84.08,1.22.08-.33-.57-.84-2.68-1.3-3-.19-.14-.21-.02-.33.07-.87.58-1.74,1.13-2.61,1.7-1.15.1-2.01-.75-3-1.16-.98.48-1.97,1.11-3.12.9-.24-.04-1.25-1.05-1.43-1.3-.35-.49-.46-1.1-.73-1.63l-1.54-.6c-.05-.21-.01-.42-.02-.63l2.22.85c.31.76.55,1.86,1.3,2.34,1.06.65,2.32-.48,3.3-.82.7.16,1.97,1.32,2.62,1.27.4-.02.59-.38.87-.58.55-.37,1.17-.79,1.82-.99-1.26-1.12-2.84-1.8-4.44-2.27-.92-.28-1.84-.38-2.77-.75-1.06-.41-3.15-1.85-4.2-1.66-.33.05-.43.4-.72.52v-1.31c.52-.15.57-.47,1.17-.34,1.75.37,3.33,1.61,5.06,2.13,2.52.75,4.9,1.15,6.94,3.09"/>
          <path class="cls-16" d="M11.1,14.3l1.3.33c-.46,1.43-1.17,2.73-2.1,3.9-.33.41-1.74,1.79-1.79,2.11-.02.13.04.53.2.57l1.74-.27c-.38,1.25-1.27,2.57-2.28,3.39-.31.25-2.08,1.22-1.76,1.7,1.33.39,2.64-.38,3.92-.65-.18,1.62-1.7,2.82-3.04,3.54-1,.53-2.2.78-2.96,1.73v.09h-.25V7.64l1.06.47c-.13,1.17-.35,2.29.25,3.38-.15.37-.46.53-.63.92-.83,1.76.46,2.97,2.25,2.77.28-.03.66-.24.9-.22.31.03.86.51,1.22.6.36.08.98.07,1.32-.08.42-.23.63-.73.69-1.2"/>
          <polygon class="cls-4" points="12.13 53.38 11.88 57.43 11.18 57.41 10.98 57.21 11.22 53.38 12.13 53.38"/>
          <path class="cls-16" d="M9.67,46.35v1.83c-.73.15-1.54.42-2.22.72-.76.33-1.49.87-2.25,1.09l-.75-.46-.2-3.45.15-.1c1.23.06,2.29-.59,3.37-1.07.25.52-.51,1.11-.56,1.52.33,1.35,1.68,0,2.45-.09"/>
          <path class="cls-18" d="M7.14,51.98c2.17-.49,2.41,3.26,1.94,4.67-.2.53-.71,1.35-1.32,1.43-.95.1-1.75-.75-1.87-1.64-.15-1.18.18-2.72.58-3.84.1-.29.38-.55.68-.62M7.11,57.05c1.14.91,1.17-2.13,1.12-2.69-.04-.41-.43-1.64-.97-1.49-.62.78-.93,3.54-.15,4.18"/>
          <path class="cls-16" d="M8.75,32.67c-.36,2.44-2.75,3.79-4.7,4.95v-6.88h.25c0,.16.14.11.3.14.39.12,1.7.25,2.12.24.71-.03,1.57-.4,2.22-.66,0,.23-.19.56-.33.72-.29.36-1.12.63-1.15,1.07-.06.53.93.46,1.28.43"/>
          <path class="cls-8" d="M9.69,76.46c.12-.05.24-.1.37-.14-1.26-1.12-2.84-1.81-4.44-2.27-.92-.28-1.84-.38-2.77-.75-1.06-.41-3.15-1.85-4.2-1.66-.33.06-.44.4-.72.52v-1.28s-.09.04-.13.07v3.46s.02.01.04.01h.09v-.17l2.22.85c.03.06.05.14.08.21,3.1.94,6.29,1.22,9.46,1.16"/>
          <path class="cls-17" d="M.23,75.3c.28.74.54,1.69,1.23,2.13,1.06.65,2.32-.48,3.3-.82.7.16,1.97,1.32,2.62,1.27.4-.02.59-.38.87-.58.45-.3.94-.63,1.45-.85-3.17.06-6.36-.22-9.46-1.16"/>
          <path class="cls-23" d="M8.23,54.36c.05.56.02,3.6-1.12,2.69-.78-.63-.47-3.39.15-4.18.53-.15.92,1.08.97,1.49"/>
          <path class="cls-16" d="M4.18,41.4c.29.34,2.48-.55,2.48-.33-.06.49-.45.93-.59,1.36-.09.26-.02.56-.13.79-.16.35-1.4.99-1.76,1.29v-3.12h0Z"/>
          <path class="cls-16" d="M5.49,39.05c.17.17-1.04,1.47-1.29,1.57v-.89l1.29-.67h0Z"/>
          <path class="cls-18" d="M2.5,62.77c1.05-.2,1.88,1.48,1.11,2.21-.06-.1-.26-.09-.3-.15-.06-.08-.25-.9-.35-1.14-.14-.32-.46-.54-.46-.91"/>
          <path class="cls-21" d="M3.67,44.6c.15-1.4-.12-3.08-.01-4.5l-1.61.28-.19.18.12,7.87c1.16-.18,1.7-.4,1.31,1.03l.45.14-.05-3.47c-.48-.75-.07-.91,0-1.54"/>
          <path class="cls-7" d="M4.71,50.71c-.83,1.63-.99,3.48-1.04,5.28l-1.42.4c-.15-.54.35-1.16-.05-1.58-.51-.4-1.58.31-1.84.79-.37,0-.52-.61-.72-.85-.62-.75-1.01-.3-1.7.07v-5.08l1.63-.78c0,2.04,1.83.35,2.94.26-.59,1.63,1.4.9,2.21,1.49"/>
          <path class="cls-20" d="M1.96,10.29l-.03,7.11c1.15-2.46,1.57-5.44.03-7.11"/>
          <path class="cls-21" d="M3.5,25.1c-.07-3.76-.19-7.51-.23-11.13-.03-3.02.03-6.05.01-9.07l-1.31-.13-.02,5.52c1.54,1.68,1.13,4.65-.03,7.11l-.02,5.24c.79.79,1.3,1.61,1.59,2.46"/>
          <path class="cls-21" d="M1.87,34.04l-.02,4.88,1.4-.67c-.07-.59.13-1.2.16-1.73.11-2.32.14-4.71.14-7.12-.37,1.52-1.03,3.08-1.68,4.64"/>
          <path class="cls-20" d="M3.5,25.1c-.3-.85-.81-1.67-1.59-2.46l-.04,11.4c.66-1.56,1.32-3.12,1.68-4.64,0-1.43-.02-2.86-.05-4.3"/>
          <path class="cls-18" d="M-.37,62.38c.82-.38,2.81,1.91,2.09,2.41l-.47-.05c-.27-.38-.55-.76-.84-1.12-.33-.4-.9-.63-.78-1.24"/>
          <path class="cls-16" d="M-2.07,48.83c.42-.23,2.53-1.24,2.73-.58l-.12.71.5-.22c.04-2.73,0-5.46.02-8.2.02-1.82.12-3.74.13-5.59.05-6.87-.1-13.76-.14-20.59,0-3.35.03-6.7,0-10.04l-.61-.71c-.82.51-1.57.58-2.52.51v-.19s-.09-.01-.13-.02v45.19s.09,0,.13,0v-.29h0Z"/>
          <path class="cls-6" d="M16.3,85.78h-.01s0,.6,0,.6h.36c-.06-.16-.12-.31-.18-.48-.05-.04-.12-.07-.17-.12"/>
          <path class="cls-6" d="M16.47,85.9c.05.17.12.32.18.48h.68c-.33-.14-.63-.29-.86-.47"/>
          <path class="cls-8" d="M91.48,85.43c-.36.72-.7,1.55-1.31,1.43l-.77-.6c-.29.12-.58.25-.87.38-.08.71-.4.88-1.06.47-.2.09-.41.18-.61.27.17.8.5,1.96-.1,2.25h-2.22c-.25,0-.88.58-1.28.37l-.25-.27c-.08-.07-.08-.26-.08-.46-.42.21-.83.41-1.25.62l-.19.19-.22.02c-2.79,1.42-5.55,2.9-8.3,4.34h19.6v-8.34c-.35-.2-.4-.56-.4-.93-.22.08-.45.17-.67.26"/>
          <path class="cls-6" d="M82.72,88.84l-1.05,1.05c.42-.21.83-.42,1.25-.62,0-.26,0-.52-.2-.43"/>
          <path class="cls-6" d="M88.53,86.64c.29-.13.58-.26.87-.38l-.88-.68c.04.43.04.79.01,1.06"/>
          <path class="cls-6" d="M86.85,87.38c.2-.09.41-.18.61-.27-.19-.12-.4-.27-.65-.49-.09.11-.04.4.03.76"/>
          <path class="cls-6" d="M86.3,88.58c-.04-.27-.1-.57-.16-.86-.72.34-1.45.68-2.16,1.03,0,.03-.02.07-.03.1.78-.26,1.52-.3,2.35-.26"/>
          <path class="cls-6" d="M53.6,67.63c-.09-.43.39-1.09-.09-1.47-.64.15-1.23,1.64-1.7,1.7-.85.07-.99-.95-1.82-1.17-.42,1.84-1.29,1.32-2.67.78-.08.1.09.38.19.67,2.15,0,4.3.02,6.45.02-.13-.06-.25-.21-.36-.52"/>
          <path class="cls-6" d="M45.79,75.34c.12-.02.23-.04.35-.06-.05-.1-.11-.19-.18-.24-.07.07-.12.18-.17.3"/>
          <path class="cls-6" d="M56.32,67.08c-.08-.08-.97.4-1.13.49-.33.18-.62.48-.89.59h1.78c-.09-.31.18-.7.23-1.07"/>
          <path class="cls-6" d="M58.16,67.93l-.07.19h.4c-.11-.06-.22-.11-.33-.18"/>
          <path class="cls-22" d="M23.09,73.85c.84-.01,1.7-.02,2.53.1.38-.22.75-.43,1.13-.62-.15-1.27-.21-2.58-.14-3.86-5.02.91-9.94,2.42-14.67,4.95,3.78.24,7.62.63,11.46.97.28-.19.56-.38.83-.56-.5-.14-.93-.4-1.14-.98"/>
          <path class="cls-6" d="M87.86,84.86c-8.14-1.29-16.73-1.5-23.73-5.84-.18.06-.36.08-.54.02-.16-.05-.31-.35-.44-.67-.34-.23-.67-.48-1-.74-.81.3-1.84.93-2.39.67-.13-.05-.34-.18-.31-.36l.6-.32.07-.33c.1-2.41.06-4.87,0-7.33-3.39,2.16-6.93,3.62-10.56,4.56.03.51-.25,1.24-.13,1.64.59-.44,1.16-.92,1.86-1.2.32-.12.61-.32.92-.09.7.46-.35,1.49-.32,2.07h1.89s.21.15.32.15c.29,1.23-1.58,1.1-2.4,1.02-1.46-.13.1-1.5-.25-2.34-.53.2-2.03,1.65-2.46,1.54-.14-.04-.24-.22-.35-.32v-2.01c-.54.17-1.08,1.58-1.52,1.66-.51.11-.69-.9-.97-1.41-.12.02-.23.04-.35.06-.17.44-.21,1.08-.62,1.13-.48.04-.47-.42-.72-.73-.04-.05-.1-.11-.17-.17-2.99.4-6.02.54-9.08.52.42.7.56,1.54.57,2.47.44-.13.88-.22,1.37-.14.04.21,0,.3-.12.47-.19.3-.72.58-1.29.76-.04.62-.1,1.26-.15,1.91.16.07.32.13.51.13-.15.16-.34.26-.55.33-.05.93-.05,1.85.14,2.71.35.3.68.68.74.85.06.18.12.32-.07.46-.29.2-.9-.26-1.1-.47-.05-.05-.13-.15-.22-.27h-1.49c.06.16.09.34.07.54-.44.1-.82-.05-1.14-.32-.62,1.61.39,3.71,2.25,4.67.58.09,1.17.15,1.75.21.11.09.02.19-.14.29.19.02.38.04.58.04-1.09,0-2.18,2.18-4.35,1.09,1.48.74,2.46,1.5,3.28,2.59.67-2.86,2.84-4.9,5.58-6.44-.19-.53-.65-1.01-.38-1.59.8-.14.88.66,1.26,1.13.02-.01.04-.02.06-.03.05-.02.11-.02.16-.04.14-.59.35-1.56.77-1.76.68-.34,1,.63,1.26,1.37.3-.04.6-.07.9-.09.47-.89,1.26-1.89,2.04-1.76.53.08.47,1.15.46,1.83.13.01.26.03.39.05.71-.55,1.87-1.14,2.52-.8.54.28.36.88.18,1.46.26.09.52.2.77.31.9-.41,1.98-.67,2.51.11.41.59.32.99.12,1.42.36.27.7.57,1.02.88.26.07.47.22.58.54,0,.02-.03.03-.05.05.86.98,1.55,2.12,2.01,3.41h14.93c2.75-1.43,5.51-2.91,8.3-4.34l-.21.02-1.26-1.67c-.2.47-.77,2.86-1.13,2.98-.51.17-1.53-.52-2-.76-.09.47.03,1.81-.58,1.82-.4-.07-2.31-.84-1.89-1.43l.43-.11,1.12.49c-.03-.38.06-1.62.35-1.83l.57-.07c.45.49.99.98,1.7.99.02-.61,1.28-3.77,1.64-3.89,1.15-.25.71,1.48,1.1,2.2.11.13,1.61-1.62,2.65-1.28.44.29.36.74.23,1.19.72-.35,1.44-.69,2.16-1.03-.29-1.49-.52-3.01,1.6-1.48-.02-.29-.01-.9.12-1.37"/>
          <path class="cls-6" d="M26.61,69.47c.05-.92.16-1.83.4-2.71l.2-.2c.12-.03.48-.05.56,0,.06.04.1.26.13.48.47.2.81.46,1.05.76.1-.11.2-.09.4-.09.08.43.1.86.12,1.29h0c5.58-.76,11.26-.88,16.94-.88-.08-.15-.14-.3-.18-.42-.25-.7-.38-1.34.52-1.54l1.95.63c.19-.05.37-.99.86-1.23.59-.3,1.58.74,2.12.83,1.14-1.35,3.04-2.16,2.96.41.07.07.7-.33,1.34-.54-.43-.83,2.06-1.07,4.03-1.95,0-1.16,0-2.3.05-3.44-13.3,4.21-27.37,9.49-38.67-.99-.26.37-.71,1.03-1.02,1.13-.37.12-.73.02-1.1.07-1.07.16-2.96.67-3.91.64-.89-.04-.83-.83-1.07-.9-.58-.08-1.73.57-2.19.26-.4-.27.02-1.03-.09-1.44l-5.01.91c-.58.09-.9-.24-.98-.79l-.46.27c-.62.12-.99-.83-1.16-1.32-.24-.61-.34-1.33-.6-1.95-.46-.15-1.65.77-1.89.39-.16-.27-.1-1.45-.05-1.83l-1.39,1.41c-.53.15-1.34-.91-1.48-1.41l-1.04,1.04v-7.27s-.09,0-.13,0v10.2c6.73,2.16,13.81,2.83,18.49,7.5-1.08-.14-2.17-.15-3.25-.09l.21.09c.41.39.33.91.32,1.43.58-.39,1.97-1.12,2.65-.89.84.28-.49,1.5-.31,1.68.34-.03.65-.2.99-.25.22-.02,1.13-.12,1.27-.11.16.02.57.31.6.45l-.35.41-3.03.35-.22-.25.41-1.51c-.45.13-.88.32-1.28.55-.44.27-.74.63-1.17.88-.56-.12-.28-1.52-.35-1.95-.76-.13-1.87,1.62-2.4,1.57-.42-.04-1.13-1.25-1.11-1.71-.34-.04-.21.02-.27.19-.21.52-.23,1.04-.37,1.55l-.45.2c-.39-.05-1.37-1.33-1.47-1.77-3.12.58-6.13,1.1-8.91.44v2.88s.09-.04.13-.07v-.03c.52-.15.57-.47,1.17-.34,1.75.37,3.33,1.61,5.06,2.13,2.52.75,4.9,1.15,6.94,3.09,1.32,1.25,1.69,3.62,2.47,5.22-.01.38-.66.54-.96.71-.32-.16-.99-.99-1.31-.9-.47.4-.53,1.82-1.29,1.78-.33-.01-1.2-.51-1.38-.01-.06.16-.04.25-.02.32.73.49,1.41,1.05,2.05,1.69.28,0,.53.06.7.32.1.16.11.33.07.51.34.39.66.81.98,1.24.3,0,.55.05.64.21,0,.09-.12.19-.29.29,1.43,2.12,2.57,4.63,3.47,7.33h2.68c1.73-.85,3.59-1.6,5-3.71-.95,0-1.89-.1-2.79-.33-.53.4-1.22.79-1.52.5-.3-.31-.12-.65.19-.98-.46-.22-.89-.5-1.29-.84-.32.18-.65.24-.83.02-.16-.23-.06-.48.16-.68-.47-.55-.87-1.23-1.18-2.04h-.36v-.61c-.21-.23-.43-.82-.04-.72.25.09.6.35.98.46.93.29,2.09.45,3.25.49.49-.16.92-.38,1.25-.71,0-.85-.45-1.62-1.06-2.32-.21.08-.4.13-.51.14-.17.01-.76-.05-.83-.15-.04-.06-.04-.42,0-.49.22-.04.44-.11.66-.19-.32-.29-.65-.57-.98-.84-.19.05-.35.09-.43.1-.7.08-2.32.08-1.53-.88.32.02.63,0,.95-.04-.86-.71-1.36-1.28-.8-1.71-.33-.35-.57-.76-.61-1.27.06-.06,1.1.44,1.77.77,1.27-.55,2.49-1.3,3.69-2.09-.22-.12-.38-.31-.51-.57.02-.29,1.12-.17,1.37-.18.16-.01.31-.09.42-.11.03-.02.05-.04.08-.06-3.84-.34-7.67-.73-11.46-.97,4.73-2.52,9.65-4.04,14.67-4.95"/>
          <path class="cls-6" d="M47.45,75.03c-.21.04-.42.08-.62.12.03.1.07.19.11.26.07.09.3-.14.51-.38"/>
          <path class="cls-22" d="M44.29,75.56c-.31-.29-.82-.7-.75-.99.04-.15.22-.22.39-.14.22.1,1,.9,1.04.85.16-.64.47-1.51,1.11-1.77.52,0,.54,1.06.73,1.65.21-.04.42-.08.62-.12.17-.19.33-.4.4-.47.31-.27.7-.5,1.12-.58l.39.12c.12.1.17.26.18.44,3.63-.94,7.17-2.4,10.56-4.56,0-.37-.02-.75-.03-1.12-.52-.19-1.06-.45-1.59-.75h-.4c-.48.22-1.15.51-1.68.36-.19-.09-.28-.21-.32-.34h-1.79c-.12.05-.23.05-.34,0-2.14,0-4.29-.01-6.45-.02.08.23.13.45-.05.57-.47.31-.84-.13-1.07-.57-5.68,0-11.37.12-16.94.88.06.41.05.85,0,1.29v1.01c0,.19.07.64.11,1.14,1.06-.08,2.1.17,3.14.91.59-.13,1.17-.24,1.52-.28.32-.03.64-.01.97-.01.07.79-.71,1.07-1.4,1.26.32.34.64.73.97,1.18.18.18.31.37.44.57,3.06.03,6.09-.11,9.08-.52"/>
          <path class="cls-8" d="M6.72,67.63s-.02-.05-.02-.07c.04-.4.28-.45.66-.33.11.04.21.12.29.22.24-.04.49-.09.74-.13.08-.24.21-.47.42-.64.39-.34.69-.02.94.41.82-.13,1.65-.24,2.48-.32.25-.09.5-.13.76-.08l.06.03c1.08-.06,2.16-.04,3.25.09-4.68-4.68-11.77-5.34-18.5-7.5v8.76c2.79.66,5.8.14,8.91-.44M3.61,64.98c-.07-.1-.26-.09-.31-.15-.06-.08-.25-.9-.35-1.14-.14-.32-.46-.54-.46-.91,1.06-.2,1.88,1.48,1.11,2.21M-.37,62.38c.82-.38,2.81,1.91,2.09,2.41l-.47-.05c-.27-.38-.55-.76-.84-1.12-.33-.4-.9-.63-.78-1.24"/>
          <path class="cls-6" d="M10.38,68.24c.48-.48,1.12-1.2,1.84-1.47-.83.07-1.66.18-2.48.32.28.5.48,1.16.64,1.15"/>
          <path class="cls-6" d="M8.23,68.11c.03-.27.07-.54.16-.79-.25.04-.49.09-.74.13.19.22.35.54.58.66"/>
          <path class="cls-6" d="M89.33,85.11c.26.3.51.6.68.73.06.05.1.09.14.12.08-.03.15-.06.23-.09.07-.16.15-.33.23-.51-.43-.08-.85-.17-1.28-.24"/>
          <path class="cls-6" d="M62.76,77.49c-.18,0-.39.07-.62.15.33.26.66.5,1,.74-.17-.42-.3-.88-.38-.89"/>
          <path class="cls-8" d="M71.76,77.68h2.17c-.97-1.94-2.8-.43-4.72-.84-.04.64.09,1.41,0,2.02.03.15.75.05.81.53.08.75-.75.46-1.11.45-.48,0-.97-.01-1.45.01-.31.01-.66.26-.98.07-.39-.24-.22-1.34-.26-1.76-.33.15-.7.19-1.03.33-.34.15-.7.43-1.07.55,7.01,4.34,15.6,4.55,23.73,5.84.1-.35.28-.63.58-.59.18.02.54.43.89.84.43.08.86.16,1.28.24.43-.92,1.05-1.97,1.94-2.25v-2.64c-6.84-1.62-14.82,1.48-20.79-2.79"/>
          <path class="cls-6" d="M73.93,77.68h-2.18c5.97,4.27,13.96,1.17,20.79,2.79v-4.99h-1.03c0,.07-.02.13-.07.2-.45.46-.86.14-1.31.12-.68-.02-1.28.04-1.96.14-.96-.15.03-1.51.07-2.09l-1.78,1.01c-1.01.32-.66-1.08-.7-1.73-.02-.48-.54.04-.72.18-.46.39-.79.92-1.18,1.3-.63.64-1.48-1.12-1.88-1.42-.18.58-.75,2.27-1.47,2.2-.39-.04-.82-.49-1.27-.37l.11,1.86c-.08.17-.23.34-.43.36-.45.03-1.82-.48-2.48-.53-1.22-.1-3.1.54-2.14-1.43-.72-.2-1.79.83-2.4.63-.34-.11-.17-1.18-.34-1.54h-.32c-.51.55-1.84,1.29-2,2.04-.01.05-.01.12-.02.17h.35-.35c-.01.08-.02.16-.03.25,1.92.41,3.75-1.09,4.72.84"/>
          <path class="cls-6" d="M51.84,88.04c-.26-.11-.51-.22-.77-.31-.1.31-.21.61-.21.85.25-.17.6-.37.98-.54"/>
          <path class="cls-6" d="M55.48,90.45c-.32-.31-.66-.61-1.02-.88-.11.25-.26.52-.36.84.42.02.96-.07,1.38.04"/>
          <path class="cls-6" d="M53.08,88.66c.21.12.42.25.62.38-.05-.35-.3-.43-.62-.38"/>
          <path class="cls-6" d="M43.25,87.27c.15-.03.3-.08.45-.1l-.28-.55c-.03.11-.1.36-.18.65"/>
          <path class="cls-6" d="M45.11,87.8c.07-.23.2-.53.37-.84-.3.02-.6.05-.9.09.08.24.16.45.24.59s-.02.22.28.16"/>
          <path class="cls-6" d="M42.56,87.43s-.11.02-.16.04c-.02,0-.04.02-.06.03.05.06.1.12.17.17.02-.07.03-.15.06-.23"/>
          <path class="cls-6" d="M49.69,87.32c.18.04.35.1.53.15.04-.14.08-.26.11-.32-.08-.06-.36.05-.64.17"/>
          <path class="cls-6" d="M46.47,86.93c.19,0,.39,0,.58.02,0-.31,0-.57,0-.71l-.59.69Z"/>
          <path class="cls-8" d="M52.95,91.3c-.27-.4.71-1.52.76-2.01,0-.1,0-.18,0-.25-.2-.13-.41-.26-.62-.38-.41.07-.92.33-1.22.48-.49.23-1.42,1.03-1.93.68-.29-.18.08-1.64.3-2.35-.18-.05-.35-.11-.53-.15-.23.11-.46.23-.54.29-.38.27-1,1.21-1.17,1.29-.83.45-.93-.99-.93-1.96-.19,0-.39-.02-.58-.02l-.04.04c-.4.56-.61,1.52-.95,2.06-.17.28-.49.26-.77.14l-1.02-2c-.15.03-.3.07-.46.11-.23.82-.58,2.06-.74,2.15-.78.49-.88-.98-1.04-1.45v-.02c-2.74,1.54-4.91,3.59-5.58,6.44,0,.01.02.02.03.03h22.12c-.46-1.29-1.15-2.43-2.01-3.41-.28.43-2.64.56-3.06.26"/>
          <path class="cls-6" d="M47.98,87.4c.1-.1.24-.22.39-.34-.13-.02-.26-.04-.39-.05v.39"/>
          <path class="cls-8" d="M10.63,87.78c-1.04-.02-.42-1.63-.19-2.21-.12-.1-2.13,1.08-2.54.39l.33-2.22c-.43.23-.89.46-1.29.73-.28.19-.55.66-.97.57-.69-.17-.08-1.85-.54-2.33-.51.36-1.48,2.58-2.07,2.46l-2.03-2.2c-.27.63.1,2.08-.96,1.83l-2.44-2.87v-.48s-.08-.05-.11-.08h-.02v13.07h18.43c-.9-2.7-2.04-5.22-3.47-7.33-.57.34-1.84.68-2.12.68"/>
          <path class="cls-6" d="M12.41,86.6c-.31-.43-.64-.84-.98-1.24-.1.44-.48.92-.46,1.38.06.06.84-.15,1.43-.15"/>
          <path class="cls-6" d="M8.95,83.1c.29.39-.35,1.57-.26,2.09.5-.12,1.33-.62,1.98-.65-.64-.64-1.32-1.2-2.05-1.69.06.14.25.14.33.25"/>
          <path class="cls-6" d="M29.46,69.01c.01.43.01.87,0,1.3.05-.45.06-.89,0-1.3"/>
          <path class="cls-8" d="M23.14,87c-1.38.18-4.12.08-5.81-.63h-.68c.31.81.71,1.49,1.18,2.04.38-.37,1.13-.62,1.49-.49.23.22-.28.85-.81,1.16.4.34.83.61,1.29.84.35-.36.88-.69,1.09-.88.28-.26,1.52-1.81,1.89-1.25.29.46-.72,1.77-1.04,2.1-.12.12-.35.32-.61.51.89.24,1.84.33,2.79.33-1.41,2.11-3.27,2.86-5,3.71h7.6c.16-3.04.18-5.99.31-8.96-.73,1.01-2.54,1.36-3.67,1.52M23.88,90.66c-.4-.97.47-1.94.63-2.9.23-.26.53-.21.63.13.19.64-.23,3.03-1.26,2.77"/>
          <path class="cls-1" d="M26.83,85.14c.07,0,.14.02.17.05-.05.11-.12.2-.19.3-.13,2.97-.14,5.92-.31,8.96h1.75v-20.02c-.93,3.71-1.26,7.23-1.42,10.72"/>
          <path class="cls-8" d="M32.6,91.82c2.18,1.09,3.26-1.09,4.35-1.09-.2,0-.39-.01-.58-.04-.28.17-.77.32-.86.33-1.52.24-3.1-.24-4.38-1.04-.32-.2-1.58-1.12-1.52-1.47.17-.29.4-.1.65,0,1.14.43,2.18,1.14,3.36,1.46.38.1.76.17,1.15.23-1.86-.97-2.87-3.06-2.25-4.67-.48-.4-.83-1.07-1.05-1.6-.13-.29-.54-1.39-.28-1.59.17-.03.38-.04.56.01.26.08.95,1.48,1.15,1.84.22.39.55.7.69,1.11h1.49c-.25-.36-.55-.92-.18-1.02.17-.04.51.18.82.45-.19-.86-.19-1.79-.14-2.72-1.01.38-2.53-.12-3.49-.4-1.19-.35-2.37-.84-3.31-1.65-.16-.14-.27-.16-.22-.43.18-.65,1.7.41,2.04.57,1.51.69,2.88.76,4.4,1.2.21.07.4.17.6.26.05-.65.11-1.29.15-1.91-.64.2-1.33.27-1.7.07l.25-.71c.52-.1,1-.3,1.49-.45,0-1.19-.23-2.26-1.01-3.04-.32-.45-.64-.84-.96-1.18-.15.04-.3.08-.43.11-.69.18-2.7.75-2.86-.28-.03-.23.16-.26.31-.3.42-.14,1.17-.33,1.89-.49-1.04-.74-2.09-.99-3.14-.9.08.93.08,2.05-.54,2.02-.1-.01-.29-.11-.36-.2-.3-.55-.28-1.09-.21-1.63.04-.32.09-.63.1-.95.02-.73-.05-1.51-.01-2.23.02-.34.15-1.27.29-1.53.03-.06.06-.11.09-.14-.25-.3-.58-.56-1.05-.76.02.15.03.29.02.36-.03,1.25-.33,2.62-.27,3.92.02.43.13.99.23,1.53.08.45.16.89.15,1.2,0,.12-.29.78-.37.88-.32.45-1.32.13-1.76.09-.53-.04-1.14-.04-1.66-.19-.3.2-.61.41-.92.61h.01c.37-.02.67-.04.92.3.06.18.01.26-.12.38-.18.18-1.42.35-1.73.31-.15-.02-.26-.07-.37-.13-1.19.79-2.42,1.54-3.69,2.09.25.12.45.22.53.25,1.23.47,2.71.79,4.01.83.68.02,1.39-.33,2.15-.01.04.32-.33.46-.57.54-1.13.47-2.97.57-4.15.34-1-.21-2.36-.62-3.14-1.43-.56.43-.06.99.8,1.71.26-.03.52-.06.77-.08.46-.02.85-.12,1.2.29.06.26-.51.49-.95.61.33.26.66.54.98.84.89-.35,1.79-1.02,2.58-1.2.85-.18.78.32.26.78-.3.27-1.42.85-2.15,1.11.62.7,1.06,1.48,1.06,2.32-.33.33-.76.55-1.25.71,1.2.04,2.41-.03,3.39-.22.53-.1,2.33-.73,2.96-.65.16-3.49.49-7,1.42-10.72v20.02h7.65c-.82-1.11-1.8-1.87-3.31-2.62M33.33,75.55c.3-.09.86.39,1.13.54.51.27,1.73.54.45.99-.52-.15-1.81-.57-1.78-1.22l.21-.31h-.01ZM30.46,75.68c.41-.12,1.13.59,1.5.83.46.3,1.1.45,1.29,1.05-.6.68-1.54.1-2.13-.35-.4-.3-1.2-1.1-.66-1.53M24.07,83.62c-.6.49-1.51,1.13-2.28.78-.06-.37.23-.57.46-.77.41-.37.99-.7,1.44-1.05.46-.36.84-1.03,1.5-1.03.14.93-.45,1.54-1.11,2.08M23.49,76.9l.07-.32c.54.04,2.46-.97,2.78-.51.56.82-2.4,1.68-2.85.83M28.68,81.76c.14-.23.6-.24.77-.07.09.1.21.55.25.73.11.45.54,2.5.37,2.77-.14.22-.49.12-.7.02-.69-.33-1.07-2.88-.7-3.46M30.65,93c-.59-.09-.9-.86-1.04-1.36-.11-.37-.29-.82.07-1.11.36-.08.97,1.39,1.06,1.7.09.3-.08.49-.08.77M33.65,93.66c-.85-.14-1.74-1.09-1.44-1.96.21-.23.82.85.91.98.23.33.65.43.52.98"/>
          <path class="cls-6" d="M26.75,73.34c-.37.19-.75.39-1.13.62.42.06.84.14,1.24.29-.04-.3-.08-.6-.11-.91"/>
        </g>
      </g>
      <rect class="cls-11" x="0" y="0" width="90" height="90"/>
    </g>
  </g>
</svg>