<?xml version="1.0" encoding="UTF-8"?>
<svg id="Layer_1" data-name="Layer 1" xmlns="http://www.w3.org/2000/svg" xmlns:xlink="http://www.w3.org/1999/xlink" viewBox="0 0 90 90">
  <defs>
    <style>
      .cls-1 {
        fill: #bb9889;
      }

      .cls-2 {
        fill: #a9bc69;
      }

      .cls-3 {
        fill: #bfbebe;
      }

      .cls-4 {
        fill: #a3af65;
      }

      .cls-5 {
        fill: #b7c470;
      }

      .cls-6 {
        fill: #fff;
      }

      .cls-7 {
        fill: #98a951;
      }

      .cls-8 {
        fill: #5f845f;
      }

      .cls-9 {
        fill: none;
      }

      .cls-10 {
        fill: #b7aca2;
      }

      .cls-11 {
        clip-path: url(#clippath-1);
      }

      .cls-12 {
        fill: #828d53;
      }

      .cls-13 {
        fill: #908881;
      }

      .cls-14 {
        fill: #727849;
      }

      .cls-15 {
        fill: #849a52;
      }

      .cls-16 {
        fill: #663925;
      }

      .cls-17 {
        fill: #986749;
      }

      .cls-18 {
        fill: #a69b91;
      }

      .cls-19 {
        clip-path: url(#clippath);
      }
    </style>
    <clipPath id="clippath">
      <rect class="cls-9" x="0" width="90" height="90"/>
    </clipPath>
    <clipPath id="clippath-1">
      <rect class="cls-9" x="-2.18" y="-.35" width="94.35" height="90.71"/>
    </clipPath>
  </defs>
  <g class="cls-19">
    <g class="cls-11">
      <g>
        <polygon class="cls-6" points="92.37 -.35 92.37 94.4 -2.38 94.4 -2.38 94.27 92.24 94.27 92.24 68.84 92.24 52.18 92.24 50.75 92.24 38.75 92.24 36.15 92.24 21.55 92.24 18.81 92.24 12.56 92.24 11.12 92.24 -.35 92.37 -.35"/>
        <path class="cls-15" d="M79.47,56.54c.03-.63-.02-1.26,0-1.89-.97.43-1.96.87-2.92,1.33-.4.18-.99.66-1.35.73-.88.18-2.26,0-3.17-.1l.03.42c.38,1.28.79,2.55,1.19,3.82,2.02-.07,4.05-.15,6.08-.23.04-1.36.07-2.73.13-4.08"/>
        <path class="cls-5" d="M90.22,69.39l-5.14-.53v-.45c-.2-.2-1.9-1.09-2.15-1.11-.3-.03-.67.12-.97.2-.86.22-2.22.86-2.97.96-.25.03-.45-.03-.66-.13-.27-.79.62-.85.82-1.42.21-.55.04-1.73.08-2.4.06-1.28.1-2.58.13-3.87-2.03.08-4.05.16-6.08.23.85,2.69,1.72,5.36,2.6,8.03.41,1.25.77,2.52,1.16,3.77,5.09-.56,10.15-1.25,15.22-1.83v-1.99h-1.55c0,.27-.2.51-.47.54"/>
        <path class="cls-14" d="M45.19,84.76v.04c1.47.03,2.95-.02,4.42-.13.14-.12.27-.24.41-.36.48-.38,1.2-.93,1.81-.66.39.19.26.5-.05.82,2.33-.26,4.61-.65,6.77-1.08,10-1.82,19.81-2.88,29.43-4.05.47-.7,1.3-1.33,1.73-1.37.77-.06.57.56.22,1.13.77-.1,1.54-.19,2.31-.29v-7.98c-5.07.58-10.13,1.27-15.22,1.83.4,1.28.84,2.54,1.41,3.76.73-.19,1.44-.76,2.19-.89.25-.04.39-.07.55.17.12.46-1.12,1.18-1.48,1.39-.87.51-2.25,1.24-3.16,1.65-.29.13-.59.25-.9.28l-.39-.13-.2-.66c-.36.33-.63.51-1.15.38l-.4-1.41c-.88.82-2.21.61-3.29.8-.48.09-1.73.65-1.98.63-.61-.05-.45-.84-.47-1.25,0-.16.04-.25-.18-.18-.14.04-1.36.78-1.38.86.01.45.01,1.12.16,1.51.11.27.33.26.37.69.07.58-.15.38-.33.6-.07.1-.04.28-.1.35-.11.12-1.08.28-1.22.03l-.08-.5c-.16-.08-.37-.17-.54-.13-.54.13-1.77,2.42-2.5,1.67-.62-.63-.12-2.67-.46-3.52l-.52.26.26.78c-.61.2-1.03-.02-1.55-.34-.88-.54-1.79-1.42-2.55-2.13-.16,0-1.16,2.37-1.85,2.45-.38.04-1.78-1.38-2.33-1.5-1.11.43-3.8,1.56-4.89,1.21-1.05-.34-.13-1.46-.12-2.15l-2.35.64v4.44h-1.3c0-.5.02-1,0-1.5,0-.2.05-.22-.18-.2-.51.45-1.32.76-1.77,1.23-.22.22-.22.49-.28.57-.07.07-.25.04-.35.11-.33.23-.62.59-1.11.42-.65-.21.14-1,.18-1.22.2-1.09-.14-2.7,0-3.85-.09-.08-1.27.35-1.47.42-.78.29-1.96,1.21-2.58.42v-2.66c-.36.05-.91.46-1.17.71-.44.42-.94,1.76-1.57,1.59l-1.82-1.9c.07,1.04.1,1.96-1.14,2.19-.81.14-1.51.22-2.21.34,4.35,4,9.97,5.5,15.74,5.71.2-.06.41-.07.64-.02M87.63,76.29c.52-.05.76.23.4.61-.38.42-1.21.68-1.72,1.34-.36.46-.61,1.77-1.24,1.12-1.1-1.13,1.5-2.96,2.56-3.07"/>
        <path class="cls-5" d="M89.93,79.11c-.22.35-.49.69-.62.83-.42.47-.79.96-1.49.76-.3-.36-.16-.87.16-1.35-9.62,1.17-19.43,2.23-29.43,4.05-2.15.43-4.43.82-6.77,1.08-.4.42-1.11.86-1.32,1.07-1.17,1.16-1.71,2.7-2.4,4.18l-.37-.23c-.54-1.87.56-3.6,1.92-4.81-1.47.11-2.95.16-4.42.13.07.25-.56,1.15-.68,1.43-.14.33-.6,2.16-1.14,1.78-.53-1.02.04-2.91,1.18-3.23-5.77-.21-11.39-1.71-15.74-5.71-.63.11-1.26.25-1.99.53-.55.22-1.54.99-2.09.65-.63-.54.12-.97.13-1.3,0-.18-.2-.36-.23-.55-.14-.64-.18-1.33-.3-1.98-.18-.01-.39-.03-.58,0-.46.09-1.53,1.82-1.98,2.22l-3.09,1.15c-.16-.05-.18-.16-.21-.32-.08-.41-.03-1.36-.01-1.83.03-.87.1-1.73.16-2.6h-1.72c0,.2-.21.39-.52.52-.62.25-2.42.95-2.99,1.05-.23.04-.37.02-.59-.07-.45-.34.82-2.21.51-2.75-1.05.74-2.09,1.46-2.72,2.61-.23.2-.75.22-.85-.09.07-.76-.23-1.44-.47-2.13l-1.71,2.98c-.4.28-.73.07-1.03-.24-.45-.45-1.52-1.99-1.87-2.57-.05-.09-.1-.18-.13-.27-.85.19-1.7.39-2.54.58.84-.2,1.69-.39,2.54-.58-.18-.44-.13-.83.47-.83l.38-1.89c-.61,0-1.08-.77-1.73-1.08-1.81-.87-2.79-.52-4.44.35-.52.27-.97.8-1.61.8v22.81h94.62v-15.46c-.77.1-1.54.2-2.31.29M1,86.97l-.39-.08c-.63-1.27-1.08-2.51-1.89-3.7-.23-.33-.72-.57-.71-1.04,1.03-.07,1.76.92,2.27,1.71.59.89,1.13,2.03.72,3.11M4.66,87.23c-.3.08-.21-.07-.29-.16-.58-.72-.59-1.64-.9-2.48-.3-.78-.84-1.68-1.05-2.46-.08-.3-.21-.53.11-.76,1.41.66,2.71,3.27,2.54,4.76-.05.48-.39.65-.4,1.1M8.96,81.96c-.24.76-.91,2.26-1.28,3.02-.2.4-.36.79-.74,1.08-.42.02.03-1.49.1-1.72.31-.98.99-2.82,2.06-3.1.03.26-.05.48-.13.72M11.9,84.38c-.76.89-1.33,2.13-2.02,2.92-.2.22-.32.39-.65.33-.34-1.14.43-2.46,1.18-3.32.53-.63,1.35-1.37,2.21-.98.11.62-.45.75-.71,1.05M19.12,90.89c-1.05-.08-1-1.56-1.36-2.35-.16-.35-.47-.63-.62-.95-.23-.5.2-.55.61-.49,1.08.18,1.82,2.83,1.37,3.79M21.9,90.92c-.36-1.98-1.12-3.86-2.06-5.63-.07-.11.04-.5.08-.52.17-.12.5.04.65.18.89.9,2.15,3.32,2.2,4.58.01.36-.33,2.27-.87,1.39M24.88,88.35c-.08.15.07.24-.27.18.12-.43-.2-.76-.26-1.11-.22-1.37,1.32-3.81,2.86-3.71.32.3-.96,1.6-1.14,1.9-.48.77-.82,1.87-1.18,2.73M29.05,86.41c-.68.89-1.01,2.07-1.65,2.9-.1.13-.54.65-.71.53-.35-1.12.33-2.61.92-3.57.59-.92,1.41-1.68,2.51-1.9.88.18-.89,1.8-1.08,2.03M34.51,90.05c-.22.11-.58.04-.75-.12-.11-.1-.77-1.33-.81-1.49-.04-.26.11-.42.34-.53.72-.18,1.75,1.77,1.22,2.14M37.24,88.93c-.54.36-.99-1.47-1.14-1.78-.43-.86-1.27-1.61-1.2-2.64,1.23.05,2.75,2.62,2.6,3.7-.04.26-.23.47-.26.73M40.63,89.32c-.64-.13-.95-1-1.14-1.53-.38-1.07-.75-2.45-.42-3.55.54-.37,1.1,1.52,1.21,1.85.35,1.07.68,2.12.36,3.23M52.64,89.02c-.28.41-.73,1.71-1.33,1.29-.54-1.42,1-3.23,2.48-3.08.2.18-.99,1.56-1.15,1.78M64.79,89.3c-.14,0-.29-.05-.4-.15-.17-.15-.42-.83-.52-1.1-.18-.47-.73-1.81-.79-2.22-.02-.15-.06-.3,0-.46.48-.82,1.1-.05,1.41.49.34.58,1.29,3.24.3,3.44M69.27,89.42s-.43.29-.49.29c-.5-.89-.6-1.93-.98-2.87-.28-.71-1.33-2.26-1.24-2.93.02-.15.08-.25.21-.33,1.15.17,1.74,1.41,2.17,2.38.39.88,1.03,2.62.34,3.45M73,88.01l-.37-.12c-.18-.36-.32-.75-.43-1.14-.22-.79-.77-3.04-.7-3.75.03-.2.01-.33.21-.45,1.01.51,1.33,1.58,1.57,2.6.21.9.57,2.22-.28,2.86M77.38,84.43c-.37,1.12-.54,1.85-1.14,2.9-.09.14.01.22-.29.16.01-.65-.18-1.2-.11-1.87.12-1.08.92-3.38,2.2-3.47.1.83-.4,1.52-.65,2.27M81.09,85.54l-2.53,3.26c.06-.34-.12-.67-.13-.98-.09-1.92,2.23-4.76,4.31-4.49.13,1.1-1.04,1.48-1.64,2.21M83.28,89.28c-.23.31-.51.99-.72,1.18-.54.51-.8-.24-.74-.79.08-.6,1.12-1.96,1.62-2.29.26-.17,1.32-.66,1.23-.09-.09.53-1.03,1.51-1.39,2"/>
        <path class="cls-15" d="M92.24,56.16c-2.44-.4-4.89-.75-7.35-1.06.07,1.76.14,3.52.21,5.27,2.38-.1,4.76-.21,7.14-.31,0,0,0-3.9,0-3.9Z"/>
        <path class="cls-1" d="M92.24,52.18c-.99-.27-2-.98-3.06-1.05-.74-.04-2.08.16-2.84.3-.48.1-.97.26-1.45.38-.47.24-.1,1.18-.08,1.6.02.57.04,1.13.07,1.7,2.46.3,4.91.65,7.35,1.06v-3.98h0Z"/>
        <path class="cls-5" d="M85.11,60.38c.04.85.07,1.7.11,2.55.02.6-.27,1.75-.25,1.92.13.85,1.21,1.79.91,2.74l.16.24c.24.24.52,0,.79,0,.75-.03,2.52.07,3.2.32.24.1.63.4.65.66v.04h1.56v-8.77c-2.38.1-4.76.21-7.13.31M90.62,62.09c-.05.08-1.48.94-1.63.98-.36.12-.6.05-.77-.29-.17-.63,1.11-1.33,1.62-1.33.27,0,.55.24.84.25.01.14.02.26-.05.39"/>
        <path class="cls-16" d="M92.24,50.75v1.43c-.99-.27-2-.98-3.06-1.05-.74-.04-2.08.16-2.84.3-.48.1-.97.26-1.45.38-.47.24-.1,1.17-.08,1.6.13,3.19.24,6.34.39,9.52.02.6-.27,1.75-.25,1.93.13.85,1.21,1.79.91,2.74l.16.24c.24.24.52-.01.79-.01.75-.03,2.52.07,3.2.32.24.1.63.4.65.66v.04c0,.27-.2.51-.47.54l-5.14-.53v-.45c-.2-.2-1.9-1.09-2.15-1.11-.3-.03-.67.12-.97.2-.86.22-2.22.86-2.97.96-.25.03-.45-.03-.66-.13-.27-.79.62-.85.82-1.43.21-.55.04-1.73.08-2.4.13-2.63.14-5.32.26-7.95.03-.63-.02-1.26,0-1.89-.97.43-1.96.87-2.91,1.33-.4.18-.99.66-1.35.73-.88.18-2.26,0-3.16-.1l.03.42c1.17,3.99,2.49,7.92,3.79,11.85.83,2.52,1.44,5.11,2.57,7.54.73-.2,1.44-.76,2.19-.89.25-.04.39-.07.56.17.12.46-1.12,1.18-1.48,1.39-.87.51-2.25,1.24-3.16,1.65-.29.13-.59.25-.9.28l-.39-.13-.19-.66c-.36.33-.63.51-1.15.38l-.4-1.41c-.88.82-2.21.61-3.3.8-.48.09-1.73.65-1.98.63-.61-.05-.44-.84-.47-1.25,0-.16.04-.25-.18-.18-.14.04-1.36.78-1.38.86.01.45.01,1.12.16,1.51.11.27.33.26.37.68.07.58-.15.38-.33.6-.07.1-.04.28-.1.35-.11.12-1.08.28-1.22.03l-.08-.5c-.16-.08-.37-.17-.54-.13-.54.13-1.77,2.42-2.5,1.67-.62-.63-.12-2.66-.46-3.52l-.52.26.26.78c-.61.2-1.03-.02-1.55-.34-.88-.54-1.8-1.42-2.55-2.13-.16,0-1.16,2.37-1.85,2.45-.38.04-1.78-1.38-2.33-1.5-1.11.44-3.8,1.56-4.89,1.21-1.06-.34-.13-1.46-.12-2.15l-2.35.64v4.44h-1.3c0-.5.02-1,0-1.5,0-.2.05-.22-.18-.2-.51.45-1.32.76-1.77,1.23-.22.22-.22.49-.28.57-.07.07-.25.04-.35.11-.33.23-.62.59-1.11.42-.65-.21.14-1,.18-1.22.2-1.09-.14-2.7,0-3.85-.09-.08-1.27.35-1.47.42-.78.29-1.96,1.21-2.58.42v-2.66c-.36.05-.91.46-1.18.71-.43.42-.93,1.76-1.57,1.59l-1.82-1.9c.07,1.04.1,1.96-1.14,2.19-1.53.27-2.67.27-4.2.87-.55.22-1.55.99-2.09.65-.63-.54.12-.97.13-1.3,0-.18-.2-.36-.23-.55-.14-.64-.18-1.33-.3-1.98-.18-.01-.39-.03-.58,0-.46.09-1.53,1.82-1.98,2.22l-3.09,1.15c-.16-.05-.18-.16-.21-.32-.08-.41-.03-1.36-.01-1.83.03-.87.1-1.73.16-2.6.12-1.57.26-3.13.24-4.7l.25-6.06c-.62.37-1.63,1.5-2.21,1.76-.76.34-2.35-.65-3.13-.91-.28-.1-.61-.18-.9-.26-.74-.2-2.68-.68-3.34-.72-1.02-.05-1.69,1.24-2.34,1.19-.84-.08-.12-1.65-.07-2.16.02-.17.11-.52-.2-.46-.66.43-1.23,1.58-1.82,1.97-.32.2-.69.21-.73-.21-.09-.71.83-1.29,1.03-1.97.11-.34.39-3.08.27-3.18-.52-.15-1.23-.04-1.7-.2-.61-.18-1.91-1.41-2.61-1.82-1.32-.76-2.25-.83-3.77-.73v-1.44c2.39-.26,3.89.39,5.73,1.77.32.24,1.27,1.22,1.43,1.29.28.12.73.07,1.04.2v-3.33c-1.28-1.54-2.96-2.97-5.11-2.25-.63.22-1.61.84-2.18,1.22-.29.2-.48.59-.92.58v-1.69c1.12-.63,2.2-1.42,3.49-1.66,1.01-.2,1.53-.11,2.47.33.73.36,1.48.97,2.12,1.47l-.45-6.53c-1.36-.73-2.83-1.99-4.44-1.96-1.01,0-2,.74-3.07.26l.91-1.16-1-.51v-.91c.72-.08,1.39.86,1.92,1.01.48.14,1-.13,1.53-.1,1.48.08,2.95,1.02,4.04,1.96l-.59-10.82c-.43.4-.65,1.03-1.04,1.5-.52.63-1.24,1.28-2.12,1.09-.51-.16-.29-1.76-.68-2.2-.79,1.05-1.38,2.36-2.23,3.37-.21.26-.48.63-.84.66v-1.95c.28,0,.36-.17.5-.35.55-.68,1.16-1.78,1.61-2.57.17-.29.62-1.36.79-1.43,1.36-.58,1.44,1.9,1.53,2.78.22.04.26-.08.39-.2.35-.37.93-1.61,1.14-2.12.43-1.11.65-2.33,1.01-3.42.37-1.14.67-2.3,1.09-3.44.29-.29.72-.25.99.06.68,1.55,1.3,3.41,2.48,4.69.17.18.35.43.64.38.34-.09.21-2.02,1.32-1.3.4.26.74,1.52.99,2.01.67,1.34,1.61,2.41,2.78,3.34.32.05.16-.15.2-.34.08-.45.2-2.01.52-2.21.68-.41,1.57.77,2.02,1.24.35.34.65.93,1.24,1.04l.66-18.16.21-.2,5.77-.93c-.31-.43-.7-.62-.66-1.24.03-.64.51-.42.79-.84-1.84-.51-3.64-1.98-4.46-3.7-.25-.53-.57-1.07-.05-1.53l.27-.12c1.27-.08,2.39.66,3.58.99.13.03.42.17.4-.08-.2,0-.33-.13-.47-.25-1.02-.96-2.99-3.46-2.78-4.88.05-.41.55-.75.51-.92-1.28-.84-2.33-1.8-3.33-2.94-.14-.16-.33-.25-.32-.52h1.69c.89,1.1,2.11,1.89,3.27,2.67,1.01.66,2.72,1.85,3.84,2.03.47.08.66.26.26.65-.24.23-1.21.39-1.57.4-1.01.02-1.98-.61-2.94-.79.63,1.82,2.15,3.09,3.45,4.44.29.3.79.46.72,1.03-.6.14-1.11.46-1.75.52-1.08.1-1.93-.26-2.94-.52.93,1.79,3.03,2.08,4.65,2.84.27.13.77.34.67.72-.46.6-1.21.97-1.94,1.14l.14.63,3.81-.52.21-.2-.47-15.03h1.17l.26,8.41c.05,1.88,0,3.87.12,5.74,0,.15.11.84.22.85l2.21-.39-.58-14.61h1.18l.65,14.48,8.15-.92,8.92,1.17.13-1.95c-2.08-.3-2.5-2.97-.39-3.65-.28-.68-.72-1.38-.78-2.15-.14-2,1.57-4.07,3.7-3.58.92-1.25,3.12-2.33,4.65-1.63.68.32.99,1.25,1.82,1.24.33-1.02.34-1.95.13-3h1.17c.13,1.25.18,2.08-.33,3.26-.52,1.18-1.57,1.13-2.53.45-.66-.47-.66-1-1.76-.83-.48.07-1.86.87-2.08,1.29-.12.23-.09.65-.29.79-.67.43-1.41-.58-2.26.04-1.48,1.08-.64,3.12.33,4.24.17.32.03.63-.28.76-.59.02-1.17.03-1.54.54-.5,1.38,1.54.86,1.83,1.44.21,1.05-.87,1.97.02,3l11.64,2.22v7.74c-.04,1.59,2.35,1.12,3.13.52.35-.26.58-1.52,1.28-.76-.13,2.5,3.24,2.39,4.71,1.35.02.52.24.69-.07,1.16-1.01,1.57-4.7,1.1-5.41-.64-1.05.61-2.33.85-3.51.52-.1.52.11,1,.13,1.49.03.63-.11,1.51,0,2.09.01.08.51,1.03.56,1.08.08.08,1.33.67,1.53.75,1.19.46,2.39.41,3.64.2-.12.34.24.62.25.84.02.45-.36,1.23,0,1.72.63.88,2.32-.41,2.56.43.21.73-.18.79-.39,1.32-.32.75-.46,1.52-.26,2.34.73,1.09,1.96.49,3,.64.51.21.58.89,1.2,1.03.93.21,1.75-.17,2.45-.76.15-.14,1.26-1.34,1.3-1.43.11-.23-.3-.9.14-1.03.6-.17.79.67,1.26.94.77.42,1.64.27,2.38-.15.89-.52,1.15-.87,1.2-1.92.86-.99,1.38-.2,1.66.75.53.57,2.63.18,3.24-.28.27-.22.3-.63.73-.63v2.6l-.33-.39c-1.44.73-3.24.78-4.67.02-.8.67-1.7,1.21-2.7,1.49l.13,10.62c.91-.12,1.78-.39,2.69-.51.62-.08,1.61-.21,2.21-.14.89.09,1.78.74,2.66.91M84.16,66.65c.22-.22-1.2-2.45-.12-2.69-.58-4.64-.54-9.39-.65-14.07-.08-3.05-.3-6.19-.14-9.24.02-.35.16-.64.13-.97l-.91-.22c-.36.62-.72,1.28-1.36,1.64-.15,3.79-.12,7.6-.2,11.41-.05,3.19-.18,6.45-.26,9.64-.04,1.54.11,3.11-.13,4.63,1.25-.4,2.37-.58,3.64-.13M79.46,52.82l.4-10.81c-1.29.38-2.93.32-3.74-.91-2.4.21-4.21-.64-3.95-3.33.04-.5.33-.97.26-1.49-1.48.05-2.14-1.27-1.96-2.61-1.21.27-2.11.13-3.22-.37-.39-.17-.74-.47-1.07-.62-.11-.04-.28-.12-.28,0,.04.17.13.34.14.52.1,1.54-.04,3.43.16,4.92.3,2.23,1.95,5.94,2.63,8.31.49,1.69.84,3.41,1.37,5.09,1.03-.38,1.93-1.2,3.07-1.3.63-.07,1.51.02,2.12.22,1.05.35,1.99,1.76,2.38,2.76l1.68-.38h0ZM76.99,77.27c.33-.3-.12-.72-.23-1.09-.75-2.53-1.27-5.14-2.08-7.69-1.35-4.26-2.74-8.61-4.11-12.83-1.07-3.3-2.3-6.53-3.23-9.87l-.13.25c-.12.2-.42-.8-.45-.91-.22-.75-.33-1.57-.47-2.34l-.12.52h-1.31v1.37c3.15,10.77,6.1,21.6,9.65,32.25.17.14.66-.7,1.18-.33.18.27.13.63.24.93.04.13-.05.24.2.16.25-.07.59-.35.86-.43M74.71,55.69c.68-.11,1.56-.92,2.28-1.04-.76-1.85-1.52-3.71-3.92-3.2-.39.09-2.23.99-2.33,1.34.03.45.67,2.65.99,2.75.97-.08,2.01.29,2.97.15M73.22,76.68l-1.85-5.59-5.45-.15.26,5.87,2.02-1.05.33.07c.4.26.05,1.46-.01,1.89,1.51-.51,3.09-.98,4.7-1.03M71,70.03l-.52-1.95h-4.62c-.37.23-.08.52-.07.84.01.41-.01.84,0,1.24l5.21-.13ZM70.09,67.04l-1.5-5.22-.26-.39h-2.93l.26,5.61h4.43ZM68.13,60.26l-.64-1.89-1.89-.07-.27.12-.05,1.84h2.86-.01ZM67.35,57.65l-1.75-6c-.2-.14-.58-.29-.59.07-.03.72-.03,1.52-.01,2.23.01.32.13.59.14.9.03.73-.12,1.83,0,2.48.02.15.07.24.19.33h2.02ZM64.88,42.01v-4.04l-20.86-.38c.09,1.48-.21,2.94-.13,4.43h20.99ZM64.88,79.28l-.66-13.49c.09-7.12-1.05-14.66-.65-21.77.02-.25.1-.47.14-.71h-2.48c.03.63-.03,1.26,0,1.89.37,8.55,1.14,17.12,1.45,25.67.1,2.87.01,5.74.25,8.6.03.37-.02.74,0,1.11.72-.41.97-1.48,1.96-1.31M64.75,36.8l-.26-4.57-20.47-.78v4.83c.33,0,.65-.02.98,0,.67.03,1.23.2,1.83.26,2.58.29,6.04-.06,8.73,0,1.85.03,3.76.23,5.6.27,1.2.03,2.39-.03,3.59,0M64.49,31.32l-.14-3.5-20.33-1.84v4.36l.33.2,7.17.39,12.98.39h-.01ZM64.16,26.76c.22-1.48-.2-2.94-.08-4.43l-20.07-2.48v4.88l20.14,2.02h.01ZM64.09,21.16v-4.18l-20.21-2.48v4.11l20.21,2.54h0ZM61.42,76.81l-.07-5.94c-.03-.43-.55-.27-.78-.54-.59-.67-.61-2.51.52-2.65l-1.7-6.12h-2.6l4.62,15.26h0ZM61.09,63.64l-.13-2.22-.52.21s.65,2.01.65,2.01ZM60.83,60.26c0-.66.09-1.33-.13-1.96h-3.12l.13,1.96h3.12ZM60.7,57.65l-.45-6-2.94.14,1.88,5.73,1.5.13h0ZM60.24,78.37l.32-.71c-3.08-8.57-5.46-17.37-7.95-26.12-1.15.21-1.19-.34-1.82-.85-.32-.25-1.29-.89-1.65-.96-1.07-.23-2.48.11-3.56.23v26.85l3.44-.88c1.32.43,0,1.59-.17,2.44.37.32,3.51-1.22,4.1-1.18.49.03,1.53,1.11,2.09,1.29.61-.45,1.28-2.73,2.09-2.71.37.01,2.57,2.32,3.12,2.6M60.25,50.5l-.1-1.36-.19-.2c-1.35-.05-2.69,0-4.03-.02-.18,0-.38.09-.52.08-.21,0-.34-.26-.58-.21v1.7h5.42,0ZM59.98,47.87c.39-.26.08-.63.07-.98-.03-1.2,0-2.38-.13-3.58h-5.34l1.5,4.56s3.9,0,3.9,0ZM58.22,57.59l-2.01-5.8h-2.28c.7,2.78,1.6,5.51,2.34,8.3.05.22-.11.36.27.3v-2.02s.51-.58.61-.7l1.08-.09h-.01ZM54.97,47.81l-1.5-4.49h-2.15l2.15,7.04c.15-.83-.08-1.69.35-2.46l1.15-.09ZM49.79,48.56l2.3,1.53c-.46-1.78-.95-3.57-1.52-5.32-.1-.28-.41-1.4-.62-1.46h-4.24c.23.34-.1.48-.14.84-.16,1.41.15,3.18,0,4.63,1.4-.14,2.8-.37,4.21-.23M44.29,79.6l.12-36.28h-2.34v37.4c.5-.12.89-.58,1.34-.8.2-.1.87-.23.88-.32M42.72,36.02v-4.83l-10.89.78-11.41.39-.13,4.57,22.43-.91ZM42.72,30.28v-4.23l-.33-.21-14.73,1.45c-1.78.17-3.58.36-5.35.52-.32.02-1.69-.11-1.76.21l-.06,3.32.15.11c.47.01.96.04,1.43.02,6.16-.28,12.34-.62,18.5-1.05.72-.04,1.44.05,2.15-.13M42.59,18.94l.13-4.57c-.28.01-.43.2-.73.26-1.57.33-3.45.34-5.06.54-1.75.22-3.49.54-5.24.75-3.58.41-7.16.71-10.73,1.07l-.14,4.3s21.77-2.35,21.77-2.35ZM42.59,41.69l.13-4.37c-.46.03-.92-.02-1.38,0-6.29.35-12.62.51-18.89.78-.75.04-1.52-.02-2.28,0l-.13,3.91h22.36l.2-.33h-.01ZM42.66,24.82l-.07-4.83-21.7,2.46c-.36,1.45-.15,2.97-.21,4.45l13.76-1.44,8.21-.64h.01ZM37.5,77.72l1.18-.39c-.1-.23-.34-.28-.39-.59-.15-.89.03-2.39,0-3.39,0-.3-.14-.59-.14-.89-.11-4.54.09-9.09,0-13.63l-3.52-.08-.26.16-8.67,17.5c-.09.21-.08.73.21.78.1-.48.4-.93.71-1.31.2-.23,1.09-1.19,1.37-.9.34.49-1.6,2.73-1.42,2.86.68.02,1.22-.54,1.86-.8,1.97-.78.4.62.48.67l2.09-.26c.03-.45-.03-.91,0-1.36.02-.33.14-1.37.32-1.51.7-.57,1.03.3,1.33.65.43.52.9,1.01,1.29,1.58.71-.45,1.1-1.11,1.85-1.54.43-.25.96-.52,1.48-.49,1.1.28,0,2.13.25,2.94M38.29,57.65v-6.52c-.31-.09-.42.45-.54.7-.5,1.04-2.13,4.18-2.2,5.1-.02.23.02.48,0,.72.94-.15,1.81-.09,2.74,0M38.1,45.27l.19-1.83h-2.61v6.45s-.47.52.08.2l2.35-4.82h0ZM34.51,52.25v-8.8h-2.74l-.52,14.73c.29.04.42-.24.54-.43,1.03-1.59,1.75-3.83,2.72-5.49M30.86,59.79c.08-.24-.04-.17-.2-.18-.59-.03-1.12-.14-1.63-.46-.46-.85.28-1.1,1.04-.98l.25-5.46c-1.44-.17-2.77-1-4.22-.92l-2.03.33-.05,3.97c.54.32,1.11.61,1.62.99.57.41,1.62,1.3,2.1,1.8.47.5,1.72,2.99,1.88,3.07.23.11.21-.15.26-.25.24-.43.86-1.51.98-1.9M30.61,46.12c.02-.89-.03-1.78,0-2.68h-5.86l-.52,7.3c1.09-.07,2.36-.26,3.45-.12.77.1,1.77.67,2.61.77.32,0,.18-3.94.2-4.37,0-.32.13-.59.14-.9M23.43,74.73l5.14-10.56c-.39.3-.86.01-1.29,0-.51-.02-3.56-.07-3.71.15,0,0-.14,10.41-.14,10.41ZM28.12,62.67c-.22-.25-.26-.59-.41-.89-.25-.5-1.24-2.13-1.58-2.51-.22-.25-.99-.92-1.27-1.14-.32-.24-.67-.42-1.03-.6l-.13,5.34c.6-.05,1.3-.23,1.89-.26.83-.04,1.71,0,2.53.07M23.3,45.33c.04-.6.23-1.23.13-1.88h-2.22l-1.36,34.92,2.28-.86c.02-.77-.05-1.57-.01-2.34.27-6.24.26-12.52.52-18.76.03-.88.41-3.61.23-4.26-.33-1.22.02-.68.15-1.61.22-1.57.15-3.57.27-5.21M19.77,50.09l.39-6.65h-1.29l-.4-2.81.25-4.02-2.46-1.77c.03.51-.13,2.04-.9,1.75-1.3-.48-2.31-1.05-3.21-2.14l-1.49-2.35c-.65,2.84.03,5.79-.14,8.68l.78,8.92c.98.08,1.96.2,2.94.13.97-.07,2.13-.55,3-.53.85.02,1.74.53,2.53.79M19.64,52.77c.02-.37.33-.87.01-1.18-.15-.15-1.65-.8-1.9-.85-.67-.1-1.22.12-1.8.13-1.5.04-3.02.03-4.5-.13l.65,8.99,2.7-3.23c1.47-.33,3.3-1.09,4.72-.42.2-1.1.08-2.21.13-3.32M19.2,63.52l.32-6.66c-.53.41-1.13.2-1.74.27-.82.12-1.61.34-2.42.45l-2.67,3.45c-.04.13.78,2.47.9,2.61.12.14.41.16.6.32.21.17.28.5.52.66.25.16,1.45.52,1.72.43.15-.04.88-.76,1.26-.96.48-.25,1.02-.37,1.51-.58M11.82,63.25c-.2-1.26-.82-2.61-1.03-3.85-.3-1.82-.22-4.09-.39-5.99-.45-4.69-1.16-9.38-1.32-14.06-.07-2.17.07-4.35.01-6.53-.88-1.32-2.11-2.42-2.61-3.97-.33-.05-.21.01-.27.17-.73,1.84-.48,3.7-.38,5.62.44,8.29,1.62,16.85,1.32,25.16-.02.46-.23.93-.15,1.41.03.14.68.06.87.6l.05,1.57c.5-.08.83-.47,1.36-.52.91-.1,1.66.35,2.55.39"/>
        <path class="cls-14" d="M92.24,38.75v12c-.88-.17-1.77-.83-2.66-.91-.6-.07-1.59.07-2.21.14-.9.12-1.77.39-2.69.51l-.13-10.61c1-.28,1.89-.82,2.7-1.49,1.42.76,3.23.71,4.67-.02l.33.39h0ZM91.33,42.8c.05-2.08-3.57-2.23-4.48-.77-.11.16-.45.75-.01.77.72.03,1.52-.54,2.34-.53.76.02,1.41.53,2.15.53M90.8,47.74c.58-1.5-1.04-2.61-2.4-2.61-.97,0-2.96.72-2.52,2.01l.46.32c.58-.18.88-.64,1.5-.79.74-.2,1.56-.12,2.13.42.27.27.33.76.84.65"/>
        <path class="cls-15" d="M73.78,15.96c0-4.35-4.35-8.7-8.7-7.61-2.75,1.65-4.1,4.41-4.49,7.58l4.93.94v7.74c-.04,1.59,2.35,1.12,3.13.52.35-.26.58-1.52,1.28-.76-.13,2.5,3.24,2.39,4.71,1.35.02.52.24.68-.07,1.16-1.01,1.57-4.7,1.1-5.4-.64-1.05.61-2.33.85-3.51.52-.1.52.11,1,.13,1.49.03.63-.11,1.51,0,2.09.01.08.51,1.03.55,1.08.08.08,1.33.67,1.53.75,1.19.46,2.39.41,3.64.2-.12.34.24.62.25.84.02.45-.36,1.23,0,1.72.63.88,2.32-.41,2.56.43.21.73-.18.79-.39,1.32-.32.75-.46,1.52-.26,2.34.73,1.09,1.96.49,3,.64.51.21.58.89,1.2,1.03.92.21,1.75-.17,2.45-.76.15-.14,1.26-1.34,1.31-1.44.11-.23-.3-.9.14-1.03.6-.17.79.67,1.26.93.77.42,1.64.27,2.38-.15.89-.52,1.15-.87,1.2-1.92.86-.99,1.38-.2,1.66.75.53.57,2.63.18,3.24-.28.27-.22.3-.63.73-.63v-14.6c-.59-.82-.66-1.87-1.96-1.51-.51.15-.8.77-1.39.5-.58-.27-.56-.79-.84-1.25-.72-1.13-2.12-1.36-3.34-1.04-.75.2-1.65.64-2.22,1.09-.57.46-1.17,1.01-1.98.91-.09-.58.54-.72.85-1.04,1.07-1.1,1.39-3.4.42-4.67-1.56-.09-3.67-1.74-2.25-3.25l.34.18c.34,2.12,2.83,2.15,4.27,1.01.6-.47.84-1.17,1.53-1.48.42.18.59.54,1.03.75.76.36,1.41.33,2.18-.01.5-.23,1-.91,1.49-.99.38-.05,1.24.64,1.86.37V-.35h-8.43c-6.22,3.08-10.47,8.34-10.02,16.31"/>
        <path class="cls-2" d="M62.46,2.91c-.52,1.19-1.57,1.13-2.53.45-.66-.47-.66-1-1.76-.83-.48.07-1.86.87-2.08,1.29-.12.23-.09.65-.29.79-.67.43-1.41-.58-2.26.04-1.48,1.08-.64,3.12.33,4.24.17.32.03.63-.28.76-.59.02-1.17.03-1.54.54-.5,1.38,1.54.86,1.83,1.43.21,1.05-.87,1.97.02,3l6.71,1.28c.39-3.17,1.75-5.93,4.49-7.58,4.35-1.09,8.7,3.26,8.7,7.61-.46-7.94,3.79-13.2,10.01-16.28h-21.02c.13,1.25.18,2.08-.33,3.26"/>
        <path class="cls-16" d="M92.24,18.81v2.74c-.59-.82-.66-1.87-1.96-1.51-.51.15-.8.77-1.39.5-.58-.27-.55-.79-.84-1.25-.72-1.13-2.12-1.36-3.34-1.04-.75.19-1.65.64-2.22,1.09-.57.46-1.17,1.01-1.98.91-.09-.58.54-.72.85-1.04,1.07-1.1,1.39-3.4.42-4.67-1.55-.09-3.66-1.74-2.25-3.25l.34.18c.34,2.12,2.83,2.15,4.27,1.01.6-.47.84-1.17,1.53-1.48.42.18.59.54,1.03.75.76.36,1.41.33,2.18-.01.5-.23,1-.91,1.49-.99.38-.05,1.24.64,1.86.37v1.43c-.62.13-1.31-.36-1.88-.26-.58.09-1.24.85-2.22.91-.88.07-1.44-.18-2.21-.53l-.21.08c-.67.76-1.48,1.4-2.48,1.7.32.75.67,1.59.39,2.4,2.37-.82,4.51-.32,5.93,1.79.91-.46,1.79-.21,2.68.16"/>
        <path class="cls-14" d="M92.24,12.56v6.25c-.88-.37-1.76-.62-2.68-.16-1.41-2.11-3.56-2.61-5.93-1.79.28-.82-.08-1.65-.39-2.4,1-.29,1.8-.93,2.48-1.7l.21-.08c.77.35,1.33.6,2.21.53.98-.07,1.64-.83,2.22-.91.58-.1,1.26.39,1.88.26"/>
        <path class="cls-16" d="M86.85,42.02c.91-1.46,4.53-1.3,4.48.77-.74,0-1.39-.51-2.15-.53-.82,0-1.62.57-2.34.53-.43-.02-.1-.61.01-.77"/>
        <path class="cls-16" d="M88.4,45.13c1.36,0,2.98,1.11,2.4,2.61-.51.11-.57-.38-.84-.65-.58-.54-1.39-.62-2.13-.42-.62.15-.92.61-1.5.79l-.46-.32c-.43-1.29,1.55-2.01,2.52-2.01"/>
        <path class="cls-16" d="M90.67,61.7c.01.14.02.26-.05.39-.05.08-1.48.93-1.63.98-.36.12-.6.05-.77-.29-.17-.63,1.11-1.33,1.62-1.33.27,0,.55.24.84.25"/>
        <path class="cls-16" d="M89.72,77.98c1.25-.1-.07,1.59-.4,1.96-.43.47-.79.96-1.49.76-.74-.88,1.17-2.67,1.89-2.72"/>
        <path class="cls-16" d="M87.63,76.29c.52-.05.76.23.4.61-.38.42-1.21.68-1.72,1.34-.36.46-.61,1.77-1.24,1.12-1.1-1.13,1.5-2.96,2.56-3.07"/>
        <path class="cls-16" d="M83.44,87.36c.26-.17,1.32-.66,1.23-.09-.09.53-1.03,1.51-1.39,2-.23.31-.51.99-.72,1.18-.54.51-.8-.24-.74-.79.08-.6,1.12-1.96,1.62-2.3"/>
        <path class="cls-17" d="M84.04,63.96c-1.08.24.34,2.47.12,2.69-1.27-.45-2.39-.27-3.64.13.24-1.52.09-3.09.13-4.63.08-3.19.21-6.45.26-9.64.08-3.81.04-7.62.2-11.41.64-.36,1-1.02,1.36-1.64l.91.22c.03.33-.11.62-.13.97-.16,3.06.07,6.2.14,9.24.11,4.69.08,9.43.65,14.07"/>
        <path class="cls-16" d="M82.74,83.33c.13,1.1-1.04,1.48-1.64,2.21l-2.53,3.26c.07-.34-.12-.67-.13-.98-.09-1.92,2.23-4.76,4.31-4.49"/>
        <path class="cls-14" d="M76.12,41.1c-2.4.21-4.21-.64-3.95-3.33.04-.5.33-.97.26-1.49-1.48.05-2.14-1.27-1.96-2.61-1.21.27-2.11.13-3.22-.37-.39-.17-.74-.47-1.07-.62-.11-.04-.28-.12-.28,0,.04.17.13.34.14.52.1,1.54-.04,3.43.16,4.92.31,2.23,1.95,5.94,2.63,8.31.49,1.69.84,3.42,1.37,5.09,1.03-.38,1.92-1.2,3.07-1.3.63-.07,1.51.02,2.12.22.34.11.66.34.96.62.27-.42.51-.87.68-1.38-.17.52-.41.96-.68,1.38.64.6,1.15,1.46,1.42,2.14l1.67-.38.4-10.81c-1.29.38-2.93.32-3.74-.91M70.72,38.01c-.04.2-.76,1.22-.92,1.29-.38.2-.62.04-.78-.33-.23-.53.5-1.51,1.04-1.63.58-.13.79.08.66.66M76.6,46.57c-.73,0-.97-.71-1.75-.78-1.32-.13-1.56.72-2.49,1.32l-.38-.13c-.77-1.38,1.46-2.53,2.61-2.49,1.03.04,2.45.92,2.01,2.09"/>
        <path class="cls-16" d="M78.04,82.15c.1.83-.4,1.52-.65,2.27-.37,1.12-.54,1.85-1.14,2.9-.09.14,0,.22-.29.16.01-.65-.18-1.2-.11-1.87.12-1.08.93-3.38,2.2-3.47"/>
        <path class="cls-13" d="M76.76,76.18c.11.37.55.78.23,1.09-.27.09-.61.37-.86.43-.25.08-.15-.03-.2-.16-.11-.3-.05-.66-.24-.93-.51-.37-1,.47-1.17.33-3.55-10.65-6.49-21.48-9.65-32.25v-1.37h1.31l.12-.52c.14.77.25,1.59.47,2.34.02.11.33,1.11.45.91l.13-.25c.92,3.34,2.16,6.57,3.23,9.86,1.37,4.22,2.76,8.57,4.11,12.83.81,2.54,1.33,5.15,2.08,7.69"/>
        <path class="cls-16" d="M74.59,44.48c1.03.04,2.45.92,2.01,2.09-.73,0-.97-.71-1.75-.78-1.32-.13-1.55.72-2.49,1.32l-.38-.13c-.77-1.38,1.46-2.53,2.61-2.49"/>
        <path class="cls-13" d="M75.69,52.22c-1.21,1.61-2.71,2.32-4.35,2.64.14.36.29.65.39.68.97-.08,2.01.29,2.97.15.68-.11,1.56-.92,2.28-1.04-.37-.9-.74-1.8-1.3-2.43"/>
        <path class="cls-3" d="M75.69,52.22c-.59-.66-1.38-1.03-2.61-.77-.39.09-2.23.99-2.33,1.34.02.3.31,1.36.6,2.07,1.64-.32,3.14-1.03,4.35-2.64"/>
        <path class="cls-16" d="M73.28,85.15c.21.9.57,2.22-.28,2.86l-.37-.12c-.18-.36-.32-.75-.42-1.14-.22-.79-.77-3.05-.7-3.75.03-.2.01-.33.21-.45,1.01.51,1.33,1.58,1.57,2.6"/>
        <path class="cls-5" d="M71.37,71.09l1.85,5.59c-1.61.05-3.19.52-4.7,1.03.07-.43.41-1.63.01-1.89l-.33-.07-2.02,1.05-.26-5.87,5.45.15h0Z"/>
        <path class="cls-13" d="M70.48,68.08l.52,1.95-5.21.13c-.01-.4.01-.83,0-1.24-.01-.32-.3-.61.07-.84h4.62Z"/>
        <path class="cls-16" d="M70.05,37.35c.58-.13.79.08.66.66-.04.2-.76,1.22-.92,1.29-.38.2-.62.04-.78-.33-.23-.53.5-1.51,1.04-1.63"/>
        <polygon class="cls-5" points="68.59 61.82 70.09 67.04 65.66 67.04 65.4 61.43 68.32 61.43 68.59 61.82"/>
        <path class="cls-16" d="M68.93,85.97c.39.88,1.03,2.62.34,3.45-.03.03-.43.29-.49.29-.5-.89-.6-1.92-.98-2.87-.28-.71-1.33-2.26-1.24-2.93.02-.15.08-.25.21-.33,1.15.17,1.74,1.41,2.16,2.38"/>
        <polygon class="cls-18" points="67.49 58.37 68.13 60.26 65.27 60.26 65.32 58.42 65.6 58.3 67.49 58.37"/>
        <path class="cls-15" d="M65,53.94c.01.32.13.59.14.9.03.73-.12,1.83,0,2.48.02.15.07.24.2.33h2.01l-1.2-4.12c-.38-.02-.77-.04-1.15-.05v.47"/>
        <path class="cls-7" d="M65.01,51.71c-.03.57-.03,1.18-.02,1.76.38.02.77.03,1.15.05l-.55-1.88c-.19-.14-.58-.29-.59.06"/>
        <path class="cls-16" d="M64.49,85.86c.34.58,1.29,3.24.3,3.44-.14,0-.29-.05-.4-.15-.17-.15-.42-.83-.52-1.1-.18-.47-.73-1.8-.79-2.22-.02-.15-.05-.3,0-.46.48-.82,1.1-.05,1.41.49"/>
        <path class="cls-13" d="M64.88,37.97v4.05h-20.99c-.08-1.49.22-2.95.13-4.43,0,0,20.86.38,20.86.38Z"/>
        <path class="cls-18" d="M62.67,70.88c.1,2.87.01,5.74.25,8.6.03.37-.02.74,0,1.11.72-.41.97-1.48,1.96-1.3l-.66-13.49c.02-1.7-.03-3.41-.11-5.15-.67-.61-1.36-1.19-2.08-1.73.26,3.99.5,7.97.64,11.95"/>
        <path class="cls-13" d="M63.56,44.02c.02-.25.1-.47.14-.71h-2.48c.03.63-.03,1.26,0,1.89.2,4.57.51,9.14.8,13.72.71.54,1.4,1.12,2.08,1.73-.26-5.54-.85-11.21-.54-16.63"/>
        <path class="cls-13" d="M64.49,32.23l.26,4.57c-1.2-.03-2.39.03-3.59,0-1.84-.04-3.75-.24-5.6-.27-2.7-.05-6.16.3-8.73,0-.6-.07-1.15-.23-1.83-.26-.33-.02-.65,0-.98,0v-4.83l20.47.78Z"/>
        <polygon class="cls-18" points="64.34 27.82 64.48 31.32 51.51 30.93 44.34 30.54 44.02 30.34 44.02 25.98 64.34 27.82"/>
        <path class="cls-13" d="M64.08,22.34c-.12,1.49.29,2.95.08,4.43l-20.14-2.02v-4.88l20.07,2.48h-.01Z"/>
        <polygon class="cls-13" points="64.09 16.99 64.09 21.16 43.89 18.62 43.89 14.51 64.09 16.99"/>
        <path class="cls-14" d="M61.61-.35c.21,1.05.2,1.98-.13,3-.83,0-1.13-.92-1.82-1.24-1.53-.7-3.73.38-4.65,1.63-2.13-.49-3.84,1.58-3.7,3.58.07.77.5,1.47.78,2.15-2.11.68-1.69,3.35.39,3.65l-.13,1.95-8.92-1.17-8.15.92-.64-14.47h7.43c-.74,1.52-1.14,3.23-2.06,4.65-.48.75-1.26,1.49-1.65,2.27-.05.12-.53,1.14-.27,1.15,2.39-.37,3.62-3.36,4.2-5.44.24-.86.5-1.74.43-2.64h2.08c.36,1.35,3.13,4.47,4.5,4.43.19,0,.35-.16.43-.34-.25-1.1-1.43-1.54-2.14-2.25-.49-.49-.96-1.26-1.36-1.84h7.04c-.03.23-.49.95-.07.92.46-.03,1.17-.41,1.24-.92h7.17,0ZM50.93,8.45c.1-.46-1.38-.77-1.7-.91-.57-.24-1.03-.57-1.5-.97-.58-.49-1.13-1.4-1.62-1.77-.15-.11-.23-.24-.47-.18-.21.15-.18.17-.14.39.22,1.18,1.66,2.62,2.69,3.19.79.46,1.95.98,2.74.26M46.24,11.97c.78.47,1.98,1.05,2.87.72-.18-.83-1.26-.85-1.91-1.15-.72-.33-1.34-.88-2.13-.94.04.66.66,1.07,1.17,1.37M42.61,8.34c.67-1.26,1.17-2.51,1.01-3.99-.26-.04-.37.16-.5.35-.4.58-.68,1.6-1.09,2.29-.53.94-2.43,3.24-2.57,4.08-.04.21-.03.47,0,.68.17.07.33.15.51.1.7-.18,2.25-2.79,2.63-3.51"/>
        <path class="cls-13" d="M61.35,70.88l.06,5.94-4.62-15.26h2.6l1.7,6.12c-1.13.14-1.11,1.98-.52,2.65.23.27.75.11.78.54"/>
        <polygon class="cls-8" points="60.96 61.43 61.09 63.64 60.44 61.63 60.96 61.43"/>
        <path class="cls-13" d="M60.7,58.3c.22.63.12,1.29.13,1.96h-3.12l-.13-1.96h3.12Z"/>
        <path class="cls-15" d="M59.2,57.52l1.5.13-.32-4.37c-.87-.03-1.73-.07-2.6-.09,0,0,1.42,4.33,1.42,4.33Z"/>
        <path class="cls-5" d="M57.32,51.79l.46,1.4c.87.03,1.73.06,2.6.09l-.12-1.63-2.94.14Z"/>
        <path class="cls-14" d="M45.58,76.81l3.44-.88c1.32.43,0,1.59-.17,2.44.37.32,3.51-1.22,4.1-1.18.49.03,1.53,1.11,2.09,1.29.04-.03.09-.09.14-.15-3-2.17-6.22-3.79-9.59-4.96v3.44h0Z"/>
        <path class="cls-1" d="M52.61,51.54c-1.15.21-1.19-.34-1.82-.85-.32-.25-1.3-.89-1.65-.96-1.07-.23-2.48.11-3.56.23v2.93c2.49.05,4.97.09,7.45.16-.14-.51-.29-1.01-.43-1.52"/>
        <path class="cls-15" d="M55.36,61.24c-.79-2.72-1.55-5.45-2.33-8.18-2.48-.06-4.97-.11-7.46-.16v8.26c3.25.07,6.51.1,9.78.08"/>
        <path class="cls-5" d="M45.58,61.15v12.22c3.37,1.16,6.59,2.78,9.59,4.96.57-.65,1.2-2.58,1.95-2.56.37.01,2.57,2.32,3.12,2.6l.32-.71c-1.94-5.41-3.61-10.91-5.2-16.43-3.27,0-6.53,0-9.78-.08"/>
        <path class="cls-13" d="M60.16,49.14l.1,1.36h-5.42v-1.71c.24-.05.37.2.58.21.14,0,.34-.09.52-.08,1.35.02,2.69-.03,4.03.02l.19.2Z"/>
        <path class="cls-14" d="M60.05,46.9c0,.35.33.72-.07.98h-3.9l-1.5-4.56h5.34c.14,1.2.1,2.38.13,3.58"/>
        <path class="cls-13" d="M56.21,51.79l2.01,5.8-1.08.09c-.1.12-.61.65-.61.7v2.02c-.38.05-.22-.09-.27-.3-.74-2.78-1.64-5.51-2.34-8.3h2.29Z"/>
        <path class="cls-13" d="M53.47,43.32l1.5,4.49-1.15.09c-.42.77-.2,1.63-.35,2.46l-2.15-7.04s2.15,0,2.15,0Z"/>
        <path class="cls-16" d="M53.27-.35h1.17c-.07.51-.78.89-1.24.92-.42.02.03-.7.07-.92"/>
        <path class="cls-16" d="M53.79,87.23c.2.19-.99,1.56-1.15,1.78-.28.41-.73,1.71-1.33,1.29-.54-1.42,1-3.23,2.48-3.08"/>
        <path class="cls-14" d="M52.1,50.09l-2.31-1.53c-1.41-.14-2.81.09-4.21.23.14-1.46-.17-3.22,0-4.63.04-.36.37-.5.14-.84h4.24c.21.05.52,1.17.62,1.46.58,1.75,1.07,3.53,1.52,5.32"/>
        <path class="cls-16" d="M51.84,83.66c.9.45-1,1.52-1.37,1.88-1.17,1.16-1.71,2.7-2.4,4.18l-.37-.23c-.6-2.05.79-3.95,2.34-5.17.48-.38,1.2-.93,1.81-.66"/>
        <path class="cls-16" d="M49.24,7.54c.31.14,1.79.46,1.7.91-.79.72-1.95.2-2.74-.26-1.02-.57-2.47-2.01-2.69-3.19-.04-.22-.07-.24.14-.39.24-.05.32.08.47.18.49.37,1.04,1.28,1.62,1.77.47.4.93.73,1.5.97"/>
        <path class="cls-16" d="M49.74,3.74c-.09.17-.24.34-.44.34-1.37.04-4.14-3.08-4.5-4.43h1.44c.4.58.87,1.35,1.36,1.84.72.71,1.89,1.15,2.14,2.25"/>
        <path class="cls-16" d="M49.11,12.69c-.89.34-2.09-.25-2.87-.72-.51-.3-1.13-.71-1.18-1.37.79.05,1.41.61,2.13.93.65.3,1.73.33,1.91,1.15"/>
        <path class="cls-16" d="M45.19,84.76c.14.2-.54,1.18-.67,1.47-.14.33-.6,2.17-1.14,1.78-.62-1.2.26-3.6,1.82-3.25"/>
        <path class="cls-18" d="M42.07,49.11v31.61c.5-.12.89-.58,1.34-.81.2-.1.87-.23.88-.32l.1-30.02c-.77-.18-1.54-.33-2.32-.47"/>
        <path class="cls-13" d="M44.41,43.32h-2.34v5.8c.78.14,1.55.29,2.32.47l.02-6.26h0Z"/>
        <path class="cls-16" d="M43.63,4.35c.16,1.48-.34,2.73-1.01,3.99-.38.72-1.94,3.33-2.63,3.51-.18.05-.34-.03-.51-.1-.03-.22-.04-.48,0-.68.14-.84,2.03-3.14,2.57-4.08.4-.7.68-1.72,1.09-2.29.13-.18.24-.39.5-.35"/>
        <path class="cls-16" d="M42.72-.35c.06.9-.2,1.78-.44,2.64-.58,2.08-1.8,5.07-4.2,5.44-.26-.01.22-1.03.27-1.15.39-.78,1.17-1.52,1.65-2.27.91-1.42,1.32-3.13,2.05-4.66h.67Z"/>
        <polygon class="cls-18" points="42.72 31.19 42.72 36.02 20.3 36.93 20.43 32.37 31.84 31.97 42.72 31.19"/>
        <path class="cls-10" d="M42.72,26.05v4.23c-.72.18-1.44.09-2.15.13-6.16.43-12.35.77-18.5,1.05-.47.02-.96-.01-1.42-.02l-.15-.11.07-3.32c.08-.32,1.45-.18,1.76-.21,1.77-.16,3.57-.35,5.35-.52l14.73-1.45.33.21h-.02Z"/>
        <path class="cls-10" d="M42.72,14.38l-.13,4.57-21.77,2.35.14-4.3c3.58-.36,7.16-.65,10.73-1.07,1.75-.21,3.49-.53,5.24-.75,1.61-.21,3.49-.22,5.06-.54.29-.07.45-.25.73-.26"/>
        <path class="cls-10" d="M42.72,37.31l-.13,4.37-.2.33h-22.36l.13-3.92c.76-.02,1.53.04,2.28,0,6.28-.27,12.61-.43,18.89-.78.46-.02.92.03,1.38,0"/>
        <path class="cls-18" d="M42.59,19.99l.06,4.83-8.21.64-13.76,1.43c.05-1.48-.15-3,.21-4.45l21.7-2.46h0Z"/>
        <path class="cls-16" d="M40.28,86.09c.35,1.07.68,2.12.36,3.23-.64-.13-.95-1-1.14-1.53-.38-1.07-.75-2.45-.42-3.55.54-.37,1.1,1.52,1.21,1.85"/>
        <path class="cls-5" d="M28.45,70.87c3.28-.03,6.53.16,9.7.67-.05-3.54.04-7.09.02-10.64-1.55-.07-3.1-.17-4.65-.28l-5.08,10.25h.01Z"/>
        <path class="cls-15" d="M34.63,58.75l-.26.16-.85,1.71c1.55.1,3.1.2,4.65.28,0-.69,0-1.38,0-2.07l-3.52-.08h-.01Z"/>
        <path class="cls-14" d="M38.3,73.35c0-.3-.14-.59-.14-.89v-.92c-3.17-.5-6.42-.7-9.7-.67l-2.74,5.54c-.09.21-.08.73.21.78.1-.48.4-.92.71-1.3.2-.23,1.09-1.19,1.37-.9.34.49-1.6,2.73-1.42,2.86.68.02,1.22-.54,1.86-.8,1.97-.78.4.62.48.67l2.09-.26c.03-.45-.03-.91,0-1.36.02-.33.14-1.37.32-1.51.7-.57,1.03.3,1.33.65.43.52.9,1.01,1.29,1.58.71-.45,1.1-1.11,1.85-1.54.43-.25.96-.52,1.48-.49,1.1.28,0,2.13.25,2.94l1.17-.39c-.1-.23-.34-.28-.39-.59-.15-.89.03-2.39,0-3.39"/>
        <path class="cls-15" d="M35.54,56.93c-.02.23.02.48,0,.72.93-.15,1.8-.09,2.74,0v-4.89c-.33,0-.66,0-.99-.02-.68,1.37-1.7,3.46-1.75,4.19"/>
        <path class="cls-5" d="M37.74,51.83c-.11.22-.27.55-.45.91.33,0,.66,0,.99.02v-1.63c-.3-.09-.42.45-.54.7"/>
        <path class="cls-14" d="M38.29,43.45l-.19,1.83-2.35,4.82c-.54.33-.08-.14-.08-.2v-6.45h2.62Z"/>
        <path class="cls-16" d="M34.9,84.5c1.23.05,2.75,2.62,2.6,3.7-.04.26-.23.47-.26.73-.54.36-.99-1.47-1.14-1.78-.43-.86-1.27-1.61-1.2-2.64"/>
        <path class="cls-16" d="M33.29,87.91c.72-.18,1.75,1.77,1.22,2.14-.22.11-.58.04-.75-.12-.11-.1-.77-1.33-.8-1.49-.04-.26.11-.42.34-.53"/>
        <path class="cls-17" d="M34.51,43.45v8.8c-.97,1.66-1.69,3.9-2.72,5.49-.12.2-.25.48-.54.43l.52-14.73h2.74Z"/>
        <path class="cls-17" d="M33.47-.35l.59,14.61-2.21.39c-.11-.01-.21-.7-.22-.85-.12-1.87-.07-3.86-.12-5.74l-.26-8.41s2.22,0,2.22,0Z"/>
        <path class="cls-5" d="M29.62,61.95c.23.11.21-.15.26-.25.15-.28.47-.83.7-1.29-.66-.05-1.32-.11-1.98-.17.46.81.92,1.66,1.02,1.71"/>
        <path class="cls-15" d="M30.66,59.61c-.59-.03-1.12-.14-1.63-.46-.46-.85.28-1.1,1.04-.98l.25-5.46c-.25-.03-.5-.09-.74-.15-1.84-.05-3.68-.11-5.52-.17l-.05,3.69c.54.32,1.11.61,1.62.99.57.41,1.62,1.31,2.1,1.81.2.21.53.77.87,1.36.66.06,1.32.12,1.98.17.13-.25.24-.48.28-.61.08-.24-.04-.17-.2-.19"/>
        <path class="cls-5" d="M26.1,51.79l-2.03.33v.28c1.83.07,3.67.12,5.51.17-1.16-.29-2.28-.84-3.48-.78"/>
        <path class="cls-14" d="M30.6,43.45c-.02.89.03,1.78,0,2.68,0,.32-.14.59-.14.9,0,.43.12,4.37-.2,4.37-.84-.1-1.84-.67-2.61-.77-1.09-.14-2.36.05-3.45.12l.52-7.3h5.87Z"/>
        <path class="cls-14" d="M30.07-.35l.51,15.04-.21.2-3.81.52-.14-.63c.73-.17,1.48-.54,1.93-1.14.1-.38-.4-.59-.67-.72-1.62-.76-3.72-1.04-4.65-2.84,1.01.26,1.86.62,2.94.52.64-.07,1.15-.38,1.75-.52.08-.58-.42-.73-.72-1.03-1.29-1.35-2.82-2.62-3.45-4.44.96.18,1.92.82,2.94.79.36-.01,1.33-.17,1.57-.4.4-.39.21-.58-.26-.65-1.12-.19-2.83-1.37-3.84-2.03-1.16-.78-2.38-1.57-3.27-2.67h9.39,0Z"/>
        <path class="cls-16" d="M30.13,84.37c.88.19-.89,1.81-1.08,2.03-.68.89-1.01,2.07-1.65,2.9-.1.13-.54.65-.71.53-.35-1.12.33-2.61.92-3.57.59-.92,1.41-1.68,2.51-1.9"/>
        <path class="cls-15" d="M23.43,74.73l1.83-3.76c-.59.03-1.19.07-1.78.11l-.05,3.65Z"/>
        <path class="cls-5" d="M27.28,64.17c-.51-.02-3.56-.06-3.71.15l-.09,6.76c.6-.04,1.19-.08,1.78-.11l3.31-6.8c-.39.31-.86.01-1.29,0"/>
        <path class="cls-13" d="M27.7,61.77c-.25-.5-1.24-2.13-1.58-2.51-.22-.25-.99-.92-1.27-1.14-.14-.1-.28-.19-.43-.28-.2.27-.41.53-.63.76l-.1,4.27c.6-.05,1.3-.23,1.89-.26.83-.04,1.71,0,2.53.07-.22-.25-.26-.59-.41-.89"/>
        <path class="cls-3" d="M24.42,57.84c-.2-.11-.4-.22-.6-.32l-.03,1.07c.22-.23.42-.49.63-.76"/>
        <path class="cls-16" d="M27.2,83.72c.31.31-.96,1.6-1.14,1.9-.48.77-.82,1.87-1.18,2.73-.08.15.07.24-.27.18.12-.43-.2-.76-.26-1.11-.22-1.37,1.32-3.81,2.86-3.71"/>
        <path class="cls-4" d="M1.18,13.2c.26-.8.49-1.64.61-2.42.04-.33-.05-.71.03-1.01.15-.52.58-.38.76.1.5,1.28-.08,3.87-.88,5.83.5,2.86.78,5.91,1.39,8.97,1-2.99,1.99-5.08,2.99-7.91-.23-.65-.35-1.5-.38-1.91-.07-.86-.12-3.86.24-4.47.08-.13.15-.34.35-.29.72,1.01.38,2.3.46,3.46.04.73.28,1.53.26,2.27.23.25.49-.63.52-.71.23-.6.64-1.66.75-2.25.1-.51-.11-1.07.35-1.48.86-.48.98.61,1.27,1.1.87,1.46,2,2.33,3.11,3.54,0,0,.02.02.03.03-1.02-2.11-2.22-4.19-3.42-6.6.9.3,1.8.77,2.73,1.26-.01-.22,0-.43.07-.62.12-.16.17-.13.34-.08.54.18.81.93,1.09,1.49,2,1.02,4.14,1.84,6.65,1.21C15.42,9.66,13.18,4.72,10.26-.35h-2.73c.18.38.17.95.12,1.36-.07.51-.41.89-.51,1.38.82-.13,1.27-1.82,2.02-1.82.6,0,1.05,1.25,1.39,1.73.43.61,1.84,2.02,2.01,2.56.22.74-.56,1.02-1.13.47-.42-.43-1.11-1.27-1.48-1.77-.35-.46-.59-.97-.92-1.43l-2.54,2.27c-.5.18-1.18.14-1.19-.51,0-1.02,1.66-2.94,1.45-4.24H-2.38v3.52C-2,2.74-1.4.44-1.07.24c.13-.09.25-.07.39-.07.27,1.12-.16,2.59-.59,3.65-.24.63-.67,1.46-1.11,1.96v7.94c.77-1.39,1.52-2.81,2.21-4.29.59,1.18,1.01,2.45,1.35,3.76"/>
        <path class="cls-12" d="M25.65,13.6c-1.84-.51-3.64-1.98-4.46-3.7-.25-.53-.57-1.07-.05-1.53l.27-.12c1.27-.08,2.39.66,3.58.99.13.03.42.17.4-.08-.2,0-.33-.13-.47-.25-1.02-.96-2.99-3.46-2.78-4.88.05-.41.55-.75.51-.92-1.28-.84-2.33-1.79-3.33-2.94-.14-.16-.33-.25-.32-.52h-8.75c2.93,5.07,5.16,10.01,10.24,13.05-2.51.63-4.66-.19-6.65-1.21.05.1.1.19.15.27.74,1.19,1.62,1.9,2.89,2.51l.11.49c-.21.23-.48.4-.79.4-1.5,0-3.77-2.65-3.85-4.47-.93-.49-1.83-.96-2.73-1.26,1.2,2.41,2.4,4.49,3.42,6.6.12.13.49.54.49.62l-.14.12c.67,1.46,1.24,2.96,1.66,4.62-1.85-1.85-5.27-2.13-7.6-4.19l-.12.3h-.8c-.18-.12-.33-.42-.46-.77-1,2.84-1.99,4.92-2.99,7.91-.61-3.05-.89-6.1-1.39-8.96-.34.83-.72,1.55-1.08,2-.14.17-.96,1.07-1.18.85-.05-1.58.88-2.96,1.4-4.39.11-.31.22-.63.32-.96-.33-1.32-.76-2.58-1.35-3.76-.66,1.49-1.41,2.91-2.18,4.31v21.25c.47.22.29,1.1,0,1.43v.39c.28,0,.36-.17.5-.35.55-.68,1.16-1.78,1.61-2.57.17-.29.62-1.36.79-1.43,1.36-.58,1.43,1.9,1.53,2.78.22.04.26-.08.39-.2.35-.37.93-1.61,1.14-2.12.43-1.11.65-2.33,1.01-3.41.37-1.14.68-2.3,1.09-3.44.29-.29.72-.25.99.05.69,1.55,1.31,3.42,2.48,4.69.17.18.35.43.64.38.34-.09.21-2.02,1.32-1.3.4.26.74,1.52.99,2.01.68,1.34,1.61,2.41,2.79,3.34.32.05.16-.15.2-.34.08-.45.19-2.01.52-2.21.68-.41,1.57.77,2.02,1.24.35.34.65.93,1.24,1.04l.66-18.16.21-.2,5.77-.93c-.3-.43-.7-.62-.66-1.24.03-.64.51-.42.79-.84M12.9,1.64c-.1-.9.62-.49,1.02-.1.29.28.43.69.71.98.46.5,1.45,1.26,1.76,1.75.11.16.16.26.13.47-1.48.45-3.49-1.86-3.62-3.1M9.91,24.19c-.07-.34-.22-1.5-.14-1.76.03-.13.13-.22.24-.29l.43-.04c.55.16.79,2.09,1,2.66.24.66.73,1.4,1.19,1.95.49.58,1.22.99,1.42,1.76-2.27.32-3.77-2.36-4.13-4.27M13.55,21.64c.15-.35.52-.52.74-.14.22.76.48,1.53.9,2.23.39.65,1.07,1.29,1.46,1.91.14.22.16.36.13.6-1.58-.16-3.65-3.2-3.23-4.6"/>
        <path class="cls-12" d="M10.45,15.43c-.47-.52-.97-1.16-1.35-1.75l-.27-.08-1.38,3.61c2.32,2.05,5.74,2.33,7.6,4.19-.41-1.66-.99-3.16-1.66-4.62l-.49.44c-.67.11-1.99-1.31-2.46-1.8"/>
        <path class="cls-13" d="M23.3,45.33c.04-.6.23-1.23.13-1.88h-2.22l-.09,2.35c.7.22,1.41.42,2.13.6.01-.36.03-.73.05-1.07"/>
        <path class="cls-18" d="M23.25,46.4c-.72-.18-1.43-.38-2.13-.6l-1.27,32.58,2.28-.86c.02-.77-.05-1.57-.01-2.34.27-6.24.26-12.52.52-18.76.03-.88.41-3.61.23-4.26-.33-1.22.02-.68.15-1.61.17-1.24.17-2.75.22-4.14"/>
        <path class="cls-16" d="M22.77,89.53c.01.36-.33,2.27-.87,1.39-.36-1.98-1.12-3.86-2.06-5.63-.07-.11.04-.5.08-.52.17-.12.5.04.65.18.89.9,2.15,3.32,2.2,4.58"/>
        <path class="cls-14" d="M20.17,43.45l-.39,6.65c-.79-.26-1.68-.77-2.53-.79-.87-.02-2.03.47-3,.53-.98.07-1.96-.05-2.94-.13l-.78-8.92c.17-2.89-.51-5.84.14-8.68l1.49,2.35c.9,1.09,1.9,1.66,3.21,2.14.77.29.93-1.24.9-1.75l2.46,1.77-.25,4.02.4,2.79h1.29v.02Z"/>
        <path class="cls-5" d="M12.1,59.74l1.16-1.39c-.43-.07-.85-.16-1.28-.23l.12,1.62Z"/>
        <path class="cls-5" d="M19.66,51.59c-.15-.15-1.65-.8-1.9-.85-.67-.1-1.22.12-1.81.13-1.5.04-3.02.03-4.5-.13l.07.99c2.74.2,5.49.36,8.25.48.05-.23.07-.46-.11-.62"/>
        <path class="cls-15" d="M19.51,56.09c.2-1.1.08-2.21.13-3.32,0-.17.08-.36.12-.55-2.75-.13-5.5-.29-8.25-.48l.46,6.38c.43.07.85.16,1.28.23l1.54-1.84c1.47-.33,3.29-1.09,4.72-.42"/>
        <path class="cls-13" d="M12.7,61.12c.07.4.78,2.4.89,2.53.12.14.41.16.6.32.21.17.28.5.52.66.25.16,1.45.52,1.72.43.15-.04.88-.76,1.26-.96.48-.25,1.02-.37,1.51-.58l.12-2.45c-2.06.44-4.32.3-6.62.04"/>
        <path class="cls-3" d="M17.77,57.14c-.82.12-1.61.34-2.43.45l-2.67,3.45s0,.05.01.08c2.3.26,4.56.4,6.62-.04l.2-4.21c-.53.41-1.13.2-1.74.27"/>
        <path class="cls-16" d="M17.75,87.1c1.08.19,1.82,2.83,1.37,3.79-1.06-.08-1-1.55-1.36-2.35-.16-.35-.47-.63-.62-.95-.23-.5.2-.55.61-.49"/>
        <path class="cls-15" d="M10.27,74.86c.37.02.59-.33.87-.5.88-.54,1.83-1.14,2.9-1.07l-.65,2.22c.86-.27,2.28-1.15,3.18-.89.25.13.35.28.35.42h1.72c.09-1.16.17-2.33.21-3.5-2.94.36-5.87.85-8.76,1.41.15.56.01,1.51.2,1.91"/>
        <path class="cls-5" d="M19.12,64.3c-.62.37-1.63,1.5-2.21,1.76-.76.34-2.35-.65-3.13-.91-.28-.1-.61-.18-.9-.26-.74-.2-2.68-.68-3.34-.72-1.02-.06-1.69,1.24-2.34,1.18-.84-.08-.12-1.65-.07-2.16.02-.17.11-.52-.2-.46-.66.43-1.23,1.58-1.82,1.97-.32.2-.68.21-.73-.21-.09-.71.83-1.29,1.03-1.97.11-.34.39-3.08.27-3.18-.52-.15-1.23-.04-1.7-.2-.61-.18-1.92-1.41-2.61-1.82-1.32-.76-2.25-.83-3.77-.73v13.55c1.59-1.59,3.79-2.37,5.96-1.46.86.37,2.26,1.4,2.13,2.45l-.02.17c-.1.04-.2.07-.29.07l-.38,1.89h.1c.25.02.52.24.77.53.92-.2,1.85-.4,2.79-.59.26-.31.52-.58.69-.64.43-.16.63.03.72.36,2.89-.56,5.82-1.05,8.76-1.41.01-.39.04-.79.03-1.18l.25-6.06v.03Z"/>
        <path class="cls-5" d="M7.07,75.51c.36-.4.57-.91.87-1.35.14-.19.43-.58.73-.93-.93.19-1.86.39-2.79.59.46.54.89,1.35,1.19,1.7"/>
        <path class="cls-16" d="M16.88,14.28l.11.49c-.21.23-.48.4-.79.4-1.69,0-4.34-3.34-3.78-5.09.12-.16.17-.13.34-.08.64.22.9,1.22,1.24,1.76.74,1.18,1.62,1.9,2.89,2.51"/>
        <path class="cls-16" d="M16.65,25.64c.14.22.16.36.13.6-1.58-.16-3.65-3.2-3.23-4.6.15-.35.52-.52.74-.14.22.76.48,1.53.9,2.23.39.65,1.06,1.29,1.46,1.91"/>
        <path class="cls-16" d="M16.57,74.62c.25.13.35.28.35.42,0,.21-.21.4-.52.53-.62.25-2.43.95-2.99,1.05-.23.04-.37.02-.59-.07-.45-.34.82-2.21.51-2.75-1.05.74-2.09,1.46-2.72,2.61-.23.2-.75.22-.85-.09.07-.76-.23-1.43-.47-2.13l-1.71,2.98c-.4.28-.73.07-1.03-.24-.45-.45-1.52-1.99-1.87-2.57-.32-.53-.38-1.1.34-1.1h.1c.72.04,1.5,1.7,1.96,2.23.36-.4.57-.91.87-1.35.26-.36,1.07-1.45,1.41-1.58,1.15-.42.62,1.63.91,2.27.37.02.59-.33.87-.5.88-.54,1.83-1.14,2.9-1.07l-.65,2.22c.86-.27,2.28-1.15,3.18-.89"/>
        <path class="cls-16" d="M16.39,4.27c.11.16.16.26.13.47-1.48.45-3.49-1.86-3.62-3.1-.1-.9.62-.49,1.02-.1.29.28.43.68.71.98.46.5,1.45,1.26,1.76,1.75"/>
        <path class="cls-16" d="M14.04,28.46c-2.27.32-3.77-2.36-4.13-4.27-.07-.34-.22-1.5-.14-1.76.03-.13.13-.22.24-.29l.42-.04c.55.16.79,2.09,1,2.66.24.66.73,1.4,1.18,1.95.49.58,1.22.99,1.43,1.76"/>
        <path class="cls-16" d="M13.53,16.66l-.62.57c-.67.11-1.99-1.31-2.46-1.79-.47-.52-.97-1.16-1.35-1.75l-.27-.08-1.49,3.91h-.8c-.52-.35-.79-2.05-.84-2.67-.07-.86-.12-3.86.24-4.47.08-.13.15-.34.35-.29.72,1.01.38,2.29.46,3.46.04.73.28,1.53.26,2.27.23.25.49-.63.52-.71.23-.6.64-1.66.75-2.25.1-.51-.11-1.07.35-1.48.86-.48.98.61,1.27,1.1.87,1.46,2,2.33,3.11,3.53.09.09.52.57.52.65"/>
        <path class="cls-16" d="M12.61,83.33c.11.62-.45.75-.71,1.06-.76.89-1.33,2.13-2.02,2.91-.2.22-.32.39-.65.33-.34-1.14.43-2.46,1.17-3.32.53-.63,1.35-1.37,2.21-.98"/>
        <path class="cls-16" d="M12.56,4.86c.22.74-.57,1.02-1.13.47-.42-.43-1.11-1.27-1.48-1.77-.35-.46-.59-.97-.92-1.42l-2.55,2.27c-.5.18-1.17.14-1.18-.51,0-1.03,1.66-2.95,1.44-4.25h.78c.18.38.17.95.12,1.36-.07.51-.41.89-.51,1.38.82-.13,1.27-1.82,2.02-1.82.6,0,1.05,1.25,1.39,1.73.43.61,1.84,2.02,2.01,2.56"/>
        <path class="cls-17" d="M10.79,59.4c.22,1.24.84,2.59,1.03,3.85-.88-.04-1.63-.49-2.55-.39-.53.05-.86.45-1.36.52l-.06-1.57c-.18-.54-.84-.46-.87-.6-.08-.49.13-.96.15-1.41.3-8.31-.88-16.87-1.32-25.16-.1-1.93-.35-3.78.38-5.62.07-.16-.05-.23.27-.17.5,1.54,1.73,2.65,2.61,3.97.05,2.18-.08,4.35-.01,6.53.15,4.69.87,9.38,1.32,14.06.17,1.9.09,4.18.39,5.99"/>
        <path class="cls-16" d="M9.09,81.24c.03.26-.05.48-.13.72-.24.76-.91,2.26-1.28,3.02-.2.4-.36.79-.74,1.08-.42.02.03-1.49.1-1.72.3-.98.99-2.82,2.06-3.1"/>
        <path class="cls-13" d="M5.83,55.11v3.33c-.32-.13-.76-.08-1.04-.2-.16-.08-1.12-1.05-1.44-1.29-1.84-1.38-3.34-2.03-5.73-1.77v-.52c.45,0,.63-.38.92-.58.57-.38,1.55-1,2.17-1.22,2.15-.72,3.83.71,5.11,2.25"/>
        <path class="cls-16" d="M3.58,68.7c.86.37,2.26,1.4,2.13,2.45l-.02.17c-.1.04-.2.07-.29.07-.61,0-1.08-.77-1.73-1.08-1.8-.87-2.78-.52-4.44.35-.52.27-.97.8-1.61.8v-1.31c1.59-1.59,3.79-2.37,5.96-1.46"/>
        <path class="cls-15" d="M-2.38,52.96c1.12-.63,2.2-1.42,3.49-1.66,1.01-.2,1.53-.11,2.47.33.73.36,1.48.97,2.12,1.47l-.13-1.86c-2.66-.25-5.31-.55-7.95-.9v2.63h0Z"/>
        <path class="cls-1" d="M.82,44.61c-1.01,0-2,.74-3.07.26l.91-1.16-1.05-.52v7.15c2.65.35,5.3.65,7.95.9l-.32-4.67c-1.36-.73-2.83-1.99-4.44-1.96"/>
        <path class="cls-14" d="M4.53,34.32l.59,10.82c-1.09-.93-2.56-1.88-4.04-1.96-.53-.03-1.05.24-1.53.1-.53-.15-1.21-1.09-1.92-1.01v-3.52c.36-.03.63-.4.84-.66.85-1.01,1.44-2.32,2.23-3.37.38.43.16,2.03.67,2.2.88.2,1.6-.46,2.12-1.09.39-.47.61-1.1,1.04-1.5"/>
        <path class="cls-16" d="M2.51,81.37c1.41.66,2.71,3.27,2.54,4.76-.05.48-.39.65-.4,1.1-.3.08-.21-.07-.29-.16-.58-.72-.59-1.64-.9-2.48-.3-.78-.84-1.68-1.05-2.46-.08-.3-.21-.53.11-.76"/>
        <path class="cls-16" d="M2.58,9.87c.72,1.83-.76,6.31-1.96,7.83-.14.17-.96,1.07-1.17.85-.05-1.58.88-2.96,1.4-4.39.38-1.05.76-2.27.93-3.37.04-.33-.05-.71.03-1.01.15-.52.58-.38.76.1"/>
        <path class="cls-16" d="M.29,83.86c.59.89,1.13,2.03.72,3.11l-.39-.08c-.63-1.27-1.08-2.51-1.89-3.7-.23-.33-.72-.57-.71-1.04,1.03-.07,1.76.92,2.27,1.71"/>
      </g>
    </g>
  </g>
</svg>