<?xml version="1.0" encoding="UTF-8"?>
<svg id="Layer_1" data-name="Layer 1" xmlns="http://www.w3.org/2000/svg" xmlns:xlink="http://www.w3.org/1999/xlink" viewBox="0 0 90 90">
  <defs>
    <style>
      .cls-1 {
        fill: #bb9889;
      }

      .cls-2 {
        fill: #a8796b;
      }

      .cls-3 {
        fill: #fcfbf9;
      }

      .cls-4 {
        fill: #abe0f9;
      }

      .cls-5 {
        fill: #a9bc69;
      }

      .cls-6 {
        fill: #bfbebe;
      }

      .cls-7 {
        fill: #a3af65;
      }

      .cls-8 {
        fill: #b6c370;
      }

      .cls-9 {
        fill: #d0d2d3;
      }

      .cls-10 {
        fill: #98a951;
      }

      .cls-11 {
        fill: none;
      }

      .cls-12 {
        fill: #d5d781;
      }

      .cls-13 {
        fill: #5f835f;
      }

      .cls-14 {
        clip-path: url(#clippath-1);
      }

      .cls-15 {
        fill: #828d53;
      }

      .cls-16 {
        fill: #727849;
      }

      .cls-17 {
        fill: #849a52;
      }

      .cls-18 {
        fill: #663925;
      }

      .cls-19 {
        fill: #c28966;
      }

      .cls-20 {
        fill: #a6a8ab;
      }

      .cls-21 {
        fill: #d0e299;
      }

      .cls-22 {
        fill: #986749;
      }

      .cls-23 {
        clip-path: url(#clippath);
      }

      .cls-24 {
        fill: #e6e7e8;
      }
    </style>
    <clipPath id="clippath">
      <rect class="cls-11" x="0" width="90" height="90"/>
    </clipPath>
    <clipPath id="clippath-1">
      <rect class="cls-11" x="-2.18" y="-.35" width="94.35" height="90.71"/>
    </clipPath>
  </defs>
  <g class="cls-23">
    <g class="cls-14">
      <g>
        <path class="cls-3" d="M92.37-.35v94.75h-.13V-.23H10.42c-4.28,0-8.54,0-12.8,0v-.13h94.75Z"/>
        <path class="cls-20" d="M86.38,81.09v6.72l-.54,5.59-.3.22-3.32.13c.7-3.33.9-6.73,1.29-10.1l.09-3.18c-11.4-2.47-23.03-3.89-34.92-3.45-1.07.06-2.14.12-3.2.16,1.07-.07,2.14-.12,3.2-.16,14.52-.76,29.04-2.96,43.56-4.8v-12.14c-5.22-.81-10.46-1.51-15.72-2.13.28.31.52.57.67.74.11.13.25.17.2.39l-1.82-.07c-.38-.47-.8-.9-1.23-1.32-8.15-.92-16.33-1.64-24.52-2.27,8.7,0,16.31-2.18,23.93-4.35-11.88-8.22-24.52-3.4-36.65-3.58,2.42,1.93,3.8,4.54,2.49,8.27-1.06,3.01-3.38,5.38-5.81,7.35-9.27,7.54-21.28,12.66-32.26,17.27-1.27.54-2.57,1.11-3.9,1.5v3.78c.78-.21,1.65.14,2.44.37.17.05.36-.09.31.21l-2.75,1.37v6.79h94.62v-11.86c-1.95-.51-3.9-1-5.86-1.45M81.04,63.18c.3.16,2.02,3.66,2.27,4.24.51,1.2,1.32,3.2,1.58,4.43.04.22.09.42.05.65h-2.28l-1.17-3.77-2.67-5.47s2.22-.08,2.22-.08ZM64.09,50.21c.57.23,1.16.05,1.73.16.89.17,1.91,1.05,2.83,1.27.15.17.01.25-.19.26-.4.02-1.02.05-1.4-.03-.4-.08-2.24-1.07-2.7-1.34-.17-.1-.34.02-.26-.33M57.06,46.74c.28.05,2.46.84,2.7.97.19.1.35.16.29.41l-1.43-.05-2.73-1.24c.44.03.73-.16,1.18-.09M5.57,83.65l-1.95-.6c-.07-.3.03-.21.16-.29,2.36-1.41,5.03-2.39,7.39-3.83l2.6.35-8.21,4.37h.01ZM25.21,73.04c-2.08,1.28-4.35,2.46-6.53,3.49l-2.16-.38,6.76-3.85,2.49.2c.08.29-.35.41-.57.54M34.86,66.14c-1.58,1.4-3.34,2.58-5.05,3.81l-1.83-.32,5.38-3.69,1.65-.1c.09.3-.08.22-.16.29M42.71,52.17h-.38l-.39-1.7c.33.11.89,1.58.77,1.7M41.87,50.21c.08.04.08.09,0,.13v-.13ZM40.11,60.96c-.39.5-1.7,2-2.14,2.29-.41.26-.83.1-1.25,0l3.06-3.39,1.12-.12c.11.1-.67,1.09-.78,1.23M43.09,54.95c-.04.48-.53,2.4-.89,2.62-.2.12-.48.09-.71.04l-.2-.28c.5-1.11,1-2.27,1.06-3.51.04-.13.19-.3.32-.34.62-.16.47,1.05.42,1.47"/>
        <path class="cls-6" d="M48.68,77.01c-1.07.04-2.13.09-3.2.16,1.07-.04,2.14-.1,3.2-.16"/>
        <path class="cls-6" d="M83.6,80.46l.04-1.26,2.52.09.22.3v1.49c1.96.46,3.91.94,5.86,1.45v-10.33c-14.52,1.84-29.04,4.04-43.56,4.81,11.89-.43,23.52.98,34.92,3.45"/>
        <path class="cls-6" d="M73.75,51.07c-7.61,2.18-15.23,4.35-23.93,4.35,8.18.63,16.36,1.36,24.52,2.27-1.04-1.01-2.17-1.91-3.21-2.92.52.04,1.12-.08,1.62,0,.78.12,2.67,1.97,3.77,3.16,5.25.61,10.5,1.31,15.72,2.13v-7.77c-2.1-.64-4.1-1.63-6.19-2.35-9.53-3.26-19.01-5.02-28.95-6.63-8.94-.54-17.88-1.06-26.82-.91-1.92.02-3.02-.16-4.84-.39-.64-.08-1.36.04-2.01,0l3.62.88c3.07,1.07,7.26,2.39,10.06,4.61,12.12.18,24.77-4.64,36.65,3.58M87.55,52.09c1.02.28,3.02,1.42,4.08,1.92.15.08.32.11.48.11.13.46-.82.26-1.04.2-.57-.15-3.43-1.6-4.04-1.96-.14-.09-.36-.13-.39-.33.32,0,.61-.02.91.05M83.38,50.34c.33.39-.76.25-.91.21l-3.64-1.38c1.59-.1,3.04.83,4.56,1.18M76.47,48.13c.14.16,0,.25-.2.26-.53,0-2.5-.51-3.06-.73-.16-.05-.36-.13-.39-.32l3.64.78h0ZM70.48,46.7l-.58.11-1.9-.5c.85-.04,1.66.23,2.48.39M51.71,45.26c.66.09,1.41.18,2.04.37.17.05.39.04.43.28-.66.2-1.52-.15-2.19-.36-.23-.08-.35.05-.29-.29M47.61,44.48c.35.02.72.21,1.11.13v.39l-1.31-.26c0-.24-.06-.28.2-.26"/>
        <path class="cls-18" d="M92.24,51.13v1.18c-2.1-.64-4.1-1.63-6.19-2.35-9.53-3.26-19.01-5.02-28.95-6.63-8.94-.54-17.88-1.05-26.82-.91-1.92.02-3.02-.16-4.84-.39-.64-.08-1.36.04-2.01,0l3.62.88c5.73,2,15.37,4.84,12.54,12.88-1.06,3.01-3.38,5.38-5.81,7.35-9.27,7.54-21.28,12.66-32.26,17.27-1.27.54-2.57,1.11-3.9,1.5v-1.44c5.07-2.14,10.18-4.21,15.17-6.54.39-.18.78-.37,1.17-.55,6.89-3.25,13.48-6.85,19.42-11.68l.86-.9c-3.18,1.17-6.37,2.53-9.78,2.86v-.13c3.48-1.66,6.73-2.91,10.29-4.36,1.59-.64,2.14-.82,2.95-2.4.11-.23.25-.53.25-.78-1.66,1.17-3.61,1.22-5.47,1.82-.47.15-.83.5-1.37.39-.05-.27.13-.31.31-.41,1.34-.91,2.56-1.09,3.96-1.65,1.07-.42,2.07-1.36,3.17-1.77l.26-1.5c-.1-.1-1.74.68-2.01.78-.37.13-.79.15-1.12.26l-.26-.13c.37-.2.79-.68,1.13-.89.56-.34,1.46-.61,1.93-.95.11-.09.22-.14.21-.32-1.26-3.13-4.11-4.49-7.04-5.73-2.82-1.2-5.72-2.19-8.72-2.75-.23-.03-.43-.08-.66-.05l1.7,1.5c.03.21.01.22-.2.2-.29-.04-1.13-.28-1.43-.39-1.61-.54-2.88-2.83-4.46-3.1-.16-.02-.59-.09-.68,0-.08.9-.98.78-1.61,1.05-.27.11-.38.49-.81.35-.04-.02-.65-.68-.67-.76.02-.52.28-1.37-.18-1.76-.6-.51-2.46-.82-3.25-.99l.39-.9c-.46,0-.92-.03-1.37,0-.42.02-1.75.42-1.86-.22l.16-.83-1.37.99-.91,9.1.27,5.21-.64.07-.15-.64c-1.74.87-1.23.08-1.88-1.17-.42.49-.48,1.3-1.28,1.29-.54-.16-.1-2.06-.09-2.52.11-3.27.19-7.33,0-10.57-.02-.41-.2-.8-.13-1.23l-3.44.37c-.42-.14-.16-1.09-.09-1.41l-.67.21v-.78c.42-.08.71-.58,1.19-.34v1.51l2.74-.48-1.38-4.09-1.44-.51-1.11.52v-.91c.54-.2.87-1.03,1.48-.65.51,1.18,2.32.54,2.96-.18.36-.41.22-1.81,1.15-1.02l.27.9c.31.4,1.2.15,1.49-.22.18-.24.21-.85.73-.59.64.33.66,2.06,1.39,2.26.35.1.6-.08.87-.05.7.05,1.28.41,1.96-.07.48-.33.47-1.34.49-1.86.08-.24.38-.15.48-.24.29-.28.17-1.98-.09-2.36-.15-.22-1.22-.15-.67-.95l.79-.12c.91-.89.14-1.72-.2-2.54-.52-1.29,1.09-.17,1.31-.13.75.14,1.09-.11,1.32-.78l.35-.1.57.34c.6-.07,1.63-.68,1.82-1.27.04-.12-.05-1.67-.09-1.88-.05-.36-.48-.92-.84-.99-.49-.09-1.13.29-1.5.07-.35-.21-.33-1.72-1.62-1.5-.18.03-1.21,1.12-1.31,1.32-.14.27-.1.5-.33.84-.61.88-2.77,1.9-3.21.54-.02-.07-.04-.14-.06-.22.37-.05.6.27.97.26.53-.03,1.45-.59,1.65-1.1.16-.43-.12-.85.34-1.1.32-.16.58,0,.66-.5.14-.86-.4-1.76-1.02-2.33-.63.05-1.01.69-1.82.46l.85-.64c1-1,.43-1.83.33-3,1.32-.16,1.31,1.54,1.06,2.46.6.24,1,.83,1.17,1.43.37.1.71-.07.76-.45.15-.92-.79-.82-.77-1.42.14-.53.84-1.02.99-1.5.1-.35-.17-.67-.07-1.03.26-.23.71.01.89-.08.34-.15,1.16-1.22,1.33-1.61.3-.21.89.43,1.54-.22.46-.45.42-.96.39-1.57l-.52-.39c-.44-.58.21-.5.51-.65.67-.35.94-2.07.27-2.6l-1.48.18c-.25-.08-.23-.95-1.2-1.03-1.58-.16-1,1.4-1.51,2.26-.25.41-.86.75-1.09,1.13-.15.26-.16.6-.31.87-.48.91-1.79,1.48-2.73.92l-.14-.31c-.02-.57.92-.11,1.34-.19.33-.05.91-.53.97-.87.03-.3-.25-.64-.06-.96.54-.45,1.43-.95,1.38-1.75-.01-.33-.29-.57-.18-.82.14-.36.69-.27.79-.64.37-1.23-1.7-1.53-2.23-2.29l.17-1.52h.65V.81c.95.22,2.03.9,2.34,1.84.6-.29.95-.7,1.03-1.38.07-.52-.15-1.07.27-1.48.35-.01.7,0,1.04,0,.11.36-.31.52-.37.74-.2.67.04,1.21-.49,1.98-.18.27-.59.45-.58.79.63.03,1.16.41,1.31,1.04.42-.23.85-.5,1.36-.39,1.21.21,1.15,2.37.75,3.22-.11.23-.5.63-.52.78-.03.16.2.4.23.63.07.42-.02.88-.23,1.27-.25.53-.7.98-1.2,1.2-.39.18-.97.14-1.18.26-.12.07-.22.38-.38.53-1.02.9-.86.54-1.54,1.84-.12.22-.42.42-.42.63.71.97.74,1.84-.26,2.6.93.05,1.63.64,1.98,1.48,1.4-.22,2.68.65,2.82,2.08.04.34-.09.52-.08.75,0,.35.17.55.08,1.01-.17.85-1.26,1.73-2.06,1.98-.51.17-.85.03-1.21.1-.48.08-1,.72-1.66.49l.02,1.36c.1.5,1.65.3,2.07.34l-.13.52c.66.01,1.16.09,1.74-.28.27-.17.62-.67.83-.74.36-.11.58.18.89.24.89.13,1.32-.46,1.85-1.02.59-.15.58.7,1.12.48,1.02-.42,1.6-2.4,1.01-3.27-.21-.32-1.22-.09-1.28-.78l.19-.36c.25-.16.61-.06.87-.15.61-.18.59-1.54.66-2.07l.74-.17c.42-.79.33-1.86-.03-2.65-1.06-.02-.64-1.16-1.64-1.55-.89-.35-.75.18-1.43.33-.77.16-1.12-.24-.55-.8.65-.65,1.66-.35,1.56-1.57-.02-.24-.25-.86-.45-1-.26-.21-.61-.04-.92-.24-.2-.12-.29-.43-.45-.6-.24-.25-.64-.33-.65-.78.02-.08.06-.13.08-.18.25-.45.71-.02,1.04-.01.58.03.93-1.2,1.12-1.66.75-.23,1.34-.14,1.97-.7.51-.45.13-.69.24-1.27l1.11-.11c.49-.22,1-1.14.97-1.66-.02-.33-.31-.5-.28-.77.02-.2.36-.58.47-.86.26-.68.21-1.25-.22-1.87-.69-.99-1.16.09-1.69-.27l-.12-.85c.74-.01,1.48,0,2.22,0,.71.76,1.04,1.45.9,2.52-.07.43-.39.9-.45,1.24-.04.27.1.74.07,1.12-.07.69-.68,1.63-1.24,2.02-.25.17-.65.24-.78.39-.1.12-.12.37-.24.53-.56.76-1.33,1.2-2.27,1.32l-1.07,1.6c1.53.64,1.38,1.75,1.22,3.2.5.24.83.5,1.17.91.14.16.18.41.34.59.17.2.46.28.65.51.67.82.74,3-.07,3.72-.16.15-.54.24-.57.28-.1.14-.1,1.57-.63,1.87.01.22.48.66.48.78v1.88c.47-.37.75-.75,1.4-.8.21-1.01.59-1.98,1.79-1.94.79.02.9.61,1.11,1.25.03.11-.08.27.18.18.69-.21,1.65-1.36,2.15-1.88.05-.43-.38.05-.65-.13-.63-.43,1.23-1.67,1.31-2.22l-.65-.12c-.52-1.2,1.7-1.57,1.44-2.94-.47.2-.86.29-.89-.32.9-.96,1.72-2.1,1.9-3.44.05-.39-.09-1.77.23-1.86.68-.18.66,1.34.81,1.8.32,1.01,1.01,1.95,1.81,2.62.28.07.89-1.21,1-1.47.11-.28.28-.67.34-.97.1-.52-.17-1.28.5-1.45.36,0,.45.66.59.94.42.87.78,1.49,1.61,2.04,1.15-1.45,1.76-3.61,2-5.43.06-.49-.14-2.21.48-2.27l.39.13c.03,1.34.36,2.44,1.11,3.52.81-.36.73-2.45,1.79-1.92.2.82.64,1.71,1.46,2.05.53-1.09.39-2.41.74-3.49.2-.59.5-.57.58.03.1.9-.07,2.84.33,3.58.05.11.18.25.31.27.9-1.72,1.21-3.5,1.59-5.38.12-.3.49-.3.7-.09.37.37.15,2.72.73,3.57.31.43.78.46,1.16.8.1.08.15.05.25,0,.23-.11,1-1.18,1.15-1.47.37-.66.53-1.39.67-2.12l-1.31.26c-.04-.59.5-.98.77-1.52.23-.46.49-1.17.66-1.67.29-.82.7-1.82.52-2.66h.78c.17.96.48,2.01.97,2.87.26.43,1.32,1.41,1.24,1.73l-.26.28c-.18.17-1.03-.32-.9.13.27.93,1.4,1.3,2.15,1.75.35.57-.45.73-.46.85l1.22,1.1.99-1.1-.91.2c-.33-.34,1.15-1.57,1.41-1.9.54-.7,1.03-1.62,1.05-2.51l-.46-.13.73-3.26h.78c.13.55-.59,1.9-.35,2.31.01.04.2.02.22.12.01,1.17-.45,2.48-1.07,3.48-.16.27-.66.66-.74.96-.04.22.13.49.12.75-.02.87-1.43,2.1-2.09,2.61-.05.29.09.21.28.16,1.29-.24,1.32-.03.87,1.13-.2.49-.49.97-.89,1.32-.22.41.83-.08.91.12.48,1.76-.99,3.31-1.83,4.7.41.01,1-.71,1.37-.33.43.46.12,2.13-.08,2.74l.79.05c.35.23,0,1.48-.11,1.87-.39,1.44-1.31,2.77-2.11,4,.46-.05.95-.15,1.39.03.48.21,1.1,1.07,1.23,1.58l.5.02c0-.29-.14-.52-.12-.83.02-.45.67-2.07.92-2.48.65-1.04,1.77-1.13,2.78-.51.86-.89,2.04-.84,2.53.37.54.09,1.04.05,1.36.59.26.42.22.97.37,1.34.07.17.42.28.58.72.17.45.1.88.2,1.24.09.25.51.42.6.83.14.6-.05,1.15-.1,1.74l.91.26.2-.78h1.96l.2-.26c-.87-.18-1.93-1.7-1.81-2.51.12-.83,1.28-.4,1.85-.4.1,0,.63-.03.6-.22-1.28-.45-2.72-1.26-3.15-2.64-.29-.95-.02-1.27.95-1.33-.34-.34-.7-.8-.83-1.26-.12-.47,0-1.3-.15-1.54-.08-.13-.35-.17-.47-.32s-.11-.38-.25-.53c-.28-.28-1.12-.33-1.18-.97-.41.03-.65.36-1.1.39-1.03.07-2.81-.55-2.51-1.87.37-.86,1.14-1.25,2.04-1.28-.01-.54.33-.96.66-1.35,0-.14-1.68-.37-2.07-1.05-.46-.8.14-1.5.09-1.79-.02-.12-.22-.32-.27-.5-.33-1.03.5-1.7,1.41-1.93,0-.71.31-.88.84-1.24-.78-.87-2.06-1.21-.78-2.42-1.24-.33-2.23-1.54-2.46-2.78.1-.4,1.06-.49,1.41-.61-.1-.66-.96-.96-.9-1.69h.65c0,.51,2.35,1.88,1.35,2.2l-1.61.14c.23,1.42,1.55,1.98,2.81,2.34.38.88-.95.53-.99,1.32l2.43,1.57c.55-.01.13-1.38.18-1.89.05-.57.4-1.11.39-1.68-.06-.41-.84-.74-.78-1.56.05-.71.8-1.29,1.31-1.73l-.39-.7h.91c1.33,1.08-1.03,1.64-.99,2.53.01.33.64.74.72,1.17.16.88-.39,1.55-.39,2.35,0,.43.25.73.27,1.05.01.27-.16.55-.12.74.06.25.84.72.11,1.2-1.09.71-2.13-.76-2.77-.58-.33.1-.12.8-.47.98l-1.25.58-.03.5c1.41.62-.16,1.09.16,1.98.25.41,2.47.55,2.69,1.37,0,.36-1.21.76-1.27,1.71-.02.28.25.57-.1.84-.46.37-1.58-.48-1.87.59.02.35,1.29.6,1.6.59.6-.02.97-.65,1.54-.77.49.23.32.71.37,1.14.47.4,1.39-.36,1.74.14.3.41-.32.94-.2,1.04,1.25.1,2.37-.08,3.58-.39.47.07.42.78,1.18.79.67,0,1.09-.59,1.7-.66.52.04.98,1.4,1.89.98.39-.18.64-1.14,1.11-.2,1.14-.22.66-1.33.87-1.99.16-.55,1.05-1.06.99-1.69-.01-.15-.15-.58-.3-.61-1.39.13-2.58,1.37-3.9.38-.52-.39-1.1-1.47-.72-2.09-1.66.08-2.46-.79-2.23-2.46-1-.18-1.13-1.29-.84-2.11.1-.25.36-.37.33-.65-1.51,0-2.4-.42-2.05-2.12.33-1.56,2.3-.77,3.37-1.35.17-.78.04-1.45-.03-2.24-1.24-.72-2.15-1.15-1.41-2.75,1,0,2-.01,3,0-.14.28-.7.49-.99.51-.43.04-.64-.32-.88-.25l-.46.74,1.78,1.57c.1.25-.09.51-.07.74.04.84.13.51-.02,1.47-.04.3.25.64.04.96-.33.63-2.97.25-3.34.71-.16.21-.14.51-.1.77.16.48,1.75.17,2.1.89.39.8-1.02,1.35-.42,2.32l.7-.12c.6.18-.07,1.66.34,2.15.88.5,1.74.32,2.62-.08.59,1.05-.85,1.05-.78,1.88.04.6.65,1.09,1.24,1.1.46.01.42-.3.64-.5.49-.46.79-.01,1.28-.15.29-.17.65-.66.98-.74.36-.09.64.21,1.2.03.85-.27.16-1.59,1.36-1.35l.32.71-.43,1.24c.6.43,1.18.23,1.81.02,1.5.58.16,1.46.35,2.38.09.46.73.38.89.82-.18.83-.62,1.62.4,2.07.47.17.87-.03,1.28-.23.1-.15-.07-.5.24-.62.53-.21.42.37.75.38l1.25-.39v.91l-1.79.28c-.57.64-.65,1.3-.82,2.13.21.13.61-.16.79-.26.62-.34,1.19-.8,1.82-1.11v.91l-3.06,1.44-2.61,3.51.2,7.82c.83-.33,1.35-1.46,2.33-1.28l.02,1.02c.95-.5,2.05-.84,3.12-.91v.78c-.97.05-2.04.36-2.9.8-.3.15-.49.54-.93.51-.25-.22-.18-.5-.14-.78.03-.18.18-.32-.13-.27l-1.31,1.04c-.14.26-.08,1.02-.05,1.35.09.99.78,2.36.77,3.15,0,.23-.12.62-.35.7-.24.08-1.53-.17-2.07-.12-.46.05-1.16.54-1.44,0-.17-.34.33-1.11.57-1.38l-.24-3.18c-.62-.27-1.21.5-1.6.49-.98-.03-1.37-.84-1.88-.99-.35-.1-.84.02-1.21-.02l.26,2.48.82-.11.54.62c.56-.43.99-.92,1.76-.77.07.59-.64.76-1.04,1.1-.33.29-.58.63-.85.98-.62.03-.38-1.16-.51-1.16-.71.28-1.1.81-1.96.64-.2-.03-.34-.25-.5-.23-.61.04-1.81,1.5-2.16.05l-.27-.08c0,.43-.25.99-.77.9-.21-.21.5-2.39.77-2.54.72-.38.64,1.16.91,1.51l.26-.2v-2.67c-.36.26-1.68.48-1.93.68-.16.13-.35,1.07-.63,1.12-.63.13-.88-.94-1.28-1.28l-.54,1.15c-.81.07-1.64-.02-2.46,0-.76.03-1.39.61-.98-.64l-2.21.52.25-1.44-1.88,1.17-.26-1.43c-.79.75-.49,2.14-1.83.91,0,.28.22.77-.06.98-.1.08-1.66.45-2.02.58-.5.18-1.1.41-1.59.63-.81.38-2.53,1.62-3.23,1.73-.2.02-.24,0-.2-.21.08-.43.93-.95,1.31-1.17l-.72-1.23-.39-.14c-2.21.22-4.32.82-6.39,1.57l-.2-.32c.29-.21.58-.39.88-.57.28-.15.31-.18-.02-.15-3.76.28-8.1.78-11.84,1.32-2.37.34-4.7.98-7.07,1.27-1.32.16-2.65.23-3.96.27l1.62.27c11.94-.33,23.95-.11,35.72,1.96.88,0,2.75-1.61,3.71-2.03.91-.4,1.79-.53,2.74-.72.15-.07.36.13.39.13l-4.7,2.87c-.23.18,1.46.52,1.69.52l-.38-.26c1.05.02,1.89-.84,2.78-1.33.33-.18,1.28-.72,1.59-.76.2-.03.23,0,.2.2l-1.7,1.83c1.26.33,2.24-.99,3.25-1.57.82-.47,1.82-.85,2.74-.59.04.18-.02.22-.12.33-.17.2-.95.84-1.2,1.03-.74.59-1.75,1.23-2.59,1.64-.04.16.24.21.35.23,1.84.29,2.07-.15,3.67-.72,1.22-.43,1.6-.58,2.76-1.14.78-.39,1.72-.89,2.6-.85-.86,1.23-2.88.97-3.52,2.53l-1.56,1.12c2.02.59,3.82-.91,5.73-1.3.37.37-1.75,1.75-1.95,2.08,1.76.43,3.12-1.16,4.82-1.43.15.13-.48.67-.59.77-.66.6-1.48,1-2.15,1.57,1.13.17,2.15.97,3.33.92,1.45-.05,2.95-1.41,4.49-1.17.05.22-.09.25-.2.38-.62.76-1.59,1.03-2.4,1.5,0,.11,1.3.6,1.49.6.64,0,1.59-.66,2.28-.66v1.3l-.65.13v.2l.65.33h.04ZM86.38,25.58c1.22-1.35,2.52-2.9,2.6-4.82-1.03-.1-2.09-.87-1.94-2.01.03-.28.29-.65.23-.89-.04-.21-.43-.4-.56-.63-.37-.61-.12-1.23.19-1.8h-1.04l.52,10.16h0ZM86.38,39.66c.05-.91-.34-1.77-.39-2.68-.21-2.9.13-6.06.01-9.01-.15-3.46-.5-6.96-.66-10.41-.05-1.08.45-2.52-.91-2.81l.39,3.58c.09,6.21.12,12.44.26,18.64.02.89.05,1.79-.13,2.66h1.44v.03ZM84.3,21.61c.09-1.72-.11-4.24-.28-5.98-.01-.13-.06-.62-.25-.6.01.54.03,1.17-.19,1.69-.15.36-.52.54-.58.85-.08.4.06.86-.03,1.28-.11.47-.64.59-.63,1.05.25.91.52,1.77,1.17,2.49.1.1.53.59.65.46-.01-.42.12-.8.14-1.24M84.03,34.96l.07-11.08c-1.33-.76-2.35-2.22-2.4-3.77-1.02-.13-1.48,1.01-2.61.52-.01,1.08-.16,2.12-.14,3.2.07,2.02.34,4.1.4,6.11.05,1.59-.04,3.19,0,4.76,1.23-.18,1.94.21,2.96.76.56-.31,1.06-.59,1.73-.5M78.75,38.23l-.28-3.22c.47-4.47-.23-8.92-.05-13.41.02-.36.28-1.05.11-1.34-.02-.04-.49-.27-.58-.39l-.57.2c.02,1.99-.22,3.98-.13,5.98.09,2.28.36,4.61.4,6.9.02,1.72,0,3.44-.14,5.15,0,0,1.24.13,1.24.13ZM76.67,22.59l.2-2.35-1.44-.13c.03.98.55,1.82,1.24,2.48M76.72,35.21c.09-1.64-.13-3.24-.12-4.88v-1.82c-.02-1.69.02-3.38,0-5.08-.26-.57-.85-.87-1.2-1.41-.46-.73-.57-1.61-.76-2.44l-2.73.26c-.11,1.51.71,2.32,1.96,2.95.21.91-1.26.48-1.83.58.22,1.54,1.99,1.98,3.13,2.69-.07,1.12-1.31,1.38-2.22,1.41.11,1.13,1.31,1.52,2.2,1.9v.36c-.84.62-1.77,1.11-2.85,1.07-.12.53.32.43.59.64.8.62.57,1.02.91,1.7.18.35.68.54.87,1.08.22.64.01,1.05.04,1.66l2-.66h.01ZM73.65,35.94c-.01-.42.43-.65.22-1.3-.17-.53-.49-.65-.92-.93-.22-.53.02-1.15-.51-1.54l-1.09-.08c-.3-.1-.24-.84-.96-.87-.26-.01-.76.65-1.02.24-.22-.33.45-1.95.2-2.52-.83-.37-.42-1.1-.54-1.83-.9-.5-.65-1.34-1.02-2.17l-1.17.21c-.23-.16-.11-1.22-.71-1.25-.53.02-.45.92-.81,1.03-.88.12-1.03-1.07-1.97-.67-.57.25-.59.71-.58,1.25-.59.39-.83.83-.61,1.57.1.32.62.43.41.97l-.29.24-1.06.12-.45,1.37c-.36.35-.85-.25-1.29.66-.2.4-.29.9-.21,1.35.07.39.62.53.51.9-.12.4-2.18.39-1.76,1.65.2.6.94.26.73,1.08-.9.44-1.79,1.21-1.54,2.34.08.34.45.76.8.75.52-.03,1.86-.71,2.54-.88.6-.15,1.23-.27,1.85-.29.12-.11-1.7-2.51,1.11-.93.68-1.14,1.8-2.16,1.76,0,.08.1,1.69-1.72,2.21-.84l-.39,1.1c.15.13,3.77-1.34,2.61.26h2.35c-.02-.51.26-1.05.6-1.42.59-.17.58,1.21,1.23,1.16.08-.27-.21-.52-.22-.72M68.98,36.92c.09-.04.09-.09,0-.13v.13ZM60.18,29.09c.16-.95-.4-2.72-1.6-2.45-.29.08-.48.4-.81.38-.4,0-.6-.43-1.03-.4-.46.03-.79.67-1.13.6-.54-.13-.41-1.1-.72-1.5-.11-.15-.35-.21-.51-.4-.28-.35-.75-1.98-1.5-1.5-.22.14-.13.6-.51.66-.35.07-.67-.21-1.09.05-.41.51-.81,1.08-.88,1.76-.05.67.95,1.05,1.02,1.6.05.28-.19.59-.23.89-.13.99.25,1.34.52,2.2l-.79.79c0,.37,1.04.48.51,1.22-.7.05-1.32-.16-1.81.47-.66.85.32,1.37-.18,1.77-.49.38-1.16-.43-1.36.48-.1.48.58,1.77,1.09,1.86s1.07-.22,1.69-.13c.4.06.78.49,1.02.49.54,0,1.68-.43,2.37-.49.66-.05,1.36.04,2.01,0,.04-.99.45-1.76,1.31-2.27-.89-1.02-.47-2.52.9-2.82-.05-1.28.08-3.17,1.71-3.25M59.66,21.22l-1,.7c-1.13-.15-.21-1.2.02-1.81.26-.66.53-1.36.46-2.09-.61.16-1.28.48-1.89.14-.06-.1-.08-.22-.06-.34,0-.45,1.39-1.99,1.73-2.58.11-.21.73-1.42.62-1.52-.78.28-1.43.7-2.33.5l-.09-.63c.81-.89,2.23-1.42,2.41-2.74-.11-.12-3.46.95-2.27-.65.19-.25,1.56-1.03,1.36-1.29-.81-.34-1.47-1.19-1.03-2.09-1-.23-2.84-2.2-1.45-2.88l-1.16-2.34-1.04,3,.52-.08.38.29c-.16,1.85-.83,3.53-2.21,4.8l.51.22c.17.83-.43,1.41-.9,2,.41.21.64-.37,1.11-.33.96.09.17,2.12-.08,2.65-.25.52-1.08,1.28-1.16,1.59,0,.09.64.05.65.51,0,.18-.36,1.13-.46,1.37-.09.23-.72,1.21-.59,1.3l.63.16c.38.37-.35,1.75-.63,2.12-.47.64-1.23,1.05-1.82,1.57.59.11.77.38,1.12.83.31-.14.72-.05,1-.14.57-.16.65-1.17,1.88-.52.75.4.84,1.02,1.23,1.63.28.46.76.78.83,1.39l1.14-.28c.4-.15,2.03-2.95,2.24-3.49.13-.33.16-.67.33-.98M59.13,13.01l-.06-.07-.59.26v.13l.39-.06.25-.26h.01ZM58.81,10.33c.09-.04.09-.09,0-.13v.13ZM51.52,14.89c.52-.02,1.49-1.76,1.36-2.34-.39.3-2.53.94-2.46.09.54-.93,1.58-1.49,1.94-2.57l-1.04.08c-.19-.13-.08-.52-.2-.73-.08-.14-.63-.37-.84-.59-.41-.42-.37-1-.78-1.36-.21,1.16-.69,2.38-1.56,3.21l.04.17c.77.57.87,1.21-.18,1.43.49,1.54,2.26,2.25,3.72,2.6M50.87,18.54c.45-.49.86-1.15.97-1.83-.57.26-2.52.58-1.88-.52.12-.22.64-.25.71-.51-.54,0-.76-.41-1.12-.64-.3-.18-.66-.27-.96-.48-.65-.47-2.73-2.69-1.04-2.92l-.82-1.47-.1-.62-.76,1.61c.97,1.36-.26,3.46-1.33,4.46v.18c.21.02.35.12.43.3.25.52-.7,2.48-1.22,2.89-.06.35.38.13.65.26.48.23,0,1.36-.2,1.76-.14.32-.37.58-.58.86l.37.39c.33.95-1.85,3.18-2.46,3.89.44-.05.76-.4,1.02.16-.17,1.73-1.67,2.65-2.99,3.51l.14,2.12c.58-.63,1.1-1.39,2.02-.78.25.17.77,1.05.97.91.36-1.14,1.34-1.39,2.42-1.03l.95-.63c.35-.18.88.26,1.12.21.22-.04.48-.53,1.06-.49l.99.58.78,1.24c-.14-.63.59-1.04.5-1.59-.14-.88-.53-1.7,0-2.62-.6-.6-.88-1.07-.73-1.95.11-.71.75-1.29.35-2.04-.78.26-3.24.07-1.94-1.11.97-.87,2.57-1.18,3.24-2.48.17-.45-1.04-.01-1.21-.09l-.23-.16c-.45-.54.49-.97.86-1.38M51.51,19.06c.09-.04.09-.09,0-.13v.13ZM49.76,22.85h-.26v.12h.26v-.12ZM48.55,33.31c.13-.28.69-.83.69-1.01-.32-.55-.67-1.46-1.45-1.19-.24.17.05.82-.45.86-.5.04-.45-.46-.72-.6-.7-.37-.97.37-.93.97l-.33.11c-.56,0-.79-.93-1.48-.54-.29.13-.71,1-.75,1.33-.08.47.22.8.04,1.22l-.86.18c-.18.11-.39,1.05-.36,1.27.04.32.47.65.37,1.05-.03.16-.49.09-.38.52.15.59,1.47.24,1.54.36l.08.38,4.88-.52c-.04-.24-.44-.21-.64-.34-.76-.47-.87-1.8-.46-2.52.27-.47.74-.49.93-.7.13-.13.15-.6.26-.84M43.64,15.35c.82-1.02,1.92-1.78,1.82-3.33-1.78.51.04-1.43-.14-1.68l-1.29-1.32-.25.09c-.11.64-.7,1.63-1.44,1.28l-1.04-1.37c-.35-.03-.22,0-.26.2-.39,1.73-.83,3.63-2.03,5.01-.57.65-1.01-.05-1.56-.39l-1.11-1.29c-.09.72-1.13,2.97-1.99,2.72-.06-.02-.85-.65-.95-.76-.33-.33-.73-.93-.96-1.36l-.27-.08-.89,1.8c.27.9.17,1.55-.31,2.41-.12.2-.61.77-.62.83-.03.15.24.29.23.48-.02.4-.79,1.17-.87,1.49-.04.2.12.49.12.75.02.88-1.14,1.99-1.7,2.62.43.57.72.98.8,1.72,1.29.2,1.86,1.1,1.94,2.36l1.69.48c.12-.28.76-.58.85-.73.11-.2.06-.6.15-.89.1-.29.61-1.54.76-1.71.61-.66,1.99-.41,2.65.07.27.2.92,1.07,1.11,1.37.5.82.67,1.65.22,2.52.66.76,1.04.37,1.73-.08.53-.36,1.06-.78,1.39-1.35-.5-.17-1.44.2-1.43-.63.52-.64,1.21-1.15,1.75-1.77.23-.26,1.16-1.41,1.23-1.64.09-.28-.11-.17-.26-.14-.46.1-1.65.43-1.57-.37.08-.64,2.66-1.38,2.48-2.55-.45-.04-1.38.2-1.54-.35-.15-.57.6-.73.97-1.08.55-.54,1.08-1.46,1.23-2.23l-1.02.12c-.27-.46.09-.86.38-1.22M41.49,34.32c.24-.4.9-.54.84-.98-.66-.28-.46-1.15-1.13-1.49-.47-.09-1.21,1.28-1.91,1.25-1.12-.04-.32-1.17-.34-1.86-.02-.98-.6-1.62-1.54-1.78-.57-.54.65-1.6.08-2.62-.13-.23-.37-.25-.5-.4-.41-.49-.13-.98-1.16-1.2-1.15-.23-1.47.55-1.81,1.48-.08.46.62.8.31,1.35-1.11.18-.84.54-1.24,1.36-.27.16-.71-.14-1.17-.01-.69.2-1.23,1.12-1.19,1.83.04.64.75.91-.02,1.4-.57.36-1.43.29-1.86,1.01-.23.51.16.55.3.88.11.25.21.89.41,1.01l1.09-.04c.38.09.47,1.24,1.58,1.15.46-.04,1.34-.72,1.38.2-.04.49-1.36.6-1.76.59-.18,0-.35-.11-.53-.12-.63,0-1.33,1.97-1.07,2.57.4.29.72.32,1.21.28,2.19-.12,5.01-1.07,7.32-1.41.91-.13,1.86-.22,2.78-.27-.1-.43-.5-.77-.52-1.25,0-.23.12-.42.13-.64.02-.77-.09-1.57.34-2.27M31.25,28.65c.04-.29-.04-.15-.2-.2-.3-.1-.66-.13-.96-.28-.02-.51-.09-1.42-.4-1.85-.29-.38-1.27-.24-1.51-.47-.36-.71.05-1.51-.91-1.84l-.64.22-.31-.11c-.23-.25-.15-1.84-.72-1.78-.89.3-.63.92-.77,1.59-.2.96-.75.11-1.19.24-.36.11-1.2,1.39-1.36,1.77-.36.86-.32,1.4.34,2.08.17.66-1.31.85-1.4,2.08-.07.78.65.89.65,1.41,0,.42-.66.82-.86,1.37-.46,1.31.12,1.84,1.34,2.2l.16-.03c.26-.51.61-.73,1.16-.46.11.47-.34.78-.38,1.24-.03.46.17,1.01.64,1.16.74.24,1.25.2,1.84-.28.07-1.36-.1-2.82-.01-4.16.03-.45.07-1.39.65-1.23.25.16.1,3.73.14,4.36.02.38.11.73.13,1.17,0,.16-.04.26.18.2.36-.11,1.24-.74,1.4-1.08.52-1.1-.15-1.01-.36-1.65-.38-1.16,1.01-2.2,2.01-2.36-.36-1.37.16-2.57,1.32-3.32M30.61,36.86l-.23-.3c-.58.03-.99-.12-1.47-.41-.3.85-1.38,1.32-2.22,1.44v3.25l2.99-.39c-.02-.33-.25-.49-.27-.85-.06-1.08.56-1.95,1.2-2.73M25.91,40.76v-3.06c-.92.17-1.74.52-2.65-.02-.46-.27-.55-.87-1.03-.88l-.73.6c.32,1.4-.34.93-1.23,1.11-.53.11-1.56.98-1.4,1.61.02.27.59.38.85.58.23.17.53.63.72.72.53.24,1.86-.26,2.54-.05l.14-.4c.74-.09,1.76.13,2.47,0,.14-.02.24-.07.33-.2M22.38,36.01l-1.65-.83c-1.11-1.12-.75-2.61.22-3.69-.72-.95-.85-1.51-.23-2.57.24-.41.52-.57.76-.93l-.27-1.63c-.31,0-.56.24-.86.26-.33.02-.6-.17-.89-.13-.63.08-.8.71-2.09.65-.32-.01-.63-.3-.84.08.44,2.58.19,5.21.24,7.82.01.3.13.59.14.89.02.61-.15,3.67.22,3.86l.83.13c.03-1.27,1.49-2.36,2.72-2.37.08-.89.88-1.42,1.71-1.54M16.24,41.21l-.3-13.67-1.25.47.14,13.21c.56-.27.87.35,1.41,0M14.04,39.14v-11.34c-.38.09-.76-.47-.88-.51-.15-.07-1.4-.45-1.46-.4-.26.52.17.86.24,1.38.1.67.09,1.6-.26,2.19-.12.18-.36.33-.43.48-.16.34-.14.92-.36,1.34-.32.58-1.08,1-1.73,1-1.37,0-1.5-1-1.98,1.02-.22.91-.37,1.98-.37,2.89l1.83-1.17c.52.48-.16,1.11-.07,1.7l3.64-.39-.2,1.17,2.02.65h.01ZM5.98,35.69c.12-.88.23-1.83.61-2.64-.45-.65-.97-1.29-1.02-2.12-.21.08-.39.28-.49.49-.52,1.17-.51,3.23-.95,4.52-.31.96-.61-.1-.68-.17-.07-.05-.26.02-.36-.1-.24-.3-.85-1.67-1-2.11-.15-.38-.31-.78-.29-1.21l-.78.13c-.16.12.61,1.45.72,1.7,1.11,2.85.96,5.18.98,8.15.02,2.66-.03,5.34,0,8.02.22,0,.16-.34.38-.46.16-.09.39-.11.53,0l.51,1.77s.86-.4.93-.46c.36-.35.02-1.85-.01-2.35-.21-4.02.35-9.11.94-13.15M3.56,35.09l.71-3.39-1.34-.37-.73.73c.3,1.08.66,2.14,1.36,3.03"/>
        <path class="cls-8" d="M92.24,34.05c-.97.05-2.05.36-2.9.81-.3.15-.49.54-.92.51-.25-.22-.18-.5-.14-.78.03-.18.18-.32-.13-.27l-1.31,1.04c-.14.26-.08,1.02-.05,1.35.02.27.09.56.18.86,1.72-.62,3.49-1.08,5.28-1.37v-2.15h-.01Z"/>
        <path class="cls-1" d="M87.5,40.15c1.56-.27,3.15-.47,4.74-.68v-3.28c-1.79.29-3.56.75-5.28,1.37.23.82.6,1.71.59,2.29,0,.08-.02.19-.05.29"/>
        <path class="cls-21" d="M47.65,41.28c2.96-.99,5.93-1.98,8.89-2.96l-.21-.35-.39-.14c-2.21.22-4.32.82-6.39,1.57l-.2-.32c.29-.21.58-.39.88-.57.28-.15.3-.18-.02-.15-3.76.28-8.1.78-11.84,1.32-2.37.34-4.7.98-7.07,1.27-1.32.16-2.65.23-3.96.27l1.62.27c1.75-.05,3.51-.08,5.26-.1,4.4-.93,8.7-1.61,13.42-2.28v2.17h0Z"/>
        <path class="cls-8" d="M47.65,41.28v-2.17c-4.72.67-9.02,1.35-13.42,2.28,6.53-.07,13.07.08,19.56.65.69-.44,1.36-.94,2-1.48-.05-.02-.06-.08-.03-.2.08-.44.92-.95,1.31-1.17l-.51-.88c-2.97.99-5.93,1.98-8.89,2.96"/>
        <path class="cls-8" d="M86.77,46.96c2.04-.79,3.21-2.9,5.47-2.87v-4.61c-1.59.2-3.18.41-4.74.68-.05.18-.15.35-.29.4-.16.05-.78-.04-1.34-.09-3.45.71-6.79,1.83-9.94,4.09,2.41-2.41,5.24-4.39,8.32-5.85l-.21-2.82c-.62-.27-1.21.5-1.6.49-.98-.03-1.37-.84-1.88-.99-.35-.1-.84.02-1.21-.02l.26,2.48.82-.11.54.62c.56-.43.99-.92,1.76-.77.07.59-.64.76-1.04,1.1-.33.29-.58.63-.85.98-.62.03-.38-1.16-.51-1.16-.71.28-1.1.8-1.96.64-.2-.03-.34-.25-.5-.23-.61.04-1.81,1.5-2.16.05l-.27-.08c0,.43-.25.99-.77.9-.21-.21.5-2.39.77-2.55.72-.38.64,1.16.91,1.51l.26-.2v-2.68c-.36.26-1.68.48-1.93.68-.16.13-.35,1.07-.63,1.12-.63.13-.88-.93-1.28-1.28l-.25.53h.15-.15l-.29.62c-.82.07-1.64-.02-2.46,0-.66.03-1.23.47-1.09-.25-2.85.61-5.39,2.06-6.89,5.06v-3.26c-2.19.73-4.86,1.94-7.37,2.99,3.43.32,6.86.75,10.26,1.35.88,0,2.75-1.61,3.71-2.03.91-.4,1.79-.53,2.74-.72.17-.03.91-.36,1.04-.26.11.36-.45.41-.65.39l-4.7,2.87c-.23.18,1.46.52,1.69.52l-.38-.26c1.06.02,1.89-.84,2.78-1.33.33-.18,1.28-.72,1.59-.76.2-.03.23,0,.2.2l-1.7,1.83c1.26.33,2.24-.99,3.25-1.57.82-.47,1.82-.85,2.74-.59.04.18-.02.22-.12.33-.17.2-.95.84-1.2,1.03-.74.59-1.75,1.23-2.59,1.64-.04.16.24.21.35.23,1.84.29,2.07-.15,3.66-.72,1.22-.43,1.6-.58,2.76-1.14.78-.39,1.72-.89,2.6-.85-.86,1.23-2.88.97-3.52,2.53l-1.55,1.12c2.02.59,3.82-.91,5.73-1.3.37.37-1.75,1.75-1.95,2.08,1.76.43,3.12-1.16,4.82-1.42.15.13-.48.67-.59.77-.66.6-1.48,1-2.15,1.57,1.13.17,2.15.97,3.33.92,1.45-.05,2.95-1.41,4.49-1.17.05.22-.09.25-.2.38-.62.76-1.59,1.03-2.4,1.5,0,.11,1.3.6,1.49.6.64,0,1.59-.66,2.28-.66v-4.43c-1.35.04-2.09.96-3.21,1.54-.83.42-1.45.52-2.26.8-.02,0-.04.2-.26.12v-.18c-.01-.14.18-.04.26-.07M86.12,43.04c.55-2.04,3.23-2.71,5.08-3,0,.17.07.27-.08.4-.59.53-2.24,1.1-3,1.53-.36.2-1.71,1.34-2,1.07"/>
        <path class="cls-21" d="M66.57,37.44l.25-1.44-1.88,1.17-.26-1.44c-.79.75-.49,2.14-1.83.91,0,.28.22.77-.07.98-.1.08-1.66.45-2.02.58-.5.18-1.1.41-1.59.63-.8.38-2.53,1.62-3.23,1.73h-.16c-.64.54-1.3,1.03-2,1.48.21.02.42.03.63.05,2.51-1.05,5.18-2.27,7.37-2.99v3.26c1.5-3,4.03-4.45,6.89-5.06.02-.11.06-.23.11-.39l-2.21.52h0Z"/>
        <path class="cls-1" d="M85.86,40.46c-.28-.03-.55-.04-.73-.02-.46.05-1.16.54-1.43,0-.17-.34.33-1.11.57-1.38l-.03-.36c-3.07,1.46-5.91,3.44-8.32,5.85,3.15-2.25,6.49-3.38,9.94-4.09"/>
        <path class="cls-18" d="M92.24,44.09v.65c-1.35.04-2.09.96-3.21,1.54-.83.42-1.45.52-2.26.8v-.13c2.04-.79,3.21-2.9,5.47-2.87"/>
        <path class="cls-16" d="M92.24,21.67v11.59c-1.08.08-2.18.41-3.12.91l-.02-1.02c-.98-.17-1.5.96-2.33,1.28l-.19-7.82,2.61-3.51,3.06-1.44h0Z"/>
        <path class="cls-15" d="M92.24,19.72v1.04c-.63.31-1.2.77-1.82,1.11-.18.1-.59.39-.79.26.16-.83.25-1.49.81-2.13,0,0,1.8-.28,1.8-.28Z"/>
        <path class="cls-17" d="M92.24-.23v19.03l-1.25.39c-.33-.01-.22-.59-.75-.38-.31.12-.14.47-.24.62-.41.2-.82.4-1.28.23-1.02-.45-.59-1.24-.4-2.07-.16-.43-.8-.36-.89-.82-.18-.92,1.15-1.8-.35-2.38-.63.21-1.21.4-1.8-.02l.43-1.24-.32-.71c-1.2-.24-.51,1.08-1.36,1.35-.55.17-.84-.12-1.2-.03-.33.08-.68.57-.98.74-.49.14-.79-.3-1.28.15-.22.2-.18.51-.64.5-.59-.01-1.2-.5-1.24-1.1-.07-.83,1.37-.83.78-1.88-.88.39-1.74.58-2.62.08-.4-.49.26-1.97-.34-2.15l-.7.12c-.6-.97.82-1.51.42-2.32-.35-.72-1.94-.41-2.1-.89-.04-.26-.07-.57.1-.77.37-.46,3.01-.08,3.34-.71.21-.32-.09-.65-.04-.96.15-.96.07-.63.02-1.47-.02-.23.16-.49.07-.74l-1.78-1.57.46-.74c.24-.07.45.29.88.25.29-.02.85-.23.99-.51,4.69,0,9.39,0,14.07,0M88.47,11.11c-1.82.47-2.25-.6-1.83-2.22-.52,0-.68.48-1,.76-.61.08-1.25.08-1.75-.32l.4-1.09c-.85-.05-1.84-.09-1.69-1.23.03-.32.5-1.07.77-1.19.24-.11,1,.01.91-.39-.1-.48-1.01-.32-1.16-.39-1.09-.5-.42-3.19,1.03-2.67-.08-1.33-1.29-.76-1.89,0-.83,1.07-.76,2.16.07,3.19-.6,1.25-1.09,2.06.2,3.08.16.12.55.25.58.27.06.09.01.48.11.73.35.83,1.73,1.03,2.5.96.12,1.39,2.46,2.19,2.75.51"/>
        <path class="cls-3" d="M92.11,54.13c.13.46-.82.26-1.04.2-.57-.15-3.43-1.6-4.04-1.96-.14-.09-.36-.13-.39-.33.32,0,.61-.02.91.05,1.02.28,3.02,1.43,4.08,1.93.15.08.32.11.48.11"/>
        <path class="cls-18" d="M91.2,40.04c0,.17.06.27-.08.4-.59.53-2.24,1.1-3,1.53-.36.2-1.71,1.34-2,1.07.56-2.04,3.23-2.71,5.08-3"/>
        <path class="cls-15" d="M88.98,20.76c-.08,1.91-1.38,3.47-2.6,4.82l-.52-10.17h1.04c-.3.59-.55,1.21-.18,1.82.13.23.51.42.55.63.07.24-.2.61-.23.89-.15,1.14.9,1.91,1.94,2.01"/>
        <path class="cls-18" d="M86.64,8.89c-.42,1.62.01,2.69,1.83,2.22-.29,1.67-2.63.88-2.75-.51-.77.08-2.15-.13-2.5-.96-.1-.25-.05-.64-.11-.73-.02-.02-.41-.15-.58-.27-1.28-1.02-.79-1.83-.2-3.08-.83-1.02-.89-2.12-.07-3.19.6-.76,1.82-1.33,1.89,0-1.46-.51-2.12,2.18-1.03,2.68.15.08,1.07-.09,1.16.39.09.4-.67.28-.91.39-.27.12-.74.87-.77,1.18-.15,1.14.84,1.17,1.69,1.23l-.4,1.09c.5.39,1.14.39,1.75.32.32-.28.48-.76,1-.76"/>
        <path class="cls-13" d="M86.77,46.96v.13s-.04.2-.26.12v-.18c-.01-.14.18-.04.26-.07"/>
        <path class="cls-24" d="M86.38,79.6v8.21l-.54,5.59-.3.22-3.32.13c.7-3.33.9-6.73,1.29-10.1l.13-4.44,2.52.09s.22.3.22.3Z"/>
        <path class="cls-22" d="M85.33,17.57c-.05-1.08.45-2.52-.91-2.81l.39,3.58c.03,2.37.06,4.74.08,7.11.35.14.67.33.99.54-.17-2.81-.42-5.63-.55-8.42"/>
        <path class="cls-19" d="M85.97,31.94c.04-1.33.08-2.67.02-3.96-.03-.66-.07-1.33-.11-1.99-.32-.21-.64-.39-.99-.54.03,2.46.07,4.92.11,7.37.34-.29.66-.58.97-.88"/>
        <path class="cls-22" d="M85.97,31.94c-.31.3-.63.6-.97.88.02,1.39.04,2.78.07,4.16.02.89.05,1.79-.13,2.66h1.44c.05-.9-.34-1.76-.39-2.66-.12-1.63-.06-3.34-.01-5.04"/>
        <path class="cls-24" d="M84.89,71.84c.04.22.09.42.05.65h-2.28l-1.17-3.77-2.66-5.47,2.22-.08c.3.16,2.02,3.66,2.27,4.24.51,1.2,1.32,3.2,1.58,4.43"/>
        <path class="cls-15" d="M84.02,15.63c.17,1.74.37,4.26.28,5.98-.02.43-.15.82-.14,1.24-.12.13-.55-.36-.65-.46-.65-.72-.93-1.58-1.18-2.49-.01-.47.52-.59.63-1.05.09-.42-.04-.88.03-1.28.05-.3.42-.49.58-.85.23-.51.21-1.14.2-1.69.2-.02.24.47.25.6"/>
        <path class="cls-16" d="M84.09,23.88l-.07,11.08c-.68-.09-1.18.2-1.73.5-1.02-.55-1.73-.95-2.96-.76-.04-1.58.05-3.17,0-4.76-.07-2.01-.34-4.09-.4-6.11-.02-1.08.13-2.12.14-3.2,1.13.49,1.59-.65,2.61-.52.05,1.55,1.08,3.01,2.4,3.77"/>
        <path class="cls-3" d="M83.38,50.34c.33.39-.76.25-.91.21l-3.64-1.38c1.59-.1,3.04.83,4.56,1.17"/>
        <path class="cls-8" d="M82.96,15.78c.06.63-.83,1.13-.99,1.69-.21.66.27,1.77-.87,1.99-.47-.95-.72.01-1.11.2-.91.42-1.37-.94-1.89-.98-.61.08-1.02.66-1.7.66-.75-.01-.71-.73-1.17-.79-1.21.32-2.33.49-3.58.39-.12-.11.5-.63.2-1.04-.35-.5-1.27.26-1.74-.14-.05-.43.12-.91-.37-1.14-.58.12-.95.75-1.54.77-.31.01-1.58-.24-1.6-.59.29-1.07,1.41-.22,1.87-.59.35-.27.08-.55.1-.84.07-.95,1.27-1.35,1.27-1.71-.22-.82-2.44-.96-2.69-1.37-.33-.89,1.25-1.36-.16-1.98l.03-.5,1.25-.58c.35-.17.14-.88.47-.98.64-.19,1.69,1.28,2.77.58.73-.48-.04-.95-.11-1.2-.04-.18.13-.47.12-.74-.02-.33-.27-.62-.27-1.05,0-.79.55-1.47.39-2.35-.08-.43-.71-.85-.72-1.17-.04-.89,2.32-1.46.99-2.53,1.09,0,2.18-.01,3.25,0-.74,1.6.17,2.03,1.41,2.75.08.79.21,1.46.03,2.24-1.07.58-3.04-.21-3.37,1.35-.35,1.7.54,2.12,2.06,2.12.03.28-.23.4-.33.65-.29.82-.16,1.92.84,2.11-.23,1.66.57,2.53,2.23,2.46-.38.62.2,1.7.72,2.09,1.33.99,2.51-.25,3.9-.38.15.03.29.46.31.61"/>
        <path class="cls-22" d="M77.66,32.94c.02,1.72,0,3.44-.14,5.16l1.24.13-.28-3.22c.17-1.6.18-3.2.15-4.8-.34.09-.71.15-1.09.17.06.86.11,1.71.12,2.56"/>
        <path class="cls-19" d="M77.25,25.5v.54c.06,1.43.18,2.89.28,4.34.38-.03.74-.08,1.09-.17-.03-1.35-.1-2.69-.15-4.04-.41-.23-.83-.44-1.21-.67"/>
        <path class="cls-22" d="M78.42,21.6c.02-.36.28-1.05.11-1.34-.02-.04-.49-.27-.58-.39l-.57.19c.02,1.81-.17,3.62-.14,5.44.38.22.8.44,1.21.66-.06-1.52-.1-3.04-.05-4.57"/>
        <path class="cls-3" d="M77.19,58.68c.11.13.25.17.2.39l-1.82-.07c-1.29-1.6-2.97-2.81-4.44-4.23.52.04,1.12-.08,1.62,0,.98.15,3.72,3.05,4.44,3.9"/>
        <path class="cls-15" d="M76.86,20.24l-.2,2.35c-.68-.66-1.21-1.5-1.24-2.48,0,0,1.44.13,1.44.13Z"/>
        <path class="cls-16" d="M76.6,30.33c-.01,1.64.21,3.24.12,4.88l-2,.66c-.03-.61.17-1.02-.04-1.66-.18-.53-.68-.73-.87-1.08-.35-.67-.11-1.08-.91-1.7-.27-.21-.71-.11-.59-.64,1.08.04,2.01-.45,2.84-1.07v-.36c-.88-.38-2.08-.77-2.19-1.9.91-.03,2.15-.29,2.22-1.41-1.14-.71-2.91-1.14-3.13-2.69.57-.1,2.03.34,1.83-.58-1.25-.63-2.07-1.44-1.96-2.95l2.73-.26c.2.83.3,1.71.76,2.44.35.54.94.85,1.2,1.41.02,1.7-.02,3.39,0,5.08v1.82h-.01Z"/>
        <path class="cls-3" d="M76.47,48.13c.14.16.01.25-.2.26-.53,0-2.5-.51-3.06-.73-.16-.05-.36-.13-.39-.32l3.64.78h0Z"/>
        <path class="cls-7" d="M61.79,18.44c-1.04-6.26,2.9-11.52,2.27-18.66h-1.14c.13.55-.59,1.9-.35,2.31.01.04.2.02.22.12,0,1.17-.45,2.48-1.07,3.48-.16.27-.66.66-.74.96-.04.22.13.49.12.75-.02.87-1.44,2.1-2.09,2.61-.06.29.09.21.28.16,1.29-.24,1.32-.03.87,1.13-.19.49-.49.97-.89,1.32-.22.41.83-.08.91.12.48,1.76-.99,3.31-1.83,4.7.41.01,1-.71,1.37-.33.44.46.12,2.13-.08,2.74l.79.05c.35.23,0,1.48-.11,1.87-.39,1.44-1.31,2.77-2.11,4,.46-.05.95-.15,1.39.03.04.02.09.06.13.09,2.07-2.17,3.1-5.33,2.03-7.45"/>
        <path class="cls-15" d="M71.23,23.85c-.29-.95-.02-1.27.95-1.33-.34-.34-.7-.8-.83-1.26-.12-.47,0-1.3-.15-1.54-.08-.13-.35-.17-.47-.32s-.11-.38-.25-.53c-.28-.28-1.12-.33-1.19-.97-.41.03-.65.36-1.1.39-1.03.07-2.81-.55-2.51-1.87.37-.86,1.14-1.25,2.04-1.28-.01-.54.33-.96.66-1.35,0-.14-1.67-.37-2.07-1.05-.46-.8.14-1.5.09-1.79-.02-.12-.22-.32-.27-.5-.33-1.03.5-1.7,1.41-1.92.01-.71.32-.88.84-1.24-.78-.87-2.06-1.21-.78-2.41-1.24-.33-2.23-1.55-2.46-2.78.1-.4,1.06-.49,1.41-.61-.1-.66-.96-.96-.9-1.68h-1.6c.64,7.14-3.31,12.4-2.27,18.66,1.06,2.12.04,5.28-2.03,7.45.46.28.98,1.02,1.1,1.49l.5.02c0-.29-.14-.52-.12-.83.02-.45.67-2.07.93-2.48.65-1.04,1.77-1.13,2.78-.51.86-.89,2.04-.84,2.53.37.54.09,1.04.05,1.36.59.26.42.22.97.37,1.34.07.17.42.28.58.72.17.45.1.88.2,1.24.09.25.51.42.6.83.14.6-.05,1.15-.1,1.74l.91.26.2-.78h1.96l.2-.26c-.87-.18-1.93-1.7-1.81-2.51.12-.83,1.28-.4,1.85-.4.1,0,.63-.03.6-.22-1.28-.45-2.72-1.26-3.15-2.64"/>
        <path class="cls-8" d="M68.37,26.34c-.15-.42-.16-.92-.38-1.41l-1.18.21c-.23-.16-.11-1.22-.71-1.25-.53.02-.45.92-.81,1.03-.88.12-1.03-1.07-1.97-.67-.57.25-.59.71-.58,1.25-.59.39-.83.83-.61,1.57.1.32.62.43.41.97l-.29.24-1.06.12-.45,1.37c-.36.35-.85-.25-1.29.66-.2.4-.29.9-.21,1.35.06.39.62.53.51.9-.12.4-2.17.39-1.76,1.65.2.6.94.26.73,1.08-.9.45-1.79,1.21-1.54,2.34.08.34.45.76.81.75.16,0,.4-.08.67-.18.79-5.28,4.74-10.72,9.69-11.97"/>
        <path class="cls-10" d="M73.87,34.64c-.17-.53-.49-.65-.92-.93-.22-.53.02-1.15-.51-1.54l-1.09-.08c-.3-.1-.24-.84-.96-.87-.26-.01-.76.65-1.02.24-.22-.33.45-1.95.2-2.52-.83-.37-.42-1.1-.54-1.83-.37-.2-.54-.47-.65-.76-4.95,1.25-8.9,6.68-9.69,11.97.61-.22,1.4-.58,1.86-.7.6-.15,1.23-.27,1.85-.29.12-.11-1.7-2.51,1.11-.92.69-1.14,1.81-2.16,1.76,0,.08.1,1.69-1.72,2.21-.84l-.39,1.1c.15.13,3.77-1.34,2.61.26h2.35c-.02-.51.26-1.06.6-1.43.59-.17.58,1.21,1.23,1.16.08-.27-.21-.52-.22-.72-.01-.42.43-.65.22-1.31"/>
        <path class="cls-13" d="M72.17,40.43c.11.36-.45.41-.65.39-.03,0-.24-.2-.39-.13.17-.03.91-.36,1.04-.26"/>
        <path class="cls-15" d="M71-.22l.39.7c-.5.43-1.25,1.02-1.31,1.73-.05.82.73,1.14.78,1.56.01.58-.34,1.12-.39,1.68-.05.51.37,1.88-.18,1.89l-2.43-1.57c.04-.78,1.37-.43.99-1.32-1.25-.36-2.58-.91-2.81-2.34l1.61-.14c1-.32-1.35-1.69-1.35-2.2,1.56,0,3.12,0,4.69,0"/>
        <path class="cls-3" d="M70.48,46.7l-.58.11-1.9-.5c.85-.04,1.66.23,2.48.39"/>
        <path class="cls-8" d="M68.98,36.79c.09.04.09.09,0,.13v-.13Z"/>
        <path class="cls-3" d="M68.65,51.65c.15.17.01.25-.2.26-.4.02-1.02.05-1.4-.03-.4-.08-2.24-1.07-2.7-1.34-.17-.1-.34.02-.26-.33.57.23,1.16.05,1.73.16.89.17,1.91,1.05,2.83,1.27"/>
        <path class="cls-4" d="M62.14-.22l-.73,3.26.46.13c-.02.89-.51,1.82-1.06,2.51-.26.34-1.74,1.57-1.41,1.9l.91-.2-.99,1.1-1.22-1.1c0-.12.81-.28.46-.85-.75-.45-1.88-.82-2.15-1.75-.13-.45.72.04.9-.13l.26-.28c.08-.32-.98-1.29-1.24-1.73-.49-.86-.79-1.91-.97-2.87,2.25,0,4.52,0,6.78,0"/>
        <path class="cls-8" d="M56.2,26.9c-.21.18-.4.36-.59.32-.54-.13-.41-1.1-.72-1.5-.11-.15-.35-.21-.51-.4-.28-.35-.75-1.98-1.5-1.5-.22.14-.13.6-.51.66-.35.07-.68-.21-1.09.05-.41.51-.81,1.08-.88,1.76-.05.67.95,1.06,1.02,1.6.05.28-.18.59-.23.89-.13.99.25,1.34.52,2.2l-.79.79c0,.37,1.04.48.51,1.22-.7.05-1.32-.16-1.81.47-.66.85.32,1.37-.18,1.77-.49.38-1.16-.43-1.36.48-.1.48.58,1.77,1.09,1.86s1.07-.22,1.69-.13c.4.07.78.49,1.02.49.03,0,.07,0,.1,0,3.23-3.03,5.18-6.97,4.23-11.02"/>
        <path class="cls-10" d="M58.58,26.64c-.29.08-.48.4-.81.38-.4,0-.6-.43-1.03-.4-.2.01-.38.15-.54.28.96,4.05-1,7.99-4.22,11.02.57-.04,1.61-.42,2.27-.48.66-.05,1.36.04,2.01,0,.04-.99.45-1.76,1.31-2.27-.89-1.02-.47-2.52.9-2.82-.05-1.28.08-3.18,1.71-3.25.16-.95-.4-2.72-1.6-2.45"/>
        <path class="cls-3" d="M59.75,47.71c.18.1.35.16.29.41l-1.44-.05-2.73-1.24c.43.03.73-.16,1.17-.09.28.05,2.46.84,2.7.97"/>
        <path class="cls-16" d="M58.66,21.91l1-.7c-.16.3-.2.65-.33.98-.21.54-1.84,3.34-2.24,3.49l-1.14.28c-.07-.61-.54-.94-.83-1.39-.39-.61-.48-1.23-1.23-1.63-1.23-.65-1.32.36-1.88.52-.28.09-.7,0-1,.14-.35-.45-.53-.72-1.12-.83.59-.52,1.35-.92,1.82-1.57.28-.37,1.01-1.75.63-2.12l-.63-.16c-.13-.1.5-1.08.59-1.3.1-.24.46-1.19.46-1.37,0-.46-.65-.42-.65-.51.09-.3.91-1.07,1.16-1.59.25-.53,1.03-2.57.08-2.65-.47-.04-.7.53-1.11.33.47-.59,1.08-1.17.9-2l-.51-.22c1.38-1.26,2.04-2.95,2.21-4.8l-.38-.29-.52.08,1.04-3,1.16,2.34c-1.39.68.45,2.65,1.45,2.88-.43.9.23,1.75,1.03,2.09.19.26-1.17,1.05-1.36,1.3-1.18,1.6,2.16.53,2.27.65-.18,1.32-1.61,1.85-2.41,2.74l.09.63c.89.2,1.54-.22,2.33-.5.11.1-.51,1.32-.62,1.52-.34.59-1.73,2.13-1.73,2.58,0,.12,0,.24.07.34.61.34,1.28.02,1.89-.14.08.73-.2,1.42-.46,2.09-.23.61-1.15,1.65-.02,1.8"/>
        <polygon class="cls-13" points="59.08 12.94 59.13 13.01 58.88 13.27 58.49 13.33 58.49 13.2 59.08 12.94"/>
        <path class="cls-13" d="M58.81,10.2c.09.04.09.09,0,.13v-.13Z"/>
        <path class="cls-4" d="M54.58-.22c.17.85-.23,1.85-.52,2.67-.17.5-.43,1.22-.66,1.67-.27.54-.82.93-.77,1.52l1.3-.26c-.14.73-.3,1.46-.67,2.12-.15.28-.92,1.36-1.15,1.47-.1.06-.15.08-.25,0-.38-.35-.86-.37-1.16-.8-.58-.85-.36-3.2-.73-3.57-.21-.22-.58-.22-.7.09-.38,1.88-.69,3.66-1.59,5.38-.13-.02-.26-.16-.32-.27-.39-.74-.23-2.68-.33-3.58-.08-.6-.38-.62-.58-.03-.35,1.08-.21,2.4-.74,3.49-.81-.35-1.26-1.24-1.46-2.06-1.07-.52-.99,1.57-1.79,1.93-.75-1.09-1.08-2.19-1.11-3.52l-.39-.13c-.62.06-.41,1.78-.48,2.27-.24,1.82-.85,3.98-2,5.43-.83-.55-1.19-1.17-1.61-2.04-.14-.27-.23-.95-.59-.94-.67.16-.4.92-.5,1.45-.06.29-.23.68-.34.97-.11.26-.72,1.53-1,1.47-.79-.67-1.49-1.61-1.81-2.62-.14-.47-.12-1.99-.8-1.81-.32.09-.17,1.47-.23,1.86-.19,1.34-1,2.48-1.9,3.44.03.61.42.51.89.32.26,1.37-1.96,1.74-1.44,2.94l.65.12c-.08.54-1.94,1.78-1.31,2.22.27.18.71-.3.65.13-.5.52-1.47,1.67-2.15,1.88-.26.09-.15-.08-.19-.18-.21-.64-.32-1.23-1.11-1.25-1.21-.04-1.59.92-1.79,1.94-.65.05-.93.43-1.4.8v-1.88c0-.12-.47-.57-.48-.78.53-.3.53-1.73.63-1.87.02-.04.4-.13.57-.28.81-.72.74-2.9.07-3.72-.2-.23-.48-.32-.65-.51-.15-.17-.19-.42-.34-.59-.35-.41-.67-.67-1.17-.91.16-1.45.32-2.56-1.22-3.2l1.07-1.6c.95-.12,1.71-.55,2.27-1.32.12-.16.14-.41.24-.53.13-.15.53-.22.78-.39.56-.39,1.17-1.34,1.24-2.02.03-.38-.11-.85-.07-1.12.06-.34.38-.8.45-1.24.14-1.08-.19-1.76-.9-2.52,9.85-.01,19.72-.01,29.58,0"/>
        <path class="cls-3" d="M54.19,45.92c-.66.2-1.52-.15-2.19-.36-.23-.08-.35.05-.29-.29.66.09,1.41.18,2.04.37.17.05.39.04.44.28"/>
        <path class="cls-15" d="M52.88,12.55c.13.58-.84,2.32-1.36,2.34-1.46-.35-3.23-1.05-3.72-2.6,1.06-.23.96-.87.18-1.44l-.04-.17c.87-.83,1.35-2.04,1.56-3.21.41.36.37.93.78,1.36.21.22.76.45.84.59.12.21,0,.6.2.73l1.04-.08c-.36,1.08-1.39,1.63-1.94,2.57-.08.85,2.07.22,2.46-.09"/>
        <path class="cls-7" d="M45.47,21.71c0,.73-.36,1.09-1.09,1.09,2.01-4.01,2.16-8.95,2.17-13.1l-.69,1.47c.97,1.36-.26,3.46-1.33,4.46v.18c.21.02.35.12.44.3.25.52-.7,2.48-1.22,2.89-.07.35.38.13.65.26.48.23,0,1.36-.2,1.76-.14.32-.37.58-.58.86l.37.39c.33.95-1.85,3.18-2.46,3.89.43-.05.76-.4,1.02.16-.17,1.73-1.67,2.65-2.99,3.51l.14,2.12c.58-.63,1.1-1.39,2.02-.78.25.17.76,1.04.96.91,1.34-3.6,3.72-6.58,2.77-10.39"/>
        <path class="cls-15" d="M50.24,20.09l-.23-.16c-.45-.54.49-.97.86-1.38.45-.49.86-1.15.97-1.83-.57.26-2.52.58-1.88-.52.12-.22.64-.25.71-.51-.54,0-.76-.41-1.12-.64-.31-.18-.66-.27-.96-.48-.65-.47-2.73-2.69-1.04-2.93l-.82-1.47-.1-.62-.07.14c0,4.16-.17,9.09-2.17,13.1.73,0,1.09-.36,1.09-1.09.95,3.81-1.43,6.79-2.77,10.39h0c.36-1.14,1.34-1.39,2.41-1.03l.95-.63c.35-.18.88.26,1.12.21.22-.04.48-.53,1.06-.49l.99.58.78,1.24c-.14-.63.59-1.04.5-1.59-.14-.88-.53-1.7,0-2.62-.6-.6-.88-1.07-.73-1.95.11-.71.75-1.29.35-2.04-.78.26-3.24.07-1.94-1.11.97-.87,2.57-1.19,3.24-2.48.17-.45-1.04-.01-1.21-.09"/>
        <path class="cls-13" d="M51.51,18.93c.09.04.09.09,0,.13v-.13Z"/>
        <rect class="cls-13" x="49.5" y="22.85" width=".26" height=".12"/>
        <path class="cls-3" d="M48.72,44.61v.39l-1.31-.26c0-.24-.07-.28.2-.26.35.02.72.21,1.11.13"/>
        <path class="cls-10" d="M48.29,34.15c.13-.13.15-.6.26-.84.13-.28.69-.83.69-1.01-.32-.55-.67-1.46-1.45-1.18-.24.17.05.82-.45.86s-.45-.46-.72-.6c-.49-.26-.77.04-.88.44-.08,2.21-1.03,4.15-2.49,6,.13,0,.22,0,.24.02l.08.38,4.88-.52c-.04-.24-.43-.21-.64-.34-.76-.47-.87-1.81-.46-2.52.27-.47.74-.49.94-.7"/>
        <path class="cls-8" d="M45.69,32.34l-.33.11c-.56,0-.79-.94-1.48-.54-.29.13-.71,1-.75,1.33-.08.47.22.8.04,1.22l-.86.18c-.18.11-.39,1.05-.36,1.27.04.32.47.65.37,1.05-.03.16-.49.09-.38.52.12.45.9.35,1.31.33,1.46-1.86,2.41-3.79,2.49-6-.04.17-.06.35-.05.52"/>
        <path class="cls-15" d="M45.45,12.03c.11,1.54-1,2.31-1.82,3.33-.29.36-.65.76-.38,1.22l1.02-.12c-.15.77-.67,1.69-1.23,2.23-.37.35-1.12.51-.97,1.08.16.54,1.1.3,1.54.35.18,1.16-2.4,1.9-2.48,2.54-.09.8,1.11.47,1.57.37.15-.03.35-.14.26.14-.07.23-1,1.38-1.23,1.64-.54.62-1.23,1.13-1.75,1.77,0,.83.93.46,1.43.63-.34.57-.86.99-1.39,1.35-.69.45-1.07.84-1.73.08.46-.87.28-1.71-.22-2.52-.19-.3-.84-1.17-1.11-1.37-.66-.48-2.04-.73-2.65-.07-.15.16-.66,1.41-.76,1.71s-.04.7-.15.89c-.09.15-.73.45-.85.73l-1.69-.48c-.08-1.26-.64-2.16-1.93-2.36-.09-.74-.37-1.15-.81-1.72.55-.63,1.72-1.74,1.7-2.62,0-.26-.16-.55-.12-.75.08-.32.85-1.09.87-1.49,0-.18-.26-.33-.23-.48,0-.05.5-.63.62-.83.48-.86.58-1.51.31-2.41l.89-1.8.27.08c.23.42.63,1.03.96,1.36.1.11.89.74.95.76.86.25,1.9-2,1.99-2.72l1.11,1.29c.54.34.99,1.04,1.56.39,1.21-1.38,1.64-3.28,2.03-5.01.04-.2-.09-.23.26-.2l1.04,1.37c.74.35,1.33-.64,1.43-1.28l.25-.09,1.29,1.32c.19.25-1.64,2.2.14,1.69"/>
        <path class="cls-9" d="M42.67,53.49c.62-.16.47,1.06.42,1.47-.04.48-.53,2.4-.89,2.62-.19.12-.48.09-.71.04l-.19-.28c.5-1.11,1-2.27,1.06-3.51.04-.13.18-.3.32-.34"/>
        <path class="cls-9" d="M41.94,50.47c.33.11.89,1.58.77,1.7h-.38l-.39-1.7Z"/>
        <path class="cls-12" d="M37.58,27.1c-.03-.09-.05-.18-.1-.26-.13-.23-.37-.25-.5-.4-.41-.49-.13-.98-1.16-1.2-1.15-.23-1.47.55-1.81,1.48-.08.46.62.8.31,1.35-1.11.18-.84.54-1.24,1.36-.27.16-.71-.14-1.18-.01-.68.2-1.23,1.12-1.18,1.83.04.64.75.91-.02,1.4-.57.36-1.44.29-1.86,1.01-.23.51.16.55.31.88.11.25.21.89.41,1.01l1.09-.04c.34.08.45,1,1.26,1.13.79-3.64,2.83-7.12,5.68-9.54"/>
        <path class="cls-5" d="M41.03,37.24c0-.23.12-.42.13-.64.02-.77-.09-1.57.34-2.27.24-.4.9-.54.84-.98-.66-.28-.46-1.15-1.13-1.49-.47-.09-1.21,1.28-1.91,1.25-1.12-.04-.32-1.17-.34-1.86-.02-.98-.6-1.62-1.54-1.78-.52-.5.44-1.42.17-2.36-2.85,2.41-4.89,5.9-5.68,9.54.1.02.2.03.32.02.46-.04,1.34-.72,1.38.2-.04.49-1.36.6-1.76.59-.03,0-.06,0-.09-.02-.15.91-.22,1.83-.21,2.74,2.17-.14,4.95-1.06,7.22-1.4.91-.13,1.86-.22,2.78-.27-.1-.43-.5-.77-.52-1.25"/>
        <path class="cls-5" d="M31.75,37.42c-.15-.03-.29-.09-.45-.1-.63,0-1.33,1.97-1.07,2.57.4.29.72.32,1.21.28h.1c-.02-.91.06-1.83.21-2.74"/>
        <path class="cls-3" d="M41.87,50.21c.08.04.08.09,0,.13v-.13Z"/>
        <path class="cls-9" d="M40.9,59.73c.11.1-.67,1.09-.78,1.23-.39.5-1.7,2-2.14,2.3-.41.26-.83.1-1.25,0l3.06-3.39,1.12-.12h-.01Z"/>
        <path class="cls-1" d="M5.73,47.92c4.76.39,9.37,1.8,13.64,4.24-1.09-3.26-4.35-3.26-6.52-5.44,6.52,0,9.79,4.35,15.23,6.53-.6-.72-1.23-1.4-1.87-2.07l-.42-.25.25.06c-5.45-5.57-12.24-9.07-19.58-11.18l-.75,7.47.03.64h0Z"/>
        <path class="cls-8" d="M1.8,37.7l-3.2.34c1.1.18,2.2.38,3.3.6-.06-.31-.15-.62-.09-.95"/>
        <path class="cls-8" d="M37.26,53.41c-.21.09-.39.17-.46.2-.35.12-.75.15-1.07.25,0,.16-.02.32-.04.48.58-.29,1.09-.6,1.57-.93"/>
        <path class="cls-1" d="M35.75,53.5c.27-.22.55-.51.79-.65.55-.34,1.46-.61,1.92-.95.11-.09.22-.14.21-.31-1.26-3.13-4.11-4.49-7.04-5.73-1.06-.45-2.13-.85-3.21-1.23,4.11,1.61,7.5,4.25,7.33,8.88"/>
        <path class="cls-8" d="M33.99,60.87s.07.04.11.06l.15-.16c-.09.03-.17.07-.26.1"/>
        <path class="cls-8" d="M12.8,51.38l.31.23.08.41c.64.18,1.28.35,1.91.54.24-.03.48-.04.75.02l.04.24c.44.14.87.28,1.3.42-.07-.22.07-.46.46-.53.43-.07.89.64.51.85,5.01,1.73,9.82,3.91,14.38,6.49.73-.29,1.47-.59,2.22-.9,1.59-.64,2.14-.82,2.95-2.4.11-.23.25-.53.25-.78-1.66,1.17-3.61,1.22-5.47,1.82-.47.15-.83.5-1.37.39-.05-.27.13-.3.31-.41,1.34-.91,2.56-1.09,3.96-1.65,1.07-.42,2.07-1.36,3.16-1.77l.26-1.5c-.07-.07-.97.33-1.55.59-.48.32-.99.64-1.57.93.02-.16.03-.32.04-.48-.02,0-.04,0-.05,0-.04,0-.17.17-.35.23-.39.13-.78.32-1.21.29-.08-.38.1-.22.28-.29.32-.15.78-.24,1.01-.36.11-.06.22-.14.34-.24.18-4.63-3.21-7.27-7.33-8.88-1.8-.63-3.64-1.16-5.51-1.52-.23-.03-.43-.08-.66-.05l1.7,1.5c.03.21.01.22-.2.2-.29-.04-1.13-.28-1.43-.39-.91-.31-1.71-1.17-2.52-1.91-.14-.02-.29-.05-.43-.07.14.02.28.05.43.07-.62-.57-1.25-1.07-1.94-1.19-.16-.02-.59-.09-.68,0-.08.9-.98.78-1.61,1.05-.27.11-.38.49-.8.35-.04-.02-.65-.68-.67-.76.02-.52.28-1.37-.18-1.76-.6-.51-2.46-.82-3.25-.99l.39-.9c-.46,0-.92-.03-1.37,0-.42.02-1.75.42-1.86-.22l.16-.83-1.37.99-.16,1.63c7.33,2.12,14.12,5.61,19.58,11.18l2.39.56c1.34.6,2.85,1.15,3.93,2.2.2.18,1.39,1.66,1.25,1.8l-7.4-4.37c.64.66,1.27,1.34,1.87,2.07-5.44-2.17-8.7-6.53-15.23-6.53,2.18,2.17,5.44,2.17,6.53,5.44-4.27-2.44-8.88-3.85-13.64-4.24l.12,2.39c2.21.41,4.39.91,6.54,1.49l.41-.42v-.03ZM26.69,45.65c1.57.05,3.27,1.13,4.36,2.21.13.13.86.91.72,1.04-1.12-.04-1.77-.93-2.62-1.49-.64-.41-1.82-.84-2.27-1.37-.11-.13-.24-.17-.18-.39M32.42,51.65c-1.47,0-2.53-1.48-3.74-1.92-.67-.25-1.48-.16-2.15-.33-1.03-.24-2.15-1.34-3.06-1.89-.15-.09-1.65-.66-1.35-.93.58-.03,1.22.07,1.77.25,1.12.37,2.27,1.45,3.38,1.57.33.04.68-.03,1.02,0,1.04.14,2.91,1.9,3.73,2.67.1.1.52.47.39.59M27.2,54.19c.36.21.77.28,1.1.47.54.33.99.95,1.62,1.18l.02.36-1.26-.1-6.3-3.68c1.84-.27,3.33.9,4.82,1.76"/>
        <path class="cls-10" d="M24.47,63.63l-.08.27-1.36.32c.48-.24.96-.48,1.44-.72,2.74-1.31,5.35-2.37,8.07-3.46-4.56-2.58-9.37-4.76-14.38-6.49-.09.05-.2.08-.39.06-.33-.04-.52-.2-.58-.37-.43-.14-.87-.29-1.3-.42l.05.27-.6.78c.57-.07,1.06.02,1.5.38.15.33.11.6-.26.66-.36.07-1.82-.15-2.03-.46-.32-.42.18-.57.21-.98l-1.64.34-.45-1.38c-.54,1.26-.98,1.06-1.75.13-.22,1.91-1.24.32-.63-.75.64-.42,1.16.54,1.6.5l.51-.52c-2.15-.58-4.33-1.07-6.54-1.48l.11,2.18-.64.07-.15-.64c-1.74.87-1.23.08-1.88-1.17-.42.49-.48,1.3-1.28,1.29-.54-.16-.1-2.06-.09-2.52.02-.54.03-1.1.05-1.67-.18,0-.36,0-.54.02-.27.18-.81.2-1.06.13l-.02-.06c-.91.07-1.83.17-2.74.31v5.5h.13c.87-.18.91.99,1.62,1.04.14,0,1.45-2.47,1.99-1.38l-.41,1.89c.34-.21,2.59-1.51,2.39-.48l-.63,1.08c.56-.08,1.07-.46,1.63-.22.47.21.44.79.05.99-.14.08-1.42.39-1.65.42-.15.02-.31.04-.46.04l2,.96c.06-.09.17-.13.28-.22.61-.48,1.52-.84,2.31-.75.02.2.01.32-.12.47-.2.23-1.99.83-2.41.74l-.74,2.06s.06,0,.08,0c.66.13-.52,1.23-.39,1.54.45-.45,2.76-1.17,2.4.04-.16.55-.96.43-1.33.51-.13.03-.46.22-.82.4l.21.41c.14-.14.31-.26.48-.3.18-.03,1.63.1,1.89.14.21.03.95.27.88.55-.04.17-.41.29-.9.34l.13.89c.7-.08,1.79.07,2.21.14.11.21-.42.52-.46.52l1.89,1.44c.14-.15,1.11.74,1.24.91.28.35.49.76.6,1.19l1.35-.08c-.05-.35-.07-.66.14-.72.82-.23.91,2.01.82,2.51-.04.16-.42.86-.53.97-.05.05-.13.09-.19.12l.67,1.42c6.88-3.25,13.47-6.85,19.42-11.68l.71-.74s-.07-.04-.11-.06c-3.09,1.15-6.2,2.45-9.52,2.76M8.93,59.05c-.18-.03-.37-.16-.49-.3-.09-.39,1.98-1.61,2.47-1.1.37.53-1.52,1.49-1.98,1.4M24.34,61.69c-.8-.2-1.42-.38-2.13-.8-1.14-.71-2.5-2.03-3.57-2.95-.14-.13-.36-.14-.29-.42.42-.37,3.57,1.6,4.08,1.98.33.24,2.28,1.8,1.91,2.2M16.6,55.7c.4-.26,2.01-.51,2.14.05.12.57-1.99.53-2.35.32-.04-.21.06-.27.21-.37M15.87,60.25c.61-.1.99.42,1.48.67,1.51.77,3.49,1.5,4.12,3.23-.03.04-.64-.14-.77-.2-.83-.3-4.14-2.5-4.64-3.19-.13-.17-.24-.25-.18-.52M14.83,58.16c.05.57-.34.76-.74,1.02-.37.23-1.15.76-1.41.28-.19-.39,1.7-1.53,2.15-1.3M24.56,66.92c-1.61.84-4.23,1.64-6.04,1.78-1.32.11-.98-.12-1.83-.61-1.66-.98-3.28-2.05-4.55-3.54-.09-.12-.56-.7-.45-.79l.61.11,5.45,3.94,7.36-1.44c.08.28-.37.45-.57.54"/>
        <path class="cls-8" d="M15.1,52.55c-.63-.19-1.28-.36-1.91-.54l.2,1.07c.6-.16,1.13-.45,1.71-.53"/>
        <path class="cls-2" d="M.25,47.56c.09-.47,1.14-.39,1.26-.2.15.23.08.39-.07.49.18,0,.36-.02.54-.02.08-2.92.11-6.19-.05-8.9,0-.09-.02-.19-.04-.28-1.09-.23-2.19-.43-3.3-.6l-.24.02s-.08-.04-.11-.08c-.21-.03-.42-.06-.63-.09v10.32c.92-.14,1.83-.24,2.74-.31l-.11-.36h0ZM-.64,43.4l-.76-.36-.06-.51c.81-.52,1.99.36.82.87"/>
        <path class="cls-13" d="M35.41,53.74l.26.13s-.17.18-.35.23c-.39.13-.78.32-1.21.29-.08-.38.1-.22.28-.29.31-.15.78-.24,1.01-.36"/>
        <path class="cls-9" d="M35.02,65.85c.09.31-.08.22-.16.29-1.58,1.4-3.34,2.58-5.05,3.81l-1.83-.32,5.38-3.69,1.65-.1h0Z"/>
        <path class="cls-18" d="M32.35,53.75c.2.19,1.39,1.66,1.25,1.81l-7.82-4.62,2.64.62c1.34.6,2.85,1.15,3.93,2.2"/>
        <path class="cls-18" d="M32.03,51.06c.1.1.52.47.39.59-1.47,0-2.54-1.48-3.74-1.92-.67-.25-1.48-.16-2.15-.33-1.03-.24-2.15-1.34-3.06-1.89-.15-.09-1.65-.66-1.35-.94.58-.03,1.22.07,1.77.25,1.12.37,2.27,1.45,3.38,1.57.33.04.69-.03,1.02,0,1.04.14,2.91,1.9,3.73,2.66"/>
        <path class="cls-18" d="M31.05,47.86c.13.13.86.91.72,1.04-1.12-.04-1.77-.93-2.62-1.49-.64-.41-1.82-.84-2.27-1.37-.11-.13-.24-.17-.18-.39,1.57.05,3.27,1.13,4.36,2.21"/>
        <path class="cls-21" d="M29.65,26.28c-.33-.33-1.24-.21-1.47-.43-.36-.71.05-1.51-.91-1.84l-.64.22-.3-.11c-.23-.25-.15-1.84-.72-1.78-.89.3-.63.92-.77,1.59-.2.96-.75.11-1.19.24-.36.11-1.2,1.39-1.36,1.77-.36.86-.32,1.4.34,2.08.17.66-1.3.85-1.4,2.08-.06.78.65.89.65,1.41,0,.1-.04.2-.1.29,3.73.53,6.59-2.17,7.88-5.52"/>
        <path class="cls-8" d="M31.05,28.45c-.31-.1-.66-.13-.96-.28-.02-.51-.09-1.42-.4-1.85,0-.01-.03-.02-.04-.03-1.29,3.34-4.15,6.04-7.88,5.52-.19.32-.61.65-.76,1.08-.46,1.31.12,1.84,1.34,2.2l.16-.03c.26-.51.61-.73,1.16-.46.11.47-.34.78-.38,1.24-.03.46.17,1.01.64,1.16.74.24,1.25.2,1.84-.28.06-1.36-.1-2.82-.01-4.15.03-.45.07-1.39.65-1.23.25.16.1,3.73.14,4.36.02.38.11.73.13,1.17,0,.16-.04.26.18.2.36-.11,1.24-.74,1.4-1.08.52-1.1-.15-1.01-.36-1.65-.38-1.16,1.01-2.2,2.01-2.36-.36-1.37.16-2.57,1.32-3.32.04-.29-.04-.15-.2-.2"/>
        <path class="cls-10" d="M30.38,36.55l.23.31c-.64.78-1.26,1.65-1.2,2.73.02.36.25.52.27.85l-2.99.39v-3.25c.84-.12,1.91-.59,2.22-1.43.48.29.89.45,1.47.41"/>
        <path class="cls-18" d="M29.92,55.85l.02.36-1.26-.1-6.3-3.68c1.84-.27,3.33.9,4.82,1.76.36.21.77.28,1.1.47.54.33.99.95,1.62,1.18"/>
        <path class="cls-10" d="M25.91,37.7v3.06c-.09.13-.19.17-.33.2-.71.13-1.73-.09-2.47,0l-.14.4c-.69-.21-2.01.29-2.54.05-.18-.09-.49-.54-.72-.72-.26-.2-.83-.3-.85-.58-.15-.63.87-1.5,1.4-1.61.89-.17,1.54.29,1.23-1.11l.73-.6c.48,0,.58.61,1.03.88.91.54,1.73.2,2.65.02"/>
        <path class="cls-9" d="M25.78,72.5c.08.29-.35.41-.57.54-2.08,1.28-4.35,2.46-6.53,3.49l-2.16-.38,6.76-3.85,2.49.2h.01Z"/>
        <path class="cls-18" d="M25.13,66.37c.08.28-.37.45-.57.54-1.61.84-4.23,1.64-6.04,1.78-1.32.11-.98-.12-1.83-.61-1.66-.98-3.28-2.04-4.55-3.53-.09-.12-.56-.7-.45-.79l.61.11,5.45,3.94,7.36-1.44h.02Z"/>
        <path class="cls-17" d="M24.58.9c.42.62.48,1.19.22,1.87-.11.28-.45.66-.47.86-.02.27.26.45.28.77.03.52-.48,1.45-.97,1.66l-1.11.11c-.11.59.27.83-.24,1.27-.63.55-1.22.47-1.97.7-.2.47-.54,1.7-1.12,1.66-.34-.01-.79-.43-1.04.01l-.97.03c.21-.39.29-.85.23-1.27-.03-.23-.26-.47-.23-.63.02-.15.41-.55.52-.78.4-.85.46-3.01-.75-3.22-.51-.11-.93.16-1.36.39-.14-.63-.67-1.01-1.31-1.04-.01-.35.39-.52.58-.79.53-.77.29-1.31.49-1.98.07-.22.48-.38.37-.74,2.34,0,4.7,0,7.04,0l.12.85c.52.36,1-.72,1.69.27"/>
        <path class="cls-13" d="M24.47,63.5v.13l-.08.27-1.36.32c.48-.24.96-.48,1.44-.72"/>
        <path class="cls-18" d="M22.43,59.49c.33.24,2.28,1.81,1.91,2.2-.81-.2-1.42-.38-2.13-.8-1.14-.71-2.5-2.03-3.57-2.95-.14-.13-.36-.14-.29-.42.42-.37,3.57,1.6,4.08,1.98"/>
        <path class="cls-17" d="M22.62,16.22c.36.79.46,1.86.03,2.65l-.74.17c-.08.52-.05,1.88-.66,2.07-.26.09-.62-.01-.87.15l-.18.36c.07.7,1.08.47,1.28.78.59.87.01,2.85-1.01,3.27-.54.22-.53-.63-1.12-.48-.53.57-.96,1.15-1.85,1.02-.32-.05-.53-.35-.89-.24-.21.07-.56.57-.83.74-.58.37-1.08.29-1.74.28l.13-.52c-.41-.03-1.97.16-2.07-.34l-.02-1.36c.66.23,1.19-.41,1.66-.49.36-.07.7.08,1.21-.1.79-.25,1.88-1.13,2.06-1.98.1-.46-.08-.66-.08-1.01-.01-.23.12-.41.08-.75-.14-1.42-1.41-2.29-2.82-2.08-.35-.84-1.06-1.42-1.98-1.48,1-.76.97-1.63.26-2.6,0-.21.3-.41.42-.63.68-1.29.52-.93,1.54-1.84.16-.15.26-.47.38-.53.21-.12.78-.09,1.18-.26.5-.22.95-.66,1.2-1.2l.97-.03c-.02.05-.05.11-.08.18.01.46.41.53.65.78.15.16.25.48.45.6.32.2.66.03.93.24.19.14.42.76.45,1,.11,1.22-.9.91-1.56,1.57-.57.57-.22.97.56.81.67-.14.53-.67,1.42-.33,1,.39.59,1.53,1.64,1.55"/>
        <path class="cls-15" d="M20.73,35.18l1.65.83c-.83.12-1.63.65-1.71,1.54-1.23,0-2.69,1.1-2.72,2.37l-.83-.13c-.37-.2-.2-3.25-.22-3.86-.01-.3-.13-.59-.14-.89-.05-2.61.2-5.24-.24-7.82.21-.38.52-.09.84-.08,1.28.05,1.46-.58,2.09-.65.29-.04.57.15.89.13.31-.02.56-.26.86-.26l.27,1.63c-.24.37-.52.52-.76.93-.62,1.05-.49,1.62.23,2.57-.97,1.08-1.33,2.57-.22,3.69"/>
        <path class="cls-18" d="M21.47,64.15s-.64-.14-.77-.2c-.83-.3-4.14-2.5-4.64-3.19-.13-.17-.24-.25-.19-.52.61-.1.99.42,1.48.67,1.51.77,3.49,1.5,4.12,3.23"/>
        <path class="cls-18" d="M18.74,55.76c.12.57-1.99.53-2.35.32-.04-.21.05-.27.21-.37.4-.26,2.01-.51,2.14.05"/>
        <path class="cls-18" d="M17.65,52.7c.52-.09,1.12,1.01.12.9-.74-.09-.82-.77-.12-.9"/>
        <path class="cls-17" d="M16.65,4.79c.66.53.4,2.25-.27,2.6-.3.15-.96.08-.51.65l.52.39c.03.61.06,1.12-.39,1.57-.65.65-1.24.01-1.54.22-.16.39-.99,1.46-1.33,1.61-.19.09-.63-.15-.89.08-.11.36.16.68.07,1.03-.15.48-.85.97-.99,1.5-.02.61.92.5.77,1.42-.05.38-.39.54-.76.45-.17-.61-.58-1.2-1.18-1.44.25-.91.26-2.62-1.06-2.46.11,1.17.68,2-.33,3l-.85.64c.81.23,1.18-.4,1.82-.46.62.57,1.16,1.47,1.02,2.33-.09.5-.35.34-.66.5-.46.25-.17.66-.34,1.1-.21.51-1.12,1.07-1.65,1.1-.37.01-.6-.32-.97-.26.01.08.03.15.05.22l-2,.54c-.09,0-.17,0-.27.02.05.78.86,1.67-.08,2.33-.87.62-1.36-.02-2.19-.11-.25.09-.29.76-.51,1-.4.45-1.37.67-1.91.36-.29-.17-.5-1.03-1.11-.32-.02.85-.65,1.33-1.5,1.29V-.22C1.88-.23,6.14-.22,10.4-.22l-.17,1.52c.53.76,2.6,1.07,2.23,2.29-.11.37-.65.28-.79.64-.12.25.16.49.17.82.04.8-.84,1.3-1.38,1.75-.2.32.09.65.05.96-.05.34-.64.82-.97.87-.41.08-1.36-.38-1.34.18l.14.32c.94.55,2.25-.01,2.73-.92.14-.27.15-.61.3-.87.23-.38.84-.72,1.09-1.13.51-.86-.07-2.42,1.51-2.26.97.09.95.96,1.2,1.03,0,0,1.48-.19,1.48-.19Z"/>
        <path class="cls-18" d="M16.85,54.25c.15.33.11.6-.26.66-.36.07-1.82-.15-2.03-.46-.31-.42.19-.57.21-.98l-1.64.34-.45-1.38c-.54,1.26-.98,1.05-1.75.13-.22,1.91-1.24.32-.63-.75.64-.42,1.16.54,1.6.5l.91-.93.31.23.28,1.48c.85-.23,1.53-.71,2.46-.51l.1.51-.6.78c.57-.07,1.06.02,1.5.38"/>
        <path class="cls-22" d="M14.83,41.22c.55-.27.87.35,1.41,0l-.02-.83c-.91-1.01-1.36-2.16-1.44-3.35,0,0,.05,4.19.05,4.19Z"/>
        <path class="cls-19" d="M14.77,36.44v.59c.09,1.2.54,2.34,1.45,3.35l-.18-8.11c-.75,1.33-1.23,2.77-1.27,4.17"/>
        <path class="cls-22" d="M15.94,27.54l-1.25.47.09,8.43c.04-1.4.51-2.84,1.26-4.17,0,0-.1-4.73-.1-4.73Z"/>
        <path class="cls-10" d="M15.99,20.31c.03.21.13,1.76.09,1.88-.19.59-1.22,1.21-1.82,1.27l-.57-.34-.35.1c-.23.67-.56.92-1.32.78-.22-.04-1.83-1.16-1.3.13.34.83,1.11,1.65.2,2.55l-.79.12c-.54.79.52.73.67.95.26.38.38,2.08.09,2.36-.1.09-.4,0-.48.24-.02.52-.01,1.53-.49,1.86-.67.48-1.26.12-1.96.07-.27-.02-.52.15-.87.05-.73-.21-.75-1.94-1.39-2.26-.52-.26-.54.35-.73.59-.29.37-1.17.62-1.49.22l-.27-.9c-.93-.78-.79.61-1.15,1.02-.64.73-2.45,1.37-2.96.18-.61-.38-.94.46-1.48.65v-5.21c.87.05,1.57-.4,2.15-1,1.3.58,2.63.08,3.4-1.07,1.06.03,2.04.01,2.71-.94.6-.85.5-2.49-.7-2.49l2-.54c.44,1.36,2.6.34,3.21-.54.23-.34.18-.57.33-.84.1-.2,1.12-1.28,1.3-1.32,1.29-.22,1.27,1.29,1.62,1.5.37.23,1.01-.15,1.5-.07.36.07.78.63.84.99"/>
        <path class="cls-18" d="M14.83,58.16c.05.57-.34.76-.74,1.02-.37.23-1.15.76-1.41.28-.18-.39,1.7-1.53,2.15-1.31"/>
        <path class="cls-4" d="M11.05-.22c1.21,0,2.42,0,3.64,0-.42.41-.21.96-.27,1.48-.09.68-.43,1.09-1.03,1.38-.3-.93-1.39-1.62-2.33-1.84V-.22h0Z"/>
        <path class="cls-18" d="M13.21,68.33c.82-.23.91,2.01.82,2.51-.04.16-.42.86-.53.97-.06.05-.13.09-.2.12-.1.03-.2.05-.29.04-.13-.63.25-1.3.27-1.89.01-.2-.13-.64-.21-1.03-.06-.35-.07-.66.14-.72"/>
        <path class="cls-15" d="M14.04,27.8v11.34l-2.02-.65.2-1.17-3.64.39c-.1-.59.59-1.22.07-1.7l-1.83,1.17c0-.91.15-1.98.37-2.89.48-2.02.61-1.01,1.98-1.02.65,0,1.41-.42,1.73-1,.22-.41.2-1,.36-1.34.08-.15.32-.29.44-.48.35-.59.36-1.51.26-2.19-.06-.52-.5-.86-.24-1.38.05-.04,1.31.34,1.46.4.12.04.5.6.88.51"/>
        <path class="cls-17" d="M13.29,71.93l.67,1.42c-.39.18-.78.37-1.18.55-4.98,2.34-10.09,4.4-15.16,6.55v-26.71h.13l.41,1.29.5-.07c.31.29.52.72,1.03.58.14-.52.45-1.01.92-1.28l-.25,1.82,1.69-.51c.17.16-.73.8-.27,1.37.14.15.32.2.5.2l2,.96c-.03.06-.04.12-.02.21.01,0,.04.02.08.03l-.74,2.06c-.56,0-2.06.96-2.46,1.3l-.16-1.66c-.84-.67-1.75,2.23-.49,1.27.05.24.41,1.23.71,1.16l1.89-1.29c.04.71-.68,1-1.01,1.52l-.03.23c.05.6.84.29,1.5-.02l.21.41s-.09.09-.13.13c.21.53,1.54.7,2.48.6l.13.89c-.25.04-.45.1-.54.21v.46h2.29l1.89,1.43c.11.83.79,1.41.9,2.3.08.67-.26,1.35-.11,2.05l.55.2c.59-.68.72-1.6.49-2.45l1.35-.08c.08.39.22.84.21,1.03-.02.59-.4,1.26-.27,1.89.1.01.2-.01.29-.04M5.96,74.19c.43.17,1.94-.81,1.77-1.17-.36-.76-1.88.51-1.77,1.17M5.57,71.58c-1.32-.09-2.35,1.45-2.47,2.61.31.32,1.32-1.11,1.49-1.3.33-.36.97-.59.98-1.3M3.22,70.46c.01-.36-.21-1.27-.59-1.35-.48-.11-.4,1.46-.46,1.75-.15.79-.62,1.57-.25,2.41.21.02.31.02.46-.13.28-.29.82-2.23.84-2.69M1.57,67.13c.48-.14.9-1.05.22-.84-.38.13-1.09.51-1.29.86.34-.03.76.07,1.08-.02M.48,72.03c.41-.47-.28-2.9-.64-3.11-.16-.1-.35-.07-.52-.07l.65,3.38.51-.21H.48Z"/>
        <path class="cls-9" d="M13.78,79.28l-8.21,4.37-1.95-.6c-.06-.3.03-.21.16-.29,2.36-1.41,5.04-2.39,7.4-3.83l2.6.35Z"/>
        <path class="cls-18" d="M11.72,69.13c.23.85.1,1.76-.49,2.45l-.56-.2c-.15-.71.19-1.38.11-2.05-.11-.88-.79-1.47-.9-2.3.14-.15,1.11.74,1.24.91.28.35.49.76.6,1.18"/>
        <path class="cls-18" d="M10.91,57.65c.37.53-1.52,1.49-1.98,1.4-.18-.03-.37-.16-.49-.3-.09-.39,1.98-1.61,2.47-1.1"/>
        <path class="cls-18" d="M8.44,65.07c.11.21-.42.52-.46.52h-2.28v-.46c.09-.11.28-.16.53-.21.7-.08,1.79.07,2.21.14"/>
        <path class="cls-18" d="M7.73,73.02c.16.36-1.34,1.35-1.77,1.18-.11-.66,1.41-1.94,1.77-1.18"/>
        <path class="cls-18" d="M6.13,63.14c.21.03.95.27.88.56-.04.17-.41.29-.9.34-.93.1-2.27-.07-2.48-.6.04-.04.09-.09.13-.13.14-.14.31-.26.48-.3.18-.03,1.63.1,1.89.14"/>
        <path class="cls-18" d="M6.88,57.12c.02.2.01.32-.12.47-.19.23-1.99.83-2.41.74-.03,0-.07-.02-.08-.03-.02-.09-.01-.15.02-.21.06-.09.17-.13.28-.22.61-.48,1.52-.84,2.31-.75"/>
        <path class="cls-18" d="M5.19,21.13c1.2,0,1.29,1.64.7,2.49-.66.95-1.65.97-2.71.93-.77,1.14-2.1,1.64-3.4,1.07-.59.6-1.29,1.06-2.16,1v-.91c.85.03,1.48-.45,1.5-1.29.61-.72.82.14,1.11.32.54.32,1.51.09,1.91-.36.22-.24.26-.91.51-1,.83.09,1.32.73,2.19.11.94-.65.13-1.54.08-2.33.1-.02.19-.02.27-.02"/>
        <path class="cls-22" d="M5.63,38.36c.11-.92.23-1.82.36-2.67.12-.88.23-1.83.61-2.64-.44-.65-.97-1.29-1.02-2.12-.21.08-.39.28-.49.49-.52,1.17-.51,3.23-.95,4.52-.32.96-.61-.1-.69-.17-.06-.05-.26.02-.36-.1-.24-.3-.85-1.67-1-2.11-.15-.38-.31-.78-.29-1.21l-.78.13c-.16.12.61,1.45.72,1.7,1.11,2.85.96,5.18.98,8.15.02,2.66-.03,5.34,0,8.01.22,0,.16-.34.38-.46.16-.09.39-.11.53,0l.51,1.77s.86-.4.92-.46c.17-.16.18-.58.15-1.02-4.09-2.54-2.36-8.3.42-11.8"/>
        <path class="cls-19" d="M5.63,38.36c-2.78,3.51-4.51,9.26-.42,11.8-.04-.51-.14-1.06-.16-1.33-.16-3.18.15-7.02.58-10.48"/>
        <path class="cls-18" d="M3.29,61.94c.45-.45,2.76-1.17,2.4.04-.16.55-.96.42-1.33.51-.13.03-.46.22-.82.4-.66.32-1.45.62-1.5.02l.03-.23c.33-.52,1.06-.81,1.01-1.52l-1.89,1.29c-.29.07-.65-.92-.71-1.16-1.26.96-.35-1.95.49-1.27l.16,1.66c.4-.35,1.89-1.3,2.46-1.3.03,0,.06,0,.08,0,.66.13-.52,1.23-.39,1.54"/>
        <path class="cls-18" d="M3.1,74.19c.12-1.16,1.15-2.7,2.47-2.61-.01.72-.65.95-.98,1.3-.17.2-1.19,1.62-1.49,1.3"/>
        <path class="cls-18" d="M4.34,55.67c.47.21.43.79.05.99-.14.08-1.42.39-1.65.42-.15.02-.3.04-.46.04-.18,0-.36-.04-.5-.2-.46-.57.45-1.21.27-1.37l-1.69.51.25-1.82c-.48.27-.78.76-.92,1.28-.51.14-.72-.28-1.03-.58l-.5.07-.41-1.29c.87-.18.91.99,1.62,1.04.14,0,1.45-2.47,1.99-1.38l-.41,1.89c.34-.21,2.59-1.51,2.39-.48l-.63,1.08c.55-.08,1.06-.46,1.63-.22"/>
        <path class="cls-15" d="M4.27,31.7l-.71,3.39c-.7-.89-1.06-1.96-1.36-3.03l.73-.73,1.34.37Z"/>
        <path class="cls-18" d="M2.63,69.11c.38.08.6.99.59,1.35-.02.46-.55,2.39-.84,2.69-.15.15-.25.15-.46.13-.37-.85.1-1.62.25-2.41.06-.29-.02-1.86.46-1.75"/>
        <path class="cls-18" d="M1.79,66.3c.68-.22.26.7-.22.84-.31.09-.74-.01-1.08.02.21-.35.91-.73,1.29-.86"/>
        <path class="cls-18" d="M1.51,47.36c.4.61-.74.74-1.13.62l-.13-.42c.09-.47,1.14-.39,1.26-.2"/>
        <path class="cls-15" d="M.17,32.75l1.38,4.09-2.75.48v-1.51c-.47-.24-.75.26-1.17.34v-3.39l1.11-.51,1.44.51h0Z"/>
        <path class="cls-18" d="M-.16,68.92c.36.21,1.05,2.64.64,3.11l-.51.21-.65-3.38c.17,0,.36-.03.52.06"/>
        <path class="cls-9" d="M.06,86.04c.17.05.36-.09.3.21l-2.74,1.36v-1.95c.78-.21,1.65.14,2.44.37"/>
      </g>
    </g>
  </g>
</svg>