<?xml version="1.0" encoding="UTF-8"?>
<svg id="Layer_1" data-name="Layer 1" xmlns="http://www.w3.org/2000/svg" xmlns:xlink="http://www.w3.org/1999/xlink" viewBox="0 0 90 90">
  <defs>
    <style>
      .cls-1 {
        fill: #7ed2f6;
      }

      .cls-2 {
        fill: #bb9889;
      }

      .cls-3 {
        fill: #abe0f9;
      }

      .cls-4 {
        fill: #a9bc69;
      }

      .cls-5 {
        fill: #b4a129;
      }

      .cls-6 {
        clip-path: url(#clippath-4);
      }

      .cls-7 {
        fill: #b6c370;
      }

      .cls-8 {
        fill: #fff;
      }

      .cls-9 {
        fill: #98a951;
      }

      .cls-10 {
        fill: #5f845f;
      }

      .cls-11 {
        fill: none;
      }

      .cls-12 {
        clip-path: url(#clippath-1);
      }

      .cls-13 {
        clip-path: url(#clippath-5);
      }

      .cls-14 {
        clip-path: url(#clippath-3);
      }

      .cls-15 {
        fill: #727849;
      }

      .cls-16 {
        fill: #849a52;
      }

      .cls-17 {
        fill: #ffdd2e;
      }

      .cls-18 {
        fill: #663925;
      }

      .cls-19 {
        clip-path: url(#clippath-2);
      }

      .cls-20 {
        fill: #d3eefb;
      }

      .cls-21 {
        fill: #6cafc4;
      }

      .cls-22 {
        clip-path: url(#clippath);
      }
    </style>
    <clipPath id="clippath">
      <rect class="cls-11" x="0" width="90" height="90"/>
    </clipPath>
    <clipPath id="clippath-1">
      <rect class="cls-11" x="-2.18" y="-.35" width="94.35" height="90.71"/>
    </clipPath>
    <clipPath id="clippath-2">
      <rect class="cls-11" x="-2.18" y="-.35" width="94.35" height="90.71"/>
    </clipPath>
    <clipPath id="clippath-3">
      <rect class="cls-11" x="-2.18" y="-.35" width="94.35" height="90.71"/>
    </clipPath>
    <clipPath id="clippath-4">
      <rect class="cls-11" x="-2.18" y="-.35" width="94.35" height="90.71"/>
    </clipPath>
    <clipPath id="clippath-5">
      <rect class="cls-11" x="-2.18" y="-.35" width="94.35" height="90.71"/>
    </clipPath>
  </defs>
  <g class="cls-22">
    <g>
      <g class="cls-12">
        <g>
          <path class="cls-18" d="M90.69,61.1c.03.42-1.15,1.81-1.43,2.36-.54,1.14-.68,2.71-1.29,3.8-.1.18-.16.35-.41.29-.34-1.95.11-4.4,1.42-5.93.34-.39.93-1.01,1.49-.83.15.04.21.15.22.3"/>
          <path class="cls-18" d="M90.37,57.84c.02.49-1.35,2.18-2.03,1.71l-.26-.54c-.06-.6.96-1.64,1.52-1.72.33-.05.76.23.77.55"/>
          <path class="cls-18" d="M89.84,40.18c.1.21,0,.45-.07.65-.11.32-.57,1.2-.88,1.28l-.65-.14c-.11-.11-.18-.47-.16-.62.04-.37.75-1.32,1.14-1.41,0,0,.62.24.62.24Z"/>
          <path class="cls-18" d="M88.29,70.33c.86.81,1.78,3.01.76,3.99-.21.05-.27-.16-.36-.29-.36-.56-.45-1.48-.73-2.13-.28-.65-1.11-1.49-1.2-2.07-.03-.2-.01-.23.18-.18.31.08,1.11.47,1.34.68"/>
          <path class="cls-5" d="M88.27,48.4c.42.77,1.39,6.62,1.11,6.91h-.91c.02-.59-.13-1.18-.27-1.75-.21-.81-.84-2-.76-2.73.08-.75.46-1.77.84-2.43"/>
          <path class="cls-18" d="M89.12,78.5c.02.24.01.39-.13.6-.26.4-2.33,1.38-2.84,1.46-.25.04-.39.06-.55-.17-.13-.69,2.78-2.19,3.52-1.88"/>
          <path class="cls-18" d="M85.2,83.71c2.34.15,3.11,4.41,2.37,6.09-.05.13-.55.94-.61.95-.5-.05-.21-.37-.22-.58-.16-1.69-.19-3.42-.87-4.98-.22-.51-.65-.92-.67-1.48"/>
          <path class="cls-5" d="M87.16,52.56l.52,2.61-1.16-.35c-.04-.14.29-1.79.38-2.07.05-.2-.09-.23.26-.2"/>
          <path class="cls-18" d="M85.73,61.03c.79,1.2,1.53,3.22,1.04,4.62-.1.27-.25.51-.52.25l-.78-4.81.26-.07h0Z"/>
          <path class="cls-18" d="M86.74,72.86c.09.54.13,1.96-.69,1.47-.49-1.01-.66-2-1.37-2.92-.17-.23-1.36-1.15-.7-1.35,1.19-.37,2.59,1.81,2.75,2.81"/>
          <path class="cls-18" d="M85.46,41.75c-.52-1.03,1.13-1.6,1.04-.26-.45.09-.03.29-1.04.26"/>
          <path class="cls-18" d="M86.38,76.41c.33.31-1.7,1.9-1.89,2.09-.33.32-.57.77-.97,1.11-.2.15-1.08.88-1.19.39.34-1.08,1.23-2.16,2.09-2.87.58-.48,1.18-.84,1.96-.72"/>
          <path class="cls-18" d="M86.12,47.74c-.29,1.34-.85,2.6-1.24,3.9-.27.94-.45,2.4-.84,3.21-.26.54-.41.36-.55-.12-.39-1.36.83-4.68,1.57-5.9.09-.14.85-1.33,1.07-1.09"/>
          <path class="cls-18" d="M85.55,42.54c.84-.22.89,1.4-.02,1.56-.88-.16-.59-1.4.02-1.56"/>
          <path class="cls-18" d="M85.01,87.23c.6,1.41,1.22,3.87-.2,4.95-.23-1.48-.29-3.01-.85-4.43-.29-.76-1.04-2.12-1.62-2.67-.27-.25-1.28-.71-1.3-.78-.05-.18.02-.37.21-.43,1.52-.48,3.27,2.21,3.76,3.37"/>
          <path class="cls-9" d="M71.61,26.99c1.09-2.17,1.09-3.26,1.09-5.44,2.17,0,3.26-1.09,5.44-2.17,1.94-1.94,2.35-4.26,3.5-6.05-.31-.76-.67-1.49-1.62-1.02l-.13.71c-.8-.03-1.16.41-1.61,1.01-.22.3.16.46.17.8.01.47-.63,1.28-.42,1.94l-.84.47c.16.6-.15,1.16-.84.85-.36-.16-.55-.85-1.1-.85-.94-.01-.59.89-1.08,1.03-.46.2-.74-.26-1.04-.35-1.18-.34-1.03.74-1.43.87l-1.09-.24-.24,1.67c1.53.29,1.04,1.03.89,2.17-.07.46.14,1.28-.39,1.57-.42.23-.63-.15-.87-.17-.21-.02-.48.47-1,.12-.21-.14-.28-1.1-.94-1.18-.65-.1-.74.77-1.54.5-.23-.08-.58-.97-1.33-1.02-.88-.02-.76,1.42-1.53,1.4-.49-.01-.46-.75-.81-1.01-.26.24-.79.78-.83,1.13-.01.16.21.3.24.51.12.68-1.26,1.11-1.18,2,1.09.12.84,1.41-.26,1.3l.39.78h1.74c.55-4.46,5.57-3.38,8.65-1.33"/>
          <path class="cls-16" d="M84.37,15.16l-.92-.25c-.01-1.55-.5-1.39-1.81-1.57v-.02c-1.15,1.79-1.56,4.11-3.5,6.05-2.18,1.09-3.26,2.18-5.44,2.18,0,2.17,0,3.26-1.09,5.44-3.08-2.05-8.09-3.13-8.65,1.33h15.33c-.33-.49-.82-1.09-.75-1.73.03-.39.42-.76.46-.96.03-.15-.11-.4-.11-.63.02-.63.57-1.35,1.12-1.63-.73-2.13,3.14-4.33,3.07-1.17.35.07.57-.2.75-.46l-.33-.67c.09-.96.99-1.61,1.91-1.61-.33-1.02-.14-2.06.48-2.93l-.53-1.37h0Z"/>
          <path class="cls-18" d="M84.11,64.42c.14.96-.01,1.7-.21,2.61l-.36-.22c-.18-1.12-.42-2.23-.72-3.33-.15-.57-.75-1.95-.75-2.38,0-.49.33-.62.66-.26.49.51,1.26,2.84,1.37,3.58"/>
          <path class="cls-18" d="M83.02,47.7l1.01-.93c-1.01,1.82-1.5,3.62-1.91,5.64-.12.62-.29,3.72-1.26,3.52-.34-.17-.44-.6-.47-.96-.2-1.79-.05-3.8-.13-5.6-.01-.3-.09-1.76.2-1.76.83.71,1.04,1.83,1.11,2.86l1.46-2.77h0Z"/>
          <path class="cls-18" d="M83.19,41.22c.08.12.1.66.05.79,0,.02-.36.41-.39.45-.42.35-.63.23-.9-.18l.33-.91c.2-.24.67-.39.91-.14"/>
          <path class="cls-18" d="M83.25,71.99l-.13.45-15.51,3.72c-.04.62.19,1.36-.33,1.83-.5.12-1.04-1.94-1.21-2.31-.15-.35-.4-.64-.54-.96-.15-.32-.34-.57-.27-.96.5-.5.98.1,1.31.51.23.27.71,1.37.98,1.37,1.94-1.21,4.36-1.76,6.58-2.3,1.25-.29,2.54-.47,3.78-.78.15-.03.42.01.39-.18-1.31-.26-2.73-.43-3.86-1.15-2.17.68-4.63.77-6.9.63-1.63-.1-3.79-.42-4.69-1.95-3.59,1.75-8.79,1.65-12.55.41-.33-.11-1.53-.56-1.72-.75-.18-.17-.22-.65,0-.79.49-.32,1.54.45,2.1.47.04-.26-.22-.42-.26-.65-.09-.37-.08-.91-.17-1.33-.43-1.9-1.08-3.91-1.9-5.67.31-.85,1.08.36,1.32.78,1.13,1.99,1.94,4.85,1.92,7.12.18.02.37-.03.52,0l.13.13s.09-.01.13,0l.06.13.07-.13c.22.04.45.07.65.13l.13-.07v-.13l-.13-.07c-.03-.13-.21-.29-.25-.6-.21-1.57-.14-3.12-.43-4.77-.16-.88-.29-1.96-.87-2.64-.14-.35.52-.17.69-.08.79.5,1.47,4.31,1.53,5.29.05.95.1,2.2-.27,3.07l1.44-.13.13-.06-.13-.07c.03-.5-.03-1,0-1.5,0-.21.12-.41.13-.59l.13-.07-.13-.07c.04-1.07.06-2.32,0-3.38l.13-.07-.13-.07c-.04-.77-.18-1.54-.39-2.28,0-.12.27-.05.39-.07h.13c.72.41.84,2.08.91,2.87l-.13.07.13.07c.1,1.28.17,3.12-.29,4.33-.14.38-.4.64-.49,1.01h2.68l1.04-.25c.18-.27-.06-.68-.08-.99-.1-2.15,1.06-5.02,2.68-6.45.15-.13.22-.32.46-.26.13.14-1.26,2.99-1.44,3.45-.5,1.36-.72,2.75-1.17,4.11l2.34-.4c.2-1.11.41-2.34.86-3.37.21-.49.52-1.2,1.11-1.31l-1.04,4.56.65.07c.91,1.87,3.43,1.65,5.21,1.76-.22-2.76-.46-5.52-1.43-8.15-.12-.33-.79-1.61-.79-1.7.01-.18.13-.33.33-.33.72-.02,1.41,1.83,1.64,2.41.91,2.42,1.5,5.24.64,7.76h2.15c.37-.24.08-.53.07-.85-.06-1.92,1.04-4.48,2.27-5.93.27-.32,1.94-2.04,2.28-1.7.04.5-.48.75-.75,1.13-1.69,2.26-2.44,4.61-3.42,7.21l2.74-.26c-.13-1.47.36-2.84,1.01-4.13.58-1.12,1.49-2.83,2.89-2.9.21.21-1.21,2.1-1.4,2.44-.82,1.38-1.47,2.86-2.28,4.25l.04.48c.49-.15,1.09.24,1.66.35,2.31.48,4.72.37,6.93,1.22"/>
          <path class="cls-18" d="M83.13,44.02c.36.24-.11,1.64-.59,1.64-.79,0-.38-1.53.15-1.69.14-.04.3-.04.44.04"/>
          <path class="cls-18" d="M82.3,75.79c.38-.06.72.07.5.49-.59.69-1.22,1.32-1.74,2.05-.35.48-1.21,2.19-1.51,2.39-.16.11-.27.16-.47.13-.37-.88.12-1.64.54-2.39.48-.84,1.67-2.5,2.68-2.67"/>
          <path class="cls-18" d="M81.4,64.13c.42,1.1.74,2.14.28,3.29-.11-.01-.29.04-.37-.01-.13-.08-.81-2.47-.96-2.89-.15-.41-1.36-2.51-.68-2.7.86.2,1.42,1.55,1.73,2.32"/>
          <path class="cls-18" d="M80.86,87.02c.99.94,1.5,2.82.7,3.99-.65-.64-.52-1.67-.82-2.51-.21-.58-.72-1.17-.88-1.72-.15-.51.87.11,1,.24"/>
          <path class="cls-18" d="M80.73,74.24c.46-.01.93.54.58.95-1.91,1.42-2.6-.89-.58-.95"/>
          <path class="cls-18" d="M81.3,41.42c.01.12-.2.72-.26.85-.22.36-.58.73-.99.39l-.18-.39c0-.51.4-1.27.98-1.26l.46.41h-.01Z"/>
          <path class="cls-18" d="M81.82,82.67c-.56-.03-1.03-.22-1.61-.1-.32.07-1.51.9-1.65.75-.02-1.5,2.9-2.55,3.26-.65"/>
          <path class="cls-18" d="M80.35,43.86c.43.46-.08,1.54-.76,1.22-.33-.23-.06-1.22.36-1.36l.4.14Z"/>
          <path class="cls-18" d="M79.55,58.55c.42-.04.59.26.71.26-.18,1.29-1.97,2.02-1.44.13.24-.1.4-.36.73-.39"/>
          <path class="cls-18" d="M77.7,46.97c1.17,1.5,1.45,5.74,1.24,7.6-.05.45-.21.97-.58,1.25-.78-.59-.34-1.4-.32-2.14.07-2.38-.27-4.68-.79-6.98.23-.04.33.11.45.27"/>
          <path class="cls-18" d="M78.53,78.34c.08.42.09,1.35,0,1.76-.03.21-.53,1.11-.75.88-.12-1.19.02-2.41-.68-3.44-.26-.38-1.13-.85-.54-1.25.75-.23,1.86,1.39,1.97,2.04"/>
          <path class="cls-18" d="M76.99,42.01c0-1.69,1.95-1.37,1.3.26-.39.99-1.29.7-1.3-.26"/>
          <path class="cls-18" d="M76.14,49.44c.33,1.03.84,4.26.53,5.22-.17.54-.58.52-.79,0-.24-.6-.12-1.07-.2-1.63-.2-1.58-.28-3.38-1.11-4.75l-1.49,5.29c-.03.24-.01.17.19.18.46.02,1.45-.13,1.7.27.1.1.04.34.07.38-.66.38-1.41.62-2.19.75-2.2.37-4.65.32-6.86.16-.58-.04-2.59.06-2.78-.61-.17-.58.33-1.03.88-.96-.32-2.78-.6-5.58-1.44-8.28l.27-.65.52-.07c.28.3.43.35.62.75.61,1.32,1.26,4.67,1.21,6.1-.01.5-.37,1.84-.25,2.19.03.11.11.16.21.19,2.41.4,4.9.04,7.34-.11.1-.41-.13-.86-.12-1.23.02-1.35.85-4.43,1.58-5.59.43-.71,1.07-1.27,1.79-1.65.29.37-1.08,1.83-1.04,2.35.8.11,1.16,1,1.37,1.7"/>
          <path class="cls-18" d="M76.08,42.01c.11.62-.62,1.16-.95.48-.06-.17-.14-.43-.1-.61.01-.03.36-.45.39-.47l.19-.05c.12.02.46.55.47.65"/>
          <path class="cls-18" d="M75.95,59.6c.03.2-.02.87-.21.92l-.42-.02c-.09-.21-.14-.41-.15-.64,0-.14-.02-.28.03-.42.1-.2.29-.47.5-.29.06.05.24.37.25.46"/>
          <path class="cls-18" d="M75.94,79.62c.03.29.09,1.88-.32,1.87-.64-.57-.56-1.57-.77-2.34-.23-.8-.63-1.37-1.1-2.04-.05-.11.11-.27.2-.29,1-.29,1.9,2.05,1.99,2.81"/>
          <path class="cls-18" d="M75.35,36.94c.46.32.2.76-.27.86-1.2.26-2.31-.37-3.43-.62-.1-.3.24-.35.47-.38,1.08-.12,2.14.13,3.23.14"/>
          <path class="cls-18" d="M74.89,43.14l-.26.92c-1.82.38-.81-2.47.26-.92"/>
          <path class="cls-18" d="M72.04,86.39c.6-.49,1.01-.7,1.83-.59,0,.63-.57.86-.84,1.18-.38.45-.85.97-1.18,1.44-.59.82-1.1,2.1-1.77,2.78-.12.13-.17.25-.39.2-.57-1.79,1.02-3.94,2.35-5.01"/>
          <path class="cls-18" d="M73.48,45c.08.08-.62.98-.72,1.18-1.12,2.04-1.01,3.65-1.57,5.73-.05.18.02.46-.26.39-.77-.41.05-3.75.32-4.5.35-.95,1.15-2.58,2.23-2.8"/>
          <path class="cls-18" d="M73.35,61.29l-1.41,2.18-1.46,3.82c.03-.51-.28-.99-.26-1.49.03-1.55,1.35-4.42,3.13-4.5"/>
          <path class="cls-18" d="M72.83,58.56c.01.58-.4.99-.91,1.16-.07.02-.17,0-.26,0-.4-.88.35-1.34,1.18-1.16"/>
          <path class="cls-18" d="M71.78,84.23c.04.22-.11.35-.21.51-.82,1.35-2.28,2.51-3.11,3.94-.48.84-.6,1.61-.96,2.43-.08.18-.01.21-.28.16-.78-1.7.27-3.3,1.36-4.56.34-.39,2.76-2.89,3.2-2.48"/>
          <path class="cls-18" d="M71.65,42.14c.25,1.82-1.47,1.76-1.04.13.04-.15-.03-.28.12-.47.33-.4.85-.18.92.34"/>
          <path class="cls-18" d="M71.39,37.05c.15,1.58-1.94,1.07-2.86.64v-.36c.17,0,.42-.28.45-.28h2.41Z"/>
          <path class="cls-18" d="M71,79.87c.3.24.43.59.39.98-.33.05-.56-.22-.86-.26-.88-.13-1.75.53-2.08,1.3-.61-.01-.68-.55-.52-1.05.27-.85,2.29-1.54,3.07-.97"/>
          <path class="cls-18" d="M69.56,57.72l.23.49c-.01.36-.42.86-.75,1-.6.27-.64-.04-1.04-.13-.48-1.04.59-1.99,1.57-1.36"/>
          <path class="cls-18" d="M69.56,42.4c.06.29,0,.79-.35.89l-.43-.04c-.13-.09-.25-.43-.26-.6-.01-.36.16-.55.46-.75.21.08.54.27.59.5"/>
          <path class="cls-18" d="M68.59,45.52c.58,1.37.98,5.9.47,7.24-.09.23-.29.59-.53.71-.43-1.48-.16-2.99-.26-4.49-.09-1.47-.5-2.92-.65-4.37.53-.05.81.5.98.91"/>
          <path class="cls-18" d="M68.88,78.92c.17.19.28.78-.04.87-.21.05-.99-.21-1.52-.1-.49.11-1.62,1.23-1.91,1.02-.57-1.59,2.59-2.74,3.48-1.8"/>
          <path class="cls-18" d="M67.48,83.97l-2.14,5.47-.39.13c-.79-.23.21-2.7.43-3.21.23-.52.51-1.04.86-1.48.15-.18,1.02-1.13,1.24-.91"/>
          <path class="cls-18" d="M67.35,42.91c.13.81-.75,1.2-1.03.26-.28-.92.76-1.3,1.03-.26"/>
          <path class="cls-18" d="M66.41,45.36c.98,2.26.93,5.46.54,7.85l-.26-.2-.9-8.41c.37-.03.5.48.62.75"/>
          <path class="cls-18" d="M65.76,62.43c1.38,2.1,1.54,4.64.54,6.95-.17.15-.24.01-.25-.2-.03-.6.03-1.23,0-1.83-.08-1.36-.21-2.47-.69-3.74-.15-.42-1.12-2.15-.88-2.45.55.23.96.77,1.27,1.26"/>
          <path class="cls-18" d="M64.75,75.89c.45.54,1.36,1.78,1.24,2.48-.02.18-.15.58-.39.52l-2.68-3.65c.09-.03.21-.45.65-.34.52.18.84.59,1.18.99"/>
          <path class="cls-18" d="M65.74,57.9c.33.26.14.52-.08.78-.26,0-.65.14-1.04.13.09-.5.52-1.38,1.12-.91"/>
          <path class="cls-18" d="M65.14,37.18c.06.31-.04.22-.16.29-.99.68-3.5,1.09-4.52.42-.25-.16-.33-.5-.7-.43-.8.14-1.17,1.67-2.61.74-.54-.35-.85-.87.11-.76.45.05.82.33,1.29.26.48-.07.88-.66,1.44-.66.32,0,.56.24.91.28.39.04,1.15.02,1.56-.02.95-.11,1.66-.74,2.69-.12"/>
          <path class="cls-18" d="M65.01,43.44c.02.1,0,.22-.02.32-.14.38-.86.21-1.02-.05-.08-.12-.18-.85-.13-.91.39-.15,1.1.29,1.18.65"/>
          <path class="cls-18" d="M63.1,84.37c.84,1.33,1.32,3.95.74,5.41-.14.37-.41.5-.64.1-.24-1.24-.05-2.46-.34-3.7-.26-1.1-.85-2.07-1.25-3.12.29-.28,1.35,1.09,1.49,1.32"/>
          <path class="cls-18" d="M62.71,58.29c.09.02.21.36.21.39-.01.19-.43,1.03-.59,1.17-.65.62-.98-.57-.46-1.17.13-.15.63-.41.84-.39"/>
          <path class="cls-18" d="M62.27,75.76c.25.25-.89,1.65-1.1,1.97-.15.25-1.35,2.79-1.74,1.46-.3-.99,1.56-3.72,2.84-3.43"/>
          <path class="cls-18" d="M61.37,87.15c.46.97.26,2.01-.15,2.95-.27.04-.21.01-.28-.16-.25-.53-.27-1.32-.46-1.89-.17-.56-.61-1.31-1.02-1.72-.26-.27-1.18-.77-1.31-1.04-.1-.21.03-.37.21-.46.91-.46,2.65,1.56,3.01,2.33"/>
          <path class="cls-18" d="M58.09,80.51c1.03-.2,3.29.08,3.13,1.5-.48.16-.72-.22-1.04-.33-1.17-.37-1.91-.48-2.99.27-.4.13-.97,1.37-1.24,1.37-.46,0-.5-.75-.33-1.04-.94-.05-2.28-.59-3.12-.07-.2.12-.9.84-1.06,1.03-.09.11-.17.14-.12.33.52.13.9.47.91,1.03,1.03-.09,2.47-.27,3.18.67.15.2.5.84.41,1.03-.09.17-.2.24-.31.24-.33,0-.73-.53-1.03-.61-1.15-.25-2.51.27-3.56.7-.37.15-1.81,1.03-2.08.84-.48-1.41,1.54-2.16,2.59-2.47l-.18-.52c-1.28-.62-2.68-.16-3.85.46-.5.26-.87.78-1.44.72-.09-.77.48-1.04,1.04-1.37,1.03-.61,2.3-1.04,3.5-.99.37-1.3,1.14-2.02,2.25-2.25.4-.1.86-.12,1.35-.08.64.05,1.5.45,2.09.4.45-.04,1.18-.73,1.88-.87"/>
          <path class="cls-10" d="M58.68,24.15c.62.35,1.22.26,1.89.26-.22.34-.46.66-.55,1.07-.11.41-.03.73-.1,1.08-.1.57-.72.98-.13,1.76-1.92-.02-3.87.04-5.8.01-4.96-.08-9.9-.18-14.86.12-1.01.07-2.09.33-3.11.24-.23-.07-.26-.43-.43-.62-.55-.68-.93-1.16-.95-2.17,0-.61.42-1.95-.21-2.4-.5-.37-.87.23-1.37.27l-.26-.72c.19-.03.35.09.58.07.65-.07,1.24-.96,1.59-1.45,1.01.37,1.63-.13,1.74-1.16l.78.21c.48-.23.89-.58,1.04-1.12h.2c.47.66,1.1.68,1.76.26.07.46.65.9,1.11.9.49,0,.98-.54,1.29-.52.43,1.01,1.36.43,1.96-.11.27.29.29.68.53,1.02.63.9,1.66.89,2.4.14.04.62.79,1.14,1.38,1.17.53.02.91-.41,1.35-.52.22,1.1,1.77,1.61,2.54.78h.2c.25,1.42,1.71,1.9,2.74.78.09.57.63,1.05,1.13,1.27.97.22,1.16-.62,1.53-.62"/>
          <path class="cls-18" d="M59.86,57.25c.77-.08.55.86.31,1.31-.34.67-1.27,1.09-1.16,0,.02-.32.52-1.27.85-1.31"/>
          <path class="cls-18" d="M59.13,75.43c.31-.17.75-.04.64.37-.94,1.22-1.88,2.5-2.34,3.99l-.51-.05c-.44-.43-.17-.82.02-1.28.46-1.11,1.33-2.21,2.19-3.02"/>
          <path class="cls-18" d="M59.15,91.33c-.04.6-.77.22-1.11.2-1.02-.04-1.33.01-2.14.6-.34.25-.54.72-.97.72-.03,0-.05-.01-.09-.01-.28-.62.23-1.01.39-1.57-1.18-.44-1.85-.31-2.9.29-.53.29-1.24,1.01-1.66,1.21-.17.08-.33.1-.51.07-.48-1.26,1.73-2.6,2.73-2.94.35-.11.81-.17,1.27-.14.81.02,1.61.31,1.87.99.99-.42,2.75-.73,3.12.59"/>
          <path class="cls-18" d="M59.4,60.77c-.12,1.14-.81,2.13-1.11,3.26-.31,1.15-.38,2.4-.75,3.55-.04.14-.48,1.44-.74,1.14.09-.38-.12-.75-.12-1.09,0-1.12.38-3.13.73-4.23.32-.97.95-2.3,1.99-2.63"/>
          <path class="cls-18" d="M55.45,34.46c.36-.11,2.1.11,2,.57-.09.4-1.96.24-2.22-.26-.03-.14.09-.26.22-.31"/>
          <path class="cls-18" d="M56.27,58.68c.34-.75,1.09-1.21.91,0-.04.31-.26.59-.58.65l-.34-.65h.01Z"/>
          <path class="cls-18" d="M57.06,88.34c.02.67-1,.03-1.37.05-.54.02-.96.54-1.5.54-.04,0-.09,0-.13-.01-.08-.6,1.02-1.23,1.51-1.3.45-.07,1.48.16,1.49.72"/>
          <path class="cls-18" d="M56.99,75.37l.06.26-1.98,3.96-.58.6c-.42.1-.68-1.53-.85-1.86-.36-.68-.91-.88-1.29-1.26-.02-.03-.42-.75-.39-.78.66-.03,1.13-.05,1.69.34.46.32.63.93,1.36.68.24-.08,1.28-1.97,1.98-1.94"/>
          <polygon class="cls-18" points="56.14 64.3 56.14 64.43 56.01 64.36 56.14 64.3"/>
          <path class="cls-4" d="M55.52,86.56l.04,1.07c-.49.08-1.59.71-1.51,1.3.04.01.09.01.13.01l-.03.82c-.47-.03-.92.03-1.27.14-1,.34-3.21,1.67-2.73,2.94.18.03.34.01.51-.07.42-.2,1.13-.91,1.66-1.21,1.06-.6,1.73-.73,2.9-.29-.16.55-.68.95-.39,1.57.03,0,.05.01.09.01v1.56H17.44v-.26h1.04l-.26-1.83c.48.01.85.67,1.35.51.05-.02.7-.94.72-.99.08-.29-.34-1.14.03-1.59.28-.2,1.12.47,1.76-.2,1.16-1.17-.24-2.88-1.13-3.73.39-.04.71-.28.86-.64l-.06-1.04c.81-.28.89-.95.64-1.71l1.96.52c.66,1.03.43,1.16.67,2.25.24,1.04.81.71.89-.23.06-.62-.11-1.47-.39-2.02.48-.6.49-1.52.69-2.24.06-.22.03-.42.36-.36.17.45.65,1.46.65,1.88v3s-.18.18-.13.33c.38.36,1.08-1.2,1.14-1.53.09-.57.03-1.67-.11-2.25.46.23.67.84,1.18.91-.08.53-.01,1.88.16,2.39.05.17.16.29.29.09.27-1.2.17-2.54.78-3.65.13-.25.42-.68.59-.9l.77-.13.27.78c-1,.76-1.62,2.32-1.27,3.55l.49.88c.59-1.27.69-3.5,2.14-4.18.46-.22.79-.01,1.19-.25.23-.22-.16-.61-.33-.65l1.03-1.44c1.07,1.2.88,1.83,1.53,2.96.09.14,0,.23.29.16.34-.64.5-.93.34-1.7-.09-.4-1.08-1.99-1.38-2.21.49-.35.96-.79,1.57-.91.63,1.13,1.36,1.99,1.21,3.43l.42,1c1.06-.86.56-2.58-.04-3.6-.1-.17-.7-1.01-.81-1.09.32.03.57-.17.87-.03.59.25,1,1.23,1.61,1.47,0,.77-.13,2.44.12,3.08.17.47.29-.03.52-.14.13-.05.31.11.46-.07.35-.37.68-1.33,1.07-1.82.21-.27.7-.78.96-.99.35-.28.7-.31.91-.46l1.31.26c-.31.12-1.15.64-1.42.86-.66.52-1,1.13-.92,2.01.24.25,1.54-.79,1.84-.97.86-.51,1.76-.96,2.6-1.51-.08.46,1.03.43,1.18.34l.25-1.25c.68.71,1.53,1.29,2.24,1.99l.54.09.1.48c-1.11.23-1.88.95-2.25,2.25-1.21-.05-2.47.38-3.5.99-.56.33-1.13.6-1.04,1.37.57.07.94-.46,1.44-.72,1.17-.62,2.57-1.08,3.85-.46l.18.52c-1.04.3-3.07,1.05-2.59,2.47.27.2,1.71-.69,2.08-.84,1.04-.42,2.4-.95,3.56-.7.31.08.71.61,1.03.61M49.76,80.78c.1-.15.22-.43.12-.58-.45-.64-2.68.9-2.28,1.67.07.13.25.26.4.26.24,0,1.62-1.12,1.76-1.36M46.64,89.52c.15-.11.33.01.25-.33-1.12-.15-1.91.26-2.6,1.11-.57.7-1.11,1.72-.46,2.53l1.83-2.59c.3-.27.66-.48.98-.73M45.45,87.3l.13-.46c-.98-.38-1.89.1-2.72.6-1.69,1.01-2.88,2.87-1.38,4.61.14-2.4,1.72-4.1,3.97-4.75M43.63,85.67c-.04-.59-1-.83-1.48-.77-1.16.11-2.92,2.06-3.07,3.2-.1.7.05,1.34.25,2,.35.04.21,0,.26-.18.45-1.51.54-2.53,1.89-3.59.75-.59,1.26-.48,2.14-.65M37.96,91.66c.7-1.03.27-2.94-.35-3.95-.4-.66-1.36-1.63-2.2-1.33,0,.36.58.55.78.78.36.37,1.17,1.87,1.17,2.35v2.54c.25.03.47-.22.59-.39M35.48,91.4c.62-1.51-.2-4.86-2.08-5.08-.23-.03-.99-.14-.85.26.31-.02.77.1,1,.3.68.59,1.08,2.15,1.2,3.04.08.52-.08,1.03.14,1.55.21.52.42.35.59-.08"/>
          <path class="cls-18" d="M52.95,44.87c.27,0,2.57-.71,2.54-.2-.53.7-1.69,1.12-2.54,1.12-.46,0-1.18-.3-1.56-.27-.25.02-.56.38-.85.46-.65.18-1.7.05-2.35-.13-.23-.07-.48-.33-.7-.3-.38.04-.74.55-1.57.49-.38-.02-2.26-.64-1.91-1.16.84-.35,1.41.21,2.28.13.45-.03.88-.39,1.04-.39s.69.42,1.08.49c.41.08,1.25.09,1.66.04.4-.04.54-.34.91-.39.7-.11,1.31.16,1.95.12"/>
          <path class="cls-18" d="M55.23,58.68c.33,1.16-1.16,1.93-1.04.52.02-.21.14-.57.35-.63.25-.14.54.1.7.11"/>
          <path class="cls-18" d="M55.23,61.42h-.13c.08,0-.04-.1.13,0"/>
          <polygon class="cls-18" points="55.23 63.84 55.1 63.9 55.1 63.77 55.23 63.84"/>
          <polygon class="cls-18" points="55.23 67.35 55.1 67.42 55.1 67.29 55.23 67.35"/>
          <polygon class="cls-18" points="55.1 69.57 54.97 69.64 54.97 69.51 55.1 69.57"/>
          <path class="cls-18" d="M53.27,69.57v.13l-.13.07c0-.09.02-.18,0-.26,0,0,.13.06.13.06Z"/>
          <path class="cls-18" d="M52.98,58.46c.33.34.1,1.14-.32,1.26-.85.25-1-1.27-.09-1.39l.4.13h0Z"/>
          <path class="cls-18" d="M52.43,79.27c.23.25.74,1.14.24,1.31l-.54-.09c-.71-.7-1.56-1.28-2.24-1.99-.37-.38-.71-.83-1.04-1.24,0-.3.99-.15,1.18-.07.14.07,2.22,1.86,2.41,2.08"/>
          <path class="cls-18" d="M52.49,69.64l-.07.13-.07-.13s.09-.01.13,0"/>
          <path class="cls-18" d="M52.23,69.64l-.13-.13c.12.02.13.13.13.13"/>
          <path class="cls-18" d="M49.93,41.73c.59-.06,2.71-.98,2.13.24-1.38.7-2.98,1-4.33.08-1.24.7-2.51.72-3.87.45-.19-.03-.37-.22-.57-.22s-.4.21-.65.25c-.37.05-1.15.04-1.54,0-.32-.03-1.73-.41-1.64-.83.4-.46,1.04-.09,1.5-.07.74.02,1.5.04,2.22-.14.46.57,1.56.46,2.35.4.7-.05,1.87-.64,2.32-.5.16.05.24.25.35.29.29.14,1.37.1,1.74.05"/>
          <path class="cls-18" d="M52.1,36.66c.08.31-.04.22-.16.31-.54.4-1.34.47-1.86-.03-.33-.32-.22-.74.21-.6.6.2,1.16.41,1.82.33"/>
          <path class="cls-18" d="M50.78,58.64c.06.45-.04,1.02-.37,1.35-.11,0-.28,0-.39,0-.87-.53.5-2.15.76-1.35"/>
          <path class="cls-18" d="M49.88,80.21c.1.14-.02.42-.12.58-.14.24-1.52,1.36-1.76,1.36-.15,0-.34-.13-.4-.26-.39-.77,1.84-2.32,2.28-1.68"/>
          <path class="cls-18" d="M48.27,59.48c.52-.03.57.38.45.77-.04.13-.11.25-.15.37l-.5.02s-.12-.1-.13-.21c-.02-.35,0-.73.34-.96"/>
          <path class="cls-18" d="M48.57,78.77l-.12.64c-.84.55-1.74,1-2.6,1.51-.29.17-1.6,1.22-1.84.97-.08-.88.26-1.49.92-2.01.27-.22,1.12-.74,1.43-.86.33-.13,1.42-.41,1.75-.38.14.01.31.1.46.13"/>
          <path class="cls-18" d="M48.06,47.61c.16,1.39-2.36,1.43-3.3,1.27-.31-.05-1.14-.41-1.26-.68-.11-.24.15-.19.28-.24.66-.18,1.33-.03,1.99-.09.75-.07,1.5-.38,2.28-.26"/>
          <path class="cls-18" d="M47.41,36.66c.39.34-1.39.74-1.53.75-.81.11-1.66-.05-2.45.03-.84.09-1.71.73-2.14-.52-.51.43-1.37.65-1.83.07-.08-.38,1.11-.59,1.37-.59.67,0,.73.6.92.64.69-.17,1.21-.57,1.94-.64,1.24-.11,2.48.36,3.72.26"/>
          <path class="cls-18" d="M46.89,89.19c.08.34-.1.22-.25.33-.32.25-.67.46-.98.73l-1.83,2.59c-.65-.82-.11-1.84.46-2.53.69-.85,1.48-1.26,2.6-1.11"/>
          <path class="cls-18" d="M45.58,86.84l-.13.46c-2.25.65-3.83,2.35-3.97,4.75-1.5-1.74-.31-3.6,1.38-4.61.83-.5,1.74-.98,2.72-.6"/>
          <path class="cls-18" d="M45.32,78.3c.02.1-.2.41-.26.46-.22.14-.57.17-.91.46-.26.21-.75.72-.96.99-.39.49-.72,1.45-1.07,1.82-.15.17-.33.01-.46.07-.23.11-.35.61-.52.14-.25-.64-.13-2.31-.12-3.08,0-.74,0-1.48,0-2.22l.39.09c.58.73.71,1.61.65,2.52.26.29,1.34-.85,1.64-1.02.26-.15,1.51-.73,1.61-.22"/>
          <path class="cls-18" d="M42.15,84.9c.48-.05,1.44.19,1.48.77-.88.17-1.39.07-2.14.65-1.35,1.05-1.45,2.08-1.89,3.59-.05.18.09.23-.26.18-.2-.66-.35-1.3-.25-2,.15-1.14,1.9-3.09,3.07-3.2"/>
          <path class="cls-18" d="M39.79,66c.64-.01,1.34-.27,2.02-.14-.48,1.57-3.46,1.54-3.92-.07.18-.26.18-.14.36-.11.52.1,1,.31,1.53.31"/>
          <path class="cls-18" d="M40.63,50.35c.21.28-.84.86-1.12.9-.75.11-1.81.12-2.27-.59.25-.71,1.03-.3,1.5-.32.59,0,1.24-.34,1.89,0"/>
          <path class="cls-18" d="M39.35,78.8c.6,1.02,1.1,2.74.04,3.6l-.42-1c.15-1.44-.58-2.29-1.21-3.43-.11-.19-.26-.42-.26-.65.07-.06.96.34,1.04.39.11.08.71.91.81,1.09"/>
          <path class="cls-18" d="M39.59,43.96c.04.21-.02.31-.12.47-.75,1.16-3.54.72-4.51-.05-1.13,1.44-3.22,1.19-4.69.41-1.27.88-2.74,1.28-4.06.24-1.66.97-3.63.4-5.12-.61-.01-.53,2.24.15,2.54.19.36.03.95.06,1.28,0,.5-.09.91-.7,1.31-.65.37.08.49.47.82.63,1.23.59,2.1-.36,3.1-.85.85.63,2.08.78,3.1.59.5-.1.94-.58,1.46-.63.54-.07.96.13,1.43.14.51,0,3.31-.11,3.46.12"/>
          <path class="cls-18" d="M39.38,47.62c.31.17.2.49.04.74-1,.27-2.12.5-3.16.42-.47-.03-1.19-.32-1.56-.26-.23.02-.5.32-.76.41-.71.28-1.45.27-2.18.04-.24-.08-.62-.41-.72-.41-.22-.02-.86.52-1.54.47-.57-.04-2.06-.61-1.32-1.29.58.16.92.46,1.56.39.64-.05.95-.6,1.56-.65.28.12.14.49.23.63.12.18,1.34.18,1.61.15.58-.07.91-.53,1.35-.59.73-.1,1.97.13,2.83.07.61-.04,1.56-.47,2.07-.12"/>
          <path class="cls-18" d="M37.61,87.71c.62,1.01,1.04,2.92.35,3.95-.12.17-.34.42-.59.39v-2.54c0-.48-.82-1.98-1.17-2.35-.21-.23-.77-.42-.78-.78.84-.3,1.8.66,2.2,1.33"/>
          <path class="cls-18" d="M37.58,81.1c.16.76,0,1.06-.34,1.7-.29.07-.21-.02-.29-.16-.65-1.13-.47-1.76-1.53-2.96-.07-.08-.23-.11-.26-.23-.16-.77.53-.92,1.04-.55.3.22,1.29,1.81,1.38,2.21"/>
          <path class="cls-18" d="M37.5,54.91c.04.96-1.47.86-2.14.77-.44-.07-.88-.45-1.31-.39-1.31,1.07-2.84,1.55-4.31.43-.63.61-1.28.88-2.19.72-.62-.12-1.49-.97-1.01-1.61l.32-.17.6.71c1.07.4,1.39-.55,2.16-.99.54-.07.46.64.85.85,1.12.64,2.14-.34,3.19-.45,1.2-.13,2.63.03,3.84.13"/>
          <path class="cls-18" d="M33.79,58.04c.64.05,1.36-.05,2.01,0-.1.6-.96,1.01-1.51,1.03-.3,0-2.21-.37-2.27-.6-.02-.1-.02-.49.03-.56.6-.35,1.13.06,1.74.12"/>
          <path class="cls-18" d="M33.4,86.32c1.88.22,2.7,3.57,2.08,5.08-.16.42-.38.6-.59.08-.22-.52-.07-1.03-.14-1.56-.12-.88-.51-2.45-1.2-3.03-.23-.21-.7-.33-1-.3-.14-.4.62-.29.85-.26"/>
          <path class="cls-18" d="M34.38,81.11c.16.04.55.44.33.65-.39.24-.73.03-1.18.25-1.46.67-1.56,2.9-2.14,4.18l-.49-.88c-.35-1.23.27-2.78,1.27-3.55.45-.35,1.66-.8,2.22-.65"/>
          <path class="cls-18" d="M33.78,34.46c.15.02.93.22.73.5-.45.16-.86.44-1.36.39-.35-.02-1.14-.33-1.12-.77.57-.12,1.16-.21,1.75-.12"/>
          <path class="cls-16" d="M34.25,28.84c-.76.04-1.53-.04-2.3,0-.78.03-1.67.21-2.47.26-1.79.13-3.6.1-5.34.65-.38-.13-.53-.47-.92-.64-.21-.09-.65-.13-.69-.16-.02-.02-.1-.42-.22-.62-.47-.73-1.51-1.16-2.35-1.19-.48-.01-.98.33-1.39.24-.7-.12-1.41-.77-2.06-1.02h1.63c.67-.26,1.49.11,2.01-.46.05-.23-1.2-1.08-1.44-1.3-.92-.87-1.6-1.97-1.95-3.2l2.73-.65-.9-1.42c.7-.22,1.06-1.17,1.31-1.83l.9,1.12c.45.22.53-.38.91-.34.2,1.01,1.25,1.35,2.09.77.15.95.46,2.05,1.63,1.97.36-.03.56-.27.89-.26.73,1.19,1.95,1.36,2.95.38.12,1.32.78,2.31,2.22,1.83.11.96.72,2.09,1.83,1.96-.03.71,0,1.4.18,2.09.18.65.66,1.16.73,1.82"/>
          <path class="cls-18" d="M31.9,79.94c.02.51-.49.76-.78,1.18-.16.22-.46.65-.59.9-.61,1.11-.51,2.46-.78,3.65-.13.21-.24.09-.29-.09-.17-.51-.24-1.86-.16-2.39.03-.18.31-.87.41-1.09.46-1.01,1.14-1.77,2.2-2.16"/>
          <path class="cls-18" d="M30.86,64.56c.06.27-.15.28-.29.41-1.31,1.12-2.85,1.35-4-.1-.13-.58,1.19-.09,1.49-.05,1.02.08,1.83-.12,2.81-.26"/>
          <path class="cls-18" d="M28.25,52.63c.12.53-2.02.97-2.4.99-.55.02-1.08-.21-1.56-.14-.53.08-1.16.69-1.71.77-.99.16-1.87-.11-2.48-.9h-.18c-.28.87-2.12.54-2.09-.39.47-.03.88.18,1.37.14.35-.03.62-.3.9-.27.41.04.86.7,1.83.66.81-.02,1.24-.68,1.84-.78.61-.1,1.15.12,1.66.11.9,0,2.01-.74,2.82-.19"/>
          <path class="cls-18" d="M28.12,82.27c.14.58.2,1.69.11,2.25-.07.34-.76,1.89-1.14,1.53-.06-.14.13-.29.13-.33v-3c0-.42-.48-1.44-.65-1.88-.12-.3-.35-.53-.26-.91.89.38,1.6,1.41,1.82,2.34"/>
          <path class="cls-18" d="M25,58.23c.74,1.36,2.48-.16,3.51.52-.9,1.12-2.62,1.09-3.71.24-1.11.91-2.39.57-2.81-.82.52-.07.91.63,1.37.63.47,0,.97-.57,1.43-.64l.2.06h0Z"/>
          <path class="cls-2" d="M27.86,38.62c-.58.03-1.18-.04-1.75,0-1.41.1-2.89.46-4.3.52-2.65.14-4.97-.14-7.66.31-2.82.46-4.43.84-7.33.86-3.04.02-6.04-.13-9.07-.25v-.91c.91,0,1.74-.4,2.54-.75,1.42,1.45,3.78,1.23,5.47.36,1.75.91,4.12.98,5.93.2.67-.29,1.06-.73,1.63-1.11.41.14.73.35,1.17.39.66.08,1.45-.22,1.95-.13.45.08,1.07.68,1.77.78h.13c.37.03.94.03,1.29,0h.13c.75-.12,1.5-.65,2.02-1.17.22-.22.31-.62.65-.65l5.41,1.57.02-.02Z"/>
          <path class="cls-18" d="M25.52,83.45c.28.56.45,1.4.39,2.02-.09.93-.65,1.27-.89.23-.24-1.09-.01-1.22-.68-2.25-.03-.04-.02-.16-.08-.25-.09-.14-.87-.83-.38-.92.55-.1,1.39.72,1.63,1.17"/>
          <path class="cls-18" d="M23.49,77.98c1.04,0,1.79,2.52.26,2.61-.45.03-.76-.17-1.27-.1-.29.03-1.56.46-1.66.68.75.35,1.32.97,1.57,1.75.25.76.17,1.42-.64,1.71l.07,1.04c-.15.36-.47.6-.86.64.89.85,2.3,2.56,1.13,3.73-.64.66-1.48,0-1.76.2-.37.45.04,1.29-.03,1.59-.02.05-.66.97-.72.99-.5.16-.87-.5-1.35-.51l.26,1.83h-1.04c.03-.71-.54-2.58.35-2.84.4-.1,1.15.16,1.51.37.15.09.02.29.22.25-.61-1.35.13-2.43,1.58-2.53.81-1.37-1.76-2.31-1.89-3.32-.1-.73.76-1.04,1.36-.92.37-1.16-2.48-1.54-2.34-2.14.5-.59,1.45-.26,2.04.03.18.1.99.77,1.08.68.07-1.18-.88-1.57-1.63-2.22-.1-.16-.09-.34,0-.52.11-.2,1.77-.77,2.13-.87.57-.16,1.12-.37,1.72-.29v-.46c-.23-1.04-2.94.2-3.12-.66l.75-.92,1.2-2.26c-.83.22-2.05.67-1.96,1.7-.14.01-.29.02-.45,0-.54-.1-2.92-2.06-3.17-2.57-.45-.91.01-1.6.88-1.93l-1.56-.4c-1.23-1.25,2.02-1.29,2.06-1.69-.17-.68-.57-1.04-1.25-1.21-.4-.1-2.37-.07-2.25-.62.12-.53,2.14-.54,2.61-.33-.18-1.56-1.56-2.09-2.35-3.19,0-.36,1.34-.98,1.7-1.18.1-.06.37-.02.26-.25-.21-.42-1.35-.3-1.72-.16-.35.13-.7.64-1.01.14l-.11-.26c.01-.55.61-.71.86-1.04.1-.12.67-1.32.67-1.41-.79-.65-1.77.37-2.64.16l-.45-.26-.04-1.14-2.61-.45c-.38-.46.15-.56.4-.78.63-.61,1.21-1.13,1.43-2.02-.88.08-1.86.47-2.54,1.04-.23.18-.73,1.08-.85.07-.08-.72.12-1.43-.25-2.15-.73,0-.54,1.73-.98,1.83-.39-.17-.63-.5-1.03-.66-.65-.26-2.4-.32-2.69-.7-.48-.64,1.24-1.29.59-2.02-.58-.66-1.61.04-2.19.4-.49.32-.86.91-1.51.75-.26-.52.24-.93.35-1.39.07-.22,0-.49.07-.72.11-.44.3-.83.36-1.27-1.22.02-2.42,1.22-2.42,2.48-.24.26-.52.26-.85.13v-2.09c.55.62.92-.32,1.37-.65.51-.37,1.32-.54,1.94-.36.91.26-.27,2.07-.04,2.32l1.43-.71c.97-.64,2.81.37,2.56,1.5-.13.57-.63.65-.74,1.16.77,0,1.62-.03,2.28.38,1.13-2.19,2.26-1.26,2.41.79.98-.53,2.21-1.22,3.33-.79v.92l-1.24,1.95c1.03.03,3.01.03,2.47,1.57,2.17-.98,3.69-.05,1.96,2.09,1.26-.15,3.07.5,3.08,1.96-.48,1.06-1.58-.04-2.29.72l1.24.97c.61.74,1.38,1.73.73,2.67.86.74,1.21,1.83.97,2.95l-.59.26c.08.47.54.49.37,1.08-.19.6-1.5.7-1.41,1.07l2.31,1.75c.64-.47,2.24-1.58,3.03-1.1,1.04.62-1.19,2.5-1.31,3.2h1.89l-.03-.05Z"/>
          <path class="cls-16" d="M21.19,77.76l1.2-2.26c-.83.22-2.04.67-1.96,1.7-.14.01-.29.02-.45,0-.09-.02-.24-.1-.42-.2.41.45.77.93,1.08,1.44l.55-.67h0Z"/>
          <path class="cls-16" d="M20.95,79c.19.39.36.8.49,1.22.17-.06.32-.1.39-.12.57-.16,1.12-.37,1.72-.29v-.46c-.17-.79-1.76-.27-2.61-.35"/>
          <path class="cls-7" d="M8.53,65.06c1.09,3.26,2.17,6.53,0,9.79,2.17-1.09,4.35-2.18,6.53-1.09.67.34,1.32.7,1.93,1.1-.08-.09-.14-.17-.17-.23-.44-.91.01-1.6.88-1.92l-1.56-.4c-1.23-1.25,2.02-1.29,2.06-1.68-.17-.69-.57-1.05-1.25-1.21-.4-.1-2.37-.07-2.25-.62.12-.53,2.14-.54,2.61-.33-.19-1.55-1.56-2.09-2.35-3.19,0-.36,1.34-.98,1.7-1.18.1-.05.37-.02.26-.25-.21-.42-1.35-.3-1.72-.16-.35.13-.7.64-1.01.14l-.11-.26c.01-.56.61-.71.86-1.04.1-.12.67-1.32.67-1.41-.79-.65-1.77.37-2.64.16l-.45-.26-.04-1.14-2.61-.45c-.38-.46.15-.55.4-.78.63-.61,1.21-1.13,1.42-2.02-.88.08-1.86.47-2.54,1.05-.23.18-.73,1.08-.85.07-.08-.72.12-1.44-.25-2.15-.73,0-.54,1.73-.98,1.83-.39-.17-.63-.5-1.03-.66-.65-.26-2.4-.32-2.69-.7-.48-.64,1.24-1.29.59-2.02-.58-.66-1.61.04-2.19.4-.49.32-.86.91-1.51.75-.26-.52.24-.93.35-1.39.07-.22,0-.49.07-.72.11-.43.3-.83.36-1.27-1.22.02-2.41,1.22-2.41,2.48-.24.26-.52.26-.85.13v4.84c4.15.36,8.09,2.46,10.78,5.82"/>
          <path class="cls-16" d="M20.44,78.68l.21-.25c-.31-.51-.67-.99-1.08-1.44-.75-.45-2.09-1.56-2.58-2.14-.61-.39-1.25-.76-1.93-1.1-2.18-1.09-4.35,0-6.53,1.09,2.18-3.26,1.09-6.53,0-9.79-2.69-3.36-6.62-5.47-10.78-5.82v2.06c1.09.17,2.57.91,2.28,2.22-.9-.18-1.52-.86-2.28-1.31v3c.49-.35,1.46-.48,1.7.18l-1.7.98v1.83c.16-.09,1.17-.24,1.17-.07-.16.58-.73,1.01-1.17,1.37v.52l2.48-.72.22.26c-.4.85-.38,1.69-.35,2.61,0,.38.31.82,0,1.17-1.5.2-1.03-2.12-.92-3.07l-1.44.78v9.65c.38-.21.54-1.17,1.09-1.03.68.17-.05,1.57.88,2.13.91.54,1.69-.38,2.6-.25-.82,2.01-3.31,1.89-4.14-.03l-.42-.03v6.25l.49-.38c.93-.28.79,1.94,1.92,1.89,1-.13.4-1.9,1.17-2.05.13-.01.25,0,.38.01.14.02,2.51,1.07,2.73,1.18.27.17.99.79.35.96-1.04.27-1.85-.46-2.74-.84-.31,2.08-2.64,2.73-3.65.78l-.27.08-.38.43c.01,1.52,0,3.04,0,4.57h19.69v-.26c.03-.71-.54-2.58.35-2.84.4-.1,1.15.16,1.51.37.15.09.02.29.22.25-.61-1.35.13-2.42,1.58-2.53.81-1.37-1.76-2.3-1.89-3.32-.1-.73.76-1.04,1.36-.92.37-1.16-2.48-1.55-2.34-2.14.5-.59,1.45-.26,2.04.03.18.1.99.77,1.08.67.06-1.17-.88-1.57-1.63-2.22-.1-.16-.09-.34,0-.52.08-.15,1.12-.54,1.74-.74-.13-.43-.3-.83-.49-1.22-.27-.02-.47-.11-.52-.32M4.66,67.61c-.02-.16,0-.27.13-.39.35-.33,1.38-.73,1.82-1.04.12-.09.52-.42.4-.58-.59-.51-2.62.61-2.94.13-.36-.48,1.22-2.51.38-2.74-.83-.22-1.13,1.76-1.82,1.18-.61-.72.48-1.91,1.21-2.07,1.85-.39,1.67,1.17,1.34,2.45h2.02c.31,0,.88.71.86,1.1-.06,1.2-1.51.84-2.23,1.44,0,.14,2.24.39,1.9,1.5-.28.95-1.17.02-1.64-.2-.36-.16-1.39-.33-1.43-.78M5.77,86.06c-.29-.28-.78-.99-.13-1.05.49-.04,1.57,1.59,2.15.34.23-.57-.6-1.43-.27-1.84.33-.38.95,0,1.48-.08.42-.07.83-.4,1.25-.51l-.23-.96.15-.43c.67-.25,1.47-.18,1.91-.89.07-.29-1.7-1.15-1.04-1.54.74-.45,2.19.61,2.22,1.45-.09,1.01-1.1,1.42-1.94,1.76.23,1.51-1.27,1.99-2.49,2.07.34,1.89-1.65,3-3.07,1.7M16.19,88.01c-.53.81-1.2.65-2.06.67-.65.96-1.48,1.44-2.66,1.07-.5-.15-.6-.62-1.07-.68-.34,1.02-1.15,2.54-2.45,1.98-.84-.36-.75-2.29.09-2.58.17-.06.22-.1.34.07l-.06,1.62.3.07c.78-.36.97-2.65,1.61-2.84l.44.04c.47.64.9,1.92,1.95,1.43.83-.37.25-1.48.96-1.79.65-.29.39.87,1.33.7,1.13-.22-.43-2.76-.33-2.87,1.47-.08,2.42,1.92,1.62,3.12"/>
          <path class="cls-9" d="M21.58,31.34c.57-.28.76-.64.7-1.05-.21-.04-.41-.08-.55-.21-.53-1.55-1.13-1.93-2.78-1.75-.43.05-2.06.62-2.34.89-.15.14-.06.42-.21.61-.17.23-.67.14-.86.45-.16-1.04-.91-1.69-2-1.35-1.16.37.09,1.43-.79,2.07l-.44.04c-.51-.14-.94-2.13-1.41-2.63-.29-.33-.67-.22-.88-.57-.17-.52.53-1.01.13-1.65-.22-.33-1.21-.13-1.58-.4l-.25-1.32c-1.38-1.85-4.03.29-3.66,2.23l-.12.26c-.86.01-1.53.22-2.15.85-.47.7.58,1.71.68,2.43-.49,1.42-1.14,1.67-2.12.43-.1,0-.33.85-1.11.6-.6-.18-.41-.52-.55-.89-.2-.54-1.04-.71-1.53-.88v3.13c7.94,4.1,15.89,3.68,23.83-1.28"/>
          <path class="cls-16" d="M21.9,32.91c1.04-.22,1.34-1.02,1.12-2.02-.1-.45-.42-.53-.73-.6.06.41-.14.77-.7,1.05-7.94,4.96-15.89,5.38-23.83,1.28v5.34c.69-.18,1.29-.29,1.95-.6.51-.25,1.21-1.08,1.7-.23.25.46-.25.98.85,1.09,1.42.15,2.29-.25,3.5-.89,1.56,1.25,3.68,1.09,5.47.47.6-.21,1.77-.89,2.26-.98.27-.04.82.37,1.28.37.61,0,1.14-.33,1.7-.52,1.14.64,1.58,1.12,2.99.76.26-.07,1.74-.58,1.5-.89l-.26-.08c.22-.6.65-.49,1.06-.77.28-.2,1.51-1.68,1.29-1.89-.7.05-1.58,0-1.14-.89"/>
          <path class="cls-18" d="M20.69,55.56c.08.71-1.07.99-1.62,1.04-.8.08-2.34.13-2.54-.85.38-.42.98-.05,1.5-.05.88,0,1.77-.51,2.67-.14"/>
          <path class="cls-18" d="M19.2,50.46c1.05,0,1.15.82.1,1.03-.95.18-1.85-.08-2.57.03-.37.05-.72.36-1.09.48-1.42.46-3.4.31-4.55-.74-.43.24-.74.55-1.24.68-1.01.26-2.23-.12-2.46-1.21.51-.13.93.18,1.38.24.91.13,1.57-.17,2.34-.61.91.91,2.67,1.08,3.87.72.41-.12.75-.41,1.22-.48.7-.09,2.25-.14,2.99-.15"/>
        </g>
      </g>
      <g class="cls-19">
        <g>
          <path class="cls-5" d="M49.17,64.82c.28,1.01.45,2.28.8,3.23.1.25.15.45.44.54-.09-.37-.08-.91-.17-1.33-.43-1.9-1.08-3.9-1.9-5.67.3-.85,1.08.36,1.32.78,1.13,1.99,1.93,4.85,1.93,7.12.17.02.37-.03.52,0,.12.02.13.13.13.13.04.01.09-.01.13,0s.09-.01.13,0c.22.04.45.07.65.13,0-.09.02-.18,0-.26-.03-.13-.21-.29-.25-.6-.21-1.57-.14-3.12-.44-4.77-.16-.87-.29-1.93-.86-2.62-1.17-.21-2.33-.45-3.51-.72.22,1.45.68,2.63,1.08,4.02"/>
          <path class="cls-5" d="M53.81,66.7c.05.95.1,2.2-.27,3.07l1.44-.13v-.13c.03-.5-.03-1,0-1.5,0-.21.12-.41.13-.59v-.13c.04-1.07.06-2.32,0-3.38v-.13c-.03-.59-.14-1.17-.27-1.74-.77-.11-1.55-.24-2.33-.37.69.99,1.24,4.16,1.3,5.04"/>
          <path class="cls-5" d="M66.3,69.38c-.17.15-.24.01-.25-.2-.03-.6.03-1.23,0-1.83-.08-1.36-.21-2.47-.69-3.74-.05-.14-.18-.41-.33-.72-1.07-.04-2.13-.09-3.2-.16-.39.92-1.02,2.23-1.13,2.53-.5,1.36-.72,2.75-1.17,4.11l2.34-.4c.19-1.11.41-2.34.86-3.37.21-.49.52-1.2,1.11-1.3l-1.04,4.56.65.07c.91,1.87,3.43,1.65,5.21,1.76-.21-2.62-.44-5.24-1.29-7.74-.44,0-.88-.02-1.33-.03,1.11,2,1.19,4.33.26,6.46"/>
          <path class="cls-5" d="M71.94,63.47l-1.46,3.82c.03-.51-.28-.99-.26-1.49.02-.78.36-1.91.94-2.84-.91,0-1.83,0-2.74,0,.91,2.41,1.48,5.22.63,7.72h2.15c.37-.24.08-.53.07-.85-.05-1.91,1.04-4.48,2.27-5.93.13-.15.56-.61,1.02-1.02-.76.02-1.52.04-2.28.05l-.34.53h0Z"/>
          <path class="cls-5" d="M58.29,64.04c-.31,1.15-.38,2.4-.75,3.55-.04.14-.48,1.43-.74,1.14.09-.38-.12-.75-.12-1.09,0-1.12.38-3.13.73-4.23.1-.31.24-.66.41-1-.69-.07-1.38-.16-2.07-.25.26.68.34,1.61.39,2.15v.13c.1,1.28.17,3.12-.29,4.33-.14.38-.4.64-.49,1.01h2.68l1.04-.25c.18-.27-.05-.68-.08-.99-.09-1.88.78-4.31,2.08-5.84-.74-.05-1.48-.12-2.21-.19-.21.5-.44,1-.58,1.54"/>
          <path class="cls-17" d="M92.37,56.48c-.33.17-.75.15-1.11.13-.56-.02-1.26-.08-1.82-.13-1.03-.11-2.06-.29-3.07-.52-.04.41.41.22.66.58.05.09.13.15.12.27-.48.65-1.04,2.97-2.06,1.8l-.03-.57-1.34.16-.16.1c-.27.71-1.17,2.28-1.62.85l.39-.84c-.48-.02-.97.02-1.43,0v.39c-.21-.07-.57.14-.65.13-.18,1.29-1.97,2.02-1.43.13-.76.33-2.03.38-2.87.65.03.2-.02.87-.21.92l-.42-.02c-.09-.21-.14-.41-.15-.64-.87.6-1.88.38-2.84.17-.24-.05-.49.07-.41-.3-.07.02-.17,0-.26,0-.02,0-.07.12-.28.11-.43-.02-1.27-.25-1.74-.36-.22-.06-.46-.03-.59-.27-.6.27-.64-.04-1.04-.13-.63-.13-1.77-.38-2.34-.39-.26,0-.65.14-1.04.13-.58,0-1.15.07-1.7-.13-.01.2-.44,1.03-.59,1.17-.65.62-.98-.57-.46-1.17l-1.7-.13c-.34.68-1.27,1.09-1.16,0l-1.83.13c-.04.3-.26.59-.58.65l-.34-.65c-.35,0-.7.03-1.04,0,.33,1.16-1.16,1.92-1.04.52l-1.24,1.18c-.54-.07-1.13-.09-1.68-.15-.3-.04-.65-.22-.86-.25-.11,0-.28,0-.39,0-.34.03-.89.33-1.31.26-.04.13-.11.25-.15.37l-.5.02s.02.1.03.15c1.17.27,2.34.51,3.51.72,0,0,0-.02,0-.02-.14-.35.52-.17.69-.08.08.05.15.14.23.25.78.13,1.56.27,2.33.37-.04-.18-.07-.37-.12-.54,0-.12.27-.05.39-.07.08,0-.04-.1.13,0,.23.13.4.4.52.72.69.09,1.38.18,2.06.25.36-.72.87-1.4,1.58-1.63-.06.6-.28,1.17-.52,1.73.74.07,1.48.14,2.22.19.19-.22.39-.43.59-.61.15-.13.22-.32.46-.26.04.05-.1.43-.3.92,1.07.07,2.14.12,3.2.16-.32-.67-.71-1.53-.55-1.73.56.23.96.77,1.27,1.26.11.16.19.33.28.49.44,0,.88.02,1.33.03-.05-.14-.09-.27-.14-.41-.12-.33-.79-1.61-.79-1.7.01-.18.13-.33.33-.33.72-.02,1.41,1.83,1.64,2.41,0,0,0,.02.01.04h2.74c.55-.9,1.32-1.62,2.19-1.66l-1.07,1.65c.76,0,1.52-.03,2.28-.05.52-.46,1.08-.87,1.26-.68.02.27-.12.47-.3.65,1.35-.04,2.7-.1,4.04-.16-.14-.44-.16-.81.1-.88.39.09.72.42.99.83.61-.03,1.23-.06,1.84-.09-.21-.57-.43-1.19-.43-1.45,0-.49.33-.62.66-.26.24.25.55.94.81,1.66.71-.04,1.42-.07,2.13-.11l-.21-1.28.26-.07c.24.37.48.82.68,1.31.72-.04,1.44-.08,2.16-.11.13-.21.26-.42.41-.61.26-.3.67-.74,1.1-.84,0-.03.01-.05.02-.08v.08c.12-.02.25-.03.37,0,.15.04.21.15.22.3.02.2-.24.61-.54,1.05.74-.04,1.48-.07,2.23-.1v-5.57h0ZM88.34,59.54l-.26-.54c-.07-.6.96-1.64,1.52-1.72.33-.05.76.23.77.55.02.49-1.35,2.18-2.03,1.71"/>
          <path class="cls-4" d="M83.86,70.48c-.06.08-.1.16-.16.24.09-.02.19-.05.28-.07-.04-.06-.09-.11-.12-.17"/>
          <path class="cls-4" d="M92.24,71.2h.13v-.87c-1.44-.16-2.88-.22-4.32-.17.1.06.19.12.24.17.86.8,1.78,3.01.76,3.99-.21.06-.27-.16-.36-.29-.36-.55-.45-1.48-.73-2.13-.22-.51-.78-1.14-1.05-1.67-.57.05-1.14.12-1.71.2.77.6,1.42,1.76,1.53,2.42.09.54.13,1.96-.68,1.47-.49-1.01-.66-2-1.37-2.92-.09-.12-.47-.45-.7-.75-.09.02-.19.05-.28.07-.27.38-.54.76-.78,1.17.11.04.22.07.33.11l-.13.45-.58.14s-.04.07-.06.1c.02-.03.04-.07.06-.1l-14.93,3.58c-.04.62.2,1.36-.33,1.83-.5.12-1.04-1.94-1.21-2.31-.15-.35-.4-.64-.54-.96-.31.17-.03,1.2-.13,1.31l-.65-.13c.45.54,1.36,1.78,1.24,2.48-.02.18-.15.58-.39.52l-2.67-3.65c-.13.05-2.2-.4-2.67-.39-1.09.02-2.14.71-3.2.78l-1.98,3.96-.58.6c-.43.1-.69-1.53-.85-1.86-.36-.68-.91-.88-1.29-1.26-.74.08-1.64-.16-2.34.13.14.07,2.22,1.86,2.41,2.08.23.25.74,1.14.24,1.3l.1.48c.4-.1.86-.12,1.35-.08.64.05,1.5.45,2.09.4.45-.04,1.17-.73,1.88-.87,1.03-.2,3.29.08,3.13,1.5-.48.16-.72-.22-1.04-.33-1.17-.37-1.91-.48-2.99.27-.4.13-.97,1.37-1.24,1.37-.46,0-.5-.75-.33-1.04-.93-.05-2.28-.59-3.12-.07-.2.12-.9.84-1.06,1.03-.09.11-.17.14-.12.33.52.13.9.47.91,1.03,1.03-.09,2.47-.27,3.18.67.15.2.5.84.41,1.03-.09.17-.2.24-.31.24l.04,1.07c.45-.07,1.48.16,1.49.72.02.67-1,.03-1.37.05-.54.02-.96.54-1.5.54l-.03.82c.8.02,1.61.3,1.87.99.99-.42,2.75-.73,3.12.59-.04.6-.77.22-1.11.2-1.02-.04-1.33.01-2.14.6-.34.25-.54.72-.97.72v1.55h37.44v-3.39h-.13c-.02.33-.21.52-.52.34-.58-.42-.14-2.81.52-3.2h.13v-3.13c-1.61,1.25-2.01,3.37-2.61,5.21-.35.04-.21,0-.25-.2-.32-1.29,0-2.99.67-4.14.45-.77,1.22-1.85,2.19-1.92v-11.2h-.13c-.05.43-.39,1.19-.93.84-.39-.87.3-1.58.66-2.32l.26-.09h.03ZM84.42,77.13c.58-.48,1.18-.84,1.96-.72.33.3-1.7,1.9-1.89,2.09-.33.32-.57.77-.97,1.11-.19.15-1.08.88-1.18.39.34-1.08,1.23-2.17,2.09-2.87M80.73,74.24c.46,0,.94.54.58.95-1.91,1.42-2.6-.89-.58-.95M79.62,78.46c.48-.84,1.68-2.5,2.68-2.66.38-.07.72.07.5.49-.59.68-1.22,1.32-1.74,2.05-.35.48-1.21,2.19-1.51,2.39-.16.11-.27.16-.47.13-.37-.88.12-1.64.54-2.39M71,79.87c.31.24.44.59.39.98-.33.05-.56-.22-.86-.26-.88-.13-1.75.53-2.08,1.3-.61-.01-.68-.55-.52-1.05.27-.85,2.29-1.54,3.07-.97M68.88,78.92c.17.18.28.78-.04.87-.21.05-.99-.21-1.52-.1-.49.11-1.62,1.23-1.91,1.02-.57-1.59,2.59-2.74,3.48-1.79M57.44,79.79l-.51-.05c-.43-.44-.17-.82.02-1.28.46-1.11,1.33-2.21,2.19-3.02.32-.17.75-.04.64.37-.93,1.22-1.88,2.5-2.34,3.99M61.17,77.73c-.15.25-1.35,2.8-1.74,1.46-.3-.99,1.56-3.72,2.84-3.43.25.25-.89,1.65-1.1,1.97M61.22,90.09c-.27.04-.21.01-.28-.16-.25-.53-.27-1.32-.46-1.89-.17-.55-.61-1.3-1.02-1.72-.26-.27-1.18-.77-1.31-1.05-.1-.21.03-.37.21-.46.91-.46,2.65,1.55,3.01,2.33.46.97.26,2.01-.15,2.95M63.84,89.78c-.14.37-.41.5-.64.1-.24-1.24-.05-2.46-.34-3.7-.26-1.1-.85-2.07-1.25-3.12.29-.28,1.35,1.09,1.49,1.32.84,1.33,1.32,3.95.74,5.4M64.94,89.57c-.79-.23.21-2.7.44-3.21.23-.52.51-1.04.86-1.48.15-.18,1.02-1.13,1.24-.91l-2.14,5.47-.39.13h-.01ZM67.51,91.11c-.08.18-.01.21-.28.16-.78-1.7.27-3.3,1.36-4.56.34-.39,2.76-2.89,3.2-2.48.04.22-.11.35-.21.51-.82,1.35-2.28,2.51-3.11,3.94-.48.84-.6,1.61-.96,2.43M73.03,86.98c-.38.45-.85.97-1.17,1.44-.59.82-1.1,2.1-1.77,2.78-.12.13-.17.25-.39.2-.57-1.8,1.02-3.94,2.35-5.01.6-.49,1.01-.7,1.83-.59,0,.63-.57.86-.84,1.19M75.62,81.49c-.64-.57-.55-1.57-.77-2.34-.23-.8-.63-1.37-1.1-2.04-.05-.11.11-.27.2-.29,1-.29,1.9,2.05,1.99,2.81.03.29.09,1.88-.32,1.87M77.78,80.98c-.12-1.19.02-2.42-.67-3.44-.26-.38-1.13-.85-.54-1.25.75-.23,1.86,1.39,1.97,2.05.08.42.09,1.35,0,1.76-.03.21-.53,1.11-.75.88M78.56,83.32c-.02-1.5,2.9-2.54,3.26-.65-.55-.03-1.03-.22-1.61-.1-.32.07-1.51.9-1.65.75M81.56,91.01c-.65-.64-.52-1.68-.82-2.51-.21-.58-.72-1.17-.88-1.72-.15-.51.87.11,1,.24.99.93,1.5,2.82.7,3.99M84.81,92.18c-.23-1.48-.29-3.01-.85-4.43-.29-.76-1.04-2.12-1.62-2.67-.27-.25-1.28-.71-1.31-.78-.05-.18.02-.37.21-.43,1.52-.48,3.27,2.21,3.76,3.37.6,1.41,1.22,3.87-.2,4.95M87.57,89.8c-.05.13-.56.93-.61.95-.5-.05-.21-.37-.22-.58-.16-1.69-.2-3.42-.87-4.98-.22-.51-.65-.92-.68-1.48,2.34.15,3.11,4.4,2.37,6.09M88.99,79.1c-.26.4-2.33,1.38-2.84,1.46-.25.04-.39.07-.55-.17-.13-.68,2.78-2.19,3.52-1.88.02.24,0,.39-.13.6"/>
          <path class="cls-18" d="M92.37,83.97v1.04c-1.61,1.25-2.01,3.37-2.61,5.21-.35.04-.21,0-.25-.2-.32-1.29,0-2.99.67-4.14.45-.77,1.22-1.85,2.19-1.91"/>
          <path class="cls-5" d="M90.35,68.72c.65-1.45,1-3.06,2.02-4.3v-1.57c-.91.43-1.68,1.64-2.07,2.55-.04.09-.12.31-.21.54v-3.74c-.33.47-.7.96-.84,1.24-.54,1.14-.68,2.71-1.29,3.8-.1.18-.16.35-.41.29-.08-.44-.11-.91-.1-1.38.01-1.38.39-2.81,1.11-3.94-.72.04-1.44.08-2.16.12.45,1.08.7,2.35.36,3.31-.1.27-.25.51-.52.25l-.57-3.53c-.71.04-1.42.08-2.13.11.28.75.51,1.54.56,1.92.14.96-.01,1.7-.21,2.61l-.36-.22c-.18-1.12-.42-2.23-.72-3.33-.06-.22-.19-.57-.32-.93-.62.03-1.23.06-1.84.09.33.48.57,1.07.74,1.49.42,1.1.74,2.14.28,3.29-.11-.01-.29.04-.37-.01-.13-.08-.8-2.47-.96-2.89-.09-.25-.57-1.13-.79-1.82-1.35.06-2.7.12-4.04.16-.15.16-.33.31-.45.48-1.69,2.26-2.44,4.61-3.41,7.21l2.74-.26c-.13-1.47.36-2.84,1.01-4.13.58-1.12,1.49-2.83,2.89-2.9.21.21-1.21,2.1-1.4,2.44-.82,1.38-1.47,2.86-2.28,4.25l.04.48c.49-.15,1.09.24,1.66.35,2.19.45,4.48.39,6.6,1.11.29-.49.61-.95.94-1.4-.11-.19-.11-.36.13-.43.07-.02.14,0,.21-.01.34-.02.68.15,1.01.4.57-.09,1.14-.16,1.71-.2-.07-.14-.13-.28-.15-.4-.03-.2-.01-.23.18-.18.23.06.76.3,1.1.51,1.44-.05,2.88,0,4.32.17v-2.62c-.76.55-1.53,1.11-2.27,1.7v-.58c.09.03.19.02.25-.11M90.02,66.16h0s0-.01,0,0M89.96,66.34s0-.03.01-.04c0,.01,0,.03-.01.04M89.93,66.44s0,.03-.01.04c0-.01,0-.03.01-.04"/>
          <path class="cls-18" d="M92.37,54.91v1.57c-.33.17-.75.15-1.11.13-.55-.02-1.26-.08-1.82-.13-1.03-.11-2.06-.29-3.07-.52-.04.41.41.22.66.58.06.09.13.15.12.27-.48.65-1.04,2.97-2.06,1.8l-.03-.57-1.34.16-.16.1c-.27.71-1.18,2.28-1.62.85l.39-.84c-.48-.02-.97.02-1.44,0-1.56-.09-4.15-.19-5.35-1.23-.98-.85-.29-1.56.39-1.11.04.02.11.23.27.32,1.76,1.02,6.09.78,8.12.45.37-.07.75-.14,1.11-.26.25-.48-.28-1.28-.23-1.58.03-.21.27-.38.34-.59.6-1.86.78-3.84,1.88-5.55.35-.54.84-.63.63-1.52.17.03.28.21.36.36.47.86,1.03,2.44,1.29,3.39.4,1.45.64,2.95.55,4.46h.91c.34-2.99.03-6-.13-8.99.34-.08.28.13.36.36.79,2.45.86,5.25.82,7.8l.13.32.03-.02ZM89.38,55.3c.28-.28-.69-6.13-1.11-6.91-.38.65-.76,1.67-.84,2.43-.08.73.55,1.92.76,2.73.14.57.29,1.16.27,1.75h.92ZM87.68,55.17l-.52-2.61c-.35-.03-.21,0-.26.2-.09.27-.42,1.92-.38,2.07l1.16.35h0Z"/>
          <path class="cls-5" d="M82.73,48.24c-.62-.03-1.24-.08-1.85-.13.47.68.63,1.54.68,2.36l1.17-2.23Z"/>
          <path class="cls-5" d="M84.88,51.65c-.27.94-.45,2.4-.84,3.21-.26.54-.41.36-.56-.12-.39-1.36.83-4.68,1.57-5.91.04-.06.18-.28.36-.52-.7,0-1.4,0-2.1-.04-.55,1.32-.89,2.67-1.19,4.14-.12.62-.29,3.72-1.26,3.52-.34-.17-.44-.6-.47-.96-.2-1.79-.05-3.8-.13-5.6,0-.2-.04-.86.01-1.32-.7-.07-1.4-.15-2.1-.24.78,1.88.95,5.17.77,6.75-.06.44-.21.97-.58,1.25-.78-.59-.34-1.4-.31-2.14.06-2.03-.19-3.99-.58-5.95-.86-.12-1.71-.25-2.56-.39-.08.16-.13.3-.13.41.8.11,1.16,1,1.37,1.7.33,1.03.84,4.26.53,5.22-.17.54-.58.52-.79,0-.24-.6-.12-1.07-.2-1.63-.2-1.58-.28-3.38-1.11-4.75l-1.49,5.29c-.03.24-.01.17.18.18.46.02,1.45-.13,1.7.27.1.1.04.34.07.38.01,0,.18-.04.27.09.26.39.6,1.01.64,1.48.04.02.11.23.27.32,1.76,1.02,6.09.78,8.12.45.37-.07.75-.14,1.11-.26.25-.48-.28-1.28-.23-1.58.03-.21.27-.38.34-.59.6-1.86.78-3.84,1.88-5.55.14-.22.3-.36.43-.52-.64.04-1.27.07-1.91.08-.31,1.13-.75,2.22-1.09,3.34"/>
          <path class="cls-5" d="M89.73,50.97c.4,1.45.64,2.95.55,4.46h.91c.28-2.52.12-5.05-.04-7.57-.81.13-1.62.23-2.44.3.4.88.8,2.04,1.01,2.81"/>
          <path class="cls-17" d="M92.37,40.84c-.33.33-.54.86-1.09.78l-.22-.91c-.27.1-.97.11-1.29.13-.11.32-.57,1.2-.88,1.28l-.65-.14c-.11-.11-.18-.47-.16-.62-.46.09-1.16.04-1.57.13-.45.09-.03.29-1.04.26-.71-.03-1.5.19-2.22.26,0,.02-.36.41-.39.45-.43.35-.63.23-.9-.18h-.91c-.22.36-.58.73-.99.39l-.18-.39h-1.57c-.39.99-1.29.7-1.31-.26h-.91c.11.62-.62,1.16-.95.48-.07-.17-.14-.43-.1-.61-1.13-.04-2.26.1-3.38.26.25,1.82-1.47,1.76-1.04.13l-1.04.13c.07.29,0,.79-.35.89l-.43-.04c-.13-.09-.25-.43-.26-.6l-1.17.26c.13.8-.75,1.2-1.03.26l-1.31.26c.02.1,0,.22-.02.32-.14.38-.86.21-1.02-.05l-.51.14v.9c.17.2.3.29.42.44.67.13,1.35.27,2.03.41l-.11-.98c.37-.03.5.48.62.75.05.11.08.24.13.36.42.09.85.17,1.27.26-.08-.46-.16-.91-.2-1.37.53-.05.8.5.98.91.07.17.14.4.21.66.97.2,1.94.39,2.92.58.42-.8,1.03-1.61,1.76-1.76.08.08-.62.98-.72,1.17-.13.25-.25.48-.35.72.51.1,1.03.19,1.55.28.02-.04.04-.09.07-.13.43-.71,1.07-1.27,1.79-1.65.24.3-.59,1.29-.92,1.94.85.14,1.71.27,2.56.39-.07-.34-.13-.69-.21-1.03.23-.04.33.11.45.27.18.23.33.52.47.85.7.09,1.4.17,2.1.24.03-.26.08-.45.18-.45.17.15.3.32.43.5.62.05,1.24.1,1.85.13l.29-.54,1.01-.93c-.28.5-.51,1-.72,1.51.7.03,1.4.04,2.1.04.26-.35.58-.71.71-.57-.04.19-.1.37-.15.56.64,0,1.27-.04,1.91-.08.2-.23.32-.47.2-1.01.17.03.28.21.36.36.09.17.19.37.28.58.82-.07,1.63-.17,2.44-.3-.03-.47-.06-.95-.09-1.42.34-.08.28.13.36.36.1.32.19.64.27.97.23-.04.45-.08.67-.13v-6.8h-.03ZM74.63,44.07c-1.82.38-.8-2.47.26-.92l-.26.92ZM79.59,45.08c-.33-.23-.06-1.22.36-1.36l.4.14c.43.46-.08,1.54-.76,1.22M82.54,45.67c-.79,0-.38-1.53.15-1.69.14-.04.3-.04.43.04.36.24-.11,1.64-.59,1.64M85.53,44.1c-.88-.16-.59-1.4.02-1.55.84-.22.89,1.4-.02,1.55"/>
          <path class="cls-5" d="M71.2,51.91c-.05.19.02.46-.26.39-.77-.41.05-3.75.31-4.5.11-.3.27-.67.47-1.04-.98-.19-1.95-.38-2.92-.58.45,1.8.71,5.41.26,6.58-.09.23-.29.59-.53.71-.44-1.48-.16-2.99-.26-4.49-.06-1.01-.27-2-.45-3-.43-.09-.85-.17-1.27-.26.83,2.23.79,5.22.41,7.49l-.26-.2-.8-7.43c-.68-.14-1.36-.28-2.03-.41.07.08.13.17.19.31.61,1.32,1.26,4.67,1.21,6.1-.01.5-.37,1.84-.25,2.19.03.11.11.16.21.2,2.41.4,4.9.04,7.34-.11.1-.41-.13-.86-.12-1.23.02-1.31.8-4.22,1.51-5.46-.52-.09-1.03-.18-1.54-.28-.75,1.72-.73,3.18-1.21,5.01"/>
          <path class="cls-1" d="M4.27,55.56c.77,0,1.62-.03,2.28.38.17-.32.33-.57.5-.76-.88.05-1.76.07-2.64.08-.06.09-.11.18-.14.3"/>
          <path class="cls-21" d="M84.64,29.99c-3.06-.4-4.73-.53-7.83-.49-12.56.15-25.02-.57-37.54-.01-2.51.11-5.05.29-7.56.39-2.48.1-5.06.01-7.44.77-.04.82-.1,1.48-.56,2.19,1.03,1.39-.37,2.51-1.2,3.56l5.86,1.63c.24.2.2.36.43.6.11.1.09.14-.03.18-2.32.43-4.63,1.29-6.99,1.48-1.83.14-3.77-.11-5.59.02-3.14.22-6.38,1.55-9.65,1.17l-8.8-.39v11.2c.55.62.92-.32,1.37-.65.51-.37,1.32-.54,1.94-.36.91.26-.27,2.07-.04,2.32l1.44-.71c.97-.64,2.81.37,2.56,1.5-.1.43-.41.59-.6.86.88,0,1.77-.03,2.64-.08.56-.65,1.07-.61,1.43-.1,3.35-.3,6.33-1.07,7.66-3.07.11-.14.22-.27.33-.4-.28.11-.55.31-.83.4-1.42.46-3.4.3-4.55-.74-.44.24-.74.55-1.24.68-1.01.26-2.23-.12-2.46-1.21.51-.13.94.18,1.38.24.91.13,1.57-.17,2.34-.61.91.91,2.67,1.08,3.87.72.41-.12.75-.41,1.22-.48.28-.04.7-.06,1.15-.09,1.69-1.98,3.44-3.75,5.26-5.33-.54-.2-1.06-.46-1.53-.78,0-.46,1.62-.02,2.29.13,18.96-15.81,44.48-11.76,68.99-9.6v-3.89c-2.58-.36-5.16-.72-7.73-1.07M34.51,34.96c-.45.16-.86.44-1.36.39-.35-.02-1.14-.33-1.12-.77.57-.12,1.16-.21,1.75-.12.15.02.94.22.73.5"/>
          <path class="cls-1" d="M23.38,44.55c.11.03.21.05.25.05.36.03.95.07,1.28,0,.5-.09.91-.7,1.31-.65.37.08.49.47.82.63,1.23.59,2.1-.36,3.1-.85.85.63,2.08.78,3.1.59.5-.1.94-.58,1.46-.63.54-.07.96.13,1.44.14.51,0,3.31-.11,3.46.12.04.21-.02.31-.12.47-.75,1.16-3.54.72-4.51-.06-1.13,1.44-3.22,1.19-4.69.41-1.27.88-2.74,1.28-4.06.24-1.14.66-2.42.6-3.59.17-1.82,1.58-3.58,3.35-5.26,5.33.67-.04,1.4-.06,1.84-.06,1.05,0,1.15.82.1,1.03-.95.18-1.85-.08-2.57.03-.09,0-.17.04-.26.08-.11.14-.22.27-.33.4-1.34,2-4.31,2.77-7.66,3.07.25.36.43.94.48,1.66.98-.53,2.21-1.22,3.33-.79v.92l-1.24,1.95c1.03.03,3.01.03,2.47,1.57,2.18-.98,3.69-.05,1.96,2.09,1.26-.15,3.07.5,3.08,1.96-.48,1.05-1.58-.04-2.29.72l1.24.97c.61.74,1.38,1.73.73,2.66.86.74,1.21,1.83.97,2.95l-.59.26c.08.47.54.49.37,1.08-.18.6-1.5.7-1.41,1.07l2.31,1.75c.64-.47,2.24-1.58,3.03-1.1,1.04.62-1.19,2.5-1.31,3.2h1.89c1.04,0,1.79,2.52.26,2.61-.45.03-.76-.17-1.27-.1-.29.03-1.56.46-1.66.68.75.35,1.32.97,1.57,1.75l1.96.52s-.02-.16-.08-.25c-.09-.14-.87-.83-.38-.92.56-.1,1.39.72,1.63,1.17.48-.6.49-1.52.68-2.24.07-.22.03-.42.36-.36-.12-.31-.35-.53-.26-.91.89.38,1.6,1.41,1.82,2.34.46.23.67.84,1.17.91.03-.18.32-.87.41-1.09.46-1.01,1.14-1.77,2.2-2.16.02.51-.49.76-.78,1.17l.77-.13.27.78c.45-.35,1.66-.8,2.22-.65l1.03-1.44c-.07-.08-.23-.11-.26-.23-.16-.77.53-.92,1.04-.55.49-.35.96-.79,1.57-.91-.11-.2-.26-.42-.26-.65.07-.05.96.34,1.04.39.32.03.57-.17.87-.03.59.25,1,1.23,1.61,1.47,0-.74,0-1.48,0-2.22l.39.09c.58.73.71,1.61.65,2.52.26.29,1.34-.85,1.64-1.02.26-.15,1.51-.73,1.61-.22.02.1-.2.41-.26.46l1.31.26c.33-.13,1.42-.41,1.75-.38.14.01.3.1.46.13l-.12.64c-.08.46,1.03.43,1.18.34l.25-1.25c-.37-.38-.71-.83-1.04-1.24,0-.3.99-.15,1.18-.07.7-.29,1.6-.05,2.34-.13-.02-.03-.42-.75-.39-.78.66-.03,1.13-.05,1.68.34.46.32.63.94,1.36.68.24-.08,1.28-1.97,1.98-1.93l.07.26c1.06-.08,2.11-.76,3.2-.78.47,0,2.53.45,2.67.39.09-.03.21-.45.65-.34.52.18.84.59,1.18.99l.65.13c.1-.11-.17-1.13.13-1.3-.15-.32-.34-.57-.27-.96.5-.5.98.1,1.31.51.23.27.71,1.37.98,1.37,1.94-1.21,4.36-1.76,6.58-2.29,1.25-.29,2.54-.47,3.79-.78.15-.03.42.01.39-.18-1.3-.26-2.73-.42-3.86-1.15-2.16.68-4.63.77-6.89.63-1.63-.1-3.79-.42-4.69-1.95-3.59,1.75-8.79,1.65-12.55.41-.33-.11-1.53-.55-1.72-.75-.18-.17-.22-.65,0-.79.49-.32,1.55.45,2.1.47.04-.26-.22-.42-.26-.65-.28-.1-.34-.29-.44-.54-.36-.95-.52-2.22-.8-3.23-.41-1.45-.9-2.65-1.11-4.18,0-.02-.12-.1-.13-.21-.02-.35,0-.73.34-.96.52-.03.57.38.45.77.41.06.97-.23,1.31-.26-.87-.53.5-2.15.76-1.35.07.45-.04,1.02-.37,1.35.21.03.56.21.86.25.54.07,1.13.09,1.67.15l1.24-1.18c.02-.21.14-.57.35-.63.25-.14.54.1.7.11.35.03.7,0,1.04,0,.34-.75,1.09-1.21.91,0l1.83-.13c.02-.32.52-1.27.85-1.3.77-.08.55.86.32,1.3l1.7.13c.13-.15.63-.41.84-.39.09.02.21.36.21.39.54.2,1.12.13,1.7.13.09-.5.52-1.38,1.12-.91.33.26.14.52-.08.78.57,0,1.71.26,2.34.39-.48-1.04.59-1.99,1.57-1.36l.23.49c-.01.36-.42.86-.75,1,.13.24.37.22.59.27.47.11,1.32.34,1.74.36.22,0,.26-.1.28-.11-.4-.88.35-1.34,1.18-1.16,0,.58-.4.99-.91,1.16-.08.37.17.25.41.3.96.21,1.97.42,2.84-.17,0-.14-.02-.28.03-.42.1-.2.29-.47.5-.29.07.05.24.37.25.46.84-.27,2.11-.33,2.87-.65.24-.1.4-.36.73-.39.42-.04.59.26.71.26.09,0,.45-.2.64-.13v-.39c-1.54-.09-4.14-.2-5.34-1.23-.98-.85-.29-1.55.39-1.11-.04-.47-.38-1.09-.64-1.48-.09-.13-.26-.08-.27-.09-.66.38-1.41.62-2.19.75-2.2.37-4.65.32-6.86.16-.58-.04-2.59.07-2.78-.61-.17-.58.33-1.03.88-.96-.32-2.78-.6-5.58-1.43-8.28l.27-.65.52-.07v-.9l.52-.14c-.08-.12-.18-.85-.13-.91.39-.15,1.1.29,1.18.65l1.31-.26c-.28-.92.76-1.3,1.03-.26l1.17-.26c-.01-.36.16-.55.46-.75.21.08.54.27.59.5l1.04-.13c.04-.15-.03-.28.12-.47.33-.4.85-.18.92.34,1.12-.16,2.25-.31,3.38-.26.01-.03.36-.45.39-.47l.18-.05c.12.02.46.55.47.65h.91c0-1.69,1.95-1.37,1.3.26h1.57c0-.51.4-1.27.98-1.26l.46.41c.01.12-.2.72-.26.85h.91l.33-.91c.2-.24.67-.39.91-.14.08.12.1.66.05.79.72-.08,1.51-.29,2.22-.26-.52-1.03,1.13-1.6,1.04-.26.4-.09,1.11-.04,1.57-.13.04-.37.75-1.32,1.14-1.41l.62.24c.1.21,0,.45-.06.65.33-.02,1.02-.03,1.29-.13.26-.1.68-1.15,1.31-.65v-5.1c-24.51-2.17-50.04-6.21-68.99,9.6M72.12,36.8c1.08-.12,2.14.13,3.23.14.46.32.2.76-.27.86-1.2.26-2.31-.37-3.43-.62-.1-.3.24-.35.47-.38M68.54,37.34c.16,0,.41-.28.44-.28h2.41c.15,1.58-1.94,1.07-2.86.64v-.36h0ZM50.28,36.33c.6.2,1.16.41,1.82.33.08.31-.04.22-.16.31-.54.4-1.34.47-1.86-.03-.33-.32-.22-.74.21-.6M40.83,36.4c.67,0,.73.6.92.64.69-.17,1.21-.57,1.94-.64,1.24-.11,2.48.36,3.72.26.39.34-1.39.74-1.53.75-.81.11-1.66-.05-2.45.03-.84.09-1.71.73-2.14-.52-.51.43-1.37.65-1.83.07-.08-.38,1.11-.59,1.37-.59M28.19,47.74c.58.16.92.46,1.56.39.64-.05.95-.6,1.56-.65.28.12.14.49.23.63.12.18,1.34.18,1.61.15.58-.07.91-.53,1.35-.59.73-.1,1.97.13,2.83.07.61-.04,1.56-.47,2.07-.12.32.17.2.49.04.74-1,.27-2.12.5-3.17.42-.47-.03-1.19-.32-1.56-.26-.23.02-.5.31-.76.41-.71.28-1.45.27-2.17.04-.24-.08-.62-.41-.72-.41-.22-.02-.86.52-1.54.47-.57-.04-2.06-.61-1.32-1.29M19.07,56.61c-.81.08-2.34.13-2.54-.85.38-.42.98-.05,1.5-.05.88,0,1.77-.51,2.67-.14.08.71-1.07.99-1.62,1.04M20.1,53.34h-.18c-.28.87-2.12.54-2.09-.39.47-.03.88.18,1.37.14.35-.03.62-.3.9-.27.41.04.86.7,1.83.66.8-.02,1.24-.68,1.84-.78.61-.1,1.15.12,1.66.11.9,0,2.01-.74,2.82-.18.12.53-2.02.97-2.4.99-.56.02-1.08-.21-1.56-.14-.53.08-1.16.69-1.71.77-.99.16-1.87-.11-2.48-.9M24.8,58.99c-1.11.91-2.39.57-2.81-.82.52-.07.91.63,1.37.63.47,0,.97-.57,1.44-.64l.2.07c.74,1.36,2.48-.16,3.51.52-.9,1.12-2.62,1.09-3.71.24M30.56,64.97c-1.31,1.12-2.85,1.35-4-.1-.13-.58,1.18-.09,1.49-.05,1.02.08,1.83-.12,2.81-.26.07.27-.15.28-.29.41M34.29,59.08c-.3,0-2.21-.37-2.27-.6-.02-.1-.02-.49.03-.55.6-.35,1.13.05,1.74.12.64.05,1.36-.05,2.01,0-.1.6-.96,1.01-1.51,1.03M35.36,55.68c-.45-.07-.88-.45-1.31-.39-1.31,1.07-2.84,1.55-4.31.43-.63.61-1.28.88-2.19.72-.62-.12-1.49-.97-1.01-1.61l.32-.17.6.71c1.07.4,1.39-.55,2.16-.99.54-.07.46.64.85.85,1.12.64,2.14-.34,3.19-.44,1.2-.13,2.63.03,3.84.13.04.96-1.47.86-2.14.77M37.24,50.67c.25-.71,1.03-.3,1.5-.32.59,0,1.24-.34,1.89,0,.21.28-.84.86-1.12.9-.75.11-1.81.12-2.27-.59M37.89,65.8c.19-.26.19-.14.36-.11.52.1,1,.32,1.53.32.64-.01,1.34-.27,2.02-.14-.48,1.57-3.46,1.54-3.92-.07M42.65,42.52c-.37.06-1.15.04-1.54,0-.32-.03-1.73-.41-1.64-.83.4-.46,1.04-.09,1.5-.07.74.02,1.5.04,2.22-.14.46.57,1.56.46,2.35.4.7-.05,1.87-.64,2.32-.5.16.06.24.25.35.29.29.14,1.37.1,1.74.05.59-.07,2.71-.98,2.13.24-1.38.7-2.98,1-4.33.08-1.24.7-2.51.72-3.87.45-.2-.03-.37-.22-.56-.22s-.4.21-.65.25M44.77,48.89c-.31-.05-1.14-.41-1.26-.68-.11-.24.15-.2.28-.24.66-.18,1.33-.03,1.99-.09.75-.07,1.5-.38,2.28-.26.16,1.39-2.36,1.42-3.3,1.27M52.66,59.72c-.85.25-1-1.27-.09-1.39l.4.13c.33.34.1,1.14-.32,1.26M52.95,45.8c-.46,0-1.17-.3-1.56-.27-.25.02-.55.38-.85.46-.65.18-1.7.05-2.35-.13-.23-.07-.48-.33-.7-.3-.38.04-.74.55-1.57.49-.38-.02-2.26-.64-1.92-1.16.84-.35,1.41.21,2.28.13.45-.03.88-.39,1.04-.39s.69.42,1.08.49c.41.08,1.25.09,1.66.04.4-.04.54-.34.91-.39.7-.11,1.31.16,1.95.12.27,0,2.57-.71,2.54-.2-.53.7-1.68,1.12-2.54,1.12M55.23,34.77c-.03-.14.09-.26.22-.3.36-.11,2.1.11,2,.57-.09.4-1.96.24-2.22-.26M62.45,37.3c.95-.11,1.66-.74,2.69-.12.07.31-.04.22-.16.29-.99.68-3.5,1.09-4.52.42-.25-.16-.33-.5-.7-.43-.81.14-1.17,1.67-2.61.74-.54-.35-.85-.87.11-.76.45.05.82.33,1.29.26.48-.07.88-.66,1.44-.66.32,0,.56.24.91.28.39.04,1.15.02,1.56-.02"/>
          <path class="cls-18" d="M92.37,30.28v.78c-2.58-.36-5.15-.72-7.73-1.07-3.06-.4-4.73-.53-7.83-.49-12.56.15-25.02-.57-37.54-.01-2.51.11-5.05.29-7.56.39-2.48.1-5.06.01-7.44.77-.04.82-.1,1.48-.56,2.19,1.03,1.39-.37,2.51-1.2,3.56l5.86,1.63c.24.2.2.36.43.6.11.1.09.14-.03.18-2.32.43-4.63,1.29-6.99,1.48-1.83.14-3.77-.11-5.59.02-3.14.22-6.38,1.55-9.65,1.17l-8.8-.39v-1.04c3.03.12,6.03.27,9.07.25,2.9-.02,4.51-.4,7.33-.86,2.69-.45,5-.16,7.66-.3,1.4-.07,2.88-.42,4.3-.52.58-.04,1.17.03,1.75,0l-5.4-1.57c-.35.03-.43.43-.65.65-.52.52-1.27,1.05-2.02,1.17h-.13c-.36.03-.93.03-1.29,0h-.13c-.71-.1-1.33-.71-1.77-.78-.5-.09-1.28.21-1.95.13-.45-.04-.76-.25-1.17-.39-.58.38-.96.82-1.63,1.11-1.81.78-4.18.72-5.93-.2-1.69.87-4.05,1.09-5.47-.36-.8.35-1.63.76-2.54.75v-1.17c.69-.18,1.29-.29,1.95-.6.51-.25,1.21-1.08,1.7-.23.25.46-.25.98.85,1.09,1.43.15,2.3-.25,3.5-.89,1.56,1.25,3.68,1.09,5.47.47.6-.21,1.77-.89,2.26-.98.27-.04.82.37,1.28.37.61,0,1.14-.33,1.7-.52,1.14.64,1.58,1.12,2.99.76.26-.07,1.74-.58,1.5-.89l-.26-.08c.22-.6.65-.49,1.06-.77.28-.2,1.51-1.67,1.29-1.89-.7.05-1.58,0-1.14-.89,1.04-.22,1.34-1.02,1.12-2.02-.17-.75-.95-.48-1.28-.81-.53-1.56-1.13-1.94-2.78-1.75-.44.05-2.06.62-2.34.89-.15.14-.05.42-.21.61-.17.23-.67.14-.86.45-.16-1.04-.91-1.68-2-1.35-1.16.37.09,1.43-.79,2.07l-.43.04c-.51-.14-.93-2.13-1.41-2.63-.29-.33-.67-.22-.88-.57-.17-.52.53-1.01.13-1.65-.22-.33-1.21-.13-1.58-.4l-.25-1.32c-1.38-1.85-4.03.29-3.67,2.23l-.12.26c-.86.01-1.53.22-2.15.85-.47.7.58,1.71.68,2.42-.49,1.42-1.14,1.67-2.12.43-.1,0-.33.85-1.11.6-.6-.18-.41-.52-.55-.89-.2-.54-1.04-.71-1.53-.88v-1.3c.45-.02.89.05,1.31.2.46.17,1.02.76,1.26.83.5.14,1.13-.09,1.61.41l-.26-.36c-.79-1.62.29-2.64,1.81-3.05.08-2.15,1.82-3.84,4-3.64,1.16.11,1.96,1.05,2.13,2.16,1.27.04,2.07,1.1,1.72,2.33.39.37.97.63,1.03,1.25.3.05.41-.29.65-.45.68-.43,1.82-.5,2.51-.05.47.3.78,1.12,1.38.57.12-.11.17-.13.14-.33-.83-.15-2.39-1.73-2.35-2.53l.59-.73,2.02.66-1.02-1.52c-.34-.59-1.5-2.98-.46-3.29.57-.16,1.49.12,2.13-.15-.25-.36-.7-.43-1.04-.71-.32-.24-1.51-1.47-1.62-1.77-.33-.88.33-.89.33-.98l-.92-2.67-1.55,2.28c-.29.3-.69.39-1.09.3-.39-.12-1.74-2.54-1.78-3.11-.21-.04-.22.03-.33.14-.21.22-.66,1.01-.85,1.11l-.29.03c-1.22-.13-2.74-2.88-2.97-4.02l-.27.09c-.26.43-.83,1.36-1.35,1.36-1.1-.21-1.82-1.25-2.22-2.23-.12-.28-.35-1.35-.52-1.43-.26.5-1.04,1.6-1.67,1.53-.64-.08-1.54-1.99-2.04-2.45,0-.98-.01-1.96,0-2.94,0-.22-.09-.59.13-.72.27,1.72,1.02,3.13,1.96,4.57.26.18,1.09-1.12,1.2-1.35.29-.6.29-2.09,1.28-1.59.37.18.32,1.6.4,2.07.23,1.3.61,2.58,1.54,3.55.11.11.26-.12.34-.2.15-.18.71-.88.77-1.05.19-.49-.02-1.33.85-1.24.59.39.5,1.07.73,1.63.46,1.17,1.22,2.33,2.08,3.26.61-.26,1.02-2.43,1.76-1.89.26,1.3.61,2.56,1.5,3.59.18.04.22-.12.31-.22,1.23-1.48,1.23-3.46,2.05-4.86.1-.16.48-.62.71-.47.62.33.34,2.09.39,2.74.06.85.41,2.12.76,2.89.32.73,1.02,1.39.94,2.26l-.65.07.6.57c1.39-.45,1.21-1.89,1.96-2.84.82-.56,1.28,1.15,1.48,1.69.36.26.59-1.18,1.24-1.18.86-.01.45,1.54.72,2.09.38.27.82-1.78,1.57-1.24.56.29.56,2.21.78,2.81.76.05.97-.68,1.44-1.1,1.49-.47.41,1.58,1.57,1.7.68-.17,1.03-1.41,1.29-1.58,1.29-.81.98,2.37,1.31,2.94.49.1.64-.43,1-.63.78-.43.91.28,1.21.84.05.11-.09.23.21.19.79-.12,1.29-2.08,1.62-2.28.16-.1.52-.11.66-.01.25.18-.08.72.38.6.2-1.33,1.1-3.18,1.63-.78.69-.29.47-2.4,1.28-2.2.54.14.39,1.52.94,1.78.74-.11.68-1.66,1.31-1.68.26.01.36.27.42.48-.15.57-.38,1.02-.09,1.6,1.02.24,1.1-.97,1.77-1.4.77-.01.53.87.57,1.41.63-.09.85-.75,1.29-1.11.98-.26.7.59.82,1.15.05.27.5,1.14.82,1.14.75-.26.73-1.18,1.16-1.71,1.47-.62.37,1.8,1.34,2.08.87.25.95-1.6,1.91-1.27.36.12.14,1.57.73,1.87,1.05.5,1.06-1.38,2-1.1.51.16.25,1.82.87,2.15.78.41,1.02-2.02,2.01-.98.21.38.26,1.47.79,1.55.26.05.17-.12.25-.26.16-.29.28-.6.4-.9.89-.84,1.03.65,1.32.75l1.53.13c.69-1.13,1.34-2.61,2.88-1.58.89-1.03,2.23-.99,3.12,0,.52-.32,1.06-.47,1.67-.33.44.1,1.25,1.07,1.52.88l.11-.96c-.18-.26-.49-.33-.69-.61-.55-.82-.06-3.14.97-3.47.33-.1.51.08.7.05.22-.03.76-.59,1.12-.7.61-.16,1.1.17,1.48.05.33-.1.75-.67,1.36-.74.71-.06,1.1.64,1.74.45.05-.04.37-1.21.38-1.33.03-.65-.37-.85.15-1.66.42-.65,2.22-2.24,2.97-2.38.59-.11,1.24.17,1.64.6.16.17.43.74.48.76.12.08.46,0,.66.05.67.15,1.17,1.17,1.34,1.78l.84,1.05c-.1-.48.64-1.37.65-1.62.01-.55-.39-1.23-.23-2.2.08-.43.38-.7.46-.97.22-.77.05-1.33.63-2.11.49-.67,1.09-.82,1.88-.72.29-.58.95-1.13,1.62-1.12.26,0,.5.17.78.13.34-.04.77-.62,1.24-.52v1.04c-.83-.12-.17.95-.82,1.22-.8.35-1.01-.73-1.3-.68l-.56.38-.27.9c-.53.15-.87-.65-1.61-.32-.39.27-.66.97-.66,1.43.01.38.36.64.26,1.02l-.62.23c-.16.53-.25,1.07.01,1.58.24.49,1.12.6.53,1.28-1.14.29-.76,1.42-.84,2.33l-.39.09c-.04.66-.65.72-.76,1.43-.14.92.26,1.45.64,2.21-.45.53-.92-.02-1.36-.08-.7-.08-1.21.22-1.48.86.01.15.57.33.3.85l-1.34,1.15h-.34c-.55-.31-.67-.96-.74-1.55-.76.04-1.34.8-1.16,1.55l.38.21c-.7.45-1.45,1-1.51,1.89l.48.84-.07.21c-1.01.21-.57,1.08.06,1.49.13.09,1.39.65,1.53.7,2.02.57,5.3.59,7.5.96,1.38.22,2.75.62,4.12.89M84.9,16.53l-.53-1.37-.93-.25c0-1.55-.5-1.39-1.8-1.57-.32-.76-.67-1.51-1.63-1.03l-.13.71c-.8-.03-1.16.41-1.61,1.01-.22.3.16.46.17.8.01.47-.63,1.28-.42,1.94l-.84.47c.16.6-.15,1.16-.84.85-.36-.16-.55-.85-1.1-.85-.93-.01-.59.89-1.08,1.03-.46.19-.74-.26-1.04-.35-1.17-.34-1.03.74-1.43.87l-1.09-.24-.24,1.67c1.53.29,1.04,1.03.89,2.16-.07.46.14,1.28-.39,1.57-.42.23-.63-.15-.87-.17-.21-.02-.48.47-1,.12-.21-.14-.28-1.1-.94-1.18-.65-.1-.74.77-1.54.5-.23-.08-.58-.97-1.33-1.02-.88-.02-.76,1.42-1.53,1.4-.49-.01-.46-.75-.81-1.01-.26.24-.79.78-.83,1.13-.01.16.21.3.24.51.12.68-1.26,1.11-1.18,2,1.09.12.84,1.41-.26,1.3l.39.78h17.07c-.33-.49-.82-1.09-.75-1.73.03-.39.42-.76.46-.96.03-.15-.11-.4-.11-.63.02-.63.57-1.35,1.12-1.63-.73-2.13,3.14-4.33,3.07-1.17.35.07.57-.2.75-.46l-.33-.67c.09-.96.99-1.61,1.91-1.61-.33-1.02-.14-2.06.48-2.93M60.57,24.41c-.67,0-1.27.09-1.89-.26-.37,0-.56.84-1.53.62-.5-.22-1.04-.71-1.13-1.27-1.03,1.12-2.49.64-2.74-.78h-.2c-.77.83-2.33.31-2.54-.78-.43.11-.82.54-1.35.52-.59-.03-1.34-.55-1.38-1.17-.74.75-1.77.76-2.4-.14-.24-.34-.26-.73-.53-1.02-.6.54-1.52,1.12-1.96.11-.32-.02-.81.52-1.29.52s-1.04-.45-1.11-.9c-.66.42-1.29.4-1.76-.25h-.2c-.15.53-.57.88-1.04,1.11l-.78-.21c-.11,1.03-.73,1.53-1.74,1.16-.35.49-.94,1.38-1.59,1.45-.23.02-.39-.1-.58-.07l.26.72c.5-.04.87-.64,1.37-.27.63.46.19,1.79.21,2.4,0,1.01.39,1.49.95,2.17.16.18.2.55.42.62,1.02.09,2.1-.17,3.11-.24,4.96-.3,9.9-.2,14.86-.12,1.93.03,3.87-.03,5.8-.01-.59-.78.03-1.2.13-1.76.06-.35,0-.66.1-1.08.1-.4.34-.73.55-1.07M31.96,28.84c.76-.04,1.53.04,2.3,0-.07-.65-.54-1.16-.73-1.82-.18-.69-.22-1.38-.18-2.09-1.11.13-1.72-1-1.83-1.96-1.43.48-2.1-.51-2.22-1.83-1,.98-2.22.8-2.95-.38-.34-.01-.53.23-.89.26-1.17.09-1.48-1.02-1.63-1.97-.84.58-1.89.24-2.09-.77-.38-.04-.47.55-.91.34l-.9-1.12c-.24.65-.61,1.61-1.31,1.83l.9,1.43-2.73.65c.35,1.23,1.02,2.33,1.95,3.2.24.22,1.49,1.07,1.44,1.29-.52.57-1.34.2-2.01.47h-1.63c.64.24,1.36.89,2.06,1.01.41.09.91-.25,1.39-.24.84.02,1.88.46,2.35,1.19.12.19.2.6.22.62.03.03.48.08.68.16.39.17.54.51.92.64,1.74-.55,3.55-.52,5.34-.65.79-.05,1.69-.23,2.47-.26M17.5,25.59c.09-.04.09-.09,0-.13v.13Z"/>
          <path class="cls-9" d="M91.19,11.77c-2.18,2.18-4.35,7.61,0,9.79-4.35-1.09-6.53,2.17-8.7,5.44-.34.67-.36,1.24-.23,1.74,1.92.29,4.28.37,6,.65,1.38.22,2.75.62,4.12.89V11.22c-.4.17-.8.35-1.18.55"/>
          <path class="cls-7" d="M91.56,8.43c-.81.35-1.01-.73-1.31-.68l-.55.38-.27.9c-.53.15-.87-.65-1.61-.32-.39.27-.66.97-.66,1.43.01.38.36.64.26,1.02l-.62.23c-.16.53-.25,1.07.01,1.58.24.49,1.12.6.53,1.28-1.14.29-.76,1.43-.84,2.33l-.39.09c-.04.66-.65.72-.76,1.42-.14.92.26,1.45.64,2.21-.45.53-.93-.02-1.36-.08-.7-.08-1.21.22-1.48.86.01.15.57.33.3.85l-1.34,1.15h-.34c-.55-.3-.68-.96-.74-1.54-.76.04-1.34.8-1.16,1.56l.38.21c-.7.45-1.45,1-1.51,1.89l.48.84-.07.21c-1.01.21-.57,1.08.05,1.49.13.09,1.39.65,1.53.7.45.12.96.22,1.51.3-.13-.5-.1-1.07.23-1.74,2.18-3.26,4.35-6.52,8.7-5.44-4.35-2.17-2.18-7.61,0-9.79.39-.19.78-.37,1.19-.55v-4.01c-.83-.12-.17.95-.82,1.22"/>
          <path class="cls-20" d="M47.68,11.77c-5.44-4.35-10.88-2.17-15.23,1.09C31.36,1.98,18.31,1.98,11.79,6.33c-1.99,1.99-3.97,3.98-3.46,6.81.22.3.46.58.7.85.61-.26,1.02-2.43,1.76-1.89.26,1.3.61,2.56,1.5,3.59.17.04.22-.12.31-.22,1.23-1.48,1.23-3.46,2.04-4.86.1-.16.48-.62.71-.47.62.33.34,2.09.39,2.74.06.85.41,2.12.76,2.89.31.73,1.02,1.39.93,2.26l-.65.07.6.57c1.39-.45,1.21-1.89,1.96-2.84.82-.57,1.28,1.15,1.48,1.68.36.26.59-1.18,1.24-1.18.86-.01.44,1.54.72,2.09.38.27.82-1.78,1.57-1.24.56.29.56,2.21.78,2.81.76.05.97-.69,1.44-1.1,1.49-.47.41,1.58,1.57,1.7.68-.17,1.03-1.41,1.29-1.58,1.29-.8.98,2.37,1.31,2.94.49.1.64-.43,1-.63.78-.43.91.28,1.21.84.06.11-.09.23.21.18.79-.12,1.29-2.08,1.62-2.28.16-.1.52-.11.66-.01.25.18-.08.72.38.6.2-1.33,1.1-3.18,1.63-.78.68-.29.47-2.4,1.28-2.2.54.14.39,1.52.94,1.78.74-.11.68-1.66,1.31-1.67.26.01.36.27.42.48-.15.57-.38,1.02-.09,1.6,1.02.24,1.1-.97,1.77-1.4.77-.01.53.87.56,1.41.63-.09.85-.75,1.29-1.11.98-.26.7.59.82,1.15.05.27.5,1.14.82,1.14.75-.26.73-1.17,1.16-1.71,1.47-.62.37,1.79,1.34,2.08.87.25.95-1.6,1.91-1.27.23.08.23.7.35,1.21.79-3.56-.65-7.34-3.64-9.58"/>
          <path class="cls-3" d="M69.43,12.85c-.47-5.58,2.26-10.16,6.37-13.07H-2.25c.04,1.52-.11,3.06.13,4.56.27,1.72,1.02,3.13,1.96,4.57.26.19,1.09-1.12,1.2-1.35.29-.6.29-2.09,1.28-1.59.37.18.31,1.6.4,2.07.23,1.31.61,2.58,1.54,3.55.11.11.26-.12.34-.2.15-.18.71-.88.77-1.05.18-.49-.02-1.33.85-1.24.59.39.5,1.07.73,1.63.33.84.81,1.67,1.38,2.41-.51-2.82,1.47-4.82,3.46-6.81,6.52-4.35,19.58-4.35,20.66,6.53,4.35-3.26,9.79-5.44,15.23-1.09,2.99,2.24,4.44,6.02,3.64,9.58.07.29.17.55.38.66,1.06.5,1.07-1.38,2-1.1.51.16.25,1.82.87,2.15.78.41,1.02-2.02,2.01-.98.21.38.26,1.47.79,1.55.26.05.17-.12.25-.26.16-.29.28-.6.4-.9.89-.84,1.03.65,1.32.75l1.53.13c.67-1.1,1.31-2.52,2.77-1.63-.36-1.52-.61-3.03-.75-4.51-1.09-2.17,2.18-6.52,6.53-4.35"/>
        </g>
      </g>
      <g class="cls-14">
        <g>
          <path class="cls-20" d="M66.89,21.77c.52-.31,1.05-.47,1.67-.33.43.1,1.25,1.07,1.52.88l.11-.96c-.19-.26-.49-.33-.69-.61-.55-.82-.06-3.14.97-3.47.33-.1.51.08.7.05.22-.03.76-.59,1.12-.7.61-.16,1.1.17,1.48.05.33-.1.75-.67,1.36-.74.71-.07,1.1.64,1.74.45.05-.04.37-1.21.38-1.33.03-.65-.37-.85.15-1.66.42-.65,2.22-2.24,2.97-2.38.59-.11,1.24.17,1.64.6.16.17.43.74.48.76.12.08.46,0,.66.05.68.15,1.18,1.17,1.34,1.78l.84,1.05c-.1-.48.64-1.37.65-1.62.01-.55-.39-1.23-.23-2.2.08-.43.38-.7.46-.97.22-.77.06-1.33.63-2.11.49-.67,1.09-.82,1.88-.72.29-.58.95-1.13,1.62-1.12.26,0,.5.17.78.13.34-.04.77-.62,1.24-.52V-.22h-16.57c-4.11,2.91-6.83,7.49-6.37,13.07-4.35-2.17-7.61,2.18-6.53,4.35.14,1.48.39,3,.75,4.51.04.02.07.03.11.06.89-1.03,2.23-.99,3.12,0"/>
          <path class="cls-8" d="M92.37-.35v.13H-2.25c.04,1.52-.11,3.06.13,4.56-.22.13-.13.5-.13.72,0,.98,0,1.96,0,2.94,0,3.85-.33,8.62.13,12.33v.04c0,.09-.01.18,0,.26-.22.13-.13.5-.13.72,0,1.28,0,2.57,0,3.85v64.64c.01,1.52,0,3.04,0,4.57h-.13V-.35h94.75Z"/>
        </g>
      </g>
      <g class="cls-6">
        <g>
          <path class="cls-10" d="M17.5,25.46c.09.04.09.09,0,.13v-.13Z"/>
          <path class="cls-15" d="M17.96,20.5c-.64.27-1.57,0-2.13.15-1.04.3.12,2.7.46,3.28l1.02,1.52-2.02-.66-.59.73c-.04.8,1.52,2.38,2.35,2.53.03.2-.02.22-.14.33-.6.55-.91-.26-1.38-.57-.7-.45-1.83-.38-2.51.05-.24.15-.35.5-.65.45-.06-.62-.64-.88-1.03-1.25.35-1.23-.45-2.28-1.72-2.33-.17-1.11-.97-2.06-2.13-2.16-2.19-.2-3.93,1.49-4,3.64-1.51.4-2.6,1.43-1.8,3.05l.26.36c-.48-.5-1.11-.27-1.61-.41-.24-.07-.8-.65-1.26-.83-.41-.14-.86-.22-1.31-.2v-2.08c.67.98,2.52,2.42,3.39.98-.05-.23-1.22-.41-1.52-.57-.7-.35-1.1-1.16-1.87-1.33,0-1.28-.01-2.57,0-3.85,0-.22-.09-.59.13-.72.11.64.46,1.94.97,2.36.34.27.85.04.86-.34,0-.26-.95-1.81-1.17-2.08-.08-.1-.65-.81-.65-.25-.46-3.71-.13-8.48-.13-12.33.5.46,1.4,2.37,2.04,2.45.63.07,1.41-1.03,1.67-1.53.17.08.4,1.14.52,1.42.4.98,1.12,2.02,2.22,2.23.52,0,1.09-.92,1.35-1.36l.27-.09c.23,1.14,1.75,3.89,2.97,4.02l.29-.03c.19-.1.64-.89.85-1.11.11-.11.12-.18.33-.14.04.57,1.39,2.99,1.78,3.11.4.09.79,0,1.09-.3l1.56-2.28.92,2.67c0,.09-.65.1-.33.98.11.3,1.31,1.53,1.62,1.77.35.27.79.35,1.04.71M10,19.57l-.05-.5c-.21-.43-2.32-1.23-2.89-1.55-.47-.25-.83-.79-1.48-.67.01.9.69,1.48,1.39,1.92.8.51,2.11,1.21,3.03.79M3.02,22.04c.31-.13.21-.37.04-.59L-.03,19.97c.07,1.1,2.06,2.37,3.05,2.07M3.04,16.33c.15-.23-.23-.52-.39-.65-.85-.66-1.97-1-2.81-1.88-.3-.32-.65-1.22-1.09-1.11-.11.03-.29.23-.33.35-.06,1.37,2.9,3.84,4.06,3.67l.55-.37h0ZM1.49,19.04c.51.11,2.04.13,1.28-.63-.49-.48-1.6-.79-2.24-1.14-.29-.16-2.14-1.46-2.26-1.33-.15,1.19.76,1.78,1.65,2.32.3.18,1.28.72,1.57.78"/>
        </g>
      </g>
      <g class="cls-13">
        <g>
          <path class="cls-18" d="M14.57,84.88c1.47-.08,2.42,1.93,1.62,3.12-.53.81-1.2.65-2.06.68-.65.96-1.48,1.43-2.67,1.07-.5-.15-.6-.62-1.06-.69-.34,1.02-1.15,2.54-2.45,1.98-.84-.36-.75-2.29.09-2.58.17-.07.22-.1.34.07l-.07,1.62.31.07c.78-.36.97-2.65,1.61-2.84l.43.04c.47.64.9,1.92,1.95,1.44.83-.37.25-1.48.96-1.79.65-.29.39.87,1.33.7,1.13-.22-.43-2.76-.33-2.87"/>
          <path class="cls-18" d="M13.26,80.53c-.09,1.01-1.1,1.43-1.94,1.76.23,1.51-1.27,1.99-2.49,2.07.34,1.89-1.65,3-3.07,1.7-.29-.28-.78-.99-.13-1.06.49-.04,1.57,1.59,2.15.34.23-.57-.6-1.43-.27-1.84.33-.38.95,0,1.48-.08.42-.07.83-.4,1.25-.51l-.23-.96.15-.43c.68-.25,1.47-.18,1.91-.89.07-.29-1.7-1.15-1.04-1.55.74-.45,2.19.61,2.22,1.45"/>
          <path class="cls-18" d="M9.94,19.07l.05.5c-.92.41-2.23-.28-3.03-.79-.71-.45-1.38-1.02-1.39-1.93.65-.12,1.01.42,1.48.68.58.32,2.69,1.12,2.89,1.54"/>
          <path class="cls-18" d="M7.2,64.56c.31,0,.88.71.86,1.1-.05,1.2-1.51.84-2.23,1.44,0,.14,2.24.39,1.9,1.5-.28.95-1.18.02-1.64-.2-.36-.16-1.39-.33-1.44-.78-.02-.16.01-.27.13-.39.35-.33,1.38-.73,1.82-1.04.12-.09.52-.42.4-.58-.59-.51-2.62.61-2.94.13-.36-.48,1.22-2.51.38-2.74-.83-.22-1.13,1.76-1.82,1.18-.61-.72.48-1.91,1.21-2.07,1.85-.39,1.67,1.18,1.34,2.45h2.03Z"/>
          <path class="cls-18" d="M4.45,88.42c.27.17.99.79.35.96-1.04.27-1.85-.46-2.74-.84-.31,2.08-2.64,2.73-3.65.78l-.27.08-.38.43v-2.08l.49-.38c.94-.28.79,1.94,1.93,1.89,1-.13.4-1.9,1.17-2.04.13-.01.25,0,.38.01.14.02,2.51,1.07,2.73,1.19"/>
          <path class="cls-18" d="M3.06,21.46c.16.22.27.46-.04.59-.99.31-2.98-.97-3.04-2.07l3.09,1.48h0Z"/>
          <path class="cls-18" d="M2.65,15.68c.16.13.54.42.39.65l-.56.37c-1.15.17-4.12-2.29-4.06-3.66.03-.12.22-.32.33-.35.43-.11.78.79,1.09,1.11.84.88,1.96,1.22,2.81,1.88"/>
          <path class="cls-18" d="M2.78,18.41c.76.76-.77.74-1.28.63-.28-.07-1.26-.6-1.57-.78-.89-.53-1.81-1.13-1.65-2.32.12-.13,1.97,1.16,2.26,1.33.64.35,1.75.66,2.24,1.14"/>
          <path class="cls-18" d="M-.28,81.82c.91.54,1.69-.38,2.6-.25-.82,2.01-3.31,1.89-4.14-.03l-.42-.03v-.78c.38-.21.54-1.17,1.09-1.03.68.17-.05,1.57.88,2.13"/>
          <path class="cls-18" d="M-.38,26.52c.3.15,1.47.34,1.52.57-.87,1.43-2.72,0-3.39-.98v-.91c.77.16,1.17.98,1.87,1.33"/>
          <path class="cls-18" d="M.23,69.31l.22.26c-.4.85-.38,1.69-.35,2.61,0,.38.32.82,0,1.18-1.5.2-1.03-2.12-.92-3.07l-1.44.78v-1.04l2.48-.72Z"/>
          <path class="cls-18" d="M-2.25,61.29c1.09.17,2.57.91,2.28,2.22-.9-.18-1.52-.86-2.28-1.31,0,0,0-.91,0-.91Z"/>
        </g>
      </g>
    </g>
  </g>
</svg>