<?xml version="1.0" encoding="UTF-8"?>
<svg id="Layer_1" data-name="Layer 1" xmlns="http://www.w3.org/2000/svg" xmlns:xlink="http://www.w3.org/1999/xlink" viewBox="0 0 90 90">
  <defs>
    <style>
      .cls-1 {
        fill: #bb9889;
      }

      .cls-2 {
        fill: #e2b596;
      }

      .cls-3 {
        fill: #abe0f9;
      }

      .cls-4 {
        fill: #a3af65;
      }

      .cls-5 {
        fill: #b4c26f;
      }

      .cls-6 {
        fill: #98a951;
      }

      .cls-7 {
        fill: none;
      }

      .cls-8 {
        fill: #b7aca2;
      }

      .cls-9 {
        clip-path: url(#clippath-1);
      }

      .cls-10 {
        fill: #828d53;
      }

      .cls-11 {
        fill: #908881;
      }

      .cls-12 {
        fill: #727849;
      }

      .cls-13 {
        fill: #849a52;
      }

      .cls-14 {
        fill: #663925;
      }

      .cls-15 {
        fill: #c28966;
      }

      .cls-16 {
        fill: #986749;
      }

      .cls-17 {
        fill: #6cafc4;
      }

      .cls-18 {
        clip-path: url(#clippath);
      }
    </style>
    <clipPath id="clippath">
      <rect class="cls-7" width="90" height="90"/>
    </clipPath>
    <clipPath id="clippath-1">
      <rect class="cls-7" x="-2.47" y="-.48" width="94.35" height="90.71"/>
    </clipPath>
  </defs>
  <g class="cls-18">
    <g class="cls-9">
      <g>
        <path class="cls-17" d="M90.45,51.79l-12.54,1.28-.15.28c-1.71-.15-3.73.2-5.44.52-.22.03-1.29.32-1.38.38-.02.03.01.28,0,.39l1.56.13c.11.54-.72.03-.91.39,3.41-.14,6.94-.11,10.34-.14,3.32-.03,6.65.03,9.96,0v.78c-2.97-.03-5.94.03-8.92,0-.32,0-.59-.14-.9-.14-3.55-.03-7.11.05-10.67,0l-.08-.5c-1.41.09-3.6.65-4.97,1.08-.33.1-1.27.33-1.14.8.11.38,1.92.7,2.34.59.14-.02.39.14.59.14,2.14-.03,4.26-.22,6.38-.27,5.79-.16,11.6.13,17.38,0v1.04c-5.82-.12-11.68.16-17.51,0-2.67-.08-5.3-.26-7.99-.27l-1.3.26v.39c.61.1,1.18.35,1.79.49,1.6.35,3.61.66,5.24.68,3.49.04,7.1-.39,10.61-.14.43.03.88.15,1.29.27.15.03.08.16,0,.26-.1.13-.71.25-.9.26-2.51.23-5.81.02-8.41,0l3.06.39c1.21.15,2.43.17,3.64.26.39.03.82-.02,1.19,0h.04c.2-.03.45,0,.65,0,.29-.02.39,0,.65,0,.79.02,1.62.03,2.4.14.72.1,1.42.39,2.16.38.25-.29.96-.75,1.35-.64.15.04.2.24.22.25.13.05.73-.03.98,0h.02c-.08-.07-.16-.13-.24-.21.08.08.16.14.24.21.27.03.53.16.82.13v.4s.09.05.13.06v-10.3c-.55.04-1.07.04-1.57-.06M91.89,53.74c-3.15-.13-6.43.16-9.57,0-.68-.03-1.51-.22-2.21-.26-.45-.03-.92.02-1.37,0-.17-.15-.02-.25.2-.26.74-.03,1.48-.08,2.22-.13.22,0,.42-.12.64-.13,3.31-.18,6.78.14,10.09,0v.78Z"/>
        <path class="cls-2" d="M91.89,64.28v.52c-.27.52-.46,1.05-1.11,1.18-1.79.05-3.61-.07-5.4,0-.58.02-.31-.04-.65-.13-.78-.18-1.93.15-2.73.26,0,.28.09.79-.34.79-.4-.07-.43-.48-.58-.79-1.81.16-2.14-1.65-1.43-2.99-.13-.33-.12-.73,0-1.04.06-.06.55.19.65.26.41-.11.76-.45,1.17-.59.25-.1.85-.26,1.12-.33-.38-.02-.8.03-1.19,0-1.21-.09-2.43-.11-3.64-.26l-3.06-.39-2.38-.02c-.27-.14-.46-.34-.22-.63-1.63-.02-3.64-.34-5.24-.69-.61-.14-1.18-.39-1.79-.49v-.39l1.3-.26c-.8,0-1.93.11-2.67,0-.25-.02-.49-.27-.2-.46.26-.16,3.14-.05,3.73-.05.21,0,.29-.13.3-.14-.41.11-2.23-.21-2.34-.59-.13-.48.82-.71,1.14-.8.46-.14,1.02-.3,1.6-.45-2.18-.38-4.35-.88-6.49-1.52.02.91-.68,1.78-1.69,2.16-2.42.92-6.02.74-8.57.55-1.67-.12-2.99,0-4.1-1.5-.62-.84-.17-1.97.59-2.55,1.17-.88,4.17-1.06,5.63-1.14.72-.03,1.16.09,1.78.11h0c-2.24-1.01-4.46-2.2-6.64-3.62.18-.04.35-.1.53-.15-.14-.16-.25-.37-.32-.54-.26.08-.7.07-.91.13-.15.04-.28.28-.44.25-.26-.12-.26-.32-.34-.51-.99.04-1.46-1.15-1.04-1.96-.07-.1-.32-.86-.26-.91.22.03.62.14.78.26l1.3-.26.08-.27c.14,0,.33.05.44.14,1.39-.77,3.39-1.14,4.81-.26l.71-.37c-3.79-.63-7.71-1.19-11.66-1.59.09.15.15.31.15.53.24,0,1.29-.11,1.16.33l-.86.84-.57-.25c-1.67.7-3.67.74-5.47.78.03.32-.07.79-.46.79-.33,0-.6-.65-.72-.92-.71-.03-.79-.64-1.11-1.04-.06-.08-.16-.1-.18-.13l-.14,1.03h-.42l-1.13-1.87c.53-.51,1.07.03,1.43.45l.11-.08c-.02-.47.06-.79.43-1.02-2.57-.11-5.13-.14-7.67-.05-.05.19-.1.38-.16.56.84,1.24,1.16,3.22,1.85,4.4.13.23.36.35.42.49.26.49.01,3.74-.05,4.5-.05.62-.12,1.25-.14,1.88l.91.13s.73-.38.83-.42c.21-.08.37-.13.61-.1.01.41-.37.64-.58.92-.1.12-.13.28-.21.38.84,1.18-.24,2.67-1.56,2.73-.15.33-.28.7-.6.91-.27-.02-.41-.26-.45-.52-.92-.03-1.87.04-2.79,0-.37-.02-1.16-.28-1.5-.14-.01,0-.05.21-.21.25-.63.17-.6-.38-.71-.77-1.85-1.09-1.29-3.6.91-3.51-.07-.32-.21-.63-.12-.97l.31-.21c.24.08.61,1.02.72,1.3.54.23,1.01.11,1.56,0,.02-1.68.17-4.06-.01-5.67-.11-.92-.62-1.9-.85-2.81-.2-.82-.18-2.06-.09-3.29-2.31.12-4.58.34-6.82.67l.22,4.44c.21,0,.37-.12.58-.14,1.62-.11,3.31-.1,4.92.04.23.09.43.03.36.36-.74.35-1.49.32-2.28.39-.12,0-.23.13-.26.13h-3.31v1.3c1.47-.26,3.26-.39,4.75-.26.41.04,1.11.12.98.65l-1.37.39h-4.35l.14,2.14c.9.66,1.48,1.48,1.18,2.65-.04.18.05.35-.22.29l-.98-1.57.26,6.39c.28,0,.53-.12.84-.13,3.5-.2,7.17.15,10.69,0l1.62.26c1.43.05,2.86.29,4.29.39l-1.16.26c.04.47-.7,1.03-1.05,1.23-.64.36-1.44.42-2.07.79.29.12.61.28.9.39.3.11,1.2.09.86.72-.18.35-1.9.66-2.28,1.03,2.32-.57,6.76-.59,8.9.54,1.5.79,2.38,2.3,1.67,3.98-.54,1.33-2.1,1.52-3.36,1.72-1.62.26-3.51.34-5.24.24l-.04.6c.54,0,.67,1.23.8,2.05.67-.53,1.12-1.58,2.12-1.54.59.16.28,1.43.35,1.93.64-.32,1.25-1.11,2.03-.65l-.21,2.09c.14.14,1.63-.79,2.15-.26s-.53,1.4-.72,1.96l.97.25c.22-.04.27-.95.43-1.26.12-.22.29-.4.5-.54l1.87,1.29.27-2.6c1.09-.23,1.16,1.24,1.95,1.69.14-.59.72-2.83,1.17-3.07.56-.29.92.43,1.11.85.11.26.14.54.26.78.47-.73.97-1.33,1.56-1.95.22-.23.33-.59.76-.64.09.05.25.08.32.14.23.23.22,1.99.29,2.45.37-.09.57-.45.86-.63,1.84-1.15,2.12-.33,1.74,1.54.12.13,2.03-.99,2.32-.17.2.61-.34,1.41-.5,2,.12.1,2.53-.73,2.18.82-.13.63-.76.91-1.01,1.46l1.43.59c-.08-.32.36-1.24.7-1.16.69.51.78,1.45,1.31,2.08.36-.73,1.36-2.86,2.26-1.73.04.56.13,1.1.15,1.67,0,.14-.09.35.13.32-.03-.71,1.48-2.65,2.13-2.47.12.04.19.18.24.29.21.42.01.86.17,1.26.71-.64,1.44-1.74,2.52-1.55.42.29-.4,2.2-.38,2.72.74-.4,1.53-.77,2.39-.63.93.27-.26,2.24-.57,2.72.9-.07,2.56.25,2.19,1.48-.09.28-.73.49-.89.8l.6.58c.99-.65,1.92-1.4,2.95-1.97.4-.23,1.46-.82,1.85-.76l.43.35.02,1.48,3.06-.4c.14,0,.32.01.4.13.32.49-.54,2.35-.47,3,1.12-.11,2.01-.18,3.08.24.83.34,2.38,1.25,2.38,2.24.4-.39.74-.86,1.17-1.24.34-.31.9-.84,1.35-.7.12.03.35.39.35.43v2.02l3.03-1.04.3-.37.83-.02v.75h.13v-28.56s-.09-.04-.13-.06v2.19M35.92,52.04h-1.16c-.04.39-.16.88-.65.91-.04-.28-.26-.47-.37-.75-.1-.24-.1-.5-.15-.68-.84-.23-1-1.22-.91-1.96-.12-.26-.36-.81-.21-1.04.21-.27.8-.04.99.13.41-.42,1.34-.33,1.68-.51.03-.02.07-.21.22-.25.15-.03.26.11.3.12,1.51.05,2.9,0,4.43.13.63.04.27.08.39.26.07.09.36.23.5.47.16.27.26.65.28.96.04-.07.38-.46.44-.52.24-.22,1.14-.73,1.43-.64l.2.32c-.88.54-1.78,2.82-2.53,3.2-.3.15-.21-.71-.19-.78-.57.34-1.17.53-1.82.65-.08,0-.17,0-.26,0-.43.07-.86.18-1.3.13.08.77-.21,1.44-.59,2.09-.62-.67-.6-1.41-.72-2.22M54.53,61.48c-.93.32-1.13,1.38-1.9,1.88-1.37.88-5.42.7-7.14.67-.22-.01-.42-.13-.64-.14-1.8-.04-5.38.33-6.78-.77-1.12-.89-1.27-2.35-.26-3.39,1.14-1.18,4.33-1.54,5.92-1.7.22-.02.3,0,.39,0,.7-.04,2.24,0,2.74-.13.2-.04.28-.33.71-.26.08.04.21.35.21.39,1.06-.11,1.88.08,2.87.39.14.05.23.07.38.13.84.33,2.18.83,2.61,1.57h.39s-.1.48-.13.52c-.09.29.28.38.47.39.35.02.62-.18.97-.13.09.65-.38.45-.79.58M68.52,68.44c-.64.32-.96.25-1.62.28-.22.01-.32,0-.51,0-2.14,0-4.41.28-6.52.13-.16-.01-.29-.12-.39-.13-1.16-.16-1-.2-1.94-.65-.06-.02-.19.01-.26,0-.43-.08-.62-.03-1.04-.34-1.19-.85-.96-2.69-.07-3.7.29-.33,1.03-.66,1.46-.76.08-.02.2-.03.32-.05.28-.04.64-.1.82-.11.7-.04,1.45.04,2.15,0,0-.96.74-.41,1.04.13,1.1.11,2.18.15,3.26.39.32-.41.72-.67,1.23-.78.4.08-.07.97-.18,1.17.43.3,1.29.68,1.81.77.16.03.36-.02.52.01.03.12-.03.3,0,.38.02.04.46.35.59.53.67.95.38,2.2-.66,2.71M85.45,76.8c-1.42.12-2.87.34-4.29.39-1.75.08-3.52-.05-5.28,0-.03.15-.33.37-.27.64-.52.16-.6-.21-.77-.64-1.28-.16-2.61.64-3.85,0-.38-.2-.38-.34-.57-.65-.16-.27-.42-.67-.55-.95-.1-.24-.27-.6.1-.62.13-.01.34-.02.46,0,.09-.77.86-1.02,1.37-1.44.37-.3.62-.76,1.11-.91-.13-.13-.23-.3-.39-.46-.23-.21-.78-.45-.79-.77-.01-.84,1.9.33,2.23.59.92-.51,1.98-.49,2.99-.65-.26-.34-.76-.69-.64-1.1.68-.64,1.66.39,2.07.97h4.04c.3-.4.92-.61,1.42-.52.04.03-.08.58-.13.65l2.48.9c.38-.3,1.28-.87,1.69-.45l.07.33c-.3.25-.58.51-.85.77.9,1.1,1.15,2.22.19,3.38-.63.76-.98.46-1.81.53M88.12,77.52c-.27.2-.65,0-.76-.28-.2-.59.6-1.34,1.11-1.46.2-.04.41-.04.61-.01.13.08.23.14.19.3-.06.43-.99.97-1.15,1.45"/>
        <path class="cls-1" d="M25.13,38.88h-7.29l.17,3.51c2.24-.33,4.52-.55,6.82-.67.08-1.04.2-2.08.29-2.84M23.94,41.39l-.34.33c-.77.08-1.55,0-2.32.02-.34,0-.69.12-1.11.13-.09,0-.17,0-.26,0-.72,0-1.37.09-1.43-.84-.06-.91.45-.73.53-.85.04-.08-.1-.53.19-.65.12.13.35.16.46.26l.65-.39c.13-.61.42-.39.91-.26.63.16,1.22.4,1.18,1.15.36.05.7.14,1.03.27-.32-.5-.03-1.62.65-1.56.15.54.33,1.34-.26,1.69,0,0,.12.7.12.7Z"/>
        <path class="cls-1" d="M34.38,41.69s.07-.06.12-.08h.13c.36-.37.99.02,1.35,0,.54-.02,1.27-.23,1.84-.26.96-.05,2.43-.1,3.32.13.11.03.23-.02.39.07.09.05.1.18.13.2.2.16.38.32.5.52,3.95.4,7.87.96,11.66,1.59l3.2-1.65c-.24-.11-.48-.04-.75-.16-.18-.08-.42-.27-.42-.48l1.04-2.02c-1.12,0-2.35.1-3.26-.65h-26.41c-.13.88-.26,1.86-.49,2.75,2.54-.08,5.1-.06,7.66.05M43.6,40.2h0c.03-.11-.04-.27.03-.38.05-.08.21,0,.23-.02.02,0-.03-.15.03-.23.22-.1.44-.24.68-.3,1.56-.43,3.25-.28,4.76,0,.16.03.3-.11.78,0,.35.08.79.08,1.03.39.9-.59.99.53.39,1.16-.28,1.33-1.99,1.03-3.04,1.19-1.81.27-2.25.65-4.12-.08-.72-.27-.98-.79-.9-1.55,0-.13.12-.18.12-.18M27.79,39.91c.31-.25,1.59-.1,2.08-.12,3.21-.17,6.55-.28,9.75,0,.53.04,1.12.24,1.64.38.23.17-.02.23-.2.25-.64.11-1.27.36-1.94.4-3.52.23-7.28-.18-10.82,0-.5.08-.99-.57-.52-.93"/>
        <path class="cls-1" d="M53.49,46.57c.59.18.9.72.64,1.29-.04.03-.58.03-.63,0-.05-.04-.27-.85-.27-1.02-.37.05-.64.34-1.04.26.04.37,0,.79-.33,1.03-.35.12-.63-.51-.71-.77-.42.18-.84.35-1.28.51,0,.26-.07.51-.35.53-.21.02-.38-.09-.52-.25-.18.05-.35.11-.53.15,2.18,1.42,4.4,2.61,6.64,3.62,1.73.05,4.42-.27,5.74,1.03.43.42.6.88.61,1.33,2.14.64,4.31,1.14,6.49,1.52,1.16-.3,2.43-.57,3.37-.62.09,0,.17,0,.26,0,.2-.36,1.02.15.91-.39l-1.56-.13c.01-.11-.02-.36,0-.39.09-.07,1.16-.35,1.38-.38,1.72-.33,3.74-.68,5.44-.52l.15-.28,13.98-1.43v-4.04h-1.94c-.22.22-.5.37-.71.65-.28.37-.8,1.59-1.12,1.76-.13.07-.25.08-.39.05-.05-.27-.16-.49-.13-.78-.8-.07-1.63.21-2.4.27-.33.02-.66-.02-.99,0-.17,0-.35,0-.52,0h-1.42c.04.34.05,1.22-.35,1.3-.18,0-.41-.25-.5-.39-.08-.13-.28-.63-.33-.78l-1.56-.26c-.01.11-.22.62-.34.65-.6.17-.75-1.04-.9-1.42-.11-.29-.36-.6-.43-.88-.05-.21-.11-.43.11-.43l-3.64-.25c1.89,1.97-.87,3.17-2.61,3.38-.12.18-.7.39-.65.78h-.26c-.01-.08.02-.18,0-.26-.49.03-.92.27-1.4.36-.89.17-2,.17-2.89.03-.17-.02-.29-.11-.39-.13-.49-.1-.96-.26-1.43-.39.03.36,0,.77-.13,1.1.01.13-.25.1-.33.08-.21-.07-.49-1.38-.59-1.7-.63-.35-1.14-.82-1.31-1.54l-1.16-.02c-.16.23-.14.35-.51.26.03-.13-.13-.24-.14-.26h-1.81c-.1.17-.3.88-.52.65-.02-.21,0-.43,0-.65l-1.56-.26s-.15.04-.2.14c-.07.16-.16.76-.39.64-.29-.13-.33-.88-.33-1.16-.78-.52-1.08-1.23-.75-2.12.06-.17.15-.32.24-.47-.54.21-1.07.44-1.61.69-.04.18-.08.32-.1.33M90.39,49.69c.09-.21.61-.36.72-.25.01.02.13.39.13.45l-.47.71-.42-.13.04-.77h0ZM75.36,50.08c.27.63-1.46,2.55-1.43,1.24,0-.59.82-1.43,1.43-1.24"/>
        <path class="cls-2" d="M51.15,47.35c-.45-.06-.86.07-1.29.13,0,.11.02.25.02.38.43-.16.86-.33,1.28-.51h0"/>
        <path class="cls-2" d="M54.67,44.74c-.27.13-.64.2-.91.39.03.13-.08.72-.17,1.1.54-.25,1.07-.48,1.61-.69.1-.17.21-.34.25-.55l-.78-.26h0Z"/>
        <path class="cls-5" d="M13.02,78.43s-.22-.24-.26-.2c-.02.08-.06.15-.09.23h.35v-.03Z"/>
        <path class="cls-5" d="M4.95,78.96c.12-.15.19-.11,0-.26-.59-.49-1.31-.21-1.96-.52l-.12-.72c-.66-.22-2.03.5-2.48.07-.44-.42.6-1.59.52-2.15-.41.25-.9.32-1.29.6-.38.26-.73.98-1.24.83-.44-.13,0-1.03.04-1.37.08-.53,0-1.09.14-1.62-.61-.06-.76.64-1.17.91v6.41c2.28-.25,4.53-.76,6.77-1.27.23-.34.51-.57.78-.89"/>
        <path class="cls-5" d="M52.32,85.54c.04.05.42-.24.89-.54-.3,0-.6,0-.91.01.03.22.04.42.02.52"/>
        <path class="cls-6" d="M55.1,85.12l-.04,1.07,2.22.32c.6,1.48-1.18.59-1.89.59-.59-.01-1.14.61-1.37-.2l.26-1.62c-.05-.07-1.37.79-1.5.91-.24.22-.55.93-.97.64-.09-.06-.18-1.09-.28-1.78-.36.02-.72.06-1.08.1-.2.29-.35.63-.53.89-.66.92-1.12.11-1.29-.68-2.56-.3-3.74-5.53-6.67-5.53s-5.53.66-7.83,1.39c.41.33.83.88,1.01,1.05.15-.61,1.43-1.94,2.03-1.44.29.24.63,1.65.58,2.09.61-.42,2.09-1.66,2.8-1.57.9.29.21,1.29.2,1.96.57-.22,2.69-.63,3.1-.23.15.29.28.52-.05.74-.38.24-1.54.18-2.05.28-.6.11-1.47.68-1.9.32-.51-.52.23-1.27-.07-1.89-.36.28-.82.5-1.17.78-.25.22-.84,1.09-1.03,1.04-.16-.13-.35-.32-.4-.51-.14-.42-.1-1.19-.23-1.74-.03-.13-.07-.46-.29-.36-.58.27-.84,1.95-1.32,2.08-.61.17-1.01-.9-1.28-1.28-.19-.26-.66-.69-.78-1.04-3.13,1.01-5.95,1.99-9.32,1.33-.16.19-.32.32-.46.34-.38.04-.6-.28-.71-.63-.25-.08-.52-.18-.78-.28l-1.02,1.38c-.51.36-.6-.25-.87-.43-.75-.51-2.62-.28-2.89-.55-.37-.38.24-1.06.42-1.43.05-.12.19-.37.14-.5-.36.21-.76.09-1.15.28-.25.13-.93,1.05-1.19.63-.36-.59.55-2.02.33-2.74-.9.27-1.8.96-2.07,1.89-.25.13-.5.09-.66-.14v-2.18h-.35c-.14.29-.34.55-.4.9-.1.57.21,1.18-.61,1.08-.65-.08-.89-.91-1.5-1.03-.18,1.15.71,1.9-.78,2.28-.4.11-.73.1-1.17.25-.5.17-1.61.96-2.01.84-.48-.13,0-1.33-.08-1.69-.08-.07-.87.14-1.04.2-.39.15-.89.67-1.12.71-.64.1-.14-1.48,0-1.82.06-.13.13-.24.2-.34-2.24.51-4.49,1.02-6.77,1.27v13.15h72.63c-3.28-4.81-8.65-8.45-14.92-9.15M27.62,88.57c-.18-.37-.52-2.31-.09-2.38.13.04.47.21.54.29.23.24.46,1.24.43,1.6-.03.57-.53,1.22-.89.49M31.37,87.95c-.07.73-.66.96-.98.33-.11-.22-.11-1.83-.07-2.15.06-.37.33-.37.64-.32.34.72.48,1.34.4,2.14"/>
        <path class="cls-5" d="M92.02,90.71h-.13v.29c-1.18.21-2.44.61-3.54,1.08-.4.16-1.03.82-1.47.36-.41-.41-.07-1.23-.07-1.76,0-.2.09-.38-.2-.33-.41.42-.87.9-1.24,1.37-.19.23-.24.5-.45.72-1.23,1.34-1.24-1.11-1.57-1.68-.33-.55-1.57-1.13-2.21-1.19-1.04-.09-1.93.47-2.88.14-.06-.07-.13-.13-.16-.23-.19-.66.5-2.41.63-3.17l-2.78.37c-.65-.39-.46-1.15-.48-1.8-1.03.52-2.04,1.1-2.98,1.77-.34.24-1.17,1.09-1.49,1.07-.55-.04-1.49-1.12-1.76-1.62.08-.6.7-.8,1.02-1.22-.5-.24-2.16.08-2.34-.48-.18-.63,1.25-1.75,1.16-2.52-.47.07-.91.32-1.29.6-.34.26-1.28,1.59-1.55.62-.14-.5.57-2.4.63-3.05-.92.6-1.3,1.63-1.81,2.55-.3.15-.78.09-.78-.27v-2.15c-.77.24-1.17,2.89-1.42,3.08-.13.09-.3.07-.46.04l-.18-.21-.54-2.78c-.27.15-.48.63-.59.91-.16.45-.26,1.83-.76,1.81-.43-.01-.43-.54-.58-.85-.26-.54-.52-1.12-.88-1.61-.14.23,0,.57-.09.83-.22.75-.93-.04-1.28-.23-.42-.21-1.74-.57-1.88-.85-.46-.88.72-1.39.98-2.09-.27,0-.54-.02-.81.02-.5.1-1.29.83-1.6.24-.3-.58.9-1.79.85-2.48-.05-.07-.69.21-.82.28-.54.29-.84.92-1.51.75-.34-.24.22-2.02.25-2.47-.86-.13-1.71,1.69-2.16,1.82-.27.08-.41-.15-.57-.32v-2.54c-.24-.04-.33.12-.46.27-.24.29-.63.91-.83,1.25-.32.55-.24,1.39-1.13.7l-.72-1.57-.81,2.77c-.04.14-.17.3-.31.35-.41.11-1.07-.79-1.32-1.12-.08-.11.02-.25-.29-.17l-.15,1.87-.33.34c-.52.14-1.49-1.34-2.12-1.42-.18.48.04,1.96-.48,2.07l-2.64-.9c-.25-.36.59-1.37.64-1.82-.17-.15-1.8.75-2.21.38l.45-2.21c-.33.26-.62.48-.91.78-.24.25-.48.93-.98.6-.37-.26-.13-.62-.12-.92,0-.5,0-1,0-1.5-.67.49-.89,1.38-1.24,2.1-.16-.01-.35.02-.5-.02-.41-.14-.77-1.87-.73-2.34-.32-.05-.21.03-.29.17-.15.26-.29.61-.4.9-.17.5-.04,1.39-.87,1.08l-1.17-1.11c.11.87.49,1.94.38,2.79-.01.1-.1.47-.19.48l-3.31-.46c-.42-.26.28-1.37.13-1.51-.92-.17-1.46.78-2.33.64-.3-.63.2-1.27.12-1.95-.11-.13-1.24,1.03-1.38,1.17-.22.23-.24.59-.75.51-.87-.57-.25-1.5-.35-2.34-.46.25-.59.85-.8,1.28-.33.2-.66.21-.99-.01l-.81-1.4-.38,2.55c.32,1.57,1.35,2.44,2.34,3.52.46.49.64,1.16,1.41,1.26l.15,1.27,1.68-1.76h.79c.41.27.21,1.43.26,1.89.62-.38,2.3-1.32,2.99-.98.14.13.36.26.21.47-.24.36-1.3.52-1.77.71-.68.28-1.79,1.32-2.22.27l-.18-1.38c-.39.23-.93,1.21-1.39,1.73,3.37.67,6.19-.31,9.32-1.33-.03-.1-.04-.2,0-.27.21-.39.54-.27.88,0,2.3-.72,4.79-1.39,7.83-1.39s4.1,5.23,6.66,5.53c-.05-.25-.08-.49-.07-.68.08-.36.35-.57.7-.33l.28.39c.46-.46.99-1.14,1.7-1.17.12,0,.62.11.68.15.16.14.32.78.39,1.28.3-.01.61-.02.91-.01.55-.36,1.23-.74,1.63-.62l.28.24-.02.5c6.28.7,11.64,4.33,14.92,9.15h21.99v-3.56l.02.02Z"/>
        <path class="cls-5" d="M50.45,85.15c.36-.04.72-.08,1.08-.1-.04-.26-.08-.47-.12-.56-.46.06-.74.33-.96.66"/>
        <path class="cls-5" d="M21.98,82.26c.26.1.52.2.78.28-.07-.2-.1-.41-.11-.58v-.07c-.12.05-.28.08-.47.1,0,0-.2.27-.2.27Z"/>
        <path class="cls-5" d="M22.45,81.62l-.27.37c.19-.02.35-.05.47-.1,0-.17.07-.31-.2-.27"/>
        <path class="cls-14" d="M91.89,89.96v1.04c-1.18.21-2.44.61-3.54,1.08-.4.16-1.03.82-1.47.36-.41-.41-.07-1.23-.07-1.76,0-.2.09-.38-.2-.33-.41.42-.87.9-1.24,1.37-.18.23-.24.5-.44.72-1.23,1.34-1.24-1.11-1.58-1.69-.33-.55-1.57-1.13-2.2-1.18-1.04-.09-1.93.47-2.88.14-.07-.07-.13-.13-.16-.23-.2-.66.5-2.42.63-3.17l-2.78.37c-.65-.39-.46-1.15-.48-1.81-1.03.52-2.04,1.1-2.98,1.77-.34.24-1.17,1.09-1.49,1.07-.55-.04-1.49-1.12-1.76-1.62.08-.6.7-.8,1.02-1.22-.5-.24-2.16.08-2.33-.48-.18-.63,1.25-1.75,1.16-2.52-.47.07-.91.32-1.29.6-.34.26-1.28,1.59-1.55.62-.14-.5.58-2.4.63-3.05-.92.6-1.3,1.63-1.81,2.56-.3.15-.78.09-.78-.27v-2.15c-.77.24-1.17,2.89-1.42,3.08-.13.09-.3.07-.46.04l-.19-.21-.54-2.79c-.27.15-.48.63-.59.91-.16.45-.26,1.83-.76,1.81-.43-.01-.43-.54-.58-.85-.26-.54-.52-1.12-.88-1.61-.14.23,0,.57-.09.83-.22.75-.93-.04-1.28-.23-.42-.21-1.74-.57-1.88-.85-.46-.88.72-1.39.98-2.09-.27,0-.54-.02-.81.02-.5.1-1.29.83-1.6.24-.3-.58.9-1.79.85-2.48-.05-.07-.69.21-.82.28-.54.29-.84.93-1.51.75-.34-.24.22-2.02.25-2.47-.86-.13-1.71,1.69-2.16,1.82-.27.08-.41-.15-.57-.32v-2.55c-.24-.04-.33.12-.46.27-.24.29-.63.91-.83,1.25-.33.55-.24,1.39-1.13.7l-.72-1.57-.82,2.77c-.04.14-.17.3-.31.35-.41.11-1.07-.79-1.32-1.12-.08-.11.02-.25-.29-.17l-.15,1.87-.33.34c-.52.14-1.49-1.34-2.12-1.42-.18.48.04,1.96-.48,2.07l-2.64-.9c-.25-.36.59-1.37.64-1.82-.17-.15-1.8.75-2.2.38l.45-2.21c-.33.26-.62.48-.91.78-.24.25-.48.93-.98.6-.37-.26-.13-.62-.12-.92,0-.5,0-1,0-1.5-.67.49-.89,1.38-1.24,2.1-.16-.01-.35.02-.5-.02-.41-.14-.77-1.87-.73-2.34-.32-.05-.21.03-.29.17-.15.26-.29.61-.4.9-.17.5-.04,1.39-.87,1.08l-1.17-1.11c.11.87.49,1.94.38,2.8-.01.1-.1.47-.2.48l-3.31-.46c-.42-.26.28-1.37.13-1.51-.92-.17-1.46.78-2.33.64-.3-.63.2-1.27.12-1.95-.11-.13-1.24,1.03-1.38,1.17-.22.23-.24.59-.75.51-.87-.57-.25-1.5-.35-2.34-.46.25-.59.85-.8,1.28-.33.19-.66.21-.99-.01l-.81-1.4-.38,2.54c.31,1.57,1.35,2.44,2.33,3.52.46.49.64,1.16,1.41,1.26l.15,1.27,1.68-1.76h.79c.41.27.21,1.43.26,1.89.62-.38,2.3-1.32,2.99-.98.14.13.36.26.21.47-.24.36-1.3.52-1.77.71-.68.28-1.79,1.32-2.22.27l-.18-1.38c-.53.32-1.34,2.01-1.85,2.07-.6.07-.79-.75-.83-1.21-.02-.2.11-.39-.19-.34l-1.49,2.01c-.51.36-.6-.25-.87-.44-.75-.51-2.62-.28-2.89-.55-.37-.38.24-1.05.42-1.42.05-.12.18-.37.14-.5-.36.21-.76.09-1.15.28-.25.13-.93,1.05-1.2.63-.36-.59.55-2.02.33-2.74-.9.27-1.8.96-2.07,1.89-.25.13-.5.09-.66-.14v-2.21s-.22-.24-.26-.2c-.11.4-.41.7-.49,1.13-.1.57.21,1.17-.61,1.08-.65-.08-.89-.91-1.5-1.03-.18,1.15.71,1.9-.78,2.28-.4.11-.73.1-1.17.25-.5.17-1.61.96-2.01.84-.48-.13,0-1.33-.08-1.69-.08-.07-.87.14-1.04.2-.39.15-.89.68-1.12.71-.64.1-.14-1.48,0-1.82.26-.55.63-.8.98-1.23.12-.15.2-.11,0-.26-.59-.49-1.31-.21-1.96-.52l-.12-.72c-.66-.22-2.03.5-2.48.07-.44-.42.6-1.59.52-2.15-.41.25-.9.32-1.29.6-.38.26-.73.98-1.24.83-.44-.13,0-1.03.04-1.37.08-.53,0-1.09.14-1.62-.61-.07-.76.64-1.17.91v-1.3c.41-.3,1.19-.71,1.69-.46l.24.28-.24,2,2.52-.9.28.25c.33.35-.55,1.87-.46,1.96.75-.16,1.53-.26,2.21.19.71.48.64.44,1.43.78.24.11,1.09.6,1.23.58.7-.55.73-1.47,1.02-2.24.16-.43.88-1.96.89-2.25.03-.51-.35-1.25-.4-1.82-.1-.98-.05-2.52,0-3.52.02-.42.25-.89.12-1.36-1.36-.41-2.27-1.77-3.83-1.71-.4.01-.68.23-1.09-.01-.16-.64.41-1.09.5-1.67l-2.66.91c-.64-.13.45-2.36.32-2.48-.69.05-1.37.61-1.82,1.11-.19.2-.25.55-.59.59-1.02.11-.26-1.98-.46-2.22l-.91.78v-1.3c.49-.33,1.13-1.17,1.74-.79.47.56.04,1.22.09,1.84.65-.37,2.06-1.37,2.78-.92.1.07.12.16.15.26.12.5-.39,1.47-.59,1.97.7.14,2.51-1.22,2.93-.4.28.56-.43.91-.47,1.44.69-.07,1.23.05,1.86.29.77.29,1.39.87,2.18,1.14v-15.38c-.85-.03-1.69.04-2.54,0-1.43-.08-2.99-.22-4.43-.39-.19-.03-.39-.02-.44-.27l3.57-.39h3.85l.13-1.42c-.8-.03-1.61.03-2.41,0-1.66-.07-3.35-.28-5.01-.39v-.26c2.44-.42,4.93-.42,7.42-.39l-.13-5.22H.46s-.74-.21-.91-.25c-.18-.05-.4,0-.46-.27.62-.06,1.28-.31,1.9-.38,2.27-.2,4.79.13,7.08,0v-1.18c-1.44-.11-3.07.14-4.5,0-.23-.02-.47-.04-.58-.26.39-.58,1.18-.35,1.76-.39.22-.02.42-.13.64-.14.88-.04,1.78.04,2.67,0V5.25c-1.47.88-3.11-.88-3.52-2.22-.46-.05-.62.4-1.1.4C1.84,3.43,1.16.8,1.05-.48h1.17c.09.61.21,1.25.46,1.82.2.46.54,1.1,1.1,1.04.21-.57.26-1.69,1.1-1.41.28.09.54,1.38.71,1.77.41.96,1.15,1.87,2.3,1.86.25,0,.18.03.2-.2.08-1.62-.05-3.26,0-4.88h.65c-.05.38.11.72.13,1.1.24,4.15-.13,8.45-.14,12.52-.01,8.54.05,17.13.39,25.68.33,7.94-.03,15.92.14,23.84.02,1,.05,2.15,0,3.14-.1,1.78-.53,3.54-.4,5.34.06.76.47,1.63.4,2.35-.03.45-.55,1.21-.75,1.72-.42,1.07-.92,3.51-1.73,4.13-.44.33-.96.54-1.3,1.05l1.25.05c.44.36-.01,1.11.05,1.17.65-.18,1.24-.61,1.91-.75.23-.04.47-.03.69-.03.09-.08-.42-1.64.07-2.21.57-.66,1.61.35,2.14.65,0-.53.88-2.04,1.37-2.1.75-.08.65,1.46.85,1.97l1.92-1.02c.32-.11.49.08.68.31v1.88c.52-.21,2.26-.57,2.46.09.16.6-.46.97-.63,1.48l2.41.52.26-.12c.17-.4.72-.69.72-1.12,0-.74-1.31-1.71-1.76-2.28-2.48-3.23-2.04-8.4-2.16-12.3-.38-13.52-1.03-27.01-1.29-40.53-.14-6.92-.02-13.81-.14-20.72-.03-1.94.04-3.88.01-5.81h1.3l.13,5.93c.04.36.49.5.81.43.6-.11,1.84-1.48,2.15-2.02.32-.52.38-1.27,1-1.48.73-.08.73,1.45.98,2.03.16.38.37.81.85.71.12.01.18-.06.26-.13.35-.36.97-2.84,1.18-2.87l.69.02c.18.84.29,2.64,1.57,2.27.7-.21,1.9-1.62,2.12-2.32.17-.55-.09-1.4.8-1.28.69.1.4,1.72.47,2.27.1.86.57,2.08,1.6,2.02.6-.39.27-1.84,1.09-1.92.82-.09.64,1.27.71,1.73.08.64.71,2.24,1.48,2.16.77-.07,1.25-2.16,1.36-2.82.09-.48-.06-1.83.6-1.88.29-.02.59.11.66.38.17.68-.15,3.14.66,3.38,1.14.34,1.62-.99,1.9-1.84.19-.59.36-2.23,1.06-2.19.92.07.52,1.64.62,2.38.11.73.48,1.76,1.23,2.03.44.04.97-.83,1.12-1.2.21-.5.24-1.66,1.14-1.2.59.29.27.9.26,1.3-.05,1.07.26,2.78.91,3.65.09.12.68.73.78.77.47.24,1.17-.12,1.41-.53.25-.41.09-1.39.76-1.59,1.07-.33.88,1.02.96,1.6.11.78.74,1.92,1.65,1.53.57-.24,1.84-1.87,1.96-2.47.12-.59-.04-2.13.98-1.85.76.22.38,1.64.5,2.25.13.47,1.15.41,1.54.28,1-.33,2.14-2.95,2.2-3.98.45-.11.23.52.27.84.1.65.48,1.48,1.29,1.06.23-.12.73-1.23.83-1.52.17-.57.24-2.69.68-2.83,1.23-.4.74,1.92.87,2.62.05.32.23.77.62.75.25-.73.52-1.46.72-2.21.16-.63.24-2.39.92-2.6.47-.14.61.2.67.6.1.58-.01,1.2.03,1.78.1,1.07.63,2.81,1.37,3.59.11.12.12.18.32.14,0-.3.29-.45.45-.66.54-.73,1.09-1.76,1.44-2.6.18-.43.52-1.85.85-2.02.13-.08.29-.1.45-.05.43.14.5,2,.75,2.51.09.17.16.26.37.22.24-.95.76-1.82,1.11-2.74.21-.55.1-1.55,1.02-1.28.48.15.29.73.35,1.09.15.83.35,1.66,1.1,2.16.46.3.67-.17.88-.57.23-.46.61-2.4,1.35-1.79l.58,1.49.26.08c.57-1.18,1.27-2.34,1.56-3.64h1.04c-.36,1.47-1.13,2.78-1.82,4.1.61.4.73-.62,1.12-.7.33.02.57.21.54.54-.03.45-.47,1.6-.65,2.08-.61,1.59-1.41,2.96-2.7,4.07.09.17.36.02.48-.03.37-.15.55-.41.89-.55.88,0,.14,1.61-.04,2.06-.42.99-1.12,2.3-2.11,2.77-.03.2.19.15.33.13.34-.08.62-.41.99-.21.15.11.13.36.13.53-.04.79-1.29,2.61-1.83,3.25-.39.46-.9.86-1.3,1.3.4.15.94-.1,1.15.41.05.16.03.32,0,.48-.06.28-1.03,1.56-1.28,1.85-.59.69-1.36,1.27-1.94,1.97l.52.83h-.58c-.22.47-.87.47-1.35.63-.15.05-.22-.01-.15.21.34,1.15,3.21,2.48,4.02,3.4l-.54.63-1.66.22c.32.71.63,1.46,1.11,2.08.98,1.26,2.32,1.69,3.69,2.36v.37c-1.14.78-2.21.82-3.51.4-.21.23.58,1.52.78,1.76.25.28,1.25,1.03,1.57,1.17.09.04.15.07.25,0,.9-.37,1.78-.77,2.7-1.09.69-.24,2.05-.82,2.71-.55.25.1.46.29.71.39.22-.59,1.91-2.97,2.41-3l.57.15v1.41c.77-.46,1.47-1.1,2.31-1.4,1.73-.62.63,1.12.3,1.93l2.21-.26v.91l-3.03.51c-.77-.22.16-1.32.3-1.75.05-.17-.02-.25-.2-.2-.17.05-.9.58-1.1.73-.25.19-1.17,1.08-1.36,1.08-.2,0-.38-.17-.42-.37-.05-.28.18-.55.01-.78-.21.39-1.21,1.34-1.1,1.74.35.41.8.81,1.09,1.26.18.32.43,1.13.6,1.24.21.13.51,0,.51.52,0,.28-.77,1.25-.97,1.62-.29.53-.73,1.91-1.12,2.14-.46.28-1.47.23-2.1.37-.52.12-1.79.71-2.32.71-.05,0-.1,0-.13,0-.59-.18-.57-1.12-.64-1.64-.12-.15-2.21.61-2.55.65-.39.04-.74,0-.84-.44l.13-.99c-.08-.09-1.08.4-1.26.5-.61.34-1.09.98-1.85.79-.52-.37.71-2.53.89-3.06l-.45-1.62c-.31,0-.81.95-1.17,1.18-.89.59-1.94-.38-2.73-.78-.5.46-.37,1.37-1.17,1.44-.97.08-1.74-.8-2.35-1.44-.68.71-1.36,1.74-2.28,2.14-.37.16-.58.26-.91,0-.34-.26-.29-.62-.46-.97-2.41,1.23-4.87,2.34-7.31,3.49-.34.15-.67.41-.96.54-.27.13-.64.2-.91.39-.46-.1-.95-.42-.65-.91l3.91-2.02c-.24-.11-.48-.04-.75-.16-.18-.08-.42-.27-.42-.48l1.04-2.02c-1.12,0-2.35.1-3.26-.65l-.26-.73.13-.25c2.15-.76,5.02-1.05,5.99-3.46-.71,0-1.55.09-2.06-.47-.08-1.25.9-1.37,1.72-1.9,1.16-.75,2.08-1.51,2.41-2.94.02-.09.09-.28-.04-.29-.92.37-2.95,1-3.83.45-.51-.32-.21-.61.13-.89.79-.65,1.86-1.09,2.66-1.77.9-.76,1.57-1.67,1.76-2.86-.86.26-1.78.63-2.67.26-.38-.55.82-1.51.98-2.09-1.08.32-2.18.63-3.32.52-.39-.03-1.17-.22-1.11-.72.06-.63,1.88-1.09,2.44-1.35,1.1-.51,2.17-1.2,2.82-2.24l.73-1.95c-.82.17-1.81.53-2.67.39-.37-.07-.49-.37-.46-.72.1-.79,2.27-2.1,2.93-2.68,1.04-.91,2.4-2.33,2.41-3.78-.37.26-2.18.86-2.34.33-.15-.52.23-.49.43-.72.43-.48.76-1.28,1.24-1.77l-.84-.96c-.57,1.3-1.59,2.26-2.99,1.3-.18.03-.32.77-.43,1-.59,1.21-2.11,2.12-3.45,1.84-.28-.07-.63-.45-.92-.36-1.3,2.24-3.91,3.27-5.35.51-1.94,1.42-3.72-.21-4.42-2.08-.12-.34-.12-1.34-.59-1.11-1.48,1.23-3.13-.53-3.38-2.02l-.39.59c-.91,1.02-1.91,1.73-3.06.59-.21-.2-.12-.48-.46-.39-.37,1.14-1.24,1.77-2.41,1.95-1.04-.28-1.69-1.34-1.88-2.34-.29-.03-.38.24-.62.36-.82.41-1.89-.27-2.36-.97-.28-.42-.34-.94-.61-1.35-.82,1.27-2.58,2.4-3.96,1.23-.18-.15-.2-.51-.52-.45-.58,2.22-2.75,2.02-3.45,0-1.02,1.17-2.19,2.81-3.96,2.22v17.6c.25.03.38-.2.61-.24.63-.14,1.15.07,1.73.24,0-.63-.44-1.15-.39-1.76.04-.55.42-.84.65-1.29-1.34-1.12-.76-3.39.91-3.73-.12-1.44.78-4.14,2.54-4.05.22.01.43.15.64.14.32-.02.66-.41,1.07-.49,1.11-.21,2.04.27,2.7,1.15.44.59.55,1.14.46,1.87-.04.32-.25.59-.26.92-.02.35.16.64.14,1.03-.02.32-.47,1.83-.4,1.89.63.17,1.11-.44,1.64-.51.68-.11,1.48-.04,2,.46.29.28.34.68.6.97.96-.59,1.82-.38,2.32.22.46.53.63,1.35.35,2.2l1.25,1.22c.41.01.71-.28,1.14-.24,1,.09,1.85,1.1,2,2.04.08.4-.04.91.05,1.25.05.18.32.3.42.49.94,1.55-1.11,3.07-2.46,3.24-.93.12-.71-.11-1.57.38-.78.42-1.39.37-2.18,0-.56-.26-1-.96-1.24.07.85,1.09,1.62,1.71,1.05,3.18-.53,1.38-1.98,2.74-3.45,1.71-.26-.18-.45-.67-.66-.63l-1.83,1.17c-.2.49-.12,1.09-.19,1.57-.16,1.07-.3,2.28-.65,3.32.84,1.24,1.16,3.22,1.85,4.4.13.23.36.35.42.49.26.49.01,3.74-.05,4.5-.05.62-.12,1.25-.14,1.88-1.22.78-1.9,2.08-2.86,3.12-.07-.24-.12-.43-.14-.71-.04-.75.12-1.61.14-2.41.02-1.69.17-4.06-.01-5.67-.11-.92-.62-1.9-.85-2.81-.37-1.51.01-4.48.21-6.12.02-.23-.02-.47.01-.71.09-.68.26-1.36.38-2.03-2.36.38-3.38-1.54-1.96-3.38-.47.07-1.31-.13-1.69.05-.14.08-.29.34-.46.46-1.06.79-2.36,1.35-3.57.52.07.79-.18,1.49-.14,2.28.07.92.23,1.86.14,2.81l.39,7.95c.21,0,.37-.12.58-.14,1.62-.11,3.31-.1,4.92.04.23.09.43.03.36.36-.74.35-1.49.31-2.28.39-.12,0-.23.13-.26.13h-3.31v1.29c1.47-.26,3.26-.39,4.75-.26.41.04,1.11.12.98.65l-1.37.39h-4.35l.14,2.14c.9.66,1.48,1.48,1.18,2.65-.04.18.05.35-.22.29l-.98-1.57.26,6.38.06.12c4.35.13,8.73-.14,13.08,0,1.43.05,2.86.29,4.29.39l-1.16.26-2.8.27h-13.47v1.43c.25-.04.43-.12.71-.14,2.91-.16,6.09-.03,8.98.14.9.05,1.78-.08,2.67.26.03.18-.25.16-.39.2-.17.03-.79.2-.85.2h-11.12l.13,1.44c1.41.08,2.94-.12,4.35,0,.64.07,1.26.35,1.9.38.09.42-.27.22-.55.29-.07.01-.08.1-.1.1-1.76.49-3.66.17-5.46.26l.13,7.56c.36.07.21-.08.28-.28.18-.5.22-1.08.93-.87.31.1.84,1.37.99,1.73l.26.08c.09-.45,1.49-1.76,1.87-1.68l.28.24-.07,2.09c.63-.54,1.53-1.29,2.35-.72.36.43-.06,1.33,0,1.37.74-.25,1.32-.41,2.07-.07,1,.47-.2,1.32,0,1.5l1.95.13c-.13-.86-.46-1.82-.52-2.66-.03-.38-.08-.82.26-1.06.51-.3,1.31,1.26,1.76,1.37.34-.55.51-1.15.92-1.68.35-.43.61-.62.82-.62.54,0,.67,1.23.8,2.04.67-.53,1.12-1.58,2.12-1.54.59.16.28,1.44.35,1.94.64-.32,1.25-1.11,2.03-.65l-.21,2.09c.14.14,1.63-.79,2.15-.26s-.53,1.4-.72,1.96l.97.25c.22-.04.27-.95.43-1.26.12-.22.29-.4.5-.54l1.87,1.29.27-2.6c1.09-.23,1.16,1.24,1.94,1.68.14-.59.72-2.83,1.17-3.07.57-.29.92.44,1.11.85.11.26.14.54.26.78.47-.73.97-1.33,1.56-1.95.22-.23.33-.59.76-.64.09.05.25.08.31.14.23.23.22,1.99.29,2.45.37-.09.56-.45.86-.63,1.84-1.15,2.12-.33,1.74,1.54.12.13,2.03-.99,2.32-.17.2.61-.34,1.41-.5,2,.12.1,2.53-.73,2.18.82-.13.63-.76.91-1.01,1.46l1.43.59c-.08-.31.36-1.24.7-1.16.69.51.78,1.45,1.31,2.08.36-.73,1.36-2.86,2.26-1.73.04.57.13,1.1.15,1.67,0,.14-.09.35.13.32-.03-.71,1.48-2.65,2.13-2.47.12.04.19.18.24.29.21.42,0,.86.17,1.26.71-.64,1.45-1.74,2.52-1.54.42.29-.4,2.2-.38,2.72.74-.4,1.53-.77,2.39-.63.93.27-.26,2.24-.56,2.72.9-.07,2.56.25,2.19,1.48-.09.28-.73.49-.89.8l.6.58c.99-.65,1.92-1.4,2.95-1.97.4-.23,1.46-.82,1.85-.76l.43.35.02,1.48,3.06-.4c.14,0,.31.01.4.13.32.49-.54,2.35-.47,3,1.12-.11,2.01-.19,3.08.24.82.34,2.38,1.25,2.38,2.24.4-.39.74-.86,1.17-1.24.34-.3.9-.84,1.35-.7.12.03.35.39.35.43v2.02l3.03-1.04.3-.37.83-.02v.04ZM85.71,40.3c.08-.09.08-.18.05-.29-.11-.58-2.22-2.6-2.79-2.7-.48-.09-.95.14-1.4.29-1.86.6-3.6,1.57-5.42,2.25-.16.11-.27.25-.38.4-.24.34-.96,1.59-1.05,1.94-.06.17,0,.25.18.2.61-.18,1.25-.89,2.08-.63l.47,1.15c.54-.15,1.11-.38,1.66-.49.18-.03,1-.16,1.11-.14.14.02.49.25.55.37l.27,1.19,3.42-.8c.11-1.01.63-1.94,1.25-2.73M79.9,5.42c.02-.11.11-.57-.17-.43-.46.22-1.13,1.1-1.69,1.04-1.28-.59.46-1.22.46-1.89,0-.22-.23-.41-.26-.63l-.26-.09c-.76,2.15-2.78,1.86-3.7,0-.51.73-1.04,3.13-2.28,2.27-.45-.3-.57-.59-.75-1.07-.05-.12.01-.2-.16-.16-.46,1.32-1.22,2.5-2.2,3.48-.12.41,1.13,1.48.9,2.12-.34-.1-.71.12-.98.12-.29,0-.66-.22-.98-.18.25.3.34.71.54,1.02.63,1.01,1.66,1.56,2.52,2.31.17.15,1.1.99.85,1.17-.52.03-.98.38-1.5.4-.29,0-.51-.13-.78-.15-.19-.01-.23-.02-.18.2.23.96,1.09,1.97,1.81,2.62.47.42,2.28,1.35.91,1.83-.77.27-1.07.02-1.76-.08-.21-.02-.23-.01-.19.2.09.61,1.16,2.09,1.62,2.55.11.11.88.75.95.76.76.23,1.98-1.65,2.51-2.13.05-.27-.13-.22-.33-.2-.66.07-1.38.36-1.87-.35-.18-.66,1.89-1.82,2.39-2.26.36-.3.88-.82,1.18-1.16.23-.28,1.01-1.35,1.1-1.63.06-.21-.02-.22-.2-.21-1.01.07-2.24.76-3.29.24l-.07-.44c.94-1.12,2.49-1.43,3.62-2.39.46-.39,1.2-1.33,1.37-1.89.05-.17-.01-.23-.2-.18-.33.09-.68.27-1.07.35-.51.11-1.64.42-1.73-.29-.1-.73.65-.97,1.11-1.36.98-.85,2.43-2.21,2.78-3.48M76.66,38.36c-.48-.57-1.17-.98-1.62-1.58-.35-.46-1.11-2.26-.97-2.77.21-.51.75-.25,1.15-.41-.94-.84-1.73-1.84-2.14-3.06-.25-.72-.71-1.81.28-2.07.18-.04.46.04.57-.09-.78-.64-1.64-1.24-2.28-2.01-.78-.95-1.41-2.02.33-2.23,0-.14.02-.29-.02-.43-.03-.1-1.25-1.1-1.48-1.38-.59-.68-1.65-2.41-1.6-3.31.02-.23.22-.65.45-.72.23-.07.53.05.7-.09-.83-.63-2.38-2.99-1.89-3.97.24-.48.74-.39,1.17-.39.2,0,.38.09.33-.2-.86-.74-1.89-1.53-2.37-2.58-.25-.57-.74-1.72.12-1.89l.68.04c-.88-1.1-1.92-2.17-2.22-3.59-.16-.22-.23.03-.26.19-.18.71-.59,1.42-.92,2.08-.06.12-.21.21-.24.28-.15.32.47.12.65.25.27.83.32,1.69.07,2.56-.4,1.4-1.9,2.85-3,3.77l-1.11.78c-.02.25.24.07.37.03.53-.12,1.06-.4,1.57-.15.11.15-.11.92-.18,1.16-.1.31-.35.68-.39.89-.04.17.11.36,0,.67-.3,1.01-1.97,2.32-2.81,2.93.09.16.37.01.5-.03.42-.13,1.25-.73,1.6-.5.66.47-.41,2.2-.79,2.69.73-.02,1.67-1.34,2.28-.65.38.45-.02,1.72-.23,2.25-.53,1.39-1.49,2.22-2.66,3.07-.16.12-.35.26-.57.28-.02.24.29.13.44.11.77-.17,2.71-1.24,2.55.34-.18,1.85-1.88,4.13-3.63,4.76-.04.21.18.15.33.14.52-.03,1.02-.4,1.24.33.04.37-.63,1.64-.86,2-.91,1.41-2.48,2.29-4.1,2.62-.03.23.29.12.46.13.21,0,.45.02.65,0,.44-.04,1.09-.49,1.43-.13.58.59-.77,1.93-.85,2.6.21.2,3.18-.77,3.64-.97.24-.11.58-.26.78-.4.31-.23,1.5-1.42,1.89-.84l.26,1.95c.96-.66,1.73-1.61,2.35-2.6,1.09-.61,1.23,1.28,2.21,1.54.77-.5.51-2.13,1.67-1.78.48.44,1.57,1.37,2.24,1.28.55-.08.87-1.23,1.29-1.58,1.05-.7,1.01,1.5,1.12,2.1.76-.34,1-1.29,1.81-1.44M70.03,13.85h-.26v.13h.26v-.13ZM38.79,29.3c.21-.68-.55-.86-.73-1.36-.23-.71.25-1.36-.51-1.97-.67-.54-1.02.18-1.63.08-.96-.43-1.37-1.46-2.6-1.51l.02-.43c.55-.45.61-1.14.5-1.84-.17-1.04-1.54.01-1.96.38-.58.52-1.18,1.79-1.17.13.34-.99.68-2.24-.85-2.01-.55.09-.82.58-1.56.52-.25-.01-1.59-.49-1.69-.64-.33-.51.15-.83.3-1.14.18-.38.35-1.24.26-1.64-.03-.18-.2-.33-.23-.55-.09-.6.21-.6.33-.97.32-.9-.54-1.87-1.43-1.97-.76,0-.72.75-1.32.79-.41.03-.43-.3-.66-.38-1.12-.34-1.85,1.9-1.59,2.76.08.26.77.66.45,1.14-.29.42-.97.01-1.42.14-.36.11-.75.84-.71,1.2.09.82,1.35,1.09,1.27,1.46-.31.3-.78.14-1.13.49-.78.78-.14,1.3-.05,2.12.18,1.66-1.37,1.01-2.21,1.29-.2.07-.83.63-.88.8-.01,1.03-.06,2.08-.03,3.11.01.23.13.42.14.65.07,1.18-.37,3.64,1.49,3.45.32-.03,1.1-.39,1.37-.59.47-.34.5-1,1.04-1.17.64-.21,2.49-.02,2.96.5.86.92-.71,1.64-.48,2.48.42.77,1.31.04,1.9.32.53.25.5.78.76,1.22.82.11,1.81-1.19,2.33-1.19s1.1,1.12,1.84,1.17l.32-.07c.97-.91,1.66-1.77.59-2.94-.47-.5-1.11-.37-.98-1.23l1.17-1.7c1.02-.71,1.29.68,2.28.84,1.14.17.77-.25,1.13-.62.36-.36.84.09,1.18.07.6-.02,2.07-.53,2.17-1.2M27.99,53.02c-.13-1.72.15-3.65,0-5.35-.14-1.49-1.61-3.69-1.92-5.23l.62-5.25c-.2,0-.4-.02-.59,0-.11,0-.21,1.9-.34,2.14.07,1.31-.27,2.61-.13,3.93.12,1.13,1.15,2.79,1.3,4.05.2,1.78-.01,4.18.01,6.05,0,.22-.01.43,0,.65.29-.09.47-.5.64-.65.08-.07.35.07.4-.33"/>
        <path class="cls-5" d="M91.89,64.28v.52c-.27.52-.46,1.05-1.11,1.18-1.79.05-3.61-.07-5.4,0,.74-1.63-.24-3.44-1.43-4.56.79.02,1.62.03,2.4.14.72.1,1.42.39,2.16.38-.77.9-1.5,2.17-1.04,3.38.21.02.3.03.46-.13.29-.32.58-1.38.87-1.87.19-.3.52-.68.76-.99.68.15,1.72.61,2.06,1.25.13.25.09.53.27.7M91.53,64.38c.06-.16.19-.28-.02-.42-.72-.43-1.82,1.22-1.56,1.89.36.37,1.46-1.15,1.59-1.47"/>
        <path class="cls-2" d="M91.89,61.69c.01.87,0,1.74,0,2.6-.19-.16-.14-.45-.27-.7-.35-.64-1.38-1.1-2.06-1.25.2-.26.49-.48.52-.78.13.05.73-.03.98,0,.28.02.54.16.84.13"/>
        <path class="cls-14" d="M91.89,57.51v1.04c-5.82-.12-11.68.16-17.51,0-2.67-.08-5.3-.26-7.99-.27-.8,0-1.93.11-2.67,0-.25-.02-.49-.27-.2-.46.26-.16,3.14-.05,3.73-.05.21,0,.29-.13.3-.14.14-.02.39.14.59.14,2.14-.03,4.26-.22,6.38-.27,5.79-.16,11.6.13,17.38,0"/>
        <path class="cls-14" d="M91.89,55.04v.78c-2.97-.03-5.94.03-8.92,0-.32,0-.59-.14-.9-.14-3.55-.03-7.11.05-10.67,0l-.08-.5h.26c3.41-.14,6.94-.11,10.34-.14,3.32-.03,6.65.03,9.96,0"/>
        <path class="cls-14" d="M91.89,52.95v.78c-3.15-.13-6.43.16-9.57,0-.68-.03-1.51-.22-2.21-.26-.45-.03-.92.02-1.37,0-.17-.15-.02-.25.2-.26.74-.03,1.48-.08,2.22-.13.22,0,.42-.12.64-.13,3.31-.18,6.78.14,10.09,0"/>
        <path class="cls-5" d="M91.89-.48v36.62l-3.03.51c-.77-.22.16-1.32.3-1.75.05-.17-.02-.25-.2-.2-.17.05-.9.58-1.1.73-.25.18-1.17,1.08-1.36,1.08-.2,0-.38-.17-.42-.37-.05-.28.18-.55.01-.78-.21.39-1.21,1.34-1.1,1.74.35.41.8.8,1.09,1.26.18.32.43,1.13.6,1.24.21.13.51,0,.51.52,0,.28-.77,1.25-.97,1.62-.29.53-.73,1.91-1.12,2.14-.46.28-1.47.23-2.1.37-.52.12-1.79.71-2.32.71l-.05,1.48c.26.26.53.5.74.82.24.38.82,1.89.89,2.31h1.42c-.46-.6-.82-1.6-.59-2.35.14-.46.53-.57.75-.09.11.23.42,1.23.47,1.49.05.33.08.65-.11.95.33,0,.66.03.99,0,.77-.07,1.6-.34,2.4-.27.12-1,1.56-2.63,2.66-2.6l.19.33c-.21.14-.35.41-.51.59h1.94v4.04l-1.44.15c.49.1,1.02.11,1.57.06V-.48h-.13.02ZM87.6,46.89c-.63.48-.78,1.21-1.25,1.75-.1.11-.2.31-.38.26-.4-.35-.14-.98.04-1.39.34-.76,1.35-1.77,2.24-1.34.11.53-.36.5-.65.72"/>
        <path class="cls-10" d="M91.89,31.19v4.04l-2.2.26c.32-.8,1.42-2.54-.31-1.92-.85.3-1.54.95-2.3,1.4v-1.41l-.59-.15c-.5.03-2.19,2.41-2.41,3-.25-.1-.46-.29-.71-.39-.65-.26-2.02.32-2.7.56-.92.31-1.8.72-2.7,1.09-.1.06-.16.03-.25,0-.33-.14-1.32-.89-1.57-1.17-.21-.24-.99-1.53-.78-1.76,1.29.41,2.37.38,3.5-.4v-.37c-1.36-.67-2.7-1.1-3.68-2.36-.48-.62-.79-1.37-1.11-2.08l1.66-.22.54-.63c-.8-.92-3.68-2.25-4.02-3.4-.07-.22,0-.15.15-.21.48-.16,1.13-.16,1.35-.63h.57l-.52-.83c.59-.7,1.36-1.28,1.94-1.97.25-.29,1.22-1.57,1.28-1.85.03-.16.05-.32,0-.48-.21-.51-.75-.26-1.15-.41.4-.45.91-.85,1.3-1.3.54-.64,1.79-2.46,1.84-3.25,0-.17.02-.42-.13-.53-.37-.21-.65.13-.99.21-.13.02-.36.07-.33-.13.99-.47,1.68-1.78,2.11-2.77.18-.45.92-2.06.04-2.06-.34.14-.52.4-.89.56-.12.05-.39.21-.48.03,1.29-1.11,2.1-2.48,2.7-4.07.19-.48.62-1.63.65-2.08.02-.34-.22-.52-.54-.54-.39.08-.51,1.1-1.12.7.7-1.32,1.47-2.63,1.82-4.1h4.68c.28,1.89.7,3.83,1.82,5.41-.45.26-1-.73-1.42-.44-1.13,2.04.31,4.41,1.81,5.84l-2-.24-.33.33c-.2.66.28,1.38.69,1.87.73.89,1.79,1.52,2.54,2.41l-1.28.48c-.5.51.32,2.21.65,2.75.39.64,1.48,1.8,2.12,2.17.26.16.43.15.72.13v9.91c-.77-.36-1.56-.93-2.21-1.5-.38-.33-1.36-1.75-1.8-1.03-.23.37-.79,2.33-1.13,2.39-.92-.26-1.22-1.31-1.74-2.01h-.66c-.43.89-.67,1.98-1.43,2.67v-2.15l-.32-.21c-.36-.03-.42.25-.66.38-.37.21-2.42,1.25-2.65,1.07.39-.57,1.27-1.71,1.17-2.41-.01-.15-.15-.38-.33-.33-.43.63-.87,1.33-1.37,1.89-.62.71-1.47,1.21-1.93,1.98l.14.53c.55.57,2.51-.34,3.14-.64.55-.26.97-.58,1.48-.87.14-.08.24-.2.43-.15.07.34-.12.65-.14.97-.03.5-.04,1.71.71,1.49.14-.04,1.03-1.09,1.17-1.29.34-.47.63-1.02.86-1.55l.79.97c.54.39,1.57,1.35,2.14.46.16-.26.6-1.95.78-1.95.57.72,1.48,1.54,2.28,2.01.44.25.75.41,1.29.34M90.27,22.72c.51-.76-.85-1.2-1.28-1.46-.41-.26-1.51-1.14-1.96-1.02-.11.03-.22.2-.21.33,0,.45.83,1.28,1.18,1.56.46.35,1.85,1.24,2.27.6M86.6,23.48c.74-.7-.58-1.07-1.02-1.41-.36-.28-.87-1.14-1.17-1.17-.61-.09-.6.33-.9.65-.34.35-.71.58-1.05.91-.14-.36.1-1.01-.4-1.16-.42-.12-.55.23-.87.4-.81.46-1.99.87-2.9,1.01-.13.02-.48.11-.45-.12.28-.07.54-.29.77-.47.7-.53,2.67-2.01,2.75-2.86l-.19-.46c-.42-.11-.68.54-.91.78-1.08,1.16-2.31,1.74-3.44,2.69-.42.35-.82.71-.34,1.23.62.5,1.69,0,2.41-.07l2.09-.72-.37,1.48c.09.23.29.61.55.61.66,0,2.41-2.14,3.01-2.61l.18.05c.42.46,1.65,1.63,2.26,1.23M84.46,13.8c.38.14.86.11.79-.4l-.53-1.1h-.32c-.37.1-.18,1.22.06,1.5M81.3,14.36c.75.22,2.42-1.8,1.81-2.6-.11-.15-.21-.14-.37-.11-.14.02-.3.14-.41.25s-1.11,1.37-1.14,1.46c-.14.3-.23.8.11,1"/>
        <path class="cls-14" d="M91.89,30.15v1.04c-.54.08-.85-.09-1.29-.34-.8-.47-1.72-1.29-2.28-2.01-.18,0-.62,1.69-.78,1.95-.57.89-1.6-.07-2.14-.46l-.79-.97c-.23.53-.52,1.09-.86,1.55-.14.21-1.03,1.25-1.17,1.29-.75.22-.74-.99-.71-1.49.02-.32.21-.63.14-.97-.2-.04-.29.08-.43.15-.51.29-.92.61-1.48.87-.63.3-2.58,1.21-3.14.64l-.14-.53c.47-.77,1.31-1.27,1.93-1.98.5-.57.93-1.26,1.37-1.89.17-.05.32.17.33.33.1.71-.78,1.85-1.17,2.41.23.19,2.28-.86,2.65-1.06.24-.13.3-.41.66-.38l.33.21v2.15c.76-.7,1-1.78,1.43-2.67h.66c.52.71.81,1.75,1.74,2.01.34-.07.9-2.02,1.13-2.39.45-.72,1.42.71,1.8,1.03.65.57,1.44,1.14,2.22,1.5"/>
        <path class="cls-14" d="M91.89,19.06v1.18c-.28.02-.46.03-.72-.13-.64-.38-1.73-1.53-2.12-2.17-.34-.54-1.15-2.24-.65-2.75l1.28-.48c-.75-.89-1.81-1.52-2.54-2.41-.41-.49-.89-1.21-.7-1.87l.33-.33,2,.24c-1.5-1.44-2.94-3.8-1.81-5.84.42-.29.98.7,1.42.43-1.13-1.58-1.54-3.51-1.82-5.4h1.17c.23,1.24.43,2.49.98,3.64.42.9,1.17,1.63,1.51,2.54.01.34-.26.63-.6.6-.25-.03-.34-.28-.55-.37-.15-.07-1.29-.35-1.34-.29-.01,1.01.47,2.21,1.12,2.99.53.64,1.51.98,1.87,1.76.13.29-.45.2-.62.36-.16.16-.13.43-.54.57l-1.56.12,2.98,2.89c.1.32-.07.52-.34.67-.35.21-1.12-.22-1.43.47.5,1.45,1.37,2.81,2.69,3.59"/>
        <path class="cls-12" d="M91.89-.48v19.54c-1.33-.78-2.19-2.14-2.69-3.59.32-.68,1.09-.26,1.43-.47.27-.15.43-.36.34-.67l-2.98-2.89,1.56-.12c.41-.13.38-.4.54-.57.17-.16.75-.07.62-.36-.36-.78-1.34-1.12-1.87-1.76-.65-.78-1.13-1.98-1.12-2.99.04-.05,1.18.23,1.34.29.22.09.3.34.55.37.34.03.61-.26.6-.6-.34-.91-1.09-1.64-1.51-2.55-.54-1.15-.75-2.4-.98-3.64h4.17Z"/>
        <path class="cls-14" d="M91.51,63.96c.22.14.09.26.02.42-.13.32-1.23,1.84-1.59,1.47-.26-.67.85-2.33,1.56-1.89"/>
        <path class="cls-14" d="M90.26,46.7l.2.33c-.21.14-.35.41-.51.59-.22.22-.5.37-.71.65-.28.37-.8,1.59-1.12,1.76-.13.07-.25.08-.39.05-.05-.27-.16-.49-.13-.78.12-1,1.56-2.63,2.66-2.6"/>
        <path class="cls-14" d="M88.99,21.26c.43.26,1.79.7,1.28,1.46-.42.64-1.81-.25-2.27-.6-.36-.27-1.18-1.11-1.18-1.55-.01-.13.1-.29.21-.33.46-.12,1.55.76,1.97,1.02"/>
        <path class="cls-14" d="M90.07,61.55c-.03.31-.33.52-.52.78-.24.3-.58.68-.76.99-.29.49-.57,1.55-.87,1.87-.15.16-.25.15-.46.13-.46-1.21.27-2.48,1.04-3.38.25-.29.96-.75,1.35-.64.15.04.2.24.22.25"/>
        <path class="cls-14" d="M89.08,75.77c.13.08.23.14.2.31-.07.43-.99.97-1.15,1.45-.27.2-.65,0-.76-.28-.2-.59.6-1.34,1.11-1.46.19-.04.41-.04.61-.01"/>
        <path class="cls-14" d="M88.25,46.18c.11.53-.36.5-.65.72-.63.48-.78,1.21-1.25,1.75-.1.11-.2.3-.38.26-.4-.35-.14-.98.04-1.39.34-.76,1.35-1.77,2.24-1.34"/>
        <path class="cls-14" d="M87.86,71.79l.06.33c-.3.25-.57.51-.85.77-1.17,1.14-1.5,1.86-2.37,3.18-.12.17-.21.51-.43.48-.47-.21-.08-1.6.1-1.99.26-.6,1.28-1.89,1.79-2.32.38-.3,1.28-.87,1.69-.45"/>
        <path class="cls-5" d="M87.08,72.89c.9,1.1,1.15,2.22.18,3.38-.63.76-.98.46-1.81.53-1.42.12-2.87.34-4.29.39-1.75.08-3.52-.05-5.28,0,.32-1.44-.79-4.3-1.95-5.21.92-.51,1.98-.49,2.99-.65,1.1,1.38,1.3,2.6,1.6,4.33l.49.88c.96-1.5.34-3.97-.65-5.34h4.04c-.37.47-.9,1.95-.92,2.54-.01.36.21.72.14,1.1.8-.72.95-1.87,1.46-2.77.18-.34.5-.57.62-.74l2.48.9c-.51.42-1.53,1.72-1.79,2.32-.17.39-.57,1.78-.1,1.99.23.03.31-.3.43-.48.87-1.32,1.2-2.03,2.37-3.18"/>
        <path class="cls-14" d="M85.58,22.06c.44.35,1.76.72,1.02,1.41-.61.4-1.84-.77-2.26-1.23l-.18-.05c-.6.47-2.35,2.61-3.01,2.61-.26,0-.47-.38-.55-.61l.37-1.48-2.08.72c-.72.07-1.79.57-2.41.07-.48-.52-.09-.88.34-1.23,1.13-.95,2.37-1.52,3.44-2.69.23-.24.49-.89.91-.78l.2.46c-.08.85-2.05,2.33-2.75,2.86-.23.17-.49.4-.77.47-.03.23.32.14.44.12.91-.14,2.09-.56,2.9-1.01.31-.17.45-.52.87-.4.5.15.26.8.4,1.16.35-.34.72-.57,1.05-.91.3-.33.29-.74.9-.65.3.03.82.89,1.17,1.17"/>
        <path class="cls-8" d="M82.97,37.31c-.48-.09-.95.14-1.4.29-1.86.6-3.6,1.57-5.42,2.25-.16.11-.27.25-.38.4-.2.28-.71,1.17-.95,1.67,3.44-1.29,6.91-2.13,10.47-2.65-.68-.81-1.9-1.9-2.32-1.97"/>
        <path class="cls-11" d="M85.29,39.28c-3.56.53-7.03,1.37-10.47,2.65-.05.11-.09.2-.11.26-.05.17.01.25.18.2.61-.18,1.25-.89,2.07-.63l.47,1.15c.54-.15,1.11-.38,1.66-.49.18-.03,1-.16,1.11-.14.14.02.49.25.55.37l.27,1.18,3.42-.81c.11-1.01.63-1.93,1.25-2.73.08-.09.08-.18.05-.29-.03-.16-.21-.42-.47-.73"/>
        <path class="cls-14" d="M83.95,61.42c1.19,1.12,2.17,2.93,1.43,4.56-.58.02-.32-.04-.65-.13-.15-1.09-.29-2.07-.75-3.09-.22-.47-.57-.85-.68-1.34.29-.02.39,0,.65,0"/>
        <path class="cls-14" d="M85.25,13.4c.06.51-.41.54-.79.4-.24-.28-.42-1.4-.05-1.51h.31s.53,1.11.53,1.11Z"/>
        <path class="cls-5" d="M84.73,65.85c-.78-.18-1.93.15-2.73.26.03-1.15-.78-3.05-1.69-3.77.41-.11.76-.45,1.17-.59.25-.1.85-.26,1.12-.33h.04c.19-.03.44,0,.65,0,.12.49.47.87.68,1.34.46,1.02.6,2,.75,3.09"/>
        <path class="cls-14" d="M84.32,48.61c.05.33.08.65-.11.95-.17,0-.35,0-.52,0-.46-.6-.82-1.6-.59-2.35.14-.46.53-.57.75-.09.11.23.42,1.23.47,1.49"/>
        <path class="cls-14" d="M84.01,60.25c.15.03.08.16,0,.26-.1.13-.71.25-.9.26-2.51.23-5.81.02-8.41,0l-2.38-.02c-.27-.14-.46-.34-.22-.63,3.49.04,7.1-.39,10.61-.14.43.03.88.15,1.29.27"/>
        <path class="cls-14" d="M83.82,70.68s-.08.58-.13.65c-.12.17-.43.4-.62.74-.51.9-.65,2.06-1.46,2.77.06-.38-.15-.74-.14-1.1.02-.6.55-2.08.92-2.55.3-.4.92-.61,1.42-.52"/>
        <path class="cls-14" d="M83.11,11.77c.61.79-1.06,2.82-1.81,2.6-.34-.2-.25-.7-.11-1,.03-.09,1.03-1.35,1.14-1.46s.27-.23.41-.25c.16-.03.26-.04.37.11"/>
        <path class="cls-14" d="M82.27,49.56c.04.34.05,1.22-.35,1.31-.18,0-.41-.25-.5-.39-.08-.13-.28-.63-.33-.78-.03-.09.01-.27-.03-.41-.18-.55-.71-1.79-.72-2.28-.01-.22.13-.41.29-.55.26.26.53.5.74.81.24.38.83,1.89.89,2.31"/>
        <path class="cls-14" d="M82,66.11c-.01.28.09.79-.34.79-.4-.07-.43-.48-.57-.79-.21-.42-.32-.85-.5-1.26-.25-.54-.75-1.26-.93-1.73-.13-.33-.12-.73,0-1.04.05-.07.55.18.65.26.91.73,1.73,2.62,1.69,3.77"/>
        <path class="cls-5" d="M81.06,49.28c.04.14,0,.33.03.41l-1.56-.26c.01-.24-.36-1.35-.52-1.55l.13-.65c-.24,0-.48-.03-.72,0-.13,0-.17.12-.2.13-.04,0-.09,0-.13,0h-.13l-3.64-.26c1.89,1.97-.87,3.16-2.61,3.38.29-.45.48-1,.91-1.5.25-.28,2.19-1.62,1.11-1.76-.87-.11-2.29,1.27-2.7,2-.38.67-.43,1.06-.23,1.78-.49.03-.92.27-1.4.36-.89.17-2,.17-2.89.03,0-.43.16-.78.13-1.24-.07-.88-1.41-3-2.3-3.18-.24-.04-.42.02-.42.29.78,1.29,1.84,2.49,2.21,3.99-.49-.1-.96-.26-1.43-.39-.03-.27-.27-.98-.41-1.22-.18-.32-.76-.84-1.02-.4.11.38.27.73.39,1.1-.63-.35-1.14-.82-1.32-1.54l-1.16-.02c.26-.34.33-.72.54-1.08.21-.33,1.09-1.34,1.13-1.48s.02-.29.02-.43c-.72-.14-1.35.52-1.75,1.06-.4.52-.73,1.26-.6,1.94h-1.81c.28-.53.47-1.13.75-1.65.3-.55,1.17-1.49,1.21-2.06,0-.41-.47-.12-.65,0-1.11.75-1.93,2.42-1.82,3.71l-1.56-.26c.11-.28.11-.99.28-1.47.27-.72.81-1.31,1.02-2.04-.92-.14-1.75,1.18-2.02,1.96-.14.38-.2.76-.2,1.17-.78-.52-1.07-1.23-.75-2.12.13-.38.4-.64.49-1.01l-.78-.26c.28-.13.62-.39.96-.54,2.44-1.15,4.9-2.26,7.31-3.49.16.35.12.71.46.97s.54.16.91,0c.92-.4,1.6-1.44,2.28-2.14.61.63,1.38,1.51,2.35,1.44.8-.07.67-.98,1.17-1.44.78.4,1.84,1.37,2.73.78.36-.23.86-1.17,1.17-1.17l.45,1.62c-.18.52-1.41,2.69-.89,3.06.76.18,1.24-.46,1.85-.79.19-.1,1.18-.59,1.26-.5l-.13.99c.1.43.45.49.84.45.35-.04,2.43-.8,2.55-.65.08.52.05,1.46.64,1.64.03,0,.08,0,.13,0l-.05,1.48c-.16.14-.3.34-.29.55.01.49.53,1.73.72,2.28M71.13,46.95c.23-.23.69-.26.59-.77-.21,0-.35-.15-.57-.12-.86.15-2.19,2.18-1.91,3.11.38.39,1.1-1.22,1.24-1.42.14-.2.49-.62.65-.79M68.46,50.6c.28-.64.23-1.04.1-1.72-.22-1.12-.87-3.1-2.17-3.23-.13.49.26.73.41,1.08.5,1.12.57,2.2.94,3.22.13.34.28.76.72.65"/>
        <path class="cls-5" d="M81.09,66.11c-1.81.16-2.14-1.65-1.43-2.99.18.47.68,1.19.93,1.73.18.41.29.84.5,1.26"/>
        <path class="cls-3" d="M17.58-.48h63.25c-.29,1.31-1,2.46-1.56,3.64l-.26-.08-.58-1.49c-.74-.61-1.12,1.34-1.35,1.79-.21.39-.42.87-.88.57-.75-.5-.95-1.34-1.1-2.16-.05-.36.13-.93-.35-1.09-.92-.27-.82.73-1.02,1.28-.35.92-.87,1.79-1.11,2.74-.21.04-.28-.04-.37-.22-.25-.51-.32-2.37-.75-2.51-.15-.04-.32-.02-.45.05-.33.17-.66,1.59-.85,2.02-.36.84-.9,1.87-1.44,2.6-.15.22-.45.36-.45.66-.2.04-.21-.02-.32-.14-.74-.78-1.27-2.52-1.37-3.59-.04-.59.07-1.21-.03-1.78-.06-.4-.21-.74-.67-.6-.68.21-.76,1.97-.92,2.6-.19.75-.47,1.48-.72,2.21-.39.02-.56-.43-.62-.75-.13-.7.36-3.02-.87-2.62-.45.14-.51,2.26-.68,2.83-.1.29-.6,1.4-.82,1.52-.82.43-1.2-.4-1.29-1.05-.04-.32.17-.95-.27-.84-.06,1.03-1.21,3.65-2.2,3.98-.39.13-1.41.19-1.54-.28-.12-.61.26-2.03-.5-2.25-1.02-.28-.86,1.26-.98,1.85-.13.6-1.39,2.23-1.97,2.47-.91.38-1.54-.75-1.65-1.53-.08-.58.12-1.92-.96-1.6-.67.2-.51,1.18-.76,1.59-.24.41-.95.77-1.41.53-.1-.04-.7-.65-.78-.77-.65-.87-.97-2.59-.91-3.65,0-.4.33-1.01-.26-1.3-.9-.47-.93.7-1.14,1.2-.15.37-.67,1.24-1.12,1.2-.75-.27-1.12-1.3-1.23-2.03-.1-.74.3-2.32-.62-2.38-.71-.04-.87,1.6-1.06,2.19-.28.85-.76,2.18-1.9,1.84-.82-.24-.49-2.7-.66-3.38-.08-.27-.37-.4-.66-.38-.66.05-.51,1.4-.6,1.88-.11.65-.59,2.75-1.36,2.82-.77.08-1.4-1.52-1.48-2.17-.07-.46.11-1.82-.71-1.73-.81.09-.49,1.53-1.09,1.93-1.02.05-1.5-1.16-1.6-2.02-.07-.55.23-2.17-.47-2.27-.89-.12-.63.73-.8,1.28-.22.7-1.42,2.11-2.12,2.32-1.28.37-1.39-1.44-1.57-2.27l-.69-.02c-.22.03-.84,2.51-1.18,2.87-.08.08-.14.14-.26.13-.48.11-.68-.33-.85-.71-.25-.59-.25-2.11-.98-2.03-.62.21-.68.96-1,1.48-.31.54-1.55,1.92-2.15,2.02-.33.07-.77-.08-.82-.44l-.13-5.93.02-.03Z"/>
        <path class="cls-12" d="M79.72,4.99c.28-.13.19.33.17.44-.35,1.27-1.8,2.63-2.78,3.48-.46.39-1.21.63-1.11,1.36.09.72,1.22.4,1.73.29.39-.08.75-.26,1.08-.35.18-.04.25.01.19.19-.17.57-.91,1.5-1.37,1.89-1.13.97-2.67,1.27-3.62,2.39l.07.45c1.05.52,2.28-.17,3.29-.24.17-.01.26,0,.2.21-.09.28-.87,1.35-1.1,1.63-.3.35-.83.86-1.18,1.16-.5.45-2.57,1.6-2.39,2.26.49.71,1.21.41,1.87.35.2-.02.38-.08.33.2-.53.48-1.75,2.36-2.51,2.13-.07-.01-.84-.65-.95-.76-.46-.46-1.53-1.94-1.62-2.54-.03-.21-.01-.22.2-.2.69.1.99.35,1.76.08,1.37-.48-.45-1.4-.91-1.83-.73-.65-1.59-1.66-1.81-2.62-.04-.22-.01-.21.18-.2.27.02.49.15.78.15.52-.02.98-.37,1.5-.4.25-.18-.67-1.02-.85-1.17-.86-.75-1.89-1.29-2.52-2.31-.21-.32-.29-.72-.54-1.02.31-.03.68.18.98.18.27,0,.64-.22.98-.12.23-.64-1.02-1.71-.9-2.12.99-.98,1.75-2.16,2.21-3.48.17-.03.11.04.16.16.18.48.3.76.75,1.07,1.24.86,1.77-1.54,2.28-2.27.92,1.86,2.94,2.15,3.7,0l.26.09c.03.22.26.41.26.63,0,.67-1.74,1.3-.46,1.89.56.05,1.24-.83,1.69-1.04"/>
        <path class="cls-14" d="M79.01,47.87c.16.21.53,1.32.52,1.56-.01.11-.22.62-.34.65-.6.17-.75-1.04-.9-1.42-.11-.29-.36-.6-.43-.88-.06-.21-.11-.43.11-.43h.13s.09.02.13,0c.22.1.64.34.78.52"/>
        <path class="cls-14" d="M78.36,71.2c.99,1.37,1.61,3.84.65,5.34l-.49-.88c-.29-1.73-.5-2.95-1.6-4.33-.26-.34-.76-.68-.64-1.1.68-.64,1.66.39,2.07.97"/>
        <path class="cls-2" d="M79.14,47.22l-.13.65c-.14-.18-.57-.42-.78-.52.02,0,.07-.12.19-.13.24-.03.48,0,.72,0"/>
        <path class="cls-14" d="M73.94,71.98c1.15.91,2.27,3.77,1.94,5.21-.03.15-.33.37-.27.64-.52.16-.6-.21-.77-.64-.74-1.98-.25-2.81-1.94-4.57-.13-.13-.23-.31-.39-.46-.23-.21-.78-.45-.79-.77-.01-.84,1.9.33,2.23.59"/>
        <path class="cls-14" d="M75.36,50.08c.27.63-1.46,2.55-1.43,1.24,0-.59.82-1.43,1.43-1.24"/>
        <path class="cls-4" d="M75.04,36.78c.45.6,1.14,1.01,1.62,1.58-.82.14-1.05,1.1-1.81,1.44-.11-.6-.07-2.8-1.12-2.1-.42.35-.74,1.5-1.29,1.58-.66.09-1.76-.85-2.24-1.28-1.16-.35-.9,1.28-1.67,1.78-.98-.26-1.12-2.15-2.21-1.54-.62.99-1.39,1.94-2.35,2.6l-.26-1.95c-.39-.59-1.57.61-1.89.84-.21.14-.54.29-.78.4-.46.2-3.43,1.16-3.64.97.08-.67,1.42-2.01.85-2.6-.35-.36-.99.09-1.43.13-.21.02-.44,0-.65,0-.16,0-.49.1-.46-.13,1.62-.33,3.18-1.21,4.1-2.62.23-.36.9-1.63.86-2-.22-.73-.72-.36-1.24-.33-.14,0-.37.07-.32-.14,1.75-.63,3.44-2.91,3.63-4.76.16-1.58-1.78-.51-2.55-.34-.14.02-.46.13-.43-.11.22-.02.4-.16.57-.28,1.17-.85,2.13-1.67,2.66-3.07.21-.53.61-1.8.23-2.25-.61-.68-1.55.63-2.28.65.38-.49,1.46-2.22.79-2.69-.35-.23-1.17.37-1.6.5-.13.04-.41.2-.5.03.85-.61,2.51-1.91,2.81-2.93.1-.32-.05-.5,0-.67.04-.21.29-.58.39-.89.08-.24.29-1.01.18-1.16-.51-.25-1.04.03-1.57.15-.13.03-.39.22-.37-.03l1.11-.78c1.1-.92,2.6-2.37,3-3.77.25-.87.21-1.73-.06-2.56-.19-.13-.8.07-.65-.25.03-.08.17-.16.24-.28.34-.65.74-1.37.92-2.08.03-.15.1-.4.26-.18.29,1.43,1.34,2.49,2.22,3.59l-.69-.04c-.86.17-.37,1.33-.12,1.89.48,1.04,1.51,1.84,2.37,2.58.05.28-.13.19-.33.19-.43,0-.93-.09-1.17.39-.49.98,1.06,3.34,1.89,3.97-.16.14-.47.02-.69.09-.23.07-.42.49-.45.72-.05.89,1.01,2.62,1.6,3.31.23.28,1.44,1.28,1.48,1.38.04.14.02.29.02.43-1.74.21-1.11,1.28-.33,2.23.64.77,1.5,1.37,2.28,2.01-.11.13-.38.04-.57.09-.99.26-.53,1.35-.28,2.07.41,1.22,1.19,2.22,2.14,3.06-.4.16-.95-.1-1.15.41-.14.51.62,2.32.97,2.77M69.88,32.74c.03-.63-.11-1.59-.9-1.55-.21.59-.22,1.46.48,1.66l.42-.11ZM68.47,24.09c.04-.65-.11-1.32-.41-1.88h-.37c-.21.67-.21,1.41-.27,2.13-.04.41-.29.68.02,1.16.18.3.63.24.77,0,.09-.15.24-1.16.26-1.41M66.91,32.17c0-.17-.06-.78-.14-.85-.05-.03-.35-.02-.43.01-.33.12-.93,1.95-.87,2.39l.35.45c.64.14,1.06-1.53,1.1-2M66.09,24.32c.13-.33.43-1.22.41-1.52,0-.18-.18-.82-.45-.73-.35.33-.37.84-.56,1.26-.24.53-1.24,2.16-1.21,2.58.03.36.39.41.66.27.22-.12,1.01-1.54,1.14-1.86M65.08,29.23l-.59.53c-.24.92-2.41,3.36-2.41,4.1,0,.63.76.39,1.1.05.31-.32.99-1.39,1.18-1.82.41-.85.71-1.92.72-2.87"/>
        <path class="cls-5" d="M74.84,77.19c-1.28-.16-2.61.64-3.85,0-.38-.2-.38-.34-.58-.65l.56.25.28-.25c.26-.51-.29-1.46-.85-1.57.09-.77.86-1.02,1.37-1.43.37-.3.62-.76,1.11-.91,1.69,1.76,1.2,2.59,1.94,4.57"/>
        <path class="cls-14" d="M73.74,47.21c1.09.14-.86,1.48-1.11,1.76-.43.5-.62,1.05-.91,1.5-.12.19-.7.39-.65.78h-.26c-.01-.08.02-.18,0-.26-.21-.73-.15-1.11.23-1.78.41-.73,1.84-2.11,2.7-2"/>
        <path class="cls-14" d="M71.72,46.18c.11.51-.36.54-.59.77-.16.17-.51.6-.65.79-.14.21-.86,1.82-1.24,1.43-.28-.93,1.05-2.96,1.91-3.11.22-.03.36.11.57.12"/>
        <path class="cls-14" d="M70.42,74.98c.55.11,1.11,1.06.85,1.57l-.28.25-.56-.25c-.16-.27-.42-.67-.55-.95-.1-.24-.27-.6.1-.62.13-.01.34-.02.46,0"/>
        <rect class="cls-5" x="69.76" y="13.85" width=".26" height=".13"/>
        <path class="cls-14" d="M68.98,31.19c.79-.03.93.92.9,1.56l-.42.11c-.7-.21-.68-1.08-.48-1.66"/>
        <path class="cls-5" d="M69.18,65.73c.67.95.38,2.2-.66,2.71-.64.32-.96.25-1.62.28.52-.95.99-1.93,1.49-2.88.12-.21.25-.37.21-.64.02.04.46.35.59.53"/>
        <path class="cls-14" d="M68.56,48.88c.13.67.18,1.08-.1,1.72-.43.11-.59-.32-.72-.65-.38-1.02-.45-2.1-.94-3.22-.15-.35-.54-.59-.41-1.08,1.3.13,1.96,2.11,2.17,3.23"/>
        <path class="cls-14" d="M68.59,64.82c.03.12-.03.31,0,.38.04.27-.09.43-.21.64-.5.96-.97,1.94-1.49,2.88-.22.01-.32,0-.51,0-.52-1.47.81-2.88,1.68-3.92.16.03.36-.02.52.01"/>
        <path class="cls-14" d="M68.06,22.21c.3.57.46,1.23.41,1.88-.02.25-.17,1.26-.26,1.41-.14.24-.59.3-.77,0-.32-.48-.07-.75-.02-1.16.07-.72.07-1.46.27-2.14h.37,0Z"/>
        <path class="cls-14" d="M66.77,31.32c.09.07.15.67.14.85-.03.47-.46,2.14-1.1,2l-.35-.45c-.07-.45.54-2.27.87-2.39.09-.03.38-.04.43-.01"/>
        <path class="cls-14" d="M66.65,50.15c.03.46-.13.81-.13,1.24-.17-.02-.29-.11-.39-.13-.37-1.5-1.42-2.7-2.21-3.99,0-.27.19-.34.42-.29.89.17,2.24,2.3,2.3,3.18"/>
        <path class="cls-14" d="M66.44,62.86c.4.08-.07.97-.19,1.18-.49.76-.76,1.34-1.21,2.12-.06.13-.25.57-.42.48-.74-.82.01-2.26.59-2.99.32-.41.72-.67,1.23-.78"/>
        <path class="cls-14" d="M66.51,22.79c.02.31-.28,1.2-.41,1.52-.13.32-.92,1.74-1.14,1.86-.27.14-.63.09-.66-.27-.03-.41.97-2.05,1.21-2.58.2-.42.22-.93.57-1.26.26-.09.45.54.45.73"/>
        <path class="cls-5" d="M66.26,64.03c.43.31,1.29.69,1.81.77-.87,1.03-2.21,2.45-1.68,3.92-2.14,0-4.41.28-6.52.13.15-.24.35-.42.39-.72.2-1.33-.47-3.02-1.3-4.04-.08-.11-.84-.91-1-.74l-.02-.14c.28-.04.64-.1.83-.11.69-.04,1.44.04,2.15,0,0,.59.61,3.37.86,3.89.09.18.25.38.38.53.32.09.54-.61.57-.85.1-.77-.39-2.76-.77-3.45,1.1.11,2.18.15,3.26.39-.57.73-1.32,2.18-.59,2.99.17.09.36-.35.42-.48.45-.78.72-1.36,1.21-2.12"/>
        <path class="cls-14" d="M64.5,29.76l.59-.53c-.01.95-.3,2.02-.72,2.87-.2.42-.87,1.5-1.18,1.82-.34.34-1.1.58-1.1-.06,0-.74,2.17-3.18,2.41-4.1"/>
        <path class="cls-14" d="M64.69,50.86c.03.36.01.77-.13,1.1.01.13-.25.1-.33.08-.21-.07-.49-1.38-.59-1.7-.12-.37-.28-.72-.39-1.1.26-.44.84.09,1.02.4.14.24.38.95.41,1.22"/>
        <path class="cls-12" d="M54.67,27.86c-.19-.23-.88-1.22-.33-1.37.35-.09.67.46.91.65.16.14.57.4.95.69-.03-.39-.06-.78-.08-1.17-.39-.27-.75-.65-.93-.89-.17-.23-.88-1.34-.33-1.49.16-.06.28.16.39.26.28.25.54.52.81.78-.07-2.16-.03-4.39.03-6.61-.33-.23-.63-.57-.75-.77-.16-.26-.68-1.61-.22-1.74.2-.07.26.17.35.29.24.32.42.69.65,1.03.07-2.4.15-4.78.15-7.05-.11,0-.23-.01-.34-.03-.28-.07-.63-.45-.92-.36-.68,1.17-1.72,2.01-2.76,2.15-.4,1.59-.73,3.2-1.01,4.84.2-.3.41-.59.6-.9.2-.35.48-1.17.68-1.39.16-.16.24-.15.46-.13.08.84-.15,1.67-.49,2.44-.21.45-.91,1.47-1.61,2.3-.15,1.07-.29,2.14-.42,3.22.67-.85,1.21-1.79,1.61-2.8l.39-.08c-.07,1.68-.93,3.66-2.23,4.79-.1.89-.2,1.78-.3,2.66.07-.08.14-.15.19-.22.62-.79,1.08-1.89,1.66-2.63.12-.15.14-.36.41-.29.03.96-.41,1.99-.88,2.82-.25.43-.9,1.43-1.58,2.04-.1.89-.21,1.77-.33,2.65.37-.37.78-.77.84-.79.17-.09.33-.08.51-.06,0,.93-.61,1.88-1.51,2.19h-.02c-.29,2.05-.64,4.07-1.09,6.03h5.48l-.26-.73.13-.25c1.46-.52,3.24-.83,4.54-1.72-.93-2.12-1.45-4.53-1.73-7.11-.62-.21-1.43-.93-1.65-1.2"/>
        <path class="cls-12" d="M41.33,38.62c-2.36.14-5.2.04-7.55-.14-.66-.04-1.45.15-2.02-.32-.05-.24.09-.21.26-.26,1.13-.34,4.05-.3,5.4-.34,1.8-.04,3.58.02,5.36.26.21-4.46-.25-8.88-.93-13.3-.09.11-.23.18-.41.25-.71-.01-1.95-1.13-1.73-1.85.03-.11.18-.24.32-.22l.2.07c.4.62.89,1.05,1.56,1.33-.13-.85-.28-1.71-.42-2.56-.14,0-.29.01-.42-.01-1.02-.16-2.52-2.85-2.55-3.84,0-.53.27-.55.59-.18.35.41.62,1.08.93,1.54.4.62.98,1.28,1.35,1.89-.79-4.57-1.68-9.16-2.17-13.81-.4.02-.83-.14-1.27-.58-.21-.2-.12-.48-.46-.39-.37,1.14-1.24,1.77-2.41,1.95l1.18,3s.11-.01.18,0c.25.8.15,1.67-.05,2.48-.12.48-.3.99-.61,1.38l.67.14c.11-.15.25-.26.51-.22.11,1.11-.46,2.26-1.05,3.16-.22.33-.49.74-.82,1.01l1.67.05s.11-.04.16-.05c.85-.13-.33,2.04-.79,1.95l-1.46.22c.46.53.63,1.35.35,2.2l1.25,1.22c.41.01.71-.28,1.14-.24,1,.09,1.85,1.1,2,2.04.08.4-.04.91.06,1.25.05.18.31.31.42.49.95,1.54-1.11,3.07-2.46,3.24-.93.12-.71-.11-1.57.38-.78.42-1.39.37-2.18,0-.57-.26-1-.96-1.24.07.85,1.09,1.62,1.71,1.05,3.18-.53,1.38-1.98,2.74-3.45,1.71-.26-.18-.44-.67-.66-.63l-1.83,1.17c-.2.49-.12,1.09-.18,1.57h15.5c0-.15.02-.3.03-.45-.48.07-.96.17-1.41.19"/>
        <path class="cls-10" d="M49.86,18.87c.5-.59.95-1.18,1.38-1.8.28-1.63.61-3.25,1.01-4.84-.95.13-1.9-.32-2.59-1.64-1.94,1.43-3.71-.21-4.42-2.08-.12-.34-.12-1.34-.59-1.11-1.48,1.23-3.13-.53-3.38-2.02l-.39.59c-.56.63-1.15,1.13-1.79,1.17.49,4.65,1.38,9.24,2.17,13.81.03.05.08.11.11.17.09.15.21.24.16.43h-.16c.15.85.29,1.71.42,2.56l.12.06c.04.16,0,.28-.06.36.68,4.42,1.14,8.83.93,13.3.32.04.64.08.95.14l-.21.37c-.26,0-.52.05-.79.09,0,.15-.02.3-.03.46h5.43c.45-1.96.8-3.98,1.09-6.03-.38,0-.67-.37-.43-.69.06-.07.32-.35.61-.63.11-.88.22-1.76.33-2.65-.39.35-.78.58-1.11.48-.12-.08-.22-.13-.2-.29.08-.51.99-1.34,1.5-1.89.1-.89.2-1.77.3-2.66-.06.05-.12.11-.18.16-.45.36-1.08.78-1.62.52-.21-.84.7-1.16,1.16-1.62.31-.3.59-.63.85-.97.13-1.08.27-2.15.42-3.22-.52.62-1.05,1.14-1.38,1.23-.18.05-.39.05-.56-.03-.61-.4.67-1.41.92-1.71M42.04,19.26c-.48-.24-1.23-1.95-1.39-2.51-.42-1.42-.72-3.24.03-4.59.67.22.39,1.09.47,1.62.11.84.34,1.99.6,2.78.23.66,1.03,1.82.96,2.44-.04.36-.36.41-.66.26"/>
        <path class="cls-10" d="M61.89,13.2c1.04-.91,2.4-2.33,2.41-3.78-.37.26-2.18.86-2.34.33-.15-.52.23-.49.43-.72.43-.48.76-1.28,1.24-1.77l-.84-.96c-.57,1.29-1.58,2.26-2.99,1.3-.18.03-.33.77-.43,1-.54,1.11-1.86,1.95-3.11,1.87,0,2.28-.07,4.65-.15,7.05.04.05.07.11.11.17.2.25.78.65.78.91-.15.47-.55.37-.92.1-.06,2.22-.1,4.45-.03,6.61.41.4.83.81,1.28,1.17l.06.18c-.28.49-.8.32-1.27-.01.02.39.05.79.08,1.17.5.39.96.84.75,1.13-.13.19-.37.18-.63.09.28,2.58.8,5,1.73,7.11.61-.42,1.13-.96,1.44-1.73-.71,0-1.55.09-2.06-.47-.08-1.25.9-1.37,1.72-1.9,1.16-.75,2.09-1.51,2.41-2.94.02-.09.09-.28-.04-.29-.92.37-2.95,1-3.83.45-.51-.32-.21-.61.13-.89.79-.65,1.86-1.09,2.66-1.77.9-.76,1.57-1.68,1.76-2.86-.86.26-1.78.63-2.67.26-.38-.55.82-1.51.98-2.09-1.08.32-2.18.63-3.32.52-.39-.03-1.17-.22-1.11-.72.07-.63,1.88-1.09,2.44-1.35,1.1-.51,2.17-1.2,2.82-2.24l.73-1.95c-.83.17-1.81.53-2.67.39-.37-.07-.49-.37-.46-.72.1-.79,2.27-2.1,2.93-2.68"/>
        <path class="cls-14" d="M62.87,45.78c0,.14.02.29-.02.44-.04.14-.92,1.15-1.13,1.48-.22.36-.28.74-.54,1.08-.16.23-.14.35-.51.26.03-.13-.13-.24-.14-.26-.13-.67.2-1.41.6-1.94.4-.53,1.03-1.2,1.75-1.06"/>
        <path class="cls-14" d="M61.96,63.25c.38.69.87,2.68.77,3.45-.03.24-.26.93-.57.85-.13-.15-.29-.35-.38-.53-.25-.52-.86-3.31-.86-3.89,0-.96.74-.41,1.04.13"/>
        <path class="cls-5" d="M60.86,52.95c1.29,1.27.42,2.92-1.07,3.49-2.42.92-6.02.74-8.57.55-1.67-.12-2.99,0-4.1-1.5-.62-.84-.17-1.97.59-2.55,1.17-.88,4.17-1.07,5.63-1.14.72-.03,1.16.09,1.78.11,1.73.05,4.42-.27,5.74,1.03M59.1,55.5c1.94-1.49.69-3.34-.51-.63l.14.53s.37.1.37.1ZM57.9,52.59c.09-.47-.5-.77-.9-.36-.36.37-.93,1.44-.91,1.96.02.47.42.76.76.42,0,0,1.05-2.02,1.05-2.02ZM55,54.78c.18-.71-.04-1.49-.36-2.13-.07-.15-.22-.54-.43-.48-.13.04-.29.39-.29.55,0,.25.4,2.11.5,2.18l.59-.12h0ZM53.23,54.57c.05-.82-.84-2.33-1.82-2.14-.07.53.33.92.5,1.4.14.39.29,1.75.87,1.59.14-.04.44-.69.46-.85M50.89,55.3c.05-.7,0-1.74-.65-2.14-.27-.17-.78-.34-.78.12,0,.09.53,1.29.63,1.46.17.3.41.63.8.57"/>
        <path class="cls-14" d="M60.01,45.07c.18-.12.66-.41.65,0-.03.57-.9,1.5-1.21,2.06-.28.52-.47,1.12-.75,1.65-.1.17-.3.88-.52.65-.02-.21,0-.43,0-.65-.11-1.28.72-2.96,1.83-3.71"/>
        <path class="cls-14" d="M58.96,64.1c.84,1.01,1.5,2.71,1.3,4.04-.04.29-.24.48-.39.72-.16-.01-.29-.12-.39-.13-.32-.65-.27-1.38-.45-2.09-.27-1.1-.91-2.1-1.11-3.19,0-.03.02-.07.03-.09.16-.17.92.63,1,.74"/>
        <path class="cls-14" d="M58.59,54.87c1.21-2.71,2.45-.86.51.63l-.37-.1s-.14-.53-.14-.53Z"/>
        <path class="cls-5" d="M59.03,66.63c.17.71.13,1.44.44,2.09-1.16-.16-1-.2-1.94-.65.51-.87-.17-2.12-.78-2.81-.15-.16-.65-.63-.66-.12,0,.64.47,1.28.73,1.88.14.35.12.74.46,1.04-.43-.08-.62-.03-1.04-.34-1.2-.85-.96-2.69-.07-3.7.29-.33,1.03-.66,1.46-.76.08-.02.2-.03.32-.05l.02.14s-.03.05-.03.09c.2,1.09.84,2.09,1.11,3.19"/>
        <path class="cls-14" d="M57.93,45c-.21.74-.75,1.33-1.02,2.05-.17.48-.17,1.18-.28,1.47,0,.02-.15.04-.2.14-.07.16-.16.76-.39.64-.29-.13-.33-.88-.33-1.16,0-.41.05-.79.2-1.17.27-.77,1.1-2.1,2.02-1.96"/>
        <path class="cls-14" d="M57,52.23c.4-.41.99-.11.9.36l-1.05,2.02c-.34.34-.74.04-.76-.42-.02-.52.55-1.59.91-1.96"/>
        <path class="cls-14" d="M56.75,65.26c.61.69,1.29,1.94.78,2.81-.05-.02-.19.01-.26,0-.34-.31-.32-.7-.46-1.04-.26-.6-.73-1.24-.73-1.88,0-.51.51-.04.66.12"/>
        <path class="cls-14" d="M57.34,26.49l.05.19c-.51.89-1.8-.38-2.2-.9-.17-.23-.88-1.34-.33-1.49.16-.05.28.16.39.26.71.64,1.35,1.35,2.09,1.95"/>
        <path class="cls-14" d="M57.27,86.5c.6,1.48-1.18.59-1.89.59-.59-.01-1.14.61-1.37-.19l.26-1.62c-.05-.07-1.37.79-1.5.91-.24.22-.55.92-.97.64-.12-.09-.25-2-.4-2.34-.88.11-1.1.99-1.5,1.56-.87,1.21-1.38-.55-1.36-1.36.08-.36.35-.57.7-.33l.28.39c.46-.46.99-1.14,1.69-1.18.12,0,.62.11.68.15.23.2.48,1.46.41,1.8.1.11,1.77-1.38,2.52-1.15l.28.24-.07,1.57,2.22.31h.02Z"/>
        <path class="cls-14" d="M55.25,27.14c.38.32,2.06,1.31,1.69,1.83-.42.62-1.98-.73-2.28-1.11-.18-.23-.88-1.22-.33-1.37.35-.09.67.46.91.65"/>
        <path class="cls-14" d="M57.01,18.61c-.27.88-1.42-.23-1.67-.66-.16-.26-.68-1.61-.22-1.74.2-.07.26.17.35.29.28.37.46.83.76,1.2.2.25.78.65.78.91"/>
        <path class="cls-5" d="M55.32,60.9c.09.65-.38.45-.79.58-.93.32-1.13,1.38-1.9,1.88-1.37.88-5.42.7-7.13.68-.22-.01-.42-.13-.64-.14-1.8-.04-5.38.33-6.78-.77-1.12-.89-1.27-2.35-.26-3.39,1.14-1.19,4.33-1.54,5.92-1.7-.08.51.38,3.6.72,3.65.14.02.28.07.33-.09.32-1.17.02-2.55-.65-3.57.69-.04,2.24,0,2.74-.13-.51,1.04-.82,2.11-.52,3.26.31.07.21-.05.29-.16.15-.22.42-.58.52-.78.08-.2.62-2.07.62-2.19,1.07-.11,1.88.08,2.87.39-1.49.87-2.9,2.4-2.75,4.24.02.21,0,.32.21.46l2.92-4.57c.84.33,2.18.83,2.61,1.57-.88.06-2.55,2.19-2.33,2.93l.39.14c.45-.39.67-.99,1.03-1.43.29-.36.98-.83,1.17-1.11-.09.29.28.38.47.39.35.02.62-.18.97-.13M42.88,63.5c.67-.77-.15-2.26-.61-3.04-.36-.62-.84-1.49-1.66-1.39-.2.2.9,2.17,1.06,2.52.22.45.46,1.44.79,1.74.07.07.33.18.41.16M40.61,62.86c.29-.68.03-1.11-.39-1.63-.15-.18-1.09-1.21-1.3-.98-.04.65.46,1.04.76,1.52.25.37.36,1.04.93,1.09"/>
        <path class="cls-14" d="M54.65,52.65c.31.64.54,1.43.36,2.13l-.59.12c-.1-.07-.49-1.92-.5-2.17,0-.16.16-.51.29-.55.22-.07.37.33.43.48"/>
        <path class="cls-14" d="M53.5,46.57c.59.19.9.72.64,1.29-.04.03-.58.03-.63,0-.05-.04-.27-.85-.27-1.02,0-.09-.02-.16.03-.23.07-.08.22-.02.23-.03"/>
        <path class="cls-14" d="M54.02,60.12s-.1.48-.13.52c-.2.28-.88.75-1.17,1.11-.36.45-.59,1.04-1.03,1.44l-.39-.14c-.22-.74,1.46-2.87,2.34-2.93h.39-.01Z"/>
        <path class="cls-5" d="M53.76,45.13c.04.2-.21,1.38-.26,1.44,0,0-.16-.04-.23.03-.05.07-.03.14-.03.23-.37.05-.64.34-1.04.26-.02-.22-.17-.75-.25-.99-.26-.75-.85-1.51-1.63-1.75-.52.1.26,1.03.35,1.21.3.66.31,1.19.49,1.8-.44-.07-.86.07-1.29.13-.05-.42-.53-1.52-.76-1.91-.15-.28-.59-.91-.8-1.09,1.39-.77,3.39-1.14,4.81-.26-.29.49.2.82.65.91"/>
        <path class="cls-14" d="M51.41,52.43c.99-.18,1.88,1.33,1.82,2.14,0,.16-.32.8-.46.85-.57.16-.73-1.2-.87-1.59-.17-.48-.57-.87-.5-1.4"/>
        <path class="cls-14" d="M52.97,14.64c.08.84-.15,1.68-.49,2.44-.36.78-2.21,3.31-2.99,3.54-.18.05-.39.05-.57-.03-.61-.4.67-1.41.92-1.71.74-.87,1.4-1.72,1.98-2.71.2-.35.48-1.17.68-1.39.16-.16.24-.15.46-.13"/>
        <path class="cls-14" d="M52.06,19.79l.39-.08c-.08,1.76-1.01,3.85-2.4,4.95-.45.36-1.08.78-1.62.52-.21-.84.7-1.16,1.16-1.62,1.07-1.07,1.9-2.36,2.47-3.77"/>
        <path class="cls-14" d="M52.19,47.09c.04.37,0,.79-.33,1.03-.35.12-.63-.52-.72-.77-.17-.61-.18-1.13-.49-1.79-.09-.17-.87-1.11-.35-1.21.78.24,1.37,1,1.63,1.75.08.24.23.77.25.99"/>
        <path class="cls-14" d="M52.19,24.02c.03.96-.41,1.99-.88,2.82-.39.68-1.8,2.78-2.68,2.51-.12-.08-.22-.13-.2-.29.09-.59,1.27-1.59,1.68-2.11.62-.79,1.07-1.89,1.66-2.63.12-.15.14-.36.41-.29"/>
        <path class="cls-14" d="M51.15,39.66c.9-.59.99.53.39,1.16-.12.14-.77.52-.9.39-.3-.41.17-1.34.51-1.56"/>
        <path class="cls-14" d="M51.02,58.55l-2.92,4.57c-.19-.14-.18-.25-.21-.46-.15-1.84,1.26-3.37,2.75-4.24.14.05.23.07.38.13"/>
        <path class="cls-14" d="M50.24,53.16c.66.4.71,1.45.65,2.14-.39.07-.63-.26-.8-.57-.1-.16-.62-1.37-.63-1.46,0-.46.51-.29.78-.12"/>
        <path class="cls-5" d="M50.64,41.22c.13.13.78-.25.9-.39-.28,1.33-1.99,1.03-3.04,1.18-1.81.27-2.25.65-4.12-.08-.72-.27-.98-.79-.9-1.55,0-.13.12-.18.12-.18l.84,1.42.6.12c.37-.8-.49-1.62-1.17-1.95.02,0-.03-.15.03-.23.22-.1.45-.24.68-.3,1.56-.43,3.25-.28,4.76,0-.39.53-1.21,1.12-1.15,1.86.04.5.46.47.68.09.1-.16.11-.39.22-.57.29-.48.85-.86,1.03-1.38.35.08.79.08,1.03.39-.34.22-.81,1.14-.51,1.55M46.87,41.16c.05-.68-.17-1.15-.41-1.75-.26-.07-.65-.03-.64.3,0,.25.3,1.44.41,1.68.21.43.6.26.64-.23"/>
        <path class="cls-14" d="M50.25,30.73c.17-.09.33-.08.51-.06,0,.93-.61,1.88-1.51,2.19-.39,0-.69-.37-.45-.7.13-.16,1.34-1.38,1.45-1.43"/>
        <path class="cls-14" d="M49.34,39.27c.16.03.3-.11.78,0-.19.52-.74.9-1.03,1.38-.11.17-.12.4-.22.57-.23.38-.64.41-.68-.09-.05-.74.76-1.33,1.15-1.86"/>
        <path class="cls-14" d="M49.86,47.48c.04.33.09.88-.33.91-.42.04-.71-.46-.85-.78-.22-.5-.43-1.25-.62-1.79-.13-.38-.3-.82-.29-1.21l.08-.27c.14,0,.33.05.44.14.22.17.65.8.8,1.09.23.39.71,1.49.76,1.91"/>
        <path class="cls-5" d="M48.06,45.82c.18.54.4,1.29.62,1.79-.26.08-.69.07-.91.13.08-.7-.18-1.52-.6-2.09-.08-.11-.63-.72-.71-.78l1.3-.26c0,.39.16.83.29,1.21"/>
        <path class="cls-14" d="M47.17,45.65c.41.57.67,1.39.6,2.09-.15.04-.28.28-.44.25-.26-.12-.26-.32-.34-.51-.4-.99-.49-1.11-1.04-1.96-.07-.1-.32-.86-.26-.91.22.03.62.14.78.26.08.07.63.67.71.78"/>
        <path class="cls-14" d="M47.57,57.64c.08.04.21.35.21.39,0,.12-.54,1.99-.62,2.19-.1.21-.37.57-.52.78-.09.11.02.23-.29.16-.29-1.15,0-2.22.52-3.26.2-.04.28-.33.71-.26"/>
        <path class="cls-5" d="M46.99,47.48c-.99.04-1.46-1.15-1.04-1.96.55.85.64.97,1.04,1.96"/>
        <path class="cls-14" d="M46.46,39.41c.24.6.47,1.07.41,1.75-.04.49-.43.66-.64.23-.11-.24-.4-1.42-.41-1.67,0-.34.38-.37.64-.31"/>
        <path class="cls-14" d="M43.86,39.79c.68.33,1.54,1.14,1.17,1.95l-.6-.12-.84-1.43h0c.03-.11-.04-.27.03-.38.05-.08.21,0,.23-.02"/>
        <path class="cls-14" d="M44.12,58.03c.67,1.01.97,2.39.65,3.57-.04.15-.18.11-.33.09-.34-.05-.79-3.14-.72-3.65.22-.02.3,0,.39,0"/>
        <path class="cls-14" d="M43.84,83.09c.15.29.28.52-.05.74-.38.24-1.54.18-2.05.28-.6.11-1.47.69-1.9.32-.51-.52.23-1.27-.07-1.89-.36.28-.82.5-1.17.78-.25.22-.84,1.09-1.03,1.04-.16-.13-.35-.32-.4-.51-.14-.42-.1-1.18-.23-1.74-.03-.13-.07-.46-.29-.36-.57.27-.84,1.95-1.32,2.08-.61.17-1.01-.9-1.28-1.28-.24-.34-.97-.96-.78-1.32.46-.87,1.56.73,1.89,1.04.15-.61,1.43-1.94,2.03-1.43.29.24.63,1.65.58,2.09.61-.42,2.08-1.66,2.8-1.57.9.29.21,1.29.2,1.96.56-.22,2.69-.63,3.1-.23"/>
        <path class="cls-14" d="M43.73,37.97l-.21.37c-.72.03-1.49.24-2.19.28-2.36.14-5.2.04-7.55-.14-.66-.04-1.44.15-2.02-.32-.05-.24.09-.21.26-.26,1.13-.34,4.05-.31,5.4-.34,2.12-.04,4.23.02,6.31.4"/>
        <path class="cls-14" d="M42.31,42.78c.24,0,1.29-.11,1.16.33l-.86.84-.56-.25c-.07-.35.25-.6.26-.91"/>
        <path class="cls-14" d="M43.14,48.66l.19.32c-.88.54-1.78,2.82-2.53,3.2-.3.15-.21-.71-.2-.78.05-.38.42-1.23.65-1.57.04-.07.38-.46.45-.52.24-.22,1.14-.73,1.43-.64"/>
        <path class="cls-14" d="M42.28,60.47c.46.77,1.28,2.26.61,3.03-.09.02-.35-.1-.41-.16-.34-.3-.57-1.29-.79-1.74-.16-.35-1.26-2.33-1.07-2.52.83-.1,1.3.77,1.66,1.39"/>
        <path class="cls-14" d="M41.74,16.56c.23.66,1.03,1.82.96,2.44-.04.36-.36.41-.66.26-.48-.24-1.23-1.95-1.39-2.51-.42-1.43-.72-3.24.03-4.59.67.22.39,1.09.47,1.62.11.84.34,1.99.6,2.78"/>
        <path class="cls-5" d="M40.14,65.09c1.5.79,2.38,2.29,1.67,3.98-.54,1.33-2.1,1.52-3.36,1.72-1.62.26-3.51.34-5.24.24-.38-.02-.76-.05-1.13-.09-1.98-.21-4.79-.82-4.33-3.43.1-.55.43-.99.75-1.4-.08.47.38.62.59.92.38.54.76,1.33,1.04,1.95.2.43.18,1.27.85,1.17.29-.9-.18-1.79-.63-2.57-.36-.65-.89-1.54-1.72-1.61.63-.68,1.18-1.01,2.08-1.3.13-.03.37-.09.52-.13,2.32-.57,6.76-.59,8.9.54M40.24,69.07c.24-.38.9-.96.75-1.45-.08-.11-.13-.21-.29-.18-.9.12-2.16,1.7-1.72,2.59.48.97,1.08-.66,1.26-.96M39.56,65.51c0-.34-.28-.35-.55-.29-1.24.25-3.04,2.86-3.2,4.09-.08.57.12,1.92.67,1.07.33-.5.48-1.38.77-1.97.32-.62.99-1.52,1.48-2.03.27-.29.71-.39.84-.86M36.05,64.94c-.84-.01-1.48.98-1.8,1.65-.44.91-.5,1.66-.27,2.65.31.03.21,0,.26-.18.16-.58.49-1.48.72-2.03.3-.75.9-1.31,1.1-2.09M33.39,69.65c.27-1.09-.73-2.97-1.43-3.8-.32-.38-.82-.95-1.37-.91-.25.26,1.17,2.52,1.37,3,.3.77.39,1.66.74,2.38.09.17.15.26.37.23-.03-.36.25-.58.33-.9"/>
        <path class="cls-5" d="M42.31,42.78c0,.32-.33.57-.26.91-1.67.7-3.67.74-5.47.78-.04-.62-1.02-2.51-1.56-2.81-.14-.08-.24-.07-.38-.07.36-.37.99.02,1.35,0,.54-.02,1.27-.23,1.83-.26.96-.05,2.43-.1,3.32.13-.26.24-.52.32-.78.59-.28.28-1.21,1.71-.59,1.89.33.1,1.07-1.17,1.27-1.39s.73-.29.62-.83c.35.28.65.53.65,1.04M38.53,42.46c.02-.26.33-1.03-.32-.84-.37.11-1.13,2.25-.39,2.46.72.22.67-1.23.71-1.62"/>
        <path class="cls-14" d="M41.91,24.16c.1.37-.15.5-.47.61-.71-.01-1.94-1.13-1.73-1.85.03-.11.18-.24.31-.22l.2.06c.42.66.94,1.11,1.68,1.39"/>
        <path class="cls-14" d="M41.66,41.74c.11.53-.42.61-.62.83-.21.22-.95,1.49-1.27,1.39-.62-.18.3-1.61.59-1.89.26-.27.52-.35.78-.59.11.03.23-.02.39.07.09.05.1.17.13.2"/>
        <path class="cls-14" d="M41.36,21.11c.09.15.21.24.16.44-.2-.01-.4.02-.59-.01-1.02-.16-2.52-2.85-2.55-3.84,0-.53.27-.55.59-.18.35.41.62,1.08.93,1.54.43.68,1.1,1.4,1.46,2.06"/>
        <path class="cls-14" d="M41.27,40.18c.23.17-.02.23-.2.25-.64.11-1.27.36-1.94.4-3.52.23-7.28-.18-10.82,0-.5.08-.99-.57-.52-.92.32-.25,1.59-.1,2.09-.12,3.21-.17,6.55-.28,9.75,0,.53.04,1.12.24,1.64.38"/>
        <path class="cls-5" d="M40.98,48.86c.16.27.26.65.28.96-.23.34-.6,1.19-.65,1.57-.57.34-1.17.53-1.82.65.4-1.33.79-2.56,1.69-3.64.07.09.36.23.5.47"/>
        <path class="cls-14" d="M40.99,67.62c.15.49-.51,1.07-.75,1.45-.18.29-.78,1.93-1.26.96-.45-.89.81-2.47,1.72-2.59.16-.02.22.08.29.18"/>
        <path class="cls-14" d="M40.22,61.23c.42.52.68.95.39,1.63-.58-.04-.68-.72-.93-1.09-.3-.48-.8-.87-.76-1.52.22-.23,1.15.79,1.3.98"/>
        <path class="cls-14" d="M40.09,48.13c.63.04.27.08.39.26-.9,1.09-1.29,2.32-1.69,3.64-.08,0-.17,0-.26,0-.48-1.47.38-3.06,1.56-3.9"/>
        <path class="cls-14" d="M39.01,65.22c.27-.05.54-.04.55.29-.13.47-.56.57-.84.86-.49.51-1.16,1.41-1.48,2.03-.29.59-.45,1.47-.77,1.97-.55.86-.75-.5-.67-1.07.16-1.23,1.97-3.84,3.2-4.09"/>
        <path class="cls-4" d="M21.3,18.82c-.36.11-.75.84-.71,1.2.06.59.73.89,1.07,1.15,0-.75.12-1.53.33-2.32-.24-.04-.49-.09-.69-.03"/>
        <path class="cls-4" d="M23.87,14.78c-1.12-.34-1.85,1.9-1.59,2.76.01.05.05.1.09.15.38-.98.92-1.95,1.62-2.83-.04-.04-.07-.07-.12-.08"/>
        <path class="cls-4" d="M36.62,30.49c.6-.02,2.07-.53,2.17-1.2.21-.67-.55-.86-.73-1.36-.23-.71.25-1.36-.51-1.97-.67-.54-1.02.18-1.63.08-.96-.43-1.37-1.46-2.6-1.51l.02-.43c.55-.45.61-1.14.5-1.84-.17-1.04-1.54.01-1.96.38-.57.52-1.18,1.79-1.17.13.34-.99.68-2.24-.85-2.01-.55.09-.81.58-1.56.52-.25-.01-1.59-.49-1.69-.64-.33-.51.15-.83.3-1.14.18-.38.35-1.24.26-1.64-.03-.19-.2-.33-.23-.55-.09-.6.21-.6.33-.97.32-.9-.54-1.87-1.43-1.97-.76,0-.72.75-1.31.79-.32.03-.41-.17-.54-.3-.7.88-1.24,1.84-1.62,2.83.2.25.62.6.35.99-.16.23-.44.21-.73.17-.21.79-.32,1.58-.33,2.32.13.1.22.2.2.3-.06.05-.12.08-.18.11.08,1.67.67,3.11,1.81,3.87,3.79,2.71,8.11,3.53,11.9,5.01,0-.01.02-.03.03-.04.36-.36.84.09,1.18.06"/>
        <path class="cls-13" d="M21.68,21.59c-.3.14-.66.09-.95.38-.78.78-.14,1.29-.05,2.12.18,1.66-1.37,1.01-2.21,1.3-.2.07-.83.63-.88.8-.01,1.03-.07,2.08-.03,3.11.01.23.13.42.14.65.07,1.17-.37,3.64,1.49,3.45.32-.03,1.1-.39,1.37-.59.47-.34.5-1,1.04-1.18.64-.21,2.49-.02,2.96.5.86.92-.71,1.64-.48,2.48.42.77,1.31.04,1.9.32.53.25.5.78.76,1.22.82.11,1.81-1.19,2.33-1.19s1.1,1.12,1.84,1.18l.32-.07c.97-.91,1.66-1.77.59-2.94-.47-.5-1.11-.37-.98-1.23l1.17-1.7c1.02-.71,1.29.68,2.28.84,1.1.17.8-.22,1.1-.58-3.79-1.48-8.12-2.3-11.9-5.01-1.14-.76-1.74-2.2-1.81-3.87"/>
        <path class="cls-14" d="M38.21,41.62c.64-.2.34.58.31.84-.03.39,0,1.84-.71,1.62-.74-.21.02-2.35.39-2.46"/>
        <path class="cls-5" d="M40.09,48.13c-1.18.85-2.04,2.44-1.56,3.9-.43.07-.86.18-1.3.13-.07-.64-.41-1.87-.67-2.51-.25-.58-.65-1.08-.89-1.65,1.51.05,2.9,0,4.43.13"/>
        <path class="cls-14" d="M37.23,52.17c.08.77-.21,1.44-.59,2.09-.62-.67-.6-1.41-.72-2.22,0-.13.02-.28,0-.43-.17-1.17-.66-2.29-.77-3.47.03-.02.07-.21.22-.25.15-.03.26.11.3.12.24.58.64,1.08.89,1.65.26.64.61,1.87.67,2.51"/>
        <path class="cls-14" d="M36.79,19.07c.85-.13-.33,2.05-.79,1.95-.78-.36.06-1.6.63-1.89.05-.02.11-.04.16-.05"/>
        <path class="cls-14" d="M36.83,14.9c.11,1.11-.46,2.26-1.05,3.17-.22.33-.49.74-.83,1.01-.25.21-.53.32-.85.25-.12-.78.63-1.31,1.02-1.9.28-.45.62-1.01.87-1.48.13-.24.18-.6.33-.83.11-.15.25-.26.51-.22"/>
        <path class="cls-10" d="M34.96,19.07l1.67.05c-.58.29-1.41,1.53-.63,1.89l-1.46.22c-.5-.6-1.37-.8-2.32-.22-.26-.28-.3-.68-.6-.97-.52-.5-1.31-.57-2-.46-.53.08-1.01.68-1.64.51-.07-.07.38-1.58.4-1.89.02-.39-.16-.68-.14-1.03.01-.34.22-.61.26-.92.1-.73-.02-1.28-.46-1.87-.66-.88-1.6-1.36-2.7-1.15-.41.08-.76.47-1.08.49-.21.01-.42-.13-.64-.14-1.76-.1-2.66,2.61-2.54,4.05-1.67.34-2.25,2.61-.91,3.73-.23.46-.61.74-.65,1.29-.04.61.4,1.13.39,1.76-.58-.17-1.1-.38-1.73-.24-.23.04-.36.27-.61.24V6.82c1.77.59,2.94-1.04,3.96-2.22.71,2.02,2.88,2.22,3.45,0,.33-.07.34.29.52.45,1.38,1.18,3.15.04,3.96-1.23.27.41.33.93.61,1.35.47.7,1.54,1.38,2.36.97.24-.12.33-.39.62-.36.18,1,.84,2.05,1.88,2.34l1.18,3c-.08.03-.13.11-.17.22-.24.49-.36,1.38-.54,1.94-.13.39-1.05,2.1-.46,2.28.28-.13.51-.33.7-.58l.67.14c-.14.23-.2.59-.33.83-.25.47-.59,1.03-.87,1.48-.39.6-1.14,1.12-1.02,1.9.31.07.6-.04.85-.25M31.63,12.42c.31-.31-.9-2.09-1.17-2.41-.77-.9-.9-.27-.59.59.25.7.93,1.89,1.76,1.83"/>
        <path class="cls-14" d="M36.57,44.48c.03.32-.07.79-.46.79-.33,0-.6-.65-.72-.92-.02-.08,0-.24-.05-.39-.32-.75-.78-1.53-.85-2.35h.13c.14,0,.24,0,.38.06.54.29,1.52,2.19,1.56,2.81"/>
        <path class="cls-14" d="M36.31,11.11c.25.81.15,1.68-.05,2.48-.12.48-.3.99-.61,1.38-.18.25-.41.45-.69.58-.6-.18.33-1.89.46-2.28.18-.55.3-1.45.54-1.93.04-.11.1-.18.17-.22.06-.01.11-.01.19,0"/>
        <path class="cls-14" d="M34.25,66.59c.33-.67.97-1.66,1.8-1.65-.2.78-.79,1.34-1.1,2.09-.23.55-.55,1.46-.72,2.03-.05.2.05.22-.26.18-.23-.99-.17-1.74.27-2.65"/>
        <path class="cls-5" d="M35.91,51.6c.03.15,0,.31,0,.44h-1.16c.06-.75-.24-1.56-.59-2.22-.1-.19-.62-1.07-.72-1.17.41-.42,1.34-.33,1.68-.51.11,1.17.6,2.29.77,3.47"/>
        <path class="cls-5" d="M35.35,43.96c.06.15.03.32.05.39-.71-.03-.79-.64-1.11-1.05-.07-.08-.16-.1-.18-.13-.12-.14-.2-.3-.26-.39l.11-.08c-.02-.52.05-.86.54-1.1.06.82.53,1.6.85,2.35"/>
        <path class="cls-17" d="M34.89,60.38c.04.47-.7,1.03-1.05,1.23-.64.36-1.44.42-2.07.79.29.12.61.28.9.39.3.11,1.19.09.86.72-.18.35-1.9.66-2.28,1.03-.15.04-.39.1-.52.13-2.11.38-4.25.25-6.38.26.02,0,.03-.09.1-.1.28-.08.64.13.55-.29-.64-.03-1.26-.32-1.9-.38-1.4-.12-2.93.08-4.34,0l-.13-1.44h11.12s.67-.16.85-.2c.14-.03.42,0,.39-.2-.89-.34-1.77-.21-2.67-.26-2.89-.17-6.07-.3-8.98-.14-.27.02-.46.1-.71.14v-1.44h13.47l2.8-.26v.02Z"/>
        <path class="cls-14" d="M34.17,49.82c.35.66.65,1.47.59,2.22-.04.39-.16.88-.65.91-.04-.28-.26-.47-.37-.75-.1-.24-.1-.5-.15-.68-.28-.83-.59-1.24-.91-1.96-.12-.26-.36-.8-.21-1.04.21-.27.8-.04.99.13.1.11.62.98.72,1.17"/>
        <path class="cls-14" d="M34.11,43.17l-.14,1.03h-.42l-1.13-1.87c.53-.51,1.07.03,1.43.44.06.09.14.25.26.39"/>
        <path class="cls-14" d="M31.96,65.85c.71.83,1.7,2.71,1.43,3.8-.08.33-.36.54-.33.9-.22.03-.28-.05-.37-.23-.35-.72-.43-1.61-.74-2.38-.2-.48-1.62-2.74-1.37-3,.54-.03,1.04.53,1.37.91"/>
        <path class="cls-2" d="M33.22,71.03l-.04.6c-.21,0-.47.18-.81.62-.41.53-.59,1.13-.92,1.69-.45-.11-1.25-1.68-1.76-1.37-.34.24-.29.67-.26,1.05.07.85.39,1.81.52,2.67l-1.95-.13c-.2-.18,1-1.03,0-1.5-.75-.35-1.34-.18-2.07.07-.06-.04.36-.93,0-1.37-.82-.58-1.72.17-2.35.72l.07-2.09-.28-.24c-.38-.09-1.78,1.23-1.87,1.68l-.26-.08c-.15-.36-.67-1.63-.99-1.73-.72-.21-.75.37-.93.87-.08.21.08.35-.28.28l-.13-7.56c1.8-.09,3.7.23,5.46-.26,2.13-.01,4.27.12,6.38-.26-.9.29-1.46.62-2.09,1.31-.03.04-.09.09-.13.13-.32.41-.65.85-.75,1.4-.46,2.61,2.36,3.22,4.33,3.43.37.03.75.07,1.13.09"/>
        <path class="cls-5" d="M32.67,49.56c.33.72.63,1.13.91,1.96-.84-.23-1-1.22-.91-1.96"/>
        <path class="cls-17" d="M30.14,59.47l1.62.26c-4.34-.15-8.73.12-13.08,0l-.07-.12c.28,0,.53-.12.84-.13,3.5-.2,7.17.15,10.69,0"/>
        <path class="cls-14" d="M30.46,10c.27.33,1.49,2.1,1.17,2.41-.82.07-1.51-1.13-1.76-1.83-.31-.86-.18-1.49.59-.59"/>
        <path class="cls-14" d="M30.97,85.81c.34.72.48,1.34.4,2.14-.07.73-.66.96-.98.33-.11-.22-.11-1.83-.07-2.15.05-.37.33-.37.64-.32"/>
        <path class="cls-14" d="M30.35,67.59c.44.77.92,1.66.63,2.57-.66.1-.65-.74-.85-1.17-.28-.62-.66-1.4-1.04-1.95-.21-.3-.66-.46-.59-.92.04-.04.1-.09.13-.13.82.07,1.36.96,1.72,1.61"/>
        <path class="cls-14" d="M30.98,53.08c.01.41-.37.64-.58.92-.1.12-.13.28-.21.38-.78,1.07-.98,1.54-1.56,2.73-.15.33-.28.7-.6.91-.27-.02-.41-.26-.45-.52-.08-.85,1.07-2.85,1.64-3.51.15-.17.23-.28.32-.39.03-.03.73-.38.83-.42.21-.08.37-.13.61-.1"/>
        <path class="cls-5" d="M30.2,54.39c.84,1.18-.24,2.67-1.56,2.73.59-1.19.78-1.66,1.56-2.73"/>
        <path class="cls-5" d="M28.63,53.47l.91.13c-.09.11-.16.22-.32.39-.57.66-1.72,2.67-1.64,3.51-.92-.03-1.87.04-2.79,0-.37-.02-1.16-.28-1.5-.14.1-.55-.33-2.39-.86-2.59-.08-.03-.3-.07-.32.05-.08.64.1,1.39.26,2.01-1.85-1.09-1.29-3.6.91-3.51.13.57.37,1.05.55,1.59.18.51.21,1.04.49,1.53.37.07.53-.57.52-.83-.02-.39-.49-1.73-.65-2.16.54.23,1.01.11,1.56,0-.02.81-.18,1.66-.14,2.41.02.27.08.47.14.71.96-1.04,1.64-2.34,2.86-3.12"/>
        <path class="cls-14" d="M28.08,86.48c.23.24.46,1.24.43,1.6-.03.56-.53,1.22-.89.49-.18-.37-.52-2.3-.09-2.38.13.04.47.21.54.29"/>
        <path class="cls-16" d="M27.99,47.67c.15,1.7-.13,3.63,0,5.35-.05.39-.33.26-.4.33h-.64c-.02-1.87.19-4.26-.01-6.05-.15-1.26-1.18-2.91-1.3-4.05-.14-1.32.2-2.62.13-3.93.13-.24.23-2.13.34-2.14.19-.02.39,0,.59,0l-.62,5.25c.32,1.54,1.78,3.74,1.92,5.23"/>
        <path class="cls-5" d="M26.95,53.34h.64c-.17.15-.35.57-.64.65-.01-.22,0-.44,0-.65"/>
        <path class="cls-10" d="M25.52,36.14c-.12.67-.29,1.35-.38,2.03-.03.24.01.48-.01.71h-7.29c.09-.95-.08-1.88-.14-2.81-.04-.79.21-1.49.14-2.28,1.22.83,2.51.27,3.57-.52.16-.12.32-.38.46-.46.38-.18,1.23,0,1.69-.05-1.42,1.84-.4,3.76,1.96,3.38"/>
        <path class="cls-14" d="M24.87,55.64c.01.26-.15.89-.52.83-.28-.49-.3-1.02-.49-1.53-.18-.53-.42-1.02-.55-1.59-.07-.32-.21-.63-.12-.97l.31-.21c.24.08.61,1.02.72,1.31.16.43.63,1.77.65,2.16"/>
        <path class="cls-14" d="M24.08,39.01c.15.54.33,1.34-.26,1.69-.15,0-.26-.08-.39-.13-.32-.5-.03-1.62.65-1.56"/>
        <path class="cls-5" d="M23.82,40.7l.12.7-.34.33c-.77.08-1.55,0-2.32.02-.34,0-.7.12-1.11.13.31-.7.05-1.61-.52-2.08l.65-.39c.38.38.6,2.12,1.22,1.94.79-.23.16-1.8-.3-2.2.63.16,1.22.4,1.18,1.15.36.05.69.14,1.03.27.13.05.24.14.39.13"/>
        <path class="cls-14" d="M22.44,54.79c.53.2.96,2.03.86,2.59-.01,0-.05.21-.21.25-.63.17-.6-.38-.71-.77-.16-.62-.34-1.37-.26-2.01.01-.12.24-.09.32-.05"/>
        <path class="cls-14" d="M21.22,39.14c.47.4,1.1,1.97.3,2.2-.62.18-.84-1.55-1.22-1.94.13-.61.42-.39.91-.26"/>
        <path class="cls-16" d="M19.86,78.88c-2.08-2.72-2.11-6.81-2.13-10.36-.89-1.9-1.66-3.81-2.31-5.74-.06.03-.12.06-.19.07-.29-.51-.21-.97-.26-1.46-4.62-14.89-2.73-30.31-.16-45.73.2-1.63.75-3.18,1.51-4.7,0-1.88-.02-3.76-.05-5.64-.03-1.94.04-3.88.01-5.81h-7.55c-.05.38.11.72.13,1.1.24,4.15-.13,8.45-.14,12.52-.01,8.54.05,17.13.39,25.68.33,7.94-.03,15.92.14,23.84.02,1,.05,2.15,0,3.14-.1,1.78-.53,3.54-.4,5.34.06.76.47,1.63.4,2.35-.03.45-.55,1.21-.75,1.72-.42,1.07-.92,3.51-1.73,4.13-.43.33-.96.54-1.3,1.05l1.25.05c.45.36,0,1.11.05,1.17.65-.18,1.24-.61,1.91-.75.23-.04.47-.03.69-.03.09-.08-.42-1.64.07-2.21.57-.66,1.61.35,2.14.65,0-.53.88-2.04,1.37-2.1.75-.08.65,1.46.85,1.97l1.92-1.02c.32-.11.49.08.68.3v1.88c.52-.21,2.26-.57,2.46.09.16.6-.46.97-.63,1.48l2.41.52.26-.12c.17-.4.72-.68.72-1.12,0-.74-1.31-1.71-1.76-2.28M10.62,13.34c.63-.18.87,1.51.56,1.93-.63.16-.77-.15-.87-.74-.08-.43-.07-.9.3-1.2M11.2,71.07c-.48-.01-.74-.46-.94-.83-.55-1.04-.66-2.31-.04-3.35l.6-.13c.03.74-.23,1.39-.13,2.14.1.75.78,1.44.52,2.17M11.2,23.18c-.09.66-.01,1.74-.26,2.34-.29.73-.72-.11-.78-.53-.11-.71.13-2.47.64-3,.21-.21.37-.22.65-.18.09.48-.18.92-.25,1.38M15.04,73.93c-.29.09-.55-.76-.58-.98-.05-.38-.04-1.06-.01-1.43.01-.15.03-.4.2-.45.69-.2.55,1.03.59,1.37.04.52.32,1-.19,1.49"/>
        <path class="cls-15" d="M14.97,61.39s0-.1-.01-.15c-.08-.52-.37-1.39-.38-1.85,0-.41.52-.35.75-.15.27.25.6,1.25.65,1.63.1.69.14,1.6-.56,1.92.65,1.92,1.42,3.83,2.31,5.73,0-.67-.01-1.32-.03-1.94-.38-13.52-1.03-27.02-1.29-40.53-.1-5.03-.07-10.05-.09-15.07-.76,1.52-1.3,3.07-1.51,4.7-2.57,15.42-4.45,30.84.16,45.73M16.56,55.99c.39.75.5,1.55.1,2.31-.76.07-.71-.97-.9-1.5-.25-.72-.74-1.38-.65-2.14.29-.29,1.34,1.09,1.46,1.34M15.31,44.88c.72-.22.91,1.69.54,2.05-.08.08-.36.18-.49.1-.54-.28-.53-2-.05-2.14"/>
        <path class="cls-14" d="M19.65,39.79c.58.47.84,1.38.52,2.08-.09,0-.17,0-.26,0-.47-.49-.58-1.11-.9-1.68.04-.08-.1-.53.18-.65.12.13.35.16.46.26"/>
        <path class="cls-5" d="M19.91,41.87c-.72,0-1.37.09-1.43-.84-.07-.91.45-.73.53-.85.32.58.43,1.2.9,1.69"/>
        <path class="cls-14" d="M16.56,55.99c.39.75.5,1.54.1,2.31-.76.06-.71-.97-.9-1.5-.25-.72-.74-1.38-.65-2.14.29-.29,1.34,1.09,1.46,1.34"/>
        <path class="cls-14" d="M15.31,44.88c.72-.22.91,1.69.54,2.05-.08.08-.36.18-.49.1-.54-.28-.53-2-.05-2.14"/>
        <path class="cls-14" d="M15.98,60.87c.11.75.15,1.77-.75,1.99-.33-.57-.18-1.07-.27-1.62-.08-.52-.37-1.39-.38-1.85-.01-.41.52-.35.75-.15.27.25.6,1.25.65,1.63"/>
        <path class="cls-14" d="M15.23,72.44c.04.52.31,1-.2,1.49-.29.09-.55-.76-.58-.98-.05-.38-.04-1.05-.01-1.43.01-.15.03-.4.2-.45.7-.2.55,1.03.59,1.37"/>
        <path class="cls-14" d="M11.45,21.8c.09.48-.19.92-.25,1.38-.09.66-.01,1.74-.26,2.34-.29.73-.72-.11-.78-.53-.11-.71.13-2.47.64-3,.21-.21.37-.22.65-.19"/>
        <path class="cls-14" d="M10.68,68.91c.1.75.78,1.44.52,2.16-.48-.01-.74-.46-.95-.83-.55-1.04-.66-2.31-.04-3.35l.6-.13c.03.74-.23,1.39-.13,2.14"/>
        <path class="cls-14" d="M10.62,13.34c.63-.18.87,1.51.56,1.94-.63.16-.77-.15-.87-.74-.08-.43-.07-.9.3-1.2"/>
        <path class="cls-5" d="M7.81,71.79c.05.57.43,1.31.4,1.82-.01.29-.73,1.82-.89,2.25-.29.77-.33,1.68-1.02,2.24-.14.02-.99-.47-1.23-.58-.79-.35-.73-.31-1.43-.78-.67-.46-1.46-.36-2.2-.2-.1-.09.78-1.61.46-1.96l-.28-.25-2.52.9.24-2-.24-.28c-.5-.25-1.28.15-1.69.46v-11.2l.91-.78c.19.24-.57,2.33.46,2.22.34-.03.4-.39.59-.59.46-.5,1.13-1.06,1.83-1.11.12.12-.97,2.35-.33,2.48l2.66-.91c-.09.59-.66,1.03-.5,1.67.4.24.68.02,1.09.01,1.56-.07,2.48,1.29,3.83,1.71.13.47-.1.93-.12,1.36-.05,1-.1,2.55,0,3.52"/>
        <path class="cls-2" d="M-2.6,52.69c1.15-.29,2.36,0,3.52-.26.37-.09.5-.37.96-.24.12.04.23.22.35.24.85.2,2.47-.1,3.45,0,1.02.1,1.92.77,1.92,1.77h.48v-3.86c-.85-.03-1.69.04-2.54,0-1.43-.08-2.99-.22-4.43-.39-.2-.03-.39-.02-.45-.27l3.57-.39h3.84l.13-1.43c-.8-.03-1.61.03-2.41,0-1.41-.05-2.83-.21-4.24-.33-1.44.77-2.82,1.62-4.15,2.57v2.57h0Z"/>
        <path class="cls-1" d="M3.64,45.92c-.14.04-.26.26-.45.26-.21,0-.32-.23-.46-.26-.32-.08-1.04,0-1.43,0-.16,0-.28,0-.52,0-1.14-.04-2.25.35-3.39.39v3.81c1.33-.95,2.72-1.8,4.15-2.57-.25-.02-.51-.05-.77-.07-.24-.02-.48,0-.72,0-.17,0-.54.11-.46-.2l1.17-.07c.62-.11,1.24-.19,1.86-.25.85-.42,1.73-.81,2.61-1.18-.53.03-1.13-.03-1.61.12"/>
        <path class="cls-2" d="M6.12,45.58c-.23.15-.53.2-.87.22-.88.37-1.76.76-2.61,1.18,1.84-.18,3.7-.17,5.56-.15l-.05-2.13c-.58.2-1.16.4-1.73.62-.09.09-.19.18-.31.26"/>
        <path class="cls-1" d="M.46,41.61s-.74-.21-.91-.25c-.18-.05-.4,0-.46-.27.62-.07,1.28-.32,1.9-.38,2.27-.2,4.79.13,7.08,0v-1.17c-1.44-.11-3.07.14-4.5,0-.23-.02-.47-.04-.58-.26l-5.6.65v2.73l4.56-.13v-.24h.18c.22.11.4.2.6.37l2.6.39.46-.26c.23.15.18.3.2.52.81.46,1.01,1.38.44,2.01.57-.22,1.14-.42,1.73-.62l-.08-3.09s-7.62,0-7.62,0Z"/>
        <path class="cls-3" d="M8.07-.48c-.05,1.62.08,3.26,0,4.88-.01.23.05.2-.2.2-1.15.01-1.89-.9-2.3-1.86-.16-.39-.42-1.68-.71-1.77-.84-.27-.89.85-1.1,1.41-.55.05-.9-.59-1.1-1.04-.25-.57-.37-1.21-.46-1.82h5.87Z"/>
        <path class="cls-2" d="M7.5,54.78c-.1.29-.6.64-.6.78,0,.11.23.22.08.52-.07.11-1.61,1.64-1.72,1.67-.39.12-.48-.24-.45-.57.04-.28.45-.92.65-1.11l-2.86.38c-.22.25-.33.51-.64.37v-.24l-4.57.13v4.18c.49-.33,1.13-1.17,1.74-.79.47.55.04,1.22.09,1.84.65-.37,2.06-1.37,2.78-.92.1.07.12.16.15.26.12.5-.39,1.47-.59,1.97.7.14,2.51-1.22,2.93-.4.28.55-.43.91-.47,1.44.7-.07,1.23.05,1.86.29.77.29,1.39.87,2.18,1.14v-11.52h-.48c0,.18-.03.37-.1.58"/>
        <path class="cls-12" d="M8.07,24.41v14.33c-.89.03-1.79-.05-2.67,0-.22,0-.42.12-.64.14-.57.04-1.37-.18-1.76.39l-5.6.65v-20.47H-.65c0,.5.34,1.33.46,1.57.69,1.4,2.4,3.31,4.09,3.13-.23-.41-.53-.75-.88-1.08l1.51-.24c.14.32.35.61.54.86.4.49,1,1.11,1.69.97.04-.09.05-.17.05-.25h1.26ZM7.11,28.97c.02-.47-.47-.6-.73-.85-.38-.36-.73-.75-1.11-1.11-.12.14-.33.25-.33.46,0,.62,1.47,2.28,2.16,1.5M5.86,34.18c.03-.17-.02-.33-.1-.48-.18-.4-1.69-1.2-2.17-1.6-.46-.39-1-1.15-1.43-1.45-.16-.11-.25-.16-.46-.12-.03,1.1.93,2.21,1.76,2.86.63.51,1.6,1.19,2.4.78M3.77,28.45c.05-.24-.12-.31-.26-.45-.76-.7-1.73-1.1-2.4-1.89-.44-.52-.89-1.61-1.3-1.97-.43-.38-.47.18-.4.53.33,1.71,1.93,3.48,3.68,3.74.24.03.46.04.68.03"/>
        <path class="cls-12" d="M8.07,5.25v19.16h-1.25c0-.49-.63-.87-.97-1.24-.29-.34-.8-1.14-1.1-1.38-.16-.13-.26-.14-.47-.12-.04.39.06.79.24,1.16l-1.51.24c-.57-.53-1.22-.99-1.72-1.6s-.8-1.4-1.25-2.01c-.11-.15-.3-.39-.51-.4-.14.04-.2.2-.2.39h-1.96V-.48H1.05c.11,1.28.79,3.92,2.41,3.92.48,0,.64-.46,1.1-.4.41,1.34,2.05,3.1,3.52,2.22M3.14,18.99c.39.21.84.39,1.28.34-.14-.78-.85-.98-1.36-1.43-1.11-.98-1.76-2.13-2.29-3.5h-.38c-.2,1.77,1.19,3.81,2.75,4.6"/>
        <path class="cls-5" d="M7.6,54.2c0,.19-.03.37-.1.58-.1.29-.6.64-.6.78-.43-.03-1.11.24-1.43.52l-2.86.38c.74-.86,1.07-1.76,2.01-2.6.27-.24.7-.29.59-.78-.62-.27-1.27.13-1.75.52-.84.67-1.65,1.88-1.5,2.99l-4.56.13v-1.29c.26.12.37.98.72.9.83-.65.29-2.05-.22-2.77-.13-.19-.23-.36-.5-.35v-.52c1.15-.29,2.36,0,3.52-.26-.6.87-1.66,2.09-.85,3.13.17.04.29-.17.38-.27.38-.45.68-1.17,1.06-1.67.28-.39.82-.59.71-1.19.85.2,2.46-.1,3.45,0,1.02.1,1.92.77,1.92,1.77"/>
        <path class="cls-14" d="M6.38,28.12c.26.25.75.38.73.85-.7.78-2.16-.88-2.16-1.5,0-.21.21-.32.33-.46.38.36.73.75,1.11,1.11"/>
        <path class="cls-14" d="M6.9,55.56c.01.11.23.22.08.52-.07.11-1.61,1.64-1.72,1.68-.39.12-.48-.24-.44-.57.04-.28.44-.92.65-1.11.33-.28,1-.55,1.43-.52"/>
        <path class="cls-14" d="M6.83,24.41c0,.08-.01.16-.05.25-.7.14-1.29-.48-1.7-.97-.19-.25-.4-.54-.54-.86-.18-.37-.28-.77-.24-1.16.21-.02.3-.01.47.12.29.24.8,1.04,1.1,1.38.34.37.97.75.97,1.24"/>
        <path class="cls-5" d="M5.99,43.31c.93.53,1.05,1.66.13,2.27-.59.39-1.68.1-2.48.34.07-1.23.07-2.38-.9-3.26l2.6.39c-.17.43-.28,2.34.2,2.48.59.17.48-1.87.46-2.22"/>
        <path class="cls-14" d="M5.99,43.31c.02.35.13,2.39-.46,2.22-.48-.14-.37-2.05-.2-2.48l.46-.26c.23.15.19.3.2.52"/>
        <path class="cls-14" d="M5.76,33.7c.08.15.13.31.1.48-.8.4-1.77-.27-2.4-.78-.82-.65-1.79-1.76-1.76-2.86.21-.04.29.01.46.12.43.29.98,1.05,1.43,1.45.48.4,1.99,1.2,2.17,1.6"/>
        <path class="cls-14" d="M5.21,53.08c.11.49-.32.54-.59.78-.93.84-1.27,1.74-2.01,2.6-.22.25-.33.51-.64.37v-.24c-.16-1.11.65-2.32,1.49-2.99.48-.39,1.13-.79,1.75-.52"/>
        <path class="cls-14" d="M4.43,19.32c-.45.05-.89-.13-1.28-.34-1.55-.79-2.94-2.83-2.75-4.61h.38c.53,1.38,1.18,2.54,2.29,3.51.51.46,1.22.65,1.36,1.44"/>
        <path class="cls-14" d="M3.9,24.15c-1.69.17-3.4-1.73-4.1-3.13-.12-.24-.46-1.07-.46-1.57,0-.2.06-.35.2-.39.21.01.4.25.51.4.45.61.75,1.4,1.25,2.01.5.61,1.15,1.07,1.72,1.6.35.33.65.66.88,1.08"/>
        <path class="cls-14" d="M3.51,28c.14.13.31.21.26.45-.23.01-.45,0-.68-.03-1.75-.26-3.36-2.03-3.68-3.74-.07-.35-.03-.91.4-.53.41.36.86,1.45,1.3,1.97.67.79,1.64,1.2,2.4,1.89"/>
        <path class="cls-14" d="M2.74,42.65c.97.88.97,2.03.9,3.26-.14.04-.26.26-.44.26-.21,0-.32-.23-.46-.26.13-1.25-.29-2.28-.78-3.39v-.24h.19c.22.11.4.2.6.37"/>
        <path class="cls-5" d="M1.96,42.52c.49,1.11.91,2.14.78,3.39-.32-.08-1.04,0-1.43,0,.5-.76-.62-2.38-1.37-2.48-.22-.03-.21,0-.2.2.03.73.98,1.49,1.04,2.28-1.14-.04-2.25.35-3.39.39v-3.65l4.56-.13h.01Z"/>
        <path class="cls-14" d="M2.22,52.43c.12.6-.42.79-.71,1.19-.38.5-.68,1.23-1.06,1.67-.09.1-.21.32-.38.27-.82-1.04.25-2.26.85-3.13.37-.09.5-.37.96-.24.12.04.23.22.35.24"/>
        <path class="cls-14" d="M-.06,43.44c.75.1,1.87,1.72,1.37,2.48-.16,0-.28,0-.52,0-.06-.79-1.01-1.56-1.04-2.28,0-.2-.02-.23.2-.2"/>
        <path class="cls-16" d="M.79,47.22v.26c-.24-.02-.48,0-.72,0-.17,0-.54.11-.46-.2l1.17-.07h.01Z"/>
      </g>
    </g>
  </g>
</svg>