<?xml version="1.0" encoding="UTF-8"?>
<svg id="Layer_1" data-name="Layer 1" xmlns="http://www.w3.org/2000/svg" xmlns:xlink="http://www.w3.org/1999/xlink" viewBox="0 0 90 90">
  <defs>
    <style>
      .cls-1 {
        fill: #bb9889;
      }

      .cls-2 {
        fill: #a8796b;
      }

      .cls-3 {
        fill: #e2b596;
      }

      .cls-4 {
        fill: #abe0f9;
      }

      .cls-5 {
        fill: #b6c370;
      }

      .cls-6 {
        fill: #5f845f;
      }

      .cls-7 {
        fill: none;
      }

      .cls-8 {
        clip-path: url(#clippath-1);
      }

      .cls-9 {
        fill: #5a7752;
      }

      .cls-10 {
        fill: #727849;
      }

      .cls-11 {
        fill: #849a52;
      }

      .cls-12 {
        fill: #663925;
      }

      .cls-13 {
        fill: #c28966;
      }

      .cls-14 {
        fill: #986749;
      }

      .cls-15 {
        clip-path: url(#clippath);
      }
    </style>
    <clipPath id="clippath">
      <rect class="cls-7" x="0" width="90" height="90"/>
    </clipPath>
    <clipPath id="clippath-1">
      <rect class="cls-7" x="-2.18" y="-.35" width="94.35" height="90.71"/>
    </clipPath>
  </defs>
  <g class="cls-15">
    <g class="cls-8">
      <g>
        <path class="cls-4" d="M92.37-.35v94.75H-2.38v-.13H3.49c.56,0,1.13-.01,1.69,0,29.02.04,58.04-.04,87.06,0V-.35h.13Z"/>
        <path class="cls-3" d="M33,27.02c-.69-.02-1.66-.27-2.34-.27-.39,0-.9.25-1.37.13l2.06.62c.22.11.43.22.65.34.6-.3,1.21-.57,1.83-.79-.27,0-.56-.01-.83-.02"/>
        <path class="cls-2" d="M33.83,27.05c-.62.22-1.23.5-1.83.79.8.42,1.6.83,2.38,1.26,1.93-.74,3.93-1.32,5.98-1.77-2.23-.16-4.44-.23-6.54-.28"/>
        <path class="cls-3" d="M34.38,29.1c.94.52,1.86,1.07,2.72,1.69,4.19-1.29,8.51-1.79,12.91-1.73-3.02-1.03-6.35-1.49-9.64-1.73-2.05.45-4.06,1.03-5.98,1.77"/>
        <path class="cls-3" d="M50.01,29.06c-4.4-.07-8.72.44-12.91,1.73.61.44,1.18.91,1.71,1.44,4.48-1.7,9.3-2.02,14.03-1.99-.02-.01-.05-.02-.07-.03-.88-.45-1.8-.82-2.75-1.14"/>
        <path class="cls-1" d="M62.67,40.11c-.31-5.3-5.73-7.78-9.84-9.87-4.73-.03-9.55.29-14.03,1.99.65.66,1.24,1.4,1.72,2.26.89,1.57.88,3.36.26,4.93,7.43-.75,14.93-.23,21.78,2.23.11-.42.14-.9.11-1.54"/>
        <path class="cls-3" d="M47.68,52.16c-4.35-2.18-8.7-3.26-13.05-4.35,1.94-.53,3.88-.93,5.82-1.26l-.08-.24h.65v.15c1.66-.26,3.32-.46,4.98-.61-.06-.15-.05-.36,0-.5.05-.16.32-.3.47-.33.46-.09.54.42.34.76,4.44-.35,8.88-.36,13.32-.29.49-.57.94-1.16,1.34-1.75.55-.84.92-1.39,1.1-2.09-6.85-2.46-14.34-2.98-21.78-2.23-.5,1.26-1.38,2.39-2.51,3.16-4.75,3.26-10.28,5.15-15.32,7.87-2.32,1.25-4.6,2.69-6.79,4.28,10.86-1.67,21.64,2.37,31.52-2.57M42.37,52.84c.25,0,.45.21.45.46s-.2.46-.45.46-.46-.21-.46-.46.21-.46.46-.46M41.24,50.11c.18-.02.61.2.57.42l-.71.43-.33-.54c.03-.14.33-.3.47-.32M40.17,52.04l.32.35c.15.62-.17.79-.75.67l-.09-.5s.52-.52.52-.52ZM37.39,52.69c.21,0,.37.16.37.37s-.16.37-.37.37-.37-.16-.37-.37.16-.37.37-.37M50.64,40.61l.38-.42c.4-.1.95.63.57.98-.23.29-.53.47-.86.19-.25-.21-.24-.49-.09-.75"/>
        <path class="cls-1" d="M65.14,68.79c-.15-.08-.29-.09-.46-.07l-.07.13v.39c-.26.33-2.71-1.49-3-1.76-.97-.88-1.14-1.27-2.34-2.1-2.32-1.59-6.13-4.7-7.37-7.21-.75-1.52-.67-3.76.35-5.13.93-1.25,1.26-1.39,2.46-2.18,0,0-.02-.15.04-.21,1.75-1.55,3.77-3.29,5.37-5.17-4.44-.07-8.88-.06-13.32.29-.12.2-.33.34-.62.25-.09-.03-.14-.11-.17-.19-1.66.15-3.32.35-4.98.61,0,.3-.07.55-.46.5l-.12-.4c-1.94.32-3.88.73-5.82,1.26,4.35,1.09,8.7,2.18,13.05,4.35-9.88,4.94-20.66.91-31.52,2.57-2.64,1.92-5.14,4.05-7.33,6.36-2.72,2.85-4.6,5.64-5.81,8.58,8.56-.65,16.94,1.16,25.35,2.86.69-.8,2.52-.65,2.73.54.05.01.1.02.15.03.39-.15,1.01-.01,1.42.27,6.03,1.13,12.09,1.99,18.28,1.63-3.26,0-5.44-1.09-7.61-3.26,8.33-.72,17.03-.84,25.48-.12-.72-.46-1.46-1.03-1.97-1.42-.41-.29-1.38-1.26-1.71-1.41M44.79,49.81c-.22.29-.97,0-.71-.51.35-.69,1.01.09.71.51M29.12,67.82l-.81.64-.34-.46c.34-1.25,2.14-1.65,1.97.07l-.83-.25h.01ZM30.31,61.27l-.63.02c-.05-.51.33-.72.78-.65,0,0-.15.63-.15.63ZM33.62,56.16c.24-.78,1.36.63-.02.57l.02-.57ZM32.51,59.75c.28-.08.64-.07.84.16.42.77-.99,1-1.26.47-.12-.25.24-.58.42-.63M32.26,64.05c.59-.09,1.06.64.36.89-.79.28-1.33.09-.72-.71.11-.08.23-.16.36-.18M32.73,67.53l-1.36-.03-.05-.6.56-.37,1.01.23c.35.27.2.61-.15.77M31.2,56.76c.41-.04.89.42.49.88-.76.85-1.51-.77-.49-.88M31.99,70.17l-.81.51c-.58-.48.16-1.29.68-1.41.5-.11.83.01,1.07.46.13,1.26-.62.36-.94.45M34.08,72.14c-.22.04-1.03.66-1.13.16-.16-.79,2.19-1.6,2.21-.2-.35.02-.72-.04-1.08.03M34.9,66.77c.16.45-.74,1.03-.99.65-.38-.58.52-.96.99-.65M35.36,63.64c-.14.21-1.34.18-1.58,0-.46-.35.1-.83.57-.89.63-.1,1.33.14,1.01.89M36.91,56.07c-.26.33-.64.61-1.09.51-.59-1.01,1.34-1.97,1.09-.51"/>
        <path class="cls-1" d="M65.01,91.79c-.29-.05-.46-.16-.63-.25-.11-.03-.23-.06-.34-.1-.12,0-.27.02-.46.09-.01-.08-.01-.15,0-.22-5.41-1.5-10.9-2.45-16.45-3,.04.07.09.14.11.22.07.29-.13.7-.47.65l-.12-.57c-.74-.54-1.21-.03-1.64.57-.53-.22-.34-.69.02-1.05-14-1.15-28.31.02-42.47.69.32.84.71,1.69,1.17,2.67.46.95.93,1.88,1.46,2.79,22.36.03,44.73,0,67.09,0-2.4-.98-4.81-1.82-7.24-2.55,0,.02-.01.04-.02.07M12.15,89.32c-.16-.07-.24.07-.2-.27.8-.36,1.84-.42,1.96.65-.7.11-1.16-.12-1.76-.38M50.24,90.25c-.29.09-.42.63-.87.5-.13-.9.55-1.41,1.37-1.55l.67.28c.54,1.33-.72.63-1.17.77M55.82,92.57c-.22.04-.5-.48-.8-.5-.2-.02-.41.34-.7.24,0-.79.66-1.28,1.44-.98.45.37.51.85.06,1.24M59.07,93.1c-.35-.04-.53-.4-.9-.4-.46-.01-.52.49-.98.4-.5-1.05.7-1.75,1.6-1.28.45.24.71.92.28,1.28"/>
        <path class="cls-3" d="M31.25,73.1s-.1-.02-.15-.03c0,.03,0,.05.02.08.04-.02.08-.03.13-.05"/>
        <path class="cls-3" d="M92.24,79.53c-.23-.12-.58.13-.65.13.12.6-.28.4-.65.34-1.16-.22-2.25-.73-3.38-1.06-3-.84-5.79-1.41-8.6-2.86-1.08-.55-2.07-1.29-3.17-1.78-1.55-.7-3.17-1.2-4.78-1.94-.27.02-.52.01-.78-.05-.41-.11-.9-.38-1.4-.69-8.46-.72-17.15-.61-25.48.12,2.18,2.17,4.35,3.26,7.61,3.26-6.19.36-12.25-.49-18.28-1.63.31.22.5.51.34.82-.24.48-.68.05-1.06.01s-.76.03-1.14-.03c-.43-.14-.02-.71-.09-.76-.54-.01-.85-.4-1.4-.16-.32.14-1.23,1.27-1.21-.03,0-.28.1-.51.26-.69-8.42-1.7-16.79-3.51-25.35-2.86-1.81,4.37-2.15,9.09-1.49,14.89.19,1.68.53,2.96,1.02,4.26,14.16-.67,28.46-1.84,42.47-.69.24-.24.55-.44.79-.49.49-.08,1.06.23,1.3.68,5.54.55,11.04,1.5,16.45,3,.04-1.22,1.9-.81,1.46.41,2.43.72,4.85,1.57,7.24,2.55,6.66,0,13.32-.01,19.97,0v-14.74h0ZM9.09,77.33c.09.62-.59.68-1.04.65-.17-.74.47-.65,1.04-.65M5.27,76.68c.09-.04.17-.1.27-.12.2-.04.51-.09.63.1l-.07.6c-.23.11-.98.14-1.06-.13l.22-.45h0ZM3.35,75.82l-.42.04c-.26-.12-.43-.35-.3-.63.22-.54.74-.56,1.25-.52.07.47-.16.83-.52,1.11M3.94,79.4c.09-.26.29-.43.55-.49.51-.12,1.1.07.93.66-.13.46-.95.36-1.34.48-.28-.14-.24-.4-.15-.65M4.66,83.06c.16-1.5,2.35-1.26,1.9.4-.59.49-.75-.3-.88-.38-.2-.11-.75.03-1.02-.02M7.07,85.92c-.4,0-.79.35-1.24.27-.03-1.36,2.13-1.63,2.48-.33-.2.71-.83.05-1.24.05M9.01,81.35c-.69-.38-1.35.55-1.6-.29.16-.24.46-.52.74-.59.59-.12,1.73.38.86.88M20.52,76.56c-.36.11-.41.92-1.01.57-.68-.42.05-1.72.75-1.87.57-.12,1.59.25,1.71.85.21.98-.93.33-1.45.46M26.68,78.88l-1.34-.24-.67.63-.34-.33.27-.64c.66-.51,1.63-.42,2.2.14l-.12.44ZM34.24,81.44c-.25-.66-.86-.58-1.36-.21-.24.17-.58.83-.78.78-.68-.66.42-1.66,1.07-1.8.5-.11,1.37-.04,1.48.57.04.28-.05.91-.4.65M39.8,81.63c-.28.41-.82-.26-1.15-.12l-1.21.76c-.37-.26-.12-.59.07-.85.3-.41.87-.79,1.39-.8.46-.01,1.23.52.9,1.01M43.23,84.49c-.24.03-.47-.14-.71-.13-.26.01-.52.33-.77.25-.62-.17.3-1.27,1.02-1.16l.58.48-.12.57h0ZM48.14,84.61c-.61-1.34-1.64.32-2.17-.06-.7-.48.82-1.54,1.41-1.61.37-.03.99.3,1.14.63.15.36.14,1.2-.38,1.03M51.97,88.01c-.55.1-.74-.5-1.23-.53-.52-.02-.9.33-1.37.4-.21-1.26,1.81-1.86,2.57-1,.27.32.15.78.03,1.13M70.02,88.27l-.27.26-.66-.5-.95.1c-.39-.58.25-1.14.84-1.14s1.34.72,1.04,1.28M70.13,75.19c0-.26.22-.48.48-.48s.48.22.48.48-.22.48-.48.48-.48-.22-.48-.48M72.74,91.13c-.46-.08-.47-.52-.43-.9l-1.7.26c.09-1.21,1.49-1.66,2.45-1.01.47.63.24,1.2-.32,1.65M74.34,78.09c-.48-.33,0-.79.4-.88.15-.02.29-.04.42.04.74.61-.19,1.28-.83.84M80.19,81.63c-.4.55-1.83.1-1.24-.47.47-.38.82-.09,1.29.08l-.05.39ZM84.24,80.2l-1.64.2c-.32-.34-.04-.97.36-1.09.46-.14,1.09.01,1.33.45l-.04.45h-.01ZM86.51,82.14c-.28,0-.51-.23-.51-.51s.23-.51.51-.51.51.23.51.51-.23.51-.51.51"/>
        <path class="cls-14" d="M64.74,21.02c-.34.05-.54-.02-.74-.16v4.27c.25.02.51.02.77,0,.24-.18.53-.32.77-.4l-.79-3.7h0Z"/>
        <path class="cls-13" d="M63.7,20.63l-.52,3.9c-.65.01-.25-.82-.26-1.11,0-.13-.04-.27-.07-.41-.27.93-.15,1.48.18,1.78.33,0,.75.06.8.14.02.04.02.11.02.18h.15v-4.27c-.09-.06-.19-.14-.29-.23"/>
        <path class="cls-5" d="M62.79,22.33c-1.87.27-3.77.51-5.65.79-1.31.21-2.79.65-4.07.76-1.7.15-3.18-.33-4.86.1-.95.24-1.82.76-2.76,1.01-.8.22-1.58.22-2.35.39-.79.17-1.54.62-2.34.78l-.13.2c1.73-.16,3.27.52,5,.38,1.6-.14,3.16-.87,4.77-.51.28.24-.91.79-1.04.85-.85.35-1.71.46-2.61.59l1.77.4c.37.07.29-.26.62-.41,1.18-.54,3.24-.85,4.51-1.29.21-.08.38-.26.78-.33.13-.03.27-.03.39-.01,2.49-1.51,5.17-2.62,7.94-3.43,0-.09-.01-.18,0-.27"/>
        <path class="cls-5" d="M54.98,28.26c-.53.39-1.21,1.35-1.96,1.23.74.34,1.39.86,2.14,1.18.29-.01,1.09-1.04,1.46-1.28.54-.37,2.37-1.15,3.57-1.21-1.41-.11-2.81-.28-4.19-.49-.34.15-.68.33-1.02.58"/>
        <path class="cls-5" d="M74.03,20.65c-.28-.16-.47-.49-.75-.54-.48-.09-2.02.18-2.6.27-1.6.25-3.26.71-4.89.9l.04.55c2.79-.59,5.63-.91,8.42-1.08-.07-.04-.15-.06-.22-.1"/>
        <path class="cls-5" d="M79.99,47.22l-.68.37c.23-.08.45-.17.68-.25v-.12"/>
        <path class="cls-2" d="M92.24,57.43v-4.17c-3.24,1.1-5.42,4.34-8.67,5.42,3.11-.62,5.86-1.24,8.67-1.25"/>
        <path class="cls-5" d="M83.57,58.68c3.25-1.08,5.42-4.33,8.67-5.42v-.02c-8.44-2.11-17.89-3.17-26.38.74.46.06.86.31.96.79-1.03-.26-1.81-.07-2.73.4-.03-.71.68-1.14,1.39-1.2,2.33-2.16,5.2-3.44,8.23-4.5-.39,0-.79-.03-1.17-.08-.7-.09-2.14-.6-2.05-1.45.03-.21.11-.39.27-.53.27-.26,1.93-.89,2.47-1.17,1.35-.73,2.85-1.64,3.77-2.87l-1.88.46c-.68.07-3.47.14-2.56-1.25.21-.3,1.65-.95,2.15-1.36.3-.25.62-.6.85-.91-.86,0-3.27.54-3.46-.64-.11-.69.2-.89.75-1.09,3.29-1.15,6.94-1.46,9.54-4.14.43-.45,1.7-2.24,1.77-2.78.03-.18,0-.26-.18-.2-.62.18-1.33.83-2.11.9-.3.03-.61-.13-.84-.08-.54.15-1.63,1.12-2.38,1.4-1.2.47-3.41.66-2.96-1.2-1.62.28-3.23.78-4.7-.32-.29-.36.14-.93-.38-1.04v-.26c1.37-.71,2.96-.99,4.39-1.61.88-.38,1.78-.88,2.6-1.49-5.52.52-11.23.85-16.78.46.15.04.27.12.35.22l-.16.37c-1.87-.06-3.9.73-5.12,2.18l3.09,1.73c.4.12,1.44-.78,1.73.22l-.91.39c.79.77,1.59,1.54,2.1,2.53l.97-.37.72.45c.05.29-.13.18-.33.2-.34.02-.74-.12-.98.2l.94,2.65c.58.22,1.57.21,1.54,1.05-.37.12-1.29-.46-1.51-.13.01,1.17-.23,2.25-.45,3.39.74-.1.93.58,1.63.65.93.11.91-.29,1.63-.59.46-.18,1.66-.55,1.83.13v.46c-.72-.18-1.27,0-1.96.13l.98.65.04.63-.34.12c-.29,0-.89-.51-1.3-.59-.5-.1-1.11.08-1.57-.12-.29-.12-.67-1.15-1.32-.95-.4,1.02-1.32,1.64-1.98,2.47.7-.13,1.79.16,2.03.9.38,1.15-1.2.05-1.45,0-.35-.05-1.2.07-1.53.15-.73.22-1.13.85-1.78,1.14l1.29.34c.29.27.66.52.66.96.71-.04,1.6-.45,1.82.53-.7-.26-1.07.04-1.63.12-1.11.15-.95-.47-1.59-.61-.51-.12-.83.11-1.27.11-.49,0-.59-.28-1.11.07-.24.15-.85.64-.91.84v.26c.07,0,.14-.1.29-.09.53.03,1.73.32,1.66,1-.39.09-.66-.21-.99-.25-.81-.13-2.21.23-2.27,1.16.54.08,1.27.42,1.57.91-.68-.15-1.27-.2-1.95,0l-.14,1.41c.52-.02.93-.03,1.4.23.16.09.16.24.26.29.31.21.95.27.95.78-.38-.05-.61-.39-1.01-.49-.23-.05-1.32-.16-1.46,0-.22,1.96,1,1.49,2.13,1.95.5.21.85.75,1.25,1.1.17.4-.78-.07-.98-.08-.46,0-1,.26-1.5.14-.28.26,1.17,3,1.89,2.99.64-.36,1.33-.2,2.02-.38-.39-1.22-2.02-.72-2.79-.94-.07-.02-.26-.15-.14-.24.54-.95,3.06-.16,3.33.91.97-.36,2.07.63,2.86,1.04.33.16.66.11.78.64-.27.03-.7-.11-.78-.38-.08-.02-.2.02-.26,0l-.13-.13c-.5-.1-1.75-.53-2.01-.52-.41.02-.95.39-1.34.49-.18.04-.97-.08-.82.22,1.14,1.13,2.75,1.7,4.02,2.62.52.37,1.01.95,1.51,1.36.79.65,1.67,1.07,2.28,1.96l.07-.13c.16-.02.3-.01.46.07.33.15,1.29,1.12,1.71,1.41.86.65,2.37,1.84,3.37,2.11.26.07.51.08.78.05-.41-.19-1.93-.69-2.09-.98-.12-.22.14-.21.3-.16,1.5.42,2.65,1.12,4.05,1.69,3.5,1.46,7.11,3.08,10.77,4.09,1.38.38,3.45.58,4.63,1.23.39.22.73.62,1.14.82.19.09,1.66.62,1.78.62.08,0,.42-.25.65-.13v-22.1c-2.8,0-5.56.63-8.67,1.25M59.09,31.07c-.46.21-1.13,1.02-1.35.16,0-.73,1.66-1.15,2.26-1.21.59-.05,1.08.03,1.65.14l.22.5c-1.03-.05-1.84-.04-2.78.4M61.93,32.63c-.81.08-.38-.91.41-1.04.35-.05,1.71.15,1.86.4.05.08,0,.26.02.37-.79.03-1.57-.14-2.3.27M63.04,34.11c.49-.67,3.16-.66,3.14.6-.62.33-1.15-.15-1.76-.14-.56.02-1.84.84-1.38-.46M64.69,38.22l-.22-.33.06-.2c.07-.09.56-.33.69-.36.25-.04,1.43-.16,1.34.3-.02.15-1.59.41-1.87.58M64.68,42.13c-.47-.04.49-.79.68-.88.76-.34,1.65-.24,1.59.75-.85-.18-1.45-.04-2.27.13M65.98,40.3c-.73-.03-.42-.5.02-.76.24-.13.93-.36,1.2-.38.26-.02.53.08.75.23l-.07.34-1.9.58h0ZM64.22,47.21c-.6,0-.4-.86-.59-1.16l-.77-.38-.08-.4c1.23-.23,1.87.85,1.44,1.95M57.19,56.79c.75-1.17,2.64-1.17,2.86.33-.08.09-1.07-.5-1.38-.51-.48-.02-1.06.68-1.48.18M61.48,60.77c-.91-.16-1.23-.84-2.27-.78-.25,0-.88.33-.84-.17.05-.61.97-.68,1.46-.58.51.11,1.97.8,1.65,1.53M64.5,59.02c-.35.16-.8.79-1.12.71-.12-.03-.26-.26-.14-.4.24-.41.61-.84,1.12-.9-.98-1.3-2.21-.99-3.45-.26-.79-1.08,1.07-1.75,1.95-1.7,1.57.12,1.52,1.2,2.56,1.75.51.27,1.45.28,1.41,1.12-.92-.28-1.33-.76-2.33-.32M84.24,61.02c.12.22.51.6.71.79.11-.53,1.07-2.62,1.63-2.58l.33.29v1.89c.3.33,1.28-1.83,2.13-1.55.55.18-.03,1.47-.17,1.29l-.06-.52-1.84,2.08c-.2.05-.37,0-.42-.21-.09-.26-.07-1.91-.15-2-.3-.07-.21.02-.29.16-.36.62-.58,1.36-.75,2.05l-.86-.5c-1.21.57-1.55-1.22-1.23-2.06.9-.3.71.35.99.85M82.18,69.54c1-.13,3.14.76,2.45,1.93-.32.52-.64-.6-.86-.72-.55-.2-1.14-.27-1.73-.17-.41.08-1.77,1.02-1.66.04.07-.53,1.33-1.02,1.81-1.08M80.81,65.24c.56-.71,2.79-1.28,3.07-.08.05.24.09.9-.29.82-.39-.49-.66-.61-1.31-.51-.57.09-1.13.86-1.44.77-.32-.09-.22-.77-.03-1M87.42,54.06c-.73.34-1.52.48-2.21.91-.18.12-.5.68-.73.33-.5-.8,1.55-1.69,2.12-1.8.5-.1,1.24-.05.82.57M77.51,69.77c-.34.05-.62-.23-.96-.23-.58.02-1.05.55-1.64.49-.22-1.4,2.77-1.99,2.6-.26M78.62,71.99l-.34.07c-.5-.47-1.11-.65-1.78-.37-.25.12-1.11,1.09-1.21.1-.07-.66.99-1.12,1.53-1.21.85-.13,2.15.36,1.79,1.41M77.65,61.87c-.6.31-.97.9-1.61.98-.47-.12-.08-1.57-.15-1.95-.61.38-1.09,1.94-1.81,1.83l-.47-2.47c-.06.61-.54,1.38-.6,1.94-.03.3.22.82-.06.99l-.91.05c.22-.54-.78-1.82-1.24-1.82l-.06.13c.28.5.52,1.04.78,1.56.05.12.49.65.07.65h-1.96c-.14,0-.54.37-.78-.13-.48-.97,1.88-.52,2.28-.52-.14-.39-.41-.96-.65-1.29-.23-.34-.53-.55-.77-.87l.17-.45c.39-.3,1.27-.08,1.69.16l.87.63c.09-.57.78-2.43,1.37-2.49,1.2-.11.05,2.5.65,2.49.24-.34.48-.64.77-.91.39-.37.9-.85,1.45-.79.7.08-.21,1.56-.21,1.97.07.07,1.13-.6,1.35-.69.33-.11.97-.36,1.21.02.35.57-.99.78-1.38.98M78.86,56.19c-.91-.76-1.66-.61-2.78-.71-.4-.29-.35-.71.09-.96.64-.37,1.35-.02,2,.12.01-.59-.86-.55-1.02-1.01v-.41c1.12-.41,2.54.3,3.31,1.15.15,0,.59-2.29,1.43-2.29l.46.28v2.15c.76-.74,2.1-2.32,3.3-1.94.14.04.25.15.23.3l-.08.2c-.25.38-.73.33-1.07.49-1,.5-1.63,1.68-2.57,2.24l-.34-.33v-1.88l-.99,2.47c-.64.12-.71-.52-1.03-.91-.29-.36-.64-.55-1.04-.77-.33.71,1.02,1.25.11,1.81M91.2,74.72c-1.01-.03-1.51-.92-2.64-.62-.42.11-1.5,1.37-1.5.06l.94-.86.09-.27c-1.48-.94-2.75-.43-4.18.26l.89.87v.61c-.48.81-.59-.07-1.02-.36-.66-.47-1.79-.46-2.47,0-.36.24-.49.8-1.01.41-.63-1.66,1.85-1.91,3.01-1.82.89-1.6,3.56-2.11,4.95-.87.25.23.47.75.61.83.2.12.52.04.78.13.64.21,1.71.84,1.56,1.63M89.54,62.31c-.44.26-.92,1.06-1.47.48-.12-.61,1.77-1.63,2.3-1.72.26-.04.54-.11.76.09.42.6-1.22.92-1.6,1.15"/>
        <path class="cls-2" d="M65.86,53.98c8.49-3.91,17.94-2.84,26.38-.74v-6.54c-.95.16-2.02.36-2.79-.37-.9.8-3.84,3.58-4.47,1.18-.05-.21.08-.82-.23-.68-.69.6-1.97,2.12-2.86,2.22-1.21.13-1.95-.53-1.89-1.71-.23.08-.45.17-.68.25l-2.24,1.22c-1.05.45-2.21.67-3.37.67-3.03,1.06-5.9,2.33-8.23,4.5.13,0,.26,0,.38,0"/>
        <path class="cls-5" d="M53.88,26.64c-.59.21-1.53.52-2.07.8-.48.24-.91.83-1.52.88,0,.17.18.21.32.26.7.3,1.57.54,2.26.85-.21-.14-.1-.5.08-.73.14-.17,1.2-.78,1.97-1.2-.6-.11-1.2-.23-1.79-.36.25-.18.5-.34.76-.51"/>
        <path class="cls-11" d="M77.6,27.77c1.46-1.09,2.62-2.54,2.78-4.4-.95.75-2.65,1.08-3.11-.33l.5-1.63c-1.28.06-2.41-.08-3.52-.66-2.79.16-5.63.49-8.42,1.08l.09,1.15c.63-.66,1.72-.5,2.51-.68.64-.15,1.35-.63,2.1-.61,1.01.02,3.25.91,4.27,1.33.14.05.39.03.36.23h-2.4c-.23,0-.86-.5-1.17-.51-.44-.01-1.84.37-2.36.49-.96.23-1.89.7-2.91.68l.21.52c.53-.07,1.15.07,1.67-.01.49-.08,1.1-.49,1.71-.5.53-.02,2.11.35,1.69,1.15-.16.32-1.69.47-2.15.59-.99.26-.7.55-1.79.23-.95-.28-2.38.88-3.21.61-.47-.52-.15-1.02.33-1.36-.31.03-.63.03-.92,0,0,.09-.02.18-.02.25-.12.33-.97.37-1.29.34l.12-.85c.07-.05.21-.07.38-.07-.33-.3-.44-.84-.18-1.78-.03-.14-.06-.28-.07-.42-2.77.8-5.45,1.91-7.94,3.43.24.03.38.14.06.33-.29.16-.66.16-.97.27,0,0-.03.01-.05.02-.25.17-.51.33-.76.51.59.13,1.19.25,1.79.36.34-.18.63-.33.76-.38.85-.35,1.98-.7,2.83-.24.16.21,0,.24-.21.26-.86.07-1.58.22-2.28.54,1.38.22,2.78.38,4.19.5.23-.01.45,0,.62.05,5.56.39,11.26.06,16.78-.46M72.58,25.29c.13-.48,2.31-1.25,2.72-.67.06.23-1.03.74-1.28.91-.35.24-.75.96-1.28.41-.14-.13-.18-.47-.15-.65M68.39,27.35c.16-.76,2.24-1.37,2.87-1.05.31.15.4.7.04.83-.51.13-1.01.28-1.51.45-.31.1-1.1.63-1.38.21-.05-.08-.04-.32-.02-.42"/>
        <path class="cls-12" d="M92.24,45.26v1.43c-.95.16-2.02.36-2.79-.37-.9.8-3.84,3.58-4.47,1.18-.06-.21.08-.82-.23-.68-.68.6-1.97,2.12-2.86,2.22-1.25.13-2.01-.58-1.89-1.83l-2.92,1.59c-1.4.61-3.02.79-4.55.59-.7-.09-2.14-.6-2.06-1.45.03-.21.11-.39.27-.53.27-.26,1.94-.89,2.47-1.17,1.35-.73,2.85-1.64,3.77-2.87l-1.88.46c-.68.07-3.47.14-2.55-1.25.21-.3,1.65-.95,2.15-1.36.3-.25.62-.6.85-.91-.86,0-3.27.54-3.46-.64-.11-.69.2-.89.75-1.09,3.3-1.15,6.94-1.46,9.54-4.14.43-.45,1.7-2.24,1.77-2.78.03-.18,0-.26-.18-.2-.62.18-1.33.83-2.11.9-.3.03-.61-.13-.84-.08-.54.15-1.63,1.12-2.38,1.4-1.2.47-3.42.66-2.96-1.2-1.62.28-3.23.78-4.7-.32-.29-.36.14-.93-.38-1.04v-.26c1.37-.71,2.96-.99,4.39-1.61,2.47-1.08,5.13-2.99,5.38-5.88-.95.75-2.65,1.08-3.11-.33l.5-1.63c-1.36.07-2.56-.08-3.74-.76-.28-.16-.47-.49-.75-.54-.48-.09-2.02.18-2.6.27-1.6.25-3.26.71-4.89.9l.13,1.7c.63-.66,1.72-.5,2.51-.68.64-.15,1.35-.63,2.1-.61,1.01.02,3.25.91,4.27,1.33.14.05.39.03.36.23h-2.4c-.23,0-.86-.5-1.17-.51-.43-.01-1.84.37-2.36.49-.96.23-1.89.7-2.92.67l.21.52c.53-.07,1.15.07,1.68-.01.49-.08,1.1-.49,1.71-.5.53-.02,2.11.35,1.69,1.15-.16.32-1.69.47-2.15.59-.99.26-.7.55-1.79.23-.95-.28-2.38.88-3.21.61-.72-.79.39-1.52,1.1-1.76l-.79-3.7c-.49.07-.68-.1-1.03-.39l-.52,3.9c-.65.01-.25-.82-.26-1.11-.01-.35-.22-.72-.13-1.1-1.87.27-3.77.51-5.64.79-1.31.21-2.79.65-4.07.76-1.7.15-3.18-.33-4.86.1-.95.24-1.82.76-2.76,1.01-.8.22-1.58.22-2.35.39-.79.17-1.54.62-2.34.78l-.13.2c1.73-.16,3.27.52,5,.38,1.6-.14,3.17-.87,4.77-.51.28.24-.91.79-1.04.85-.85.35-1.71.46-2.61.59l1.77.4c.37.07.29-.26.62-.41,1.19-.54,3.24-.85,4.51-1.29h.26v.26c-.59.21-1.57.53-2.12.82-.48.24-.91.83-1.52.88,0,.17.18.21.31.26.7.3,1.57.54,2.26.85.04.03.09.05.15.07h0c.74.34,1.39.86,2.14,1.17.29-.01,1.09-1.04,1.46-1.28.74-.51,3.89-1.78,4.55-.93l-.16.37c-1.87-.07-3.9.73-5.12,2.18l3.09,1.73c.4.12,1.44-.78,1.73.22l-.91.39c.79.77,1.59,1.54,2.1,2.53l.97-.37.72.45c.05.29-.13.18-.33.2-.34.02-.74-.12-.98.2l.93,2.65c.58.22,1.57.21,1.54,1.05-.37.12-1.29-.46-1.51-.13.01,1.17-.23,2.25-.45,3.39.74-.1.93.58,1.63.65.94.11.91-.29,1.63-.59.46-.18,1.66-.55,1.83.13v.46c-.72-.18-1.27,0-1.96.13l.98.65.04.63-.34.12c-.29,0-.89-.51-1.3-.59-.5-.1-1.11.08-1.57-.12-.29-.12-.67-1.15-1.32-.95-.4,1.02-1.32,1.64-1.98,2.47.7-.13,1.79.16,2.03.9.38,1.15-1.2.05-1.45,0-.35-.05-1.2.07-1.53.15-.73.22-1.13.85-1.78,1.14l1.29.34c.29.27.66.52.66.96.71-.04,1.6-.45,1.82.53-.7-.26-1.07.04-1.63.12-1.11.15-.95-.47-1.59-.61-.51-.12-.83.11-1.27.11-.49,0-.59-.28-1.11.07-.24.15-.85.64-.91.84h-.26s-.02-.15.04-.21c2.28-2.02,5.03-4.37,6.71-6.92.88-1.35,1.31-1.94,1.21-3.63-.32-5.33-5.79-7.81-9.91-9.91-5.81-2.94-13.4-3.01-19.76-3.18-.68-.02-1.66-.27-2.34-.27-.39,0-.9.25-1.37.13l2.06.62c3.49,1.84,7.17,3.41,9.18,6.98,1.6,2.83.29,6.35-2.25,8.09-4.75,3.26-10.28,5.16-15.32,7.88-5.12,2.76-10.12,6.43-14.12,10.64-6.75,7.09-8.41,13.77-7.3,23.47.32,2.77,1.01,4.46,2.19,6.93.46.95.94,1.88,1.46,2.78-.56-.01-1.13,0-1.69,0l-.86-1.71c-.63.01-2.68,1.96-3.06,1.58l.78-2.48-1.19.57-1.55,1.25v-.78l.38-.02c.05-.05,0-.21,0-.24.36-.57,2.03-1.53,2.69-1.57.28-.01.53.14.55.43l-.83,1.65,1.89-1.11c-.5-1.3-1.25-2.5-1.63-3.85-.38-1.3-.51-2.68-.59-4.04l-.72,1.43c-.52.37-.72,0-.82-.49l-.42-2.9-.51.93v-1.7l.39-.59c.74-.26.48.7.54,1.16.1.82.31,1.63.5,2.43l.85-1.57c.17-1.26-.02-2.57.07-3.84.11-1.66.57-3.32.79-4.96,0-.73-1.23-.65-1.77-.59-.6.07-.82.51-1.37.65v-1.43l1.76-.52,1.76.34c.71-2.57,2.14-4.78,3.38-7.11-1.1-.28-1.29-.93-2.57-.41-.37.15-1.41,1.14-1.48.35-.04-.52.76-.83,1.06-1.17-.69-.71-1.62-.71-2.44-.22-.57.33-.83,1.2-1.48.54v-.39c.73-1.41,2.76-1.88,4.09-1.02.85.55.41.46,1.52.83.61.2,1.26.42,1.29,1.16l.26.08.8-1.35,3.63-4.19c-.39-.24-.88-.59-1.37-.59-.74,0-1.32.59-2.02.65-.35-.91.82-1.5,1.57-1.63-.68-.9-1.85-.71-2.65-.07l-.34-.43c.66-1.09,2.68-1.19,3.45-.21.16.21.15.54.22.62.16.15,1.7.35,1.67,1.07h.18c5.08-5.06,11.28-8.65,17.66-11.8-.89-.49-1.58.07-2.4.34-.78-.38-1.23-1.02-2.21-.91-.34.04-.63.29-.99.26-.15-.88.76-1.12,1.47-1.15.67.11,1.01.59,1.48,1.01,1.03-.84,2.68-.99,3.66,0h.33c1.77-.83,3.57-1.63,5.27-2.57,1.11-.61,3.91-2.09,4.73-2.83,1.48-1.28,1.91-3.99,1.37-5.8-.59-.23-1.15-.85-1.82-.78-.13.02-.5.24-.82.34-.27.1-.51.11-.57-.14-.13-.68,1.53-1.27,2.09-.85-.15-1.01-.59-1.33-1.62-1.16-.45.08-1.22.76-1.38.05l.78-.58c-.4-.29-2.99-.1-2.99.32.35.18.79.64.3.97-.63.04-1.29-.39-1.83.13-.41.1-.4-.74.03-1.01,1.24-.25,1.9-1.52,3.31-1.33-.02-.16-.79-.51-.84-.51h-2.28l.21-.51,1.36-.4c.09-.35-.31-.32-.49-.5-.49.23-.98.54-1.52.65-.4.08-.66-.05-.99.03-.46.12-.98.61-1.53.7-.43.07-1.09.07-.95-.49.78-.01,1.5-.8,2.25-.96.46-.1,1.13.11,1.66-.09-.1-.27-.39-.4-.64-.47-.49-.12-2.31-.13-2.78-.03-.4.09-.88.54-1.39.51.18,1.37-1.11,1.3-2,.75-.27-.17-.44-.46-.68-.63-.3-.22-1.46-.91-1.57-1.04-.41-.49.58-.05.69-.03.27.05.54.02.83.09.37.1.79.44,1.11.47.21.02,1.24-.13,1.49-.18.72-.16,1.54-.7,2.34-.73.02-.18-.3-.22-.46-.26-1.75-.6-4.43-.74-6.22-.23-.23.07-.35.29-.68.35-1.51.24-2.27-.97-3.07-2.01-.36-.17-.87.03-1.22-.09-.17-.05-.17-.28-.3-.37-.7-.49-2.12-.12-2.94-.28-.33-.08-.77-.41-1.16-.53-2.84-.88-5.19-.78-8.12-.61-.35.12-.49.4-.85.59-.61.3-1.33.27-1.95.51.32.54.86,1.01,1.38,1.35.91.58,2.39.82,3.09,1.34.17.13.27.17.21.43-.13.47-1.96.98-2.42.99-.59.01-1.18-.49-1.74-.32.52.64.91,1.41,1.56,1.96.71.6,2.01,1.1,2.6,1.7.15.16.28.35.27.58l-.52.13.13.52c-.73.02-1.4.2-2.15.14-.47-.03-.9-.24-1.36-.21.38.54.97,1.25,1.57,1.55.42.21,1.85.6,2.27.6h3.13c.31,0,.09.6-.07.78-.15.04-.29.02-.39.2l.25.12-.12.34c-.07.07-.03.24-.27.45-.75.67-5.16,1.53-6.32,1.63-.48.05-1-.02-1.49,0-.15.12.35.55.46.64.64.58,1.45.89,2.14,1.38l-.13.38c-.24.17-.57.2-.82.33-.11.05-.08.26-.34.34C2.87,42.68.89,41.7,0,41.01c.13,1,.34,2.08.78,2.99.18.37,1.08,1.47,1.09,1.65.07.66-.87.32-1.2.15-.7-.34-1.46-.62-2.22-.92-.2-.08-.61-.03-.87-.23v-1.57l1.96,1.3c-.34-1.34-1.07-3.08-.75-4.47.38-1.71,2.58,1.08,2.84.82l-1.01-1.78v-.73l.23-.28c.48-.24,1.47.15,2.02.2,1.57.1,4.03-.49,5.72-.67.13,0,.61-.05.6-.24h-2.02c-.23,0-1.64-.52-1.94-.67-1.11-.54-2.54-1.98-2.76-3.23-.37-2.03,2.17-.28,3.07-.6-1.14-.66-2.16-1.61-2.84-2.76-.29-.49-1.09-2.04-.43-2.45l1.31.2c.07-.25-.09-.25-.22-.37-.66-.6-2.25-1.89-1.94-2.89.18-.51.75-.68,1.25-.65.4.02.72.16,1.23.13.32-.01,1.1-.09,1.24-.38-.91.23-1.53.28-2.47.12-2.28-.38-4.67-2.48-4.83-4.88l.32-.46c.77-.5,1.09.5,1.69.82.95.49,3.84.46,4.97.36.63-.05,1.26-.33,1.89-.39.1-.49-.43-.14-.72-.13-1.95.05-3.44-1-4.38-2.64-.39-.68-1.05-2.47.22-2.45.65.02,1.44.12,2.14.14.03,0,.18.15.45.14.17-.01.48-.08.6-.21,0-.13-.85-.04-1.04-.07C1.95,13.68.42,11.57-.09,9.72H-.09c-.54-1.98.14-1.87,1.92-1.82l1.09-.25C1.91,7.65-.38,6.03-.17,5.01c.05-.33.45-.75.8-.75l.09-.26C-.88,3.18-1.62,1.43-2.38-.09v-.26H.1c0,.29-.03.63-.37.66v.16c.07.28.83,1.22,1.07,1.47.3.33,2.05,1.87,2.36,2.01.37.17.72.02.98.32.2.32-.9.85-.97.85H1.15c-.05.22.09.26.2.39.57.7,1.28.8,2.02,1.17.24.12,1.02.48,1.11.65.08.15.02.22-.03.35-.49,1.05-3.29.92-3.29,1.15.46,2.96,2.65,3.68,5.08,4.69l-.51.2-.13.59c-.98.63-2.01.63-3.13.59.68,1.52,1.73,2.59,3.44,2.87l.53-.66c.4.64.66.84,1.44.79.73-.03,1.21-.61,1.83-.92.3.07.22,1,.1,1.25l.09.12c1.25.39,2.27.66,3.19-.47.46-.57.46-.75.36-1.47.39-.57.98-.28,1.17.28.29.21,1.03-.24,1.23-.49.28-.35.27-1.43,1.05-1.09.48.22.37.63,1.15.57,2.26-.16,2.29-4.47-.46-3.72-.25.39-.4.73-.96.57-.6-.17-.03-1.11-.88-1.6-.97-.55-1.32.27-2.14-.07-.3-.72.23-.73.52-1.05.27-.32.55-1.21.59-1.63.07-.97-.53-2.95-1.76-2.14l-.39-.13-.09-1.22c-.2-.34-.59-.67-.99-.72-.35-.04-.55.18-.9.01-.35-.16-.36-.57-.62-.82-.47-.45-1.21-.5-1.75-.18-.27.15-1.23,1.39-1.45,1.23-.38-1.35.95-2.22,1.95-2.83l-.38-1.73h1.04c.18.63.26,1.37-.13,1.95.83.05,1.43.53,1.89,1.17,1-.89,1.77-1.87,2.27-3.12h.91c0,1.33-.98,2.39-1.68,3.44.57.45.98.86,1.06,1.62,2.19.41,2.39,3.2,1.8,4.97.31.01.6.11.87.24.4.2.56.48.89.68l.98-.14c-.73-1.14-1.34-2.48-.4-3.7-.8-.86-1.79-1.61-1.36-2.95l.2-.2c.19-.16.72.11.65-.26-.02-.15-.74-1.07-.91-1.44-.32-.66-.63-1.54-.65-2.27h.91c.16,1.07.61,2.23,1.3,3.06.29.34,1.1.86,1.14,1.2.11.82-1.33.46-1.8.63.33.53.7,1.03,1.16,1.43.35.29,1.6.94,1.68,1.2.46,1.49-1.74-.23-1.94.76-.05.76.34,1.49.79,2.08.17.22.78.92,1.03.79.99-.84,2.34-1.54,2.74-2.88.13-.42-.57.02-.74.03-.41.03-.97-.41-1.09-.8.29-.52.7-.97.98-1.5.16-.3.85-1.82.85-2.02V1.4c.21-.28.57-.27.79,0,.58,1.37.82,2.8,1.68,4.05.23.33.8,1.05,1.11,1.24.43.27,1.1.25,1.3.9.36-.82,1.44-.72,1.61-1.65.12-.63-.61-.97-.73-1.57-.29-1.44.4-2.62,1.79-3.04-.27-.52-.51-1.12-.26-1.69h1.04c-.41.95.54,1.29.65,2.13-.1.35-2.14.32-2.34,1.59-.21,1.32,1,1.45.74,2.96-.17,1.04-.71,1.12-1.27,1.72-.18.21-.28.58-.48.73-.7.52-1.65-.01-2.26.45-.69.5-.51,1.05-.67,1.66-.17.65-.92.78-.57,1.94.4,1.26,2.29.05,2.43.97.12.85-1.1.91-1.4,1.73-.41,1.1.37,1.16.37,1.78,0,.52-.99,1.36.04,1.77,1.16.47,2.82-.86,3.33-.6.91.46-.64,1.64-.76,2.25-.2,1.01,1.97,1.43,2.72,1.34l-.13-7.56c-1.64.42-2.86-.67-2.47-2.34l.59.11c.05.61.12,1.23.77,1.45.45.08,1.15-.18,1.5-.47.26-.22.34-.63.75-.68.39-.07.72.22.7.62h.42c.39-.14.75-1.74.99-1.88.24-.15.4-.08.5.16.59,1.42-1.17,3.73-2.71,2.44l-.25.15.25,7.68.21.32c.39-.1.79-.18,1.14-.4s.75-.85,1-.97c.24-.11.57.25,1.16-.13.72-.46.89-1.45,1.31-2.08.32-.17.61.05.93.01.67-.1,1.99-.97,1.95-1.76-1.1-.2-2.63-.8-2.84-2.05-.07-.38.11-.7.08-.87-.03-.16-.33-.3-.42-.48-1.41-2.37.13-4.33,2.66-4.43.05-.35-.24-.65-.25-.98-.05-1.09,1.23-2.4,1.93-3.14-.73-1.67-.53-3.8.8-5.12h1.43c-.2.51-.7.75-1.01,1.25-.61.97-.82,2.32-.27,3.35.17.33.63.53.49,1.03-.11.39-.59.33-.86.46-.38.18-1.36,1.4-1.45,1.82-.24,1.13,1.09,1.04.87,2.11-1.16.28-2.27-.03-3.31.79-.66.53-.82,1.56-.25,2.22.34.39.8.18,1.09.61.16.5-.4.62-.49.91-.18.64.85,1.34,1.37,1.45.26.05,1.15.15,1.39.15.86-.02,1.99-1.04,2.33-.02.85.35,1.52-1.1,2.02-1.25.85-.26,1.37.66,2.37.29.3-.11.65-.66.97-.58.78.61-.35,1.65.21,2.41.55.77,1.58.22,2,.34.47.12.22,1.04.91.99.98-.04,1.08-1.42,1.65-1.61.53-.16.77.42,1.25.47,1.46.15.33-1.79,1.36-2.27.65-.3.6.36.91.52.58.3,1.59-.37,1.66-.95.04-.24-.13-.49-.12-.75.02-.37.4-.53.14-.98-2.13,1.34-2.69.08-3.25-1.76-.06-.18-.24-.33-.26-.53-.03-.2.13-.49.07-.58-.07-.1-.33-.18-.46-.32-.46-.48-.05-1.15.11-1.69-.83-.82-.96-1.7-.75-2.82h.38c-.52-.62-.22-1.33,0-2.01-2-.83-.65-2.85,1.03-2.55l-.39-.51h1.83c0,.3-.07.63-.2.91-.61,1.29-1.64-.08-2.41.97-.05.26.1.2.26.26.54.21,1.18.13,1.28.89-.35.45-.86.73-.76,1.39.42-.03.97-.07,1.04.46.11.73-.54.55-.79.9-.48.65.36,1.49.97,1.63.45.91-1.11.72-.97,1.62,1,.38,1.03,1,.78,1.95.46.14.14.54.39.8.95.53,1.99-.23,3-.07l-.13,1.31c1.75-.22,1.72.61.91,1.83.47.11.93.09,1.36-.15.39-.23.55-.87.93-.9.43-.04.51.41.79.5.49.15,1.46-.07,1.83-.4.33-.29.78-1.96,1.41-1.4l.4.52c.77.51,1.13-.49,1.58-.62.39-.12.84.08,1.31-.12.22-.09,1-.75,1.13-.96.36-.54,0-.75.1-1.34.12-.36,1.1-.26.7-1.13-.19-.4-1.3-.53-.47-1.47.65-.72,2.85-.13,2.88-1.07.02-.51-1.07-.14-1.04-.91.02-.46.59-.45.75-.62s.33-.94.28-1.2c-.11-.84-.24-.33-.02-1.35.22-1.02-1.45-1.47-2.19-1.73l.26-.51h1.83c.55.43,1.3.84,1.42,1.63.07.46-.12.74-.12,1.04.01.93.24,1.67-.36,2.6.65.7.32,1.51-.32,2.07-.67.61-1.39.34-2.2.35.55.61.75,1.2.51,2.01-.38,1.3-1.67,3.15-3.09,3.43-.97.18-.6-.05-1.47.48-.83.51-1.62.32-2.25.62-.04.03-.74.77-.74.83v5.8c.45-.32,1.16-.22,1.6-.4.11-.04.09-.25.16-.25.15,0,.37.14.64.14,1.34-.03,3.06-.64,4.57-.67.31,0,.54.15.85.14-.12-.59-.13-.99.33-1.43.35.11.34.35.77.4,1.61.18,3.23-.6,4.55-1.47,1.33-.88,2.96-2.34,3.09-4.01-1.19.03-3.55.92-4.42-.22-.27-.36-.48-1.17-.08-1.47,2.1-.95,5.03-2.47,5.4-4.96l-2.81.9c-.38-.01-.74-.72-.69-1.08l4.93-6.47h1.18c-1.09,2.35-2.87,4.28-4.43,6.32l1.46-.5.98-.6c1.03.11.68,1.38.49,2.08-.61,2.44-2.93,4.25-5.14,5.21-.02.23.45.14.59.13.59-.07,3.03-.67,3.33-.47.14.18.22.45.24.68.37,2.78-3.22,5.84-5.55,6.81-.27.12-1.72.53-1.74.62-.03.12.01.3.01.43,1.13.45,2.13-.37,3.2,0,.26.38-.77,1.57-.93,2.09-.07.23-.09.43-.07.66,1.26.13,1.78-1.22,2.73-1.77l.76.11c.36.43-.19,2.55-.37,3.15-.97,3.17-4.27,5.4-7.32,6.36-.7.22-1.46.28-2.13.48-.18.06-.23-.08-.18.26.74.11,1.51.21,2.26.12,1.03-.11,1.97-.73,2.99-.77l.2.57-.63,1.39c.95.13,1.64-.18,2.44-.63.55-.3,1.47-1.12,1.99-1.26.38-.1.72-.02,1.09-.09.72-.14,1.96-1.03,2.5-1.53.3-.28.25-.64.78-.66,1.35-.08.48,2.08.17,2.79-2.15,5.23-7.1,7.33-12.49,7.65-.09.47.3.13.59.12,1.04-.03,2.08-.06,3.12-.12l.27.11c.21.16.23.49.18.73-.1.57-2.24,2.19-2.73,2.68.45.03.87-.05,1.29-.2.62-.21,2.97-1.95,2.99-.52.01.78-1.22,2.46-1.82,3l-4.69,3.06c2.47.52,4.9-.48,6.84-1.96.48-.36.88-1.09,1.58-1.17.24-.02.43.53.46.73.03.45-.4,2.1-.02,2.35.52.22.85-.03,1.24-.34.98-.75,1.83-1.78,2.77-2.58.25-.07.55-.09.66.2.25.58.12,1.2.15,1.8.02.51.92-.07,1.11-.2.86-.62,1.66-1.54,2.36-2.33l.84.04.47.7,1.48-.11h.04ZM63.18,15.74c0-.27.18-.54.13-.84-.43-.08-.68.3-1.04.46-1.04.42-1.72.28-2.65-.32-.77.89-1.48,1.17-2.69,1.03-.1,1.48-1.42,2.18-2.81,1.69l-.2.07c-.34.7-.96.92-1.54,1.33l-.09,3.44.29.23c1.6-.04,3.19-.58,4.8-.75,1.84-.21,3.7-.02,5.53-.28.36-1.56.24-3.15.26-4.74.01-.45,0-.87.01-1.3M59.8,13.99l.38-.65h-.52l.14.65ZM50.41,22.72v-4.57c-1.23-.01-2.69-.83-2.48-2.22-.77.33-2.27-.98-2.58.1-.13.42-.05,1.9-.03,2.46,0,.27.13.53.13.77.03,1.5-.09,3.01.13,4.5.11.14,2.32-.79,2.71-.88.7-.15,1.4-.2,2.12-.16M44.02,24.27l-.39-2.27-.12-4.96c-.45-.89-1.31-.4-2.08-.3-.16,1.57-2,2.76-3.51,2.74-.5.92-1.24,2.07-2.37,2.2.16,1.16,2.22.12,2.61.32.34.22.23.61.36.95.29.7,1.04,1.1,1.78.95.24-.04.38-.28.65-.26.42.03.58.65.66.66l.64-.27c.29.79,1.11.11,1.76.26M41.03,24.99c-.35-.34-.85-.01-1.36-.08-.9-.11-1.71-.84-2.06-1.65-1.13.03-2.33.34-3.04-.8l-2.01.52v2.99c1.34-.11,2.92.16,4.22-.01.53-.07,1.27-.36,1.87-.47.34-.07,2.37-.18,2.38-.5M31.64,25.97l-.13-2.86c-1.83.13-4.37-.88-3.52-3.13-1.27.38-3.13.03-2.99-1.63.02-.29.26-.72.23-.89-.03-.18-.39-.5-.47-.83-.14-.74-.02-1.62.37-2.25-1.39-.43-1.69-1.97-1.21-3.22.2-.51.32-.84.48-1.35.36-1.05.76-1.61,1.76-2.14l-1.43-1.19-1.31-2.14-.91,2.35c.59-.01,1.11-.14,1.18.58.15,1.48-1.89,3.58-3.12,4.26.37,1.23.41,3.13-.47,4.15-.35.4-.71.53-1.1.85.08,1.07,1.01,1.84,1.74,2.53.39.38.9.43.71,1.16-.58.18-1.2.3-1.76.52-.12.04-.24-.07-.16.2.14.51.87,1.36,1.29,1.7.35.27,1.18.52,1.14,1.03-.09.77-1.62.45-2.19.8-.27.17-.42.52-.4.84,1.14-.14,1.65.95,2.54,1.29l9.71-.64h.02ZM18.68,24.15c.38-.47.78-.64,1.36-.79-1.03-1.23-2.76-3.19-.13-3.71-.48-.52-1.05-1.09-1.48-1.64-.18-.23-.7-1.22-.76-1.26-.04-.03-.61-.14-.67-.13-.76.75-1.52,1.48-2.68,1.15-.6,1.4-2.14,2.39-3.65,1.68l.27,3.24c.22.04.45-.01.67.04.68.16,2.08.58,2.7.83.56.22.87.86,1.27.95.55.12,1.3-.02,1.91.03.25.03.51.23.68.24.3.01.34-.42.5-.63M9.45,22.52l-.23-3.72-.66.35c.16,1.17.39,2.38.14,3.57,0,0,.75-.2.75-.2ZM8.05,22.72l-.15-3.5-.76-.15c-.27,1.3-2.41,1.35-3.5,1.45l-.09,1.82c.32.23.72.22,1.08.36.26.11.52.39.76.43.61.08,1.94-.5,2.67-.39M2.25,21.93c.24.03.18-.01.2-.2.01-.37-.01-.74,0-1.11l-2.22-.26c-.14.13.48.68.59.78.28.23,1.1.73,1.44.78"/>
        <path class="cls-11" d="M87.92,24.97c-2.18,1.09-4.35,3.26-7.61,3.26,4.35-6.53,4.35-15.23,7.61-22.84-.8,1.59-2.75,2.02-4.17,2.99-.98,1.72-2.79,3.02-4.54,3.78-.02.23.45.14.59.13.59-.07,3.03-.67,3.33-.47.14.18.22.45.24.67.37,2.79-3.22,5.84-5.55,6.81-.27.12-1.72.53-1.74.62-.03.12.01.3.01.43,1.13.45,2.13-.37,3.2,0,.26.38-.77,1.57-.93,2.09-.06.23-.09.43-.06.66,1.26.13,1.78-1.22,2.73-1.77l.76.11c.36.43-.18,2.56-.37,3.15-.97,3.18-4.27,5.41-7.32,6.36-.7.22-1.46.28-2.13.48-.18.05-.23-.08-.18.26.74.11,1.51.21,2.26.12,1.03-.11,1.97-.73,2.99-.77l.2.57-.63,1.39c.95.13,1.64-.18,2.44-.63.55-.3,1.47-1.12,1.99-1.26.38-.1.72-.02,1.09-.09.72-.14,1.96-1.03,2.5-1.53.3-.28.25-.64.78-.66,1.35-.08.48,2.08.17,2.79-2.15,5.23-7.1,7.33-12.49,7.65-.09.47.3.13.59.12,1.04-.03,2.08-.05,3.12-.12l.27.11c.21.16.23.49.18.73-.08.46-1.53,1.63-2.32,2.31,7-2.42,12.99-8.43,12.99-17.45"/>
        <path class="cls-10" d="M83.75,8.38c1.42-.96,3.37-1.4,4.17-2.99-3.26,7.61-3.26,16.31-7.61,22.84,3.26,0,5.44-2.17,7.61-3.26,0,9.02-5.99,15.03-12.99,17.45-.17.15-.32.28-.41.37.45.03.87-.05,1.29-.2.62-.21,2.97-1.95,2.99-.52.01.78-1.22,2.46-1.82,3l-4.69,3.06c2.47.52,4.9-.48,6.84-1.96.48-.36.88-1.09,1.58-1.17.24-.02.44.53.46.73.03.45-.4,2.1-.02,2.35.52.22.85-.03,1.24-.34.98-.75,1.83-1.78,2.77-2.58.25-.07.55-.09.66.2.25.58.12,1.2.15,1.8.02.51.93-.07,1.11-.2.86-.62,1.66-1.54,2.36-2.33l.84.04.47.7,1.48-.11v-6.39c-.84.96-1.78,2.19-3.23,1.73-.62-.2-.75-.6-.68-1.21-1.45.91-3.6,1.78-5.29,1.04-1.76-.77.78-1.91,1.41-2.38,1.94-1.41,3.06-2.96,4.2-5.06l.33.33c-.46,1.55-1.21,3.01-2.28,4.24-.58.66-1.31,1.17-1.89,1.82.95.05,1.88-.41,2.65-.94.53-.36,1.67-1.71,2.27-1.11.5.5-.5,1.66-.36,2.31,1.45.19,1.98-1.5,2.86-2.34v-15.77c-.55.08-.89-.28-1.24-.65-.74.79-2.16,2.28-3.35,1.66-1.04-.54.6-2.4.68-3.23l-1.99.37c-.76-.27-1.13-1.04-.72-1.77,3.06-1.09,5.03-3.43,6.61-6.16V-.35h-3.45c-1.46,2.66-2.9,5.37-4.64,7.88-.11.29-.24.58-.4.85"/>
        <path class="cls-11" d="M81.43,5.97l1.46-.5.98-.6c1.03.11.68,1.38.49,2.08-.05.2-.13.39-.2.58,1.74-2.51,3.17-5.22,4.63-7.88h-2.93c-1.09,2.35-2.87,4.27-4.43,6.32"/>
        <path class="cls-12" d="M92.24,37.31v1.57c-.84.96-1.78,2.19-3.23,1.73-.62-.2-.75-.6-.67-1.21-1.45.91-3.6,1.78-5.29,1.04-1.76-.77.78-1.91,1.41-2.38,1.94-1.41,3.06-2.96,4.2-5.06l.33.33c-.46,1.56-1.21,3.01-2.28,4.24-.58.66-1.3,1.17-1.89,1.82.95.05,1.88-.41,2.65-.93.53-.36,1.68-1.71,2.27-1.11.5.5-.5,1.66-.36,2.3,1.45.2,1.98-1.5,2.86-2.34"/>
        <path class="cls-12" d="M92.24,20.5v1.04c-.55.08-.89-.28-1.24-.65-.74.79-2.17,2.28-3.35,1.66-1.04-.54.6-2.4.68-3.23l-1.99.37c-.76-.27-1.13-1.04-.72-1.77,3.06-1.09,5.02-3.43,6.61-6.16v1.7l-2.01,2.87-2.02,1.62c-.14.46.64-.01.74-.03.2-.04.4-.04.61-.03.12.02.2.34.2.46-.01.33-.68,1.82-.87,2.24-.16.37-.38.72-.54,1.09.37.32,1.78-1.38,2.08-1.63s.82-.75,1.19-.52c.33.2.08,1,.64.98M87.81,18.41l.26-.26h-.26v.26Z"/>
        <path class="cls-11" d="M92.24,13.46v7.04c-.57.02-.32-.78-.64-.98-.37-.23-.88.27-1.18.52-.29.25-1.71,1.95-2.08,1.63.16-.37.38-.72.54-1.09.18-.42.86-1.91.87-2.24,0-.12-.08-.43-.19-.46-.21-.01-.41-.01-.61.03-.1.02-.88.49-.74.03l2.02-1.62,2.01-2.87h0Z"/>
        <path class="cls-12" d="M91.59,79.66c.12.6-.28.4-.65.34-1.16-.22-2.25-.73-3.38-1.05-3-.84-5.79-1.41-8.6-2.86-1.08-.56-2.07-1.29-3.17-1.78-1.55-.7-3.18-1.2-4.79-1.94-.41-.18-1.92-.68-2.09-.98-.12-.22.14-.21.3-.16,1.5.42,2.65,1.12,4.05,1.69,3.5,1.46,7.11,3.08,10.77,4.09,1.38.38,3.45.58,4.63,1.23.39.22.73.62,1.14.82.18.09,1.66.62,1.78.62"/>
        <path class="cls-12" d="M89.64,73.08c.64.21,1.71.84,1.55,1.63-1.01-.03-1.51-.92-2.64-.62-.42.11-1.5,1.37-1.5.05l.93-.86.09-.27c-1.48-.94-2.75-.44-4.18.26l.89.87v.61c-.48.8-.59-.07-1.02-.36-.66-.47-1.79-.46-2.47,0-.36.24-.49.8-1.01.41-.63-1.66,1.85-1.91,3.01-1.82.89-1.6,3.56-2.11,4.95-.87.25.23.47.75.61.83.2.12.52.04.78.13"/>
        <path class="cls-12" d="M91.14,61.15c.42.6-1.22.92-1.6,1.15-.43.26-.92,1.05-1.47.48-.12-.61,1.77-1.63,2.31-1.72.26-.04.54-.11.76.09"/>
        <path class="cls-12" d="M89.03,59.87c.55.19-.03,1.47-.17,1.29l-.07-.52-1.84,2.08c-.2.05-.37,0-.42-.21-.09-.26-.07-1.91-.15-2-.3-.07-.21.02-.29.16-.36.62-.58,1.36-.75,2.05l-.86-.5c-1.21.57-1.56-1.22-1.23-2.05.9-.31.71.35.99.85.12.22.51.6.71.79.11-.53,1.07-2.62,1.63-2.58l.33.29v1.89c.3.33,1.28-1.83,2.13-1.56"/>
        <polygon class="cls-6" points="88.08 18.15 87.81 18.41 87.81 18.15 88.08 18.15"/>
        <path class="cls-12" d="M86.61,53.5c.5-.1,1.24-.05.82.57-.73.34-1.52.48-2.21.91-.18.12-.5.68-.73.33-.5-.8,1.55-1.68,2.12-1.81"/>
        <path class="cls-12" d="M86.51,81.12c.28,0,.51.23.51.51s-.23.51-.51.51-.51-.23-.51-.51.23-.51.51-.51"/>
        <path class="cls-12" d="M85.64,52.58c.14.04.25.15.23.31l-.08.19c-.25.38-.73.33-1.07.49-1,.5-1.63,1.68-2.57,2.24l-.34-.33v-1.88l-.99,2.47c-.64.12-.71-.52-1.03-.91-.29-.36-.64-.55-1.04-.77-.33.71,1.02,1.25.11,1.81-.91-.76-1.66-.61-2.78-.71-.4-.29-.35-.71.09-.96.64-.37,1.35-.02,2,.12.01-.59-.86-.55-1.02-1.01v-.41c1.12-.41,2.54.3,3.31,1.15.15,0,.59-2.29,1.44-2.29l.46.28v2.15c.76-.74,2.1-2.32,3.3-1.94"/>
        <path class="cls-12" d="M82.18,69.54c1-.13,3.14.76,2.45,1.93-.32.52-.64-.6-.86-.72-.56-.2-1.14-.27-1.73-.17-.41.08-1.77,1.02-1.66.04.07-.53,1.33-1.02,1.81-1.08"/>
        <path class="cls-10" d="M84.68-.35l-4.93,6.47c-.05.36.3,1.07.68,1.08l2.81-.9c-.37,2.49-3.29,4.01-5.39,4.96-.4.29-.2,1.11.08,1.47.87,1.14,3.23.25,4.42.22-.13,1.67-1.76,3.13-3.09,4.01-1.32.87-2.94,1.65-4.55,1.47-.43-.05-.42-.29-.77-.4-.46.45-.45.85-.33,1.44-.3.01-.54-.14-.85-.14-1.51.03-3.23.64-4.57.67-.27,0-.49-.14-.64-.14-.08,0-.05.21-.16.25-.44.18-1.15.09-1.6.4v-5.8c0-.05.7-.79.74-.83.63-.3,1.43-.11,2.25-.62.87-.53.5-.29,1.47-.48,1.41-.27,2.71-2.12,3.09-3.43.24-.82.04-1.4-.51-2.01.81-.01,1.52.26,2.2-.35.63-.55.97-1.37.32-2.07.6-.92.37-1.66.36-2.6,0-.3.18-.59.12-1.04-.12-.79-.87-1.2-1.42-1.63h10.29-.02Z"/>
        <path class="cls-12" d="M84.28,79.75l-.04.45-1.64.2c-.32-.34-.04-.97.36-1.09.46-.14,1.09.01,1.33.45"/>
        <path class="cls-12" d="M83.88,65.17c.05.24.09.9-.29.82-.39-.49-.66-.61-1.31-.51-.56.09-1.13.86-1.43.77-.32-.09-.22-.77-.03-1,.57-.71,2.79-1.28,3.07-.08"/>
        <path class="cls-12" d="M80.24,81.24l-.05.39c-.4.55-1.83.1-1.24-.47.47-.38.82-.09,1.29.08"/>
        <path class="cls-12" d="M79.03,60.89c.35.57-.99.78-1.38.98-.6.3-.97.9-1.61.98-.47-.12-.08-1.57-.15-1.95-.61.38-1.09,1.94-1.81,1.83l-.47-2.47c-.07.61-.54,1.38-.6,1.94-.03.3.22.82-.05.99l-.91.05c.22-.54-.78-1.82-1.24-1.82l-.07.13v.25h-.26c-.23-.33-.53-.54-.77-.86l.17-.45c.39-.3,1.27-.08,1.69.16l.87.63c.09-.57.78-2.42,1.37-2.49,1.2-.11.05,2.5.65,2.49.24-.34.48-.64.77-.91.39-.37.9-.85,1.45-.79.7.08-.21,1.55-.21,1.97.07.07,1.13-.6,1.35-.68.33-.11.97-.36,1.21.02"/>
        <path class="cls-12" d="M76.83,70.57c.85-.13,2.15.36,1.79,1.41l-.34.07c-.5-.47-1.11-.65-1.78-.37-.25.12-1.11,1.09-1.21.1-.07-.66.99-1.12,1.53-1.21"/>
        <path class="cls-12" d="M74.92,70.03c-.22-1.4,2.77-1.99,2.6-.26-.34.05-.62-.23-.96-.23-.58.02-1.06.55-1.64.49"/>
        <path class="cls-12" d="M75.3,24.61c.05.23-1.03.74-1.28.91-.35.24-.75.96-1.28.41-.14-.13-.19-.47-.15-.65.13-.48,2.31-1.25,2.72-.67"/>
        <path class="cls-12" d="M75.17,77.25c.74.61-.2,1.28-.83.84-.48-.33,0-.79.4-.88.15-.02.29-.04.42.04"/>
        <path class="cls-5" d="M66.21,9.61c-.15-.19-.19-.4.04-.58l.33.14c1.08-1.48,1.5-3.48.68-5.94-.57-1.14.35-2.28,1.2-3.57h-11.27c0,.3-.06.63-.2.91-.61,1.3-1.64-.08-2.41.97-.05.26.1.2.26.26.54.21,1.18.13,1.28.89-.35.45-.86.73-.76,1.39.42-.03.97-.07,1.04.46.11.73-.54.55-.79.9-.48.65.36,1.49.97,1.63.45.91-1.11.72-.97,1.62,1,.38,1.03,1,.78,1.95.46.14.14.54.39.8.95.53,1.99-.23,3-.07l-.07.72c2.3.18,4.9-.7,6.49-2.48M61.62,2.33c1.21-.85.28,1.69.51,1.88l1.16.27-.11.68c-.2.3-1.31.29-1.62.07-.88-.62-.79-2.31.05-2.9M59.73,10.06c-1.09-.16-1.29-1.39-1.26-2.32-1.99-.51-1.08-3.21.66-3.14.26.26-1.2,1.64-.45,2.09.3-.21.85-.44,1.11-.04.29.45-.43,1.63-.08,2.26.84.48,1.5-.78,2.02.45l.33.08,1.37-.53c.06.75-.69,1.75-1.47,1.67-.51-.05-.91-.57-1.09-.6-.2-.04-.73.15-1.15.09"/>
        <path class="cls-11" d="M74.52,5.97c.02-.51-1.07-.14-1.04-.91.02-.46.59-.45.75-.62s.33-.93.28-1.2c-.11-.84-.24-.33-.02-1.35.22-1.02-1.45-1.47-2.19-1.73l.27-.51h-4.11c-.85,1.29-1.76,2.43-1.2,3.57.82,2.47.4,4.47-.68,5.95l.56.23,1.25-.89c.21.77-.75,1.69-1.47,1.54-.22-.04-.54-.22-.72-.44-1.59,1.79-4.19,2.66-6.49,2.49l-.06.59c1.75-.22,1.72.61.91,1.83.47.11.93.09,1.36-.15.39-.23.55-.87.93-.9.43-.04.51.41.79.5.49.15,1.46-.07,1.83-.4.33-.29.78-1.96,1.41-1.4l.4.52c.77.51,1.13-.49,1.58-.62.39-.12.84.08,1.31-.12.22-.09,1-.75,1.13-.96.36-.54,0-.75.1-1.34.12-.36,1.1-.26.7-1.13-.19-.4-1.3-.53-.47-1.47.65-.72,2.85-.13,2.88-1.07"/>
        <path class="cls-12" d="M73.06,89.47c.47.63.24,1.2-.32,1.65-.46-.08-.47-.52-.43-.9l-1.7.26c.09-1.21,1.49-1.66,2.45-1.01"/>
        <path class="cls-12" d="M71.52,63.11c.05.12.49.65.06.65h-1.96c-.14,0-.54.37-.78-.13-.48-.97,1.88-.52,2.28-.52.13,0,.26,0,.39,0"/>
        <path class="cls-6" d="M71.52,63.11c-.13,0-.26,0-.39,0-.14-.39-.41-.96-.65-1.29h.25v-.26c.29.5.53,1.04.79,1.55"/>
        <path class="cls-12" d="M71.26,26.3c.3.15.4.7.04.83-.51.13-1.01.28-1.51.45-.31.1-1.1.63-1.38.21-.05-.08-.04-.32-.02-.42.16-.76,2.24-1.37,2.87-1.06"/>
        <path class="cls-12" d="M70.61,74.72c.26,0,.48.22.48.48s-.22.48-.48.48-.48-.22-.48-.48.22-.48.48-.48"/>
        <path class="cls-12" d="M68.98,86.98c.58,0,1.34.72,1.04,1.28l-.27.26-.66-.5-.95.1c-.39-.58.25-1.14.84-1.14"/>
        <path class="cls-12" d="M68.39,8.5c.21.77-.75,1.69-1.47,1.54-.4-.08-1.19-.63-.68-1.02l.89.37,1.25-.89h.01Z"/>
        <path class="cls-12" d="M67.94,39.39l-.07.34-1.9.58c-.73-.03-.42-.5.02-.76.24-.13.94-.36,1.2-.38.26-.02.53.08.75.23"/>
        <path class="cls-12" d="M65.37,41.25c.76-.34,1.65-.24,1.59.75-.85-.18-1.45-.04-2.27.13-.47-.04.49-.79.69-.88"/>
        <path class="cls-12" d="M65.41,58.22c.51.27,1.45.28,1.41,1.12-.92-.28-1.33-.76-2.33-.32-.35.16-.8.79-1.12.71-.12-.03-.26-.26-.14-.4.24-.41.61-.84,1.12-.9-.98-1.3-2.21-.99-3.45-.26-.79-1.08,1.07-1.75,1.95-1.7,1.57.12,1.52,1.2,2.56,1.75"/>
        <path class="cls-12" d="M65.22,37.34c.25-.04,1.44-.16,1.34.31-.02.15-1.59.41-1.87.58l-.22-.33.06-.2c.07-.09.56-.33.69-.36"/>
        <path class="cls-12" d="M66.82,54.77c-1.03-.26-1.81-.06-2.73.4-.07-1.32,2.44-1.73,2.73-.4"/>
        <path class="cls-12" d="M63.04,34.11c.49-.67,3.16-.66,3.14.6-.62.33-1.15-.15-1.76-.14-.55.02-1.84.84-1.38-.46"/>
        <path class="cls-12" d="M64.62,68.85v.39c-.26.33-2.71-1.49-3-1.76-.97-.88-1.14-1.27-2.34-2.1-2.32-1.59-6.13-4.7-7.37-7.21-.75-1.52-.67-3.76.35-5.13.94-1.25,1.26-1.39,2.46-2.17-.03.28,0,.29.26.26.07,0,.14-.1.29-.09.53.03,1.73.32,1.66,1-.39.09-.66-.21-.99-.25-.81-.13-2.21.23-2.27,1.16.54.08,1.27.42,1.57.91-.67-.15-1.27-.2-1.95,0l-.14,1.41c.52-.02.94-.03,1.4.23.16.09.16.24.26.29.32.21.95.27.95.78-.38-.05-.61-.39-1.01-.49-.23-.05-1.32-.16-1.46,0-.22,1.96,1,1.49,2.13,1.95.5.21.85.75,1.25,1.1.17.4-.78-.07-.98-.08-.46,0-1,.26-1.5.14-.28.26,1.18,3,1.89,2.99.64-.36,1.33-.2,2.02-.38.32-.09.36-.26.39-.26.97-.36,2.07.63,2.86,1.04,0,.08-.02.18,0,.26-.08-.02-.2.02-.26,0,0,0,0-.11-.13-.13-.5-.1-1.75-.53-2.01-.52-.41.02-.95.39-1.34.49-.18.04-.97-.08-.82.22,1.14,1.13,2.75,1.7,4.02,2.62.52.37,1.01.95,1.51,1.36.79.65,1.68,1.07,2.28,1.96"/>
        <path class="cls-12" d="M62.79,45.26c1.23-.23,1.87.85,1.44,1.95-.6,0-.4-.86-.59-1.16l-.77-.38-.08-.4h0Z"/>
        <path class="cls-12" d="M64.2,31.98c.05.08,0,.26.02.37-.79.03-1.57-.14-2.29.27-.82.08-.38-.91.41-1.04.35-.05,1.71.15,1.86.4"/>
        <path class="cls-12" d="M63.82,24.94c.05.1.01.31,0,.44-.12.33-.97.37-1.29.34l.12-.85c.21-.14,1.1-.04,1.18.08"/>
        <path class="cls-12" d="M63.44,8.89c.06.75-.69,1.75-1.47,1.68-.51-.05-.91-.57-1.09-.6-.2-.04-.73.15-1.15.09-1.09-.16-1.29-1.39-1.26-2.32-1.99-.51-1.08-3.21.66-3.14.26.26-1.2,1.64-.45,2.09.3-.21.85-.43,1.11-.04.29.45-.43,1.63-.08,2.26.84.48,1.5-.78,2.02.45l.33.08,1.37-.53v-.02Z"/>
        <path class="cls-10" d="M63.31,14.9c.05.29-.13.57-.13.84v1.31c-.02,1.59.1,3.19-.26,4.74-1.83.26-3.69.08-5.52.28-1.61.17-3.2.71-4.8.75l-.29-.23.09-3.44c.59-.4,1.21-.63,1.54-1.33l.2-.07c1.38.49,2.71-.21,2.81-1.68,1.21.14,1.91-.14,2.69-1.03.94.6,1.61.74,2.65.32.36-.15.61-.53,1.04-.46"/>
        <path class="cls-12" d="M63.3,4.48l-.11.69c-.2.3-1.3.29-1.62.06-.88-.62-.79-2.3.05-2.9,1.21-.85.28,1.68.51,1.88l1.16.27h0Z"/>
        <path class="cls-12" d="M62.14,63.24c-.27.03-.7-.11-.78-.38-.02-.08,0-.18,0-.26.33.16.66.11.78.64"/>
        <path class="cls-12" d="M61.66,30.17l.22.5c-1.03-.05-1.84-.04-2.78.4-.46.21-1.13,1.02-1.35.16,0-.73,1.66-1.15,2.26-1.21.59-.05,1.08.03,1.65.14"/>
        <path class="cls-12" d="M59.83,59.24c.51.11,1.97.81,1.65,1.53-.91-.16-1.23-.84-2.27-.78-.25,0-.88.33-.84-.17.05-.61.97-.68,1.46-.58"/>
        <path class="cls-12" d="M61.09,62.86l-.13-.13c.12.02.12.12.13.13"/>
        <polygon class="cls-9" points="60.18 13.33 59.8 13.99 59.66 13.33 60.18 13.33"/>
        <path class="cls-12" d="M60.05,57.12c-.08.09-1.07-.5-1.38-.51-.48-.02-1.07.68-1.48.18.75-1.17,2.64-1.17,2.86.33"/>
        <path class="cls-11" d="M58.87,12.42c-2.13,1.34-2.69.08-3.25-1.76-.05-.18-.24-.33-.26-.53-.03-.2.13-.49.06-.58-.06-.1-.33-.18-.46-.32-.46-.48-.06-1.15.11-1.68-.83-.82-.96-1.7-.75-2.82h.38c-.44-.52-.29-1.11-.1-1.69-2.37,1.57-4.29,3.9-6.93,1.27.93,5.56-2.89,11.11-8.08,11.28.07.03.15.05.21.07.26.05,1.15.15,1.39.15.86-.02,1.99-1.04,2.33-.02.85.35,1.52-1.1,2.02-1.25.85-.26,1.37.66,2.37.29.31-.11.65-.66.97-.58.78.61-.35,1.65.21,2.41.55.77,1.58.22,2,.34.47.12.22,1.04.91.99.98-.04,1.08-1.42,1.65-1.61.53-.16.77.42,1.25.47,1.46.15.33-1.79,1.36-2.27.65-.3.6.36.91.52.58.3,1.59-.37,1.66-.95.04-.24-.13-.49-.12-.75.02-.37.4-.53.14-.98"/>
        <path class="cls-5" d="M47.68,4.31c2.64,2.64,4.56.3,6.93-1.26.04-.11.07-.22.11-.32-2-.83-.65-2.85,1.03-2.56l-.39-.52h-8.86l.13.38c-.11.11-1.15-.21-1.3-.38h-1.7c-.2.51-.7.75-1.01,1.25-.61.97-.82,2.32-.27,3.35.17.33.63.53.49,1.03-.11.39-.59.33-.86.46-.38.18-1.36,1.4-1.45,1.82-.24,1.13,1.09,1.04.87,2.11-1.16.28-2.27-.03-3.31.79-.66.53-.82,1.56-.25,2.22.34.39.8.18,1.09.61.16.5-.4.62-.49.91-.16.56.61,1.17,1.16,1.38,5.19-.17,9.01-5.72,8.08-11.28"/>
        <path class="cls-12" d="M58.49,26.88c.16.21,0,.24-.21.26-1.28.1-2.26.36-3.31,1.12-.53.39-1.21,1.35-1.96,1.23h0s-.1-.04-.15-.07c-.21-.14-.1-.5.08-.73.21-.25,2.33-1.41,2.73-1.58.85-.35,1.98-.7,2.83-.24"/>
        <path class="cls-12" d="M58.49,61.56s-.08.17-.39.26c-.39-1.22-2.02-.72-2.79-.93-.07-.02-.26-.15-.14-.24.54-.95,3.06-.16,3.33.91"/>
        <path class="cls-12" d="M54.45,26.04c.38-.08.93.03.45.32-.29.16-.66.16-.97.27v-.26h-.26c.21-.08.38-.26.78-.33"/>
        <path class="cls-12" d="M54.97,50.86v.26c-.27.03-.29.02-.26-.26h.26Z"/>
        <path class="cls-12" d="M52.86,29.43s.11.04.15.07c-.07-.01-.11-.03-.15-.07"/>
        <path class="cls-12" d="M51.93,86.87c.27.32.15.78.03,1.13-.55.1-.74-.5-1.23-.53-.52-.02-.9.33-1.37.4-.21-1.26,1.81-1.86,2.57-1"/>
        <path class="cls-12" d="M51.02,40.18c.4-.1.95.63.57.98-.23.29-.53.47-.86.2-.25-.21-.24-.49-.09-.75l.38-.42h0Z"/>
        <path class="cls-12" d="M51.41,89.47c.54,1.33-.72.63-1.18.77-.29.09-.42.63-.87.5-.13-.9.56-1.41,1.37-1.56l.67.28h.01Z"/>
        <path class="cls-10" d="M50.41,18.15v4.57c-.72-.03-1.43.01-2.12.16-.39.09-2.6,1.02-2.71.88-.22-1.49-.1-3-.13-4.5,0-.24-.13-.5-.13-.77-.02-.55-.1-2.03.03-2.46.3-1.08,1.8.23,2.58-.1-.21,1.39,1.25,2.21,2.48,2.22"/>
        <path class="cls-12" d="M48.52,83.58c.15.36.14,1.2-.38,1.03-.61-1.34-1.64.32-2.18-.05-.7-.48.82-1.54,1.41-1.61.37-.03.99.3,1.14.63"/>
        <path class="cls-12" d="M47.23,88.53c.06.29-.13.7-.47.65l-.12-.57c-.74-.54-1.21-.03-1.64.57-.88-.36.22-1.42.82-1.54.57-.1,1.27.33,1.41.89"/>
        <path class="cls-12" d="M46.46,45.02c.74-.14.49,1.26-.28,1.01-.25-.09-.24-.47-.18-.68.05-.16.32-.3.47-.33"/>
        <path class="cls-12" d="M46.5-.35l.13.38c-.11.11-1.15-.21-1.3-.38h1.18-.01Z"/>
        <path class="cls-12" d="M44.08,49.3c.35-.68,1.01.09.71.51-.22.29-.97,0-.71-.51"/>
        <path class="cls-10" d="M43.63,22l.39,2.27c-.65-.15-1.47.53-1.76-.26l-.64.27c-.09-.01-.24-.63-.66-.66-.27-.02-.41.22-.65.26-.74.15-1.49-.25-1.78-.95-.13-.34-.02-.73-.36-.95-.39-.2-2.45.85-2.61-.32,1.13-.13,1.87-1.27,2.37-2.2,1.51.02,3.35-1.18,3.51-2.74.77-.1,1.63-.59,2.08.3l.12,4.96v.02Z"/>
        <path class="cls-12" d="M43.35,83.93l-.12.57c-.24.03-.47-.14-.71-.13-.26.01-.52.33-.77.25-.62-.17.31-1.27,1.02-1.16l.58.48h0Z"/>
        <path class="cls-12" d="M42.37,52.84c.25,0,.45.21.45.46s-.2.46-.45.46-.46-.21-.46-.46.21-.46.46-.46"/>
        <path class="cls-5" d="M25.83,16.08c0,.58.48.73.48,1.22,0,.52-.99,1.36.04,1.77,1.16.47,2.82-.86,3.33-.6.91.46-.64,1.64-.76,2.25-.2,1.01,1.97,1.44,2.72,1.34l-.07-4.08c-1.72.35-3.63-.14-5.74-1.9"/>
        <path class="cls-11" d="M37.4,14.67c-.07-.38.11-.7.08-.87-.02-.08-.09-.15-.18-.23-1.42,1.9-3.04,3.49-4.88,4.16l.13,4,.21.32c.39-.1.79-.18,1.14-.4s.75-.85,1-.97c.24-.11.57.25,1.16-.13.72-.46.89-1.45,1.31-2.08.32-.17.61.05.93.01.67-.1,1.99-.97,1.95-1.76-1.1-.2-2.63-.8-2.84-2.06"/>
        <path class="cls-5" d="M37.3,13.57c-.09-.08-.2-.16-.25-.25-1.41-2.37.13-4.33,2.66-4.43.05-.35-.24-.65-.25-.98-.05-1.09,1.23-2.4,1.93-3.14-.73-1.67-.53-3.8.8-5.12h-11.08c-.41.95.54,1.29.65,2.13-.1.35-2.14.32-2.34,1.59-.21,1.32,1,1.45.74,2.96-.17,1.04-.71,1.12-1.27,1.72-.18.21-.28.58-.48.73-.7.52-1.65-.01-2.26.45-.68.5-.51,1.05-.67,1.66-.17.65-.93.78-.57,1.94.4,1.26,2.29.05,2.43.97.12.85-1.1.91-1.4,1.73-.09.23-.11.41-.11.56,2.11,1.77,4.02,2.25,5.74,1.9l-.06-3.47c-1.64.42-2.86-.67-2.47-2.34l.59.11c.06.61.12,1.23.77,1.45.45.08,1.15-.18,1.5-.47.26-.22.34-.63.75-.68.39-.07.72.22.7.62h.42c.39-.14.75-1.74.99-1.88.24-.15.4-.08.5.16.59,1.42-1.18,3.73-2.71,2.44l-.25.15.12,3.67c1.84-.68,3.46-2.27,4.88-4.16"/>
        <path class="cls-12" d="M41.24,50.11c.18-.02.61.2.57.42l-.71.43-.33-.54c.03-.14.33-.3.47-.32"/>
        <path class="cls-12" d="M41.03,46.31c.03.36,0,.71-.46.64l-.2-.64h.66Z"/>
        <path class="cls-6" d="M39.67,24.91c.51.07,1.01-.26,1.36.08,0,.32-2.04.43-2.38.5-.6.11-1.34.4-1.87.47-1.31.17-2.88-.1-4.22.01v-2.99l2.01-.52c.72,1.14,1.91.84,3.04.8.35.82,1.15,1.54,2.06,1.65"/>
        <path class="cls-5" d="M40.31,35.36c.54,1.81.11,4.51-1.37,5.8-.83.74-3.62,2.22-4.73,2.83-1.71.93-3.5,1.74-5.27,2.57h-.33c-.99-.98-2.63-.83-3.67,0-.47-.43-.8-.9-1.48-1.01-.71.03-1.62.27-1.47,1.15.36.03.65-.22.99-.26.98-.11,1.42.53,2.21.91.83-.27,1.51-.83,2.4-.34-6.38,3.15-12.58,6.74-17.66,11.8h-.18c.02-.72-1.51-.91-1.68-1.07-.07-.08-.05-.41-.22-.62-.77-.98-2.78-.88-3.45.21l.34.43c.81-.64,1.97-.84,2.65.07-.75.13-1.92.72-1.57,1.63l-.82.14c-.18-.42-.83-.66-1.44-.64l-.02-.41s.07,0,.1,0c.2-.05.38-.27.3-.51-.24-.75-1.67-.47-2.29-.52l.76-1.13-.57-.57c-1.04.11-1.97.57-2.81,1.14,0,.05,0,.1-.02.14l-.75-.16c.2-.75.34-1.47,1.16-1.76l.07.51c.3-.34.48-.98.21-1.37-.66-.45-1.7.98-2.1,1.37v-5.86l.38.58.32.05c.52-.4.89-1,1.59-1.15.46.09-.26,1.22-.21,1.5l.34.33c.73.11,1.57-.62,2.22-.13.51.07.79-.75.4-1.05-.6-.47-2.06.34-2.29.14.83-1.61-.86-1.75-1.83-.78,0-.58-.22-1.39-.91-1.43v-3.25c.26.2.67.15.87.23C-.76,45.18,0,45.46.7,45.8c.33.16,1.26.51,1.2-.15-.01-.18-.9-1.28-1.09-1.65-.45-.91-.65-1.99-.78-2.99.89.68,2.87,1.67,3.99,1.37.26-.08.23-.28.34-.34.25-.13.58-.15.82-.33l.13-.38c-.7-.49-1.5-.8-2.14-1.38-.11-.09-.61-.52-.46-.64.49-.03,1.01.04,1.49,0,1.16-.1,5.57-.96,6.32-1.63.24-.21.21-.38.27-.44.1-.12.25-.26.36-.39.61-.12,1.28-.2,1.91-.13.71.07,1.36.38,1.89.78.21.15.33.47.7.67.54.33,1.32.33,1.77.7.73.58,1.52,1.59,2.36,2.2.57.41,1.03.56,1.74.46.75-.1,2.24-.76,2.88-.75.33,0,1.11.58,1.41.78.1.08.95.96,1,.57.01-.03.01-.07.01-.1l.9.07v.16c.28.77,1.34,0,1.91-.02.27,0,.53.13.88.09.68-.09.7-.62.78-1.17.24-.37,1.38.03,1.7,0,.21,0,.45-.27.69-.36.82-.3,1.52-.18,2.31.1l.21-.45c-.03-.65-.81-.87-1.57-.87l1.22-1.07c.29.39,1.86,0,1.91-.15.02-.55-.57-.63-1.01-.59l.03-.91c.4-.08.78-.47,1.19-.52.55-.07.84.32,1.36.26l.07-.4c-.26-.53-.99-.73-1.65-.64l-.07-.58c.32-.1.68-.32.82-.34.66-.07,1.23.55,1.82.78M28.37,44.7l-.54-.64c-.73-.32-1.91.03-2.38.68l.08.39c.95-.47,1.57-.57,2.52-.02l.33-.41h0ZM17.7,48.39c.1-.54-.47-.63-.71-.91-.39-.46-.48-1.38-1.24-1.63-.79-.25-1.51.1-2.26.18-.96-.99-1.5-1.73-2.94-2.03-.86-.18-2.58-.3-3.48-.3-.47,0-.9.26-1.37.27.02.11-.03.33.01.38.03.05,1.08.34,1.26.37,1.34.25,3.47-.08,4.54.68.39.28.98,1.2,1.26,1.34.68.33,1.71-.24,2.49,0,.61.17,1.15,2.32,2.44,1.66M14.43,53.08l1.3-.13c-.05-1.12-1.39-.92-1.3.13M13.37,52.99c.46-1.49-2.7-.71-2.45.62.83-.05,1.29-.93,2.13-.27l.32-.35ZM11.89,56.34c.74-1.1-.74-1.51-1.6-1.58-.23-1.67-2.98-2.02-3.81-.71-.13.2-.31.79.07.73.29-.05.59-.49.98-.6.85-.23,1.44,0,1.96.66-.75.3-1.44.7-1.31,1.62.68.08.93-.58,1.62-.65.95-.1,1.33.04,2.09.52M9.33,49.08l-.14-.4c-.58-.29-1.21-.35-1.85-.27-.18.02-1.37.28-1.12.63.61.25,1.26.07,1.88.14.48.07.91.54,1.23-.1M7.18,48.25s.49-.43.33-.55c-.3-.85-1.98-.55-2.59-.23.02-.37.41-.43.41-.84-.01-1.1-2.03-.85-2.48-.12l.11.38,1.7-.33-.26,1.35c0,.16.2.05.26.08.15.07.15.13.39.13.04,0,.09,0,.13,0,.45,0,.9-.22,1.38-.13.26.02.11.39.62.26M4.65,52.74c.05-1.66-2.19-.95-3.24-.96-.14,1.03,1.29.84,1.99.93.29.04,1.08.53,1.25.02"/>
        <path class="cls-12" d="M40.48,52.39c.15.62-.17.79-.75.67l-.09-.5.52-.52s.32.35.32.35Z"/>
        <path class="cls-12" d="M38.89,80.62c.46-.01,1.23.52.9,1.01-.28.41-.82-.26-1.15-.12l-1.21.76c-.37-.26-.12-.59.06-.85.3-.41.87-.79,1.39-.81"/>
        <path class="cls-12" d="M39.39,36.13l-.07.4c-.52.05-.81-.33-1.36-.26-.4.05-.78.45-1.18.52-.48-.09-.34-.49-.12-.78.22-.29.63-.48,1.08-.52.66-.09,1.39.11,1.65.64"/>
        <path class="cls-5" d="M39.2,33.92c-.15-1.01-.59-1.33-1.62-1.16-.44.08-1.22.76-1.38.05l.78-.58c-.4-.29-2.99-.1-2.99.32.35.19.79.64.31.97-.63.04-1.29-.39-1.83.13-.41.1-.4-.74.03-1.01,1.24-.25,1.9-1.52,3.31-1.33-.02-.16-.79-.51-.84-.51h-2.28l.21-.51,1.36-.4c.09-.35-.3-.32-.49-.5-.49.23-.98.54-1.52.65-.4.08-.66-.05-.99.03-.46.12-.98.61-1.53.7-.42.07-1.09.07-.95-.49.78-.01,1.5-.8,2.25-.96.46-.1,1.13.11,1.66-.09-.1-.27-.39-.4-.64-.47-.49-.12-2.31-.13-2.78-.03-.4.09-.88.54-1.39.51.18,1.37-1.11,1.3-2,.75-.27-.17-.43-.46-.67-.63-.31-.22-1.46-.91-1.57-1.04-.41-.49.58-.05.69-.03.27.05.54.02.83.09.37.1.79.44,1.11.47.21.02,1.24-.13,1.49-.18.72-.16,1.54-.7,2.34-.73.02-.18-.3-.22-.46-.26-1.75-.6-4.43-.74-6.22-.23-.23.07-.35.29-.68.35-1.51.24-2.27-.97-3.07-2.01-.36-.17-.87.03-1.22-.09-.17-.05-.17-.28-.3-.37-.7-.49-2.12-.12-2.94-.28-.33-.08-.77-.41-1.16-.53-1.14-.35-2.2-.54-3.25-.64,2.29.77,4.49,1.88,6.46,3.28-3.26,0-6.53-2.18-9.79-1.09,2.95,0,5.45.89,7.61,2.27.32-.1.63-.16.88-.15.71.02,2.49,1.12,2.41,1.9l-.21.33c-.34.09-.98-.78-1.34-1-.19-.11-.37-.18-.54-.23,2.07,1.58,3.81,3.58,5.31,5.58-3.59-2.87-7.66-4.32-11.89-4.66-.07.16-.23.24-.51.15-.1-.03-.18-.12-.25-.21-1.41-.07-2.84-.02-4.26.14.16.19.32.38.51.54.71.6,2.01,1.1,2.6,1.7.15.16.28.35.27.58l-.52.13.13.52c-.73.02-1.4.2-2.15.14-.47-.03-.9-.24-1.36-.21.38.54.97,1.25,1.57,1.55.42.21,1.85.6,2.27.6h3.13c.32,0,.09.6-.07.78.89-.27,2.09-.71,2.98-.18.25.14.78.76.92.84.48.25,1.72.2,2.27.27.97.13,1.96,1.45,2.75,2.07.28.23.78.68,1.1.73,1.15-.14,2.87-.86,3.98-.47.65.23,1.89,1.37,1.77,2.19l.9.07c.18-.77,2.12-1.11,2.73-.82.02-.7.55-1.17,1.24-1.19.32,0,.65.16.88.12.24-.03.49-.33.75-.43.29-.12.79-.21,1.29-.21l1.22-1.07s-.04-.1-.04-.15c0-.33.48-.51.75-.55.05,0,.12-.02.2-.03l.03-.91c-.48-.09-.34-.49-.12-.78.22-.29.63-.48,1.08-.52l-.07-.58c-.27.1-.51.11-.57-.14-.13-.69,1.53-1.27,2.09-.85M20.56,32.3l-.11-.38c.08-.27.72-.52.99-.58.39-.07,1.05-.1,1.39.12.49.32.4,1.27.08,1.09-.78-.85-1.47-.09-2.35-.25M28.83,36.92c-.78-1.1-2.61-1.33-3.56-.33.26.46.81,1.14.29,1.63-.46.11-.98-.96-1.37-1.23-1.6-1.13-3.37.14-4.99.43-.43-.21.02-.59-.14-.9-.72-.71-1.23-1.41-2.35-1.3-.57.05-1.25.58-1.76.07,1.48-2.32,3.97-1.11,4.7,1.11,1.78-.61,3.39-1.22,5.21-.26,0-.61.55-.62.91-.98-.73-1.28-2.17-1.25-3.45-.86-.54-.52-.04-.82.52-.89.81-.1,2.39-.04,3.01.55.25.25.47.77.43,1.13,1.01-.08,2,.11,2.74.84.23.22.19,1.08-.21.99M32.16,36.79c-.14-.37-.14-.65.21-.9.47-.38,1.74-.02,1.75.58.02.63-1.52,0-1.96.33M34.64,34.9c-.31-.21,0-.46.22-.56,1.52-.06.97,1.1-.22.56"/>
        <path class="cls-1" d="M8.93,30.05c-.11-.12-.22-.26-.42-.29-.43-.08-.71.09-1.07.12-1.19.1-.18-1.15.71-1.27.63-.09,1.49.26,1.59.97.03.21.02.4-.04.53,4.23.34,8.3,1.78,11.89,4.66-1.5-2-3.24-4-5.31-5.58-1.04-.29-1.75.5-2.88.58.08-.68.9-1.19,1.66-1.43-2.16-1.38-4.66-2.27-7.61-2.27,3.26-1.09,6.52,1.09,9.79,1.09-1.97-1.41-4.16-2.52-6.46-3.28-1.57-.15-3.12-.07-4.88.03-.35.12-.49.4-.85.59-.61.3-1.33.27-1.95.51.32.54.86,1.01,1.38,1.35.91.58,2.39.82,3.09,1.34.17.13.27.17.21.42-.13.47-1.96.98-2.41.99-.59,0-1.19-.49-1.74-.32.37.45.67.96,1.04,1.42,1.43-.16,2.85-.21,4.26-.14"/>
        <path class="cls-12" d="M36.75,37.7c.45-.04,1.03.03,1.01.59-.05.15-1.62.54-1.91.15-.02-.04-.04-.1-.04-.15,0-.33.48-.51.75-.55.06,0,.12-.02.2-.03"/>
        <path class="cls-12" d="M37.76,53.06c0,.21-.16.37-.37.37s-.37-.16-.37-.37.16-.37.37-.37.37.16.37.37"/>
        <path class="cls-12" d="M35.83,56.59c-.59-1.01,1.34-1.97,1.09-.51-.26.33-.64.61-1.09.51"/>
        <path class="cls-12" d="M36.2,40.38l-.21.45c-.78-.28-1.49-.4-2.31-.1-.24.09-.48.35-.68.36-.32.03-1.46-.37-1.7,0-.09.55-.1,1.09-.78,1.17-.35.04-.61-.1-.88-.09-.58.02-1.63.79-1.91.02,0-.05,0-.11.01-.16.18-.77,2.12-1.11,2.73-.82.02-.7.56-1.17,1.24-1.18.32,0,.65.16.88.12.24-.03.49-.33.75-.43.29-.12.79-.21,1.29-.21.76,0,1.53.22,1.57.87"/>
        <path class="cls-12" d="M34.86,34.33c1.52-.05.97,1.1-.22.57-.3-.21,0-.46.22-.57"/>
        <path class="cls-12" d="M34.35,62.75c.63-.1,1.33.14,1.01.89-.14.21-1.34.18-1.58,0-.46-.35.1-.83.57-.89"/>
        <path class="cls-12" d="M35.15,72.11c-.35.02-.72-.04-1.08.03-.22.04-1.03.66-1.13.16-.16-.79,2.19-1.6,2.21-.2"/>
        <path class="cls-12" d="M34.9,66.77c.16.45-.74,1.03-.99.65-.38-.58.52-.96.99-.65"/>
        <path class="cls-12" d="M34.64,80.78c.04.28-.05.91-.4.65-.25-.66-.86-.58-1.36-.21-.24.17-.58.83-.78.78-.68-.66.42-1.66,1.07-1.79.5-.11,1.37-.04,1.48.57"/>
        <path class="cls-12" d="M34.12,36.47c.02.63-1.52,0-1.96.33-.14-.37-.14-.65.21-.9.47-.38,1.74-.02,1.75.58"/>
        <path class="cls-12" d="M33.62,56.16c.24-.78,1.36.63-.02.57l.02-.57Z"/>
        <path class="cls-12" d="M33.35,59.91c.42.77-.99,1-1.26.47-.12-.25.24-.58.43-.63.28-.08.64-.07.84.16"/>
        <path class="cls-12" d="M31.12,73.15c.61-.41,2.28.28,1.89,1.04-.24.48-.67.05-1.06.01-.38-.04-.76.03-1.14-.03-.43-.14-.02-.71-.09-.76-.54-.01-.85-.4-1.4-.16-.31.14-1.23,1.27-1.21-.03.02-1.52,2.84-1.61,3-.07"/>
        <path class="cls-12" d="M32.88,66.75c.35.27.2.61-.15.77l-1.36-.03-.05-.6.56-.37,1.01.23h0Z"/>
        <path class="cls-12" d="M32.92,69.72c.13,1.26-.62.36-.94.45l-.8.51c-.58-.48.16-1.29.67-1.41.5-.11.83.01,1.07.46"/>
        <path class="cls-12" d="M32.26,64.05c.59-.09,1.05.64.36.89-.79.28-1.33.09-.72-.71.11-.08.23-.16.36-.19"/>
        <path class="cls-12" d="M31.21,56.76c.41-.04.89.42.49.88-.76.85-1.51-.77-.49-.88"/>
        <path class="cls-6" d="M31.51,23.11l.13,2.86-9.71.64c-.89-.35-1.4-1.44-2.55-1.29-.02-.32.13-.66.4-.84.57-.36,2.1-.03,2.19-.8.04-.51-.79-.76-1.14-1.03-.42-.34-1.15-1.18-1.29-1.7-.08-.26.04-.15.16-.2.57-.22,1.18-.34,1.76-.52.2-.73-.32-.78-.71-1.16-.73-.7-1.66-1.47-1.74-2.53.39-.32.75-.45,1.1-.85.88-1.02.84-2.93.47-4.15,1.23-.68,3.27-2.78,3.12-4.26-.08-.72-.6-.59-1.18-.58l.91-2.35,1.31,2.14,1.42,1.18c-1,.53-1.4,1.09-1.76,2.14-.16.51-.28.84-.48,1.35-.48,1.25-.18,2.78,1.21,3.22-.39.63-.51,1.51-.37,2.25.08.33.44.64.47.83.03.17-.21.6-.23.89-.14,1.66,1.72,2.01,2.99,1.63-.85,2.25,1.7,3.26,3.52,3.13"/>
        <path class="cls-12" d="M30.47,60.64l-.15.63-.63.02c-.05-.51.33-.72.78-.65"/>
        <path class="cls-4" d="M16.65-.35h13.42c-.25.57,0,1.16.26,1.69-1.39.41-2.09,1.6-1.79,3.03.12.6.85.93.73,1.57-.17.94-1.25.84-1.61,1.65-.21-.65-.87-.63-1.31-.9-.3-.18-.88-.91-1.11-1.24-.86-1.25-1.1-2.68-1.68-4.05-.23-.27-.59-.28-.79,0v2.22c0,.21-.68,1.72-.85,2.02-.28.53-.68.98-.98,1.5.12.39.67.84,1.09.8.17-.01.87-.46.74-.03-.4,1.34-1.75,2.04-2.74,2.88-.25.13-.86-.58-1.03-.79-.46-.59-.85-1.32-.79-2.08.2-.99,2.39.73,1.94-.76-.08-.26-1.33-.9-1.68-1.2-.47-.4-.84-.9-1.16-1.44.47-.17,1.9.18,1.79-.63-.04-.34-.85-.86-1.14-1.2-.7-.83-1.14-1.99-1.3-3.06"/>
        <path class="cls-12" d="M27.98,68.01c.34-1.25,2.14-1.65,1.97.07l-.83-.25-.81.64-.34-.46h0Z"/>
        <path class="cls-12" d="M29.04,35.93c.23.22.18,1.08-.21.99-.78-1.1-2.61-1.33-3.56-.33.26.46.8,1.14.29,1.63-.46.11-.98-.96-1.37-1.23-1.6-1.13-3.37.14-4.99.43-.44-.21.02-.59-.14-.9-.72-.71-1.23-1.41-2.35-1.3-.57.05-1.25.58-1.76.07,1.48-2.32,3.97-1.11,4.7,1.11,1.78-.61,3.39-1.22,5.21-.26,0-.61.55-.62.91-.98-.73-1.28-2.18-1.25-3.45-.86-.54-.52-.04-.82.52-.89.82-.1,2.39-.04,3.01.55.25.25.47.77.43,1.13,1.01-.08,2,.11,2.74.84"/>
        <path class="cls-12" d="M27.82,44.06l.54.64-.33.41c-.96-.54-1.58-.45-2.52.02l-.08-.39c.47-.65,1.65-1,2.38-.69"/>
        <path class="cls-12" d="M25.06,39.78c.65.23,1.89,1.37,1.77,2.19,0,.03,0,.07-.01.1-.05.39-.9-.49-1-.57-.3-.21-1.09-.78-1.41-.78-.64,0-2.13.65-2.88.75-.71.1-1.17-.04-1.74-.46-.84-.61-1.63-1.62-2.36-2.2-.46-.37-1.23-.37-1.77-.7-.37-.21-.49-.52-.7-.67v-.26c.48.25,1.72.2,2.27.27.97.13,1.96,1.45,2.75,2.07.28.23.78.68,1.1.73,1.15-.14,2.87-.86,3.98-.47"/>
        <path class="cls-12" d="M26.8,78.45l-.12.44-1.34-.24-.68.63-.34-.33.27-.64c.66-.51,1.63-.42,2.2.14"/>
        <path class="cls-12" d="M22.83,31.46c.49.32.4,1.27.08,1.09-.78-.85-1.47-.09-2.35-.25l-.11-.38c.08-.27.72-.52.99-.58.39-.07,1.06-.1,1.39.12"/>
        <path class="cls-12" d="M21.97,76.11c.21.98-.92.33-1.45.46-.36.11-.41.92-1.01.57-.68-.42.05-1.72.75-1.87.57-.12,1.59.25,1.71.85"/>
        <path class="cls-10" d="M20.04,23.36c-.58.15-.98.33-1.36.79-.16.21-.2.64-.5.63-.17-.01-.44-.21-.69-.24-.61-.05-1.36.09-1.91-.03-.4-.09-.72-.73-1.27-.95-.62-.25-2.02-.66-2.7-.83-.23-.05-.46,0-.67-.04l-.27-3.24c1.51.71,3.06-.28,3.65-1.69,1.15.33,1.91-.4,2.68-1.15.07-.01.63.1.67.13.06.04.58,1.03.76,1.26.42.55,1,1.12,1.48,1.64-2.63.52-.9,2.48.13,3.71"/>
        <path class="cls-5" d="M17.57,11.96c2.75-.75,2.72,3.56.46,3.72-.78.07-.67-.35-1.15-.57-.78-.35-.77.74-1.05,1.09-.2.25-.93.7-1.23.49-.2-.57-.78-.85-1.18-.28.1.72.1.9-.36,1.47-.91,1.13-1.94.86-3.19.47l-.09-.12c.12-.25.21-1.18-.1-1.25-.62.32-1.1.89-1.83.92-.77.04-1.03-.15-1.44-.79l-.53.66c-1.71-.28-2.75-1.35-3.44-2.87,1.12.04,2.15.04,3.13-.59l.13-.59.51-.2c-2.43-1.01-4.62-1.73-5.08-4.69,0-.23,2.81-.1,3.3-1.15.05-.13.11-.2.03-.35-.09-.17-.87-.53-1.11-.65.53.12.61-.46.87-.66.33-.25,1.54-.38,1.47-.71-.21-.88-3.08.11-2.34,1.37-.74-.37-1.46-.48-2.02-1.17-.11-.13-.25-.17-.2-.39h2.02c.07,0,1.16-.53.97-.85-.26-.29-.61-.14-.98-.32-.31-.14-2.06-1.68-2.36-2.01C.54,1.69-.22.76-.3.47v-.16C.05.28.07-.06.08-.35h8.21l.38,1.73c-1,.61-2.33,1.48-1.95,2.83.22.16,1.17-1.08,1.45-1.23.54-.32,1.28-.26,1.75.18.26.25.27.65.62.82.35.17.56-.05.9-.01.4.04.79.38.99.72l.09,1.22.39.13c1.23-.81,1.83,1.17,1.76,2.14-.03.42-.32,1.32-.59,1.63-.29.33-.83.34-.52,1.05.83.34,1.17-.49,2.14.07.85.49.28,1.42.88,1.6.55.16.71-.17.96-.57"/>
        <path class="cls-12" d="M15.94,28.18c.71.02,2.49,1.12,2.41,1.9l-.21.33c-.34.09-.98-.78-1.34-1-1.36-.8-2.1.26-3.42.35.12-.97,1.71-1.6,2.55-1.58"/>
        <path class="cls-10" d="M18.22,10.46l-.98.14c-.34-.21-.49-.49-.89-.68-.27-.13-.57-.23-.87-.24.59-1.77.38-4.56-1.8-4.97-.08-.76-.49-1.17-1.06-1.62.71-1.04,1.68-2.11,1.69-3.44h1.43c.02.73.34,1.61.65,2.27.17.37.89,1.28.91,1.44.07.37-.46.1-.65.26l-.2.2c-.43,1.34.56,2.09,1.36,2.95-.94,1.22-.33,2.56.4,3.7"/>
        <path class="cls-12" d="M16.99,47.47c.24.28.8.37.71.91-1.28.65-1.83-1.49-2.44-1.66-.78-.23-1.81.34-2.49,0-.28-.14-.87-1.05-1.26-1.34-1.07-.76-3.2-.43-4.54-.69-.18-.03-1.23-.32-1.26-.37-.04-.05.01-.27-.01-.38.47,0,.9-.27,1.37-.27.9,0,2.62.12,3.48.3,1.44.3,1.98,1.04,2.94,2.03.75-.09,1.47-.43,2.26-.18.76.25.85,1.17,1.24,1.63"/>
        <path class="cls-12" d="M15.74,52.95l-1.31.13c-.09-1.05,1.25-1.25,1.31-.13"/>
        <path class="cls-12" d="M14.96,37.18v.26c-.53-.4-1.19-.72-1.89-.78-.63-.07-1.31,0-1.91.13-.11.13-.26.27-.36.39l.12-.34-.25-.12c.1-.17.24-.15.39-.2.89-.27,2.09-.71,2.98-.18.25.14.78.76.92.84"/>
        <path class="cls-12" d="M13.91,89.7c-.7.11-1.16-.12-1.76-.38-.16-.07-.24.07-.2-.27.8-.36,1.84-.42,1.96.65"/>
        <path class="cls-12" d="M10.92,53.61c-.25-1.33,2.9-2.11,2.45-.62l-.32.35c-.84-.66-1.3.22-2.13.27"/>
        <path class="cls-4" d="M9.36-.35h4.03c-.5,1.25-1.27,2.23-2.27,3.12-.47-.64-1.07-1.12-1.89-1.17.39-.58.32-1.32.13-1.95"/>
        <path class="cls-12" d="M10.29,54.76c.86.07,2.34.48,1.6,1.58-.76-.48-1.14-.62-2.09-.52-.69.08-.94.73-1.62.65-.13-.92.55-1.32,1.3-1.62-.52-.67-1.11-.89-1.96-.66-.39.11-.69.54-.98.6-.37.07-.2-.53-.07-.73.83-1.32,3.58-.97,3.81.71"/>
        <path class="cls-12" d="M9.74,29.57c.06.45-.02.84-.56.69-.24-.08-.33-.44-.67-.5-.43-.08-.71.09-1.07.12-1.18.1-.18-1.15.71-1.27.63-.09,1.49.26,1.59.97"/>
        <path class="cls-13" d="M9.23,18.8l.23,3.72-.75.2c.25-1.18.02-2.39-.14-3.57,0,0,.66-.35.66-.35Z"/>
        <path class="cls-12" d="M9.19,48.68l.14.4c-.32.64-.75.16-1.23.1-.62-.08-1.27.11-1.88-.14-.25-.35.93-.61,1.12-.63.64-.08,1.27-.02,1.85.27"/>
        <path class="cls-10" d="M9.23,37.18c.01.18-.47.23-.6.24-1.69.18-4.15.77-5.72.67-.55-.04-1.54-.43-2.02-.2l-.24.28v.73l1.02,1.78c-.26.26-2.46-2.52-2.84-.82-.32,1.39.41,3.13.75,4.47l-1.96-1.28v-13.42c.17.15.27.37.46.52,1.68,1.39.74-.28.25-1.03l-.71-.8v-9.58h.26c.16,2.4,2.54,4.5,4.83,4.88v.13c-.5-.02-1.07.14-1.25.65-.32,1,1.27,2.29,1.94,2.89.13.12.28.12.22.37l-1.3-.2c-.66.4.13,1.96.42,2.45.67,1.15,1.7,2.1,2.84,2.76-.89.32-3.44-1.43-3.07.6.22,1.25,1.65,2.69,2.76,3.23.29.15,1.71.67,1.94.67h2.02,0ZM1.67,28.58l-.39-.59-2.61-2.15c-.38.95,2.56,3.12,3,2.74"/>
        <path class="cls-5" d="M9.23,59.4l-3.63,4.19-.8,1.35-.26-.08c-.03-.74-.69-.97-1.29-1.16-1.11-.37-.67-.27-1.52-.83-1.33-.86-3.36-.39-4.09,1.02v-7.17l.66.21.75.16c-.17,1.13.46.29.89.04.51-.29,1.12-.59,1.74-.54l-1.17,1.37c-.04.12.12.3.19.33.37.11,1.83,0,2.35,0,.05,0,.26.26.52.26l.02.41c-.65.02-1.26.34-1.26,1.02.39.03.84-.05,1.23,0,.34.04,1.62.89,1.51-.21-.01-.07-.02-.13-.04-.18l.82-.14c.71-.07,1.28-.65,2.02-.65.49,0,.98.35,1.37.59"/>
        <path class="cls-12" d="M8.15,80.47c.59-.12,1.73.38.86.88-.68-.38-1.35.55-1.6-.29.16-.24.46-.52.74-.59"/>
        <path class="cls-12" d="M9.09,77.33c.09.62-.59.69-1.04.65-.17-.74.47-.65,1.04-.65"/>
        <path class="cls-12" d="M8.31,85.86c-.2.71-.83.05-1.24.05s-.79.35-1.24.27c-.03-1.36,2.13-1.63,2.48-.33"/>
        <path class="cls-6" d="M7.9,19.22l.15,3.5c-.73-.11-2.06.47-2.66.39-.24-.03-.5-.32-.76-.42-.36-.14-.76-.13-1.08-.36l.09-1.82c1.09-.1,3.23-.14,3.5-1.45l.76.15h0Z"/>
        <path class="cls-12" d="M7.51,47.7c.16.12-.29.54-.33.56-.51.13-.36-.24-.62-.26-.48-.09-.94.12-1.38.13l-.07-.12-.07.12c-.24,0-.24-.07-.39-.13l-.12-.25c.23.04.32-.23.38-.27.61-.33,2.28-.62,2.59.23"/>
        <path class="cls-10" d="M6.03,18.93c.28-.01.82-.36.72.13-.63.07-1.26.34-1.89.39-1.13.1-4.02.13-4.97-.36-.6-.32-.91-1.32-1.69-.82l-.32.46h-.26v-2.67c.7.79,1.68,1.89,2.81,1.83.37-.01.21-.38.07-.59-.25-.4-1.16-.95-1.57-1.29-.41-.37-.76-.96-1.31-1.11v-6.53c0,.34,2.09,1.85,2.09,1.37l.23-.08c.51,1.85,2.03,3.96,4.07,4.19v.13c-.71-.02-1.49-.12-2.14-.14-1.27-.02-.61,1.76-.22,2.45.95,1.64,2.44,2.7,4.38,2.64"/>
        <path class="cls-12" d="M4.66,83.06c.16-1.5,2.35-1.26,1.9.4-.59.49-.75-.3-.88-.38-.19-.11-.75.03-1.02-.02"/>
        <path class="cls-12" d="M6.17,76.66l-.07.6c-.23.11-.98.14-1.06-.13l.22-.45c.09-.04.17-.1.27-.12.2-.04.51-.09.63.1"/>
        <path class="cls-12" d="M5.7,5.32c.08.33-1.14.46-1.47.71-.26.21-.34.78-.87.66-.74-1.26,2.13-2.25,2.34-1.37"/>
        <path class="cls-12" d="M4.49,78.91c.51-.12,1.1.07.93.66-.13.46-.95.36-1.34.48-.28-.14-.24-.4-.15-.65.09-.26.29-.43.56-.49"/>
        <path class="cls-12" d="M5.11,48l.06.12h-.13l.07-.12Z"/>
        <path class="cls-12" d="M5.06,59.79c.11,1.1-1.18.25-1.51.21-.39-.07-.84.02-1.23,0,0-.68.61-1,1.26-1.02.61-.02,1.25.22,1.43.64.02.06.03.12.04.18"/>
        <path class="cls-12" d="M5.33,46.63c0,.4-.39.47-.41.84-.07.04-.15.32-.38.27l.12.25c-.07-.02-.26.09-.26-.08l.26-1.35-1.7.33-.11-.38c.45-.73,2.47-.98,2.48.12"/>
        <path class="cls-12" d="M4,13.85c.2.02,1.04-.06,1.04.07-.12.13-.42.2-.6.21-.26.01-.41-.14-.45-.14v-.13h0Z"/>
        <path class="cls-12" d="M1.41,51.78c1.05,0,3.29-.71,3.24.96-.17.51-.96.02-1.25-.02-.7-.1-2.13.1-1.99-.94"/>
        <path class="cls-12" d="M5.18,23.5c-.14.29-.92.37-1.24.38-.51.03-.83-.11-1.23-.13v-.13c.94.16,1.56.11,2.47-.12"/>
        <path class="cls-12" d="M3.96,58.03c.08.24-.11.46-.31.51-.03,0-.07,0-.1,0-.26,0-.47-.26-.52-.26-.52,0-1.98.11-2.35,0-.08-.02-.24-.21-.2-.33l1.17-1.37c-.62-.04-1.23.25-1.74.54-.43.25-1.07,1.09-.89-.04,0-.04,0-.09.02-.14.84-.58,1.76-1.03,2.81-1.14l.57.57-.76,1.13c.62.05,2.06-.23,2.3.52"/>
        <path class="cls-12" d="M3.87,74.72c.06.47-.16.83-.52,1.11l-.42.04c-.26-.12-.43-.35-.3-.63.22-.54.74-.55,1.25-.52"/>
        <path class="cls-5" d="M1.96,64.79c1.27-.52,1.47.13,2.57.41-1.24,2.33-2.68,4.55-3.38,7.11l-1.76-.34-1.77.53v-5.47l.29.36c.66.13,1.08,1.59,1.63.34l-.36-1.09c.89-.27,1.75-.25,2.08.72.47.51,1.07-.09.59-.84-.61-.95-1.53-.98-2.51-.71-.22.07-.42.29-.61.3-.33.01-.66-.54-1.11-.39v-1.44c.65.65.91-.22,1.48-.54.81-.49,1.75-.49,2.44.22-.29.35-1.1.65-1.05,1.17.07.79,1.11-.2,1.48-.35"/>
        <path class="cls-10" d="M2.95,7.6l-1.09.25c-1.78-.05-2.47-.16-1.92,1.81H-.06l-.23.09c-.36-1-1.09-1.76-1.7-2.61-.12-.15-.09-.39-.39-.32V-.09C-1.62,1.43-.88,3.18.75,3.94l-.09.26c-.36,0-.75.42-.8.75-.21,1.02,2.08,2.64,3.09,2.64"/>
        <path class="cls-12" d="M2.66,49.94c.39.31.11,1.12-.4,1.06-.65-.49-1.49.24-2.22.13l-.34-.33c-.05-.28.66-1.41.21-1.5-.7.15-1.06.75-1.59,1.15l-.32-.05-.38-.58v-1.96c.7.04.9.86.91,1.43.97-.97,2.65-.83,1.83.78.24.2,1.7-.61,2.3-.14"/>
        <path class="cls-6" d="M2.45,21.74c-.01.19.04.23-.2.2-.34-.05-1.15-.55-1.43-.78-.11-.1-.73-.65-.59-.78l2.22.26c-.01.37.01.74,0,1.11"/>
        <path class="cls-5" d="M2.32,91.86l-1.89,1.11.83-1.65c-.02-.29-.27-.45-.55-.43-.65.03-2.33,1-2.69,1.57l-.39-.13v-.26c.41.08.22-.21.26-.45.11-.57.4-1.46.4-1.97,0-.42-.49-.05-.66-.07v-6.12l.1-.16-.1-.1v-.26l.52-.91.42,2.9c.1.49.29.86.82.49l.72-1.44c.08,1.36.21,2.73.59,4.03.38,1.35,1.13,2.54,1.63,3.85"/>
        <path class="cls-12" d="M1.85,66.52c.48.75-.12,1.35-.59.84-.33-.97-1.19-.99-2.08-.72l.36,1.09c-.55,1.25-.97-.21-1.63-.34l-.29-.36v-1.3c.45-.15.78.4,1.11.39.18-.01.39-.24.61-.3.98-.27,1.9-.24,2.51.71"/>
        <path class="cls-12" d="M1.27,27.99l.39.59c-.45.38-3.38-1.79-3-2.74,0,0,2.61,2.15,2.61,2.15Z"/>
        <path class="cls-12" d="M.49,17.3c.14.21.3.58-.07.59-1.13.07-2.11-1.03-2.81-1.83v-1.16c.54.15.89.74,1.3,1.11.4.35,1.32.89,1.57,1.29"/>
        <path class="cls-5" d="M.76,73.87c-.23,1.64-.69,3.3-.79,4.96-.09,1.27.11,2.58-.07,3.84l-.85,1.57c-.2-.79-.4-1.61-.5-2.43-.07-.47.2-1.42-.54-1.16l-.39.58v-7.3c.55-.14.77-.59,1.37-.65.54-.07,1.77-.14,1.77.59"/>
      </g>
    </g>
  </g>
</svg>