<?xml version="1.0" encoding="UTF-8"?>
<svg id="Layer_1" data-name="Layer 1" xmlns="http://www.w3.org/2000/svg" xmlns:xlink="http://www.w3.org/1999/xlink" viewBox="0 0 90 90">
  <defs>
    <style>
      .cls-1 {
        fill: #78736d;
      }

      .cls-2 {
        fill: #bfbebe;
      }

      .cls-3 {
        fill: #a3af65;
      }

      .cls-4 {
        fill: #b6c370;
      }

      .cls-5 {
        fill: #fff;
      }

      .cls-6 {
        fill: #98a951;
      }

      .cls-7 {
        fill: #5f845f;
      }

      .cls-8 {
        fill: #95918b;
      }

      .cls-9 {
        fill: none;
      }

      .cls-10 {
        fill: #b7aca2;
      }

      .cls-11 {
        clip-path: url(#clippath-1);
      }

      .cls-12 {
        fill: #919d5f;
      }

      .cls-13 {
        fill: #828d53;
      }

      .cls-14 {
        fill: #908881;
      }

      .cls-15 {
        fill: #727849;
      }

      .cls-16 {
        fill: #849a52;
      }

      .cls-17 {
        fill: #663925;
      }

      .cls-18 {
        fill: #c28966;
      }

      .cls-19 {
        fill: #986749;
      }

      .cls-20 {
        fill: #dab399;
      }

      .cls-21 {
        fill: #a69b91;
      }

      .cls-22 {
        clip-path: url(#clippath);
      }
    </style>
    <clipPath id="clippath">
      <rect class="cls-9" x="0" width="90" height="90"/>
    </clipPath>
    <clipPath id="clippath-1">
      <rect class="cls-9" x="-2.18" y="-.35" width="94.35" height="90.71"/>
    </clipPath>
  </defs>
  <g class="cls-22">
    <g class="cls-11">
      <g>
        <path class="cls-5" d="M92.2-.35v94.75h-.13V28.58c0-4.73.01-9.47,0-14.2V-.22c-.81,0-1.65.01-2.46,0H23.64c-5.88,0-11.78,0-17.66,0H-2.21v-.13h94.41Z"/>
        <path class="cls-4" d="M20.59,79.82c-.19.04-.23.51-.29.89.48-.21.95-.42,1.42-.64-.4-.11-.8-.25-1.13-.26"/>
        <path class="cls-4" d="M23.33,79.33c.27-.13.54-.25.81-.38l-.44-.44c-.11,0-.22.41-.37.83"/>
        <path class="cls-4" d="M22.77,80.17c-.29.09-.67,0-1.05-.1-.47.21-.94.43-1.42.64-.03.16-.06.3-.11.39-.23.41-1.38.44-2.13.56-6.66,2.69-13.86,4.41-20.27,1.29v11.45h45.34c-4.17-1.02-8.42-1.89-12.79-2.62-.75,0-3.58-.52-5.25-1.93l-.61.39-2.45-1.04c-.26.07-.48,1.46-1.19,1.53-.43.04-2.3-1.25-2.38-1.14,0,.63.18,1.53-.7,1.43-.48-.05-2.28-1.01-1.58-1.58.42-.35.83.26,1.25.4,0-.55.27-1,.74-1.28.66-.21,1.74.85,2.43.89l.99-1.5c.73-.33,1.7.54,2.34.85.04-.16.06-.32.1-.48-.1-.28-.16-.57-.16-.89,0,.32.07.61.16.89.62-3.01.44-6.12.36-9.17l-.21-.21c-.27.13-.54.25-.81.38-.14.38-.31.77-.56.85"/>
        <path class="cls-16" d="M18.06,81.66c-.18.03-.34.06-.46.1-.31-.02-.4-.3-.31-.58.13-.38,1.77-.67,2.2-.6-.39-2.53,1.53-1.89,3.11-1.3.28-.48.14-1.87.82-1.8l1,.49v-5.08c-.37-.02-.63-.34-.99-.39-.55-.08-1.16.33-1.66.01-.22-.14-.27-1.05-.35-1.38-.03-.18.12-.38-.2-.33-.61.57-1.02,1.55-2.03,1.25-.33-.1-.16-.45-.56-.33-.75.83-.57,2.69-2.15,1.87l-.52,1.04c-.48.27-1.02.36-1.52.57-.54.23-.82.71-1.51.52-.26-.08-.54-.49-.8-.49-.34-.01-.81.43-1.07.63-.85.24-.79-.9-1.01-.89-.74,1.12-1.32,2.22-1.51,3.57.56.32,1.24.41,1.04,1.24-.54.33-.96-.24-1.42-.42-.13-.06-.48,0-.69-.2-.92.53-1.95.66-2.75,1.41-.22.21-.29.49-.59.71-.77.58-1.14.23-1.87.21-.91-.04-1.89.1-2.76-.1l-.3-.49.27-1.24-1.68.67v2.62c6.41,3.12,13.61,1.4,20.27-1.29"/>
        <path class="cls-16" d="M92.07,92.61c-2.73-.72-5.58-1.12-8.48-1.34.08.22.11.44.03.64-.23.09-.42.17-.67.13-.19-.04-.86-.45-1.21-.89-10.32-.53-21.29.74-30.82-2.64,2.17,0,4.34,0,6.5-1.09-8.32-1.04-17.62,2.89-25.06-1.58l.37,2.69,1.52-.88c.14-.04.77-.38.69.03-.1.51-1.82,2.32-2.17,2.9-.56.33-1.61-.09-2.11-.43-.18-.13-.31-.36-.45-.46-.75-.48-2.69.47-3.11.15l-.14-1.19-1.87,1.18c1.67,1.41,4.5,1.93,5.25,1.93,4.38.73,8.62,1.6,12.79,2.62h48.94v-1.79.02Z"/>
        <path class="cls-16" d="M80.18,79.82c3.25,1.09-2.17-1.09,0-2.17,4.34-.73,8.19.48,11.89,1.37v-8.59c-.7-.21-1.44.49-2.03.52-.42.02-.79-.47-1.13-.38-.87.75-1.87,1.35-2.75,2.08-.22.18-.99.83-1.11.97-.38.46-.35,1.35-1.12,1.88-.89.61-1.86-.43-2.77-.63l-.39,1.11c-.52.27-1.05-.51-1.5-.72-.39.32-.37,1.65-.91,1.7-.26.02-.97-.36-1.43-.4-1.3-.11-2.33.84-2.15-1.29-.51.2-1.03.36-1.52.62-.36.2-.63.66-1.12.53-.64-.18-.1-1.21-.54-1.54-.14-.03-1.51.87-1.69,1.03-.42.39-.42.91-1.15.79-.34-.05-.04-.86-.14-1.05-.17-.34-1.1-.63-1.18-1.16-1.07,1.08-.86,2.46-2.78,1.42.01.55.33,1.04-.13,1.51l-2.68.31c-.16.24.33.79-.12,1.31-.27.3-1.4.58-1.48.87l.22,1.99c6.11-.33,12.68-3.48,19.7-2.07"/>
        <path class="cls-4" d="M59.64,81.91c-.15-.37-.14-.91-.22-1.2-.21-.75-.5-1.51-.86-2.21-.31.35-.64.7-.98,1.04-.28.28-.16.59-.88.37-.24-.08-.37-.51-.73-.36-.19.44-.65,1.22-1.18,1.55,1.58.6,3.19.82,4.84.81"/>
        <path class="cls-16" d="M40.1,79.97c.1-.4-.08-.92.38-1.18.58-.2,1.03.6,1.65.51l.73-1.62c.69-.58,1.54.16,2.12.6l.26.08c.52-.54,3.14-.94,3.4-1.28.2-.28.6-2.59.46-2.73-.66-.07-2.4-.03-2.86-.46-.5-.65-.04-1.31-.13-2.02-.05-.07-.98.73-1.33.64-.41-.11-.49-1.03-.68-1.03l-1.37.71c-.35.42.33,1.15-.44,1.38l-.37-.13c-.35-.57-.9-.97-1.47-1.28-.78-.09-.97,1.64-1.75,1.21l-.12-.84c-.73-.12-1.03.93-1.63.93-.47,0-.76-.6-1.1-.87l-.2-.07c-.36,0-1.08,1.19-1.45,1.3-.27.08-.65-.01-.99.04-.6.11-1.08.67-1.78.5v1.93c3.24.07,5.91,2.37,8.52,4.18.06-.19.12-.36.15-.48"/>
        <path class="cls-16" d="M47.67,81.99c.81-.81,2.23-1.63,2.44-2.9-.14-.5-.33-.95-1.31-.82-1.21.17-2.35.76-3.54,1.02-.37.18-1.58-1.11-1.74-.92-.2.41-.36,1.65-.66,1.88-.56.43-1.73-.28-1.81-.18,0,.23-.14.61-.33.89,2.2,1.42,4.41,2.31,6.96,1.03"/>
        <path class="cls-4" d="M80.18,77.64c-2.17,1.09,3.25,3.26,0,2.18-7.02-1.41-13.59,1.74-19.7,2.07l.02.18c-.05.15-.16.21-.31.22-.29.02-.45-.14-.55-.37-1.65.01-3.26-.21-4.84-.81-.25.15-.52.21-.78.07-.57-.3-1.51-.83-2.17-.96-.42-.08-.88.08-1.26-.16-.32-.21-.39-.6-.49-.96-.21,1.27-1.62,2.08-2.44,2.9-2.54,1.28-4.75.39-6.96-1.04-.1.16-.21.3-.33.35-.75.36-.61-.31-.44-.86-2.62-1.81-5.28-4.11-8.52-4.18v1.58c.44.1.61-.42,1-.5.95-.18.66,1.08.69,1.68.6-.22,2.15-1.05,2.69-.83.6.25-.07.91.03,1.35h1.89c.07,0,.55.24.59.34.04.2-.09.42-.26.51-.26.13-1.89.1-2.27.05-.64-.08-.74-.74-.71-1.29-1.29.29-2.83,1.79-2.86-.52l-.63.28.63,5.97c.39-.15.93-1.05,1.26-1.15.56-.16,1.03.57,1.41.89.5-.42,1.42-1.22,2.07-1.18.54-.02.91.9,1.33,1.03.17.05.4.01.58.05.62.16,1.22.35,1.84.5.43-.04,1.63-1.23,2.15-1.38.33-.1.64-.02.95-.09.35-.08.83-.46,1.22-.6,1.52-.51,2.25.28,3.6.77.27.11.29.7.08.84-1.28.42-1.78-.91-3.05-.72-.56.09-1.23.64-1.72.75-.24.06-.49-.01-.73.06-.68.18-1.44,1.28-2.23,1.28l-3.15-.75-1.01-.96c-.6-.05-1.3.97-1.82,1.05-.53.09-.85-.53-1.29-.76-.55.3-.71,1.17-1.36,1.15l.03.18c7.44,4.47,16.75.54,25.06,1.58-2.17,1.09-4.34,1.09-6.5,1.09,9.52,3.37,20.49,2.1,30.82,2.63-.19-.24-.28-.48-.13-.67.41-.79,1.66-.04,1.97.78,2.91.22,5.75.62,8.48,1.34v-13.6c-3.7-.89-7.55-2.1-11.89-1.37M69.44,87.01c-.35.12-.54.45-.93.35-.46-.13-.05-1.44-.14-1.82-.34.36-.7.68-1.04,1.04-.3.32-.45.9-1.02.77l-.79-2.08c-.54.38-.73,2.35-1.1,2.54-.18.1-.33.1-.47-.05l-.84-1.32c-.35,1.96-.15,2.93-2.47,1.96l.12,1.09c-.11.33-.74.27-.96.1-.49-.39-1.01-2.87.24-2.73.61.3,1.17.86,1.91.76.04-.73.3-3.25,1.48-2.46l.73,1.15c.02-.52.91-2.23,1.38-2.33.93-.12.85,2.34,1.16,2.33.33-.27,1.77-1.98,2.14-1.76.66.51.21,1.09.26,1.76l1.63-.39c1.3.75-.74.9-1.27,1.08M90.81,86.2c-.14.04-.28.14-.42.19-.43.14-1.66.54-2.03.58-.41.05-.75,0-.84-.45.11-.45.16-.85.13-1.3-.02-.2.1-.38-.2-.33-.3.34-.69.64-.97.98-.41.51-.64,1.39-1.35,1.25l-.6-2.1c-.35.55-.81,2.71-1.39,2.86-.29.08-.52-.26-.68-.45-.39-.45-.81-1.1-1.05-1.63-.1,0-.24-.05-.25.07-.05.45-.02,1.1,0,1.57,0,.28.28.93-.22,1.1-.4.12-2.29-1.02-2.91-1.03-.24.75.6,1.94.53,2.53-.08.57-.6.24-.88.24-.25,0-.41.12-.73.07-.23-.03-1.14-.35-1.35-.47-.47-.25-.53-.57-.37-1.08.66-.51,1.34.13,2.02.27-.24-.59-.72-2.75.09-2.98.48-.14.98.46,1.39.65.48.24,1.04.35,1.52.63.01-.8-.26-2.7.98-2.62.86.15,1.17,1.11,1.68,1.71.17,0,.93-2.46,1.55-2.87,1.07-.72,1.21,1.27,1.12,1.96.65-.41,1.08-1.19,1.7-1.62,1.69-1.18,1.18,1.01,1.03,2.01.87-.08,1.69-.85,2.57-.36.14.2.15.48-.06.63"/>
        <path class="cls-17" d="M92.07,67.68v2.74c-.7-.21-1.44.49-2.03.52-.42.02-.79-.47-1.13-.38-.87.75-1.88,1.35-2.75,2.08-.22.18-.99.83-1.1.97-.38.46-.35,1.35-1.12,1.88-.89.61-1.86-.43-2.77-.63l-.39,1.11c-.52.27-1.05-.51-1.5-.72-.39.32-.37,1.65-.91,1.7-.26.02-.98-.36-1.43-.4-1.3-.11-2.33.84-2.15-1.3-.51.2-1.03.36-1.52.62-.36.2-.63.66-1.12.53-.64-.18-.1-1.21-.54-1.54-.14-.03-1.51.87-1.69,1.03-.42.39-.42.91-1.15.79-.34-.05-.04-.86-.14-1.05-.17-.34-1.09-.63-1.18-1.16-1.07,1.08-.86,2.46-2.79,1.43.01.55.33,1.04-.13,1.51l-2.68.32c-.16.24.33.79-.12,1.3-.27.3-1.4.58-1.48.87l.24,2.17c-.05.15-.16.21-.31.22-.75.07-.64-1.1-.77-1.58-.21-.75-.5-1.51-.86-2.21-.31.35-.64.7-.97,1.04-.28.28-.16.59-.88.37-.24-.08-.37-.51-.73-.36-.28.64-1.13,2.06-1.96,1.62-.58-.3-1.51-.83-2.17-.96-.42-.08-.88.08-1.26-.16-.76-.51-.11-2.01-1.8-1.78-1.21.17-2.35.76-3.54,1.02-.37.18-1.58-1.11-1.74-.92-.2.41-.36,1.65-.66,1.88-.56.43-1.73-.28-1.81-.18,0,.36-.34,1.09-.65,1.24-1.01.48-.4-.88-.29-1.34.1-.4-.08-.92.38-1.18.57-.2,1.03.6,1.65.51l.73-1.62c.69-.58,1.54.16,2.12.6l.26.08c.52-.54,3.14-.93,3.4-1.28.2-.28.6-2.59.45-2.73-.66-.07-2.41-.03-2.86-.46-.5-.65-.04-1.3-.13-2.02-.05-.07-.98.73-1.33.64-.41-.11-.49-1.03-.68-1.03l-1.36.71c-.35.42.32,1.15-.44,1.38l-.37-.13c-.35-.57-.9-.97-1.47-1.28-.78-.09-.96,1.64-1.74,1.21l-.12-.84c-.73-.12-1.03.92-1.63.92-.47,0-.76-.6-1.11-.87l-.2-.07c-.36,0-1.08,1.18-1.45,1.29-.27.08-.65-.01-.99.04-.6.11-1.08.67-1.78.5v3.51c.44.1.61-.42,1-.5.95-.18.66,1.08.69,1.68.6-.22,2.14-1.05,2.69-.83.6.25-.07.91.03,1.35h1.89c.07,0,.55.24.59.34.04.2-.09.42-.26.51-.26.13-1.89.1-2.27.05-.64-.08-.74-.74-.71-1.29-1.29.29-2.83,1.79-2.86-.52l-.63.28.63,5.97c.39-.15.93-1.05,1.26-1.15.56-.16,1.03.57,1.41.89.5-.42,1.42-1.22,2.07-1.18.54-.02.91.9,1.33,1.03.17.05.4.01.59.05.62.16,1.22.35,1.84.5.43-.04,1.63-1.23,2.15-1.38.33-.1.64-.02.95-.09.35-.08.83-.46,1.22-.6,1.52-.51,2.25.28,3.6.77.27.11.29.7.08.84-1.28.42-1.78-.91-3.05-.72-.56.09-1.24.64-1.72.75-.24.05-.49-.01-.73.05-.68.18-1.44,1.28-2.23,1.28l-3.15-.75-1.01-.96c-.6-.05-1.3.97-1.82,1.04-.53.09-.84-.53-1.29-.76-.55.3-.71,1.17-1.37,1.15l.39,2.87,1.52-.88c.14-.04.77-.38.69.03-.1.51-1.82,2.32-2.17,2.9-.56.33-1.61-.09-2.11-.43-.18-.13-.31-.36-.46-.46-.75-.48-2.69.47-3.11.15l-.14-1.19-2.48,1.57-2.45-1.04c-.26.07-.48,1.46-1.19,1.53-.43.04-2.3-1.25-2.38-1.14,0,.63.18,1.53-.7,1.43-.48-.05-2.28-1.01-1.58-1.58.42-.35.84.26,1.25.4,0-.55.27-1,.74-1.28.66-.21,1.74.85,2.43.89l.99-1.5c.73-.33,1.7.54,2.34.85.75-3.15.54-6.44.46-9.65l-.65-.65c-.22,0-.4,1.51-.93,1.67-.6.17-1.53-.34-2.18-.36-.27.05-.23.99-.4,1.28-.28.51-2,.43-2.59.66-.31-.02-.4-.3-.31-.58.13-.38,1.77-.68,2.2-.6-.39-2.53,1.53-1.89,3.11-1.31.28-.48.14-1.87.82-1.79l1,.49v-5.08c-.37-.02-.63-.34-.99-.39-.55-.08-1.16.33-1.66.01-.22-.14-.27-1.05-.35-1.38-.03-.18.12-.38-.2-.33-.61.57-1.02,1.54-2.03,1.25-.32-.1-.16-.45-.56-.33-.75.83-.58,2.69-2.15,1.87l-.52,1.04c-.48.27-1.02.36-1.52.57-.54.23-.82.71-1.51.52-.26-.08-.54-.49-.8-.49-.34-.01-.81.44-1.07.63-.85.24-.79-.9-1.01-.89-.74,1.12-1.32,2.22-1.51,3.57.56.32,1.23.41,1.04,1.24-.54.33-.96-.24-1.42-.42-.13-.05-.48,0-.69-.2-.92.53-1.95.66-2.75,1.41-.22.21-.29.49-.59.71-.77.58-1.14.23-1.88.21-.91-.04-1.88.1-2.76-.1l-.3-.49.27-1.24-1.7.71v-.78c1.4-.77,3.35-1.35,2.47,1.04h2.93c.49-.49.91-.99,1.49-1.36.56-.35,2.69-.99,2.83-1.47,0-1.08.07-2.16.03-3.24-.07-1.33-.21-2.89-.69-4.13-.1-.26-.95-2.04-1.07-2.04-.61.7-1.53,1.88-2.57,1.66-.3-.07-.97-.52-1.2-.75-.47-.47-1.29-1.97-1.69-2.21-.57-.34-1.84-.38-2.52-.53v-.78c1.08.29,2.61.22,3.38,1.11.52.61,1.44,2.5,2.4,2.42.4-.04,1.4-1.37,1.6-1.78,0-.21-1.26-2.32-1.47-2.64-.43-.66-1.02-1.64-1.74-1.9-1.24-.43-2.85-.59-4.16-.72v-1.04c1.22.03,2.61.25,3.79.57.66.16,1.73.47,2.18.93.89.93,1.42,2.27,2.15,3.33,1.64-2.78,3.54-5.85,6.6-7.2.5-.22,2.63-.76,2.78-.91.04-.03.48-.83.5-.87.13-.43.12-1.08.25-1.58.55-2.26,1.73-4,3.55-5.43-.07-1.59.33-3.13.67-4.68l-1.36.07c-1.18-.84-1.93,1.34-2.87,1.44-.7.16-.83-.78-1.18-1.04-.22-.16-1.14-.52-1.44-.61-1.11-.33-1.84.02-1.72-1.6-.2-.22-1.89.96-2.17,1.02-.44.09-.79-.25-.67-.67.05-.15.27-.28.36-.43.17-.3.74-1.2.8-1.41,0-.04-.67-.24-.74-.43l-5.05,1.41c-.78.03-.87-.63-1.42-.66-.73-.05-2.88.79-3.33.47-.15-.11-.09-.51-.33-.58l-1.37.2v-.78c.79.02,1.73-.66,2.17.27,1.19-.04,3.14-1.4,3.84.1l4.65-1.22c0-.33-.4-.3-.59-.46-1.13-.9-1.39-2.83-3.11-3-1.56-.16-2.88.43-4.4.54l-2.56,2.47v-1.31c.4-.4.75-.86,1.17-1.24,1.22-1.13,2.1-1.34,3.74-1.59,1.53-.24,3.27-.25,4.38,1,.26.28,1.43,1.94,1.56,2.22.09.21.03.45.13.65.21.46,1.28.93,1.43,1.57,1.1-1.41,1.82-3.37,3.7-3.85,1.28-.33,3.02-.21,4.35-.05.91.11,1.69.97,2.2,1.7.5.7.86,1.43.88,2.32.7.09.89,1,1.59.92.34-.03.71-.3,1.1-.27.33-.66.04-1.26.02-1.87-.07-1.78-.22-3.57-.27-5.34-.05-1.98.11-3.97-.04-5.94-.26-.39-2.83.22-3.38.26-.53.04-1.09-.03-1.62,0l.13,6c.11.15,2.42-.83,2.78-.79.38.03.64.54.33.86-.18.18-2.99,1.08-3.32,1.09-.74,0-.54-1.02-.7-1.54l-1.86.5-.22-.17v-5.94h-5c-.05,0-.54.39-.81.49-2.99,1.17-5.53.05-8.54.29-1.23.1-2.48.61-3.71.78v-1.17c1.26-.21,2.55-.7,3.83-.78,2.76-.2,5.19,1,7.9-.02.78-.3,1.4-.92,2.3-.76.05-.2-.03-.21-.12-.33-.75-.98-1.78-1.82-2.53-2.94-.48-.71-1.32-1.74-.11-2.19l1.85.24-2.3-3.8-.28-.47v-.34c.21-.86,1.1-.23,1.67-.41-.41-.51-.81-1.03-1.15-1.59-.24-.4-1.15-2-1.19-2.34-.15-1.3,1.7-.37,2.34-.51-1.97-1.78-2.89-4.43-3.92-6.82-1.79-.27-1.68-1.53-1.73-3.01-.39-.7-1.4-.41-1.59-1.27-.24-1.05,1.05-2.18,1.66-2.9h1.56c-.87.78-2.02,1.45-2.34,2.66l1.77.98c.2.33-.02,1.53.05,2.02.15.91,2.08.45,2.74.65.65.2.86,1.3,1.35,1.38.81.1,1.16-.93,1.84-1.16.65.03,1.28.51,1.92.51,1.09,0,2.14-1.52,2.65.18l-.38,1.63.58.13.2,1.04c1.21.25,2.05-1.34,3.19-.92.77-.18.43-1.21.65-1.69.21-.49.81-.29,1.04-.51.33-.33.27-1.44.92-1.82.62-.36.99.25,1.6.24l-.13-5.34h.65l.13,6.45c.33,10.42.1,20.97.52,31.41.26,6.54.09,13.09.26,19.54.15,5.2.36,10.44.39,15.64.03,3.19-.05,6.36-.14,9.52-.03,1.36.12,2.85.01,4.18-.05.61-.33,1.25-.26,1.89.11.13,2.7-2.15,2.86-.85.07.47-.39.99-.26,1.5.08.08,1.85-.43,2.25-.39.51.04,1.1.87,1.64,1.04-.18-1.36-.24-2.74-.4-4.1-.3-2.61-.63-4.92-.77-7.57-.24-4.48-.4-8.95-.65-13.42-.62-11.1-.61-22.24-.77-33.37-.03-2.21-.08-4.3,0-6.51.03-1.19-.1-2.4.07-3.58.19-.5.65-.66.96-.98.56-.55,1.35-1.63,1.91-2,1.47-1,3.32-.77,5.01-1.1l.49-.62c-.95-.05-1.83.16-2.8.14-.99-.03-1.33-.13-2.36.22-1.06.35-.82.54-1.41,1.2-.17.2-1.73,1.33-1.88,1.18-.16-.42.03-.79.01-1.24-.17-3.24-.25-6.52-.4-9.77-.13-2.77.11-5.64,0-8.42h.91l-.13,4.56c.49-.35.79.14,1.23.14.68,0,1.38-.59,1.84-1.03.58-.16.73.37.77.38.73.13,1.34-1.32,1.68-1.83.1-.14.34-.28.38-.39.04-.09-.09-.6-.06-.85.02-.35.22-.64.26-.98h1.3l-.39.91c.62-.18,1.07-.5,1.76-.39.86.13-.08,1.05-.22,1.34-.12.23-.6,1.56-.5,1.66.33-.02.49-.25.85-.27.55-.03.67.16.56.7-.53.61-.92,1.35-.89,2.17.15.16,1.72-1.04,2.09-.43-.24,1.07-.92,2.05-.79,3.22.03.16.51.11.38.53-.1.33-1.99.67-2.2,1.25.63-.07,1.73-.54,2.22.05.29.35,0,.68,0,1.03,0,.13.22,1.09.26,1.12l.76-.05,1.01-.96c.74-.09.46,1.2.56,1.66.22.25.74-.5.83-.65.39-.64.35-1.74,1.25-1.37.45.48.65,1.31,1.42,1.37v-2.14c.3-.83,2.53.29,2.73.07.16-.55-.29-1.52-.07-1.96.24-.48,1.83-.57,2.15-1.17-.42-.16-1.66-.78-1.7-1.24-.03-.37.42-.63.64-.93.26-.38.47-.79.67-1.21-.63-.13-1.39.42-1.81-.22-.3-.46.04-.72.11-1.16.05-.39-.02-.83,0-1.23-.66.41-1.33.98-2.14,1.04-.77-.1-.63-2.11-.73-2.74h1.04l.13,1.43c.26.26,1.71-1.32,2.47-.85.05.03.26.37.26.39v2.28c.76.04,1.91-.32,1.9.78l-1.25,2.26c.07.28,1.68.87,1.54,1.68-.12.65-1.73,1.2-2.32,1.4.46,1.93.51,2.89-1.82,2.35l-.26,7.17,2.07-3.07.27-.07c.03,1.03-.53,2.07-1.02,2.96-.34.62-.77,1.4-1.32,1.79v5.68c1.69-.26,3.33-1.02,5.04-1.27.4-.07.51.16,1-.29.52,0,1.47.43,1.92.37.41-.07,1.57-.67,2.18-.83.7-.18,3.07-.45,3.43-.85.29-.33.93-2.35.72-2.61-.35.33-1.16.39-1.17-.18,0-.38,1.55-2.95,1.3-3.2-.48.12-1.45.53-1.83.08-.55-.7.91-1.53,1.32-1.97.69-.73,1.78-2,2.14-2.94.11-.29.23-.58.2-.9-.44.18-2.06,1.17-2.45.89-.05-.17-.16-.35-.13-.54.07-.4,1.43-1.78,1.78-2.26.43-.61.78-1.24,1.06-1.94l-2.12.55c-1.3-.53.39-1.58.88-2.2,1.33-1.69,2.18-4.07,2.81-6.11h.78c-.46,2.54-1.68,4.86-3.12,6.97.73.45,1.2-.73,1.76-.72.3.01.47.45.46.71-.03.52-.85,2.12-1.15,2.64-.17.32-.61.68-.67,1.02-.09.41.47.02.69.08.13.03.26.21.33.34.39,1.35-1.73,4.25-2.54,5.35-.08.11-.13.16-.25.16h.98c.28.22-.16,1.41-.28,1.73-.15.41-.52,1-.62,1.34-.1.33.37.13.53.25.18.12.15,1.63.12,1.96-.03.41-.26.83-.2,1.24l2.28-.59c.38-.61.65-2.14,1.36-2.41.65-.26,2.97-.61,3.64-.51.64.1.92.96,1.42.91.69-.43,1.89-.51,2.54-.86.36-.19.85-.88,1.31-1.06-.09-.78-1.29-1.94-.79-2.7.25-.38.74-.11,1.04-.01.12.04.29.15.26-.08-.16.02-.21-.04-.29-.16-.6-.74-1.69-2.35-1.66-3.3,0-.18.01-.36.22-.43l1.34.11c-.39-.54-1.7-2.64-1.17-3.19.37-.37,1.25.05,1.03-.51-.66-.66-2.55-2.07-2.59-3.01-.01-.27.02-.5.27-.64l1.81-.46c-1.63-.78-2.57-2.47-2.98-4.18h1.04c.29,1.01.83,2.03,1.62,2.74.42.38,1.82,1.11,1.89,1.63.05,1.52-1.72.26-2.6.9-.03.2.15.27.26.39.54.61,2.76,2.46,2.83,3.02l-.49.64-1.17.05c.28.52.5,1.09.8,1.6.21.36.73.8.62,1.2l-.97.46-.84-.07c.68,1.35,1.48,2.7,2.86,3.4.01.25.03.46-.23.56-.69.25-1.41.08-2.11.02l.86,1.42c.52-.24,1.2-.78,1.8-.78.68,0,1.3.66,2.05.5.64-.13,2.47-1.22,3.25-1.56,1.04-.46,2.11-.8,3.14-1.27.08-1.89.12-3.8.08-5.69-.07-2.56-.32-5.1-.27-7.69,0-.29.15-.58.13-.84l.71-.25c.21.09.2.25.22.43.11.99-.05,2.24-.02,3.27.15,4.52.35,8.73.14,13.29-.14,3.25.17,6.51.01,9.78-.05.88-.38,2.15-.27,2.99.02.14.29.07.42.04.79-.16,1.68-.6,2.48-.78l.2-.18c-.01-.17-.11-.33-.12-.5-.09-4.21-1-8.01-1.03-12.26-.04-4.29-.07-8.72.13-13.03.05-1.15.08-2.31.13-3.46h.78l-.13,14.33c.85-.23,1.7-.54,2.59-.52v.78l-2.45.66c-.64,3.49.52,6.82.88,10.23.11.96.03,2.22.18,3.09.01.1.07.35.17.36l1.21-.14v.78l-7.76,2.51c-.85,2.31-2.82,4.54-1.91,7.15.67.11.54-.22.8-.4.16-.13.49-.15.65-.29.22-.21,1.44-2.51,1.66-2.96.34-.69.54-1.34.85-2.02.68-.07,1.26-.41,1.92-.55,1.21-.25,2.58-.21,3.79-.55v1.04c-1.61.39-3.39-.25-4.93.59-.56,1.84-1.65,3.46-2.54,5.14l-1.89.86c.04.23.2.45.24.67.32,1.92.6,3.96.67,5.89.71.08,1.67-.13,2.35.07.47.13.86.61,1.25.83.75.42,1.55.77,2.29,1.22.88.52,1.66,1.2,2.56,1.67v1.69l-.57-.38-.42.52c-.3.2-2.35.17-2.83.12-.48-.04-1.09-.39-1.42-.38-1.69.08-3.99,2.63-4.35-.61-.04-.39.1-1.35-.14-1.55-.12-.1-.9-.27-1.12-.3-.65-.11-1.68-.24-2.33-.27-1.76-.1-3.71.97-5.53.97-.55.68-1.05,1.31-1.4,2.11-.2.45-.65,1.63-.67,2.07-.01.22-.02.22.2.2.67-.03,1.5-.34,2.21-.39.9-.07,2.35-.08,3.25,0,.75.05,1.2.24,1.5.98.46,1.15.59,2.57.9,3.78l.13,2.54c.21.05.22-.06.32-.13,1.03-.73,1.07-.89,2.31-1.33.21-.08.27-.32.55-.36.94-.17,3.68.17,4.54.64,1.6.86,1.71,4.1,1.78,5.72l3.09,1.84-.05.06ZM90.51,50.92c.05-.24-.82-.74-1.04-.88-1.26-.82-2.65-1.39-3.85-2.27h-1.91l-2.81.63c1.26.07,2.49.37,2.69,1.79.05.35-.07,1.7.23,1.72.95-.32,1.86-.96,2.88-1.03.63-.04,1.13.34,1.79.39.41.03,1.92.12,2.02-.35M87.4,68.79c.08-1.73.37-3.15.12-4.94-.09-.6-.31-1.17-.38-1.77-.1-.11-1.43,1.84-1.5,2.08-.32,1.15-.45,2.27-.6,3.45-.09.75-.87,2.3-1.71,2.14-.79-.15-.76-1.7-1.32-2.19-1,1.09-1.93,2.6-3.63,2.34-.86-.13-1.21-1.33-1.45-1.41l-5.03-.12-2.04,1.47v4.89c.58-.24,1.86-1.4,2.48-.99l.25,1.51c.48-.21,2.68-1.36,2.98-.7.16.34.13.85.13,1.21.83.02,1.64-.11,2.39.27h.08c.37-1.3.65-2.6,2.02-1.18l.54-1.15c.73-.23,2.57,1.97,3.19.48.13-.3.08-.59.16-.89.33-1.13,2.56-2.28,3.38-3.12-.03-.47-.09-.89-.07-1.37M86.29,61.56c.07-.13.09-.24.07-.39l-4.16-.72-9.02,6.85-.2.38c1.44-.36,2.85.25,4.32-.11.64.29.74,1.49,1.55,1.39,1.34-.15,1.82-1.73,2.75-2.33,1.11-.71,1.64,1.25,1.95,1.96.73-.58.5-1.5.6-2.27.06-.46.37-.99.49-1.47.06-.31-.01-.62.09-.96.2-.72,1.22-1.69,1.56-2.34M85.44,30.33c.33-2.64.46-5.27.41-7.94-.01-.32-.14-.59-.14-.9-.03-1.86.01-3.71.13-5.55-.12-.13-2.74.95-3.11,1.11-.72.3-2.25,1.22-2.83,1.34-1.1.24-2.05-.72-2.63-.57-.55.14-2.01,1.13-2.53,1.51-.27.18-.42.5-.76.67-.74.39-1.9.55-2.69.89-.2.27,1.24,2.78,1.17,3.32-.04.42-.44.37-.76.24-.16-.08-.15-.26-.17-.27-.52-.27-2.61.65-3.29.74-.69.09-2.14,0-2.85-.13-.24-.04-1.21-.35-1.31-.51-.29-.49.34-.77.14-1.17-.66.2-1.42.3-2.05.55-.79.3-.41.29-1.32.37-.73.05-1.44.45-2.08.64-1.1.35-2.25.61-3.28,1.15-.49.1-1.45-.62-2.17-.5-.22.03-.56.33-.88.42-.68.23-4.83,1.17-4.98,1.39l-.04,5.14.64.34c-.02-.25.07-.45.2-.65.59-.9,3.51-1.77,4.54-1.7,1.57.12,4.23,1.62,5.52,2.55.34.24.51.59.99.7l-.05.83.95,2.44,2.68-2.26c2-1.54,3.17-2.36,5.86-2,.58.08,3.66.97,4.12,1.22,1.03.55,2.21,1.64,3.26,2.33.81.52,1.98.9,2.59,1.7.73.95.55,2.09.79,3.19l2.14-.25c.17-.23-.31-1.22-.4-1.57-.55-2.27.66-4.51,1.73-6.47.61-1.1,1.01-1.96,2.36-2.2l.12-.14h-.02ZM82.71,46.56l-.9-5.2c-.65.11-1.27.35-1.92.48-.44.1-2.07.27-2.24.49-.27.35-.22,1.25-.38,1.7l-.26,3.85,5.7-1.32ZM78.29,62.13l-.89-6.05c-.23-.04-.26.07-.37.22-.46.62-.76,1.58-1.27,2.25-.28.37-1.18,1.3-1.65,1.28-.53-.03-.7-.59-1.13-.62-.16.74-1.16,1.27-1.48,1.83-.31.53-.54,1.61-.87,2.26-1.25,2.49-4.55,5-7.46,4.5-.77-.13-.63-1.37-.78-1.95-.57.53-1.65,2.12-2.36,2.32-.26.07-.44,0-.76.15-.74.34-1.71,1.73-2.44,2.12-.57.3-2.06.79-2.75,1.01-.84.27-1.54.51-2.46.38-.41-.05-.61-.3-.97-.38-.27,1.43-.21,2.91-.4,4.35-.05.37-.3.83-.26,1.18.04.38.4.39.6.59.37.39.59.9.73,1.42.8.03,1.69.41,2.45.73.25.1.43.39.69.32.5-.17.64-1.18,1-1.36.52-.27,1.29.01,1.73.31.53-.33.65-.71.89-1.21.44-.9,1.21.81,1.4,1.16.36.25,1.1-.59,1.55-.61l.04-1.39c.91-.38,1.77.07,2.7-.03-.16-.47-.16-2.2.35-2.33.53.03,1.03.95,1.65.75.44-.5.71-1.32,1.33-1.66.93-.52,1.07.83,1.86,1.03.15-1.6-.26-3.19-.13-4.76.07-.88.74-1.24,1.36-1.75,1.98-1.62,4.24-3.22,6.31-4.75.34-.25,1.73-1.03,1.79-1.33M76.23,45.59c.14-1.39-.23-4.46,1.82-4.36-.04-.73-.01-2.32-.45-2.86-.24-.28-2.5-1.53-2.87-1.57-.51-.05-.81.21-1.28.26-.7.07-1.61-.14-2.28.06-.53.15-1.6,1.02-2.17,1.35-.3.17-1.29.76-1.54.8-.61.09-.86-.16-1.29-.52-.47-.38-.73-.8-1.04-1.3-.99,1.04-2.41,1.67-3.84,1.7.16.64,1.01,1.91.89,2.51-.03.22-.28.36-.24.62,1.8.1,3.72.02,5.46.45,1.95.49,2.77,1.09,4.02,2.61.89,1.1,1.56,2.35,2.42,3.47l2.12-.53c-.12-.84.18-1.81.26-2.68M76.75,55.17c-1.31,0-2.63-.05-3.94.14-2.41.37-3.99,1.33-5.96,2.62-5.16,3.34-9.03,7.16-13.67,11.05-.59.5-1.26.91-1.85,1.4-.12.1-.25.04-.15.36.09.3,1.53.22,1.85.16.47-.08,2.74-.88,3.16-1.11.91-.49,1.91-2.02,2.9-2.44.24-.1.47-.03.72-.2.54-.34,1.3-1.46,1.79-1.92.41-.4,1.81-1.47,2.04-.37.11.52-.08,1.33,0,1.89,3.06.02,5.57-2.21,6.72-4.92.14-.33.14-.7.31-1,.1-.18,1.68-2.11,1.88-2.29.16-.15.52-.37.75-.37l.32.13.37.75c.53.15,1.09-.87,1.32-1.26.52-.84.92-1.8,1.45-2.64M73.77,36.14c.04-.21-.08-.26-.2-.38-1.28-1.25-4.74-2.33-6.48-2.21-1.4.1-2.16.66-3.24,1.45-1.12.8-2.17,1.75-3.15,2.71l.29.66c.87.05,1.85-.21,2.6-.63.51-.29,1.3-1.25,1.79-1.21.42.03.63.84.91,1.19.25.29.59.53.91.73.47.03,3-1.98,3.86-2.21.91-.24,1.76.22,2.71-.1M72.85,48.83l-.79-1.21c-.15-.11-1.02.36-1.35.37-.37,0-.66-.26-1.02-.25-.61.03-1.92.71-2.64.88-.56.13-1.03.24-1.58.03.39,1.12.23,2.28.26,3.46l-.78,5.8,4.11-2.72.81-.29c.28-2.28,1.25-4.51,2.99-6.07M68.25,23.89c.82-.09,1.78-.68,2.66-.65-.16-.89-.78-3.04-1.87-3l-2.74.51-1.22,3.01c.21.16,2.74.17,3.19.13M69.92,46.71c.5.07.89.46,1.38-.08-1.17-1.99-3.13-2.9-5.39-3.07-1.39-.1-2.89-.09-4.29-.12-.46,0-.6-.29-1.15,0-.25.14-2.32,1.83-2.43,2-.11.16-.16.25-.12.46,1.43.02,5.05-1.48,6.1-.33.28.3.42.92.67,1.28,1.25,1.88,3.62-.38,5.22-.16M64.27,57.97c.4-1.7,1.07-6.32.91-7.93-.15-1.42-.55-1.57-1.22-2.57-.75-1.12-.31-1.57-2.07-1.41-1.07.1-3.54.99-4.41.49-.18-.11-.21-.39-.27-.37-.74.54-1.26,1.29-1.89,1.89-.33.32-.78.35-.65.97,1.31.46,3.52.95,4.48,1.98.87.95,1.06,2.94,1.41,4.19.14.51.48,1.77.68,2.17.23.45,1.07.88,1.53,1.08.34.14.93.49,1.22.21.12-.23.22-.45.28-.7M63.31,10.73c.09-.04.09-.09,0-.13v.13ZM60.9,42.14l-3.2-7.43c-1.83.28-3.39,2.15-5.19,2.21-.53,0-1.53-.43-1.61-1.03h-.18c-.61.5-1.3,1-1.97,1.4-1.47.88-3.47,1.12-1.97,3.33.23.35.82.72.89,1.07l-.11,4.93c.08.25,1.69,1.29,2.02,1.36.42.1.87-.02,1.28.03.47.05,1.7.49,2,.33.4-.53,1.18-.82,1.63-1.24,1.74-1.64,3.68-3.84,5.92-4.88.16-.08.34-.08.51-.07M60.24,61.47c-.13-1.15-.09-2.29-.3-3.44-.21-1.06-.63-2.08-.92-3.12-.21-.75-.4-2.95-1.18-3.24-.11-.04-.27-.08-.31.07-.42.5-1.02,1.01-1.56,1.4-.69.49-2.05,1.42-2.75,1.8-.77.39-1.3.1-1.97-.29l-1.21.86c.03.22.11.41.11.63.05,2,0,4.01,0,6.01,0,.27-.13.51-.13.76.02.85.47,1.03.83,1.65.35.59.61,1.14,1.01,1.73.35.5.93.95,1.01,1.51,1.03-.85,2.02-1.77,3.06-2.6.98-.77,2.58-1.67,3.38-2.48.34-.34.55-.92.95-1.26M57.4,33.73c0-.36-2.31-1.51-2.73-1.7-.88-.37-1.79-.72-2.76-.55-.51.09-2.15.66-2.56.96-.66.48-1.29,2.23-1.62,3.06-.1.25-.79,1.87-.72,1.95.09.09.49-.17.61-.24.46-.24,1.03-.59,1.46-.87.36-.24,1.6-1.29,1.79-1.35.11-.03.23-.04.35,0l.47.97c1.44.68,2.48-.46,3.6-1.09.69-.4,1.44-.71,2.12-1.13M53.79,53.45c1.08-.7,2.33-1.23,3.09-2.32-2.21-.63-5.29-2.18-7.6-1.83-.57.09-3.68,2.31-4.34,2.81-.32.24-1.26.94-1.44,1.16-.13.15-.15.26-.12.46,1.04.34,2.74-.79,3.64-.6.46.11.71,1.53.89,1.98.05.14-.09.23.21.18.9-.12,2.33-1.69,3.01-1.8.5-.1,1.01.93,1.64.75.17-.05.78-.64,1.03-.79M52.08,68.53c.04-.38-1.18-1.69-1.46-2.19-.25-.47-.37-1.03-.6-1.49-.08-.16,0-.21-.28-.16-.05.83-1.52,5.54-1.95,5.8-.15.1-.35.09-.51.05l-.12-.54c.41-.92.9-1.84,1.25-2.79.32-.88.95-2.75,1.07-3.62v-7.62c-.66.14-1.21.79-1.95.46-.76-.57-.82-1.57-1.04-2.41-1.3.11-2.68,1.18-3.85.14-.28-.05-1.58,1.62-1.79,1.96-.73,1.17-.5,1.89-.79,3.12-.28,1.2-1.69,4.02-1.63,5,.02.29.61,1.3.75,1.74.45,1.38.94,3.51,1.85,4.65.29.37.81.63.91,1.11.3.05.41-.3.65-.45.22-.13,1.46-.67,1.65-.71.2-.03.37.04.53.14l.36.75c.36.08,1.47-1.41,1.91-.49.26.55-.46,1.55-.28,2.1.16.51,2.01.04,2.43-.08.33-2,1.07-3.5,2.89-4.47M45.58,38.62l2.08-5.21-1.3-.13c0,.3-.07.5-.36.62-.38.16-2.22.49-2.71.53-.29.03-.59.04-.88,0l-.21-.5h-.2c-.26.27-1.56,1.18-1.74.58-.23-.76,1.91-1.68,2.5-1.48l.29.39.68-.15.14-5.21c-1.18.14-2.36.34-3.53.57-.98.18-4.39,1.17-5.07.97-.91-.26-.7-.07-1.45-.09-.4-.01-1.43-.21-1.95-.27-.63-.07-1.26-.17-1.89-.26l.13,13.5c.05.33.99.76,1.3,1.03.34.29.59.63.85.98,1.71-2.26,2.29-5.76,5.04-7.06.9-.42,2.96-1.12,3.91-1.01.48.05,2.51,1.07,3.07,1.36.45.24.89.54,1.29.85M46.49,42.66c.17-.77-.4-1.07-.76-1.65-.36-.61-.45-1.1-.99-1.61-.43-.4-2.76-1.61-3.32-1.76-1.04-.28-2.74.24-3.69.74-.96.5-.4.82-.74,1.68.65.22,2.22-.61,2.59-.05.47.48-.48,2.83-.25,3.06.85.02,1.69-.04,2.54,0,.53.02.94.24,1.53.11.56-.13,1.08-1.14,1.2-1.67.79-.14,1.17.92,1.88,1.18M46.49,15.08v-1.62c-.27.15-.52.16-.83.13-.41-.05-.62-.31-.99-.39v13.76c.03.34.4.13.4.65,0,.3-.39.17-.4.51v4.89c.62-.15,1.08-.15,1.69,0l-.12-17.8s.25-.13.25-.13ZM46.07,48.69c.2-1.73.36-3.47.27-5.22-.4-.07-.76-.82-1.08-.82-.26,0-.35.36-.51.53-.48.5-.85.85-1.58.9-.37.02-.6-.12-.89-.13-1.04-.02-2.18.05-3.19-.18-1.29-.3,0-2.28-.13-3.2l-2.38.24c-.55-.34-.13-.89-.22-1.41-.08-.1-.73.96-.8,1.09-.95,1.62-1.69,3.39-2.68,5l.37,2.77c.89-.22,1.79-.46,2.7-.62,1-.17,2.81-.52,3.74-.54,1.91-.04,4.02,2.23,4.66,3.9l1.72-2.32h0ZM43.88,27.14c-.11-3.94.2-8,.02-11.92-.02-.52-.12-1-.14-1.57,0-.14.09-.36-.12-.33-.11.54-.97,1.12-1.49,1.05-.61-.09-.59-.92-.98-1.18l-3.72,4.55c-1.46.7-3.55.35-4.85,1.26-.47.34-.74.86-1.11,1.24-.36.37-1.38,1.22-1.46,1.65l-.03,6.04c.79.14,1.61.06,2.41.12,1.27.12,2.73.46,4.02.52,1.19.08,3.09-.6,4.32-.87,1.04-.22,2.09-.37,3.13-.57M39.67,51.14h3.58c-.05-.28-.35-.63-.53-.85-.62-.74-1.67-1.8-2.66-1.89-.97-.1-3.08.35-4.12.55-1.9.39-3.68,1.07-5.56,1.53v3.12l3.86-2.07.3.04.35.47c.37-.03.78.03,1.15,0,1.04-.12,2.6-.91,3.63-.91M42.86,52.18c-.76-.13-1.52-.18-2.28-.14-1.83.11-3.68.91-5.46.92-.42,0-.84-.29-1.03-.65-1.22.58-2.38,1.53-3.71,1.82l.31,7.05c.15.23.77.09,1.05.12.63.08,1.29.19,1.91.3.67.11,2.13.64,2.7.41.33-.13,2.24-1.5,2.4-1.76.22-.37.58-1.85.6-2.28.02-.38-.15-.69-.13-1.02.11-1.52,2.58-3.75,3.64-4.76M37.58,15.4l1.61-1.89c-.16-.83-.33-1.64-.24-2.51-3.04.9-3-1.04-.59-2.09l.72-2.68c-.14-.03-.4.18-.51.27-.18.15-.44.5-.62.55-1.72.52-.56-2.6-.69-2.71l-.65-.2c-.62-.6.22-2.19.13-2.28l-1.04.84c-.43.73-1.18,2.18-2.14,2.17-.3,0-.51-.2-.89-.12-.25.07-.61.4-.91.53-.83.36-1.66.43-2.3-.29.03.85-.04,1.71,0,2.55.07,1.33.34,2.71.4,4.04.07,1.72-.21,3.59,0,5.35.02.21,0,.33.2.46.53-.67.91-1.21,1.76-1.5,1.7-.61,2.57-.24,4.23-.32.5-.03,1.01-.22,1.54-.16M37.59,70.93c1.04-1.6.71-3.67.03-5.36-.26-.66-.68-1.24-1.01-1.86l-.64.52c-1.65.52-3.32,1.22-5.07,1.11l.44,7.83c.91.42,1.8-.26,2.72-.16.24-.4.77-.75,1-1.09.16-.25.21-.74.47-.83.75-.25.95.45,1.47.76-.06-.47.38-.61.59-.92M35.69,63.55c.21-.08.35.08.28-.29-.87.14-1.51-.28-2.33-.46-.39-.09-2.71-.48-2.86-.33l.13,2.35c1.65-.25,3.22-.71,4.78-1.27M32.14,48.53c.15-.28-.13-1.59-.23-1.99-.12-.42-.37-1.12-.6-1.49-.12-.21-.94-1.21-1.19-.96l.26,5.09c.38-.16,1.6-.36,1.76-.65M24.42,71.59v-6.51c-.55.13-.94.86-1.22,1.32-.6.98-1.08,2.17-1.64,3.19-.02.3.42.29.51.53.12.37-.03,1.26.14,1.74l2.21-.26h0ZM24.22,63.64c.12-.23.11-1.6,0-1.83l-.58-.39c-.56,2.57-1.93,1.16-3.44.39-.43.46-1.4,1.76-1.92,1.99-.56.24-2.4.41-3.02.36-.42-.03-1.86-.33-1.99-.74-.33-.45.91-2.11.76-2.26-.93.29-1.68.41-2.66.39-.17,0-.36-.12-.52-.12-.49,0-1.04.87-1.42,1.16l-2.54,3.9c1.02.4,1.94,1.08,2.9,1.6,1.07.58,2.2,1.08,3.3,1.64,1.29.68,2.06,1.57,3.61,1.46.22-.01.84-.1,1.01-.15.3-.1.33-.5.8-.51.52,0,.83.48,1.18.79.42-.38.47-.92.68-1.39.87-1.83,1.96-4.21,3.21-5.78.18-.22.55-.34.65-.52M24.03,53.74v-2.86c-.94.15-1.98.12-2.91.27-.9.14-1.08.23-1.7.89-.57.62-1,1.2-.83,2.09l3.32-1.03,2.13.64h-.01ZM24.03,49.5v-5.8c-.82,0-1.68.4-2.41.78l-.67,3.1c-.05.65-.26,1.39-.3,2.04-.01.25-.01.19.2.2.61.02,1.02-.1,1.56-.13.53-.04,1.24.16,1.63-.2M24.03,59.86l-.14-5.32c-.54-.09-1.16-.54-1.64-.64-.89-.18-2.66.86-3.62,1l-.42-.15-.28-.62-.91,3.13,2.33.46,4.68,2.14ZM23.78,11.32c.04-1.89-.05-3.79,0-5.68l-1.01.29c-.13.42-.38,1.11-.68,1.44-.2.23-.63.34-.78.54-.18.25-.24.87-.44,1.25-.48.89-1.07,1.06-2.02.78-.02.45.02.91,0,1.37-.11,1.52-.15,2.51-.13,4.04.09,4.54-.08,9.08,0,13.62,1.7.09,3.36-.5,5.06-.39-.26-2.7-.09-5.43-.12-8.15-.04-3.14.06-5.99.13-9.11M22.47,61.95l.24-1.28c-1.69-.91-3.48-1.77-5.35-2.23-1.85.83-4.13.98-5.66,2.34l3.25-.46c.56.39-.89,2.23-.92,2.81,1.32.45,2.7.23,4.03-.07l2.03-2.26s2.38,1.15,2.38,1.15ZM21.69,43.31c.13-.08-.34-.59-.44-.65-.22-.14-.45-.08-.56-.15-.21-.13-.53-1.37-.7-1.71-.34-.68-1.22-1.81-1.99-1.9-1.25-.16-3.07-.27-4.25.15-1.04.38-2.21,2.67-2.82,3.62,2.38-.73,1.12,1.17,1.43,1.55.91.17,2.07.4,2.88.83.24.12.48.52.67.49.78-.67,1.67-1.76,2.79-1.54l.36.75,1.34.14c.1-.79.43-1.48,1.3-1.57M17.93,34.39V10.6l-1.18.33v24.05c.37-.12,1.13-.18,1.18-.59M17.14,72.71l.39-.99h-2.8c-.09,0-1.28-.8-1.54-.94-2.15-1.13-4.35-2.16-6.38-3.49l1.89,4.36c1.07.52,2.24.73,3.34,1.22,1,.45,1.7.99,2.84,1.19.14.03.29,0,.44.01-.11-.58.39-1.37.99-1.44.28-.03.7.16.83.08M15.84,28.58c-.04-3.53.05-7.08.01-10.63-.01-.3-.14-.59-.15-.9-.02-1.9.22-4.32.02-6.13-.02-.12-.53-1.26-.61-1.36-.09-.12-.27-.15-.37-.27-.36-.39-.15-1.18-.21-1.68-1.06.43-1.88.19-2.91-.13-.81.57-1.46,1.35-2.57.88-.94-.4-.86-1.59-1.92-1.21,1.03,1.67,1.59,3.7,2.86,5.21.39.47,1.56,1.24,1.23,1.89-.34.66-1.23.5-1.82.52-.21.01-.23-.05-.2.2.5.65.77,1.45,1.3,2.09.31.38,1.95,1.45,1.21,1.9-.42.07-1,.26-1.41.26-.24,0-.95-.34-.84.04l2.86,4.44-.49.43-2.24-.17c.64.95,1.33,1.87,2.08,2.73.49.57,1.17.98,1.42,1.71l2.73.18h.02Z"/>
        <path class="cls-14" d="M92.07,51.91v15.77l-3.09-1.84c-.07-1.62-.17-4.86-1.78-5.72-.86-.47-3.6-.82-4.54-.64-.28.04-.35.28-.55.36-1.23.43-1.28.6-2.31,1.33-.11.08-.12.18-.33.13l-.13-2.53c-.32-1.22-.45-2.63-.9-3.79-.29-.74-.75-.92-1.49-.98-.9-.08-2.35-.07-3.25,0-.71.05-1.54.36-2.21.39-.22.02-.21.02-.2-.2.02-.43.48-1.62.67-2.07.35-.8.85-1.43,1.4-2.11,1.82,0,3.77-1.07,5.53-.97.65.03,1.68.16,2.33.27.22.03,1,.21,1.12.3.24.21.1,1.16.14,1.56.36,3.24,2.65.68,4.35.61.33,0,.94.34,1.42.38.48.05,2.52.08,2.83-.12l.42-.52.57.38h0Z"/>
        <path class="cls-2" d="M87.14,33.87c-.56,1.84-1.65,3.46-2.54,5.14l-1.89.86c.04.23.2.45.24.67.33,1.91.6,3.96.67,5.89.49.05,1.09-.02,1.64-.02,1.23-4.67,2.61-9,4.88-13.01-1.03-.02-2.06-.06-3,.45"/>
        <path class="cls-21" d="M90.14,33.41c-2.26,4.01-3.65,8.34-4.88,13.01.25,0,.5.02.71.08.47.13.86.61,1.25.83.75.42,1.55.77,2.29,1.22.88.52,1.66,1.2,2.56,1.68v-16.95c-.62.15-1.28.15-1.93.14"/>
        <path class="cls-4" d="M82.34,38.79c.02.08.04.15.06.23.67.11.54-.22.8-.4.16-.13.49-.15.65-.29.22-.21,1.44-2.51,1.66-2.96.34-.68.54-1.34.85-2.02.68-.07,1.26-.41,1.92-.55,1.21-.25,2.58-.21,3.79-.55v-2c-4.18.18-7.5,4.24-9.73,8.56"/>
        <path class="cls-4" d="M84.31,31.88c-.82,2.24-2.7,4.41-1.97,6.92,2.23-4.32,5.55-8.37,9.73-8.56v-.87l-7.76,2.51Z"/>
        <path class="cls-4" d="M89.97,21.87c.2,1.13.41,2.26.53,3.4.05.47.06,1.01.07,1.54.49-.2.99-.37,1.5-.53v-5.06c-.7.23-1.4.45-2.1.65"/>
        <path class="cls-12" d="M92.07,14.38l-2.45.66c-.43,2.33-.05,4.58.35,6.83.7-.2,1.4-.42,2.1-.65v-6.85"/>
        <path class="cls-15" d="M92.07-.22v13.81c-.89-.02-1.75.29-2.59.52l.13-14.33c.81.01,1.65,0,2.46,0"/>
        <path class="cls-17" d="M90.88,85.57c.14.2.15.48-.07.63-.14.04-.28.14-.42.18-.43.14-1.66.54-2.03.58-.41.05-.75,0-.83-.45.11-.45.16-.85.13-1.3-.02-.2.1-.38-.19-.33-.3.34-.69.64-.98.98-.41.51-.64,1.39-1.35,1.25l-.6-2.1c-.35.55-.81,2.71-1.39,2.86-.29.08-.52-.26-.68-.45-.39-.45-.81-1.1-1.05-1.63-.1.01-.24-.05-.25.07-.05.45-.02,1.1,0,1.57,0,.28.28.93-.22,1.1-.4.12-2.29-1.02-2.91-1.03-.24.75.6,1.94.53,2.53-.07.57-.6.24-.88.24-.25.01-.41.12-.73.07-.23-.03-1.14-.35-1.36-.47-.47-.25-.53-.57-.37-1.08.66-.51,1.34.13,2.02.27-.24-.59-.72-2.75.09-2.98.48-.14.98.46,1.39.65.48.24,1.04.35,1.52.63.01-.8-.26-2.7.98-2.62.86.15,1.17,1.11,1.68,1.71.17,0,.93-2.46,1.55-2.87,1.07-.72,1.21,1.27,1.12,1.96.65-.41,1.08-1.18,1.7-1.62,1.69-1.19,1.18,1.01,1.03,2.01.87-.08,1.69-.85,2.57-.36"/>
        <path class="cls-6" d="M89.47,50.04c.22.14,1.09.64,1.04.88-.1.47-1.6.38-2.02.35-.66-.05-1.16-.43-1.79-.39-1.02.08-1.93.72-2.88,1.03-.29-.02-.17-1.37-.23-1.72-.19-1.42-1.43-1.73-2.69-1.79l2.81-.64h1.91c1.2.89,2.59,1.47,3.85,2.28"/>
        <path class="cls-18" d="M86.85,20.12c.03,2.28.15,4.56.04,6.84-.05.88-.38,2.15-.27,2.99.02.14.29.07.42.04.43-.09.89-.26,1.34-.42.75-3.02.05-6.43-1.53-9.45"/>
        <path class="cls-19" d="M89.72,29.03c-.01-.17-.11-.33-.12-.5-.09-4.21-1-8-1.03-12.26-.04-4.29-.07-8.72.13-13.03.05-1.15.08-2.3.13-3.46h-3.12c-.09.23.12.51.13.65l.7-.25c.21.09.2.25.22.43.11.99-.05,2.24-.02,3.27.15,4.52.35,8.73.14,13.29-.04.98-.04,1.96-.02,2.94,1.58,3.02,2.28,6.43,1.53,9.45.39-.14.77-.28,1.14-.36l.2-.19v.02Z"/>
        <path class="cls-8" d="M87.52,63.85c.25,1.78-.04,3.21-.12,4.94-.02.48.03.9.07,1.37-.82.84-3.06,1.99-3.38,3.12-.09.3-.03.59-.16.89-.62,1.49-2.46-.71-3.19-.48l-.54,1.15c-1.36-1.41-1.65-.12-2.01,1.17h-.08c-.76-.37-1.56-.24-2.39-.26,0-.36.03-.87-.13-1.21-.3-.66-2.5.49-2.98.7l-.25-1.51c-.62-.41-1.9.75-2.48.99v-4.89l2.04-1.47,5.03.12c.24.09.6,1.28,1.45,1.41,1.7.26,2.63-1.25,3.63-2.34.56.49.53,2.03,1.32,2.19.85.16,1.63-1.39,1.71-2.14.14-1.17.27-2.3.6-3.45.06-.24,1.4-2.19,1.5-2.08.07.6.29,1.17.38,1.77"/>
        <path class="cls-6" d="M86.36,61.16c.02.15,0,.26-.07.39-.34.65-1.37,1.62-1.56,2.34-.1.34-.02.65-.09.96-.12.48-.42,1.01-.49,1.47-.1.77.13,1.7-.6,2.27-.31-.71-.85-2.66-1.95-1.96-.93.6-1.41,2.18-2.75,2.33-.81.1-.91-1.1-1.55-1.39-1.47.36-2.88-.25-4.32.11l.2-.38,9.02-6.85,4.16.72h0Z"/>
        <path class="cls-15" d="M85.98,8.96c.04,1.89,0,3.8-.08,5.69-1.03.47-2.1.82-3.14,1.27-.78.34-2.61,1.42-3.25,1.56-.75.16-1.36-.5-2.05-.5-.6,0-1.28.54-1.8.78l-.86-1.42c.7.05,1.42.23,2.11-.02.26-.1.24-.3.23-.55-1.38-.71-2.18-2.06-2.86-3.4l.83.07.97-.46c.11-.39-.41-.84-.62-1.2-.3-.51-.52-1.08-.8-1.6l1.17-.05.49-.64c-.07-.57-2.29-2.41-2.83-3.02-.11-.12-.29-.2-.26-.39.88-.64,2.65.62,2.6-.9-.06-.52-1.46-1.25-1.88-1.63-.79-.71-1.33-1.73-1.63-2.74h10.77c-.2,1.28-.57,2.74-1.06,3.95-.28.7-1.29,2.25-1.4,2.76-.02.14-.03.63.01.71l.34.11c.39.03.7-.6,1.08-.42-.48,1.43-1.1,2.81-1.93,4.07v.47c.21.48.59.37.89.03.65-.72,2.03-4.01,2.18-4.99.14-.83-.36-.84-.96-.7-.43.1.12-.55.2-.72.75-1.61,1.32-3.51,1.57-5.26h1.69c-.09.23.12.51.13.65.02.26-.13.54-.13.84-.05,2.59.21,5.13.27,7.69M83.02,15.53c.42-.12,1.27-2.06,1.13-2.59-.25.16-.51.43-.72.65-.24.27-.97,1.22-.99,1.5,0,.39.21.56.57.43M83.03,12.02c.52-1.01,1.1-2.22.99-3.37-.4-.41-.76,1.14-.88,1.39-.55,1.17-1.6,2.32-2.4,3.33l-.11.55.27.4c.73.37,1.85-1.77,2.12-2.31"/>
        <path class="cls-4" d="M83.41,23.35c.34,1.46.19,3.24.09,4.64-.03.53.12,1.12-.15,1.61-.29.24-.59,0-.91.04-.18.02-.39.17-.59.22-.66.12-.94-.2-1.4-.61-.92.51-1.95,1.93-3.02,2.04-.47.05-1.08-.3-1.53-.36-1.35-.17-2.46.4-3.63.39-.79-.01-.85-.29-.87-1.03l-3.17-1.07c-1.18.01-2.49.46-3.64.52-.22.01-.3-.01-.43-.2.01-.17.11-.3.21-.45.23-.33.85-.98,1.15-1.32.34-.36,1.82-1.91,2.14-2.02,1.59-.3,3.64-.38,4.88.86.33-.59.61-1.2.9-1.82-4.99.67-10.01,1.39-14.92,2.8,1.08,0,3.25,1.09,3.25,2.18-1.51.88-3.05,1.63-4.61,2.29.44.27.84.53,1.15.76.34.24.51.59.99.7l-.05.83.95,2.44,2.68-2.26c2-1.54,3.17-2.36,5.86-2,.59.08,3.66.97,4.12,1.22.7.38,1.48,1.01,2.23,1.58,3.74-1.66,7.07-3.98,10.46-5.97.23-2.16.33-4.31.31-6.48-.81.17-1.62.32-2.44.47"/>
        <path class="cls-16" d="M76.11,36.07c.81.52,1.98.9,2.59,1.7.73.95.55,2.09.79,3.19l2.14-.25c.17-.23-.31-1.22-.4-1.57-.55-2.27.66-4.51,1.73-6.47.61-1.1,1.01-1.96,2.36-2.2l.12-.14c.04-.32.07-.65.1-.97-3.4,1.99-6.72,4.31-10.46,5.97.35.27.7.53,1.03.74"/>
        <path class="cls-12" d="M58.51,27.61c4.91-1.41,9.93-2.13,14.92-2.8.5-1.1.97-2.22,1.57-3.27.17-.29.43-.82.65-1.04.43-.47,3.39-1.57,4.03-1.57.39,0,1.39.51,1.68.8.39.39,1.71,2.5,1.9,3.05.06.18.12.37.16.57.82-.15,1.63-.3,2.44-.47v-.48c-.01-.32-.14-.59-.14-.9-.03-1.86.01-3.71.13-5.55-.12-.13-2.74.95-3.11,1.11-.72.3-2.25,1.22-2.83,1.34-1.11.24-2.05-.72-2.63-.57-.55.14-2.01,1.13-2.53,1.51-.27.18-.42.5-.76.67-.74.39-1.9.55-2.69.89-.2.27,1.24,2.78,1.17,3.32-.04.42-.45.37-.76.24-.16-.08-.15-.26-.17-.27-.52-.27-2.61.65-3.29.74-.69.09-2.14,0-2.85-.13-.24-.04-1.21-.35-1.31-.51-.29-.49.34-.77.14-1.18-.66.2-1.42.3-2.05.55-.79.31-.41.29-1.32.37-.73.05-1.44.45-2.08.64-1.1.35-2.25.61-3.28,1.15-.49.1-1.45-.62-2.17-.5-.22.03-.56.33-.88.42-.68.23-4.83,1.17-4.98,1.39l-.04,5.14.64.34c-.02-.25.07-.45.2-.65.59-.9,3.51-1.77,4.54-1.7,1.19.09,2.99.97,4.36,1.8,1.56-.66,3.1-1.41,4.61-2.29,0-1.09-2.17-2.18-3.25-2.18"/>
        <path class="cls-17" d="M84.15,12.94c.14.53-.7,2.47-1.13,2.59-.37.12-.57-.04-.57-.43.01-.28.75-1.23.99-1.5.21-.23.47-.49.72-.65"/>
        <path class="cls-17" d="M84.02,8.64c.12,1.15-.47,2.36-.99,3.37-.27.53-1.4,2.68-2.12,2.31l-.27-.4.11-.56c.79-1.01,1.84-2.15,2.39-3.33.12-.25.48-1.81.88-1.39"/>
        <path class="cls-17" d="M84.02-.22c-.25,1.75-.82,3.65-1.57,5.26-.08.16-.63.82-.2.72.61-.14,1.11-.13.96.7-.15.98-1.53,4.27-2.18,4.99-.3.34-.68.45-.89-.03v-.47c.82-1.26,1.45-2.63,1.93-4.07-.38-.17-.69.46-1.08.42l-.34-.11c-.04-.08-.03-.57-.01-.71.11-.51,1.12-2.07,1.4-2.76.49-1.21.87-2.67,1.06-3.95h.92Z"/>
        <path class="cls-17" d="M83.25,22.78c.54,1.53.37,3.62.25,5.21-.03.53.12,1.12-.15,1.61-.29.24-.58,0-.91.04-.18.02-.39.17-.59.22-.66.12-.94-.2-1.4-.61-.92.51-1.95,1.92-3.02,2.04-.47.05-1.08-.3-1.53-.36-1.35-.17-2.46.4-3.63.39-.79-.01-.84-.29-.87-1.03l-3.17-1.07c-1.18.01-2.49.46-3.64.52-.22.01-.3-.01-.43-.2.01-.17.11-.3.21-.45.23-.33.85-.98,1.15-1.32.34-.36,1.82-1.91,2.15-2.02,1.59-.3,3.64-.38,4.88.86.91-1.64,1.54-3.45,2.46-5.09.17-.29.43-.82.65-1.04.43-.47,3.39-1.57,4.03-1.57.39,0,1.39.51,1.68.8.39.39,1.71,2.5,1.9,3.05M81.37,29.09l1.07-.39c-.16-1.91-.11-3.84-.4-5.75l-1.57-2.66c-.39-.25-.69-.35-1.16-.27-.52.09-2.9.99-3.22,1.34-.35.38-.81,1.44-1.06,1.94-.99,1.99-1.78,4.1-2.68,6.12l.25.73c.94.01,1.84-.4,2.79-.38.75.01,1.33.39,2.07.39,1.36-.61,2.48-2.92,3.91-1.06M71.68,29.09c.35-.92.65-1.65-.52-2.13-.68-.28-3.1-.32-3.75,0-.46.22-1.04,1.38-1.56,1.69.86.22,2.07-.34,2.9-.28.52.03,2.49,1.11,2.93.73"/>
        <path class="cls-21" d="M81.81,41.36l.9,5.2-5.7,1.32.26-3.85c.16-.45.11-1.35.38-1.7.17-.22,1.8-.39,2.24-.49.65-.13,1.27-.37,1.92-.48"/>
        <path class="cls-21" d="M82.11,23.49c-2.63,2.51-5.28,2.95-8.52,3.02-.41.97-.81,1.94-1.23,2.9l.25.73c.94.01,1.84-.4,2.78-.38.75.01,1.33.39,2.07.39,1.37-.61,2.48-2.92,3.91-1.05l1.07-.39c-.15-1.73-.13-3.48-.34-5.21"/>
        <path class="cls-2" d="M82.05,22.95l-1.57-2.66c-.39-.25-.69-.35-1.16-.27-.52.09-2.9.99-3.22,1.34-.35.38-.81,1.44-1.06,1.94-.52,1.05-.99,2.14-1.45,3.23,3.24-.07,5.89-.51,8.52-3.02-.02-.18-.03-.36-.06-.54"/>
        <path class="cls-8" d="M77.4,56.08c-.23-.04-.26.07-.37.22-.46.62-.76,1.58-1.27,2.25-.28.37-1.18,1.3-1.65,1.28-.53-.03-.71-.59-1.13-.62-.16.74-1.16,1.27-1.48,1.83-.31.53-.54,1.61-.87,2.26-1.25,2.49-4.55,5-7.46,4.5-.03,0-.04-.02-.06-.03-3.32,4.16-7.83,6.98-12.83,9.61.11.06.22.11.3.2.37.39.59.9.73,1.42.8.03,1.69.41,2.45.73.25.1.43.39.69.31.5-.17.64-1.18,1-1.36.52-.27,1.29.01,1.73.32.53-.33.65-.71.89-1.21.44-.9,1.21.8,1.4,1.16.36.25,1.1-.59,1.55-.61l.04-1.39c.91-.38,1.77.07,2.7-.03-.16-.47-.16-2.2.35-2.33.53.03,1.03.95,1.65.75.45-.5.72-1.32,1.33-1.66.93-.52,1.07.83,1.86,1.03.15-1.6-.26-3.19-.13-4.76.07-.88.74-1.24,1.37-1.75,1.98-1.62,4.24-3.22,6.31-4.75.34-.25,1.73-1.03,1.79-1.33l-.89-6.05h0Z"/>
        <path class="cls-10" d="M63.11,67.78c-.69-.19-.57-1.36-.72-1.92-.57.53-1.65,2.12-2.36,2.32-.26.07-.45,0-.76.15-.74.34-1.71,1.73-2.44,2.12-.57.3-2.06.79-2.75,1.01-.83.27-1.54.51-2.46.38-.41-.05-.61-.3-.97-.38-.27,1.43-.21,2.91-.4,4.35-.05.37-.3.83-.26,1.18.02.22.15.31.29.39,5.01-2.62,9.51-5.45,12.83-9.61"/>
        <path class="cls-2" d="M74.72,36.8c-.51-.05-.81.21-1.28.26-.7.07-1.61-.14-2.27.05-.53.15-1.6,1.02-2.17,1.35-.3.17-1.29.76-1.54.81-.61.09-.86-.16-1.29-.52-.47-.38-.73-.8-1.04-1.3-.99,1.04-2.41,1.67-3.84,1.7.16.64,1.01,1.91.89,2.51-.03.22-.28.36-.24.62,1,.05,2.03.06,3.06.12,3.66-1.88,8.65-1.8,11.94-4.48-.77-.47-1.96-1.09-2.22-1.12"/>
        <path class="cls-8" d="M76.94,37.92c-3.29,2.68-8.28,2.6-11.94,4.48.82.05,1.63.13,2.4.32,1.95.49,2.78,1.09,4.02,2.61.89,1.1,1.56,2.35,2.42,3.47l2.12-.53c-.12-.84.18-1.81.26-2.68.14-1.39-.23-4.46,1.82-4.36-.04-.73-.01-2.32-.45-2.86-.07-.08-.33-.26-.65-.45"/>
        <path class="cls-4" d="M76.75,55.17c-1.31,0-2.63-.05-3.95.14-2.41.37-3.99,1.33-5.96,2.62-3.28,2.12-6.04,4.44-8.81,6.85,5.76-3.04,11.6-6.01,17.63-7.64.36-.67.69-1.35,1.09-1.98"/>
        <path class="cls-6" d="M58.03,64.79c-1.58,1.38-3.17,2.78-4.85,4.2-.59.5-1.26.91-1.85,1.4-.12.1-.25.04-.15.36.09.3,1.53.22,1.85.16.47-.08,2.74-.88,3.16-1.11.91-.49,1.91-2.02,2.9-2.44.24-.1.47-.03.72-.2.54-.34,1.3-1.46,1.79-1.91.41-.4,1.81-1.47,2.04-.37.11.52-.08,1.33,0,1.89,3.06.02,5.57-2.21,6.72-4.92.14-.33.14-.7.31-1,.1-.18,1.68-2.11,1.87-2.29.16-.15.52-.37.75-.37l.31.13.37.75c.53.15,1.09-.87,1.32-1.26.13-.21.24-.44.36-.66-6.03,1.62-11.86,4.6-17.63,7.63"/>
        <path class="cls-13" d="M75.02,15.39c-.6-.74-1.69-2.35-1.66-3.29,0-.18.01-.36.22-.43l1.34.11c-.39-.54-1.7-2.64-1.17-3.19.37-.37,1.25.05,1.03-.51-.66-.66-2.55-2.07-2.59-3.01-.01-.27.02-.5.27-.64l1.81-.46c-1.62-.78-2.57-2.47-2.98-4.18h-2.11c-2.66,6.74-1.29,13.48-4.17,20.22,0,.32,0,.82-.08,1.37.24-.64.51-1.35.97-1.52.65-.26,2.97-.61,3.64-.51.64.1.92.96,1.42.91.69-.44,1.89-.51,2.54-.86.36-.18.84-.88,1.31-1.05-.09-.78-1.29-1.94-.79-2.7.25-.38.74-.11,1.04-.01.12.04.29.15.26-.08-.16.02-.21-.04-.29-.16"/>
        <path class="cls-3" d="M69.18-.22h-2.95c-.46,2.55-1.68,4.86-3.12,6.97.73.45,1.2-.73,1.76-.72.3,0,.47.45.46.71-.03.52-.85,2.12-1.15,2.64-.17.32-.61.69-.67,1.02-.09.41.47.02.69.08.13.03.26.21.33.34.39,1.35-1.73,4.25-2.54,5.35-.08.11-.13.16-.25.16h.98c.28.22-.16,1.41-.28,1.73-.15.41-.52,1-.62,1.34-.1.33.37.13.53.25.18.12.15,1.63.12,1.96-.03.41-.26.83-.2,1.24l2.28-.59c.13-.21.25-.54.38-.89.08-.55.08-1.06.08-1.37,2.88-6.74,1.52-13.48,4.17-20.22"/>
        <path class="cls-4" d="M67.09,33.55c-1.4.1-2.16.66-3.24,1.45-1.12.8-2.17,1.75-3.15,2.71l.2.46c3.46-1.98,7.09-3.4,10.67-3.61-1.51-.65-3.35-1.08-4.48-1"/>
        <path class="cls-6" d="M73.57,35.76c-.45-.44-1.18-.86-2-1.21-3.59.21-7.21,1.63-10.67,3.61l.09.21c.87.05,1.85-.21,2.6-.63.51-.29,1.3-1.25,1.79-1.21.42.03.63.84.91,1.19.25.29.59.53.91.73.47.03,3-1.98,3.86-2.21.91-.24,1.76.22,2.71-.1.04-.21-.08-.26-.19-.38"/>
        <path class="cls-14" d="M72.05,47.62l.79,1.21c-1.74,1.56-2.71,3.79-2.99,6.07l-.81.29-4.11,2.72.78-5.8c-.03-1.17.13-2.34-.26-3.46.55.21,1.02.1,1.58-.03.73-.17,2.04-.85,2.64-.88.36,0,.65.26,1.02.25.34,0,1.2-.48,1.36-.37"/>
        <path class="cls-2" d="M71.16,26.96c1.17.48.87,1.21.52,2.13-.43.38-2.41-.7-2.93-.73-.83-.05-2.05.5-2.9.28.52-.3,1.11-1.47,1.56-1.69.65-.31,3.07-.28,3.75,0"/>
        <path class="cls-21" d="M70.91,23.24c-.88-.02-1.83.57-2.66.65-.44.04-2.98.03-3.19-.13l1.22-3.01,2.74-.51c1.09-.04,1.71,2.11,1.88,3"/>
        <path class="cls-17" d="M70.71,85.93c1.3.75-.74.9-1.27,1.08-.35.12-.54.45-.93.35-.46-.13-.05-1.44-.14-1.82-.34.36-.7.69-1.04,1.05-.3.32-.44.9-1.02.77l-.79-2.08c-.54.38-.73,2.35-1.1,2.55-.18.1-.33.1-.47-.05l-.83-1.32c-.35,1.96-.15,2.93-2.47,1.96l.12,1.09c-.11.33-.74.27-.96.1-.49-.39-1.01-2.87.24-2.73.61.3,1.17.86,1.91.76.04-.73.3-3.25,1.48-2.46l.73,1.15c.02-.52.91-2.23,1.38-2.33.93-.12.85,2.34,1.16,2.33.33-.27,1.77-1.98,2.13-1.76.66.51.21,1.09.26,1.76l1.62-.39h-.01Z"/>
        <path class="cls-4" d="M65.91,43.57c-1.39-.1-2.89-.09-4.29-.12-.46,0-.6-.29-1.15,0-.25.14-2.32,1.83-2.43,2-.11.16-.16.25-.12.46,1.43.02,5.05-1.48,6.1-.33.04.04.07.11.11.16,1.72-.45,3.46-.82,5.23-1.11-1-.63-2.17-.98-3.45-1.07"/>
        <path class="cls-6" d="M69.36,44.64c-1.77.29-3.51.66-5.23,1.11.21.33.35.82.56,1.12,1.25,1.88,3.62-.38,5.22-.16.5.07.89.46,1.38-.08-.51-.86-1.17-1.51-1.93-2"/>
        <path class="cls-15" d="M46.75-.22h18.71c-.63,2.05-1.47,4.43-2.81,6.11-.49.62-2.18,1.66-.88,2.2l2.12-.55c-.28.7-.63,1.33-1.06,1.94-.35.48-1.71,1.86-1.78,2.26-.03.2.08.37.13.54.39.28,2.01-.71,2.45-.89.03.33-.09.61-.2.9-.36.93-1.44,2.21-2.14,2.94-.41.43-1.88,1.27-1.32,1.97.38.46,1.36.04,1.83-.08.25.25-1.3,2.82-1.3,3.2,0,.58.82.51,1.17.18.22.26-.42,2.28-.71,2.61-.37.4-2.73.66-3.43.85-.61.15-1.77.76-2.18.83-.45.07-1.4-.37-1.92-.37-.49.46-.6.23-1,.29-1.71.25-3.35,1.01-5.04,1.27v-5.68c.55-.39.99-1.18,1.32-1.79.49-.89,1.05-1.92,1.02-2.96l-.27.07-2.07,3.07.26-7.17c2.33.54,2.28-.41,1.82-2.35.59-.21,2.2-.75,2.32-1.4.14-.8-1.47-1.39-1.54-1.67l1.25-2.26c0-1.1-1.14-.74-1.9-.78V.76s-.21-.36-.26-.39c-.76-.47-2.21,1.11-2.47.85l-.13-1.44h0ZM58.29,18.66c.25-.42-.08-.89-.32-1.27-.62-.98-2.05-2.65-2.85-3.53-.17-.2-.49-.6-.78-.52-.35.1,0,.86.1,1.08.62,1.58,2.09,3.12,3.3,4.24h.55ZM58.31,21.15l-.11-.48-3.86-3.44-.45.21c-.07.35,1.66,2.1,2.01,2.4.32.27,2.06,1.65,2.41,1.3M57.4,23.11c.1-.74-.54-1.11-1.05-1.49-.21-.14-1.53-1.12-1.68-.52-.03.33.29.58.52.77.29.27,1.9,1.55,2.21,1.24M51.17,24.09c.34-.36,1.21-2.6.9-2.94-.25-.03-.35.02-.52.2-.18.18-1.16,2.25-1.16,2.48,0,.37.44.62.78.26M48.51,22.33c.42-.38,2.06-3.46,1.76-3.77l-.46.13-2.15,3.46c.15.52.48.53.85.18"/>
        <path class="cls-2" d="M65.18,50.04c.16,1.61-.51,6.23-.91,7.93-.07.25-.16.47-.28.7-.29.28-.89-.07-1.23-.21-.45-.2-1.3-.63-1.53-1.08-.21-.4-.54-1.66-.68-2.17-.35-1.25-.54-3.24-1.41-4.19-.95-1.03-3.16-1.52-4.48-1.98-.13-.62.33-.65.65-.97.63-.6,1.15-1.35,1.89-1.89.07-.02.09.26.27.37.87.5,3.34-.39,4.41-.49,1.76-.15,1.32.29,2.07,1.41.67,1,1.07,1.14,1.22,2.57"/>
        <path class="cls-7" d="M63.31,10.6c.09.04.09.09,0,.13v-.13Z"/>
        <path class="cls-2" d="M58.51,39.58c.36-.72.36-1.56.24-2.44l-1.04-2.42c-1.83.28-3.39,2.15-5.19,2.21-.53,0-1.53-.43-1.61-1.03h-.18c-.61.5-1.3,1-1.97,1.4-1.47.88-3.47,1.12-1.97,3.33.23.35.82.72.89,1.07l-.03,1.21c3.87,1.39,8.14-.57,10.87-3.32"/>
        <path class="cls-1" d="M58.75,37.14c.12.88.12,1.72-.24,2.44-2.74,2.74-7.01,4.71-10.87,3.32l-.08,3.72c.08.25,1.69,1.29,2.02,1.36.42.1.87-.02,1.28.03.47.06,1.7.49,2,.33.4-.53,1.18-.82,1.63-1.24,1.74-1.64,3.68-3.84,5.92-4.88.16-.08.34-.08.51-.07l-2.15-5.01h-.02Z"/>
        <path class="cls-21" d="M59.94,58.03c.22,1.14.17,2.28.3,3.44-.4.34-.62.92-.95,1.26-.8.8-2.41,1.71-3.38,2.48-1.04.83-2.03,1.75-3.06,2.6-.08-.57-.66-1.01-1.01-1.51-.4-.59-.66-1.14-1.01-1.73-.37-.62-.81-.8-.83-1.65,0-.25.13-.49.13-.76,0-2,.05-4.01,0-6.01,0-.22-.08-.41-.11-.63l1.21-.86c.67.39,1.2.68,1.97.29.71-.38,2.06-1.32,2.75-1.8.54-.39,1.14-.9,1.56-1.4.04-.14.21-.11.32-.07.78.29.98,2.49,1.18,3.24.29,1.04.71,2.07.92,3.12"/>
        <path class="cls-17" d="M57.98,17.39c.24.38.56.85.31,1.27h-.54c-1.21-1.13-2.69-2.67-3.3-4.25-.09-.22-.44-.98-.1-1.08.29-.08.61.33.78.52.8.88,2.23,2.56,2.85,3.53"/>
        <path class="cls-17" d="M58.21,20.67l.11.48c-.35.35-2.09-1.03-2.41-1.31-.36-.3-2.08-2.05-2.02-2.4l.46-.21s3.86,3.44,3.86,3.44Z"/>
        <path class="cls-17" d="M56.35,21.62c.51.38,1.15.75,1.05,1.49-.31.32-1.92-.97-2.21-1.24-.23-.2-.55-.45-.52-.77.15-.6,1.47.38,1.68.52"/>
        <path class="cls-6" d="M55.12,32.25c-2.69.46-5.37,1.52-7.47,3.42-.2.49-.71,1.71-.65,1.77.09.09.49-.17.61-.24.45-.24,1.03-.59,1.46-.87.36-.24,1.6-1.3,1.79-1.35.11-.03.23-.04.35,0l.47.97c1.44.68,2.48-.46,3.6-1.09.69-.4,1.44-.71,2.12-1.13,0-.29-1.48-1.08-2.28-1.48"/>
        <path class="cls-4" d="M54.67,32.04c-.88-.37-1.79-.72-2.76-.55-.51.09-2.15.66-2.56.96-.66.48-1.29,2.23-1.62,3.06,0,.04-.04.1-.07.18,2.09-1.89,4.78-2.95,7.47-3.42-.2-.1-.37-.18-.45-.22"/>
        <path class="cls-6" d="M47.17,53.23c.36.33.58,1.5.74,1.89.05.14-.09.23.21.18.9-.12,2.33-1.69,3.01-1.8.5-.1,1.01.93,1.64.75.17-.05.78-.64,1.03-.79,1.08-.7,2.33-1.23,3.09-2.32-1.09-.31-2.4-.85-3.72-1.27-2.06,1.01-4.06,2.13-6,3.35"/>
        <path class="cls-4" d="M49.29,49.31c-.57.09-3.68,2.31-4.35,2.81-.31.24-1.26.93-1.44,1.16-.13.15-.15.26-.12.46,1.04.34,2.74-.79,3.64-.6.05,0,.1.05.14.09,1.94-1.22,3.94-2.34,6-3.35-1.35-.43-2.71-.74-3.88-.56"/>
        <path class="cls-17" d="M52.07,21.15c.31.34-.56,2.58-.9,2.94s-.78.11-.78-.26c0-.23.98-2.29,1.16-2.48.17-.17.27-.23.52-.2"/>
        <path class="cls-2" d="M47.75,56.48c-.07,0-.15-.03-.22-.07-.76-.57-.82-1.57-1.04-2.41-1.3.11-2.68,1.18-3.85.14-.28-.05-1.58,1.62-1.79,1.96-.73,1.17-.5,1.89-.79,3.12-.28,1.2-1.69,4.02-1.63,5,.02.29.61,1.3.75,1.74.29.92.62,2.16,1.06,3.22,3.88-2.68,5.7-7.66,7.51-12.7"/>
        <path class="cls-8" d="M50.62,66.34c-.25-.47-.37-1.03-.6-1.49-.08-.16,0-.21-.28-.16-.05.83-1.52,5.54-1.95,5.8-.15.1-.35.09-.51.05l-.12-.54c.41-.92.9-1.84,1.25-2.8.32-.88.95-2.75,1.07-3.62v-7.62c-.59.13-1.1.66-1.73.52-1.8,5.04-3.62,10.03-7.51,12.7.23.54.48,1.05.79,1.43.29.37.81.63.91,1.11.3.05.41-.3.65-.45.22-.13,1.46-.68,1.65-.71.2-.03.37.04.53.14l.36.75c.36.08,1.47-1.41,1.91-.49.26.55-.45,1.55-.28,2.1.16.51,2.01.04,2.43-.08.33-2,1.07-3.5,2.89-4.47.04-.38-1.18-1.69-1.46-2.19"/>
        <path class="cls-17" d="M50.26,18.55c.3.32-1.33,3.39-1.76,3.77-.37.35-.69.34-.84-.18l2.15-3.46.46-.13h-.01Z"/>
        <path class="cls-3" d="M50.26,4.09c-.21.41-.41.83-.67,1.21-.22.31-.67.57-.64.94.04.46,1.28,1.08,1.7,1.24-.31.61-1.91.7-2.15,1.17-.23.43.23,1.4.07,1.96-.21.23-2.43-.89-2.73-.07v2.14c-.77-.07-.97-.89-1.42-1.37-.9-.37-.86.73-1.25,1.37-.1.15-.62.9-.84.65-.11-.47.17-1.75-.56-1.66l-1.01.96-.76.05s-.26-.99-.26-1.12c0-.35.29-.68,0-1.03-.49-.6-1.59-.12-2.22-.06.21-.58,2.1-.92,2.2-1.25.13-.42-.35-.37-.38-.53-.13-1.16.55-2.15.79-3.22-.37-.61-1.94.6-2.09.43-.03-.83.36-1.57.89-2.17.11-.53,0-.73-.56-.7-.36.02-.52.25-.85.27-.1-.11.38-1.44.5-1.66.14-.28,1.07-1.21.22-1.34-.68-.11-1.14.21-1.76.39l.39-.91h8.83c.1.63-.04,2.64.73,2.74.8-.07,1.47-.63,2.13-1.04-.03.4.04.84,0,1.23-.07.45-.41.71-.11,1.16.42.64,1.18.09,1.81.22"/>
        <path class="cls-4" d="M30.06,35.72l.06,6.75c.05.33.99.76,1.3,1.03.34.29.59.63.85.98,1.71-2.26,2.29-5.76,5.04-7.06.9-.43,2.96-1.12,3.91-1.01.48.05,2.51,1.07,3.07,1.36.44.24.89.54,1.29.85l1.46-3.64c-5.52.94-11.21,1.02-16.97.74"/>
        <path class="cls-12" d="M46.36,33.28c0,.31-.07.5-.36.62-.38.16-2.22.49-2.71.53-.29.03-.59.04-.88,0l-.21-.5h-.2c-.26.27-1.56,1.18-1.74.58-.23-.76,1.91-1.69,2.5-1.48l.29.39.68-.15.14-5.21c-1.18.14-2.36.34-3.53.56-.97.19-4.39,1.18-5.07.97-.91-.26-.71-.07-1.45-.09-.4-.01-1.43-.21-1.95-.27-.63-.07-1.26-.17-1.89-.26l.07,6.74c5.77.28,11.46.2,16.97-.74l.62-1.57-1.3-.13h.02Z"/>
        <path class="cls-4" d="M44.83,39.62s.02-.06.03-.09c-.04-.04-.07-.09-.11-.13-.43-.4-2.76-1.61-3.32-1.76-1.04-.28-2.74.24-3.68.74-.96.5-.4.82-.74,1.67.65.22,2.22-.61,2.59-.05.11.11.13.32.12.58,1.61-.83,3.34-1.23,5.11-.96"/>
        <path class="cls-4" d="M44.95,39.64s-.05-.07-.09-.11c0,.03-.02.06-.03.08.04,0,.08.02.12.02"/>
        <path class="cls-6" d="M44.95,39.64s-.08-.02-.12-.02c-.15.34-.29.68-.41,1.05.12-.36.26-.71.41-1.05-1.77-.27-3.5.14-5.1.96-.03.87-.55,2.3-.37,2.48.84.02,1.69-.04,2.54,0,.53.02.94.24,1.53.11.56-.13,1.08-1.14,1.2-1.68.79-.14,1.17.92,1.87,1.18.17-.77-.4-1.07-.76-1.65-.3-.51-.43-.94-.79-1.37"/>
        <path class="cls-19" d="M46.24,15.21l.25-.13v-1.62c-.27.15-.52.16-.83.13-.41-.05-.62-.32-.99-.39v4.77c.58.13,1.13.33,1.59.63l-.02-3.4h0Z"/>
        <path class="cls-19" d="M46.26,18.61c-.46-.3-1.01-.51-1.6-.63v6.72c.57-.46,1.13-.93,1.63-1.45,0,0-.03-4.64-.03-4.64Z"/>
        <path class="cls-18" d="M44.66,24.7v2.26c.04.34.41.13.41.65,0,.3-.39.17-.4.51v4.89c.62-.15,1.08-.15,1.69,0l-.07-9.77c-.49.52-1.06.99-1.63,1.45"/>
        <path class="cls-2" d="M39.76,43.88c-.23-.03-.45-.06-.67-.11-1.29-.3,0-2.28-.13-3.2l-2.38.24c-.55-.34-.13-.89-.22-1.41-.08-.1-.73.96-.8,1.09-.95,1.62-1.69,3.39-2.68,5l.37,2.77c.89-.22,1.79-.46,2.7-.62.16-.03.33-.06.52-.09,1.17-1.17,2.27-2.42,3.29-3.67"/>
        <path class="cls-1" d="M46.34,43.47c-.4-.06-.76-.82-1.08-.82-.26,0-.35.36-.51.53-.48.5-.85.85-1.58.9-.37.02-.6-.12-.89-.13-.82-.02-1.69.02-2.52-.08-1.02,1.25-2.11,2.5-3.29,3.67,1.02-.18,2.43-.43,3.22-.45,1.91-.04,4.02,2.23,4.66,3.9l1.72-2.32c.21-1.73.36-3.47.27-5.22"/>
        <path class="cls-15" d="M43.9,15.22c.17,3.92-.13,7.98-.02,11.92-1.04.2-2.09.35-3.13.57-1.23.27-3.13.95-4.32.87-1.29-.07-2.75-.4-4.02-.52-.79-.07-1.61.02-2.41-.12l.03-6.04c.09-.43,1.1-1.28,1.46-1.65.37-.38.64-.9,1.1-1.24,1.3-.91,3.39-.57,4.85-1.26l3.72-4.55c.39.26.37,1.1.98,1.19.52.06,1.39-.51,1.5-1.06.21-.03.12.18.12.33.02.57.12,1.04.14,1.57M40.4,26.7c.04-.52-.62-.93-.9-1.33-.41-.57-1.38-2.52-1.77-2.78-.16-.11-.26-.16-.47-.13-.08,1.23,1.39,4.06,2.5,4.46.29.11.58.21.63-.22M40.13,22.2c.02-.23,0-.43-.08-.64-.08-.2-1.39-1.8-1.61-2.03-.26-.26-.54-.36-.91-.32-.37.37,1.44,2.38,1.83,2.66.11.08.69.41.77.33M35.69,23.15c.22-.37.47-.77.41-1.22-.73-.05-.96.64-1.35,1.04-.9.93-2.48,2.26-2.96,3.43-.07.18-.18.26.03.42.24.15.49.03.69-.09.63-.35,2.79-2.9,3.18-3.59M34.97,28.07c.41-.55.9-.91.74-1.7-.18-.21-1.61,1.11-1.54,1.48.18.35.46.42.8.22M34.26,21.46c.16-.27,1.17-2.17.36-1.99-.98,1.22-2.12,2.44-2.8,3.85l.21.45c.65.13,1.93-1.76,2.23-2.31"/>
        <path class="cls-4" d="M40.06,48.4c-.98-.1-3.08.35-4.12.56-1.9.39-3.68,1.07-5.56,1.53v.63c3.7-.5,7.41-1.11,11.11-2.04-.46-.36-.95-.63-1.43-.68"/>
        <path class="cls-6" d="M41.5,49.07c-3.7.93-7.41,1.54-11.11,2.04v2.49l3.86-2.07.3.04.35.47c.37-.03.78.03,1.15,0,1.04-.12,2.6-.91,3.63-.91h3.58c-.05-.28-.35-.63-.53-.85-.32-.38-.75-.84-1.22-1.22"/>
        <path class="cls-14" d="M40.58,52.04c.76-.04,1.52,0,2.28.14-1.06,1.01-3.53,3.24-3.64,4.76-.02.34.15.64.13,1.02,0,.44-.38,1.91-.6,2.28-.15.26-2.07,1.63-2.39,1.76-.56.23-2.03-.3-2.7-.41-.62-.11-1.28-.23-1.91-.31-.28-.03-.9.11-1.05-.12l-.31-7.05c1.32-.28,2.48-1.24,3.71-1.82.18.36.61.65,1.03.65,1.78,0,3.63-.82,5.46-.92"/>
        <path class="cls-17" d="M39.5,25.37c.28.39.94.81.9,1.33-.04.42-.34.33-.63.22-1.12-.4-2.58-3.23-2.5-4.46.21-.03.3.02.47.13.39.26,1.35,2.22,1.77,2.78"/>
        <path class="cls-17" d="M40.05,21.55c.09.22.1.41.08.64-.08.09-.66-.25-.77-.33-.39-.28-2.2-2.29-1.83-2.66.37-.04.65.05.91.32.23.23,1.54,1.84,1.62,2.03"/>
        <path class="cls-15" d="M39.2,13.51l-1.61,1.89c-.53-.05-1.04.13-1.54.16-1.66.08-2.52-.29-4.23.32-.84.29-1.22.83-1.76,1.5-.2-.13-.17-.25-.2-.46-.19-1.76.09-3.63,0-5.35-.07-1.33-.33-2.71-.4-4.04-.04-.84.03-1.7,0-2.55.64.73,1.46.65,2.3.29.3-.13.66-.47.91-.53.38-.08.59.12.89.12.95.01,1.7-1.44,2.13-2.16l1.04-.84c.09.1-.75,1.69-.13,2.28l.65.2c.13.11-1.03,3.23.69,2.71.17-.05.43-.4.62-.55.11-.09.37-.3.51-.27l-.72,2.67c-2.42,1.04-2.45,2.99.59,2.09-.09.87.08,1.69.24,2.51M34.21,11.77c.34-.42,1.86-2.91,1.76-3.31-.05-.17-.25-.24-.43-.18-.39.1-1.68,2.33-1.89,2.8-.15.38-.49.91-.08,1.22.18.04.52-.38.64-.52M33.57,8.64c.4-.26,2.07-2.54,1.74-2.87-.49-.04-.8.33-1.08.66-.49.59-1.21,1.57-1.12,2.34.21.03.29-.02.46-.13"/>
        <path class="cls-21" d="M31.13,69.2l.23,3.98c.91.42,1.8-.26,2.72-.16.24-.4.77-.75,1-1.09.16-.25.2-.74.47-.83.75-.25.95.45,1.47.76-.07-.47.38-.61.59-.92.9-1.39.77-3.12.28-4.66-2.15,1.25-4.4,2.25-6.75,2.93"/>
        <path class="cls-2" d="M37.63,65.57c-.26-.66-.68-1.24-1.01-1.86l-.64.52c-1.65.52-3.32,1.22-5.07,1.11l.22,3.86c2.35-.68,4.6-1.68,6.75-2.93-.08-.24-.16-.47-.25-.7"/>
        <path class="cls-19" d="M27.08,66.76c0,6.65,0,13.7-.25,20.66.6-.31,1.15-.44,1.22.14.07.47-.39.99-.26,1.5.08.08,1.85-.43,2.25-.39.51.04,1.11.87,1.64,1.04-.18-1.36-.24-2.74-.4-4.1-.3-2.61-.63-4.92-.77-7.57-.23-4.27-.39-8.53-.62-12.79-.11,1.22-.31,2.45-.65,3.69,0,0-2.17-1.09-2.17-2.18"/>
        <path class="cls-18" d="M28.17,35.22c.99-4.97-.74-9.03-3.52-13.01.04,5.15.09,10.3.29,15.43.26,6.54.09,13.1.26,19.54.15,5.2.36,10.44.39,15.64.03,3.19-.05,6.36-.14,9.52-.03,1.36.12,2.85.01,4.18-.05.61-.33,1.25-.26,1.89.06.07.89-.6,1.64-.99.25-6.96.25-14.01.25-20.66,0,1.09,2.17,2.18,2.17,2.18.34-1.24.54-2.47.65-3.69,0-.21-.02-.42-.03-.63-.12-2.14-.2-4.29-.28-6.44-1.19-7.89-4.43-15.43-1.42-22.96"/>
        <path class="cls-18" d="M27.08,8.04c-.88.89-1.77-.39-2.65-.9.07,2.59.12,5.18.15,7.78,2.49-1.46,2.5-4.17,2.5-6.88"/>
        <path class="cls-19" d="M34.73,16.61c-.99-.03-1.33-.13-2.36.22-1.06.35-.82.54-1.41,1.2-.17.2-1.73,1.33-1.88,1.19-.16-.42.03-.79.01-1.24-.17-3.24-.25-6.52-.4-9.77-.13-2.77.11-5.64,0-8.42h-4.41l.13,6.45c0,.3,0,.61.02.91.88.51,1.77,1.78,2.65.9,0,2.71,0,5.42-2.5,6.88.03,2.43.04,4.86.06,7.3,2.78,3.98,4.51,8.04,3.52,13.01-3,7.53.23,15.07,1.42,22.96-.33-8.97-.36-17.95-.49-26.93-.03-2.21-.08-4.3,0-6.52.03-1.18-.1-2.4.07-3.58.2-.5.65-.66.96-.98.56-.55,1.35-1.63,1.91-2,1.47-1,3.32-.77,5.01-1.1l.49-.62c-.95-.05-1.83.16-2.8.14"/>
        <path class="cls-17" d="M36.1,21.93c.05.45-.2.85-.41,1.22-.39.68-2.55,3.24-3.17,3.59-.21.12-.46.24-.69.09-.22-.16-.1-.24-.03-.42.48-1.16,2.06-2.49,2.96-3.43.39-.4.63-1.1,1.36-1.04"/>
        <path class="cls-17" d="M35.97,8.46c.11.39-1.42,2.88-1.76,3.31-.12.14-.46.57-.64.52-.41-.3-.08-.84.08-1.22.21-.47,1.5-2.7,1.89-2.8.18-.05.38.01.43.18"/>
        <path class="cls-4" d="M35.97,63.25c.06.37-.08.22-.28.29-1.56.57-3.13,1.02-4.78,1.27l-.13-2.35c.15-.15,2.47.24,2.86.33.82.17,1.46.6,2.33.46"/>
        <path class="cls-17" d="M35.71,26.37c.16.78-.33,1.14-.74,1.7-.35.21-.62.13-.8-.22-.08-.37,1.35-1.69,1.54-1.48"/>
        <path class="cls-3" d="M29.61-.22h5.97c-.04.34-.24.63-.26.98-.02.25.11.76.06.85-.04.11-.28.25-.38.39-.34.51-.95,1.96-1.68,1.83-.04-.01-.2-.54-.77-.38-.47.45-1.16,1.03-1.84,1.03-.44,0-.75-.49-1.23-.14,0,0,.13-4.56.13-4.56Z"/>
        <path class="cls-17" d="M35.32,5.77c.32.33-1.34,2.61-1.75,2.87-.16.11-.25.16-.45.13-.1-.77.63-1.75,1.12-2.34.28-.34.6-.71,1.08-.66"/>
        <path class="cls-17" d="M34.61,19.47c.81-.18-.2,1.72-.36,1.99-.3.54-1.58,2.44-2.23,2.31l-.21-.45c.67-1.41,1.82-2.63,2.8-3.85"/>
        <path class="cls-14" d="M31.92,46.54c-.12-.42-.37-1.12-.6-1.49-.09-.15-.55-.72-.89-.92-.09.11-.19.2-.29.3l.24,4.75c.38-.16,1.6-.36,1.76-.65.15-.28-.13-1.59-.23-1.99"/>
        <path class="cls-2" d="M30.13,44.09l.02.34c.1-.1.19-.2.28-.3-.12-.07-.23-.1-.3-.03"/>
        <path class="cls-21" d="M22.07,70.17c.1.39-.03,1.23.13,1.69l2.21-.26v-1.38c-.77.02-1.55,0-2.34-.05"/>
        <path class="cls-2" d="M24.42,70.22v-5.14c-.55.13-.94.86-1.23,1.32-.6.98-1.08,2.16-1.64,3.19-.02.3.42.29.51.53v.06c.79.05,1.57.07,2.34.05"/>
        <path class="cls-2" d="M24.22,61.82c.11.23.12,1.6,0,1.83-.1.18-.47.3-.65.52-1.25,1.57-2.34,3.95-3.21,5.77-.22.47-.26,1.01-.68,1.39-.35-.32-.66-.79-1.18-.79-.48.01-.5.41-.8.51-.17.05-.79.14-1.01.15-1.55.11-2.32-.77-3.61-1.46-1.1-.57-2.22-1.07-3.29-1.64-.97-.52-1.89-1.2-2.91-1.6l2.54-3.9c.38-.29.93-1.15,1.42-1.16.16,0,.35.12.52.12.99.02,1.73-.1,2.67-.39.15.15-1.08,1.82-.76,2.26.13.41,1.57.71,1.99.74.63.05,2.46-.12,3.02-.36.52-.23,1.48-1.53,1.92-1.99,1.51.77,2.87,2.18,3.43-.39,0,0,.59.39.59.39Z"/>
        <path class="cls-4" d="M20.77,35.06c-.65-.06-1.3-.11-1.95-.17l.02.74c.07.1,1.13-.3,1.94-.57"/>
        <path class="cls-4" d="M21.95,35.69c-.18.18-2.99,1.08-3.32,1.09-.74,0-.54-1.02-.7-1.54l-1.86.5-.22-.17v-.94c-1.36-.12-2.71-.23-4.07-.33-.53.32-1.19.59-1.38.49-.21-.1-.36-.39-.21-.59,0,0,.01,0,.01,0-4.17-.29-8.32-.46-12.41-.32v5.28c.4-.4.75-.86,1.17-1.24,1.22-1.13,2.1-1.34,3.74-1.59,1.53-.24,3.27-.25,4.38,1,.26.28,1.43,1.94,1.56,2.22.09.21.03.45.13.65.21.46,1.28.93,1.43,1.57,1.09-1.41,1.82-3.37,3.7-3.85,1.28-.33,3.02-.21,4.35-.05.91.11,1.69.97,2.2,1.7.5.7.86,1.44.88,2.32.7.09.89,1,1.59.92.34-.03.7-.3,1.09-.27.33-.66.04-1.26.02-1.87-.07-1.78-.22-3.57-.27-5.34-.57-.05-1.14-.09-1.71-.14.07.17.06.37-.1.53M23.47,35.78c.7.71-1.44,1.58-1.72,1.15-.38-.72,1.29-1.58,1.72-1.15"/>
        <path class="cls-12" d="M23.71,29.36c-.26-.39-2.83.22-3.38.26-.53.04-1.09-.03-1.62,0l.11,5.26c.65.06,1.3.11,1.95.17.39-.13.73-.23.85-.22.19.02.35.16.42.33.57.05,1.14.1,1.71.14h0c-.05-1.98.11-3.97-.04-5.94"/>
        <path class="cls-12" d="M10.2,34.18c.18-.3.87-.67,1.19-.75.25-.04,1.17-.13,1.07.3-.08.15-.36.36-.69.56,1.36.1,2.71.21,4.07.33v-5h-4.99c-.05,0-.54.39-.81.49-2.99,1.17-5.53.05-8.54.29-1.24.1-2.48.61-3.71.78v2.67c4.09-.14,8.24.03,12.41.32"/>
        <path class="cls-4" d="M24.03,50.88c-.94.15-1.98.12-2.92.27-.9.14-1.08.23-1.7.89-.16.17-.3.34-.43.51,1.68-.23,3.36-.44,5.04-.64v-1.03h.01Z"/>
        <path class="cls-6" d="M18.98,52.55c-.33.45-.53.93-.41,1.58l3.32-1.03,2.14.64v-1.83c-1.68.2-3.36.41-5.04.64"/>
        <path class="cls-14" d="M20.64,49.64c-.01.25-.01.19.19.2.61.02,1.02-.1,1.56-.13.53-.04,1.23.16,1.62-.2v-1.27c-1.1.41-2.22.77-3.34,1.15-.01.08-.03.17-.04.26"/>
        <path class="cls-2" d="M21.62,44.49l-.67,3.1c-.05.57-.2,1.2-.27,1.79,1.12-.38,2.24-.74,3.34-1.15v-4.52c-.82,0-1.68.4-2.41.78"/>
        <path class="cls-2" d="M23.89,54.54l.14,5.32-4.68-2.14-2.33-.46.91-3.13.28.62.42.15c.97-.14,2.73-1.19,3.62-1,.48.1,1.09.56,1.64.64"/>
        <path class="cls-15" d="M23.77,5.64c-.04,1.89.05,3.79.01,5.68-.08,3.12-.17,5.97-.13,9.11.03,2.72-.14,5.45.12,8.15-1.7-.11-3.36.48-5.06.39-.08-4.54.09-9.08,0-13.62-.02-1.52.02-2.51.13-4.04.02-.46-.02-.92,0-1.37.94.27,1.54.11,2.02-.78.21-.38.26-1,.44-1.25.15-.21.58-.32.78-.54.3-.33.55-1.01.68-1.43l1.01-.29h0Z"/>
        <path class="cls-3" d="M23.64-.22l.13,5.34c-.62.01-.99-.6-1.6-.24-.65.38-.6,1.49-.92,1.82-.23.22-.83.02-1.04.51-.22.48.12,1.5-.65,1.69-1.14-.41-1.97,1.17-3.19.92l-.19-1.04-.59-.13.38-1.63c-.52-1.71-1.56-.18-2.65-.18-.64,0-1.27-.48-1.92-.51-.68.23-1.03,1.26-1.84,1.16-.5-.08-.7-1.18-1.35-1.38-.66-.21-2.59.26-2.74-.65-.08-.49.14-1.7-.05-2.02l-1.77-.98c.33-1.22,1.47-1.88,2.34-2.67,5.88-.01,11.78,0,17.66,0"/>
        <path class="cls-17" d="M23.47,35.78c.7.71-1.44,1.58-1.72,1.15-.38-.72,1.29-1.58,1.72-1.15"/>
        <path class="cls-4" d="M22.7,60.66l-.24,1.28-2.38-1.15-2.03,2.26c-1.33.29-2.71.51-4.03.07.03-.58,1.48-2.41.92-2.81l-3.25.46c1.53-1.36,3.8-1.51,5.66-2.34,1.87.46,3.66,1.32,5.35,2.23"/>
        <path class="cls-2" d="M19.92,40.69c-.37-.68-1.2-1.71-1.94-1.8-1.25-.16-3.07-.27-4.25.15-1.04.38-2.21,2.67-2.82,3.62.35-.11.62-.15.83-.16,2.59-1.26,5.43-1.9,8.17-1.81"/>
        <path class="cls-8" d="M21.24,42.65c-.22-.14-.44-.08-.56-.15-.21-.13-.53-1.37-.7-1.71-.02-.03-.04-.07-.06-.1-2.74-.09-5.58.55-8.17,1.81,1.21-.03.33,1.39.6,1.7.91.17,2.07.4,2.88.83.24.12.48.52.67.49.78-.67,1.67-1.76,2.79-1.54l.36.75,1.34.14c.1-.79.43-1.48,1.3-1.57.13-.08-.34-.59-.44-.65"/>
        <path class="cls-20" d="M11.91,49.36c-4.97-.71-9.47-1.88-14.12-2v10.16c4.79-.94,9.45-2.25,14.12-3.81-1.08-2.17,3.25-4.35,0-4.35"/>
        <path class="cls-4" d="M18.9,45.39c-1.18-.84-1.93,1.34-2.87,1.44-.7.16-.83-.78-1.18-1.04-.22-.16-1.14-.52-1.44-.61-1.11-.33-1.84.02-1.72-1.6-.2-.22-1.89.96-2.17,1.02-.44.09-.79-.25-.67-.67.05-.15.27-.28.36-.43.17-.3.74-1.2.8-1.41,0-.04-.67-.24-.74-.43l-5.05,1.41c-.78.03-.87-.63-1.42-.66-.73-.05-2.88.79-3.33.47-.15-.11-.09-.51-.32-.58l-1.36.23v4.83c4.65.12,9.15,1.29,14.12,2,3.25,0-1.08,2.18,0,4.35-4.67,1.56-9.33,2.87-14.12,3.81v3.64c1.23.03,2.61.25,3.79.57.66.16,1.73.47,2.18.93.89.93,1.42,2.27,2.15,3.33,1.64-2.78,3.54-5.85,6.6-7.2.5-.22,2.63-.76,2.79-.91.04-.03.48-.83.5-.87.13-.42.12-1.08.25-1.58.55-2.26,1.73-4,3.55-5.43-.07-1.59.33-3.13.67-4.68l-1.36.06h-.01Z"/>
        <path class="cls-19" d="M17.92,16.53v-5.93l-1.18.33v4.59c.45.32.84.66,1.18,1.01"/>
        <path class="cls-18" d="M17.92,16.53c-.34-.35-.73-.69-1.18-1.01v12.74c.42-.51.82-1.06,1.18-1.63v-10.1Z"/>
        <path class="cls-19" d="M16.75,28.26v6.72c.36-.12,1.12-.18,1.17-.59v-7.76c-.36.57-.76,1.12-1.17,1.63"/>
        <path class="cls-14" d="M17.53,71.72l-.39.99c-.13.09-.55-.11-.84-.08-.6.07-1.09.86-.99,1.44-.15-.01-.3.02-.44-.01-1.14-.2-1.84-.74-2.84-1.18-1.1-.49-2.27-.7-3.34-1.22l-1.89-4.36c2.04,1.33,4.24,2.36,6.38,3.49.26.13,1.45.93,1.54.93h2.81Z"/>
        <path class="cls-15" d="M15.86,17.95c.04,3.55-.05,7.09-.01,10.63l-2.73-.18c-.25-.73-.93-1.14-1.42-1.71-.75-.86-1.44-1.78-2.08-2.73l2.24.17.49-.43-2.86-4.44c-.11-.38.61-.04.84-.04.41,0,.99-.2,1.41-.26.74-.46-.9-1.52-1.21-1.9-.53-.64-.8-1.43-1.3-2.09-.03-.25-.01-.18.2-.2.58-.02,1.48.14,1.82-.52.33-.65-.85-1.42-1.24-1.89-1.27-1.51-1.83-3.54-2.86-5.21,1.06-.38.98.8,1.92,1.21,1.11.47,1.76-.32,2.57-.88,1.04.33,1.85.57,2.91.13.05.5-.15,1.29.21,1.69.1.12.28.15.37.27.08.1.59,1.24.61,1.36.19,1.82-.04,4.23-.02,6.13.01.32.14.6.15.9"/>
        <path class="cls-17" d="M11.39,33.43c.25-.04,1.17-.13,1.07.31-.22.39-1.76,1.21-2.07,1.04-.21-.1-.36-.39-.21-.59.16-.3.88-.68,1.2-.76"/>
        <path class="cls-13" d="M11.69,28.12c.09.12.17.13.12.33-.9-.16-1.52.46-2.3.76-2.71,1.02-5.14-.17-7.9.02-1.28.09-2.57.58-3.83.78v-3.64c.27.04.43-.35.57-.53.46-.65.93-1.43,1.21-2.17.23-.6.56-1.46.29-2.04h-.26c-.55,1.04-1,2.18-1.82,3.06v-4.44c.29.08.27-.15.39-.32.27-.4.53-.65.53-1.17,0-.52-.76.09-.92.2v-6.36H-.78c0,.09,0,.16.03.24.22.75,1.47,2.73,2.33,2.7.77-.17.39-1.3.48-1.92.08-.1,1.28,1.1,2.09,1.38l-.04.98h-.36c.23,1.04.81,2.14,1.44,3.03.26.36,1.88,2.35,2.32,1.9.03-.26-.02-.46-.15-.7l1.24-.75,2.3,3.8-1.85-.24c-1.21.45-.37,1.48.11,2.19.75,1.12,1.78,1.96,2.53,2.94M7.01,24.94c.05-.43-.09-.84-.28-1.22-.78-1.58-2.33-3.18-3.16-4.77l-.45-.13c-.05.47.14.9.28,1.34.37,1.03,2.12,4,3,4.55.11.07.54.32.61.24M4.28,28.39c.95.49.62-.9.38-1.42-.22-.46-.72-1.41-1.28-1.25-.18.17.57,2.5.9,2.67"/>
        <path class="cls-13" d="M10,13.79c-.64.14-2.49-.79-2.34.51.04.34.95,1.94,1.19,2.34.34.56.74,1.08,1.15,1.59-.56.18-1.46-.45-1.67.41v.34l.28.47-1.24.75c-.25-.46-1.19-1.38-1.59-1.91-.54-.75-.98-1.58-1.53-2.32h-.13l.04-.99c.12.04.22.07.31.07.47,0,.63-.42.33-.73-.2-.17-1-.49-1.34-.74-.33-.22-1.19-1.13-1.46-1.15-.79-.09-.38,1.2-.57,1.7-.85-.1-1-1.87-1.65-2.07-.36-.11-.54.21-.54.53h-1.45v-3.81c.27.04.51-.42.63-.61.33-.51.65-.98.54-1.61-.47-.04-.75.47-1.17.65V-.22h6.62c-.61.73-1.9,1.85-1.66,2.9.2.86,1.2.58,1.59,1.27.05,1.48-.05,2.74,1.73,3.01,1.03,2.39,1.95,5.04,3.92,6.82M7.26,13.97c.1-.13-.01-.42-.11-.58-.1-.15-1.65-1.35-1.83-1.42-.21-.1-.69-.16-.85.05-.13.16-.03.33.04.49.22.47,1.68,1.52,2.2,1.58.12.01.51-.07.54-.12M.34,9.05c.38-.31,1.28-2.28.81-2.6-.11-.09-.59-.04-.69.11-.22.94-.9,1.6-.71,2.61.23,0,.41.03.6-.12"/>
        <path class="cls-2" d="M6.6,38.78c-.44-.66-.94-1.25-1.85-1.34-1.56-.16-2.88.43-4.4.54l-2.56,2.46v1.3c.79.02,1.73-.66,2.17.27.09,0,.18-.02.28-.03,1.72-1.77,3.6-3.34,6.36-3.21"/>
        <path class="cls-2" d="M7.86,40.45c-.53-.42-.87-1.07-1.26-1.66-2.75-.14-4.64,1.43-6.36,3.21,1.2-.2,2.91-1.26,3.55.13l4.65-1.22c.01-.33-.4-.3-.58-.46"/>
        <path class="cls-2" d="M6.51,69.64c-.29-.59-.66-1.3-.73-1.3-.61.7-1.53,1.88-2.57,1.66-.3-.07-.98-.52-1.2-.75-.47-.47-1.29-1.97-1.69-2.21-.57-.34-1.84-.38-2.52-.53v8.56c3.81-.6,7.69-2.07,8.72-5.43"/>
        <path class="cls-21" d="M7.54,74.52c-.07-1.33-.21-2.89-.69-4.13-.03-.1-.17-.4-.34-.74-1.03,3.36-4.91,4.82-8.72,5.42v4.47c1.4-.77,3.35-1.35,2.47,1.04h2.93c.49-.49.91-.99,1.49-1.36.56-.35,2.69-.99,2.83-1.47,0-1.08.08-2.16.03-3.24"/>
        <path class="cls-17" d="M7.38,20.19c.13.24.18.44.15.7-.45.45-2.06-1.54-2.32-1.9-.63-.89-1.21-1.99-1.44-3.05h.36l.13.02c.55.74.99,1.57,1.53,2.32.4.53,1.34,1.46,1.59,1.91"/>
        <path class="cls-17" d="M7.15,13.4c.1.15.21.45.11.58-.03.05-.42.13-.54.12-.52-.05-1.98-1.11-2.2-1.58-.08-.16-.17-.33-.04-.49.15-.22.64-.15.85-.05.18.08,1.73,1.27,1.83,1.42"/>
        <path class="cls-17" d="M6.73,23.72c.19.38.34.78.28,1.22-.07.08-.5-.17-.61-.24-.88-.54-2.63-3.51-3-4.55-.14-.43-.34-.87-.28-1.34l.45.13c.83,1.6,2.38,3.2,3.16,4.77"/>
        <path class="cls-17" d="M4.81,14.31c.3.31.14.73-.33.73-.1,0-.2-.02-.31-.07-.81-.28-2.02-1.48-2.09-1.38-.09.62.29,1.75-.48,1.92-.86.03-2.11-1.95-2.33-2.7-.02-.08-.03-.15-.03-.24,0-.33.18-.64.54-.53.65.2.8,1.97,1.65,2.07.2-.5-.22-1.78.57-1.7.27.02,1.14.94,1.46,1.15.35.25,1.15.57,1.34.74"/>
        <path class="cls-17" d="M4.66,26.97c.24.52.57,1.91-.38,1.43-.33-.17-1.08-2.5-.9-2.68.56-.16,1.06.79,1.28,1.25"/>
        <path class="cls-4" d="M5.17,67.47c-.21.41-1.2,1.74-1.6,1.78-.95.09-1.88-1.81-2.4-2.42-.77-.89-2.3-.82-3.38-1.11v-3.52c1.31.13,2.93.28,4.16.72.73.26,1.31,1.24,1.74,1.9.22.33,1.47,2.44,1.47,2.64"/>
        <path class="cls-17" d="M1.15,6.45c.47.32-.43,2.28-.81,2.6-.18.15-.37.13-.6.12-.18-1.01.5-1.68.72-2.61.11-.15.59-.2.69-.11"/>
      </g>
    </g>
  </g>
</svg>