<?xml version="1.0" encoding="UTF-8"?>
<svg id="Layer_1" data-name="Layer 1" xmlns="http://www.w3.org/2000/svg" xmlns:xlink="http://www.w3.org/1999/xlink" viewBox="0 0 90 90">
  <defs>
    <style>
      .cls-1 {
        fill: #abe0f9;
      }

      .cls-2 {
        fill: #c1ca71;
      }

      .cls-3 {
        fill: #bfbebe;
      }

      .cls-4 {
        fill: none;
      }

      .cls-5 {
        clip-path: url(#clippath-1);
      }

      .cls-6 {
        fill: #b4c16f;
      }

      .cls-7 {
        fill: #919d5f;
      }

      .cls-8 {
        fill: #908881;
      }

      .cls-9 {
        fill: #849a52;
      }

      .cls-10 {
        fill: #663925;
      }

      .cls-11 {
        fill: #c28966;
      }

      .cls-12 {
        fill: #986749;
      }

      .cls-13 {
        fill: #a69b91;
      }

      .cls-14 {
        fill: #d3eefb;
      }

      .cls-15 {
        clip-path: url(#clippath);
      }
    </style>
    <clipPath id="clippath">
      <rect class="cls-4" width="90" height="90"/>
    </clipPath>
    <clipPath id="clippath-1">
      <rect class="cls-4" x="-2.18" y="-.35" width="94.35" height="90.71"/>
    </clipPath>
  </defs>
  <g class="cls-15">
    <g class="cls-5">
      <g>
        <path class="cls-1" d="M92.37-.35v94.75h-.13v-28.8c0-4.21.01-8.43,0-12.64v-6.27c0-.47.01-.96,0-1.42,0-.22.02-.43,0-.65l-1.93-.27c.03-.84,0-1.92-1.03-2.06-.64-.09-1.58.52-1.21,1.21l-.2.2-7.36-.99-.26-2.84c.04-3.44.08-6.81.33-10.24,1.14-1.38,2.5-2.82,4.24-3.38-.1.44.77,1.31,1.11,1.31h1.89c-.03.78.01,1.51.58,2.09.64.64.43.49.85,1.24.57,1.02,1.6,1.45,2.74,1.16.39-.18.25-.97.26-1.37.04-2.03,0-4.09,0-6.12v-1.04c.01-1.82,0-3.64,0-5.47v-1.57c.01-5.56,0-11.13,0-16.68h-48.48c-.08-.03-.15-.04-.23-.04v-.09h48.84v-.02Z"/>
        <path class="cls-9" d="M92.24,24.54c0,2.03.04,4.09,0,6.12-.57-.03-.96.28-1.53.03-.62-.27-.44-.95-.82-1.39-.51-.45-.96.18-1.26-.95-.27-.55.27-1.73-.6-1.7-.57.02-.9.34-1.69.2-.48-.09-1.24-.58-.66-.99.75-.57,2.13-.42,3.09-.55,1.17-.17,2.33-.49,3.47-.77"/>
        <path class="cls-10" d="M92.24,30.66c-.01.4.13,1.18-.26,1.37-1.14.28-2.18-.14-2.74-1.16-.41-.75-.21-.6-.85-1.24-.57-.58-.61-1.31-.58-2.09h-1.89c-.34,0-1.21-.87-1.11-1.3-1.74.57-3.1,2-4.24,3.38-.25,3.44-.28,6.81-.33,10.24l.26,2.84,7.36.99.19-.2c-.37-.68.57-1.29,1.21-1.21,1.04.13,1.07,1.22,1.03,2.06l1.94.27c.02.22,0,.44,0,.65h-.78v1.23l.78.2v.52c-.25,0-.52.02-.78,0-.08,0-.17,0-.26,0-.12,0-.85-.34-.9-.26l-.14,1.57c.35,0,.71-.02,1.04,0,.09,0,.17,0,.26,0,.27.02.52.12.78.13v.39l-.77.21.12,1.15.65.08v.52l-.65.08v.76l.65.08v1.04c-.9-.02-1.74-.18-2.67-.13-.38,0-1.05.09-1.42.14-.51.08-2.24.75-2.5.38l.14-1.18c-.78.46-1.72.68-2.5,1.14-.42.26-.53.73-1.07.4l-.02-.89c-.22.23-.74.5-.89.73-.37.57-.03,3.84-.14,4.81-.04.43-.33.84-.38,1.32-.15,1.24.45,4.56.65,5.96.5,3.31,1.77,6.45,2.39,9.73.17.54,1.07.47.96,1.21-.09.62-.69.53-1.15.42-.61-.13-2.44-.95-3.04-1.26-.31-.15-.48-.38-.78-.5l-1.97,1.95h-1.89c1.62,1.48,2.26,3.77,3.98,5.22.47-1.39,1.38-.1,2.27,0,0-.84.88-4.31,1.65-4.54,1.52-.47,1.01,1.69,1.67,2.45.58-.87,2.65-3.03,3.68-3.09,1.53-.09.27,2.4.43,2.57.86-.22,1.7-.49,2.6-.39v1.17c-1.29-.23-2.34.71-3.57.63-.67-.58-.03-1.46-.14-2.2-.87.66-1.65,1.42-2.21,2.36-.26.45-.13.91-.92.77-.57-.1-1.03-1.36-1.3-1.83-.61.66-.38,3.39-.92,3.77-.75.52-1.37-.65-2.13-.51v2.27c0,.12-.47.38-.62.43-1.65.46-3.11.24-4.76,1.23-.43.25-1.19,1.16-1.63.72-.34-.5-.03-1-.02-1.53-.98.09-2,.75-2.74,1.37-.35.28-.87,1.03-1.24,1.11-1.12.22-.74-1.28-.91-1.96l-1.58,2.6c-.65.45-1.3-.71-1.48-.51-.07,1.11.59,2.53-1.11,2.49-.41-.02-1.14-.1-1.56-.16-.29-.03-.59-.13-.86-.24-.13.55.54,1.95,0,2.28-.31.18-.77-.11-1.21-.04-.56.08-1.4.5-1.93.75h-2.99c-.07-.3.14-.27.34-.37,1.46-.66,2.92-1.35,4.47-1.72.05-.66-.45-1.58-.15-2.17l.26-.27c.57-.32,1.52.37,2.22.47.4.05.8.03,1.21.03-.03-.63.12-2.92.52-3.33.88-.86,1.38,1.37,1.62,1.37.45-.66,2.19-3.58,2.98-3.49,1.11.12.3,2.16.35,2.84,1.04-.92,2.15-1.67,3.52-2.02.42-.1.79-.29,1.22-.08l.27.66c1.35-.8,2.95-.95,4.45-1.29l.03-.9c-.2-.08-.42-.1-.62-.22-.51-.32-2.02-2.45-2.42-3.07-.4-.63-.9-1.99-1.24-2.4-.2-.25-1.34-1.13-1.66-1.34-1.16-.78-2.71-1.28-4.08-1.59.33,1.33-.42,3.31-1.52,4.14-2.25,1.72-6.17,1.59-8.82,1.18-.4-.07-1.1-.17-1.39-.43l-.45-1.12c-1.4,1.17-3.14,2.52-4.92,3.04-.61.17-1.5.22-2.12.22-.88,0-1.73-.08-2.6-.24-.39.35-.82.64-1.18,1.02-.33.33-1.82,2.03-1.95,2.35-.12.27-.04.54-.1.82-.06.23-.27.36-.24.61h1.89c.27,0,.97.46,1.05.78.14.52-.6.99-.47,1.17.67.21,2.09,1.23,2.77,1.02.25-.08,1.03-1.03,1.34-1.28.34-.27.79-.74,1.2-.36.41.72.48,1.5.42,2.32,1.18-.09,2.51.11,3.24,1.13l-.07.66-1.74,1.85h-.91l1.3-2.21c-.37-.05-.75-.25-1.11-.27-.52-.02-1.02.34-1.49-.07-.48-.4.11-1.64-.27-2.27-.21.16-.75.59-.85.78-.12.26.16.62-.09.88-.41.4-1.93-.22-2.45-.42-.29-.13-2.21-1.03-2.32-1.14-.38-.39.13-.95.1-1.4-.68-.2-2.45.47-2.81-.26l-.07-.65c-.73-.07-1.17.62-1.82.86-.14.04-.33.01-.43-.07-.12-.08-.77-1.67-.87-1.97-.68.41-.3,1.6-1.04,1.9-.46.15-2.96-.54-3.27-.91-.36-.42.26-1.08.4-1.5-.46.07-.99.08-1.44.18-.46.1-1.25.58-1.6.34-.48-.52.04-1.2-.09-1.83-.75.07-1.37,1.49-2.13,1.28-.65-.18-.11-1.49-.54-1.94-.5.45-1.13.77-1.57,1.29-.28.34-.4.97-.9.92-.7-.07-.87-1.83-1.04-1.83-.46.36-.57,1.01-.87,1.47-.7,1.02-1,.12-1.8-.17.04.58-.52.87-.99.53-.37-.27-.84-2-.15-2.26l.39-.08,1.73,1.14c.5-.68.86-1.61,1.81-1.78.64.07.85,1.53,1.05,1.53.47-.48,1.97-1.88,2.61-1.83.64.25.9.91.85,1.58,1.5-1.21,3.32-1.96,2.35.9.61-.18,3.12-.78,3.36-.04.12.49-.1.9-.36,1.28l1.67.45c.23-.6.61-1.95,1.37-1.95.99-.01.81.62,1.09,1.27.07.14.28.59.48.57.09-.01,1.57-.79,1.63-.86.17-.16.5-.91.73-1.23.72-.96,1.54-1.84,2.4-2.68-.83-.5-1.04-.97-.72-1.89.49-1.41,2.45-1.88,3.65-2.48.6-1.78,2.56-5.09,4.57-5.33,2.59-.3,4.96-.23,7.56-.26,1.8-.03,3.42-.36,5.24.22.5.15.8.48,1.2.62.63.24.92.43,1.43.65.96.4,2.39.51,3.39.98.6-4.06,1.14-8.11,1.71-12.17.16-1.18.54-2.51.64-3.67.12-1.44-.3-3.02-.14-4.5l-1.09.12-.21-.64c-.21,0-.36.52-.46.52h-4.24v2.68c-.49.47-1.52-.28-2.13-.16l-1.25,1.21c-.52.26-.93-.25-.76-.76.1-.32.74-.58.75-.92l-.12-1.51c-.12-.12-2.25.63-2.61.73-4.83,1.28-9.71,2.36-14.59,3.46-.15.17.09,4.07,0,4.75-.04.26-.32,1.08-.6,1.11-.77.09-1.17-.93-1.48-1.52-.17-.33-.29-.74-.41-1.1l-.27.09c-.3.52-.67,1.3-1.36.84l-.21-2.99-.86-.25c-.57,0-1.46,1.52-2.22,1.65-.29.05-.38-.25-.72-.23-.85.08-2.56.51-3.47.73-.58.13-1.64.64-2.14.53-.62-.13-1.12-1.61-1.46-1.53-.45.4-1.42,2.01-1.97,2.09-.67.09-1.22-.83-1.69-1.19-.11-.09-.13-.17-.33-.13-.05.3-.3.77-.52.98-.54.55-4.13,1.5-5.08,1.7-.59.13-2.53.71-2.61-.13-.03-.3.21-.47.2-.72l-2.87,1.17c-.24.64.17,2.51-.17,2.95-.17.22-.57.26-.8.12-.32-.34-.26-.8-.25-1.24-.59-.15-1.2,1.61-1.7,1.25-.32-.23-.65-1.97-.65-2.42-.3-.05-.21.02-.29.16-.26.47-.53,1.62-1.28.96-.36-.33-.26-1.01-.86-1.1-.75-.11-2.45.78-3.35.72-.23-.01-1.46-.37-1.71-.48-.45-.17-.76-.63-1.18-.66-.21-.01-.97.1-1.11.21-.2.13-.04.59-.34.71-.54.21-.42-.39-.76-.38-.58.13-2.01,1.02-2.51.62l-.23-2.05c-.45,0-.47.42-.67.5-.16.05-.38.02-.57.09-.64.24-1.2.61-1.83.85v-1.31l1.67-.87.15-4.47-1.83.13v-.91l2.09-.13c.04-1.39.2-2.77.13-4.18l-2.22.13v-1.29H-.16c.11-1.17.23-2.36.08-3.54l-2.29-.12v-.78l2.29-.12c.1-2.71.26-5.38,0-8.1l-2.29-.25v-.78l2.35.13-.14-4.81-2.21-.4v-.91l14.73,2.22v-2.94s.19-.85.23-.95c.1-.21.27-.34.47-.44,1.29-.74,3.8-.84,4.71.55.55.84.15.99.08,1.75-.05.43-.03,2.51.15,2.77,1.72.33,3.5.61,5.25.82,5.55.65,11.15.95,16.68,1.42,1.24.11,2.47.35,3.71.39v-2.27s.21-.72.25-.79c.66-.94,3.96-1.08,4.18.4.09.57-.1,3.11.02,3.31,2.07.29,4.12.77,6.2,1.04,2.58.34,5.2.42,7.8.66,1.02.1,2.06.24,3.07.39-.09-1.5-.12-3.03,1.86-2.71.77.13,1.78.92,1.79,1.74,0,.42-.24.89-.14,1.36l6.13.59c0-1.78-.11-3.56-.13-5.34-.08-5.39.13-11.02,0-16.42,0-.73-.36-1.64-.33-2.41-1.82-1.59-4.23-2.53-5.47-4.7-.76-.37-.99-1.11-1.45-1.69-.7-.87-1.44-1.71-2.08-2.61-.41,1.97-1.59,3.43-3.63,2.07-.46-.3-.8-.74-.93-1.28-.78,1.41-2.22,1.17-3.58.91-.36,2.93-4.38,3.55-4.98.41-2.62-.32-1.53-3.57-.24-4.84-.72.26-1.28.07-1.96-.2-.27-.11-.43-.4-.77-.34-.42,2.19-2.55,3.03-4.37,1.7-.29-.03-.8.47-1.33.48-.73.02-1.4-.47-1.66-1.13-.22-.53-.1-1.04-.23-1.47-.05-.18-.41-.46-.52-.78-.41-1.18.47-2.45,1.08-3.42-.51-.39-1.17-.65-1.3-1.37.35.04.77-.05,1.1.01.21.03.36.25.52.25.21,0,.63-.3,1.01-.3.08,0,.15,0,.23.04.24.15.42.36.34.66-.09.3-1.18,1.41-1.48,1.9-.27.46-.78,1.5-.48,2,.06.12.38.22.52.38.5.55.18,1.32.47,1.95.82.26,1.05-.69,1.74-.65.46.03.73.61,1.37.74,2.21.46,1.09-3.84,2.9-3.31.58.16.29,1.1.61,1.48.46.32,1.13.77,1.7.51.24-.1.47-.6.75-.69.42-.13,1.04,0,1.18.46.21.7-1.18,2.25-1.47,3.03-.17.47-.47,1.63.15,1.8.43.13.89-.31,1.28.01.52.41-.34,1.69.93,1.94,2.01.4,1.3-2.88,2.12-3.3.76-.28.91.26,1.03.89.16.28,1.56.28,1.87.2.49-.14.65-1.37,1-1.74.33-.33,1.4-.53,1.63-.07.2.72-.17,1.36.39,1.96,1.12,1.23,1.64-.4,1.75-1.38.05-.6-.12-2.13.08-2.53.33-.65.91.03,1.21.11.34.1,1.33-.18,1.59-.43.35-.32.28-.87.47-1.23.28-.53,1.35-1.29,1.52-1.74.16-.4-.39-1.08.4-1.42.1-.04.17-.05.24-.05.16,0,.27.09.43.22.53.43.25.95.38,1.58.21.96,1.09,2.91,2.03,3.32,2.07.87,1.97-1.75,3.96-1.01.17-.03.65-.92,1.32-1.02.51-.07-.13.95-.15,1.13-.03.24.09.69-.02,1,.98,1.52,2.69.32,4.08.35.7,2.42,2.41-.62,3-.64.24-.01.48.14.53.38.12.49-.77,1.67-1.01,2.26-.37.89-.4,1.18-.38,2.1.01.33-.25.41.09.85.59.79,2.28.64,2.68,1.11.34.39-.15.88-.15,1.32.01.33.24.53.27.84.12.1.68-.4.91-.46,1.02-.28.98.83,1.48,1.33.63.65,2.35.71,3.21.57v1.57c-.28-.03-.41.05-.58.26-.47.59-.88,1.64-1.32,2.34-.5.77-2.3,2.88-2.4,3.59-.03.21-.01.22.18.2,1.39-.18,2.75-.59,4.11-.91v1.04c-1.14.28-2.29.6-3.47.77-.96.13-2.34-.01-3.09.55-.58.41.18.9.66.99.78.14,1.12-.17,1.69-.2.87-.03.33,1.14.6,1.7.3,1.13.75.5,1.26.95.38.45.2,1.12.82,1.39.58.25.97-.07,1.53-.03M91.2,51.79v-.78l-1.04-.08c-.46,1.2.17.91,1.04.86M91.2,46.43v-1.28l-.9-.14v1.42h.9ZM91.2,50.48v-1.42l-1.03-.14v1.57h1.03ZM86.87,24.25c.84-2.26,2.66-3.97,3.68-6.16-.11-.17-.33-.05-.45.07-.57.57-1.18,1.83-1.76,2.53-.3.37-.97.84-1.18,1.17-.49.78-.02.73-1.12,1.35-1.25.71-4.62,2.01-6,2.22-.36.05-.5-.11-.79-.26-.48-2.71-.25-5.48-.26-8.22,1.11-1.55,2.47-3.08,3.96-4.26l.04-.17c-.1-.2-.22-.61-.51-.42l-2.64,1.8c-.22.16-.64-.02-.72-.25l-.22-2.65c-.74.57-1.37,1.24-2.09,1.82-.28.24-.93.55-1.11.73-.22.22-.24.83-.51,1.14-1.42,1.11-2.96-.39-4.44-.55.76.89,5.34,3.44,5.45,4.38.1.36-.48.54-.5.65-.09.33.12.71.13,1.02.09,1.92-.32,3.6-.26,5.6.13,4.01.37,8.1.52,12.12.25,6.27.71,12.64.27,18.91-.11,1.51-.43,2.74-.64,4.18-.11.71.05.55-.27,1.18-.25.49-.2,1.96-.26,2.58-.39,3.4-.89,6.79-1.45,10.17.91,1.45,2.57.73,3.97,1.21.39-.39.71-.84,1.12-1.21.22-.21.48-.29.68-.46.13-.1.15-.33.3-.38.53-.17,1.93.77,2.52.9-.4-2.42-1.28-4.74-1.78-7.15-.36-1.79-.76-4.28-.68-6.09.34-8.15-.71-16.1-.78-24.24-.02-2.49.16-5.08.13-7.56-.02-1.45,2.56-3.62,3.73-4.34,1.3-.79,2.51-.93,3.93-1.36M89.64,49.25c.08-1.54.16-4.14,0-5.62-.04-.38-.18-.59-.59-.59-.24.02-.29.12-.33.34-.18.98.34,2.45.13,3.52-.11,1.31-.3,2.73-.26,4.03.01.38.28.71,0,1.11l.76-.15c.04-.86.24-1.79.28-2.64M87.87,19.45l1.12-1.95-.74-.37c-1.6.82-2.78,2.36-3.57,3.96-.24.15-.67.01-.98.07-.65.11-1.14,1.73-1.1,2.34.07.08,1.23-.37,1.42-.46.43-.17,1.53-.62,1.84-.9.71-.65,1.3-1.96,2-2.69M88.08,52.18v-2.94c-.25-.32-.73-.2-1.09-.17-.45.14-.09,1.05-.07,1.39.12.14.95,0,.55.54h-.58v1.43l1.17-.26h.02ZM88.08,46.04v-1.42l-1.17-.13v1.55h1.17ZM88.08,48.52l-.05-1.7-1.12-.13v1.83h1.17ZM87.56,16.46l-.14-.51c-1.51.42-2.26-1.03-1.82-2.35l-1.83-.2-3.45,3.32c-.21,1.87-.31,3.93-.21,5.81.02.39.08,1.05.14,1.42.02.15.05.24.18.3l1.37-.37c-.26-1.22.13-2.96,1.3-3.59.27-.14.91-.27,1.02-.35.07-.05.68-1.17.93-1.47.59-.71,1.62-1.79,2.48-2.02M86.64,46.04l-.02-1.54c-.4-.18-.85-.15-1.28-.14v1.56l1.31.13h-.01ZM86.64,48.39v-1.68c-.52-.26-1.07-.02-1.48-.04-.4-.02-.99-.4-1.52-.23l.13,1.96h1.16l.14-.91c.51-.14.14.8.26.91h1.31ZM85.21,51.52c.53.11.9-.32,1.44-.26-.29-.55-.98-.09-1.44-.13v.39ZM86.51,49.04h-1.17v1.44h1.17v-1.44ZM85.21,45.92v-1.7l-1.57-.13v1.7l1.57.13ZM83.77,52.18c.64-.12,1.37-.23,1.17-1.04h-1.17v1.04ZM84.89,50.49l.05-1.58h-1.17v1.7h.85l.27-.12ZM83,52.7c.78-.21.47-.93.51-1.57h-1.31v.52l.91-.13-.12,1.17h0ZM83.39,44.03v-.07l-1.44-.13v1.82h1.43v-1.62ZM83.38,50.61v-1.7h-1.29c.24.52.09,1.13.12,1.7h1.18-.01ZM83.38,48.26l-.06-1.83-1.24-.13v1.96h1.3ZM83.12,8.51c-.67.23-1.54.08-1.83-.64l-1.44.59.27,3.97c.47-.37,2.31-1.03,2.45-1.52.07-.23,0-.49.05-.73.13-.56.27-1.13.49-1.66M81.04,52.57c.7-.16.88-.78.78-1.44h-.78v1.44ZM81.83,48.26l-.13-2.09h-.91l.14,2.08h.9ZM81.83,50.61l-.02-1.61-.76-.22v1.83h.78ZM81.69,45.52v-1.82l-1.11-.26c-.15,0,.18,1.85.07,2.09h1.04ZM74.92,45.01c-.09-1.04.46-2.19-1.04-2.09v2.09h1.04ZM74.91,53.03v-1.89h-1.03v1.25l.26.26-.13.7s.9-.32.9-.32ZM74.91,50.74v-2.09h-1.16v1.89c.27.34.77.15,1.16.2M74.91,48.13v-2.41c-.24-.32-.67-.16-1.03-.2v2.61h1.03ZM74.4,13.86v-6c-.91.22-2.2.2-3-.33-.38-.26-.75-1.04-.98-1.49-.34-.65-.64-1.39-.85-2.09-.15-.11-.93.68-1.04.84-.24.36-.19.74-.36,1.08-.42.9-1.87,1.28-2.76,1.4,0,.27.92,1.03,1.16,1.31.47.54.89,1.24,1.37,1.76,1.61,1.75,4.15,3.06,6.46,3.52M73.48,50.55v-1.89h-1.44v2.09c.47-.07,1.09.17,1.44-.2M73.48,48.13v-2.55c-.35-.37-.97-.13-1.44-.18v2.73h1.44ZM73.48,44.88v-2.09l-1.44-.13v2.22h1.44ZM73.42,52.82l.07-1.69h-1.44l.15,2.06.67.13.54-.5h.01ZM71.79,53.22v-1.89c-.35-.37-.97-.14-1.43-.2l.13,2.09h1.3ZM71.79,50.68v-2.02l-1.57-.13.13,2.34c.47-.04,1.1.17,1.43-.18M71.66,48.13v-2.86l-1.57-.13c-.02,1,.23,1.98.13,2.99h1.44ZM71.66,44.75v-2.22h-1.44c.08.7-.1,1.38-.12,2.07,0,0,1.56.15,1.56.15ZM70.09,53.22v-1.89c-.39-.42-1.05-.11-1.57-.07v1.96h1.57ZM69.96,50.87v-2.15c-.35-.4-.98-.03-1.44-.33v2.48s1.44,0,1.44,0ZM69.96,44.42v-2.02l-1.3-.13v2.22c.47-.13,1.01.33,1.3-.07M69.96,47.94l-.18-2.81c-.25-.13-1.14-.4-1.25-.05v2.93l1.44-.07h-.01ZM67.85,78.28c.54-.83.61-1.45.36-2.39-.35-1.26-.85-2.08-2.15-2.4-1.76-.46-3.63-.09-5.41-.05-2.1.03-3.79-.07-5.88.24-.38.05-.76-.03-1.13.04-1,.2-2.35,2.39-2.86,3.26-.21.36-.78,1.84-1.1,1.89-.13.02-.33-.12-.5-.11-.13.01-2.01,1.15-2.19,1.31-.11.09-.45.57-.36.65.68.02,1.35.34,2.02.39,2.18.19,3.64.11,5.52-.99,1.39-.8,2.45-2.08,3.67-2.85,1.91-1.22.78,2.08.91,2.26.15.04.3.11.46.13,1.98.26,3.72.55,5.67.08.91-.23,2.45-.63,2.97-1.46M67.75,53.03c.15-4.2-.12-8.49-.02-12.7l-1.22-.39-.21.45c.02,4.31.05,8.61-.12,12.9-.03.76.12,1.41.13,2.15.38-.05.73.13,1.1.14.25,0,.2.02.2-.2.03-.52-.02-1.05,0-1.58.02-.25.13-.49.14-.77M65.14,51.65v-3.39h-1.83v3.65s1.83-.26,1.83-.26ZM65.14,47.61v-3.12h-1.96l.13,3.12h1.83ZM65.14,43.77l-.02-1.49-1.67-.27-.13,1.69,1.83.08h-.01ZM65.14,53.09l-1.83.13v.64c.58-.21,1.43-.27,1.83-.77M63.18,53.99c.04-.21-.24-.11-.33-.25-.1-.14-.04-.36-.08-.51l-1.69-.15.07,1.18c.21.34,1.62-.38,2.02-.27M63.05,43.7l-.13-1.7-1.7-.13v1.83h1.83ZM62.87,47.49l.18-3.13h-1.96v3.38l1.77-.25h0ZM62.92,52.05v-3.59c-.43-.46-1.15.04-1.74-.04l-.16.1v3.4c.28.55,1.4.08,1.9.13M60.91,43.57l.05-1.83-1.57-.13-.13,1.96c.38-.15,1.45.29,1.64,0M60.65,47.62l.18-3.26-1.7-.13-.13,3.51,1.64-.12h.01ZM60.65,54.53l-.09-1.55c-.3-.16-1.46-.27-1.62-.02-.08.34-.18,2.07.13,2.09l1.58-.51h0ZM60.57,51.92v-3.52h-1.57c.16.6-.4,2.73,0,3.07.23.18,1.23.28,1.57.46M58.88,43.57l.12-1.95-1.69-.09c-.37.57-.23,1.26-.25,1.9l1.82.13h0ZM58.63,47.74c-.09-1.19.22-2.33.13-3.51h-1.61c-.08,0-.21.27-.22.33-.16.97.11,2.31,0,3.32l1.7-.13h0ZM58.63,51.26v-2.87l-1.7.13v2.35c.59.04,1.07.5,1.7.39M58.5,54.84v-1.88l-1.7.12.13,2.48c.37-.15,1.57-.26,1.57-.72M57.37,52.55l.87-.24c-.51,0-.98-.22-1.44-.39v.65l.57-.02ZM56.67,43.57l.08-2.1-1.9-.25v2.22l1.83.13h-.01ZM56.67,47.15v-2.93l-1.96-.13-.13,3.91,1.89-.12c0-.21.2-.62.2-.73M56.46,50.74l.21-2.09h-1.89c-.39.48-.13,1.33-.17,1.94l1.86.15h-.01ZM56.53,52.56c.03-.25.08-.66-.21-.76h-1.74c0,.23-.11.96.21,1.01l1.74-.25ZM56.21,55.69l.33-2.48-1.96.14-.26,2.73s1.89-.39,1.89-.39ZM54.27,43.32l.07-2.15-1.84-.34v2.41c.35.37,1.01.13,1.5.2l.27-.12ZM54.17,47.92l.14-3.62c-.08-.38-1.4-.14-1.74-.22-.14.02-.05.27-.08.4,0,0-.11.05,0,.13v.52c-.33.09-.21-.21-.39-.39v-.39c0-.09,0-.17,0-.26h-1.95l-.13,4.17c.66.1,1.29-.16,1.95-.13.02,0,.12.12.26.13.24,0,.52-.11.78-.13h.13c.32-.03.91.14,1.02-.21M54.19,50.61v-1.83c-.65-.03-1.3.08-1.96.13-.09,0-.17,0-.26,0-.65.05-1.28.21-1.95.13v1.96l1.95-.39c.09,0,.17,0,.26,0,.65-.04,1.32.03,1.96,0M54.07,52.76l.12-1.11h-1.96l-.13,1.3,1.97-.2h0ZM53.81,56.27l.25-2.79c-.64.02-1.33-.11-1.9.26l-.05,3,1.71-.47h0ZM52.1,43.25v-2.55l-1.95-.26v2.87c.65-.16,1.46.4,1.95-.07M51.84,53.09l.13-1.3-1.83.18-.12,1.25,1.82-.13ZM51.71,56.86l.14-3.06c0-.1-1.75-.2-1.83.12v3.33l1.68-.39h.01ZM49.63,57.26v-3.39l-1.64.26c.11,1.21-.15,2.42-.05,3.65l1.7-.52h-.01ZM49.63,51v-1.96c-.54.08-1.28-.2-1.7.2v2.15s1.7-.39,1.7-.39ZM49.63,43.31v-3c-.58-.11-1-.11-1.57,0v3h1.57ZM49.61,48.19l-.04-4.1-1.5-.12v4.43h1.24s.3-.21.3-.21ZM49.5,53.35v-1.31c-.55.14-1.1.29-1.57-.13v1.44s1.57,0,1.57,0ZM46.9,55.89v-1.69c0-5.92-.02-11.82,0-17.74l-.14-.39c-.6-.22-1.3-.28-1.83.14v24.83c.25-.13.64-.57.92-.34l1.03,2.02c0-2.27,0-4.56,0-6.84M43.43,53.73c.23-.04.37-.13.33-.38-.77.26-1.43-.07-2.21,0v.51c.08.08,1.63-.08,1.88-.13M43.63,58.95v-4.57l-2.09.21c-.26,1.63,0,3.32-.38,4.95l1-.83,1.47.24ZM43.63,52.31v-3h-1.95v2.15c0,.07-.24.3-.12.5.16.52,1.61.3,2.07.35M43.63,48.65v-4.82c-.7,0-1.39.03-2.08-.13l.13,4.95s1.95,0,1.95,0ZM43.63,43.18v-3.46c-.08-.13-.17-.16-.33-.19-.28-.06-2.07-.21-2.14-.13,0,.58.02,3.34.38,3.59l2.09.2h0ZM41.03,51.59v-2.09l-.2-.2h-3.33v2.41s.22.24.33.2c.73-.96,2.01-.77,2.92-.2.09.12.27-.12.27-.13M40.81,48.64c.47-.13.1-1.27.09-1.62-.05-1.1.09-2.23-.05-3.33l-3.34-.38v5.21l3.31.12h-.01ZM40.68,53.98c.27-.09.27-.58.2-.82-.03-.09-1.26-.87-1.42-.93-.88-.33-.82.47-1.2.63l-.75-.04v1.42l3.18-.27h-.01ZM40.77,60.26l.13-5.61-3.39.39v5.16c0,.06-.34.21.07.19.52,0,1.03-.24,1.56-.27.59-.03,1.08.08,1.64.14M40.77,42.73l-.26-3.46-3-.26v3.52s3.26.2,3.26.2ZM36.98,51.39v-2.09h-3.51v1.41c.64-.09.78.9,1.11,1.07.27.13.24-.58.39-.78.53-.71,1.4.32,2.01.39M36.98,48.52v-5.14c-.39-.37-1.1-.15-1.63-.2-.55-.05-1.18-.21-1.75-.26l-.13,5.6h3.51ZM36.98,42.33v-3.26l-.33-.2-3.06-.13v3.33c.08.13.17.17.33.2.6.1,1.46.1,2.08.13.36.02.72.32.98-.07M36.84,54.37c.16-.47.32-1.59-.04-1.95-.17-.17-.93-.62-1.18-.64-.29-.04-.14.05-.2.18-.12.26-.16.58-.39.78l-.68.07-.88-1.03v2.86s3.37-.27,3.37-.27ZM36.72,60.65l.13-5.61-3.37.4c.11,1.37-.32,2.76,0,4.09.12.55.64,1.07.78,1.63,0,0,2.46-.51,2.46-.51ZM33.08,42.14v-3.33c-.09-.13-.18-.16-.33-.18-1-.2-2.17-.13-3.2-.27l.13,3.52,3.39.26h.01ZM32.82,48.52l.26-5.6c-1.13-.04-2.26-.22-3.39-.26l.26,5.86s2.87,0,2.87,0ZM32.82,59.34v-3.91l-2.87.26c.15,1.59-.26,3.2-.13,4.76.03.52.32.91.84.98.15,0,1.48-2.27,2.16-2.09M32.82,54.78v-2.86c-.55.23-.87.98-1.54.75l-.54-1.14-.78.72v2.8l2.87-.26h0ZM32.75,51l.07-1.7h-2.87v1.57l1.22-.64c.51.13.3,1.29.54,1.29l1.04-.52ZM29.29,55.04v-1.88s-.4-.33-.46-.33h-3.84v2.6s4.3-.39,4.3-.39ZM29.16,60.13v-4.31l-4.17.26v6.51c.58-.07,1.51-.24,2-.53.66-.41.95-2.41,2.17-1.93M29.16,51.85v-2.68h-4.17v2.48h2.67c.25,0,1.01.3,1.32.37l.18-.17ZM29.16,48.39l-.13-5.54c-.01-.36-.54-.39-.86-.45-.71-.11-1.89-.25-2.6-.28-.24,0-.43,0-.58.21v5.93l4.17.13ZM28.91,41.69c.36-.26-.08-2.78-.07-3.34l-3.59-.39-.13,3.39,3.79.34ZM24.36,41.17l.2-3.34-3.6-.38v3.32c.26.34.73.15,1.11.2.4.04,2.09.35,2.3.21M24.35,55.23v-2.27h-3.13v2.73l2.53-.13s.6-.33.6-.33ZM24.35,51.65v-2.61h-3.07l-.2.2v2.35c.42.45,1.13.09,1.63.07.54-.03,1.09,0,1.63,0M24.35,48.26v-6.25l-2.81-.27-.52.13.06,6.4h3.27ZM24.34,62.99l-.12-6.78-2.78.28-.2.2-.02,5.51s.68-.55,1.06-.08c.4.5-.26,1.13-.14,1.25l2.21-.39h0ZM20.56,55.82v-2.67l-.26-.14c-.84.15-1.79.03-2.47.65v2.41l2.73-.26h0ZM20.42,62.58l.14-5.98-2.51.28-.22.17v6.45l2.59-.92ZM20.43,51.79v-2.61h-2.6v3c.86-.21,1.73-.29,2.6-.39M20.43,48.26l-.14-6.5-2.14-.27-.32.2v6.38l.2.2h2.4,0ZM20.3,40.83v-3.51l-2.47-.39v3.58l.22.17,2.25.15ZM16.67,65.52c.1-.55-.28-.9-.27-1.16.01-.2.3-.39.27-.64l-.1-31.37c-.93-.76-1.83-.3-2.91-.38v31.93c.23.02.11-.29.34-.38.81-.28.96,1.04,1.07,1.65.07.39-.09.83.23,1.08.36-.54.84-.51,1.38-.73M12.48,56.6v-3.25c-.95.22-2.08-.08-2.86.58v2.94l2.86-.26h0ZM12.48,52.44v-3.39l-2.73-.13v3.92c.89-.27,1.82-.25,2.73-.39M12.48,48.13v-6.97c-.28-.3-3.01-.57-3.12-.46.1,2.48.54,4.94.39,7.43h2.73ZM12.48,40.05v-3.91l-3.25-.39v4.04l3.25.26ZM12.48,64.42l-.13-7.04-2.74.34c-.45,2.18.02,4.36-.12,6.57.63-.16,1.22-.34,1.89-.26.46.05.68.34,1.1.39M9.1,47.28c.12-1.45-.22-2.86-.27-4.3-.03-.73.33-1.53.09-2.29l-3.86-.38c-.06,2.11.08,4.22.01,6.33-.02.5-.38,1.11.05,1.49h3.85c-.03-.29.11-.57.13-.85M8.9,53.09c.3.08.19-.28.2-.46.01-.28,0-.57,0-.85.01-.97-.02-1.91-.13-2.87h-3.91l-.13.13-.13,1.96c.84-.12.98.33.78,1.04,1.07-.28,2.38-.94,3.39-.26l-.07,1.3h0ZM8.75,57.01c.38-.09.15-2.56.22-3.01-.07-.07-1.16.42-1.28-.21-.05-.23.58-.93.37-1.35-1.22-.05-2.34.57-3.39,1.1v3.85l4.09-.38h-.01ZM8.84,39.79v-3.58c0-.09-.19-.39-.15-.57l-3.63-.54v4.3l3.79.39h-.01ZM8.71,64.55l-.07-6.66c-.1-.15-.21-.11-.36-.1-1.2.12-2.4.3-3.6.38-.68,1.87-.21,3.79-.28,5.72.66.06,1.69-.38,2.27,0,.21.14.2.38.52.52.45.21,1.02.1,1.51.12M4.4,39.2v-4.23l-3.9-.65v4.62l.33.2c.87.02,1.73.1,2.61.13.34,0,.71.33.97-.07M4.27,48.13l.12-7.73-.3-.22-3.59-.26v8.21h3.77ZM4.13,51.37l.14-2.46H.5v3.66c.4-.15,1.35.17,1.6.11.39-.1,1.45-1.25,2.03-1.3M3.95,57.4l.18-4.96c-.08-.09-.82.36-.9.46-.13.15-.12.35-.21.45-.25.32-2.07.46-2.53.39l-.13,4.05,3.59-.38h0ZM3.73,58.59l-.19-.29c-.54.24-3.11.12-3.31.49L-.03,62.99c.61-.07,1.2-.63,1.79-.23.37.67.05,1.38-.1,2.06l1.94-.73.12-5.49h.01Z"/>
        <path class="cls-9" d="M88.68,81.21c-.67-.58-.03-1.46-.14-2.2-.87.66-1.65,1.42-2.21,2.36-.26.45-.13.91-.92.77-.57-.1-1.03-1.36-1.3-1.83-.61.66-.38,3.39-.92,3.77-.75.52-1.37-.65-2.13-.51v2.27c0,.12-.47.38-.62.43-1.65.46-3.11.24-4.76,1.23-.43.25-1.19,1.16-1.63.72-.34-.5-.03-1-.02-1.53-.98.09-2,.75-2.74,1.37-.35.28-.87,1.03-1.24,1.11-1.12.22-.74-1.28-.91-1.96l-1.58,2.6c-.65.45-1.31-.71-1.48-.51-.07,1.11.59,2.53-1.11,2.49-.41-.02-1.14-.1-1.55-.16-.29-.03-.59-.13-.86-.24-.13.55.54,1.95,0,2.28-.3.18-.77-.11-1.21-.04-.55.08-1.4.5-1.92.75h32.85v-13.81c-1.29-.23-2.34.71-3.57.63"/>
        <path class="cls-9" d="M81.44,65.64c.5,3.31,1.77,6.45,2.39,9.73.17.54,1.07.47.96,1.21-.09.62-.68.53-1.15.42-.61-.13-2.44-.95-3.05-1.26-.3-.15-.48-.38-.78-.5l-1.97,1.95h-1.89c1.62,1.48,2.26,3.77,3.98,5.22.47-1.39,1.38-.1,2.27,0,0-.84.88-4.31,1.65-4.54,1.52-.47,1.01,1.69,1.68,2.45.58-.87,2.65-3.03,3.68-3.09,1.53-.09.27,2.4.43,2.57.86-.22,1.7-.49,2.6-.39v-12.77c-.46-.05-1.76.16-2.02-.26-.26-.43.49-1.18.4-1.7-.25.2-.54.33-.78.52-.46.37-.88,1.23-1.51.98-.4-.25-.4-2.29-.38-2.81-.62.2-1.38,2.45-1.59,2.59-.18.13-.71.02-.89-.17-.39-.38-1.53-2.7-1.02-3.04h.54l.93,1.67,2.15-2.42c.25-.12.48-.11.65.13v2.61s.15.33.2.33c.47-.52,1.1-1,1.76-1.24,1.67-.6.82.92.38,1.76h1.17v-5.72c-3.76.62-7.51,1.52-11.28,2.55.16,1.21.37,2.48.48,3.22"/>
        <path class="cls-6" d="M81.14,55.62c.02,1.06.09,2.23.03,2.74-.04.43-.33.84-.38,1.32-.07.59.03,1.65.17,2.74,3.77-1.03,7.52-1.92,11.28-2.55v-5.08c-3.67.07-7.37.38-11.1.82M90.19,59.83l-.16-.68c.51-1.26,2.36-.39,1.38.73-.33.23-.88.14-1.22-.04"/>
        <path class="cls-9" d="M89.58,52.83c-.38,0-1.06.09-1.43.14-.51.08-2.24.75-2.5.38l.14-1.17c-.78.46-1.72.67-2.5,1.14-.42.26-.53.73-1.07.4l-.02-.89c-.22.23-.74.5-.89.73-.17.27-.19,1.13-.17,2.07,3.73-.44,7.44-.76,11.1-.82v-1.84c-.9-.02-1.74-.18-2.66-.13"/>
        <path class="cls-10" d="M92.24,65.6v1.04c-.46-.05-1.76.16-2.02-.26-.26-.42.49-1.17.4-1.7-.25.2-.54.33-.78.52-.46.37-.88,1.23-1.51.98-.4-.25-.4-2.29-.38-2.81-.62.2-1.38,2.45-1.59,2.59-.18.13-.71.02-.89-.17-.39-.38-1.53-2.7-1.02-3.05h.54l.94,1.67,2.15-2.41c.25-.12.48-.11.65.13v2.61s.15.33.2.33c.47-.52,1.1-1,1.76-1.24,1.68-.6.82.92.38,1.76h1.18-.01Z"/>
        <path class="cls-9" d="M92.24,18.03c0,1.83.01,3.65,0,5.47-1.36.33-2.72.73-4.11.91-.2.02-.22.01-.18-.2.1-.71,1.9-2.82,2.4-3.59.44-.7.85-1.75,1.32-2.34.16-.21.29-.29.58-.26"/>
        <path class="cls-9" d="M92.24-.22c0,5.56.01,11.13,0,16.68-.86.14-2.58.09-3.21-.57-.5-.5-.46-1.61-1.48-1.33-.23.05-.79.55-.91.46-.03-.3-.26-.51-.27-.84,0-.43.49-.92.15-1.32-.39-.47-2.09-.32-2.68-1.11-.34-.43-.08-.52-.09-.85-.02-.92.01-1.21.38-2.1.24-.59,1.13-1.77,1.01-2.26-.05-.24-.29-.39-.53-.38-.59.02-2.31,3.07-3,.64-1.39-.03-3.1,1.17-4.08-.35.11-.32-.01-.76.02-1,.02-.18.66-1.2.15-1.13-.66.1-1.14.99-1.32,1.02-1.99-.74-1.89,1.88-3.96,1.01-.95-.4-1.83-2.36-2.03-3.32-.13-.63.15-1.14-.38-1.58-.16-.13-.27-.22-.43-.22V-.22h22.66Z"/>
        <path class="cls-12" d="M90.1,18.16c-.57.57-1.19,1.83-1.76,2.53-.3.37-.97.84-1.18,1.17-.49.78-.02.73-1.12,1.35-1.25.71-4.62,2.01-6,2.22-.36.05-.5-.11-.79-.26-.48-2.71-.25-5.48-.26-8.22,1.11-1.55,2.47-3.08,3.96-4.26l.04-.17c-.1-.2-.22-.61-.51-.42l-2.64,1.81c-.22.16-.64-.02-.72-.25l-.22-2.65c-.74.57-1.37,1.24-2.09,1.82-.28.24-.94.55-1.11.73-.22.22-.24.83-.51,1.14-1.42,1.11-2.96-.39-4.44-.55.76.89,5.34,3.44,5.45,4.38.1.36-.48.54-.5.65-.09.33.12.71.13,1.02.08,1.74-.23,3.3-.25,5.07,4.51,6.25,1.27,16.02,4.04,24.09-.23-3.93-.49-7.86-.53-11.84-.02-2.49.16-5.08.13-7.56-.02-1.45,2.56-3.62,3.73-4.34,1.3-.79,2.51-.93,3.93-1.36.84-2.26,2.66-3.97,3.68-6.15-.11-.17-.33-.06-.45.06"/>
        <path class="cls-12" d="M80.55,67.84c-.36-1.79-.76-4.28-.69-6.09.1-2.37.07-4.72,0-7.06-1.11,6.78-2.92,14.04-1.63,20.85.19-.22.38-.43.6-.62.22-.21.48-.29.68-.46.13-.1.15-.33.3-.38.53-.17,1.94.77,2.52.9-.4-2.43-1.28-4.74-1.78-7.15"/>
        <path class="cls-11" d="M79.86,54.69c-.06-1.78-.15-3.57-.25-5.35-2.77-8.07.47-17.84-4.04-24.09,0,.18-.02.35-.01.53.13,4.01.37,8.1.52,12.12.25,6.26.71,12.64.27,18.91-.11,1.51-.43,2.74-.64,4.18-.11.71.05.55-.27,1.18-.25.49-.2,1.96-.26,2.58-.39,3.4-.89,6.79-1.45,10.17.91,1.45,2.57.73,3.97,1.21.19-.19.36-.39.53-.58-1.29-6.81.53-14.08,1.63-20.85M76.7,72.6c-.07.08-.21.11-.3.13l-.27-.07c-.14-.1-.35-.22-.43-.35-.21-.32-.17-2.01-.1-2.46.05-.3.33-1.01.68-1.01.96.51.47,1.6.45,2.41,0,.4.25,1.07-.02,1.34M77.13,63.44c-.09.94.02,1.93-.39,2.81-.84-.15-.71-1.73-.65-2.41.04-.51.41-2.66,1.1-2.53.48.09-.02,1.79-.05,2.14"/>
        <path class="cls-13" d="M89.65,43.63c.16,1.48.08,4.08,0,5.62-.04.85-.24,1.78-.28,2.64l-.76.15c.28-.4.01-.73,0-1.11-.04-1.31.15-2.73.26-4.03.21-1.08-.32-2.55-.13-3.52.03-.22.09-.32.33-.34.4,0,.54.21.59.59"/>
        <path class="cls-9" d="M88.99,17.5l-1.12,1.95c-.7.73-1.29,2.03-2,2.69-.31.28-1.4.73-1.84.9-.2.09-1.36.53-1.42.46-.04-.61.45-2.23,1.1-2.34.3-.05.74.09.98-.07.78-1.6,1.97-3.14,3.57-3.96l.74.37h-.01Z"/>
        <path class="cls-1" d="M88.08,49.24v2.94l-1.18.26v-1.44h.58c.39-.55-.43-.4-.55-.54-.02-.34-.38-1.25.07-1.39.36-.02.84-.14,1.09.17"/>
        <polygon class="cls-1" points="88.07 44.62 88.08 46.04 86.9 46.04 86.9 44.49 88.07 44.62"/>
        <polygon class="cls-1" points="88.02 46.83 88.08 48.52 86.9 48.52 86.9 46.7 88.02 46.83"/>
        <path class="cls-1" d="M87.42,15.95l.14.51c-.86.23-1.89,1.32-2.48,2.02-.25.29-.87,1.41-.94,1.47-.11.08-.75.21-1.02.35-1.17.63-1.57,2.37-1.3,3.59l-1.37.37c-.13-.07-.16-.15-.18-.3-.07-.37-.12-1.03-.14-1.42-.1-1.88,0-3.94.21-5.81l3.45-3.32,1.83.2c-.45,1.32.3,2.77,1.82,2.35"/>
        <path class="cls-1" d="M86.62,44.5l.02,1.54-1.29-.13v-1.55c.42,0,.87-.04,1.27.14"/>
        <path class="cls-1" d="M86.63,46.71v1.69h-1.29c-.12-.11.25-1.05-.26-.91l-.14.9h-1.16l-.13-1.95c.53-.17,1.12.21,1.52.23.41.02.96-.22,1.47.04"/>
        <path class="cls-1" d="M86.64,51.26c-.53-.05-.9.37-1.44.26v-.39c.46.04,1.14-.42,1.44.13"/>
        <rect class="cls-1" x="85.34" y="49.04" width="1.17" height="1.44"/>
        <polygon class="cls-1" points="85.21 44.23 85.21 45.92 83.64 45.79 83.64 44.1 85.21 44.23"/>
        <path class="cls-1" d="M84.95,51.13c.2.82-.53.92-1.18,1.04v-1.04h1.18Z"/>
        <polygon class="cls-1" points="84.95 48.91 84.89 50.49 84.62 50.61 83.77 50.61 83.77 48.91 84.95 48.91"/>
        <path class="cls-1" d="M83.51,51.13c-.04.63.27,1.36-.51,1.57l.12-1.17-.9.13v-.52h1.29Z"/>
        <polygon class="cls-1" points="83.38 43.97 83.39 44.03 83.38 45.66 81.96 45.65 81.96 43.84 83.38 43.97"/>
        <path class="cls-1" d="M83.38,48.91v1.7h-1.18c-.03-.57.12-1.17-.12-1.7h1.3Z"/>
        <polygon class="cls-1" points="83.33 46.43 83.38 48.26 82.09 48.26 82.09 46.3 83.33 46.43"/>
        <path class="cls-1" d="M81.29,7.87c.28.72,1.15.87,1.83.64-.22.53-.36,1.11-.49,1.66-.05.24.01.5-.05.73-.14.49-1.98,1.15-2.45,1.52l-.27-3.97,1.44-.59h-.01Z"/>
        <path class="cls-1" d="M81.83,51.13c.1.65-.09,1.27-.78,1.44v-1.44h.78Z"/>
        <polygon class="cls-1" points="81.69 46.17 81.82 48.26 80.92 48.25 80.78 46.17 81.69 46.17"/>
        <polygon class="cls-1" points="81.8 49 81.83 50.61 81.04 50.61 81.04 48.78 81.8 49"/>
        <path class="cls-1" d="M81.69,43.7v1.82h-1.04c.12-.23-.22-2.09-.07-2.08l1.11.26Z"/>
        <path class="cls-3" d="M52.96,83.46c.18-.02.54.03.67.15.25.25.15.7,0,1.1,5.71-.55,12.21-.01,16.86-3.49,0-1.04,1.97-3.06,1.21-5.13-.67-.24-1.36-.43-2.01-.58.33,1.33-.42,3.31-1.52,4.14-2.25,1.72-6.17,1.59-8.82,1.19-.4-.07-1.1-.17-1.39-.43l-.45-1.12c-1.4,1.17-3.14,2.52-4.92,3.04-.61.17-1.5.22-2.12.22-.88,0-1.73-.08-2.6-.24-.39.35-.82.64-1.18,1.02-.33.33-1.82,2.03-1.95,2.35-.12.27-.04.54-.1.82-.05.23-.27.36-.24.61h1.44c1.8-1.28,3.98-1.89,6.35-2.22-.16-.56.08-1.36.76-1.42"/>
        <path class="cls-8" d="M79.1,83.9c-.51-.31-2.02-2.45-2.41-3.07-.4-.63-.9-1.99-1.24-2.4-.2-.25-1.34-1.13-1.66-1.34-.61-.41-1.33-.74-2.07-1.01.76,2.07-1.21,4.09-1.21,5.13-4.64,3.48-11.14,2.94-16.86,3.49-.07.2-.16.38-.22.51-.68.44-1.08.13-1.21-.34-2.37.33-4.55.94-6.35,2.22h.45c.27,0,.97.46,1.05.78.14.52-.6.99-.47,1.17.67.21,2.09,1.23,2.77,1.02.25-.08,1.03-1.03,1.34-1.28.34-.27.79-.74,1.2-.36.41.72.48,1.5.42,2.32,1.19-.09,2.51.11,3.24,1.13l-.07.66-1.74,1.85h2.35c-.07-.3.14-.27.34-.37,1.46-.66,2.91-1.35,4.47-1.72.05-.66-.45-1.58-.15-2.17l.26-.27c.57-.32,1.52.37,2.22.47.4.05.8.03,1.21.03-.03-.63.12-2.92.52-3.33.88-.86,1.38,1.37,1.62,1.37.45-.66,2.19-3.58,2.98-3.49,1.11.12.3,2.16.35,2.84,1.04-.92,2.15-1.67,3.52-2.02.42-.1.79-.29,1.22-.08l.27.66c1.35-.8,2.95-.95,4.45-1.29l.03-.9c-.2-.08-.42-.1-.62-.22"/>
        <path class="cls-10" d="M77.18,61.3c.48.09-.02,1.8-.05,2.14-.09.93.02,1.93-.39,2.81-.84-.15-.71-1.73-.65-2.41.04-.51.41-2.66,1.1-2.53"/>
        <path class="cls-10" d="M76.72,71.26c0,.4.25,1.07-.02,1.34-.07.08-.21.11-.3.13l-.27-.07c-.14-.1-.35-.22-.43-.35-.21-.32-.17-2.01-.1-2.46.05-.3.33-1.01.68-1.01.96.51.47,1.6.45,2.41"/>
        <path class="cls-1" d="M73.88,42.92c1.5-.1.96,1.04,1.04,2.09h-1.04v-2.09Z"/>
        <polygon class="cls-1" points="74.91 51.13 74.91 53.02 74.01 53.34 74.14 52.64 73.86 52.38 73.88 51.13 74.91 51.13"/>
        <path class="cls-1" d="M74.91,48.65v2.09c-.39-.04-.89.14-1.16-.2v-1.89h1.16Z"/>
        <path class="cls-1" d="M74.91,45.72v2.41h-1.03v-2.61c.36.03.79-.12,1.03.2"/>
        <path class="cls-6" d="M42.97,68.21c-.84-.3-1.73-.54-2.67-.75.3.54.12,1.75.33,2.3.66-.63,1.44-1.27,2.34-1.55"/>
        <path class="cls-9" d="M41.13,72.51c.25,0,.87.06,1.61.11-.6-1.66,3.28-2.42,3.61-1.34.35,1.14-1.13.74-1.73.84-.4.06-.8.4-1.21.54,2.4.11,5.44-.04,3.16-2.32-.55-.55-1.19-1-1.9-1.38-.3.25-.97.13-1.33.18-.57.1-1.4.64-1.78,1.09-.3.35-.7,1.38-1,1.47-.16.04-.33.05-.48.01-.53-.17-.48-2.57-.48-3.11-.75.17-.87,1.18-1.06,1.82-.63.18-.58-.84-.45-1.3.11-.4.88-1.46,1.51-1.79-2.67-.52-5.6-.79-8.26-1.33,4.91-.82,9.67-1.95,14.39-3.15-.1-.25-.19-.52-.27-.77l-.27.09c-.3.52-.67,1.3-1.36.84l-.21-2.99-.86-.25c-.57,0-1.46,1.52-2.22,1.65-.29.05-.38-.25-.72-.23-.85.08-2.56.51-3.47.73-.58.13-1.64.64-2.14.53-.62-.13-1.12-1.61-1.46-1.53-.45.4-1.43,2.01-1.97,2.09-.67.09-1.22-.83-1.68-1.19-.11-.09-.13-.17-.33-.13-.05.3-.3.77-.52.98-.54.55-4.13,1.5-5.08,1.7-.59.13-2.53.71-2.61-.13-.03-.3.21-.47.2-.72l-2.87,1.17c-.24.64.17,2.51-.17,2.95-.17.22-.57.26-.8.12-.32-.34-.26-.8-.25-1.24-.59-.15-1.2,1.61-1.7,1.25-.32-.23-.65-1.97-.65-2.42-.3-.06-.21.02-.29.16-.26.47-.53,1.62-1.28.96-.36-.33-.26-1.01-.86-1.1-.75-.11-2.45.78-3.35.72-.23,0-1.46-.37-1.71-.48-.45-.17-.76-.63-1.18-.66-.21-.01-.97.1-1.11.21-.2.13-.04.59-.34.71-.54.21-.42-.39-.76-.38-.58.13-2.01,1.02-2.51.62l-.23-2.06c-.45,0-.47.42-.67.5-.16.05-.38.02-.57.09-.64.24-1.2.61-1.83.85v8.5c13.81-3.24,29.3.22,43.5-1.45M34.58,67.44c.14-.03.8.22.97.32.59.38,1.83,2.52,1.06,3-.83.32-.9-.86-1.21-1.41-.2-.38-1.02-1.29-1.02-1.6,0-.13.1-.28.21-.3M30.56,68.48c1.1-.36,2.77.85,3.28,1.76.25.46.14.85-.41.67-.27-.08-1.08-.87-1.52-1.09-.63-.32-2.34-.44-1.35-1.35"/>
        <path class="cls-9" d="M74.65,54.12l-1.09.12-.21-.64c-.21,0-.36.52-.46.52h-4.24v2.68c-.49.47-1.52-.28-2.13-.16l-1.25,1.21c-.52.26-.92-.25-.76-.76.1-.32.74-.58.75-.92l-.12-1.51c-.12-.12-2.25.63-2.61.73-4.83,1.28-9.71,2.36-14.58,3.46-.11.12-.02,2.04,0,3.43,7.06-1.83,14.08-3.75,21.45-4.98,1.77-.27,3.54-.54,5.3-.8-.07-.79-.15-1.59-.06-2.36"/>
        <path class="cls-6" d="M43.3,89.92h-1.09,1c-9.59-.95-19.17-.19-28.01,4.49h37.94l1.3-2.21c-.37-.05-.75-.25-1.11-.27-.52-.02-1.02.34-1.49-.07-.48-.4.11-1.64-.27-2.27-.21.16-.75.59-.85.78-.12.26.16.62-.09.88-.41.4-1.94-.22-2.45-.42-.23-.1-1.45-.68-2.02-.97-1,.04-1.99.06-2.96.06h.09"/>
        <path class="cls-6" d="M74.79,58.63c.06-.69-.01-1.41-.08-2.14-1.77.26-3.54.53-5.3.8-7.36,1.23-14.39,3.14-21.45,4.98,0,.61.02,1.11,0,1.32-.04.26-.32,1.08-.6,1.11-.77.09-1.17-.93-1.48-1.52-.05-.1-.1-.22-.14-.33-4.72,1.2-9.48,2.33-14.39,3.15,2.66.53,5.58.81,8.26,1.33.24-.12.46-.15.62,0,.04.04.06.09.09.14.94.2,1.83.45,2.67.75.36-.11.73-.17,1.12-.14s.81.22.7.7c-.02.09-.07.15-.13.2.71.39,1.36.83,1.9,1.38,2.28,2.28-.76,2.43-3.16,2.32-.22.07-.44.09-.67-.04-.74-.05-1.36-.11-1.61-.11-14.2,1.67-29.69-1.79-43.5,1.45v20.43H15.2c8.84-4.68,18.42-5.44,28.01-4.49.97,0,1.96-.03,2.96-.06-.15-.08-.27-.14-.3-.17-.38-.39.13-.95.1-1.4-.68-.2-2.45.47-2.81-.26l-.07-.65c-.73-.07-1.18.62-1.82.86-.14.04-.33.01-.43-.07-.12-.08-.77-1.67-.87-1.97-.68.41-.3,1.6-1.04,1.9-.46.15-2.96-.54-3.27-.91-.36-.42.26-1.08.4-1.5-.46.07-.99.08-1.44.18-.46.1-1.25.58-1.6.34-.48-.52.04-1.2-.09-1.83-.75.07-1.37,1.49-2.13,1.28-.65-.18-.11-1.49-.54-1.94-.5.45-1.13.77-1.57,1.29-.28.34-.4.97-.9.92-.7-.07-.87-1.83-1.04-1.83-.46.36-.57,1.01-.87,1.47-.7,1.02-1,.12-1.8-.17.04.58-.52.87-.99.53-.37-.27-.84-2-.15-2.26l.39-.08,1.73,1.14c.5-.67.86-1.61,1.8-1.78.64.07.85,1.53,1.05,1.53.47-.48,1.97-1.88,2.61-1.83.64.25.9.91.85,1.58,1.5-1.21,3.32-1.96,2.35.9.61-.18,3.12-.78,3.36-.04.12.49-.1.9-.36,1.28l1.67.45c.23-.6.61-1.95,1.37-1.95.99-.01.8.62,1.09,1.27.07.14.28.59.48.57.09-.01,1.57-.79,1.63-.86.17-.16.5-.91.73-1.23.72-.96,1.54-1.84,2.4-2.68-.83-.5-1.04-.97-.72-1.89.49-1.41,2.45-1.88,3.65-2.48.6-1.78,2.56-5.09,4.57-5.33.29-.03.58-.05.86-.07-1.89-.97-3.54-2.24-4.65-4.02,5.44-1.09,9.79,1.09,15.23-1.09,2.97-.85,5.89-1.73,8.79-2.6.1-.73.2-1.46.3-2.18.16-1.17.54-2.51.64-3.66M25.33,77.45c-.76-.01-1.9.77-1.89-.43l.52-1.25c-1.03-.15-1.72.21-2.47.86-.25.22-.36.68-.84.68l-.41-.38.33-2.47c-.08-.09-.94.45-1.08.54-.47.3-.85.6-1.14,1.08-.21.34-.49,1.48-1.13.83-.29-.29-.21-2.42-.42-2.97-.42.27-.7.92-.89,1.38-.29.68-.36,2.15-1.37,1.6l-2.95-2.07c-.15.16.76,2.51-.18,2.6-.73-.16-.84-2.72-.73-3.32.08-.46.77-.57,1.16-.39l2.74,1.89c.32-1.41,1.14-3.02,2.85-2.73l.41,1.95c.64-.49,2.88-2.13,3.61-1.4.26.25.22,1.32.03,1.66.57-.11,1.04-.45,1.64-.51.78-.09,1.6.15,1.96.89l-.21.79c.98-.07,1.98.1,2.81.64.25,1.42-1.57.52-2.35.52M69.54,63.93c-.7.27-1.37.73-2.1.76-.46-.11.15-2.33.17-2.75-.09-.09-.88.54-.98.65-.41.43-.74,1.78-1.42.91-.42-.54-.3-1.38-.33-2.02-.01-.15.1-.48-.13-.45-.35.65-.57,2.26-.94,2.78-.11.16-.27.26-.47.32-.77.12-1.11-1.53-1.45-2.15-.17-.32-.72-.93-.78-1.17-.11-.4.14-.83.57-.8.78.02,1.25,1.49,1.76,1.94.12-.46.29-.96.5-1.39.12-.25.81-1.59.92-1.67.2-.11.47-.09.66,0,.12.05.39.55.39.65v2.67c.42-.36,1.81-1.81,2.35-1.11.43.36-.23,2.46-.14,2.55.62-.14,2.8-1.22,3.26-.98.11.05.27.24.25.38-.07.35-1.71.74-2.11.89"/>
        <path class="cls-9" d="M49.83,68.16c1.11,1.77,2.76,3.04,4.65,4.02,2.26-.2,4.39-.16,6.7-.19,1.79-.03,3.41-.36,5.24.22.5.15.8.48,1.2.62.63.24.92.43,1.44.65.96.4,2.39.51,3.39.98.49-3.33.95-6.66,1.4-9.99-2.9.87-5.82,1.75-8.79,2.6-5.44,2.18-9.79,0-15.23,1.09"/>
        <path class="cls-14" d="M18.29,10.52c10.11,1.26,17.27-3.71,21.51-10.88H-2.38v28.34c17.76-5.07,40.24-3.11,56.55-8.76-13.05,1.09-26.1,0-35.89-8.7"/>
        <path class="cls-1" d="M74.66,36.86c-.08-5.39.13-11.02,0-16.42-.01-.73-.36-1.64-.33-2.41-1.82-1.59-4.23-2.53-5.47-4.7-.76-.37-.99-1.11-1.45-1.69-.7-.87-1.44-1.71-2.08-2.61-.41,1.97-1.59,3.43-3.63,2.07-.46-.3-.81-.74-.93-1.28-.78,1.41-2.22,1.17-3.58.91-.36,2.93-4.38,3.55-4.98.41-2.62-.32-1.53-3.57-.24-4.84-.72.26-1.28.07-1.96-.2-.27-.11-.43-.4-.77-.34-.42,2.19-2.56,3.03-4.37,1.7-.29-.03-.81.47-1.33.48-.73.02-1.4-.47-1.66-1.13-.22-.53-.1-1.04-.23-1.47-.05-.18-.41-.46-.52-.78-.41-1.17.47-2.45,1.08-3.41-.51-.39-1.17-.65-1.3-1.37.35.04.77-.05,1.1.01.21.03.36.25.52.25.21,0,.63-.3,1.01-.3v-.09h-3.73c-4.24,7.16-11.4,12.14-21.51,10.88,9.79,8.7,22.84,9.79,35.89,8.7-16.32,5.65-38.79,3.69-56.55,8.76v4.9l14.73,2.22v-2.94s.2-.85.23-.95c.1-.21.27-.34.47-.45,1.29-.74,3.8-.84,4.71.55.55.84.15.99.08,1.75-.05.43-.03,2.51.15,2.77,1.72.33,3.5.61,5.25.82,5.55.65,11.15.95,16.68,1.42,1.24.11,2.47.35,3.71.39v-2.27s.21-.72.25-.79c.66-.93,3.96-1.08,4.18.4.09.57-.1,3.11.02,3.31,2.07.29,4.12.77,6.2,1.04,2.58.34,5.2.42,7.8.66,1.02.1,2.05.24,3.07.39-.09-1.5-.12-3.03,1.86-2.71.77.13,1.78.92,1.79,1.74,0,.42-.24.89-.14,1.36l6.13.59c0-1.78-.11-3.56-.13-5.34"/>
        <path class="cls-1" d="M74.4,7.86v6c-2.31-.47-4.85-1.77-6.46-3.52-.48-.52-.9-1.22-1.37-1.76-.24-.27-1.16-1.03-1.16-1.3.89-.12,2.34-.5,2.76-1.4.16-.34.12-.72.36-1.08.11-.15.89-.95,1.04-.84.21.7.51,1.43.85,2.09.23.45.6,1.23.98,1.49.8.52,2.09.54,3,.33"/>
        <path class="cls-1" d="M73.48,48.65v1.89c-.35.37-.97.13-1.44.2v-2.09h1.44Z"/>
        <path class="cls-1" d="M73.48,45.59v2.55h-1.44v-2.73c.47.05,1.09-.18,1.44.18"/>
        <polygon class="cls-1" points="73.48 42.79 73.48 44.88 72.05 44.88 72.05 42.66 73.48 42.79"/>
        <polygon class="cls-1" points="73.48 51.13 73.42 52.82 72.87 53.32 72.2 53.19 72.05 51.13 73.48 51.13"/>
        <path class="cls-1" d="M71.79,51.33v1.89h-1.31l-.13-2.09c.47.05,1.09-.17,1.44.2"/>
        <path class="cls-1" d="M71.79,48.65v2.02c-.34.36-.97.14-1.44.18l-.13-2.34,1.57.13h0Z"/>
        <path class="cls-1" d="M71.66,45.27v2.86h-1.44c.1-1.01-.15-1.99-.13-2.99l1.57.13Z"/>
        <path class="cls-1" d="M71.66,42.53v2.22l-1.56-.15c.02-.68.2-1.37.12-2.07,0,0,1.44,0,1.44,0Z"/>
        <path class="cls-10" d="M71.4,62.66c.11.05.27.24.25.38-.07.35-1.71.74-2.11.89-.7.27-1.37.73-2.1.76-.46-.11.15-2.33.17-2.75-.09-.09-.88.54-.98.65-.41.43-.74,1.78-1.42.91-.42-.54-.3-1.38-.33-2.02-.01-.15.1-.48-.13-.45-.35.65-.57,2.26-.94,2.78-.11.16-.27.26-.47.32-.77.12-1.11-1.53-1.45-2.15-.17-.32-.72-.94-.78-1.18-.11-.4.14-.83.57-.8.78.02,1.25,1.49,1.76,1.94.12-.46.29-.96.5-1.39.12-.25.8-1.59.92-1.67.2-.11.47-.09.66,0,.12.05.39.55.39.65v2.66c.42-.36,1.81-1.8,2.35-1.11.42.36-.23,2.46-.14,2.54.62-.14,2.79-1.22,3.26-.98"/>
        <path class="cls-1" d="M70.09,51.33v1.89h-1.57v-1.96c.51-.04,1.17-.36,1.57.06"/>
        <path class="cls-1" d="M69.96,48.72v2.15h-1.44v-2.48c.46.29,1.09-.08,1.44.33"/>
        <path class="cls-1" d="M69.96,42.4v2.02c-.29.39-.84-.07-1.31.07v-2.22l1.31.13Z"/>
        <path class="cls-1" d="M69.77,45.13l.18,2.81-1.44.07v-2.92c.11-.35,1-.08,1.25.05"/>
        <path class="cls-6" d="M69.59-.22v1.48c-.07,0-.14,0-.24.06-.79.35-.24,1.02-.4,1.42-.17.45-1.24,1.21-1.52,1.74-.19.36-.12.91-.47,1.23-.26.25-1.25.53-1.59.44-.29-.08-.88-.76-1.21-.11-.2.4-.02,1.94-.08,2.53-.11.98-.63,2.61-1.75,1.38-.57-.6-.2-1.24-.39-1.96-.23-.47-1.3-.26-1.63.07-.35.37-.51,1.6-1,1.74-.32.09-1.71.09-1.87-.2-.12-.63-.27-1.17-1.03-.89-.82.41-.11,3.7-2.12,3.3-1.27-.25-.41-1.52-.94-1.94-.39-.33-.85.12-1.28-.01-.62-.17-.33-1.34-.15-1.81.28-.78,1.67-2.34,1.47-3.03-.14-.46-.76-.59-1.18-.46-.28.09-.51.59-.75.68-.57.26-1.24-.2-1.7-.51-.32-.38-.03-1.32-.61-1.48-1.82-.53-.7,3.76-2.9,3.31-.64-.13-.91-.71-1.37-.74-.68-.03-.92.91-1.74.65-.28-.63.03-1.39-.47-1.95-.14-.16-.46-.26-.52-.38-.3-.5.21-1.54.48-2,.29-.49,1.39-1.6,1.48-1.9.09-.3-.1-.51-.34-.66h25.83-.01Z"/>
        <path class="cls-2" d="M67.52,74.38c-.34-.43-.79-.73-1.47-.9-1.76-.46-3.63-.09-5.4-.05-2.1.03-3.8-.07-5.88.24-.38.05-.76-.03-1.13.04-1,.19-2.35,2.39-2.86,3.26-.08.15-.23.48-.4.83,5.26-2.87,11.15-3.67,17.15-3.43"/>
        <path class="cls-7" d="M67.52,74.38c-6-.25-11.88.56-17.15,3.43-.24.5-.51,1.03-.7,1.06-.13.02-.33-.12-.5-.11-.13.01-2.01,1.15-2.19,1.3-.11.09-.45.57-.36.65.68.02,1.35.34,2.02.39,2.18.18,3.64.11,5.53-.99,1.39-.8,2.45-2.08,3.66-2.85,1.91-1.22.78,2.08.91,2.26.15.04.3.11.46.13,1.98.26,3.72.55,5.67.08.91-.23,2.45-.63,2.97-1.46.54-.83.61-1.45.36-2.39-.17-.61-.37-1.11-.68-1.51"/>
        <path class="cls-13" d="M67.73,40.32c-.1,4.21.17,8.51.02,12.7-.01.28-.12.52-.14.77-.02.52.03,1.05,0,1.58,0,.22.06.2-.19.2-.37,0-.72-.2-1.1-.14-.01-.74-.16-1.39-.13-2.15.17-4.28.14-8.59.12-12.9l.21-.45,1.22.39h-.01Z"/>
        <polygon class="cls-1" points="65.14 48.26 65.14 51.65 63.31 51.92 63.31 48.26 65.14 48.26"/>
        <polygon class="cls-1" points="65.14 44.49 65.14 47.61 63.31 47.61 63.18 44.49 65.14 44.49"/>
        <polygon class="cls-1" points="65.12 42.28 65.14 43.77 63.31 43.69 63.44 42.01 65.12 42.28"/>
        <path class="cls-6" d="M63.31,53.22l1.83-.13c-.39.5-1.25.57-1.83.77,0,0,0-.64,0-.64Z"/>
        <path class="cls-6" d="M62.86,53.74c.09.14.37.04.33.25-.4-.11-1.82.61-2.02.27l-.07-1.18,1.69.15c.03.15-.02.37.08.51"/>
        <polygon class="cls-1" points="62.92 42.01 63.05 43.7 61.23 43.7 61.23 41.88 62.92 42.01"/>
        <polygon class="cls-1" points="63.05 44.36 62.87 47.49 61.1 47.74 61.1 44.36 63.05 44.36"/>
        <path class="cls-1" d="M62.92,48.46v3.59c-.5-.05-1.62.42-1.89-.13v-3.4l.15-.1c.59.09,1.3-.41,1.74.04"/>
        <path class="cls-1" d="M60.97,41.75l-.05,1.83c-.2.29-1.26-.15-1.64,0l.13-1.96,1.57.13h-.01Z"/>
        <polygon class="cls-1" points="60.83 44.36 60.65 47.62 59.01 47.74 59.14 44.23 60.83 44.36"/>
        <path class="cls-6" d="M60.56,52.97l.09,1.56-1.58.51c-.32-.02-.21-1.75-.13-2.09.16-.25,1.32-.14,1.62.02"/>
        <path class="cls-1" d="M60.57,48.39v3.52c-.34-.17-1.34-.27-1.57-.46-.4-.34.16-2.47,0-3.07h1.57Z"/>
        <path class="cls-1" d="M59,41.63l-.12,1.95-1.82-.13c.02-.64-.12-1.34.25-1.9l1.69.09h0Z"/>
        <path class="cls-1" d="M58.76,44.23c.09,1.19-.22,2.33-.13,3.51l-1.7.13c.11-1.01-.16-2.35,0-3.32,0-.05.14-.32.22-.34h1.61v.02Z"/>
        <path class="cls-1" d="M58.63,48.39v2.87c-.63.11-1.11-.35-1.7-.39v-2.35l1.7-.13Z"/>
        <path class="cls-6" d="M58.5,52.96v1.88c0,.46-1.2.57-1.57.72l-.13-2.48s1.7-.12,1.7-.12Z"/>
        <path class="cls-6" d="M58.24,52.31l-.87.24-.57.02v-.65c.46.17.92.39,1.44.39"/>
        <polygon class="cls-1" points="56.75 41.47 56.67 43.57 54.84 43.44 54.84 41.22 56.75 41.47"/>
        <path class="cls-1" d="M56.67,44.23v2.93c0,.11-.21.52-.2.73l-1.89.12.13-3.9,1.96.13h0Z"/>
        <path class="cls-1" d="M56.67,48.65l-.21,2.09-1.86-.15c.04-.61-.22-1.46.17-1.94h1.9Z"/>
        <path class="cls-6" d="M56.32,51.8c.28.1.24.51.21.76l-1.74.25c-.32-.05-.19-.78-.21-1.02h1.74Z"/>
        <polygon class="cls-6" points="56.54 53.21 56.21 55.69 54.32 56.08 54.58 53.35 56.54 53.21"/>
        <path class="cls-1" d="M54.33,41.17l-.07,2.15-.27.12c-.49-.07-1.15.17-1.5-.2v-2.41l1.84.34Z"/>
        <path class="cls-1" d="M54.31,44.3l-.14,3.62c-.11.35-.71.17-1.02.21h-.13c-.26.02-.54.14-.78.13.16-1.05.26-2.06.26-3.12v-.65c.02-.13-.07-.38.08-.4.34.08,1.66-.16,1.74.22"/>
        <path class="cls-1" d="M54.19,48.78v1.83c-.64.03-1.31-.04-1.96,0v-1.7c.65-.05,1.31-.16,1.96-.13"/>
        <polygon class="cls-6" points="54.19 51.65 54.07 52.76 52.1 52.96 52.23 51.65 54.19 51.65"/>
        <path class="cls-6" d="M54.06,53.47l-.25,2.8-1.71.47.05-3c.58-.37,1.26-.24,1.9-.26"/>
        <path class="cls-10" d="M53.63,83.61c.37.37-.03,1.21-.22,1.61-1.48.96-1.7-1.64-.46-1.76.18-.02.54.03.67.15"/>
        <path class="cls-12" d="M52.49,44.49v.13c-.11-.08,0-.12,0-.13"/>
        <path class="cls-12" d="M52.49,45.14c0,1.07-.1,2.07-.26,3.12-.14,0-.24-.13-.26-.13.23-.04.13-.4.13-.59.04-.93,0-1.87,0-2.8.19.18.07.48.39.39"/>
        <path class="cls-12" d="M52.23,48.91v1.7c-.09,0-.17,0-.26,0v-1.7c.09,0,.17,0,.26,0"/>
        <path class="cls-1" d="M52.1,44.75c0,.92.04,1.87,0,2.8,0,.18.1.54-.13.59l.13-3.51v.13h0Z"/>
        <path class="cls-1" d="M52.1,44.49v.13l-.13,3.51c-.65-.03-1.28.23-1.95.13l.13-4.17h1.95c0,.09,0,.17,0,.26v.13h0Z"/>
        <path class="cls-1" d="M52.1,40.7v2.55c-.49.47-1.29-.1-1.95.07v-2.87l1.95.26h0Z"/>
        <path class="cls-1" d="M51.97,48.91v1.7l-1.95.39v-1.96c.66.08,1.29-.08,1.95-.13"/>
        <polygon class="cls-6" points="51.97 51.78 51.84 53.09 50.02 53.22 50.14 51.97 51.97 51.78"/>
        <path class="cls-6" d="M51.85,53.81l-.14,3.06-1.69.39v-3.33c.08-.32,1.82-.22,1.83-.12"/>
        <path class="cls-6" d="M49.63,53.86v3.39l-1.7.52c-.1-1.23.16-2.45.05-3.65l1.64-.26h.01Z"/>
        <path class="cls-1" d="M49.63,49.04v1.96l-1.7.39v-2.15c.41-.39,1.15-.12,1.7-.2"/>
        <path class="cls-1" d="M49.63,40.31v3h-1.57v-3c.57-.11.99-.11,1.57,0"/>
        <polygon class="cls-1" points="49.57 44.08 49.61 48.18 49.31 48.39 48.07 48.39 48.07 43.96 49.57 44.08"/>
        <path class="cls-6" d="M49.5,52.05v1.31h-1.57v-1.44c.47.42,1.01.27,1.57.13"/>
        <path class="cls-13" d="M46.9,54.2v1.69c0,2.28,0,4.57,0,6.84l-1.03-2.02c-.28-.23-.67.21-.93.34v-24.83c.52-.42,1.23-.36,1.83-.14l.14.39c-.02,5.92,0,11.82,0,17.74"/>
        <path class="cls-10" d="M46.35,71.29c.35,1.14-1.13.74-1.73.84-.61.09-1.22.86-1.88.5-.6-1.66,3.29-2.43,3.61-1.34"/>
        <path class="cls-10" d="M44.1,68.07c.39.03.8.22.7.7-.13.51-1.03.32-1.46.38-.57.1-1.4.64-1.78,1.09-.3.35-.7,1.38-1,1.47-.16.04-.33.05-.48,0-.53-.17-.48-2.57-.48-3.11-.75.17-.87,1.18-1.05,1.82-.63.18-.58-.84-.45-1.31.15-.55,1.55-2.38,2.12-1.78.43.43.2,1.84.42,2.44.92-.88,2.08-1.79,3.46-1.7"/>
        <path class="cls-6" d="M43.76,53.35c.04.25-.1.34-.33.38-.25.05-1.81.21-1.88.13v-.51c.78-.06,1.44.26,2.21,0"/>
        <path class="cls-6" d="M43.63,54.38v4.57l-1.47-.24-1,.83c.39-1.63.12-3.32.38-4.95l2.09-.21Z"/>
        <path class="cls-1" d="M43.63,49.31v3c-.46-.04-1.9.17-2.07-.35-.12-.2.12-.43.12-.5v-2.15h1.95Z"/>
        <path class="cls-1" d="M43.63,43.83v4.82h-1.95l-.13-4.95c.68.16,1.38.14,2.08.13"/>
        <path class="cls-1" d="M43.63,39.72v3.46l-2.09-.2c-.36-.25-.37-3.01-.38-3.59.08-.08,1.86.08,2.14.13.15.03.25.07.33.2"/>
        <path class="cls-1" d="M41.03,49.5v2.09s-.19.25-.27.13c-.91-.58-2.2-.76-2.93.19-.11.04-.33-.16-.33-.19v-2.42h3.33s.2.2.2.2Z"/>
        <path class="cls-1" d="M40.9,47.02c0,.35.38,1.49-.09,1.62l-3.31-.12v-5.21l3.34.38c.14,1.1,0,2.23.05,3.33"/>
        <path class="cls-6" d="M40.88,53.17c.08.24.08.73-.2.82l-3.18.27v-1.42l.75.04c.38-.16.31-.96,1.2-.63.16.05,1.39.84,1.43.92"/>
        <path class="cls-6" d="M40.9,54.65l-.13,5.61c-.57-.07-1.06-.17-1.64-.14-.52.03-1.03.26-1.55.27-.4,0-.07-.13-.07-.19v-5.16s3.39-.39,3.39-.39Z"/>
        <polygon class="cls-1" points="40.51 39.27 40.77 42.72 37.51 42.53 37.51 39.01 40.51 39.27"/>
        <path class="cls-1" d="M36.98,49.31v2.09c-.61-.08-1.48-1.1-2.01-.39-.15.21-.12.91-.39.78-.33-.16-.47-1.15-1.1-1.07v-1.41s3.5,0,3.5,0Z"/>
        <path class="cls-1" d="M36.98,43.38v5.14h-3.51l.13-5.6c.57.05,1.2.21,1.75.26.53.04,1.24-.17,1.63.2"/>
        <path class="cls-1" d="M36.98,39.07v3.26c-.26.38-.62.09-.98.07-.62-.03-1.48-.03-2.08-.13-.15-.02-.25-.07-.33-.2v-3.33l3.06.13.33.2Z"/>
        <path class="cls-6" d="M36.8,52.43c.36.36.21,1.48.04,1.95l-3.37.27v-2.86l.88,1.03.67-.07c.23-.21.27-.52.39-.78.05-.13-.1-.23.2-.18.25.02,1.01.47,1.19.64"/>
        <path class="cls-6" d="M36.85,55.04l-.13,5.61-2.46.51c-.14-.57-.66-1.08-.78-1.63-.32-1.33.11-2.72,0-4.09,0,0,3.37-.4,3.37-.4Z"/>
        <path class="cls-10" d="M35.55,67.75c.59.38,1.83,2.52,1.05,3-.83.32-.9-.86-1.21-1.41-.2-.38-1.02-1.29-1.02-1.6,0-.13.1-.28.21-.3.14-.03.8.22.97.31"/>
        <path class="cls-10" d="M33.84,70.24c.25.46.14.85-.41.67-.27-.08-1.08-.87-1.52-1.09-.63-.32-2.34-.43-1.35-1.35,1.1-.36,2.77.85,3.29,1.76"/>
        <path class="cls-1" d="M33.08,38.81v3.33l-3.39-.26-.13-3.52c1.02.14,2.2.08,3.2.27.14.02.24.05.33.18"/>
        <path class="cls-1" d="M33.08,42.92l-.26,5.6h-2.87l-.26-5.86c1.13.04,2.26.22,3.39.26"/>
        <path class="cls-6" d="M32.82,55.43v3.92c-.69-.18-2.01,2.08-2.16,2.09-.52-.07-.81-.46-.84-.98-.13-1.57.28-3.18.13-4.76l2.87-.26h0Z"/>
        <path class="cls-6" d="M32.82,51.92v2.86l-2.87.26v-2.79l.78-.72.54,1.14c.67.23.99-.52,1.54-.75"/>
        <path class="cls-1" d="M32.82,49.31l-.07,1.7-1.04.52c-.24,0-.03-1.16-.54-1.3l-1.22.64v-1.57h2.87Z"/>
        <path class="cls-6" d="M29.29,53.16v1.88l-4.3.39v-2.6h3.84s.46.29.46.33"/>
        <path class="cls-6" d="M29.16,55.82v4.31c-1.22-.48-1.5,1.52-2.16,1.94-.49.29-1.43.47-2,.53v-6.51l4.17-.26h-.01Z"/>
        <path class="cls-1" d="M29.16,49.17v2.68l-.19.17c-.3-.07-1.07-.37-1.32-.37h-2.66v-2.48h4.17Z"/>
        <path class="cls-1" d="M29.03,42.86l.13,5.54-4.17-.13v-5.93c.14-.22.34-.21.58-.21.71.03,1.89.17,2.6.28.32.05.85.09.86.45"/>
        <path class="cls-1" d="M28.85,38.35c-.01.56.42,3.08.06,3.34l-3.78-.34.13-3.39s3.59.39,3.59.39Z"/>
        <path class="cls-10" d="M27.67,76.93c.25,1.43-1.57.52-2.35.52-.76-.01-1.9.77-1.89-.43l.52-1.25c-1.03-.15-1.72.21-2.47.86-.25.22-.36.69-.84.69l-.41-.38.33-2.47c-.08-.09-.93.45-1.08.54-.47.3-.85.6-1.14,1.08-.21.34-.49,1.48-1.13.83-.29-.29-.21-2.42-.42-2.97-.42.27-.7.92-.89,1.38-.29.69-.36,2.15-1.37,1.6l-2.95-2.07c-.15.16.76,2.51-.18,2.6-.73-.16-.84-2.72-.73-3.32.08-.46.77-.57,1.16-.39l2.74,1.89c.32-1.41,1.14-3.02,2.85-2.73l.41,1.95c.64-.49,2.88-2.13,3.61-1.4.26.25.22,1.32.03,1.66.57-.11,1.04-.45,1.64-.51.78-.09,1.6.15,1.96.89l-.21.79c.98-.07,1.98.1,2.81.64"/>
        <path class="cls-1" d="M24.55,37.83l-.2,3.34c-.21.14-1.89-.16-2.3-.21-.38-.04-.85.14-1.11-.2v-3.32l3.6.38h.01Z"/>
        <polygon class="cls-6" points="24.35 52.96 24.35 55.23 23.75 55.56 21.21 55.69 21.21 52.96 24.35 52.96"/>
        <path class="cls-1" d="M24.35,49.04v2.61c-.54,0-1.09-.03-1.63,0-.5.02-1.21.38-1.63-.07v-2.35l.2-.2h3.07-.01Z"/>
        <polygon class="cls-1" points="24.35 42.01 24.35 48.26 21.08 48.26 21.02 41.87 21.54 41.74 24.35 42.01"/>
        <path class="cls-6" d="M24.22,56.21l.12,6.78-2.21.39c-.12-.12.54-.75.14-1.25-.38-.48-1.01.12-1.05.08l.02-5.51.2-.2,2.78-.28h0Z"/>
        <path class="cls-6" d="M20.56,53.16v2.67l-2.73.26v-2.41c.67-.62,1.63-.5,2.47-.65l.26.14h0Z"/>
        <polygon class="cls-6" points="20.56 56.6 20.42 62.58 17.83 63.51 17.83 57.06 18.05 56.89 20.56 56.6"/>
        <path class="cls-1" d="M20.43,49.17v2.61c-.87.1-1.74.18-2.6.39v-3h2.6Z"/>
        <polygon class="cls-1" points="20.29 41.76 20.43 48.26 18.03 48.26 17.83 48.07 17.83 41.68 18.15 41.49 20.29 41.76"/>
        <polygon class="cls-1" points="20.3 37.32 20.3 40.83 18.05 40.68 17.83 40.51 17.83 36.93 20.3 37.32"/>
        <path class="cls-13" d="M16.4,64.36c-.01.26.37.61.27,1.16-.54.22-1.02.19-1.38.73-.32-.25-.16-.68-.23-1.08-.11-.61-.25-1.94-1.07-1.65-.23.09-.11.4-.34.38v-31.93c1.09.08,1.98-.38,2.92.38l.1,31.37c.03.25-.26.45-.27.64"/>
        <path class="cls-6" d="M12.48,53.35v3.25l-2.86.26v-2.94c.78-.65,1.91-.36,2.86-.58"/>
        <path class="cls-1" d="M12.48,49.04v3.39c-.91.14-1.84.12-2.73.39v-3.91l2.73.13Z"/>
        <path class="cls-1" d="M12.48,41.16v6.97h-2.73c.15-2.49-.29-4.95-.39-7.43.11-.11,2.84.15,3.12.46"/>
        <polygon class="cls-1" points="12.48 36.15 12.48 40.05 9.23 39.79 9.23 35.75 12.48 36.15"/>
        <path class="cls-6" d="M12.35,57.39l.13,7.04c-.41-.05-.64-.34-1.1-.39-.67-.08-1.26.1-1.89.26.14-2.21-.33-4.39.12-6.57,0,0,2.74-.34,2.74-.34Z"/>
        <path class="cls-1" d="M8.83,42.99c.05,1.44.39,2.85.27,4.3-.02.28-.16.55-.13.85h-3.85c-.43-.38-.08-.99-.05-1.49.06-2.11-.07-4.22-.01-6.33l3.86.38c.24.76-.12,1.57-.09,2.29"/>
        <path class="cls-12" d="M9.1,52.63c-.01.17.11.53-.2.46l.07-1.3h.13c0,.28.01.57,0,.85"/>
        <path class="cls-1" d="M8.97,48.91c.11.96.14,1.9.13,2.87h-.13c-1.01-.67-2.33-.02-3.39.26.19-.72.05-1.16-.78-1.04l.13-1.96.13-.13h3.92-.01Z"/>
        <path class="cls-6" d="M8.97,53.99c-.07.46.16,2.93-.22,3.01l-4.09.38v-3.85c1.05-.53,2.17-1.15,3.39-1.1.21.41-.42,1.12-.37,1.35.12.63,1.22.14,1.28.21"/>
        <path class="cls-1" d="M8.84,36.21v3.58l-3.79-.39v-4.3l3.63.54c-.03.17.15.48.15.57"/>
        <path class="cls-6" d="M8.64,57.9l.06,6.66c-.49-.02-1.07.09-1.51-.12-.33-.14-.32-.38-.52-.52-.59-.39-1.61.04-2.27,0,.08-1.93-.4-3.85.28-5.72,1.2-.08,2.4-.26,3.6-.38.15,0,.26-.05.36.1"/>
        <path class="cls-1" d="M4.4,34.97v4.23c-.26.39-.63.08-.97.07-.88-.03-1.74-.11-2.61-.13l-.33-.2v-4.62l3.9.65h0Z"/>
        <polygon class="cls-1" points="4.39 40.4 4.27 48.13 .5 48.13 .5 39.92 4.09 40.18 4.39 40.4"/>
        <path class="cls-1" d="M4.27,48.91l-.14,2.46c-.59.05-1.64,1.21-2.03,1.3-.25.07-1.2-.26-1.6-.11v-3.65s3.77,0,3.77,0Z"/>
        <path class="cls-6" d="M4.14,52.44l-.19,4.96-3.59.38.13-4.05c.47.07,2.28-.08,2.53-.39.09-.1.08-.29.21-.45.09-.1.83-.54.9-.46"/>
        <path class="cls-6" d="M3.54,58.3l.18.29-.12,5.49-1.94.73c.15-.67.47-1.38.1-2.06-.6-.4-1.18.16-1.79.23l.26-4.2c.2-.37,2.76-.25,3.31-.49"/>
        <path class="cls-1" d="M-.08,39.91c.26,2.72.1,5.39,0,8.1l-2.3.12v-8.47s2.3.25,2.3.25Z"/>
      </g>
    </g>
  </g>
</svg>