<?xml version="1.0" encoding="UTF-8"?>
<svg id="Layer_1" data-name="Layer 1" xmlns="http://www.w3.org/2000/svg" xmlns:xlink="http://www.w3.org/1999/xlink" viewBox="0 0 90 90">
  <defs>
    <style>
      .cls-1 {
        fill: #bb9889;
      }

      .cls-2 {
        fill: #a8796b;
      }

      .cls-3 {
        fill: #e2b596;
      }

      .cls-4 {
        fill: #abe0f9;
      }

      .cls-5 {
        fill: #bfbebe;
      }

      .cls-6 {
        fill: #b6c370;
      }

      .cls-7 {
        fill: #98a951;
      }

      .cls-8 {
        fill: none;
      }

      .cls-9 {
        clip-path: url(#clippath-1);
      }

      .cls-10 {
        fill: #908881;
      }

      .cls-11 {
        fill: #663925;
      }

      .cls-12 {
        fill: #c28966;
      }

      .cls-13 {
        fill: #b7c471;
      }

      .cls-14 {
        fill: #986749;
      }

      .cls-15 {
        clip-path: url(#clippath);
      }
    </style>
    <clipPath id="clippath">
      <rect class="cls-8" x="0" width="90" height="90"/>
    </clipPath>
    <clipPath id="clippath-1">
      <rect class="cls-8" x="-2.17" y="-.36" width="94.35" height="90.71"/>
    </clipPath>
  </defs>
  <g class="cls-15">
    <g class="cls-9">
      <g>
        <path class="cls-4" d="M92.37-.36v94.77H-2.36v-.13h94.6c-.08-27.16.11-54.32,0-81.47,0-.43.01-.87,0-1.3-1.14.18-2.3.36-3.38.78.01-.28.01-.59-.14-.84-.21-.34-.43-.22-.72-.08-.82.39-1.73,1.07-2.57,1.46-.17.09-1.08.46-1.13.37.05-.33-.27-.72-.59-.73-.61-.02-2.69.9-2.99.84-.79-.79-2.17-1.34-3.26-1.67-1.77-.56-3.44-.05-5.02.78-.2-1.33-.16-2.76-.14-4.11.04-2.19.17-4.45.27-6.64.03-.67-.02-1.36,0-2.02h19.8,0Z"/>
        <path class="cls-13" d="M84.72,65.83c-.51.17-1.06.25-1.61.29-.11.28-.23.57-.36.83.66-.37,1.32-.74,1.97-1.12"/>
        <path class="cls-7" d="M73.45,81.06c.14-.06.28-.12.42-.18-.18-.03-.32.02-.42.18"/>
        <path class="cls-7" d="M78.69,80.07c.23-.25.57-.53.96-.75-.32-.03-.65-.04-.97-.03.05.25.06.52.01.78"/>
        <path class="cls-7" d="M24.71,85.13c.34.1.67.2,1,.31.15-.61.36-1.24.33-1.6-.51.11-.93.82-1.34,1.29"/>
        <path class="cls-7" d="M28.61,87.3c.59.09,1.17.19,1.74.28-.43-.26-.89-.51-1.36-.75-.15.14-.28.3-.38.47"/>
        <path class="cls-7" d="M22.46,83.58c-.21.2-.31.61-.43.99.36.05.71.11,1.07.17-.02-.05-.04-.11-.07-.16-.08-.16-.46-1-.56-1"/>
        <path class="cls-6" d="M25.72,85.44c-.33-.11-.67-.21-1.01-.31-.18.21-.37.38-.55.41-.87.16-.83-.25-1.06-.79-.35-.07-.71-.13-1.07-.17-.14.46-.31.88-.74.85l-.28-.13c-.22-.19-.28-.49-.26-.83-.88-.04-1.74,0-2.58.14.47.49.8,1.15.25,1.72-.45-.15-.52-.61-.93-.89-.12-.09-.52-.28-.9-.42-.22.08-.44.15-.66.24.13.39.38.97.08,1.27-.41.41-1.57-.08-2.24.04-.11.1-.22.2-.34.31.03.15.18.32.21.46.04.18.06.45.04.7,3.69-1.63,7.98-1.6,12.14-1.1-.04-.02-.07-.04-.1-.07-.24-.24-.15-.81,0-1.41"/>
        <path class="cls-7" d="M13.02,88.14c0-.26-.11-.45-.26-.61-.18.2-.34.44-.51.66.3-.07.58-.09.77-.05"/>
        <path class="cls-7" d="M27.67,86.2c-.16.03-.32.06-.5.13-.29.13-.61.52-.93.63.4.05.8.11,1.2.16l.48-.81c-.08-.04-.17-.07-.26-.11"/>
        <path class="cls-7" d="M92.25,51.93c-5.78,4.9-11.48,9.93-18.4,12.82,2.33,0,5.22,1.11,7.87,1.34.28-.56.74-1.03,1.35-1.26l.32.3c.01.16-.11.55-.28.98.56-.03,1.1-.11,1.61-.29-.65.38-1.31.75-1.97,1.12-.17.36-.33.67-.43.78-.15.17-.31.33-.56.34l-.27-.25c-.01-.06-.01-.11-.02-.17-6.38,3.44-12.96,6.24-19.66,8.22-.17.24-.34.48-.47.73-.2.35-.41,1.36-.83,1.4-.74.05-.93-.87-.78-1.46,0-.03.03-.06.04-.1-.5.14-1,.27-1.5.39-.05.3-.11.6-.16.71-.28.72-1.09.84-1.18-.01,0-.1-.02-.23-.03-.37-.5.12-1.01.22-1.51.33-.03.37-.13.67-.37.73-.39.11-.59-.14-.71-.51-11.76,2.31-23.83,1.94-35.91-2.09,5.9,0,10.92-2.66,16.65-2.36-10.45-1.28-19.81-6.37-30.37-7.53.01.23-.04.48-.26.59-.54.27-.84-.29-1.09-.71-.84-.06-1.69-.1-2.55-.11,0,.08,0,.15,0,.23-.42.05-.76-.06-1.07-.23-.68.01-1.37.06-2.06.11v28.67h94.6c-.04-14.12,0-28.23.01-42.35M8.68,81.79c-.33.08-.72.46-1.1.08-.32-.3.49-1.65.23-2.19-.59-.03-1,.52-1.37.9-.18.18-.17.47-.54.49-.73.05-.69-1.26-.83-1.78-.86.46-.83,2.05-2.09,1.63-.19-.07-.92-.72-1.03-.59l.14,1.09-.45.2c-.74-.66-1.93-2.73-.3-2.96.7.21,1.32.66,1.85,1.14h.18c.26-.73,1.39-2.06,2.23-1.62l.51,1.24c.75-.45,1.57-1.01,2.48-.73.5.59.17,1.35.13,2.02.51-.36,2.35.23,2.33.83l-.14.33c-.76.36-1.32-.28-2.23-.08M30.03,89.84c-.71-.08-.58-.74-1.02-.95-.58-.26-2.05-.07-2.05-.93l.49-.83c-.4-.06-.8-.11-1.2-.16-.14.05-.27.04-.41-.05-4.16-.49-8.45-.53-12.14,1.1-.02.25-.09.49-.21.64l-2.11,1.41c-.42.13-.62-.25-.89-.5l-.04-.17c.08-.54,1.03-1.04,1.82-1.22.17-.22.33-.46.51-.66-.33-.38-.86-.62-.77-1.25.62-.87,1.73-.94,2.72-.87l-.53-1.37c-.01-.32.24-.54.49-.7.79-.23,2.46.39,3.11.89.14.11.27.23.4.37.84-.14,1.71-.18,2.58-.14.04-.65.39-1.44.63-1.84.25-.42.51-.87,1.08-.87.8.08,1.39,2.48,1.57,2.48,1.5-2.07,3.68-2.06,2.94,1.04.71-.18,1.96-.54,2.46.21.4.61-.02.96-.42,1.35.47.24.93.49,1.36.75-.57-.1-1.16-.19-1.74-.28-.04.06-.07.12-.09.18.65.14,1.48.38,1.89.92.41.57.51,1.52-.38,1.43M55.11,91.2c-.03.53-.57.83-.99.48-.15-.13-.16-.37-.4-.51-.57-.32-2.22-.22-2.37-.76-.04-.13,0-.27.09-.4-3.78-.93-7.57-2-11.35-1.52-.03.05-.07.11-.12.16-.08.08-.31.13-.43.15-.26.03-1.09.15-1.28.13-.06,0-.11-.03-.16-.05-.76.22-1.52.5-2.29.88,2.17-2.18,4.35-5.44,6.52-6.53.15-.03.29-.04.44-.06-.17-.44-.45-.93,0-1.39.7-.7,2.11.7,2.56,1.37.58.08,1.15.22,1.71.4.41-.32.91-.53,1.49-.59.74.21.62.79.43,1.39.38.2.76.41,1.12.65.45-.03.9.03,1.31.3.52.34.56.68.41,1,.43.38.84.78,1.22,1.19.24.12.45.3.57.56.02.05.03.09.04.14.7.86,1.3,1.76,1.75,2.66-.12-.02-.24-.05-.37-.07.07.13.12.27.11.42M86.83,65.2c.46-.09.38,1.33.3,1.61-.15.53-1.29,1.97-1.62.87-.2-.65.91-1.95,1.32-2.48M64.23,78.44c-.17.09-.34.08-.52.07-.14-.74.38-1.33.92-1.75.12-.1.8-.58.9-.47.29.33-.95,1.97-1.3,2.15M85.05,85.11l-.32.54c-.52.17-.82-.33-1.25-.64-5.03-.11-10.05.91-15.07,2.58,0-3.23,1.92-4.92,3.93-5.99-.24-.45-.17-.82.22-1.34.84-1.11,2.02-.82,2.87-.02.21-.09.42-.18.59-.27l.21-.09.93-1.35c.81-.56,1.37,0,1.52.76.32-.01.65,0,.97.02.7-.4,1.54-.63,2.1-.17.23.18.26.44.21.72,2.53.98,4.79,3.09,6.02,5.55-.98-.16-1.97-.26-2.95-.33,0,.01.01.02.02.03"/>
        <path class="cls-7" d="M13.44,86.87c.11-.1.22-.21.34-.31-.09.02-.17.04-.24.08-.1.07-.11.14-.1.23"/>
        <path class="cls-7" d="M27.67,86.2c.08.04.17.07.26.11l.15-.25c-.13.08-.27.11-.41.14"/>
        <path class="cls-7" d="M15.89,84.89s0,.19.05.36c.22-.09.44-.16.66-.24-.33-.12-.64-.2-.71-.13"/>
        <path class="cls-7" d="M46.05,84.76c.24-.49.57-.89.97-1.2-.56-.18-1.13-.32-1.71-.4.02.02.04.06.05.08.28.48.41,1.03.69,1.52"/>
        <path class="cls-7" d="M50.06,85c-.36-.23-.74-.45-1.12-.65-.1.32-.21.64-.22.93.43-.12.89-.25,1.34-.28"/>
        <path class="cls-7" d="M53.01,87.5c-.38-.41-.79-.81-1.22-1.19-.16.36-.56.71-.84,1.06.59-.13,1.46-.18,2.07.13"/>
        <path class="cls-7" d="M53.61,88.19c.24.78-.73.94-.73,1.65.61-.1,1.77.3,2.11.94.12.02.24.05.37.07-.45-.9-1.05-1.8-1.75-2.66"/>
        <path class="cls-6" d="M50.62,88.4c-.44.07-1.58.94-1.64.2-.05-.6.5-.73.79-1.03.33-.35.6-1.01.98-1.37.12-.09-.09-.23-.15-.25-.5-.14-1.36.08-1.75.43-.26.24-.79,1.32-1.26.83-.35-.35.03-.84.09-1.22.08-.5.05-1.11.14-1.62-.89.59-1.17,1.87-1.83,2.68-.32.39-.48.45-.76-.02-.33-.54-.18-.91-.29-1.4-.17-.81-.4-1.54-.97-2.16-.27,0-.21,1.37-.2,1.63.03.52.43.93-.43,1.09-.5-.32-.85-.41-1.46-.38-.57.03-.98.35-1.43.4-.71.07-.93-.55-.49-1.05,1-.43,1.95-.81,3.05-.51-.17-.4-.08-.84-.16-1.22-.02-.08-.04-.15-.07-.24-.15.02-.29.03-.44.06-2.17,1.09-4.35,4.35-6.52,6.53.76-.38,1.52-.67,2.28-.88-.43-.11-.6-.47-.24-.87.74-.85,2.66-.28,2.24.47,3.78-.48,7.57.59,11.35,1.52.28-.49,1.07-1.02,1.07-1.6-.59.07-1.3-.08-1.88,0"/>
        <path class="cls-7" d="M81.96,79.86c-.1.52-.51,1.12-.66,1.5.75.04,1.77-.37,2.35.33.34.41.36.79.05,1.24-.1.14-.74.64-.58.78.82.08,1.64.56,1.91,1.36.98.07,1.97.17,2.95.33-1.23-2.46-3.5-4.57-6.02-5.55"/>
        <path class="cls-7" d="M76.23,79.89c-.07.03-.14.05-.21.09-.17.09-.38.18-.59.27.11.11.22.22.32.34l.48-.69h0Z"/>
        <path class="cls-6" d="M81.55,84.04c.39-.61.91-1.16,1.32-1.76-.59-.01-1.17-.03-1.73.16-.37.14-.49.36-.82.5-.98-.33-.04-1.38.22-2,.14-.34.21-.68.37-1-1.16-.1-1.57,1.08-2.22,1.76-.82.86-.9-1.09-.91-1.58,0-.2.1-.37-.2-.32-.21.48-.87,1.13-1.03,1.57-.15.37.01.75-.33,1.11-.67.7-1.04-.61-1.35-.95-.07-.08-.7-.55-.78-.59-.08-.04-.15-.06-.22-.07-.14.06-.28.12-.42.18-.04.06-.07.13-.09.22.32.45,1.11,1.39.61,1.88-.28.29-1.07-.05-1.58.07-.25.05-1.05.51-1.25.7-.29.25-.95,1.45-1.38.58-.52-1.03,1.84-2.28,2.67-2.4l.13-.14c-.1-.13-.17-.24-.23-.36-2.01,1.07-3.93,2.76-3.93,5.99,5.02-1.68,10.05-2.69,15.07-2.58-.11-.08-.23-.15-.36-.19-.47-.13-2.16.15-1.58-.77"/>
        <path class="cls-7" d="M13.3,48.69c.39.49.99.97,1.28,1.52.39-.45,1.03-.7,1.57-.91-.21-.26-.42-.49-.64-.73.12-.84,1.34-.11,1.69.21.76-.16,1.47-.49,2.22-.72.59-.17,2.88-.95,3.25-.97-.05-.37.07-.72.46-.78.62.08,2.39-.4,2.81.13.32-.23.78-.34,1.17-.46,1.29-.4,4.19-.98,5.21-1.5.4-.21-.12-.29.78-.26.51.02,2.21-.53,2.95-.64,4.03-.53,8.08-.21,12.1.38l3.2.13s.1-.3.13-.39c-.42.1-1.11-.35-1.16-.74.15-.51.87-.72,1.36-.71,1.01.03,2.02.13,3.05.14h.26c1.02.02,2.04,0,3.07,0l2.01.26c.49-.57.73-.09,1.04,0,.61.17,1.35.04,1.96.26.08-.15.13-.33.26-.46.49-.23.95.03.78.59.77,0,1.58.3,2.35.26.83-.04.3,0,.65.13.78.27,2.22.37,3.54.47,2.97-1.59,6.1-2.49,9.27-1.83-9.6-3.18-19.97-4.96-30.39-4.87-.09.17-.26.29-.6.24-.14-.02-.24-.11-.32-.23-8.33.16-16.68,1.52-24.66,4.33-.05.29-.24.65-.63,1.11.95-.11,2.13.18,2.33,1.22-.43,1.1-1.05.1-1.67-.11-.3-.1-1.24-.15-1.37-.33l.42-1.56c-3.42,1.25-6.77,2.76-10.01,4.57.14.06.27.12.4.18.62.66.02,1.35-.11,2.05M36.87,39.84c.27.26.17.58.64.47.07-.73.47-1.38.87-1.97l.49-.12c.76.2,1.21.94,1.25,1.7.2.04.21-.03.32-.14.36-.37,1.44-2.03,2.03-1.21l.39,1.35c.16.03.23-.04.35-.11.45-.24,2.34-1.6,2.63-.73v1.1c.51-.08.87-.25,1.37,0,.38.78-.71.78-1.23.99-.42.16-.74.58-1.22.43-.63-.18.3-1.32-.02-1.67l-1.88,1.36h-.66l-.25-1.75c-.13-.14-.68.47-.78.59-.18.22-.54,1-.83.96-.81-.13-.93-1.11-1.33-1.67-.54.41-.45,1.75-.77,2.09-.54.53-1.07-.29-1.64-.4.04.37-.05.72-.46.79-1.02,0-.58-3.27.73-2.03"/>
        <path class="cls-13" d="M79.91,42.07c.89.29,1.77.6,2.64.92-.88-.44-1.77-.73-2.64-.92"/>
        <path class="cls-13" d="M92.24,12.8c-.79.12-1.58.27-2.37.44-.63.12-1.28.55-1.9.18l-.35-.88c-.29.23-.64.42-.98.59-.4.21-1.7.94-2.02.98-.55.07-.71-.33-.97-.72-.37-.25-1.86.41-2.35.52-.22.15-.08.14-.02.28.12.35.39.69.48,1.08.22.95-.5,1.69-.59,2.61.35.35,2.59-.22,3.17-.23.41.1.86.58.47.96-.05.03-.1.05-.16.08,2.54.17,5.07.49,7.59,1.05v-6.94"/>
        <path class="cls-13" d="M72.82,23.52v.3l.51,4.21c.11.03.22.07.33.1.83-.2,2.36-.99,2.78-.57.17.17.16.63-.05.76-.23.14-.56.23-.9.32.43.11.86.23,1.29.33.03-.35.5-.81.74-.98.28-.21,1.05-.51,1.39-.57.74-.13,1.18.48.63,1.02-.44.07-1.12.51-1.7.74,4.76,1,9.59,1.4,14.41,1.75,0-3.23,0-6.45-.01-9.68-6.52.03-12.82,1.99-19.43,2.25"/>
        <path class="cls-7" d="M92.25,21.27v-1.53c-2.52-.56-5.05-.88-7.59-1.05-.03.02-.06.04-.09.05-.41.13-2.14.36-2.53.32-.49-.06-.98-.27-1.45-.53-2.49-.04-5,0-7.52.05l-.35.09.12,4.84c6.61-.26,12.91-2.22,19.43-2.25"/>
        <path class="cls-13" d="M80.58,18.53c-.38-.2-.74-.43-1.07-.63-.41.07-.85.07-1.26.12-.75.11-1.6.65-1.98-.28l-3.21.84c2.53-.05,5.03-.09,7.52-.05"/>
        <path class="cls-13" d="M73.67,28.14c-.11-.03-.22-.07-.33-.1l.02.15c.09,0,.19-.02.32-.05"/>
        <path class="cls-13" d="M37.72,20.67c-.19.03-.38.08-.56.15.34.09.69.17,1.03.25-.16-.09-.32-.22-.47-.4"/>
        <path class="cls-13" d="M38.19,21.07c-.35-.08-.69-.16-1.04-.25-.31.11-.61.24-.9.3-.16.04-.91.16-1.02.16-.2-.01-.32-.25-.51-.26-.39-.02-1.49.54-2.08.52-.14-.01-.6-.15-.67-.25v-.67c.53-.43,2-.12,2.13-.86.13-.77.11-1.56.16-2.33,0-.25.12-.49.13-.77.04-1.08-.03-2.13-.13-3.2-.49.17-1.24.18-1.75.12-.84-.11-1.45-.78-2.35-.64-.24.04-.39.21-.55.24-.24.05-1.75-.39-2.03-.53-.35-.17-.93-.85-1.21-.88l-2.59.79-.79-.93c-.64.84-1.21,1.28-1.24,2.4-.02.42.11.7.14,1.04.23,3.18.36,6.4.46,9.6,14.08.89,27.53,1.82,41.5,3.38.12-.49.23-1.45.25-1.75.05-.9.07-1.9.06-2.9-8.22-.04-16.88-.31-25.11-2.13-.31,0-.6-.05-.88-.2"/>
        <path class="cls-13" d="M57.65,17.62s-.21.25-.37.46c.25.03.5.06.74.09-.12-.17-.24-.35-.37-.55"/>
        <path class="cls-13" d="M64.23,13.32l-3,.98-.12.14.52,3.83c.31.02.62.11.83.26.55.03,1.1.05,1.65.07.02-.46.06-.87.13-1.55.11-1.18-.09-2.52,0-3.72"/>
        <path class="cls-7" d="M62.43,19.32c-.16.09-1.32.04-1.53,0-.51-.09-.79-.18-1.43-.26-.73-.07-1.1-.41-1.44-.89-.25-.03-.49-.06-.74-.09-.11.14-.2.27-.21.3-.1.36.59,1.27-.73,1.22-1-.04-1.98-.12-3-.01-.47.05-1.61.4-1.94.36-.22-.02-.39-.29-.53-.31-.88-.09-2.37.63-3.12.6-.28-.02-.63-.22-.93-.25-.62-.07-2.25.1-2.59-.53-.16-.3-.24-1.28-.78-1.31l-2.67.65c.14.4.1.87.25,1.25.15.39.68.6.21,1.1-.41.42-.89.14-1.31.13-.31-.01-.59,0-.86,0,8.22,1.82,16.89,2.09,25.11,2.13,0-1.24-.03-2.5-.06-3.63-.02-.5-.02-.86,0-1.18-.55-.02-1.1-.04-1.65-.07.23.17.3.43-.02.79"/>
        <path class="cls-7" d="M92.26,30.95c-4.82-.36-9.65-.75-14.41-1.75-.3.12-.57.2-.77.14-.24-.07-.3-.21-.29-.36-.43-.1-.86-.22-1.29-.33-.57.15-1.2.27-1.62.45l.39.59c.01.22-.15.27-.3.35-.77.4-1.57.15-2.37.24-.96.09-.83.46-1.85-.11-.28-.16-.79-.63-1.02-.67-.73-.13-1.8.22-2.58.24l-.54-.37-.07-.52c-.13-.16-2.34,1.31-2.74,1.38-.47.09-.96-.39-.72-.86.22-.43,1.34-.61,1.7-1.04.03-.04.06-.14.08-.26-13.97-1.56-27.42-2.49-41.5-3.38.01.41.03.82.05,1.23.01.46.3.89.01,1.41.46.35.99.13,1.23.86,1.07-.58,3.1-2.8,3.59-.52.13.14,2.2-1.58,2.74-.19.16.41-.04.68,0,1.11.48-.21,2.69-.24,2.95.12.28,1.13-.54.79-1.17.78-.5,0-1.1-.04-1.58.01-.4.03-.72.34-1.08.11l-.03-1.55c-.67-.22-2.07,1.37-2.58.75-.1-.26-.13-.53-.16-.82-.01-.16.08-.24-.18-.2-.57.1-1.13.83-1.67,1.2,15.82,2.98,31.73,3.91,48.27,3.35,1.33.53,2.67,1.03,4.04,1.48h.02c.08,0,.16.04.23.09.78.25,1.56.48,2.34.7.34-.08.67-.07.9.15.04.04.07.09.1.14,3.89,1.03,7.9,1.66,11.91,1.81v-5.76M89.93,32.85c-.97.17-1.81.28-2.69.83-.24.15-.42.5-.67.5-.72.02-.84-1.31-1.04-1.29-.37.26-.99,1.33-1.5.98-.28-.2-.01-.83.11-1.08.61-1.28,2.45-1.89,2.63-.03.13.17,2.69-1.34,3.57-.77.55.35.12.77-.4.87"/>
        <path class="cls-13" d="M20.2,34.1c1.92.11,3.85.18,5.81.18-1.96-.33-3.89-.35-5.81-.18"/>
        <path class="cls-7" d="M-2.36,31v9.39c7.56-1.64,14.92-5.59,22.56-6.28-7.75-.46-15.21-1.75-22.56-3.11"/>
        <path class="cls-13" d="M92.27,36.71c-4.01-.14-8.02-.78-11.91-1.81.28.46-.06,1.15.03,1.24.37-.05.72-.23,1.11-.26.64-.07,2.01-.04,1.89.85l-.22.3c-.43.14-.87-.13-1.28-.12-.54.02-2.05.71-2.26.05-.1-.3.14-1.24-.23-1.34-.74,0-1.48,1.12-2.19.89-.38-.13-.51-1.23-.67-1.55-.24.2-.53.33-.77.52-.7.57-1.17,1.86-2.15.98-.25-.23-.26-.73-.65-.85-.25.43-.88,1.92-1.37,1.92-1.09-.3.08-2.03.52-2.57,1.09-1.33,1.53-.79,2.22.52.45-.51,1.72-1.71,2.43-1.66-1.37-.45-2.71-.95-4.04-1.48-16.54.56-32.45-.37-48.27-3.35-.22.15-.44.25-.65.21-.24-.04-.49-.32-.71-.36-.73-.13-1.39,2.35-2.39,1.61-.08-.47.15-.66.28-1.01.05-.14.2-.13-.01-.28-.3-.03-.71-.21-.98-.21-.22.01-.41.16-.63.12-.37-.07-.76-.35-.74-.76l-2.13.89c-.91-.53-.8-2.22-2.21-1.51-.4.2-.51.72-1.05.63-.1-.02-.85-1.43-.87-1.71-.17-.21-1.15.83-1.29.98-.21.23-.23.53-.59.59-.86.13-1.29-.97-1.95-.77-.26.08-.27,1.12-.67,1.28-.07.03-.33.07-.32-.06l-.39-1.29c-.48-.12-1.1-.75-1.52-.83-.29-.06-.45.11-.63.11-.32,0-.7-.59-.72-.9-.14-.03-.25-.01-.39.05-.63.33-1.71,1.82-2.47,1.58-.33-.1-.57-.39-.52-.73-.51-.14-1.52,1.33-1.93,1.03-.05-.28-.32-.43-.43-.67-.17-.33-.25-1.11-.25-1.98h-.66v6c7.35,1.36,14.81,2.65,22.56,3.11,1.92-.17,3.85-.14,5.81.18-1.96,0-3.89-.07-5.81-.18-7.64.69-15,4.64-22.56,6.28v22.86c.6-.6.9-.45,1.55-.05C0,63.66.82,64.51.78,65.49c.86,0,1.71.05,2.55.11-.06-.1-.11-.19-.16-.26-.32-.42-2.14-2.59-1.75-3,.11-.12,1.07.52,1.24.65.55.45,1.94,2,2.02,2.68v.06c10.55,1.16,19.92,6.25,30.37,7.53.6.03,1.21.08,1.83.19-.61-.05-1.22-.11-1.83-.19-5.73-.3-10.75,2.36-16.66,2.36,12.08,4.03,24.15,4.4,35.91,2.09-.17-.5-.19-1.21-.31-1.56-.14-.41-.62-1.03-.7-1.39-.03-.17.02-.4.17-.43.43-.09,1.54,1.15,1.7,1.57.11.3.25,1.03.21,1.59.5-.11,1.01-.21,1.51-.33-.05-.84-.04-2.32.04-2.89.03-.23.14-.45.33-.6.17-.03.79.64.88.82.07.16.23,1.26.23,1.47,0,.14-.05.52-.11.87.5-.12,1-.26,1.5-.39.3-.92,1.72-2.12,2.64-2.24.07.67-.25,1.17-.59,1.67,6.71-1.98,13.28-4.78,19.66-8.22-.08-.54,0-1.08.24-1.56-2.65-.24-5.53-1.34-7.87-1.34,6.92-2.89,12.63-7.92,18.4-12.82,0-5.07.01-10.15.02-15.22M8.07,62.34c-.23.05-.26-.09-.39-.2-.5-.42-1.48-1.9-1.64-2.54-.03-.16.01-.29.14-.4,1.32.39,2.36,1.74,1.89,3.13M10.54,62.93c-.22-.47-.88-2.22-.16-2.4.78-.2,1.41,1.78,1.34,2.39-.1.87-.83.75-1.17,0M77.45,65.47c.99.43,1.99,1.36,1.87,2.51-.11.38-.67.48-.97.23-.35-.83-1.54-1.85-.9-2.74M73.96,66.66c.73-.18,1.66,1.55,1.7,2.15.04.62-.58,1.04-1.11.66l-.94-2.26s.35-.55.35-.55ZM90.67,52.63c-.26.19-.74.15-1.04.26-.6.21-1.32.97-1.95.65-.32-.15-.41-.72-.78-.85-.13.24-.54.11-.78.13-.08.08-.11.22-.26.32-.82.58-1.39-.38-2.21-.32l-.42,1.8c-.59.4-1.05-.08-1.65-.09-.27.35-.42,1.18-.73,1.42-.22.18-.65.23-.94.36-1.89.89-3.88,1.82-4.76,3.85l-.17.74c.66-.36,1.43-.64,2.15-.85,1.25-.35,2.51-.63,3.77-.18.24,1.27-1.3.84-2.13.91-.78.08-2.2.52-2.94.84-.95.4-1.8,1.45-2.09-.26-.03-.17.08-.23-.19-.2-.49.23-.89,1.32-1.2,1.41-.48.14-1.19-.2-1.54-.5l-.72,1.37.71-.07.6.33c.03.15-.15.29-.26.39-.56.52-2.44.8-3.26,1.03-1.48.42-2.94,1.65-2.99-.84-.62.05-1.29,1.45-1.65,1.54-.48.13-.97-.71-1.35-.9.16,2.19-.96,1.27-2.34,1.04.25.52.73.95.46,1.58-.32.47-2.1.15-2.72.28-.26.05-.87.47-1.09.66-.35.29-.56,1.05-1.27.59-.34-.23-.47-.88-.47-1.28-.09-.11-1.39.4-1.61.54-.57.37-.92,1.11-1.7,1.27-.62-.87-1.67.3-2.27-.73l.17-1.09c-1.77,1.42-1.7.21-1.63-1.44-.13-.14-.87.65-.98.78-.4.49-.62,1.4-1.28,1.28-.62-.17-.39-1.84-.8-2.33-.53.38-.5,1.9-1.05,2.07-.6.18-1.16-.61-1.74-.76.04.46-.05.91-.48,1.16l-1.8-.12c-.61-.04-1.35.23-1.8-.02-.67-.37-.61-1.42-.82-1.55-.33-.07-.7-.24-1.03-.25-.47-.03-1.07.33-1.44.01-.4-.33-.25-1.24-.45-1.71-.35.04-.45.4-.62.53-1.07.79-1.93.78-3.19.48-.61-.14-1.54-.72-2-.74-.74-.04-2,.69-2.84.63-.33-.1-.29-.52-.48-.71-.33-.32-1.43-.64-1.83-1.03-.35-.35-.1-.63-.72-.72-.62-.08-1.3.07-1.88-.34-.64-.54.42-1.6.25-1.75-.59-.23-2.06.78-2.32.04-.09-.25-.2-1.37-.28-1.48l-1.13.76c-.43.05-1.11-.31-1.52-.52-1.27-.66-2.46-1.65-3.77-2.35-1.76-.93-4.74-2.51-6.58-3.07-.63-.2-2.61-.38-2.89-.62-.3-.25.42-.49.62-.55.25-.09.54-.14.82-.16.2-1.03,1.78-1.44,2.94-1.61.02-.66.11-1.13.11-1.13.16-.11.33-.22.49-.33.09-.28.16-.57.1-.84-.18-.18-1.05.35-1.24.52-.26.24-.24.65-.77.53-.46-.07-.62-.79-.83-1.14-.08-.14.02-.23-.28-.17-.17.43-.25,1.51-.85,1.45-.3-.03-.48-.4-.43-.7.03-.29.37-1.27.51-1.58.72-1.47,1.85-.1,1.94.96.11.12.7-.4.87-.5.2-.1.46-.22.66-.25,1.37-.23,1.59.25,1.37,1,1.13-.77,2.28-1.49,3.45-2.18-.42.05-.83.11-1.05-.04-.52-.35-.28-1.13-.35-1.66-.48-.24-2.35-.33-2.46-.87-.07-.29.6-.57.84-.57.22,0,.92.09,1.16.13,1.04.17,1.91.59,1.77,1.82.59-.06,1.14.05,1.67.27,3.25-1.81,6.6-3.32,10.01-4.57l.04-.14c-.3-.02-.59,0-.89.1-.42.13-.6.61-1.07.37-.31-.28-.01-.64-.01-.92,0-.13-.1-.27-.11-.4-.01-.18.12-.32.05-.43-.8.46-1.57,1.14-1.76,2.08-.77.13-.98-.77-1.49-1.16-.17,0-.93,2.33-1.63.84.04-.68.9-2.36,1.64-2.41.71.05.82.82.96,1.39.03.16-.07.22.21.17.42-.6,1.65-1.9,2.45-1.67l.33.34.02,1.08c1.25-.5,2.32-.35,2.19.46,7.98-2.8,16.33-4.17,24.66-4.33-.4-.56-.24-2.05-.24-2.56.84-.94,1.78.32,2.58.7.14-.61,1.4-1.91,2-1.8.57.1,1.07,1.12,1,1.67.1.11,1.32-.77,1.57-.85.95-.27,1.29.38,1.3,1.24.72-.17,1.35-.54,2.13-.37l.36.62c.42.09,1.13-.15,1.42.2l.11.38c-.05.22-.41.37-.63.42-.25.06-1.13.18-1.37.18-.1,0-.36-.09-.43-.16-.17-.17-.11-.75-.22-.75-.62-.04-2,1.32-2.26.43-.07-.34,0-.69-.02-1.02-.02-.39-.38-.19-.6-.08-.53.27-1.16,1.11-1.79.91-.61-.2-.36-2.72-1.49-.82-.42.71-.35,1.36-1.4.96-.39-.14-.7-.5-1.1-.65-.07.08.23.91,0,1.33,10.42-.09,20.79,1.69,30.39,4.87.88.18,1.76.47,2.65.91-.87-.32-1.76-.62-2.65-.91-3.17-.65-6.3.24-9.27,1.83.69.05,1.35.11,1.85.19,1.57.27,3.13.64,4.6,1.27,1.08.47,2.07,1.15,3.16,1.59.46-.35,1.97-1.33,2.48-.99l.11.59c-.63.14-1.07.67-1.54,1.05.39-.03.7.24,1.04.39.62-.38,1.21-.63,1.95-.52.21.18-.61.9-.78,1.04.17.33.64.39.91.64.37-.36,1.05-.71,1.57-.46l.25.38c-.22.28-.5.51-.77.73.32.25.98.89,1.3,1.04.07.03.26,0,.39.07.59.28.61.66,1,1.1.53.16,1.74-.98,2.51-.32.29.25.33.67,0,.91"/>
        <path class="cls-13" d="M77.65,35.22c.12.16.96-.44,1.71-.61-.78-.22-1.57-.45-2.34-.71.39.24.69.91.63,1.32"/>
        <path class="cls-13" d="M6.92,50.27c-.16.11-.33.22-.49.34,0,0-.09.47-.11,1.13.26-.04.5-.07.7-.08-.52-.3-.27-.83-.1-1.38"/>
        <path class="cls-7" d="M7.84,50.52c.67.07,1.79.59,1.4,1.39,1.63.49,2.9-.39,4.3-1.04-.2-.29-.33-.71-.6-1.03-.27-.33-.6-.46-.78-.78l.22-1.7c-.26-.07-.61-.02-.96.02-1.16.69-2.31,1.42-3.45,2.18-.09.3-.24.63-.42.99.08.1.14-.03.29-.02"/>
        <path class="cls-13" d="M35.05,73.26c.61.07,1.21.14,1.83.19-.62-.1-1.23-.16-1.83-.19"/>
        <path class="cls-11" d="M92.24,11.5c.01.43,0,.87,0,1.3-.79.12-1.58.27-2.37.43-.63.12-1.28.56-1.9.19l-.35-.88c-.29.23-.64.42-.98.59-.4.21-1.7.94-2.02.98-.55.07-.71-.33-.97-.72-.37-.25-1.86.41-2.35.52-.22.15-.08.14-.02.28.12.35.39.69.48,1.08.22.95-.5,1.69-.59,2.61.35.35,2.59-.22,3.17-.23.41.1.86.58.47.96-.08.04-.16.1-.25.13-.41.13-2.14.36-2.53.32-.88-.11-1.78-.71-2.52-1.15-.41.07-.85.07-1.26.12-.75.11-1.6.65-1.98-.28l-3.57.94.13,5.14.52,4.36c.67.01,2.61-1.1,3.1-.62.17.17.16.63-.05.76-.61.36-1.84.48-2.52.77l.39.59c.01.22-.15.27-.3.35-.77.4-1.57.15-2.37.24-.96.09-.83.46-1.85-.11-.28-.16-.79-.63-1.02-.68-.73-.13-1.8.22-2.58.24l-.54-.37-.07-.52c-.13-.16-2.34,1.3-2.74,1.38-.47.09-.96-.39-.72-.86.22-.43,1.34-.61,1.7-1.04.14-.23.3-1.64.34-2.01.12-2.02.05-4.49,0-6.53-.04-1.23.01-1.57.12-2.73.11-1.19-.09-2.52,0-3.72l-3,.98-.12.14.52,3.83c.65.04,1.4.37.8,1.05-.16.09-1.32.04-1.53,0-.51-.09-.79-.18-1.43-.26-.99-.1-1.3-.67-1.82-1.44-.04.02-.57.7-.58.75-.1.36.59,1.27-.73,1.22-1-.04-1.98-.12-3-.01-.47.05-1.61.4-1.93.36-.22-.02-.39-.29-.53-.3-.88-.09-2.37.63-3.12.6-.28-.02-.63-.22-.93-.25-.62-.07-2.25.1-2.59-.53-.16-.3-.24-1.28-.78-1.31l-2.67.65c.14.4.1.87.25,1.25.15.39.68.6.21,1.1-.41.42-.89.14-1.3.13-.87-.03-1.58.15-2.21-.61-.5.07-1,.35-1.47.45-.16.04-.91.16-1.02.16-.2-.01-.32-.25-.51-.26-.39-.02-1.49.54-2.08.52-.14-.01-.6-.15-.67-.25v-.67c.53-.44,2-.12,2.13-.86.13-.77.11-1.56.16-2.33,0-.25.12-.49.13-.77.04-1.08-.03-2.13-.13-3.2-.49.17-1.24.18-1.75.12-.84-.11-1.45-.78-2.35-.64-.24.04-.39.21-.55.24-.24.05-1.75-.39-2.03-.53-.35-.17-.94-.85-1.21-.88l-2.59.79-.79-.92c-.64.84-1.21,1.28-1.24,2.4-.02.42.11.7.14,1.04.26,3.59.39,7.22.51,10.83.01.46.3.89.01,1.41.46.35.99.13,1.23.86,1.07-.58,3.1-2.8,3.59-.52.13.14,2.2-1.58,2.74-.2.16.41-.04.68,0,1.11.48-.21,2.68-.24,2.95.12.28,1.13-.54.79-1.17.78-.5,0-1.1-.04-1.58.01-.4.03-.72.34-1.08.11l-.03-1.55c-.67-.22-2.07,1.37-2.58.75-.1-.26-.13-.53-.16-.82-.01-.16.08-.24-.18-.2-.8.14-1.6,1.56-2.32,1.41-.24-.04-.49-.32-.71-.36-.73-.13-1.39,2.35-2.39,1.61-.08-.47.15-.66.28-1.01.05-.14.2-.13-.01-.28-.3-.03-.71-.21-.98-.21-.22.01-.41.16-.63.12-.37-.07-.76-.35-.74-.76l-2.13.89c-.91-.53-.8-2.22-2.21-1.51-.4.2-.51.72-1.05.63-.1-.02-.85-1.44-.87-1.71-.17-.21-1.15.83-1.29.98-.21.23-.23.53-.59.59-.86.13-1.29-.97-1.95-.77-.26.08-.27,1.12-.67,1.28-.07.03-.33.07-.32-.06l-.39-1.3c-.48-.12-1.1-.75-1.52-.83-.29-.06-.45.11-.63.11-.32,0-.7-.59-.72-.9-.14-.03-.25-.01-.39.05-.63.33-1.71,1.82-2.47,1.58-.33-.1-.57-.39-.52-.73-.51-.14-1.52,1.33-1.93,1.03-.05-.28-.32-.43-.43-.68-.17-.33-.25-1.11-.25-1.98,0-1.24.17-2.63.53-3.01.49-.52.53-.78.93-1.4.57-.86,1.7-1.87,2.62-2.33,1-.49,1.55-.34,2.57-.04,1.94.55,6.3,2.17,7.15,4.06.45.99.48,2.37.83,3.35.1.26.57.66.62,1.08l.17.04c.6-.38,1.23-.42,1.91-.38-.01-.2-.12-.37-.13-.58-.26-3.59.02-7.12.14-10.69,0-.41.04-2.22-.14-2.42-1.22.32-2.24,1.1-3.33,1.7-1.36-.51-3.26-.01-4.53-.28-.93-.21-.42-.98-.48-1.02-1.09-.03-2.18.16-3.17.64-.76-.43,0-1.07.05-1.69-.88.26-1.67.77-2.29,1.42l-.45-.32v-2.15c-.91.65-1.48,1.64-2.18,2.47-.52.15-.76-.97-1.08-1.23-.27-.22-.27.09-.4.19v-1.7c.99-.04.92,1.11,1.37,1.7.46-.51,2-2.41,2.61-2.48l.46.2v2.02c.62-.35,1.24-.74,1.9-1.02.59-.25.91-.41,1.2.33l-.37.96c.92-.01,1.87-.38,2.79-.25.62.08,1.02.23.86.9,1.37-.15,2.74-.08,4.1.14.92-.6,1.8-1.34,2.95-1.37l.21-12.17h1.17c-.03,2.06.03,4.13,0,6.19-.04,3.42-.16,6.9-.26,10.29-.07,2.26-.18,4.51-.14,6.79.02.9.26,1.92.15,2.87-.04.32-.24.43-.27.65-.08.4.16,1.07.46,1.36.64-.39,1.33-.68,2.08-.78.59.04.67.66.95.76.51.18,1.36.16,1.93.41.26-.3-.18-.51-.31-.73-.3-.54-.12-1.9-.14-2.6-.21-4.5-.52-9.05-.39-13.55.08-2.83-.28-5.67-.4-8.47-.04-1.06.04-2.13,0-3.19h1.04l.26,11.99,1.25-.91.32.07.52.85c.65-.28,2.37-1.03,3-.72.22.11.48.54.82.75.34.2,1.35.54,1.7.47.16-.03.32-.2.56-.23,1.15-.18,1.63.55,2.6.52.29-.01.54-.14.78-.14.29,0,.63.22.98.13.02-.46-.03-.91,0-1.37.22-3.25-.07-6.53-.25-9.77-.03-.54.02-1.1,0-1.63h1.04l.39,8.01c.05,4.06.02,8.09-.27,12.13-.02.25-.11.61.21.59.93-.04,2.66-1.52,3.39-.27h.97c-.2-.78-.18-1.6-.26-2.4-.37-4.35-.26-8.78-.52-13.16-.07-1.16-.18-2.36-.26-3.51-.03-.46.02-.92,0-1.37h1.17c.02.62-.03,1.26,0,1.89.12,2.5.4,5.05.52,7.55.05.97-.2,1.85-.13,2.81.4-.13.97-.92,1.35-.89.43.06.65.82,1.09,1,1.37.1,2.83.01,4,.79.21-.03.78-1.11.99-1.36.71-.85,1.74-1.38,2.85-1.51l.12-.34c0-1.95.1-3.9.03-5.84-.02-.94-.08-1.94-.13-2.87-.02-.38-.23-.79-.13-1.23h1.04l.12,10.16c.48-.1.93.14,1.37.14.25,0,.18.02.2-.2.03-.53.03-1.17,0-1.71-.13-2.15-.42-4.33-.53-6.51-.03-.63.03-1.27,0-1.89h.78l.26,6.71c.08.91.36,1.99.39,2.88,0,.21-.13.37-.13.57,1.11-.05,1.98-.01,2.99.48.71.34,1.28.88,1.92,1.33.77.54,1.57.7,1.86,1.8l.2.05c1.01-.47,2.07-.95,3.2-1.05l.11-12.79h1.17v17.27c-.46,1.23-.15,2.32-.13,3.5.07,2.55.08,5.12-.26,7.64.67-.05,1.26-.05,1.17.78.8-.04,2.15-.46,2.9-.24.26.08.67.73,1.07.76.27.02.74-.2,1.05-.25.35-.07.76.1,1.04-.14.16-.23-.15-.67-.19-.99-.62-3.8-.11-8.21-.27-12.12-.21-5.13-.82-10.3-.53-15.51.02-.25.07-.47.14-.71h1.04c-.02.66.03,1.35,0,2.02-.1,2.19-.23,4.45-.27,6.64-.02,1.35-.05,2.78.14,4.11,1.59-.84,3.25-1.34,5.02-.78,1.09.34,2.47.88,3.26,1.67.3.07,2.38-.86,2.99-.84.32.01.64.4.59.73.05.09.96-.28,1.13-.37.84-.39,1.75-1.07,2.57-1.46.28-.14.51-.26.72.08.15.25.15.55.14.84,1.08-.43,2.24-.6,3.38-.78M80.77,16.38c.08-.7-.79-2.63-1.36-3.06-.7-.52-3.05-1.27-3.91-1.17l-3.04,1.32.24,3.97c.3.21,1.86-.33,2.33-.42.77-.15,2.01-.62,2.11.49.96-.29,2.2-.66,3.12-.2.26.11.51-.75.52-.92M60.44,18.01c.12-.11-.21-2.76-.27-3.18-.15-.91-.27-1.63-1.03-2.22-1.05-.83-2.62-1.76-3.98-1.89-.59-.05-1.25.2-1.84.21-.49.01-1.12-.18-1.66-.09-.21.04-.36.27-.5.25-.16-.02-.28-.22-.52-.22-.28.01-1.33.46-1.58.64-.32.24-1.42,2.23-1.79,2.76-.32.45-.68.88-1.02,1.33l4.39.43c.76.32,1.12,1.88,1.09,2.63l4.27-.41c.32-.54.75-1.3,1.18-1.74.25-.25.58-.28.87-.07l.99,1.55,1.4.02ZM50.8,18.59c-.08-.37-.25-1.47-.6-1.59-.17-.07-.68-.14-.89-.16-1.39-.12-2.78-.03-4.17-.12-1.03-.07-2.21-.45-3.25-.26-.36.05-.76.59-1.23.52v1.03c1.53-.04,3.52-1.25,4.09.92l.15.11c.68.14,1.37.1,2.07.14.23.01.43.13.65.14.39.02,2.39-.4,2.86-.53.14-.04.26-.03.33-.21M45.12,15.41l1.25-1.76c-1.08-.86-2.64-.65-3.95-.74l-.62-.75-.38.06-1.02.8.11,3.18s.68-.15.78-.21c.2-.11.23-.37.39-.51.53-.47,2.68-.1,3.44-.07M11.83,25.68c.12-.18-.33-2.1-.44-2.46-.28-.94-.67-1.16-1.46-1.67-2.04-1.29-4.45-1.99-6.76-2.62-1.49.6-2.6,1.97-3.54,3.21l-.16,4.08c.07.09,1.15-.9,1.5-.9.58,0,.5.5.69.87.06.13-.03.22.22.16.53-.3,1.98-1.8,2.48-1.82.82,0,.42,1.08.8,1.15.78-.21,1.51.51,2.2.79.52.09.6-.2.91-.26.7-.12,1.47.34,1.96.78.33-.64,1-.99,1.61-1.33"/>
        <path class="cls-11" d="M90.67,51.71c.29.25.33.67,0,.91-.26.19-.74.15-1.04.26-.6.21-1.32.97-1.95.65-.32-.15-.41-.72-.78-.85v-.39c-.33,0-.55.32-.78.52-.08.08-.11.22-.26.32-.82.58-1.39-.38-2.21-.32l-.42,1.8c-.59.4-1.05-.08-1.65-.09-.27.35-.42,1.19-.73,1.42-.22.18-.65.23-.94.36-1.89.89-3.88,1.82-4.76,3.85l-.17.74c.66-.36,1.43-.64,2.15-.85,1.25-.35,2.51-.63,3.77-.18.24,1.27-1.3.84-2.13.91-.78.08-2.2.52-2.94.84-.95.4-1.8,1.45-2.09-.26-.03-.17.08-.23-.19-.2-.49.23-.89,1.32-1.2,1.41-.48.14-1.19-.2-1.54-.5l-.72,1.37.71-.07.6.33c.03.15-.15.29-.26.39-.56.52-2.44.8-3.26,1.03-1.48.42-2.94,1.65-2.99-.84-.62.05-1.29,1.45-1.65,1.54-.48.13-.97-.71-1.35-.9.16,2.19-.96,1.27-2.34,1.04.25.52.73.95.46,1.58-.32.47-2.1.15-2.72.28-.26.05-.87.47-1.09.66-.35.29-.56,1.05-1.27.59-.34-.23-.47-.88-.47-1.28-.09-.11-1.39.4-1.61.54-.57.37-.92,1.11-1.7,1.27-.62-.87-1.67.3-2.27-.73l.17-1.09c-1.77,1.42-1.7.21-1.63-1.44-.13-.14-.87.65-.98.78-.4.49-.62,1.4-1.28,1.28-.62-.17-.39-1.84-.8-2.33-.53.38-.5,1.9-1.05,2.07-.6.18-1.16-.61-1.74-.76.04.46-.05.91-.48,1.16l-1.8-.12c-.61-.04-1.35.23-1.8-.02-.67-.37-.61-1.42-.82-1.56-.33-.07-.7-.24-1.03-.25-.47-.03-1.07.33-1.44.01-.4-.33-.25-1.24-.45-1.71-.35.04-.45.4-.62.53-1.07.79-1.93.78-3.19.48-.61-.14-1.54-.72-2-.74-.74-.04-2,.68-2.84.63-.33-.1-.29-.52-.48-.71-.33-.32-1.43-.64-1.83-1.03-.35-.35-.1-.63-.72-.72-.62-.08-1.3.07-1.88-.34-.64-.54.42-1.6.25-1.75-.59-.23-2.06.78-2.32.04-.09-.25-.2-1.37-.28-1.48l-1.13.76c-.43.05-1.11-.31-1.52-.52-1.27-.66-2.46-1.65-3.77-2.35-1.76-.93-4.74-2.51-6.58-3.07-.63-.2-2.61-.38-2.89-.62-.3-.25.42-.49.62-.55.25-.09.54-.14.82-.16.83-.07,1.54.11,2.34.26l3.52,1.57.11-1.28c-.48-.26-.85-.51-1.41-.54-.17-.23-.3-.39-.26-.72.03-.25.65-.86.52-.98l-.09-.11c-.24-.04-.5-.04-.74,0l-.09.11c-.09,0-.17,0-.26,0-.78-.46.18-1.44,0-2.22-.18-.18-1.05.35-1.24.52-.26.24-.24.65-.77.53-.46-.07-.62-.79-.83-1.14-.08-.14.02-.23-.28-.17-.17.43-.25,1.51-.85,1.45-.3-.03-.48-.4-.43-.7.03-.29.37-1.27.51-1.58.72-1.47,1.85-.1,1.94.96.11.12.7-.4.87-.5.2-.1.46-.22.66-.25,1.9-.33,1.61.73.95,1.99.08.1.14-.03.29-.02.67.07,1.79.59,1.4,1.39-.05.12-.43.62-.39.65.63.15,1.55.72,1.67,1.39.07.42-.38,1.16-.23,1.65.08.22,1.07.54,1.38.71,1.72.9,3.43,1.9,4.68,3.42.2.04.83-.88,1.54-.78.64.24.9,1.07.99,1.7,1.25-.47,3.41-.32,2.21,1.44.73.11,2.16.07,2.61.71.12.16.13.4.26.53.13.12,1.53.9,1.75.98.73.27,1.51-.43,2.35-.4.58.01,1.21.46,1.73.62.75.24,1.54.26,2.31.4.45-.45,1.27-1,1.93-.86.93.2.62,1.45.87,1.61,1.29.14,3.01,0,3.48,1.5l2.13.12c0-1.13.39-1.32,1.35-.89.21.09.94.58,1,.5.12-.84.9-2.24,1.88-2.09.61.1.68,1.7.91,1.7.43-.4,1.48-1.47,2.07-1.4.85.27.77,1.05.74,1.8.64-.04,1.54-.88,2.09-.33.58.59-.22,1.12-.52,1.63h.63c.38-1.28,1.14-2.39,1.74-3.56.63-1.25.88-1.98,1.79-3.15.23-.29.66-.55.82-.88.16-.36.07-.68.13-1.04.15-.87,1.93-3.18,2.8-3.34.74-.13,1.04.49.5,1.03-.76.75-1.39,1.22-1.95,2.22-.28.51-.37,1.02-.62,1.47-.6,1.1-2.59,2.76-2.59,4.19v1.89l1.74-.37c.35.17.42.48.48.83.02.14-.05.27.2.2.23-.08.6-.45.86-.58.72-.36,1.41-.38,2.21-.34-.04-.59-.98-1.38-.6-1.96.25-.39.93.04,1.21.11.45.1.9.15,1.34.28.18-.89.21-2.08,1.44-1.62l.85.97c.66-.63,1.72-1.86,2.68-1.22l.25,1.35,2.78-.9c.41-.52,1.05-2.67,1.72-2.75.26-.03.46.12.71.14l1.7-4.05c.36-.07.28.14.25.45-.12.97-.38,2.06-.77,2.95.71-.07,1.05-.83,1.87-.67.96-1.44,1.98-2.88,3.51-3.79.42-.24,1.94-.84,2.14-1.04.03-.03.4-.68.45-.79.18-.39.21-.87.5-1.2.71-.62,1.39.52,1.57.33.07-.59.52-2.23,1.3-2.04.38.1,1.07.73,1.37.73l1.75-1.18c.07.03.26,0,.39.07.59.28.61.66,1,1.1.53.16,1.74-.98,2.51-.32"/>
        <path class="cls-11" d="M90.34,31.98c.55.35.12.77-.4.87-.97.17-1.8.28-2.69.83-.24.15-.42.5-.67.5-.72.02-.84-1.3-1.04-1.29-.37.26-.99,1.33-1.5.98-.28-.2-.01-.83.11-1.08.61-1.28,2.45-1.89,2.63-.03.13.17,2.69-1.34,3.57-.77"/>
        <path class="cls-11" d="M86.83,65.2c.46-.09.38,1.33.3,1.61-.15.53-1.29,1.97-1.62.87-.2-.65.91-1.95,1.32-2.48"/>
        <path class="cls-3" d="M86.9,52.3v.39c-.13.24-.54.11-.78.13.23-.21.46-.53.78-.52"/>
        <path class="cls-3" d="M32.3,44.48s-.11.05-.16.07c.13.14.25.28.38.42-.09-.2-.17-.37-.22-.49"/>
        <path class="cls-1" d="M58.63,63.66c0-1.09.24-2.17.52-3.26-.11.09-.22.15-.33.12-.57-.15.06-1.77.79-1.88.39-1.59.63-3.18.1-4.77-2.12,1.41-5.15,2.37-7.61,3.76-.18.37-.47.82-.54.97-.24.54-.37,1.16-.67,1.66l-.47.12c-.27-.62.08-1.34.36-1.92h0c-.77.56-1.44,1.18-1.94,1.93,0-.81-.07-1.61-.18-2.42-.46,1.39-.9,2.72-1.21,4.33-.07.38-.1,1.28-.27,1.85,1.76-.18,3.74-.92,6.18-1.41.22-.39.48-.78.84-1.25.23-.29.66-.55.82-.88.16-.36.07-.68.13-1.04.15-.87,1.92-3.18,2.79-3.34.74-.13,1.04.49.5,1.03-.76.75-1.39,1.22-1.95,2.22-.28.51-.37,1.02-.62,1.47-.26.47-.77,1.05-1.27,1.66,1,.18,2.21,1.13,3.52,2.32,0-.04.02-.08.04-.11.25-.39.94.04,1.21.11.45.1.9.15,1.34.28.18-.89.21-2.08,1.43-1.62l.85.97c.58-.55,1.45-1.55,2.3-1.38.36-.97.71-1.95,1.04-2.92h-.02c-.02-.23,0-.43.05-.66.19-.78.67-1.88,1.08-2.86.38-1.31.7-2.63.97-3.95-1.09,5.44-7.61,6.53-9.79,10.88"/>
        <path class="cls-1" d="M53.28,65.13v1.89l1.74-.37c.35.17.42.48.48.83.02.14-.05.27.2.2.23-.08.6-.45.86-.58.72-.36,1.41-.38,2.21-.34-.04-.55-.85-1.28-.64-1.84-1.31-1.19-2.51-2.14-3.52-2.32-.67.82-1.32,1.71-1.32,2.53"/>
        <path class="cls-1" d="M28.43,58.98c-.02-.17,0-.3.09-.36.65-.08,1.1.33,1.35.87,3.04,1.05,6.26,1.91,9.18,3.07.41,0,.66-.3.82-.74-.15-.49-.3-1.11-.11-1.28.12-.12.24-.15.35-.13.02-.41.03-.8.03-1.11,2.06,3.61,3.88,4.77,5.91,4.88-.05-.12-.08-.24-.09-.36,0-.53.3-1.84.45-2.44.17-.78.47-2,.8-2.71.27-.56.78-.99.92-1.69.1-.46-.13-.73-.04-1.22,0-.07.04-.15.07-.23-.41-1.65-.96-3.3-1.51-4.94-.42,1.28-.85,2.38-1.28,3.39.06,0,.12,0,.19,0,.09.23.15.46.15.71,0,.67-.22,1.64-.27,2.34-.03.52.28,2.89-.83,2.14-.25-.17-.42-.71-.45-1-.03-.33.03-1.15.07-1.71-.29.59-.57,1.16-.86,1.73-3.38-4.06-6.35-8.12-9.67-11.92-.45.06-.92-.73-1.21-1.33-.13-.14-.25-.28-.38-.42-1.13.5-3.81,1.05-5.05,1.43-.39.12-.86.23-1.17.46.36.46-.1,1.18-.39,1.56.7.1,2.24,1.08,2.32,1.78.01.11-.07.38-.18.45-.75.12-.95-.43-1.44-.77-.5-.34-.87-.3-1.36-.47-1.08-.37.11-1.04.01-1.76-.54,0-1.09,0-1.63,0-.21,0-.43-.14-.59-.13-.37.02-2.66.79-3.25.97-.75.23-1.46.56-2.22.72.23.22.75,1.08.89,1.39.34.76.76,1.91-.05,2.52-.48.1-.92-1.86-1.12-2.26-.2-.42-.49-.78-.76-1.13-.53.22-1.17.47-1.57.91.23.42.61,1.44.14,1.77-.6.24-.72-.55-.95-.9-.08-.13-.22-.18-.24-.22-1.39.65-2.66,1.53-4.3,1.04-.05.12-.43.62-.39.65.63.15,1.55.72,1.67,1.39.07.42-.38,1.16-.23,1.65.08.22,1.07.54,1.38.71,1.72.9,3.42,1.9,4.68,3.42.2.04.83-.88,1.54-.78.64.24.9,1.07.99,1.7,1.25-.47,3.41-.32,2.21,1.44.73.11,2.16.07,2.61.71.12.16.13.4.26.53.1.1,1,.6,1.48.85-1.29-2.52-2-5.32-2.7-8.13,1.64,1.23,3.6,2.15,5.68,2.94M37.72,54.39c1.26.04,2.54,2.64,2.22,3.65-.12.35-.35.52-.67.26-.28-.24-.51-1.39-.74-1.86-.11-.23-.29-.53-.42-.75-.25-.38-.97-.8-.38-1.31M32.38,49.7c.62-.16,1.75,1.74,2.03,2.25.2.34.48.87.59,1.23.17.54.16,1.42.37,1.86.22.45,1.76,1.66,2.22,2.21.84,1.03.79,1.67.84,2.94,0,.36.22.67-.02,1.08-1.6.7-.99-1.71-1.38-2.68-.41-1.01-2.23-2.16-2.93-3.06-.25-.77-.14-1.6-.39-2.35-.29-.89-1.65-2.38-1.53-3.17.02-.15.07-.25.21-.32M30.35,55.89c.57.41.97,1.19.73,1.89-.16.24-.62.1-.83-.04-.16-.55-1.33-1.5-1.34-1.99-.01-.67,1.13-.08,1.43.14M25.15,50.23c.59-.32,1.24.04,1.77.35.7.39,1.62,1.08,1.2,1.97-.66.17-.88-.28-1.29-.57-.33-.23-1.59-.95-1.66-1.21-.05-.16-.04-.38-.01-.54M25.05,52.45c.28.33.82.65,1.09.94.22.22.38.61.28.91-.24.8-2.42-.66-2.17-1.52.15-.33.46-.42.8-.33M18.2,57.88c-.07.05-.32.15-.4.14-.6-.12-.91-1.86-1.24-2.43-.12-.22-.38-.54-.54-.75-.33-.41-.9-.63-.78-1.24.4-.4,2.26,1.31,2.53,1.7.35.5.9,2.11.44,2.58"/>
        <path class="cls-2" d="M46.9,64.62l-.44.04c-.19-.1-.32-.28-.4-.48-2.03-.11-3.85-1.28-5.91-4.88,0,.31,0,.7-.03,1.11.54.11,1.01,1.55,1.05,1.98.03.34.09.89-.2,1.12-.34.07-.82-.91-.91-1.17-.04-.11-.11-.3-.18-.52-.16.44-.41.74-.82.74-2.92-1.17-6.14-2.03-9.18-3.07.2.44.28.96.2,1.4-.43.26-.7-.02-.96-.39-.15-.21-.62-1.02-.69-1.52-2.09-.79-4.04-1.71-5.68-2.94.7,2.81,1.41,5.61,2.7,8.13.12.06.22.11.27.13.73.27,1.51-.43,2.35-.4.58.01,1.21.46,1.73.62.75.24,1.54.26,2.3.4.45-.45,1.27-1,1.94-.86.93.2.62,1.45.87,1.61,1.29.14,3.01,0,3.48,1.5l2.13.12c0-1.13.39-1.32,1.35-.89.21.09.93.58,1,.5.12-.84.9-2.24,1.88-2.09.61.1.68,1.7.91,1.7.43-.4,1.48-1.47,2.07-1.4.85.27.77,1.04.74,1.79.64-.04,1.54-.88,2.09-.33.58.59-.22,1.12-.52,1.63h.63c.38-1.28,1.14-2.39,1.74-3.56.38-.75.62-1.32.96-1.9-2.44.5-4.41,1.23-6.18,1.41-.07.23-.16.4-.28.47"/>
        <path class="cls-3" d="M85.46,49.82c-.41.34-.92.84-1.41.51-.12-.49.03-.83.37-1.16-.27-.25-.74-.32-.91-.64-.25.21-.67.41-.97.65-.49.37-.87,1.08-1.62.89-.4-.82.78-1.69,1.42-2.07-.35-.15-.65-.42-1.04-.39-.18.14-.4.24-.59.39-.32.25-.76.97-1.24.72-.83-.42.39-1.47.78-1.76-1.1-.43-2.09-1.12-3.16-1.59-1.47-.63-3.03-1-4.6-1.27-1.47-.24-4.2-.25-5.39-.66.38.67-.64,2.1-1.08,1.13-.18-.42.18-.9.43-1.26-.77.04-1.58-.26-2.35-.26-.01.03-.16.12-.2.25-.13.45-.17,1.51-.78,1.46-.79-.09-.28-1.4-.07-1.84-.61-.22-1.35-.09-1.96-.26l-.52,1.7,1.7.39c-.29-.04-.57.11-.85.13-2.24.15-4.47.05-6.71-.26-.25-.03-.45-.1-.65-.13-.52-.09-1.04-.17-1.57-.26-.04.23.06.58-.12.83-.72.59-1.12-.25-1.04-.96l-3.2-.13c-4.02-.59-8.07-.91-12.1-.38-.74.11-2.44.66-2.95.64.42.58,1.51,1.4.7,2.08h-.05c3.33,3.8,6.29,7.86,9.67,11.92.29-.57.57-1.14.86-1.73,0-.13.02-.25.02-.34.06-.71.22-2.2,1.11-2.15.42-1.01.85-2.11,1.27-3.39.55,1.65,1.1,3.29,1.51,4.94.11-.26.31-.57.46-.73.1-.1.61-.52.74-.62.27-.17.58-.35.76,0l.02.38c-.21.46-.71.87-.86,1.36-.21.72-.42,1.38-.64,2.03.12.81.18,1.61.18,2.42.49-.74,1.17-1.37,1.94-1.93.3-.6.71-1.3,1.46-1.35.06.07-.02.27-.13.51,2.46-1.39,5.49-2.35,7.61-3.76.53,1.59.28,3.18-.1,4.77.1-.02.21,0,.31.05.12.12-.3,1.33-.77,1.71-.28,1.09-.52,2.17-.52,3.26,2.17-4.35,8.7-5.44,9.79-10.88-.26,1.32-.59,2.63-.97,3.95.16-.39.32-.77.43-1.1.54-1.56.79-2.96,2.01-4.24.41-.43,1.95-1.77,2.13-.57.04.27-.45.45-.63.63-2.27,2.14-2.3,4.57-3.41,7.27-.3.74-.73,1.6-1.64,1.53-.33.97-.68,1.95-1.04,2.92.13.03.26.07.38.16l.25,1.35,2.78-.9c.41-.52,1.05-2.66,1.72-2.75.26-.03.46.12.71.14l1.7-4.05c.36-.07.28.14.25.45-.12.97-.38,2.06-.77,2.95.71-.07,1.05-.83,1.87-.67.96-1.44,1.98-2.88,3.51-3.79.42-.24,1.93-.84,2.14-1.04.03-.03.4-.69.45-.79.18-.39.21-.87.5-1.2.71-.62,1.39.52,1.57.33.07-.59.52-2.23,1.3-2.03.38.1,1.07.73,1.37.73l1.75-1.17c-.33-.15-.99-.79-1.3-1.05M36.45,46.27c-.08.08-.22.1-.32.13-.34.02-.5-.23-.62-.5-.15-.36-.62-1.8-.13-1.94.87-.2,1.54,1.83,1.07,2.31M38.05,44.23l.42-.11c.44.09.55.48.72.84-.35,1.28-1.41.16-1.14-.73M55.79,50.83c-.17.52-.24,1.09-.53,1.56-.11.21-.26.48-.54.43-.04-.37-.37-.75-.39-1.12-.02-.54.66-2.45,1.35-2.37.93.3.3.94.12,1.5M62.14,52.89c-.12.12-.17.24-.39.2-.28-.61-.16-3.58.84-3.37l.45.6c-.15.78-.27,2.02-.89,2.58M71.07,56.33c-.28.71-.84,2.12-1.63,2.22-.32-.82.41-1.59.72-2.35.21-.5.6-1.98.85-2.29.11-.13.21-.23.39-.18.3.85,0,1.79-.33,2.6M72.24,46.18c-.41.47-.59,1.23-1.37,1.16-.76-1.08,1.46-3.24,2.35-2.67.4.65-.59,1.05-.98,1.5M73.67,46.82c.1-.3.78-.92,1.08-1.01.35-.1.92-.08.8.41-.03.12-1,1.32-1.15,1.46-.59.54-.93-.23-.73-.86M75.5,53.87c-.19.46-.61,2.64-1.35,1.93-.57-.57.52-2.94,1.01-3.43.22-.22.55-.37.85-.46l.21.33c.02.27-.58,1.25-.72,1.63"/>
        <path class="cls-11" d="M85.99,48.71l.25.38c-.22.28-.5.51-.77.73-.41.34-.92.84-1.41.51-.12-.49.03-.83.37-1.16.37-.36,1.05-.71,1.57-.46"/>
        <path class="cls-11" d="M85.05,85.11l-.32.54c-.65.22-.97-.65-1.61-.84-.47-.13-2.16.15-1.58-.77.39-.61.91-1.16,1.32-1.76-.59-.01-1.17-.03-1.73.16-.37.14-.49.36-.82.5-.98-.33-.04-1.38.22-2,.14-.34.21-.68.37-1-1.16-.1-1.57,1.08-2.22,1.76-.82.86-.9-1.09-.91-1.58,0-.2.1-.37-.2-.32-.21.48-.87,1.13-1.03,1.57-.15.37.01.75-.33,1.11-.67.7-1.04-.61-1.35-.95-.07-.08-.7-.55-.78-.59-.36-.18-.63-.09-.73.33.32.45,1.11,1.39.61,1.88-.28.29-1.07-.05-1.58.07-.25.05-1.05.51-1.25.7-.29.25-.95,1.45-1.38.58-.52-1.03,1.84-2.28,2.67-2.4l.13-.14c-.5-.64-.49-1.04,0-1.7.95-1.25,2.34-.72,3.19.33l1.4-2.04c1.09-.75,1.72.52,1.53,1.53.64-.71,2.2-1.63,3.07-.93.64.51-.22,1.63-.46,2.22.75.04,1.77-.37,2.35.33.34.41.36.8.05,1.24-.1.14-.74.64-.58.78.83.08,1.66.57,1.93,1.39"/>
        <path class="cls-11" d="M84.29,47.48c.21.19-.61.9-.78,1.04-.25.21-.67.41-.97.65-.49.37-.87,1.08-1.62.89-.4-.82.78-1.69,1.42-2.07.62-.38,1.21-.63,1.95-.52"/>
        <path class="cls-11" d="M81.5,35.87c.64-.06,2.01-.04,1.89.85l-.22.3c-.43.14-.87-.13-1.28-.12-.54.02-2.05.71-2.26.05-.1-.3.14-1.24-.23-1.34-.74,0-1.48,1.12-2.18.89-.38-.13-.51-1.23-.67-1.56-.24.2-.53.33-.77.52-.7.57-1.17,1.86-2.15.98-.25-.23-.26-.73-.65-.85-.25.42-.88,1.91-1.37,1.91-1.09-.3.08-2.03.52-2.57,1.09-1.33,1.53-.79,2.22.52.46-.51,1.75-1.74,2.46-1.66.5.06.92.93.86,1.4.17.24,1.87-1.17,2.61-.46.46.45.03,1.27.13,1.37.37-.05.72-.23,1.11-.26"/>
        <path class="cls-11" d="M83.39,65.13c.03.4-.78,2.27-1.07,2.59-.15.17-.3.33-.55.34l-.27-.25c-.26-1.22.39-2.54,1.58-2.98l.32.3h-.01Z"/>
        <path class="cls-11" d="M82.73,45.97l.11.59c-.63.14-1.07.68-1.54,1.06-.18.14-.4.24-.59.39-.32.25-.76.97-1.24.72-.83-.42.39-1.47.78-1.76.46-.35,1.97-1.33,2.48-.99"/>
        <path class="cls-5" d="M79.51,13.43s-.07-.08-.11-.11c-.7-.52-3.06-1.27-3.92-1.17l-3.04,1.32.22,3.59c3.17.34,5.1-1.75,6.85-3.62"/>
        <path class="cls-10" d="M79.51,13.43c-1.75,1.87-3.68,3.96-6.85,3.62l.02.38c.3.21,1.86-.33,2.33-.42.77-.15,2.01-.62,2.11.49.96-.29,2.2-.66,3.12-.2.26.11.51-.75.52-.92.07-.65-.69-2.39-1.25-2.95"/>
        <path class="cls-11" d="M78.92,27.43c.74-.13,1.18.48.63,1.02-.66.11-1.89,1.05-2.47.88-.76-.23.1-1.1.45-1.34.28-.21,1.05-.51,1.39-.57"/>
        <path class="cls-11" d="M77.45,65.47c.99.42,1.99,1.36,1.87,2.51-.11.38-.67.48-.97.23-.35-.83-1.54-1.85-.9-2.74"/>
        <path class="cls-11" d="M76.22,52.23c.02.27-.58,1.25-.72,1.63-.18.46-.61,2.64-1.35,1.92-.57-.57.52-2.94,1.01-3.43.22-.22.56-.37.85-.46l.21.33h0Z"/>
        <path class="cls-11" d="M75.66,68.81c.04.62-.58,1.04-1.11.66l-.93-2.26.35-.55c.73-.18,1.66,1.55,1.7,2.15"/>
        <path class="cls-11" d="M74.74,45.8c.35-.1.92-.08.8.41-.03.12-1,1.32-1.15,1.46-.59.54-.93-.23-.73-.86.1-.31.78-.93,1.08-1.01"/>
        <path class="cls-11" d="M73.22,44.67c.4.65-.59,1.04-.98,1.5-.41.47-.59,1.23-1.37,1.16-.76-1.08,1.46-3.24,2.35-2.67"/>
        <path class="cls-12" d="M66.34,12.51l.37-.23c.04.27.09.54.13.82,1.72-3.12,3.33-6.27,4.48-9.51,0-1.08,0-2.16.07-3.24.02-.25.07-.47.14-.71h-5.99v15.8c.18-.32.36-.64.54-.96.03-.66.16-1.32.27-1.97"/>
        <path class="cls-14" d="M71.92,15.86c-.16-4.07-.57-8.16-.6-12.27-1.15,3.24-2.76,6.39-4.48,9.51.16,1.04.29,2.13-.14,3.09h-.38c-.22-.55-.27-1.13-.24-1.7-.18.32-.36.64-.54.96v1.48c-.46,1.23-.15,2.32-.13,3.5.07,2.54.08,5.12-.26,7.64.67-.05,1.26-.05,1.17.78.8-.04,2.15-.46,2.9-.24.26.08.67.73,1.07.76.27.02.74-.2,1.05-.25.35-.07.76.1,1.04-.14.16-.23-.15-.67-.2-.99-.62-3.8-.11-8.21-.27-12.12M66.32,22.52c0-1.16-.16-2.98,0-4.05.01-.07.14-.41.33-.33.55.27.43,2.6.45,3.2.02.54.28.78.01,1.45s-.78.12-.78-.27M67.21,26.74l-.42.13c-.49-.1-.38-1.51-.01-1.8.52-.12.5,1.38.43,1.68M68.53,17.83c-.02.16-.37,1.57-.65,1.23-.26-.29-.33-2.59-.26-3.06.04-.28.26-.69.58-.72.43.1.38,2.13.34,2.54"/>
        <path class="cls-11" d="M72.02,50.82c.04.27-.45.45-.63.63-2.27,2.14-2.3,4.57-3.41,7.27-.3.74-.74,1.61-1.66,1.53-.02-.23,0-.43.05-.66.26-1.09,1.1-2.81,1.51-3.96.54-1.56.79-2.96,2.01-4.24.41-.43,1.95-1.77,2.13-.57"/>
        <path class="cls-11" d="M71.39,53.73c.3.85,0,1.8-.33,2.6-.28.71-.84,2.12-1.63,2.22-.32-.82.41-1.59.72-2.35.21-.5.6-1.98.85-2.28.11-.13.21-.23.39-.19"/>
        <path class="cls-11" d="M68.2,15.28c.43.1.38,2.13.34,2.55-.02.16-.37,1.57-.65,1.23-.26-.29-.33-2.59-.26-3.06.04-.28.26-.68.58-.72"/>
        <path class="cls-11" d="M66.77,25.06c.52-.12.5,1.38.43,1.68l-.42.13c-.49-.1-.38-1.51-.01-1.81"/>
        <path class="cls-11" d="M67.09,21.34c.02.54.28.78.01,1.45s-.78.12-.78-.27c0-1.16-.16-2.98,0-4.05.01-.07.14-.41.33-.33.55.27.43,2.6.45,3.2"/>
        <path class="cls-11" d="M67.1,43.43c.38.67-.64,2.1-1.08,1.13-.18-.42.18-.9.42-1.26.83-.04.3,0,.65.13"/>
        <path class="cls-11" d="M66.71,12.28c.2,1.26.53,2.7-.01,3.91h-.38c-.47-1.19-.18-2.46.02-3.68,0,0,.37-.23.37-.23Z"/>
        <path class="cls-11" d="M65.53,76.28c.29.33-.95,1.97-1.31,2.15-.17.09-.34.08-.52.07-.14-.74.38-1.33.92-1.75.12-.1.8-.58.9-.47"/>
        <path class="cls-4" d="M64.36-.36l-.13,12.77c-1.13.1-2.18.58-3.2,1.04l-.2-.05c-.29-1.1-1.09-1.25-1.86-1.79-.64-.45-1.22-.99-1.92-1.33-1.01-.49-1.88-.53-2.99-.48,0-.2.14-.36.13-.57-.03-.89-.32-1.97-.39-2.88l-.26-6.71h10.82Z"/>
        <path class="cls-11" d="M63.32,42.45c.49-.23.95.03.78.59-.01.03-.16.12-.2.25-.13.45-.17,1.51-.78,1.46-.79-.09-.28-1.4-.07-1.84.08-.15.13-.33.26-.46"/>
        <path class="cls-11" d="M62.59,49.71l.45.6c-.15.78-.27,2.02-.89,2.58-.12.12-.17.24-.39.2-.28-.61-.16-3.58.84-3.37"/>
        <path class="cls-11" d="M62.4,74.2c.11.99-.65,1.63-1.07,2.39-.2.35-.41,1.36-.83,1.4-.74.05-.93-.87-.78-1.46.23-.93,1.73-2.21,2.68-2.34"/>
        <path class="cls-13" d="M62.27,44.74c-.29-.04-.57.11-.85.13-2.24.15-4.47.05-6.71-.26.05-.18.35-.4.39-.52.63.02,1.26-.03,1.89,0,.52.02,2.17.11,2.55.26.27.11.45.9,1.03,0l1.7.39Z"/>
        <path class="cls-11" d="M61.1,42.65l-.52,1.7c-.59.9-.76.11-1.03,0,0-.42.25-1.38.51-1.7.49-.57.73-.09,1.04,0"/>
        <path class="cls-11" d="M60.72,36.06l.11.38c-.05.22-.41.37-.63.42-.25.05-1.13.18-1.37.18-.1,0-.36-.09-.43-.16-.17-.17-.11-.75-.22-.75-.62-.04-2,1.32-2.26.43-.07-.34,0-.68-.02-1.02-.02-.39-.38-.18-.6-.08-.53.27-1.16,1.11-1.79.91-.61-.2-.36-2.72-1.49-.82-.42.71-.35,1.36-1.4.96-.39-.14-.7-.5-1.1-.65-.1.12.57,1.73-.59,1.57-.8-.11-.57-2.16-.57-2.78.84-.94,1.78.32,2.58.7.14-.61,1.4-1.91,2-1.81.57.1,1.07,1.12,1,1.67.1.11,1.32-.77,1.57-.85.95-.27,1.29.38,1.31,1.24.72-.17,1.35-.54,2.13-.37l.36.62c.42.09,1.13-.15,1.42.2"/>
        <path class="cls-5" d="M49.93,14.71c3.06,0,6.13-1.08,9.2-2.1-1.05-.82-2.61-1.75-3.97-1.88-.59-.05-1.25.2-1.84.21-.49.01-1.12-.18-1.66-.09-.21.04-.36.27-.5.25-.16-.02-.28-.22-.52-.22-.28.01-1.33.46-1.58.64-.32.24-1.42,2.23-1.79,2.76-.32.45-.69.88-1.02,1.33l3.9.38c.13-.37.24-.83-.21-1.28"/>
        <path class="cls-10" d="M59.14,12.62h0c-3.07,1.02-6.13,2.1-9.2,2.1.45.45.34.9.21,1.28l.5.05c.76.32,1.12,1.88,1.09,2.63l4.27-.41c.32-.54.75-1.29,1.18-1.74.25-.25.58-.28.87-.07l.99,1.55,1.4.02c.12-.11-.21-2.76-.27-3.18-.15-.91-.27-1.63-1.03-2.22"/>
        <path class="cls-3" d="M58.04,42.39l2.01.26c-.26.32-.5,1.27-.51,1.7-.37-.15-2.02-.24-2.54-.26-.63-.03-1.26.02-1.89,0,.03-.09.24-1.03.23-1.09l-.36-.61c1.02.02,2.04,0,3.07,0"/>
        <path class="cls-11" d="M59.92,58.68c.15.15-.53,1.98-1.1,1.83-.65-.17.26-2.26,1.1-1.83"/>
        <path class="cls-11" d="M58.14,74.49c.06.16.23,1.26.23,1.47,0,.26-.16,1.34-.26,1.58-.28.72-1.09.84-1.18-.01-.08-.68-.09-2.59,0-3.25.03-.23.14-.45.33-.6.17-.03.79.64.88.82"/>
        <path class="cls-11" d="M55.67,49.33c.93.31.3.94.12,1.5-.17.52-.24,1.09-.53,1.56-.11.21-.26.48-.54.43-.04-.37-.37-.75-.39-1.12-.02-.54.66-2.45,1.35-2.37"/>
        <path class="cls-11" d="M55.17,75.89c.18.5.46,2.15-.15,2.33-.91.26-.82-1.47-1.02-2.07-.14-.41-.62-1.03-.7-1.39-.03-.17.02-.4.17-.43.43-.09,1.54,1.15,1.7,1.57"/>
        <path class="cls-11" d="M55.33,43s-.2,1-.23,1.09c-.04.12-.34.34-.39.52-.25-.03-.45-.1-.65-.13.07-.18-.12-.41-.13-.52-.04-.62.26-1.23.78-1.57h.26s.36.61.36.61Z"/>
        <path class="cls-11" d="M52.89,89.84c.74-.12,2.28.48,2.22,1.36-.03.53-.57.83-.99.48-.15-.13-.16-.37-.4-.51-.57-.32-2.22-.22-2.37-.76-.16-.59,1.16-1.26,1.15-2-.59.07-1.3-.08-1.88,0-.43.07-1.58.94-1.64.2-.06-.6.5-.73.79-1.03.33-.35.6-1.01.98-1.37.12-.09-.09-.23-.15-.25-.5-.14-1.36.08-1.75.43-.26.24-.79,1.32-1.26.83-.35-.35.03-.84.09-1.22.08-.5.05-1.11.14-1.62-.89.59-1.17,1.87-1.83,2.67-.32.39-.48.45-.76-.02-.33-.54-.18-.91-.29-1.4-.17-.81-.4-1.55-.97-2.17-.27,0-.21,1.37-.2,1.63.03.52.43.92-.43,1.09-.5-.32-.85-.41-1.46-.38-.57.03-.98.35-1.43.4-.71.07-.92-.55-.49-1.05,1-.42,1.95-.81,3.04-.51-.17-.4-.08-.84-.16-1.22-.11-.5-.61-1.08-.08-1.62.73-.73,2.23.82,2.61,1.45.28.48.41,1.03.68,1.52.5-.99,1.33-1.67,2.46-1.8,1.13.33.25,1.49.22,2.32.86-.24,1.84-.51,2.65.02,1.09.72.11,1.39-.43,2.07.83-.18,2.22-.22,2.63.68s-.68,1.03-.68,1.78"/>
        <path class="cls-13" d="M53.93,43.96c0,.11.2.34.13.52-.52-.09-1.04-.17-1.57-.26.04-.15.11-.28.13-.39.42.15.86.15,1.31.13"/>
        <path class="cls-3" d="M54.71,42.39c-.52.34-.83.95-.78,1.57-.45.02-.88.02-1.3-.13.09-.38.57-1.26-.07-1.32-.48-.03-.96.78-1.1,1.18-.42.1-1.11-.35-1.16-.74.15-.51.87-.72,1.36-.71,1.01.03,2.02.13,3.06.14"/>
        <path class="cls-14" d="M53.29,8.04c.02.53.02,1.18,0,1.71,0,.22.05.2-.2.2-.43,0-.89-.24-1.37-.14l-.12-10.17h1.16c.03.62-.03,1.26,0,1.89.11,2.18.4,4.35.53,6.5"/>
        <path class="cls-11" d="M52.56,42.51c.63.05.15.94.06,1.32-.02.11-.09.24-.13.39-.04.23.05.58-.12.83-.72.59-1.12-.25-1.04-.96,0-.04.1-.3.13-.39.14-.4.62-1.22,1.1-1.19"/>
        <path class="cls-11" d="M52.24,57.12c.15.16-.56,1.22-.67,1.48-.24.54-.37,1.16-.67,1.67l-.47.12c-.27-.62.08-1.34.36-1.91.3-.6.71-1.31,1.46-1.35"/>
        <path class="cls-4" d="M50.81,3.74c.06,1.94-.03,3.89-.03,5.84l-.12.34c-1.11.13-2.14.66-2.85,1.51-.21.25-.78,1.33-.99,1.36-1.17-.78-2.63-.7-4-.79-.43-.18-.65-.95-1.09-1-.38-.03-.95.76-1.35.89-.07-.96.18-1.84.13-2.81-.12-2.5-.4-5.05-.52-7.55-.03-.63.02-1.27,0-1.89h10.56c-.1.43.11.85.13,1.23.05.94.11,1.94.13,2.87"/>
        <path class="cls-10" d="M44.74,18.94l.15.11c.68.14,1.37.1,2.07.14.23.01.43.13.65.14.39.02,2.39-.4,2.86-.53.14-.04.26-.03.33-.21-.06-.28-.17-.98-.38-1.36-2.05,1.05-4.1.6-6.15.8.2.2.36.49.47.91"/>
        <path class="cls-5" d="M50.2,17c-.17-.06-.69-.14-.89-.16-1.39-.12-2.78-.03-4.17-.12-1.03-.07-2.21-.45-3.25-.26-.36.05-.76.59-1.23.52v1.03c1.24-.04,2.78-.83,3.62.02,2.05-.2,4.1.26,6.15-.8-.06-.12-.14-.2-.22-.23"/>
        <path class="cls-11" d="M50.14,54.2l.02.38c-.21.46-.71.87-.86,1.36-.65,2.24-1.4,3.99-1.85,6.36-.1.53-.12,2.09-.55,2.32l-.43.04c-.29-.16-.48-.5-.49-.84,0-.53.3-1.84.44-2.44.17-.78.47-2,.81-2.71.27-.56.78-.99.92-1.69.1-.46-.13-.73-.04-1.22.04-.28.33-.75.53-.97.1-.1.61-.52.74-.62.27-.17.58-.35.76,0"/>
        <path class="cls-11" d="M47.21,40.17c.38.78-.71.78-1.23.99-.42.16-.74.58-1.22.43-.63-.18.3-1.32-.02-1.68l-1.88,1.36h-.66l-.25-1.75c-.13-.14-.69.47-.78.59-.18.22-.54,1-.83.96-.8-.13-.93-1.11-1.33-1.67-.54.41-.45,1.75-.77,2.09-.54.53-1.07-.29-1.64-.4.04.37-.05.72-.46.79-1.02,0-.58-3.27.73-2.03.27.26.17.58.64.47.07-.73.47-1.38.87-1.97l.49-.12c.76.2,1.21.93,1.25,1.7.2.04.21-.03.32-.14.36-.37,1.43-2.03,2.03-1.21l.39,1.35c.16.03.23-.04.35-.11.45-.24,2.34-1.6,2.63-.73v1.1c.51-.08.87-.25,1.37,0"/>
        <path class="cls-13" d="M46.37,13.65l-1.25,1.76c-.76-.03-2.9-.4-3.44.07-.16.14-.2.4-.39.51-.1.05-.75.23-.78.21l-.11-3.18,1.02-.8.38-.05.62.75c1.3.09,2.87-.12,3.95.74"/>
        <path class="cls-11" d="M45.58,54.01c.09.23.15.46.15.71,0,.68-.22,1.64-.27,2.34-.03.52.28,2.89-.83,2.14-.25-.17-.42-.71-.45-1-.03-.41.07-1.57.1-2.06.07-.76.23-2.44,1.29-2.13"/>
        <path class="cls-11" d="M41.17,62.39c.03.34.09.89-.2,1.12-.34.07-.82-.91-.91-1.17-.14-.36-.55-1.55-.29-1.8.68-.68,1.35,1.33,1.4,1.85"/>
        <path class="cls-11" d="M37.84,88.01c.79-.91,2.94-.2,2.12.63-.08.08-.3.13-.43.15-.26.03-1.09.15-1.28.13-.55-.04-.8-.47-.4-.91"/>
        <path class="cls-11" d="M37.72,54.39c1.26.04,2.54,2.64,2.22,3.66-.12.35-.35.52-.67.26-.28-.24-.51-1.39-.74-1.86-.11-.23-.29-.53-.42-.75-.25-.38-.97-.79-.38-1.31"/>
        <path class="cls-12" d="M35.41,4.53l.15,3.12c.04,2.78.03,5.56-.07,8.33.56-.44,1.03-.91,1.39-1.27,2.72-4.08,1.61-7.74-1.47-10.18"/>
        <path class="cls-14" d="M39.6,17.69c-.37-4.35-.26-8.78-.52-13.16-.07-1.16-.18-2.36-.26-3.51-.03-.46.02-.92,0-1.37h-3.64l.24,4.89c3.08,2.43,4.19,6.09,1.47,10.18-.36.36-.84.83-1.39,1.27-.05,1.27-.11,2.53-.2,3.8-.02.25-.11.61.21.59.94-.04,2.66-1.52,3.39-.27h.97c-.2-.78-.18-1.6-.26-2.4"/>
        <path class="cls-11" d="M39.19,44.96c-.35,1.28-1.41.16-1.14-.73l.42-.11c.43.09.55.48.72.84"/>
        <path class="cls-11" d="M38.43,60.19c0,.36.22.67-.02,1.08-1.6.7-.99-1.71-1.38-2.68-.41-1.01-2.23-2.16-2.92-3.06-.25-.77-.14-1.6-.39-2.35-.29-.89-1.65-2.38-1.53-3.17.02-.15.07-.25.21-.32.62-.16,1.75,1.74,2.03,2.25.2.34.48.87.59,1.23.17.54.16,1.42.37,1.86.22.45,1.76,1.66,2.22,2.21.84,1.03.79,1.67.84,2.94"/>
        <path class="cls-11" d="M35.38,43.97c.87-.2,1.54,1.83,1.07,2.31-.08.08-.22.1-.32.13-.34.02-.5-.23-.62-.5-.15-.36-.62-1.79-.13-1.94"/>
        <path class="cls-4" d="M34.13,1.27c.18,3.24.47,6.52.25,9.77-.02.46.03.91,0,1.37-.35.09-.68-.13-.98-.13-.24,0-.49.13-.78.14-.97.03-1.45-.71-2.6-.52-.24.03-.39.2-.55.23-.35.08-1.36-.27-1.7-.47-.34-.21-.6-.64-.82-.75-.63-.32-2.35.44-3,.72l-.52-.85-.32-.07-1.25.91-.26-11.99h12.52c.02.53-.03,1.09,0,1.63"/>
        <path class="cls-11" d="M33.09,44.22c.42.58,1.51,1.4.7,2.08-.61.17-1.28-1.34-1.48-1.82.4-.21-.12-.29.78-.26"/>
        <path class="cls-11" d="M30.35,55.89c.56.41.97,1.19.73,1.89-.16.24-.62.1-.83-.04-.16-.56-1.33-1.5-1.34-1.99-.01-.67,1.13-.08,1.44.14"/>
        <path class="cls-11" d="M30.41,88.41c.41.57.51,1.52-.38,1.43-.71-.08-.58-.74-1.02-.95-.58-.26-2.05-.07-2.05-.94l1.12-1.89c-.28.16-.58.14-.9.27-.45.2-.95,1.01-1.45.51s.37-2.31.33-3c-.74.15-1.28,1.59-1.89,1.7-.96.17-.82-.34-1.13-.96-.08-.16-.46-1-.57-1-.47.43-.38,1.9-1.16,1.84l-.28-.13c-.63-.54.01-2.07.37-2.67.25-.42.51-.87,1.08-.87.8.08,1.39,2.48,1.57,2.48,1.5-2.07,3.68-2.06,2.94,1.04.71-.18,1.96-.54,2.46.21.6.91-.65,1.24-.9,2,.65.14,1.48.38,1.89.92"/>
        <path class="cls-11" d="M28.52,58.62c1.17-.15,1.73,1.29,1.55,2.27-.43.26-.7-.02-.96-.39-.21-.28-.97-1.63-.6-1.88"/>
        <path class="cls-11" d="M26.92,50.58c.7.39,1.62,1.08,1.2,1.97-.66.17-.88-.28-1.29-.57-.33-.23-1.59-.95-1.66-1.21-.05-.16-.04-.38-.01-.54.59-.32,1.24.04,1.77.35"/>
        <path class="cls-11" d="M27.85,49.78c.01.11-.07.38-.19.45-.75.12-.95-.43-1.43-.77-.5-.34-.87-.3-1.36-.47-1.08-.37.11-1.04.01-1.76-.54,0-1.09,0-1.63,0-.21,0-.43-.14-.59-.13-.05-.37.07-.72.46-.78.62.08,2.39-.4,2.8.13.36.46-.1,1.17-.39,1.55.7.1,2.24,1.08,2.32,1.78"/>
        <path class="cls-11" d="M26.14,53.39c.22.22.38.61.28.91-.24.81-2.43-.66-2.18-1.52.15-.33.46-.42.81-.33.28.33.82.65,1.09.94"/>
        <path class="cls-11" d="M25.64,43.87c-.44,1.1-1.06.1-1.68-.11-.3-.1-1.24-.15-1.37-.33l.46-1.7c-.3-.02-.59,0-.89.1-.43.13-.6.61-1.07.37-.3-.28-.01-.64-.01-.93,0-.13-.1-.27-.11-.4-.01-.18.12-.32.05-.43-.8.46-1.57,1.14-1.76,2.08-.77.13-.98-.77-1.49-1.16-.17,0-.93,2.33-1.63.84.04-.68.9-2.36,1.64-2.42.71.05.82.82.96,1.39.03.16-.07.22.21.17.42-.6,1.65-1.9,2.45-1.67l.33.34.02,1.08c1.69-.67,3.07-.17,1.57,1.57.95-.11,2.13.18,2.33,1.22"/>
        <path class="cls-12" d="M16.93-.36c-.03,2.06.03,4.13,0,6.19-.04,3.42-.16,6.9-.26,10.29-.05,1.61-.1,3.21-.12,4.83,1.59-7.13,3.43-14.18,3.98-21.31,0,0-3.6,0-3.6,0Z"/>
        <path class="cls-14" d="M21.51,27.45c-.3-.54-.12-1.9-.14-2.6-.21-4.5-.52-9.05-.39-13.55.08-2.83-.28-5.67-.4-8.47-.04-1.05.04-2.13,0-3.19h-.04c-.55,7.13-2.39,14.18-3.98,21.31,0,.65-.03,1.31-.02,1.96.02.9.26,1.92.15,2.87-.04.32-.24.43-.27.65-.08.4.16,1.07.46,1.36.64-.39,1.33-.68,2.08-.78.59.04.67.66.95.76.51.18,1.36.16,1.92.41.26-.3-.18-.51-.3-.73"/>
        <path class="cls-11" d="M17.78,84.24c.62.49,1.35,1.36.65,2.09-.45-.15-.52-.61-.93-.89-.23-.16-1.45-.71-1.61-.54-.15.15.57,1.2.13,1.63-.47.47-1.89-.23-2.48.12-.29.18.07.47.11.68.09.37.08,1.04-.17,1.34l-2.11,1.41c-.42.13-.62-.25-.89-.5l-.04-.17c.11-.74,1.89-1.43,2.59-1.26-.01-.87-1.15-.96-1.02-1.86.62-.87,1.73-.94,2.72-.87l-.53-1.37c-.01-.32.24-.54.49-.7.79-.23,2.46.39,3.11.89"/>
        <path class="cls-11" d="M17.77,55.3c.35.5.9,2.11.43,2.58-.07.05-.32.15-.4.14-.6-.12-.91-1.86-1.24-2.43-.12-.22-.38-.54-.54-.75-.33-.41-.9-.63-.78-1.24.4-.4,2.26,1.3,2.53,1.7"/>
        <path class="cls-11" d="M18.08,50.17c.34.76.76,1.91-.05,2.52-.48.1-.92-1.86-1.12-2.26-.2-.42-.49-.78-.76-1.13-.21-.26-.42-.49-.64-.73.12-.84,1.34-.11,1.68.21.23.22.75,1.08.89,1.39"/>
        <path class="cls-4" d="M15.76-.36l-.25,12.19c-1.14.03-2.02.77-2.95,1.37-1.36-.22-2.73-.29-4.1-.14.16-.67-.24-.83-.86-.9-.92-.13-1.87.24-2.79.25l.37-.96c-.28-.74-.61-.58-1.2-.33-.66.28-1.28.67-1.9,1.02v-2.02l-.46-.2c-.61.07-2.15,1.97-2.61,2.48-.45-.58-.38-1.73-1.37-1.69V-.36H15.76Z"/>
        <path class="cls-13" d="M15.64,15.09c.01-.41.04-2.22-.14-2.41-1.22.32-2.24,1.1-3.33,1.7-1.36-.51-3.26-.01-4.53-.28-.93-.21-.42-.98-.48-1.02-1.09-.03-2.19.16-3.17.64-.76-.43,0-1.07.05-1.68-.88.26-1.67.77-2.29,1.42l-.45-.32v-2.15c-.91.65-1.48,1.64-2.18,2.47-.52.15-.76-.97-1.08-1.23-.27-.22-.27.09-.4.2v12.59h.64c0-1.24.17-2.63.53-3.01.49-.52.53-.78.93-1.4.57-.86,1.7-1.87,2.62-2.33,1-.49,1.55-.34,2.57-.04,1.93.55,6.29,2.17,7.15,4.06.15.34.25.74.34,1.14h2.97c-.04-2.78.14-5.54.23-8.32"/>
        <path class="cls-7" d="M15.4,23.41h-2.97c.16.76.26,1.57.49,2.21.1.26.57.66.62,1.08l.18.04c.6-.38,1.23-.42,1.91-.38-.01-.2-.12-.37-.13-.58-.06-.79-.08-1.58-.09-2.37"/>
        <path class="cls-11" d="M14.58,50.21c.23.42.61,1.44.14,1.77-.6.24-.72-.55-.95-.9-.08-.13-.22-.18-.24-.22-.2-.29-.33-.71-.6-1.03-.27-.33-.6-.46-.78-.78l.22-1.7c-.57-.15-1.61.25-2.01-.02-.52-.35-.28-1.13-.35-1.66-.48-.24-2.35-.33-2.46-.87-.07-.29.6-.57.84-.57.22,0,.92.09,1.16.13,1.04.17,1.91.59,1.77,1.82.74-.08,1.42.12,2.08.46.62.66.02,1.35-.11,2.06.39.49.99.97,1.28,1.52"/>
        <path class="cls-5" d="M7.37,20.29c-1.37-.55-2.79-.97-4.2-1.35-1.49.6-2.6,1.97-3.54,3.21l-.03.68c3.08,1.69,6.05-.19,7.77-2.53"/>
        <path class="cls-10" d="M11.4,23.22c-.28-.93-.67-1.16-1.46-1.66-.81-.51-1.68-.91-2.57-1.27-1.72,2.34-4.69,4.22-7.77,2.53l-.14,3.4c.07.09,1.15-.9,1.5-.9.58,0,.5.5.69.87.07.13-.03.22.22.16.53-.31,1.98-1.81,2.48-1.82.82,0,.42,1.08.8,1.15.78-.21,1.51.51,2.2.79.52.09.6-.2.91-.26.7-.12,1.47.34,1.96.78.33-.64,1-.99,1.61-1.33.12-.18-.33-2.1-.43-2.46"/>
        <path class="cls-11" d="M10.37,60.52c.78-.2,1.41,1.78,1.34,2.39-.1.87-.83.75-1.17,0-.22-.47-.88-2.22-.16-2.4"/>
        <path class="cls-11" d="M8.72,80.71c.51-.36,2.35.23,2.33.83l-.14.33c-.76.36-1.32-.28-2.23-.08-.33.08-.72.46-1.1.08-.31-.3.49-1.65.23-2.19-.59-.03-1,.52-1.37.9-.18.18-.17.47-.54.49-.73.05-.7-1.26-.83-1.78-.86.46-.83,2.06-2.09,1.63-.2-.06-.92-.72-1.03-.59l.14,1.09-.44.2c-.74-.66-1.93-2.73-.31-2.96.7.21,1.32.66,1.85,1.14h.18c.26-.73,1.39-2.06,2.23-1.62l.51,1.24c.75-.45,1.57-1.01,2.48-.73.5.59.17,1.35.13,2.02"/>
        <path class="cls-13" d="M9.35,53.89l-.11,1.28-3.52-1.57c.77.05,1.45-.32,2.22-.26.57.03.94.28,1.41.54"/>
        <path class="cls-3" d="M8.2,51.65c.13.12-.49.73-.52.98-.04.33.09.49.26.72-.77-.05-1.45.32-2.22.26-.79-.15-1.51-.33-2.34-.26.24-1.26,2.55-1.6,3.64-1.7.09,0,.17,0,.26,0,.3,0,.61,0,.91,0"/>
        <path class="cls-13" d="M8.11,51.54l.09.11c-.3,0-.61,0-.91,0l.09-.11c.24-.04.5-.04.74,0"/>
        <path class="cls-11" d="M6.18,59.21c1.32.39,2.36,1.74,1.89,3.13-.23.05-.26-.09-.39-.2-.5-.42-1.48-1.9-1.64-2.54-.03-.16.01-.29.14-.4"/>
        <path class="cls-11" d="M4.69,65.67c.02.25-.02.52-.26.64-.66.34-.97-.59-1.25-.97-.32-.42-2.14-2.59-1.75-3,.11-.12,1.07.52,1.24.65.55.45,1.93,2,2.02,2.68"/>
        <path class="cls-11" d="M-.8,63.2c.87.5,1.77,1.45,1.58,2.52-1.5.16-2.12-1.46-3.13-2.21v-.26c.6-.6.9-.45,1.56-.05"/>
      </g>
    </g>
  </g>
</svg>