<?xml version="1.0" encoding="UTF-8"?>
<svg id="Layer_2" data-name="Layer 2" xmlns="http://www.w3.org/2000/svg" viewBox="0 0 330 530">
  <defs>
    <style>
      .cls-1 {
        stroke-dasharray: 19.67 4.92;
      }

      .cls-1, .cls-2, .cls-3, .cls-4, .cls-5, .cls-6, .cls-7, .cls-8, .cls-9, .cls-10, .cls-11, .cls-12, .cls-13, .cls-14, .cls-15, .cls-16, .cls-17, .cls-18, .cls-19, .cls-20, .cls-21, .cls-22 {
        stroke-miterlimit: 10;
      }

      .cls-1, .cls-2, .cls-3, .cls-4, .cls-5, .cls-6, .cls-7, .cls-9, .cls-10, .cls-11, .cls-12, .cls-13, .cls-14, .cls-15, .cls-16, .cls-17, .cls-18, .cls-23, .cls-19, .cls-20, .cls-21, .cls-22 {
        fill: none;
      }

      .cls-1, .cls-2, .cls-3, .cls-4, .cls-5, .cls-6, .cls-9, .cls-10, .cls-11, .cls-12, .cls-14, .cls-15, .cls-17, .cls-18, .cls-19, .cls-20, .cls-21, .cls-22 {
        stroke: #000;
      }

      .cls-1, .cls-4, .cls-9, .cls-11, .cls-18, .cls-21, .cls-22 {
        stroke-width: 2px;
      }

      .cls-2 {
        stroke-dasharray: 0 2.95;
      }

      .cls-2, .cls-3, .cls-5, .cls-12, .cls-13, .cls-14, .cls-15, .cls-20 {
        stroke-linecap: round;
      }

      .cls-2, .cls-3, .cls-5, .cls-12, .cls-14, .cls-15, .cls-20 {
        stroke-width: 1.47px;
      }

      .cls-3 {
        stroke-dasharray: 0 2.95;
      }

      .cls-4 {
        stroke-dasharray: 20.09 5.02;
      }

      .cls-24 {
        fill: #fab061;
        opacity: .75;
      }

      .cls-25 {
        fill: #fff;
      }

      .cls-5 {
        stroke-dasharray: 0 2.93;
      }

      .cls-6 {
        stroke-dasharray: 18.76 4.69;
      }

      .cls-6, .cls-10, .cls-17, .cls-23, .cls-19 {
        stroke-width: 3px;
      }

      .cls-7 {
        stroke: #af428f;
        stroke-width: 4px;
      }

      .cls-8 {
        stroke: #bef4b6;
      }

      .cls-8, .cls-26 {
        fill: #bef4b6;
      }

      .cls-9, .cls-17 {
        stroke-dasharray: 20 5;
      }

      .cls-10 {
        stroke-dasharray: 19.01 4.75;
      }

      .cls-27 {
        fill: #af428f;
        font-family: ArialMT, Arial;
        font-size: 50px;
      }

      .cls-12 {
        stroke-dasharray: 0 2.94;
      }

      .cls-13 {
        stroke: #f0f;
        stroke-width: 5px;
      }

      .cls-15 {
        stroke-dasharray: 0 2.92;
      }

      .cls-16 {
        stroke: #c1602f;
        stroke-width: 1.5px;
      }

      .cls-18 {
        stroke-dasharray: 19.6 4.9;
      }

      .cls-28 {
        fill: #f0f;
      }

      .cls-23 {
        stroke: #2ca846;
        stroke-linejoin: bevel;
      }

      .cls-20 {
        stroke-dasharray: 0 3.18;
      }

      .cls-21 {
        stroke-dasharray: 20.33 5.08;
      }

      .cls-22 {
        stroke-dasharray: 21.42 5.36;
      }
    </style>
  </defs>
  <rect class="cls-25" width="330" height="530"/>
  <rect class="cls-25" x="-100" width="530" height="530"/>
  <polygon class="cls-24" points="319.94 457.37 443.75 389.14 301.12 315.51 319.94 457.37"/>
  <g>
    <polygon class="cls-24" points="24.06 163.79 42.81 162.2 59.25 333.82 49.89 335.7 39.77 333.7 24.06 163.79"/>
    <path class="cls-8" d="M185.69-13.34c-.98,13.44,19.05,28.78,25.49,46.05s1.9,37.04,11.88,50.33c9.97,13.29,24.98,21.76,30.16,55.26,5.18,33.51,19.33,66.46,19.33,66.46l13.33-2.87,15.24,113.62,61.65,31.28-30.45-232.77s-21.58.2-32.4-20.02c-10.82-20.21-29.25-81.16-26.58-100.09,2.67-18.93-87.65-7.24-87.65-7.24Z"/>
    <ellipse class="cls-26" cx="242.64" cy="191.79" rx="7.8" ry="18.54" transform="translate(-19.59 27.8) rotate(-6.3)"/>
    <path class="cls-26" d="M61.87,449.38l-203.45,22.51,30.35-98.4s31.46,46.48,55.74,29.76c16.29-11.22,12.86-24.01,24.08-46.78s28.01-31.1,28.01-31.1l53.11,11.31,12.18,112.7Z"/>
  </g>
  <g>
    <path class="cls-13" d="M131.3,449.53c-20.72-12.12-73.69-44.68-77.48-74.74-.55-4.33-.15-26.84-1.36-35.78-1.48-10.9-5.55-31.06-6.77-40.28-3.62-27.35-3.62-40.38-5.18-65.54-1.81-29.13-11.65-55.48-.59-68.71,10.74-12.83,30.66-.8,42.25-3.5,6.38-1.49,15.2-12.64,21.84-22.38"/>
    <polygon class="cls-28" points="113.39 123.66 108.62 150.1 103.21 139.67 91.47 139.2 113.39 123.66"/>
  </g>
  <g>
    <path class="cls-13" d="M131.3,449.53c-2.95-14.48,8.31-39.39,12.17-53.25,6.08-21.84,4.48-44.5,2.7-61.39s-7.11-43.27-4.47-66.87c2.55-22.84,6.97-32.94,13.87-50.7,10.53-27.08,1.88-51.62-4.44-67.12-3.19-7.83-7.85-17.82-11.83-26.09"/>
    <polygon class="cls-28" points="131.51 108.27 151.57 126.15 139.85 125.31 133.31 135.08 131.51 108.27"/>
  </g>
  <g>
    <path class="cls-13" d="M131.3,449.53c19.04-4.54,34.29-6.53,57.64-29.37,23.35-22.84,33.73-59.94,48.18-72.55,14.45-12.61,26.48-22.4,31.12-35.05,4.64-12.65,7.51-43.13,9.87-62s14.3-64.25,6.13-90.61c-4.13-13.32-13.73-27.11-29.23-25.95-15.51,1.15-18.69,12.74-40.74,13.12-4.89.08-17-4.36-27.69-9.1"/>
    <polygon class="cls-28" points="170.79 130.13 197.61 131.89 187.85 138.44 188.7 150.16 170.79 130.13"/>
  </g>
  <g>
    <path class="cls-11" d="M22.51,60.9c3.4-.34,6.7-.8,9.91-1.36"/>
    <path class="cls-4" d="M37.35,58.61c30.39-6.34,52.84-20.78,77.13-22.32,28.08-1.78,60.95,23.08,86.71,21.92,16.65-.75,39.06-1.85,52.83-2.54"/>
    <path class="cls-11" d="M256.53,55.55c6.11-.31,9.99-.5,9.99-.5"/>
  </g>
  <g>
    <line class="cls-11" x1="15.91" y1="-8.15" x2="16.85" y2="1.8"/>
    <line class="cls-18" x1="17.31" y1="6.68" x2="30.94" y2="150.61"/>
    <line class="cls-11" x1="31.17" y1="153.05" x2="32.11" y2="163"/>
  </g>
  <g>
    <line class="cls-14" x1="23.94" y1="166.45" x2="23.94" y2="166.45"/>
    <line class="cls-2" x1="24.22" y1="169.38" x2="39.63" y2="332.24"/>
    <line class="cls-14" x1="39.77" y1="333.7" x2="39.77" y2="333.7"/>
  </g>
  <g>
    <line class="cls-14" x1="61.87" y1="449.38" x2="61.87" y2="449.38"/>
    <line class="cls-15" x1="58.97" y1="449.7" x2="-142.92" y2="472.03"/>
  </g>
  <g>
    <line class="cls-14" x1="42.7" y1="164.61" x2="42.7" y2="164.61"/>
    <line class="cls-5" x1="42.99" y1="167.53" x2="59.1" y2="332.37"/>
    <line class="cls-14" x1="59.25" y1="333.82" x2="59.25" y2="333.82"/>
    <line class="cls-20" x1="56.13" y1="334.45" x2="51.45" y2="335.39"/>
    <line class="cls-14" x1="49.89" y1="335.7" x2="49.89" y2="335.7"/>
  </g>
  <g>
    <line class="cls-11" x1="259.29" y1=".17" x2="260.61" y2="10.09"/>
    <line class="cls-1" x1="261.26" y1="14.96" x2="328.81" y2="524.25"/>
    <line class="cls-11" x1="329.13" y1="526.69" x2="330.45" y2="536.6"/>
  </g>
  <line class="cls-17" x1="49.89" y1="335.7" x2="74.4" y2="550.69"/>
  <line class="cls-9" x1="49.89" y1="335.7" x2="-126.65" y2="300.91"/>
  <g>
    <path class="cls-11" d="M286.28,203.34c.48,3.08.77,6.42.86,9.96"/>
    <path class="cls-22" d="M287.15,218.65c-.78,35.16-17.57,87.1-39.84,123.74"/>
    <path class="cls-11" d="M245.9,344.67c-1.81,2.89-3.65,5.68-5.52,8.34"/>
  </g>
  <g>
    <path class="cls-19" d="M52.87,371.02c3.24-.31,6.57-.63,9.95-.96"/>
    <path class="cls-10" d="M67.55,369.59c34.02-3.36,72.79-7.3,96.31-5.47,26.99,2.11,45.69,4.77,57.87-.67,9.16-4.09,49.52-29.19,68.91-41.35"/>
    <path class="cls-19" d="M292.66,320.84c5.21-3.27,8.46-5.33,8.46-5.33l8.89,4.59"/>
    <line class="cls-6" x1="314.17" y1="322.25" x2="437.13" y2="385.72"/>
  </g>
  <g>
    <path class="cls-11" d="M67.88,493.46c3,.76,6.31,1.34,9.83,1.8"/>
    <path class="cls-21" d="M82.76,495.82c19.11,1.86,42.93,1.35,59.23,7.19,20.94,7.5,58.87,7.77,85.05.6,22.38-6.14,164.92-85.47,205.78-108.35"/>
  </g>
  <polyline class="cls-17" points="-113.28 178.64 277.39 136.61 448.1 144.13"/>
  <circle class="cls-23" cx="178.2" cy="245.25" r="3.7"/>
  <circle class="cls-23" cx="195.18" cy="261.29" r="3.7"/>
  <g>
    <path class="cls-16" d="M113.93,52.38c-14.49-2.87-2.06,25.92,1.86,41.09,3.92,15.17-9.73,33.24-8.13,45.55s6.15,30.57-.1,42.23c-6.25,11.66-10,30.47-7.29,43.75,2.71,13.28,10.62,35.35,15.91,40.18s10.12-.47,10.32-5.05c.2-4.58,5.04-30.99,13.34-38.89,8.3-7.9,16.1-32.04,11.62-48.45-4.48-16.42-12.61-17.41-8.73-27.62,8.74-22.99-3.03-87.66-28.81-92.77Z"/>
    <path class="cls-16" d="M126.45,82.46c-5.24-1.5-5.72,10.08-2.61,17.56s-2.86,28.56-6.11,34.62-1.42,11.41,3.86,11.42,17.55-2.44,18.39-11.13-2.19-49.21-13.53-52.47Z"/>
    <path class="cls-16" d="M121.72,163.96c-.01,7.58.34,18.38-5,25.03s-6.25,22.22-4.14,31.49,9.38-1.65,12.98-9.3c3.6-7.65,8.44-18.68,6.31-27.49-2.14-8.82,4.48-6.46,6.57-13.02,2.1-6.56,1.2-12.34-1.97-13.17-3.18-.83-14.73-.87-14.74,6.47Z"/>
    <path class="cls-16" d="M-131.16,413.86c57.1,29.33,137.16,24.3,160.97,13.22,25.23-11.74,28.49-41.39,41.45-51.88,16.66-13.5,6.81-30,22.95-43.52,16.14-13.52,19.09-34.33,14.3-54.3-8.12-33.85-27.13-34.55-32.34-69.06-5.41-35.82,28.74-58.41,19.52-109.77-9.22-51.36-15.37-55.71-21.35-63.62-11.65-15.43-6.29-20.31-17.37-33.04C48.44-7.89,19.29-22.32,8.67-20.96"/>
    <path class="cls-16" d="M164.38,321.35c-7.23,3.04-9.1,13.83-5.42,18.81s8.82,2.91,16.14-1.58c7.31-4.5,14.6-13.59,13.62-17.53-.97-3.94-9.26-3.39-12.43.83s-7.47-2.39-11.91-.52Z"/>
    <path class="cls-16" d="M77.58-11.65c26.6,7.6,29.72,27.63,44.81,39s34.81,71,31.23,103.59c-3.58,32.59,16.2,57.63,35.94,40.14,19.74-17.49,13.69-57.54,35.06-56.29s9.53,48.73,17.65,80.99c8.07,32.1,31.57,83.44,49.4,80.48,55.25-9.18,64.88-80.76,161.88-55.99"/>
    <path class="cls-16" d="M448.1,168.95c-76.41.38-42.7-106.67-150.02-98.88-14.11,1.02-57.69,8.25-70.2-20.38-14.16-32.41,31.42-37.1,53.97-30.01,23.97,7.54,82.96,6.8,88.47-50.5"/>
    <ellipse class="cls-16" cx="190.7" cy="35.72" rx="5.97" ry="9.94" transform="translate(5.04 92.03) rotate(-27.48)"/>
    <ellipse class="cls-16" cx="41.99" cy="39.13" rx="8.06" ry="5.97" transform="translate(-4.04 4.85) rotate(-6.3)"/>
    <path class="cls-16" d="M133.98,514.61c-13.31-7.4-22.97-40.7-16.5-54.75,7.18-15.6,22.07-23.2,17.73-1.06s16.06,38.35,13.4,50.17c-1.79,7.93-8.06,9.3-14.63,5.64Z"/>
    <path class="cls-16" d="M-113.28,527.07c97.18-67.59,132.53-12.43,181.15-7.26,21.55,2.29,48.01-11.36,42.86-40.36s19.63-49.63,29.12-49.82c9.5-.19,1.78,14.46,9.56,25.82,7.78,11.36,23.68,25.52,11.93,35.11-11.74,9.58,6.04,51.01-15.7,64.72"/>
    <path class="cls-16" d="M290.5,446.39c-.25,5.59-7.63,9.81-16.48,9.42s-11.87-5.07-11.62-10.66c.25-5.59,3.65-9.99,12.51-9.6s15.84,5.24,15.59,10.84Z"/>
    <path class="cls-16" d="M25.63,317.75c-4.39,1.73-11.16-5-15.13-15.05s3.21-21.68,7.6-23.42,3.35,10.16,7.32,20.2c3.97,10.04,4.6,16.52.21,18.26Z"/>
    <path class="cls-16" d="M287.34,540.94c-3.97,2.54-11.91-2.78-17.72-11.88-5.81-9.1-.98-21.9,2.99-24.43s5.23,9.34,11.04,18.44c5.81,9.1,7.66,15.34,3.69,17.88Z"/>
    <path class="cls-16" d="M-135.86,72.96c49.53,45.11,46.61,122.11,98.98,117.54,37.83-3.3,49.34,23.63,19.68,41-11.39,6.67-37.38,32.1-57.32,23.62-68.69-29.21-92.52,106.73-92.52,106.73"/>
  </g>
  <g>
    <circle class="cls-7" cx="131.51" cy="108.27" r="35.67"/>
    <circle class="cls-7" cx="131.3" cy="449.53" r="35.67"/>
    <line class="cls-7" x1="131.49" y1="143.48" x2="131.32" y2="413.83"/>
    <line class="cls-7" x1="156.94" y1="474.32" x2="253.55" y2="565.31"/>
    <line class="cls-7" x1="150.89" y1="78.32" x2="228.55" y2="-41.73"/>
  </g>
  <g>
    <line class="cls-14" x1="56.97" y1="53.23" x2="56.97" y2="53.23"/>
    <line class="cls-12" x1="57.25" y1="56.15" x2="67.11" y2="156.94"/>
    <line class="cls-14" x1="67.25" y1="158.4" x2="67.25" y2="158.4"/>
  </g>
  <g>
    <line class="cls-14" x1="22.51" y1="60.9" x2="22.51" y2="60.9"/>
    <line class="cls-3" x1="19.56" y1="60.94" x2="-102.9" y2="62.26"/>
  </g>
  <text class="cls-27" transform="translate(176.86 480.58)"><tspan x="0" y="0">1</tspan></text>
  <text class="cls-27" transform="translate(176.86 108.76)"><tspan x="0" y="0">2</tspan></text>
</svg>