<?xml version="1.0" encoding="UTF-8"?>
<svg id="Layer_1" data-name="Layer 1" xmlns="http://www.w3.org/2000/svg" xmlns:xlink="http://www.w3.org/1999/xlink" viewBox="0 0 90 90">
  <defs>
    <style>
      .cls-1 {
        fill: #fff;
      }

      .cls-2 {
        fill: none;
      }

      .cls-3 {
        fill: #231f20;
      }

      .cls-4 {
        clip-path: url(#clippath);
      }

      .cls-5 {
        fill: #00adee;
        fill-rule: evenodd;
      }
    </style>
    <clipPath id="clippath">
      <rect class="cls-2" x="21.9" y="11.17" width="46.2" height="67.67"/>
    </clipPath>
  </defs>
  <rect class="cls-2" width="90" height="90"/>
  <g>
    <rect class="cls-1" y="0" width="90" height="90"/>
    <g class="cls-4">
      <path class="cls-5" d="M39.98,73.1c-1.29-9.55-8.7-11.7-15.46-18.46-2.9-2.9-2.68-8.48,1.07-10.09,6.87-2.9,13.1-5.48,13.53-12.88.43-8.27-3.33-19.11,4.94-19.75,12.88-1.07,21.58,6.66,22.97,20.61,1.93,18.47-2.79,34.57-15.24,43.8-3.65,2.68-11.06,3.11-11.81-3.22"/>
      <path class="cls-3" d="M46,78.84c-1.08,0-2.14-.19-3.12-.61-1.41-.61-3.16-1.98-3.53-5.04-.87-6.46-4.55-9.32-9.21-12.93-1.98-1.54-4.03-3.13-6.06-5.16-1.71-1.71-2.51-4.39-2.04-6.82.39-2.01,1.59-3.58,3.31-4.32,6.9-2.91,12.73-5.37,13.14-12.33.11-2.12-.06-4.45-.23-6.71-.48-6.45-.98-13.12,5.76-13.65,13.19-1.12,22.25,7.02,23.66,21.19,2.06,19.68-3.44,35.45-15.5,44.38-1.57,1.15-3.89,1.99-6.18,1.99M40.62,73.02c.24,1.98,1.16,3.33,2.76,4.02,2.58,1.12,6.07.2,8.02-1.24,11.68-8.66,17-24,14.99-43.22-1.36-13.6-9.66-21.08-22.28-20.04-5.1.4-5.13,4.9-4.58,12.27.17,2.3.35,4.67.23,6.87-.45,7.76-6.93,10.49-13.79,13.38-1.47.63-2.38,1.83-2.68,3.43-.39,2.03.27,4.26,1.68,5.67h0c1.97,1.98,3.99,3.54,5.95,5.06,3.02,2.34,5.77,4.48,7.61,7.56,0,0,0,0,0,.01,0,0,0,0,0,.01,0,0,0,0,0,0,0,0,0,0,0,.01,0,0,0,.01,0,.02h0c.87,1.48,1.53,3.17,1.9,5.2,0,0,0,.01,0,.02,0,.01,0,.03,0,.04h0s0,.03,0,.04h0s0,.01,0,.01c0,0,0,.01,0,.02,0,0,0,.02,0,.03h0s0,.02,0,.02h0s0,.04,0,.06h0s0,.02,0,.03c.03.19.06.38.09.58,0,.01,0,.02,0,.03,0,.02,0,.04,0,.06,0,.01,0,.02,0,.03"/>
    </g>
  </g>
</svg>