<?xml version="1.0" encoding="UTF-8"?>
<svg id="Layer_1" data-name="Layer 1" xmlns="http://www.w3.org/2000/svg" xmlns:xlink="http://www.w3.org/1999/xlink" viewBox="0 0 90 90">
  <defs>
    <style>
      .cls-1 {
        stroke-width: 6.62px;
      }

      .cls-1, .cls-2, .cls-3 {
        fill: none;
      }

      .cls-1, .cls-3 {
        stroke: #2ca846;
        stroke-linejoin: bevel;
      }

      .cls-4, .cls-5 {
        fill: #fff;
      }

      .cls-5 {
        fill-rule: evenodd;
      }

      .cls-3 {
        stroke-width: 5.52px;
      }

      .cls-6 {
        clip-path: url(#clippath);
      }
    </style>
    <clipPath id="clippath">
      <rect class="cls-2" width="90" height="90"/>
    </clipPath>
  </defs>
  <rect class="cls-4" width="90" height="90"/>
  <g>
    <path class="cls-5" d="M31.9,54.94c0-1.22-.99-2.21-2.21-2.21s-2.21.99-2.21,2.21.99,2.21,2.21,2.21,2.21-.99,2.21-2.21"/>
    <path class="cls-1" d="M31.17,60.46c0-3.05-2.47-5.52-5.52-5.52s-5.52,2.47-5.52,5.52,2.47,5.52,5.52,5.52,5.52-2.47,5.52-5.52Z"/>
  </g>
  <g class="cls-6">
    <path class="cls-3" d="M70.47,28.99c0-4.51-3.66-8.17-8.17-8.17s-8.17,3.66-8.17,8.17,3.66,8.17,8.17,8.17,8.17-3.66,8.17-8.17Z"/>
  </g>
</svg>