<?xml version="1.0" encoding="UTF-8"?>
<svg id="Layer_1" data-name="Layer 1" xmlns="http://www.w3.org/2000/svg" xmlns:xlink="http://www.w3.org/1999/xlink" viewBox="0 0 90 90">
  <defs>
    <style>
      .cls-1 {
        fill: #fff;
      }

      .cls-2 {
        fill: #231f20;
        fill-rule: evenodd;
      }

      .cls-3 {
        fill: none;
      }

      .cls-4 {
        clip-path: url(#clippath);
      }
    </style>
    <clipPath id="clippath">
      <rect class="cls-3" width="90" height="90"/>
    </clipPath>
  </defs>
  <rect class="cls-1" y="0" width="90" height="90"/>
  <g class="cls-4">
    <path class="cls-2" d="M37.47,69.31c0-.85-.69-1.53-1.53-1.53s-1.53.69-1.53,1.53.69,1.53,1.53,1.53,1.53-.69,1.53-1.53"/>
    <path class="cls-2" d="M34.23,74.5c0-.85-.69-1.53-1.53-1.53s-1.53.69-1.53,1.53.69,1.53,1.53,1.53,1.53-.69,1.53-1.53"/>
    <path class="cls-2" d="M36.17,62.83c0-.85-.69-1.53-1.53-1.53s-1.53.69-1.53,1.53.69,1.53,1.53,1.53,1.53-.69,1.53-1.53"/>
    <path class="cls-2" d="M34.23,52.45c0-.85-.69-1.53-1.53-1.53s-1.53.69-1.53,1.53.69,1.53,1.53,1.53,1.53-.69,1.53-1.53"/>
    <polygon class="cls-2" points="50.01 61.47 59.35 61.78 59.97 54.12 50.01 61.47"/>
    <polygon class="cls-2" points="56.75 45.53 47.86 42.78 45.1 49.98 56.75 45.53"/>
    <polyline class="cls-2" points="55.83 36.65 60.27 28.52 53.68 24.54 55.83 36.65"/>
    <polygon class="cls-2" points="72.07 42.16 64.56 47.53 68.7 54.12 72.07 42.16"/>
    <polygon class="cls-2" points="65.18 36.49 73.76 33.12 71.46 25.76 65.18 36.49"/>
    <path class="cls-2" d="M43.31,56.34c0-.85-.69-1.53-1.53-1.53s-1.53.69-1.53,1.53.69,1.53,1.53,1.53,1.53-.69,1.53-1.53"/>
    <path class="cls-2" d="M43.31,65.42c0-.85-.69-1.53-1.53-1.53s-1.53.69-1.53,1.53.69,1.53,1.53,1.53,1.53-.69,1.53-1.53"/>
    <path class="cls-2" d="M37.47,44.66c0-.85-.69-1.53-1.53-1.53s-1.53.69-1.53,1.53.69,1.53,1.53,1.53,1.53-.69,1.53-1.53"/>
    <polygon class="cls-2" points="40.35 37.1 45.1 29.14 38.82 24.69 40.35 37.1"/>
    <polygon class="cls-2" points="70.08 21.93 65.49 13.96 58.59 17.49 70.08 21.93"/>
    <path class="cls-2" d="M27.09,66.72c0-.85-.69-1.53-1.53-1.53s-1.53.69-1.53,1.53.69,1.53,1.53,1.53,1.53-.69,1.53-1.53"/>
    <path class="cls-2" d="M25.79,55.04c0-.85-.69-1.53-1.53-1.53s-1.53.69-1.53,1.53.69,1.53,1.53,1.53,1.53-.69,1.53-1.53"/>
    <path class="cls-2" d="M19.3,62.18c0-.85-.69-1.53-1.53-1.53s-1.53.69-1.53,1.53.69,1.53,1.53,1.53,1.53-.69,1.53-1.53"/>
    <path class="cls-2" d="M23.2,73.86c0-.85-.69-1.53-1.53-1.53s-1.53.69-1.53,1.53.69,1.53,1.53,1.53,1.53-.69,1.53-1.53"/>
  </g>
</svg>