<?xml version="1.0" encoding="UTF-8"?>
<svg id="Layer_1" data-name="Layer 1" xmlns="http://www.w3.org/2000/svg" xmlns:xlink="http://www.w3.org/1999/xlink" viewBox="0 0 90 90">
  <defs>
    <style>
      .cls-1 {
        fill: #fff;
      }

      .cls-2 {
        fill: none;
      }

      .cls-3 {
        fill: #231f20;
      }

      .cls-4 {
        clip-path: url(#clippath);
      }
    </style>
    <clipPath id="clippath">
      <rect class="cls-2" x="39.53" y="11.08" width="10.94" height="68.18"/>
    </clipPath>
  </defs>
  <rect class="cls-1" width="90" height="90"/>
  <g class="cls-4">
    <path class="cls-3" d="M48.04,79.26h-2.09c0-3.07.35-5.65.7-8.04l.7-3.86,2.05.38-.7,3.83c-.34,2.27-.68,4.77-.68,7.69M49.88,64.95l-2.06-.36c.4-2.24.57-3.96.57-5.73-.13-2.06-.4-3.77-.89-5.65l2.02-.53c.53,1.99.82,3.88.96,6.12,0,1.97-.18,3.79-.59,6.16M46.73,50.56c-.62-1.48-1.14-2.6-1.86-3.63-.59-.89-1.22-1.72-1.84-2.53-.36-.47-.71-.94-1.05-1.4-.52-.62-1.01-1.41-1.6-2.58l1.87-.93c.51,1.02.92,1.69,1.38,2.23.37.51.72.96,1.07,1.42.64.84,1.29,1.7,1.9,2.61.9,1.29,1.54,2.74,2.07,4l-1.93.8ZM39.58,37.39c-.15-1.46.06-2.8.66-4.22.45-1.28.86-2.56,1.27-3.78l.56-1.71c.02-.21.11-.6.21-1,.08-.36.16-.71.22-1.04l2.06.34c-.06.37-.15.77-.24,1.17-.08.35-.16.71-.22,1.03l-.6,1.86c-.41,1.24-.83,2.53-1.3,3.88-.48,1.16-.64,2.15-.53,3.26l-2.08.21ZM45.23,23.14l-2.04-.46c.46-2.04.68-3.82.91-5.7.35-1.9.58-3.87.81-5.9l2.07.23c-.23,2.07-.47,4.09-.82,5.99-.22,1.78-.46,3.7-.94,5.83"/>
  </g>
</svg>