<?xml version="1.0" encoding="UTF-8"?>
<svg id="Layer_1" data-name="Layer 1" xmlns="http://www.w3.org/2000/svg" xmlns:xlink="http://www.w3.org/1999/xlink" viewBox="0 0 90 90">
  <defs>
    <style>
      .cls-1 {
        fill: #fff;
      }

      .cls-2 {
        fill: #c1602f;
      }

      .cls-3 {
        fill: none;
      }

      .cls-4 {
        clip-path: url(#clippath-1);
      }

      .cls-5 {
        clip-path: url(#clippath);
      }
    </style>
    <clipPath id="clippath">
      <rect class="cls-3" x="14.11" y="15.41" width="61.78" height="59.19"/>
    </clipPath>
    <clipPath id="clippath-1">
      <rect class="cls-3" x="0" y="0" width="90" height="90"/>
    </clipPath>
  </defs>
  <rect class="cls-1" width="90" height="90"/>
  <g class="cls-5">
    <path class="cls-2" d="M60.79,73.35c-2.87,0-5.63-1.05-7.86-3.02-.55-.48-1.09-.94-1.62-1.39-12.06-10.43-17.39-16.2-28.6-28.99-.02-.03-.05-.05-.07-.08-.5-.58-1.02-1.17-1.55-1.77,0,0-.01-.02-.02-.02-2.62-3.14-3.51-7.51-2.39-11.71,1.09-4.11,3.97-7.39,7.69-8.76,15.74-6.1,33.29,1.32,39.8,12.08,7.94,14,14.8,26.07,4.54,38.76-2.31,2.85-5.48,4.58-8.94,4.86-.33.03-.66.04-.98.04M53.86,69.29c2.2,1.94,4.99,2.87,7.81,2.63,3.07-.25,5.9-1.8,7.96-4.35,9.19-11.37,4.22-21.53-4.66-37.17-7.56-12.52-26.15-16.1-38.1-11.48-3.31,1.22-5.86,4.14-6.83,7.81-1,3.77-.21,7.68,2.12,10.46,12.14,13.88,17.38,19.68,29.61,30.3.01,0,.03.02.04.03,0,0,0,0,.01.01.01.01.03.03.05.04l.21.19h0c.07.06.14.13.22.19,0,0,.01,0,.02.01.5.43,1,.87,1.52,1.31,0,0,.01,0,.01.01M63.21,61.69c-4.74,0-10.13-2.47-11.87-6.81-2.66-6.8-6.22-8.67-9.68-10.48-2.42-1.26-4.7-2.46-6.44-5.18-.14-.18-.27-.37-.41-.54-.51-.67-1.03-1.34-1.52-1.99-2.1-2.71-3.86-4.98-4.26-7.02-.12-.61-.13-1.2.02-1.78.13-.53.39-1.02.77-1.48,0,0,.01,0,0,0,.63-.75,1.59-1.41,2.9-1.99,0,0,.02,0,.03-.01,9.25-3.84,19.14.03,25.23,9.87,1.67,2.68,2.7,5,3.71,7.24,1.58,3.54,2.95,6.59,6.37,10.01,1.55,1.55,2.26,4.06,1.75,6.24-.38,1.64-1.38,2.81-2.82,3.31-1.15.41-2.44.61-3.79.61M36.43,38.51c1.57,2.39,3.57,3.44,5.89,4.66,3.51,1.83,7.49,3.91,10.33,11.2,1.92,4.81,9.37,7.02,13.89,5.39,1.25-.43,1.74-1.49,1.92-2.31.39-1.7-.18-3.73-1.38-4.93-3.6-3.61-5.09-6.92-6.66-10.43-.99-2.2-2.01-4.48-3.62-7.08-5.71-9.23-14.93-12.88-23.51-9.32-1.7.75-2.64,1.58-2.88,2.54-.06.25-.08.51-.06.79h0c.15,1.79,1.98,4.14,4.05,6.81.64.82,1.3,1.68,1.97,2.59.02.03.04.06.05.08"/>
  </g>
  <g class="cls-4">
    <path class="cls-2" d="M48.98,74.59c-1.4-1.1-2.51-2.11-3.59-3.09-1.13-1.02-2.13-1.92-3.12-2.82-1.06-.95-2.03-1.71-3.14-2.45-1.07-.72-2.39-1.54-4.02-2.25-1.66-.78-3.21-1.07-5.05-1.26l.1-.99c1.94.2,3.59.51,5.36,1.34,1.69.74,3.05,1.59,4.16,2.33,1.14.76,2.17,1.57,3.25,2.54,1,.9,2,1.8,3.1,2.8,1.1.99,2.2,1.99,3.57,3.07l-.62.79ZM28.06,62.71c-.44-.05-.84-.08-1.24-.1-.43-.02-.84-.05-1.26-.1h-.04c-1.63,0-3.12-.24-4.37-.73-1.26-.45-2.28-1.1-3.17-2.05l-3.23,2.67-.64-.77,3.22-2.67s-.07-.1-.11-.15c-.5-.71-.77-1.37-.89-2.22-.12-.85.03-1.57.21-2.21.1-.39.3-.92.53-1.38l.89.45c-.2.4-.38.86-.46,1.19-.18.64-.28,1.18-.19,1.81.08.59.24,1.11.71,1.78.95,1.29,2.02,2.1,3.46,2.61,1.16.45,2.54.67,4.13.67.46.05.85.08,1.26.1.41.02.84.05,1.3.1l-.11.99ZM18.81,51.55l-.97-.24c.08-.3.2-.61.35-.95l.17-.42c.32-.97.46-1.67.46-2.31,0-.79,0-1.53-.18-2.16-.18-.73-.45-1.39-.85-2.09-.51-.89-.97-1.56-1.44-2.12l.76-.65c.52.61,1.01,1.33,1.55,2.28.45.78.75,1.52.95,2.32.21.75.21,1.6.21,2.42,0,.95-.26,1.88-.52,2.66l-.19.46c-.12.29-.23.55-.3.8M47.19,40.59c-.41,0-.86-.06-1.31-.16-.77-.19-1.59-.49-2.58-.93-.65-.33-1.27-.74-1.87-1.14l.55-.83c.57.38,1.17.78,1.74,1.07.91.4,1.68.68,2.39.86.71.18,1.41.18,1.92.01.64-.1,1.03-.32,1.37-.74.38-.48.59-.97.59-1.39.08-.62-.06-1.21-.24-1.89l-.05-.19c-.26-.58-.75-1.37-1.23-2.13-.2-.19-.46-.47-.71-.75-.24-.27-.48-.53-.73-.78l.71-.71c.25.25.51.53.76.81.25.27.49.54.74.79l.08.11c.5.79,1.01,1.62,1.32,2.35l.07.26c.19.75.37,1.46.26,2.2,0,.76-.44,1.48-.8,1.94-.49.61-1.12.97-1.92,1.08-.3.1-.67.16-1.08.16M39.82,36.96c-.16-.19-.31-.36-.47-.54-.35-.39-.67-.77-.96-1.2-.51-.81-1.03-1.64-1.34-2.38l-.07-.25c-.19-.74-.36-1.45-.27-2.18,0-.05,0-.11,0-.16.04-.7.44-1.36.79-1.8,0,0,0-.01,0-.01.49-.61,1.12-.97,1.92-1.08.6-.21,1.51-.21,2.39,0,.77.19,1.59.49,2.58.93l.11.07c.35.28.71.51,1.1.76l.47.31-.55.83-.46-.3c-.4-.26-.76-.5-1.12-.78-.91-.4-1.66-.67-2.36-.84-.71-.18-1.41-.18-1.92-.01-.64.1-1.03.32-1.37.74-.38.48-.59.97-.59,1.39-.08.62.07,1.21.24,1.89l.05.18c.26.59.76,1.38,1.24,2.15.25.37.55.72.88,1.08.16.18.32.36.48.56l-.77.64Z"/>
  </g>
</svg>