<?xml version="1.0" encoding="UTF-8"?>
<svg id="Layer_1" data-name="Layer 1" xmlns="http://www.w3.org/2000/svg" xmlns:xlink="http://www.w3.org/1999/xlink" viewBox="0 0 90 90">
  <defs>
    <style>
      .cls-1 {
        fill: #fff;
      }

      .cls-2 {
        fill: none;
      }

      .cls-3 {
        fill: #231f20;
      }

      .cls-4 {
        clip-path: url(#clippath);
      }
    </style>
    <clipPath id="clippath">
      <rect class="cls-2" x="22.95" y="16.26" width="46.95" height="57.48"/>
    </clipPath>
  </defs>
  <rect class="cls-1" width="90" height="90"/>
  <g class="cls-4">
    <path class="cls-3" d="M66.24,66.19c-.53,0-1.08-.11-1.59-.37-15.02-7.26-34.79-19.95-32.98-46.16.14-2.02,1.89-3.53,3.9-3.4,2.02.14,3.53,1.89,3.4,3.9-1.17,16.81,7.74,28.86,28.86,39.08,1.82.88,2.58,3.07,1.7,4.88-.63,1.3-1.94,2.07-3.3,2.07"/>
  </g>
  <path class="cls-3" d="M60.68,73.74l-2.25-1.11,5.43-11.07,2.25,1.11-5.43,11.07ZM49.74,67.6l-2.1-1.37,6.69-10.23,2.1,1.37-6.69,10.23ZM39.79,60.05l-1.84-1.71,8.36-8.98,1.84,1.71-8.36,8.99ZM30.55,49.6l-1.32-2.13,10.44-6.48,1.32,2.13-10.44,6.48ZM24.55,36.38l-.6-2.43,11.91-2.93.6,2.43-11.91,2.93ZM35.07,22.63l-12.12-.42.09-2.51,12.12.42-.09,2.5Z"/>
</svg>