<?xml version="1.0" encoding="UTF-8"?>
<svg id="Layer_1" data-name="Layer 1" xmlns="http://www.w3.org/2000/svg" xmlns:xlink="http://www.w3.org/1999/xlink" viewBox="0 0 90 90">
  <defs>
    <style>
      .cls-1 {
        fill: #fff;
      }

      .cls-2 {
        fill: none;
      }

      .cls-3 {
        fill: #231f20;
      }

      .cls-4 {
        clip-path: url(#clippath);
      }
    </style>
    <clipPath id="clippath">
      <rect class="cls-2" x="39.11" y="11.04" width="11.77" height="67.92"/>
    </clipPath>
  </defs>
  <rect class="cls-1" width="90" height="90"/>
  <g class="cls-4">
    <path class="cls-3" d="M46.14,78.96c-5.71-11.1-9.84-19.12-4.65-31.72.86-2.32,1.69-4.29,2.43-6.05,2.13-5.07,3.41-8.13,3.11-14.08.19-5.69-1.76-8.37-5.31-13.22l-.44-.6,3.09-2.25.44.6c3.64,4.99,6.27,8.59,6.04,15.44.35,6.66-1.15,10.21-3.4,15.59-.72,1.72-1.53,3.65-2.39,5.97-4.54,11.04-1.14,17.64,4.49,28.59l-3.4,1.74Z"/>
  </g>
</svg>