<?xml version="1.0" encoding="UTF-8"?>
<svg id="Layer_1" data-name="Layer 1" xmlns="http://www.w3.org/2000/svg" viewBox="0 0 90 90">
  <defs>
    <style>
      .cls-1 {
        fill: #fff;
      }

      .cls-2 {
        fill: #231f20;
      }
    </style>
  </defs>
  <rect class="cls-1" width="90" height="90"/>
  <path class="cls-2" d="M47.38,69.78l-7.06-7.52,2.33-2.19,4.91,5.24,6.81-6.13,2.13,2.38-9.13,8.22ZM36.94,58.47l-6.18-6.58,2.32-2.19,6.18,6.58-2.32,2.19ZM60.33,58.15l-2.17-2.34,6.8-6.29-5.08-5.41,2.32-2.18,7.28,7.75-9.15,8.47ZM27.33,48.07l-6.81-7.75,8.92-8.23,2.16,2.34-6.63,6.12,4.75,5.41-2.4,2.11ZM56.45,40.49l-5.79-6.58,2.4-2.11,5.78,6.58-2.39,2.11ZM35.38,31.05l-2.14-2.37,9.37-8.46,7.05,7.99-2.39,2.11-4.92-5.57-6.98,6.3Z"/>
</svg>