<?xml version="1.0" encoding="UTF-8"?>
<svg id="Layer_1" data-name="Layer 1" xmlns="http://www.w3.org/2000/svg" xmlns:xlink="http://www.w3.org/1999/xlink" viewBox="0 0 90 90">
  <defs>
    <style>
      .cls-1 {
        fill: #e1ab82;
      }

      .cls-2 {
        fill: #fff;
      }

      .cls-3 {
        fill: none;
      }

      .cls-4 {
        fill: #231f20;
      }

      .cls-5 {
        clip-path: url(#clippath);
      }
    </style>
    <clipPath id="clippath">
      <rect class="cls-3" x="37.47" y="11.04" width="15.06" height="67.92"/>
    </clipPath>
  </defs>
  <rect class="cls-2" width="90" height="90"/>
  <g class="cls-5">
    <path class="cls-1" d="M44.62,78.68l-6.46-2.24c9.03-25.37,9.04-43.38.03-62.17l6.19-2.88c9.87,20.57,9.94,40.06.24,67.29"/>
    <path class="cls-4" d="M38.89,76.64l-1.41-.48c2.19-6.26,3.8-11.75,4.9-16.78,1.07-5.18,1.7-10.5,1.8-15.36.1-4.78-.41-9.82-1.48-14.58-1.07-4.87-2.92-10.13-5.19-14.81l1.35-.64c2.32,4.78,4.2,10.15,5.3,15.13,1.1,4.87,1.62,10.03,1.52,14.93-.11,4.95-.74,10.35-1.83,15.63-1.11,5.09-2.73,10.64-4.95,16.96"/>
    <path class="cls-4" d="M45.3,78.96l-1.41-.49c2.38-6.59,4.01-12.19,5.11-17.61,1.27-5.73,1.91-11.01,2.02-16.63.1-5.61-.43-10.78-1.7-16.27-1.07-5.46-2.85-10.63-5.61-16.29l1.35-.64c2.82,5.78,4.64,11.06,5.73,16.62,1.28,5.58,1.83,10.86,1.73,16.6-.11,5.72-.76,11.09-2.05,16.9-1.11,5.48-2.75,11.14-5.16,17.8"/>
    <path class="cls-1" d="M43.91,78.43l-5.05-1.74c9.1-25.57,9.1-43.74,0-62.73l4.84-2.25c9.77,20.37,9.83,39.7.21,66.72"/>
  </g>
</svg>