<?xml version="1.0" encoding="UTF-8"?>
<svg id="Layer_1" data-name="Layer 1" xmlns="http://www.w3.org/2000/svg" xmlns:xlink="http://www.w3.org/1999/xlink" viewBox="0 0 90 90">
  <defs>
    <style>
      .cls-1 {
        fill: #fff;
      }

      .cls-2 {
        fill: none;
      }

      .cls-3 {
        fill: #231f20;
      }

      .cls-4 {
        clip-path: url(#clippath);
      }
    </style>
    <clipPath id="clippath">
      <rect class="cls-2" y="0" width="90" height="90"/>
    </clipPath>
  </defs>
  <rect class="cls-1" width="90" height="90"/>
  <g class="cls-4">
    <path class="cls-3" d="M68.28,62.26l-6.07-6.06-6.07,6.06-2.42-2.42,6.07-6.07-6.07-6.06,2.42-2.42,6.07,6.06,6.07-6.06,2.42,2.42-6.07,6.06,6.07,6.07-2.42,2.42ZM27.87,44.86c-4.72,0-8.56-3.84-8.56-8.56s3.84-8.56,8.56-8.56,8.56,3.84,8.56,8.56-3.84,8.56-8.56,8.56M27.87,31.16c-2.83,0-5.14,2.31-5.14,5.14s2.31,5.14,5.14,5.14,5.14-2.31,5.14-5.14-2.3-5.14-5.14-5.14"/>
  </g>
</svg>