<?xml version="1.0" encoding="UTF-8"?>
<svg id="Layer_1" data-name="Layer 1" xmlns="http://www.w3.org/2000/svg" xmlns:xlink="http://www.w3.org/1999/xlink" viewBox="0 0 90 90">
  <defs>
    <style>
      .cls-1 {
        fill: #fff;
      }

      .cls-2 {
        fill: none;
      }

      .cls-3 {
        fill: #00adee;
      }

      .cls-4 {
        clip-path: url(#clippath);
      }
    </style>
    <clipPath id="clippath">
      <path class="cls-2" d="M36.14,21.19c-4.9,0-11.66,3.91-17.66,6.81-5.9,2.53-11.38,10.25-6.74,14.61,17.13,16.15,28.93,20.5,49.72,31.46,3.12,1.4,6.61,2.37,9.74,2.39h.27c3.68-.03,6.83-1.39,8.25-4.92,2.53-6.18,3.65-11.24,0-16.85-5.34-8.01-11.24-10.95-20.79-12.08-9.55-1.12-13.48-8.15-16.85-17.13-1.14-3.12-3.26-4.29-5.93-4.29h0"/>
    </clipPath>
  </defs>
  <rect class="cls-1" width="90" height="90"/>
  <path class="cls-3" d="M14.97,19.44h-7.02v-1.68h7.02v1.68ZM14.97,15.22h-7.02v-1.68h7.02v1.68Z"/>
  <g class="cls-4">
    <path class="cls-3" d="M83.37,82.35H7.11v-1.4h76.26v1.4ZM83.37,78.14H7.11v-1.4h76.26v1.4ZM83.37,73.93H7.11v-1.4h76.26v1.4ZM83.37,69.72H7.11v-1.4h76.26v1.4ZM83.37,65.5H7.11v-1.4h76.26v1.4ZM83.37,61.29H7.11v-1.4h76.26v1.4ZM83.37,57.07H7.11v-1.4h76.26v1.4ZM83.37,52.86H7.11v-1.4h76.26v1.4ZM83.37,48.65H7.11v-1.4h76.26v1.4ZM83.37,44.44H7.11v-1.4h76.26v1.4ZM83.37,40.22H7.11v-1.4h76.26v1.4ZM83.37,36.01H7.11v-1.4h76.26v1.4ZM83.37,31.8H7.11v-1.4h76.26v1.4ZM83.37,27.58H7.11v-1.4h76.26v1.4ZM83.37,23.37H7.11v-1.4h76.26v1.4ZM83.37,19.16H7.11v-1.4h76.26v1.4ZM83.37,14.94H7.11v-1.4h76.26v1.4Z"/>
  </g>
</svg>