<?xml version="1.0" encoding="UTF-8"?>
<svg id="Layer_1" data-name="Layer 1" xmlns="http://www.w3.org/2000/svg" viewBox="0 0 90 90">
  <defs>
    <style>
      .cls-1 {
        fill: #fff;
      }

      .cls-2 {
        fill: #231f20;
      }
    </style>
  </defs>
  <rect class="cls-1" width="90" height="90"/>
  <path class="cls-2" d="M30.69,61.34l-11.02-10.42,1.39-1.47,11.02,10.42-1.39,1.47ZM59.82,30.8l-11.03-10.42,1.39-1.47,11.02,10.42-1.39,1.47Z"/>
  <path class="cls-2" d="M33.01,74.34l-1.02-.98,2.09-2.17-2.17-2.09.98-1.02,2.16,2.08,17.94-19.28-2.26-2.1.96-1.04,2.26,2.1,16.12-17.27-2.26-2.1.96-1.04,2.26,2.1,3.61-3.88,1.04.96-3.61,3.88,2.26,2.1-.96,1.04-2.26-2.1-16.12,17.27,2.26,2.09-.96,1.04-2.26-2.1-17.95,19.3,2.18,2.1-.98,1.02-2.17-2.09-2.09,2.17ZM19.27,69.47l-1.05-.95,10.01-11.02L63.74,20.17l1.02.98-6.47,6.78-29.02,30.54-10,11.01ZM13.61,64.21l-1.05-.95,10.01-11.02L58.28,14.91l1.02.98L23.61,53.2l-10,11.01Z"/>
</svg>